<svg xmlns="http://www.w3.org/2000/svg" viewBox="0 0 240 160" width="240" height="160">
  <rect width="240" height="160" fill="#f4f8fc"/>
  <circle cx="24" cy="25" r="20" fill="#f4f8fc" stroke="#1467c8" stroke-width="2"/><circle cx="38" cy="13" r="3" fill="#1b2430"/><circle cx="72" cy="25" r="20" fill="#f4f8fc" stroke="#1467c8" stroke-width="2"/><circle cx="86" cy="13" r="3" fill="#1b2430"/><circle cx="120" cy="25" r="20" fill="#f4f8fc" stroke="#1467c8" stroke-width="2"/><circle cx="134" cy="13" r="3" fill="#1b2430"/><circle cx="168" cy="25" r="20" fill="#f4f8fc" stroke="#1467c8" stroke-width="2"/><circle cx="182" cy="13" r="3" fill="#1b2430"/><circle cx="216" cy="25" r="20" fill="#f4f8fc" stroke="#1467c8" stroke-width="2"/><circle cx="230" cy="13" r="3" fill="#1b2430"/><circle cx="36" cy="57" r="20" fill="#f4f8fc" stroke="#1467c8" stroke-width="2"/><circle cx="50" cy="45" r="3" fill="#1b2430"/><circle cx="84" cy="57" r="20" fill="#f4f8fc" stroke="#1467c8" stroke-width="2"/><circle cx="98" cy="45" r="3" fill="#1b2430"/><circle cx="132" cy="57" r="20" fill="#f4f8fc" stroke="#1467c8" stroke-width="2"/><circle cx="146" cy="45" r="3" fill="#1b2430"/><circle cx="180" cy="57" r="20" fill="#f4f8fc" stroke="#1467c8" stroke-width="2"/><circle cx="194" cy="45" r="3" fill="#1b2430"/><circle cx="228" cy="57" r="20" fill="#f4f8fc" stroke="#1467c8" stroke-width="2"/><circle cx="242" cy="45" r="3" fill="#1b2430"/><circle cx="24" cy="89" r="20" fill="#f4f8fc" stroke="#1467c8" stroke-width="2"/><circle cx="38" cy="77" r="3" fill="#1b2430"/><circle cx="72" cy="89" r="20" fill="#f4f8fc" stroke="#1467c8" stroke-width="2"/><circle cx="86" cy="77" r="3" fill="#1b2430"/><circle cx="120" cy="89" r="20" fill="#f4f8fc" stroke="#1467c8" stroke-width="2"/><circle cx="134" cy="77" r="3" fill="#1b2430"/><circle cx="168" cy="89" r="20" fill="#f4f8fc" stroke="#1467c8" stroke-width="2"/><circle cx="182" cy="77" r="3" fill="#1b2430"/><circle cx="216" cy="89" r="20" fill="#f4f8fc" stroke="#1467c8" stroke-width="2"/><circle cx="230" cy="77" r="3" fill="#1b2430"/><circle cx="36" cy="121" r="20" fill="#f4f8fc" stroke="#1467c8" stroke-width="2"/><circle cx="50" cy="109" r="3" fill="#1b2430"/><circle cx="84" cy="121" r="20" fill="#f4f8fc" stroke="#1467c8" stroke-width="2"/><circle cx="98" cy="109" r="3" fill="#1b2430"/><circle cx="132" cy="121" r="20" fill="#f4f8fc" stroke="#1467c8" stroke-width="2"/><circle cx="146" cy="109" r="3" fill="#1b2430"/><circle cx="180" cy="121" r="20" fill="#f4f8fc" stroke="#1467c8" stroke-width="2"/><circle cx="194" cy="109" r="3" fill="#1b2430"/><circle cx="228" cy="121" r="20" fill="#f4f8fc" stroke="#1467c8" stroke-width="2"/><circle cx="242" cy="109" r="3" fill="#1b2430"/>
  <text x="120.0" y="152" font-family="sans-serif" font-size="8.5" fill="#1b2430" text-anchor="middle" opacity="0.55">Adipose tissue — chicken-wire appearance</text>
</svg>