<svg xmlns="http://www.w3.org/2000/svg" viewBox="0 0 240 160" width="240" height="160">
  <rect width="240" height="160" fill="#f4f8fc"/>
  <circle cx="14" cy="16" r="13" fill="#f4f8fc" stroke="#1467c8" stroke-width="1.4"/><circle cx="47" cy="16" r="13" fill="#f4f8fc" stroke="#1467c8" stroke-width="1.4"/><circle cx="80" cy="16" r="13" fill="#f4f8fc" stroke="#1467c8" stroke-width="1.4"/><circle cx="113" cy="16" r="13" fill="#f4f8fc" stroke="#1467c8" stroke-width="1.4"/><circle cx="146" cy="16" r="13" fill="#f4f8fc" stroke="#1467c8" stroke-width="1.4"/><circle cx="179" cy="16" r="13" fill="#f4f8fc" stroke="#1467c8" stroke-width="1.4"/><circle cx="212" cy="16" r="13" fill="#f4f8fc" stroke="#1467c8" stroke-width="1.4"/><circle cx="24" cy="44" r="13" fill="#f4f8fc" stroke="#1467c8" stroke-width="1.4"/><circle cx="57" cy="44" r="13" fill="#f4f8fc" stroke="#1467c8" stroke-width="1.4"/><circle cx="90" cy="44" r="13" fill="#f4f8fc" stroke="#1467c8" stroke-width="1.4"/><circle cx="123" cy="44" r="13" fill="#f4f8fc" stroke="#1467c8" stroke-width="1.4"/><circle cx="156" cy="44" r="13" fill="#f4f8fc" stroke="#1467c8" stroke-width="1.4"/><circle cx="189" cy="44" r="13" fill="#f4f8fc" stroke="#1467c8" stroke-width="1.4"/><circle cx="222" cy="44" r="13" fill="#f4f8fc" stroke="#1467c8" stroke-width="1.4"/><circle cx="14" cy="72" r="13" fill="#f4f8fc" stroke="#1467c8" stroke-width="1.4"/><circle cx="47" cy="72" r="13" fill="#f4f8fc" stroke="#1467c8" stroke-width="1.4"/><circle cx="80" cy="72" r="13" fill="#f4f8fc" stroke="#1467c8" stroke-width="1.4"/><circle cx="113" cy="72" r="13" fill="#f4f8fc" stroke="#1467c8" stroke-width="1.4"/><circle cx="146" cy="72" r="13" fill="#f4f8fc" stroke="#1467c8" stroke-width="1.4"/><circle cx="179" cy="72" r="13" fill="#f4f8fc" stroke="#1467c8" stroke-width="1.4"/><circle cx="212" cy="72" r="13" fill="#f4f8fc" stroke="#1467c8" stroke-width="1.4"/><circle cx="24" cy="100" r="13" fill="#f4f8fc" stroke="#1467c8" stroke-width="1.4"/><circle cx="57" cy="100" r="13" fill="#f4f8fc" stroke="#1467c8" stroke-width="1.4"/><circle cx="90" cy="100" r="13" fill="#f4f8fc" stroke="#1467c8" stroke-width="1.4"/><circle cx="123" cy="100" r="13" fill="#f4f8fc" stroke="#1467c8" stroke-width="1.4"/><circle cx="156" cy="100" r="13" fill="#f4f8fc" stroke="#1467c8" stroke-width="1.4"/><circle cx="189" cy="100" r="13" fill="#f4f8fc" stroke="#1467c8" stroke-width="1.4"/><circle cx="222" cy="100" r="13" fill="#f4f8fc" stroke="#1467c8" stroke-width="1.4"/><circle cx="14" cy="128" r="13" fill="#f4f8fc" stroke="#1467c8" stroke-width="1.4"/><circle cx="47" cy="128" r="13" fill="#f4f8fc" stroke="#1467c8" stroke-width="1.4"/><circle cx="80" cy="128" r="13" fill="#f4f8fc" stroke="#1467c8" stroke-width="1.4"/><circle cx="113" cy="128" r="13" fill="#f4f8fc" stroke="#1467c8" stroke-width="1.4"/><circle cx="146" cy="128" r="13" fill="#f4f8fc" stroke="#1467c8" stroke-width="1.4"/><circle cx="179" cy="128" r="13" fill="#f4f8fc" stroke="#1467c8" stroke-width="1.4"/><circle cx="212" cy="128" r="13" fill="#f4f8fc" stroke="#1467c8" stroke-width="1.4"/>
  <text x="120.0" y="152" font-family="sans-serif" font-size="8.5" fill="#1b2430" text-anchor="middle" opacity="0.55">Adipose tissue — 100x</text>
</svg>