<svg xmlns="http://www.w3.org/2000/svg" viewBox="0 0 240 160" width="240" height="160">
  <rect width="240" height="160" fill="#f4f8fc"/>
  <path d="M10 50 L100 50 L100 20 L190 20" stroke="#1467c8" stroke-width="16" fill="none" stroke-linecap="round" opacity="0.25"/><path d="M10 50 L100 50 L100 20 L190 20" stroke="#e8f0fb" stroke-width="12" fill="none" stroke-linecap="round"/><path d="M10 100 L90 100 L90 130 L190 130" stroke="#1467c8" stroke-width="16" fill="none" stroke-linecap="round" opacity="0.25"/><path d="M10 100 L90 100 L90 130 L190 130" stroke="#e8f0fb" stroke-width="12" fill="none" stroke-linecap="round"/><line x1="40" y1="45" x2="40" y2="55" stroke="#2fa66b" stroke-width="3"/><line x1="40" y1="95" x2="40" y2="105" stroke="#2fa66b" stroke-width="3"/><line x1="75" y1="45" x2="75" y2="55" stroke="#2fa66b" stroke-width="3"/><line x1="75" y1="95" x2="75" y2="105" stroke="#2fa66b" stroke-width="3"/><line x1="140" y1="45" x2="140" y2="55" stroke="#2fa66b" stroke-width="3"/><line x1="140" y1="95" x2="140" y2="105" stroke="#2fa66b" stroke-width="3"/><circle cx="55" cy="50" r="5" fill="#1b2430"/><circle cx="140" cy="113" r="5" fill="#1b2430"/>
  <text x="120.0" y="152" font-family="sans-serif" font-size="9" fill="#1b2430" text-anchor="middle" opacity="0.55">Cardiac muscle (schematic)</text>
</svg>