<svg xmlns="http://www.w3.org/2000/svg" viewBox="0 0 240 160" width="240" height="160">
  <rect width="240" height="160" fill="#f4f8fc"/>
  <path d="M6 40 L70 40 L70 15 L140 15 L140 40 L200 40" stroke="#e8f0fb" stroke-width="9" fill="none" stroke-linecap="round"/><line x1="25" y1="36" x2="25" y2="44" stroke="#2fa66b" stroke-width="2"/><line x1="55" y1="36" x2="55" y2="44" stroke="#2fa66b" stroke-width="2"/><line x1="90" y1="36" x2="90" y2="44" stroke="#2fa66b" stroke-width="2"/><line x1="120" y1="36" x2="120" y2="44" stroke="#2fa66b" stroke-width="2"/><line x1="160" y1="36" x2="160" y2="44" stroke="#2fa66b" stroke-width="2"/><line x1="185" y1="36" x2="185" y2="44" stroke="#2fa66b" stroke-width="2"/><circle cx="40" cy="40" r="3.5" fill="#1b2430"/><path d="M6 110 L70 110 L70 85 L140 85 L140 110 L200 110" stroke="#e8f0fb" stroke-width="9" fill="none" stroke-linecap="round"/><line x1="25" y1="106" x2="25" y2="114" stroke="#2fa66b" stroke-width="2"/><line x1="55" y1="106" x2="55" y2="114" stroke="#2fa66b" stroke-width="2"/><line x1="90" y1="106" x2="90" y2="114" stroke="#2fa66b" stroke-width="2"/><line x1="120" y1="106" x2="120" y2="114" stroke="#2fa66b" stroke-width="2"/><line x1="160" y1="106" x2="160" y2="114" stroke="#2fa66b" stroke-width="2"/><line x1="185" y1="106" x2="185" y2="114" stroke="#2fa66b" stroke-width="2"/><circle cx="40" cy="110" r="3.5" fill="#1b2430"/>
  <text x="120.0" y="152" font-family="sans-serif" font-size="9" fill="#1b2430" text-anchor="middle" opacity="0.55">Cardiac muscle — 100x (wide field)</text>
</svg>