<svg xmlns="http://www.w3.org/2000/svg" viewBox="0 0 240 160" width="240" height="160">
  <rect width="240" height="160" fill="#f4f8fc"/>
  <circle cx="35" cy="35" r="16" fill="none" stroke="#1467c8" stroke-width="0.9"/><circle cx="35" cy="35" r="11" fill="none" stroke="#1467c8" stroke-width="0.9"/><circle cx="35" cy="35" r="6" fill="none" stroke="#1467c8" stroke-width="0.9"/><circle cx="35" cy="35" r="2" fill="#1b2430"/><circle cx="100" cy="30" r="16" fill="none" stroke="#1467c8" stroke-width="0.9"/><circle cx="100" cy="30" r="11" fill="none" stroke="#1467c8" stroke-width="0.9"/><circle cx="100" cy="30" r="6" fill="none" stroke="#1467c8" stroke-width="0.9"/><circle cx="100" cy="30" r="2" fill="#1b2430"/><circle cx="170" cy="40" r="16" fill="none" stroke="#1467c8" stroke-width="0.9"/><circle cx="170" cy="40" r="11" fill="none" stroke="#1467c8" stroke-width="0.9"/><circle cx="170" cy="40" r="6" fill="none" stroke="#1467c8" stroke-width="0.9"/><circle cx="170" cy="40" r="2" fill="#1b2430"/><circle cx="50" cy="110" r="16" fill="none" stroke="#1467c8" stroke-width="0.9"/><circle cx="50" cy="110" r="11" fill="none" stroke="#1467c8" stroke-width="0.9"/><circle cx="50" cy="110" r="6" fill="none" stroke="#1467c8" stroke-width="0.9"/><circle cx="50" cy="110" r="2" fill="#1b2430"/><circle cx="130" cy="100" r="16" fill="none" stroke="#1467c8" stroke-width="0.9"/><circle cx="130" cy="100" r="11" fill="none" stroke="#1467c8" stroke-width="0.9"/><circle cx="130" cy="100" r="6" fill="none" stroke="#1467c8" stroke-width="0.9"/><circle cx="130" cy="100" r="2" fill="#1b2430"/><circle cx="200" cy="115" r="16" fill="none" stroke="#1467c8" stroke-width="0.9"/><circle cx="200" cy="115" r="11" fill="none" stroke="#1467c8" stroke-width="0.9"/><circle cx="200" cy="115" r="6" fill="none" stroke="#1467c8" stroke-width="0.9"/><circle cx="200" cy="115" r="2" fill="#1b2430"/>
  <text x="120.0" y="152" font-family="sans-serif" font-size="8.5" fill="#1b2430" text-anchor="middle" opacity="0.55">Compact bone — 100x</text>
</svg>