<svg xmlns="http://www.w3.org/2000/svg" viewBox="0 0 240 160" width="240" height="160">
  <rect width="240" height="160" fill="#f4f8fc"/>
  <circle cx="60" cy="60" r="28" fill="none" stroke="#1467c8" stroke-width="1.2"/><circle cx="60" cy="60" r="21" fill="none" stroke="#1467c8" stroke-width="1.2"/><circle cx="60" cy="60" r="14" fill="none" stroke="#1467c8" stroke-width="1.2"/><circle cx="60" cy="60" r="7" fill="none" stroke="#1467c8" stroke-width="1.2"/><circle cx="60" cy="60" r="3.5" fill="#1b2430"/><circle cx="170" cy="50" r="28" fill="none" stroke="#1467c8" stroke-width="1.2"/><circle cx="170" cy="50" r="21" fill="none" stroke="#1467c8" stroke-width="1.2"/><circle cx="170" cy="50" r="14" fill="none" stroke="#1467c8" stroke-width="1.2"/><circle cx="170" cy="50" r="7" fill="none" stroke="#1467c8" stroke-width="1.2"/><circle cx="170" cy="50" r="3.5" fill="#1b2430"/><circle cx="110" cy="115" r="28" fill="none" stroke="#1467c8" stroke-width="1.2"/><circle cx="110" cy="115" r="21" fill="none" stroke="#1467c8" stroke-width="1.2"/><circle cx="110" cy="115" r="14" fill="none" stroke="#1467c8" stroke-width="1.2"/><circle cx="110" cy="115" r="7" fill="none" stroke="#1467c8" stroke-width="1.2"/><circle cx="110" cy="115" r="3.5" fill="#1b2430"/><circle cx="190" cy="120" r="28" fill="none" stroke="#1467c8" stroke-width="1.2"/><circle cx="190" cy="120" r="21" fill="none" stroke="#1467c8" stroke-width="1.2"/><circle cx="190" cy="120" r="14" fill="none" stroke="#1467c8" stroke-width="1.2"/><circle cx="190" cy="120" r="7" fill="none" stroke="#1467c8" stroke-width="1.2"/><circle cx="190" cy="120" r="3.5" fill="#1b2430"/>
  <text x="120.0" y="152" font-family="sans-serif" font-size="8.5" fill="#1b2430" text-anchor="middle" opacity="0.55">Compact bone — osteons with concentric lamellae</text>
</svg>