<svg xmlns="http://www.w3.org/2000/svg" viewBox="0 0 240 160" width="240" height="160">
  <rect width="240" height="160" fill="#f4f8fc"/>
  <path d="M0 14 Q 60.0 8 120.0 14 Q 180.0 20 240 14" stroke="#1467c8" stroke-width="2.5" fill="none" opacity="0.7"/><path d="M0 36 Q 60.0 30 120.0 36 Q 180.0 42 240 36" stroke="#1467c8" stroke-width="2.5" fill="none" opacity="0.7"/><path d="M0 58 Q 60.0 52 120.0 58 Q 180.0 64 240 58" stroke="#1467c8" stroke-width="2.5" fill="none" opacity="0.7"/><path d="M0 80 Q 60.0 74 120.0 80 Q 180.0 86 240 80" stroke="#1467c8" stroke-width="2.5" fill="none" opacity="0.7"/><path d="M0 102 Q 60.0 96 120.0 102 Q 180.0 108 240 102" stroke="#1467c8" stroke-width="2.5" fill="none" opacity="0.7"/><path d="M0 124 Q 60.0 118 120.0 124 Q 180.0 130 240 124" stroke="#1467c8" stroke-width="2.5" fill="none" opacity="0.7"/><ellipse cx="40" cy="30" rx="7" ry="2.6" fill="#1b2430" opacity="0.8"/><ellipse cx="120" cy="52" rx="7" ry="2.6" fill="#1b2430" opacity="0.8"/><ellipse cx="200" cy="30" rx="7" ry="2.6" fill="#1b2430" opacity="0.8"/><ellipse cx="70" cy="96" rx="7" ry="2.6" fill="#1b2430" opacity="0.8"/><ellipse cx="160" cy="118" rx="7" ry="2.6" fill="#1b2430" opacity="0.8"/><ellipse cx="30" cy="118" rx="7" ry="2.6" fill="#1b2430" opacity="0.8"/>
  <text x="120.0" y="152" font-family="sans-serif" font-size="9" fill="#1b2430" text-anchor="middle" opacity="0.55">Dense regular connective tissue (schematic)</text>
</svg>