<svg xmlns="http://www.w3.org/2000/svg" viewBox="0 0 240 160" width="240" height="160">
  <rect width="240" height="160" fill="#f4f8fc"/>
  <path d="M0 8 Q 60.0 4 120.0 8 Q 180.0 12 240 8" stroke="#1467c8" stroke-width="1.8" fill="none" opacity="0.65"/><path d="M0 24 Q 60.0 20 120.0 24 Q 180.0 28 240 24" stroke="#1467c8" stroke-width="1.8" fill="none" opacity="0.65"/><path d="M0 40 Q 60.0 36 120.0 40 Q 180.0 44 240 40" stroke="#1467c8" stroke-width="1.8" fill="none" opacity="0.65"/><path d="M0 56 Q 60.0 52 120.0 56 Q 180.0 60 240 56" stroke="#1467c8" stroke-width="1.8" fill="none" opacity="0.65"/><path d="M0 72 Q 60.0 68 120.0 72 Q 180.0 76 240 72" stroke="#1467c8" stroke-width="1.8" fill="none" opacity="0.65"/><path d="M0 88 Q 60.0 84 120.0 88 Q 180.0 92 240 88" stroke="#1467c8" stroke-width="1.8" fill="none" opacity="0.65"/><path d="M0 104 Q 60.0 100 120.0 104 Q 180.0 108 240 104" stroke="#1467c8" stroke-width="1.8" fill="none" opacity="0.65"/><path d="M0 120 Q 60.0 116 120.0 120 Q 180.0 124 240 120" stroke="#1467c8" stroke-width="1.8" fill="none" opacity="0.65"/><path d="M0 136 Q 60.0 132 120.0 136 Q 180.0 140 240 136" stroke="#1467c8" stroke-width="1.8" fill="none" opacity="0.65"/><ellipse cx="31" cy="38" rx="5" ry="1.8" fill="#1b2430" opacity="0.75"/><ellipse cx="79" cy="127" rx="5" ry="1.8" fill="#1b2430" opacity="0.75"/><ellipse cx="119" cy="104" rx="5" ry="1.8" fill="#1b2430" opacity="0.75"/><ellipse cx="36" cy="76" rx="5" ry="1.8" fill="#1b2430" opacity="0.75"/><ellipse cx="192" cy="78" rx="5" ry="1.8" fill="#1b2430" opacity="0.75"/><ellipse cx="213" cy="125" rx="5" ry="1.8" fill="#1b2430" opacity="0.75"/><ellipse cx="93" cy="10" rx="5" ry="1.8" fill="#1b2430" opacity="0.75"/><ellipse cx="174" cy="26" rx="5" ry="1.8" fill="#1b2430" opacity="0.75"/><ellipse cx="17" cy="105" rx="5" ry="1.8" fill="#1b2430" opacity="0.75"/><ellipse cx="192" cy="119" rx="5" ry="1.8" fill="#1b2430" opacity="0.75"/>
  <text x="120.0" y="152" font-family="sans-serif" font-size="9" fill="#1b2430" text-anchor="middle" opacity="0.55">Dense regular connective tissue — 100x (wide field)</text>
</svg>