<svg xmlns="http://www.w3.org/2000/svg" viewBox="0 0 240 160" width="240" height="160">
  <rect width="240" height="160" fill="#f4f8fc"/>
  <rect x="4" y="4" width="232" height="142" rx="8" fill="#e8f0fb" stroke="#1467c8" stroke-width="1.2"/><path d="M4 52 q 30 -6 60 3 q 30 9 60 -4 q 30 -6 50 3" stroke="#1b2430" stroke-width="0.8" fill="none" opacity="0.45"/><path d="M4 30 q 30 -6 60 3 q 30 9 60 -4 q 30 -6 50 3" stroke="#1b2430" stroke-width="0.8" fill="none" opacity="0.45"/><path d="M4 95 q 30 -6 60 3 q 30 9 60 -4 q 30 -6 50 3" stroke="#1b2430" stroke-width="0.8" fill="none" opacity="0.45"/><path d="M4 19 q 30 -6 60 3 q 30 9 60 -4 q 30 -6 50 3" stroke="#1b2430" stroke-width="0.8" fill="none" opacity="0.45"/><path d="M4 80 q 30 -6 60 3 q 30 9 60 -4 q 30 -6 50 3" stroke="#1b2430" stroke-width="0.8" fill="none" opacity="0.45"/><path d="M4 58 q 30 -6 60 3 q 30 9 60 -4 q 30 -6 50 3" stroke="#1b2430" stroke-width="0.8" fill="none" opacity="0.45"/><path d="M4 18 q 30 -6 60 3 q 30 9 60 -4 q 30 -6 50 3" stroke="#1b2430" stroke-width="0.8" fill="none" opacity="0.45"/><path d="M4 76 q 30 -6 60 3 q 30 9 60 -4 q 30 -6 50 3" stroke="#1b2430" stroke-width="0.8" fill="none" opacity="0.45"/><path d="M4 15 q 30 -6 60 3 q 30 9 60 -4 q 30 -6 50 3" stroke="#1b2430" stroke-width="0.8" fill="none" opacity="0.45"/><path d="M4 66 q 30 -6 60 3 q 30 9 60 -4 q 30 -6 50 3" stroke="#1b2430" stroke-width="0.8" fill="none" opacity="0.45"/><path d="M4 19 q 30 -6 60 3 q 30 9 60 -4 q 30 -6 50 3" stroke="#1b2430" stroke-width="0.8" fill="none" opacity="0.45"/><path d="M4 22 q 30 -6 60 3 q 30 9 60 -4 q 30 -6 50 3" stroke="#1b2430" stroke-width="0.8" fill="none" opacity="0.45"/><path d="M4 65 q 30 -6 60 3 q 30 9 60 -4 q 30 -6 50 3" stroke="#1b2430" stroke-width="0.8" fill="none" opacity="0.45"/><path d="M4 117 q 30 -6 60 3 q 30 9 60 -4 q 30 -6 50 3" stroke="#1b2430" stroke-width="0.8" fill="none" opacity="0.45"/><path d="M4 26 q 30 -6 60 3 q 30 9 60 -4 q 30 -6 50 3" stroke="#1b2430" stroke-width="0.8" fill="none" opacity="0.45"/><path d="M4 39 q 30 -6 60 3 q 30 9 60 -4 q 30 -6 50 3" stroke="#1b2430" stroke-width="0.8" fill="none" opacity="0.45"/><path d="M4 92 q 30 -6 60 3 q 30 9 60 -4 q 30 -6 50 3" stroke="#1b2430" stroke-width="0.8" fill="none" opacity="0.45"/><path d="M4 133 q 30 -6 60 3 q 30 9 60 -4 q 30 -6 50 3" stroke="#1b2430" stroke-width="0.8" fill="none" opacity="0.45"/><path d="M4 85 q 30 -6 60 3 q 30 9 60 -4 q 30 -6 50 3" stroke="#1b2430" stroke-width="0.8" fill="none" opacity="0.45"/><path d="M4 62 q 30 -6 60 3 q 30 9 60 -4 q 30 -6 50 3" stroke="#1b2430" stroke-width="0.8" fill="none" opacity="0.45"/><path d="M4 137 q 30 -6 60 3 q 30 9 60 -4 q 30 -6 50 3" stroke="#1b2430" stroke-width="0.8" fill="none" opacity="0.45"/><path d="M4 16 q 30 -6 60 3 q 30 9 60 -4 q 30 -6 50 3" stroke="#1b2430" stroke-width="0.8" fill="none" opacity="0.45"/><circle cx="192" cy="50" r="3" fill="#2fa66b" opacity="0.8"/><circle cx="49" cy="29" r="3" fill="#2fa66b" opacity="0.8"/><circle cx="82" cy="113" r="3" fill="#2fa66b" opacity="0.8"/><circle cx="56" cy="85" r="3" fill="#2fa66b" opacity="0.8"/><circle cx="148" cy="60" r="3" fill="#2fa66b" opacity="0.8"/><circle cx="130" cy="23" r="3" fill="#2fa66b" opacity="0.8"/><circle cx="32" cy="40" r="3" fill="#2fa66b" opacity="0.8"/><circle cx="156" cy="66" r="3" fill="#2fa66b" opacity="0.8"/><circle cx="83" cy="85" r="3" fill="#2fa66b" opacity="0.8"/><circle cx="111" cy="51" r="3" fill="#2fa66b" opacity="0.8"/>
  <text x="120.0" y="152" font-family="sans-serif" font-size="8.5" fill="#1b2430" text-anchor="middle" opacity="0.55">Elastic cartilage — 100x</text>
</svg>