<svg xmlns="http://www.w3.org/2000/svg" viewBox="0 0 240 160" width="240" height="160">
  <rect width="240" height="160" fill="#f4f8fc"/>
  <rect x="6" y="6" width="228" height="138" rx="10" fill="#e8f0fb" stroke="#1467c8" stroke-width="1.5"/><path d="M6 110 q 40 -8 80 4 q 40 12 80 -6 q 30 -8 60 4" stroke="#1b2430" stroke-width="1" fill="none" opacity="0.5"/><path d="M6 114 q 40 -8 80 4 q 40 12 80 -6 q 30 -8 60 4" stroke="#1b2430" stroke-width="1" fill="none" opacity="0.5"/><path d="M6 73 q 40 -8 80 4 q 40 12 80 -6 q 30 -8 60 4" stroke="#1b2430" stroke-width="1" fill="none" opacity="0.5"/><path d="M6 46 q 40 -8 80 4 q 40 12 80 -6 q 30 -8 60 4" stroke="#1b2430" stroke-width="1" fill="none" opacity="0.5"/><path d="M6 15 q 40 -8 80 4 q 40 12 80 -6 q 30 -8 60 4" stroke="#1b2430" stroke-width="1" fill="none" opacity="0.5"/><path d="M6 95 q 40 -8 80 4 q 40 12 80 -6 q 30 -8 60 4" stroke="#1b2430" stroke-width="1" fill="none" opacity="0.5"/><path d="M6 71 q 40 -8 80 4 q 40 12 80 -6 q 30 -8 60 4" stroke="#1b2430" stroke-width="1" fill="none" opacity="0.5"/><path d="M6 106 q 40 -8 80 4 q 40 12 80 -6 q 30 -8 60 4" stroke="#1b2430" stroke-width="1" fill="none" opacity="0.5"/><path d="M6 60 q 40 -8 80 4 q 40 12 80 -6 q 30 -8 60 4" stroke="#1b2430" stroke-width="1" fill="none" opacity="0.5"/><path d="M6 107 q 40 -8 80 4 q 40 12 80 -6 q 30 -8 60 4" stroke="#1b2430" stroke-width="1" fill="none" opacity="0.5"/><path d="M6 48 q 40 -8 80 4 q 40 12 80 -6 q 30 -8 60 4" stroke="#1b2430" stroke-width="1" fill="none" opacity="0.5"/><path d="M6 111 q 40 -8 80 4 q 40 12 80 -6 q 30 -8 60 4" stroke="#1b2430" stroke-width="1" fill="none" opacity="0.5"/><path d="M6 103 q 40 -8 80 4 q 40 12 80 -6 q 30 -8 60 4" stroke="#1b2430" stroke-width="1" fill="none" opacity="0.5"/><path d="M6 65 q 40 -8 80 4 q 40 12 80 -6 q 30 -8 60 4" stroke="#1b2430" stroke-width="1" fill="none" opacity="0.5"/><ellipse cx="127" cy="93" rx="10" ry="8" fill="none" stroke="#1467c8" stroke-width="1" stroke-dasharray="2,2"/><circle cx="127" cy="93" r="3.5" fill="#2fa66b"/><ellipse cx="65" cy="80" rx="10" ry="8" fill="none" stroke="#1467c8" stroke-width="1" stroke-dasharray="2,2"/><circle cx="65" cy="80" r="3.5" fill="#2fa66b"/><ellipse cx="175" cy="52" rx="10" ry="8" fill="none" stroke="#1467c8" stroke-width="1" stroke-dasharray="2,2"/><circle cx="175" cy="52" r="3.5" fill="#2fa66b"/><ellipse cx="175" cy="94" rx="10" ry="8" fill="none" stroke="#1467c8" stroke-width="1" stroke-dasharray="2,2"/><circle cx="175" cy="94" r="3.5" fill="#2fa66b"/><ellipse cx="182" cy="59" rx="10" ry="8" fill="none" stroke="#1467c8" stroke-width="1" stroke-dasharray="2,2"/><circle cx="182" cy="59" r="3.5" fill="#2fa66b"/><ellipse cx="47" cy="105" rx="10" ry="8" fill="none" stroke="#1467c8" stroke-width="1" stroke-dasharray="2,2"/><circle cx="47" cy="105" r="3.5" fill="#2fa66b"/>
  <text x="120.0" y="152" font-family="sans-serif" font-size="8.5" fill="#1b2430" text-anchor="middle" opacity="0.55">Elastic cartilage — dense elastic fibers, chondrocytes</text>
</svg>