<svg xmlns="http://www.w3.org/2000/svg" viewBox="0 0 240 160" width="240" height="160">
  <rect width="240" height="160" fill="#f4f8fc"/>
  <line x1="0" y1="8" x2="240" y2="8" stroke="#1b2430" stroke-width="1.8" opacity="0.5"/><circle cx="8" cy="16" r="2.6" fill="#2fa66b"/><circle cx="34" cy="16" r="2.6" fill="#2fa66b"/><circle cx="60" cy="16" r="2.6" fill="#2fa66b"/><circle cx="86" cy="16" r="2.6" fill="#2fa66b"/><circle cx="112" cy="16" r="2.6" fill="#2fa66b"/><circle cx="138" cy="16" r="2.6" fill="#2fa66b"/><circle cx="164" cy="16" r="2.6" fill="#2fa66b"/><circle cx="190" cy="16" r="2.6" fill="#2fa66b"/><circle cx="216" cy="16" r="2.6" fill="#2fa66b"/><line x1="0" y1="24" x2="240" y2="24" stroke="#1b2430" stroke-width="1.8" opacity="0.5"/><circle cx="8" cy="32" r="2.6" fill="#2fa66b"/><circle cx="34" cy="32" r="2.6" fill="#2fa66b"/><circle cx="60" cy="32" r="2.6" fill="#2fa66b"/><circle cx="86" cy="32" r="2.6" fill="#2fa66b"/><circle cx="112" cy="32" r="2.6" fill="#2fa66b"/><circle cx="138" cy="32" r="2.6" fill="#2fa66b"/><circle cx="164" cy="32" r="2.6" fill="#2fa66b"/><circle cx="190" cy="32" r="2.6" fill="#2fa66b"/><circle cx="216" cy="32" r="2.6" fill="#2fa66b"/><line x1="0" y1="40" x2="240" y2="40" stroke="#1b2430" stroke-width="1.8" opacity="0.5"/><circle cx="8" cy="48" r="2.6" fill="#2fa66b"/><circle cx="34" cy="48" r="2.6" fill="#2fa66b"/><circle cx="60" cy="48" r="2.6" fill="#2fa66b"/><circle cx="86" cy="48" r="2.6" fill="#2fa66b"/><circle cx="112" cy="48" r="2.6" fill="#2fa66b"/><circle cx="138" cy="48" r="2.6" fill="#2fa66b"/><circle cx="164" cy="48" r="2.6" fill="#2fa66b"/><circle cx="190" cy="48" r="2.6" fill="#2fa66b"/><circle cx="216" cy="48" r="2.6" fill="#2fa66b"/><line x1="0" y1="56" x2="240" y2="56" stroke="#1b2430" stroke-width="1.8" opacity="0.5"/><circle cx="8" cy="64" r="2.6" fill="#2fa66b"/><circle cx="34" cy="64" r="2.6" fill="#2fa66b"/><circle cx="60" cy="64" r="2.6" fill="#2fa66b"/><circle cx="86" cy="64" r="2.6" fill="#2fa66b"/><circle cx="112" cy="64" r="2.6" fill="#2fa66b"/><circle cx="138" cy="64" r="2.6" fill="#2fa66b"/><circle cx="164" cy="64" r="2.6" fill="#2fa66b"/><circle cx="190" cy="64" r="2.6" fill="#2fa66b"/><circle cx="216" cy="64" r="2.6" fill="#2fa66b"/><line x1="0" y1="72" x2="240" y2="72" stroke="#1b2430" stroke-width="1.8" opacity="0.5"/><circle cx="8" cy="80" r="2.6" fill="#2fa66b"/><circle cx="34" cy="80" r="2.6" fill="#2fa66b"/><circle cx="60" cy="80" r="2.6" fill="#2fa66b"/><circle cx="86" cy="80" r="2.6" fill="#2fa66b"/><circle cx="112" cy="80" r="2.6" fill="#2fa66b"/><circle cx="138" cy="80" r="2.6" fill="#2fa66b"/><circle cx="164" cy="80" r="2.6" fill="#2fa66b"/><circle cx="190" cy="80" r="2.6" fill="#2fa66b"/><circle cx="216" cy="80" r="2.6" fill="#2fa66b"/><line x1="0" y1="88" x2="240" y2="88" stroke="#1b2430" stroke-width="1.8" opacity="0.5"/><circle cx="8" cy="96" r="2.6" fill="#2fa66b"/><circle cx="34" cy="96" r="2.6" fill="#2fa66b"/><circle cx="60" cy="96" r="2.6" fill="#2fa66b"/><circle cx="86" cy="96" r="2.6" fill="#2fa66b"/><circle cx="112" cy="96" r="2.6" fill="#2fa66b"/><circle cx="138" cy="96" r="2.6" fill="#2fa66b"/><circle cx="164" cy="96" r="2.6" fill="#2fa66b"/><circle cx="190" cy="96" r="2.6" fill="#2fa66b"/><circle cx="216" cy="96" r="2.6" fill="#2fa66b"/><line x1="0" y1="104" x2="240" y2="104" stroke="#1b2430" stroke-width="1.8" opacity="0.5"/><circle cx="8" cy="112" r="2.6" fill="#2fa66b"/><circle cx="34" cy="112" r="2.6" fill="#2fa66b"/><circle cx="60" cy="112" r="2.6" fill="#2fa66b"/><circle cx="86" cy="112" r="2.6" fill="#2fa66b"/><circle cx="112" cy="112" r="2.6" fill="#2fa66b"/><circle cx="138" cy="112" r="2.6" fill="#2fa66b"/><circle cx="164" cy="112" r="2.6" fill="#2fa66b"/><circle cx="190" cy="112" r="2.6" fill="#2fa66b"/><circle cx="216" cy="112" r="2.6" fill="#2fa66b"/><line x1="0" y1="120" x2="240" y2="120" stroke="#1b2430" stroke-width="1.8" opacity="0.5"/><circle cx="8" cy="128" r="2.6" fill="#2fa66b"/><circle cx="34" cy="128" r="2.6" fill="#2fa66b"/><circle cx="60" cy="128" r="2.6" fill="#2fa66b"/><circle cx="86" cy="128" r="2.6" fill="#2fa66b"/><circle cx="112" cy="128" r="2.6" fill="#2fa66b"/><circle cx="138" cy="128" r="2.6" fill="#2fa66b"/><circle cx="164" cy="128" r="2.6" fill="#2fa66b"/><circle cx="190" cy="128" r="2.6" fill="#2fa66b"/><circle cx="216" cy="128" r="2.6" fill="#2fa66b"/><line x1="0" y1="136" x2="240" y2="136" stroke="#1b2430" stroke-width="1.8" opacity="0.5"/><circle cx="8" cy="144" r="2.6" fill="#2fa66b"/><circle cx="34" cy="144" r="2.6" fill="#2fa66b"/><circle cx="60" cy="144" r="2.6" fill="#2fa66b"/><circle cx="86" cy="144" r="2.6" fill="#2fa66b"/><circle cx="112" cy="144" r="2.6" fill="#2fa66b"/><circle cx="138" cy="144" r="2.6" fill="#2fa66b"/><circle cx="164" cy="144" r="2.6" fill="#2fa66b"/><circle cx="190" cy="144" r="2.6" fill="#2fa66b"/><circle cx="216" cy="144" r="2.6" fill="#2fa66b"/>
  <text x="120.0" y="152" font-family="sans-serif" font-size="8.5" fill="#1b2430" text-anchor="middle" opacity="0.55">Fibrocartilage — 100x</text>
</svg>