<svg xmlns="http://www.w3.org/2000/svg" viewBox="0 0 240 160" width="240" height="160">
  <rect width="240" height="160" fill="#f4f8fc"/>
  <line x1="0" y1="18" x2="240" y2="18" stroke="#1b2430" stroke-width="2.4" opacity="0.55"/><circle cx="14" cy="29" r="4" fill="#2fa66b"/><circle cx="52" cy="29" r="4" fill="#2fa66b"/><circle cx="90" cy="29" r="4" fill="#2fa66b"/><circle cx="128" cy="29" r="4" fill="#2fa66b"/><circle cx="166" cy="29" r="4" fill="#2fa66b"/><circle cx="204" cy="29" r="4" fill="#2fa66b"/><line x1="0" y1="40" x2="240" y2="40" stroke="#1b2430" stroke-width="2.4" opacity="0.55"/><circle cx="14" cy="51" r="4" fill="#2fa66b"/><circle cx="52" cy="51" r="4" fill="#2fa66b"/><circle cx="90" cy="51" r="4" fill="#2fa66b"/><circle cx="128" cy="51" r="4" fill="#2fa66b"/><circle cx="166" cy="51" r="4" fill="#2fa66b"/><circle cx="204" cy="51" r="4" fill="#2fa66b"/><line x1="0" y1="62" x2="240" y2="62" stroke="#1b2430" stroke-width="2.4" opacity="0.55"/><circle cx="14" cy="73" r="4" fill="#2fa66b"/><circle cx="52" cy="73" r="4" fill="#2fa66b"/><circle cx="90" cy="73" r="4" fill="#2fa66b"/><circle cx="128" cy="73" r="4" fill="#2fa66b"/><circle cx="166" cy="73" r="4" fill="#2fa66b"/><circle cx="204" cy="73" r="4" fill="#2fa66b"/><line x1="0" y1="84" x2="240" y2="84" stroke="#1b2430" stroke-width="2.4" opacity="0.55"/><circle cx="14" cy="95" r="4" fill="#2fa66b"/><circle cx="52" cy="95" r="4" fill="#2fa66b"/><circle cx="90" cy="95" r="4" fill="#2fa66b"/><circle cx="128" cy="95" r="4" fill="#2fa66b"/><circle cx="166" cy="95" r="4" fill="#2fa66b"/><circle cx="204" cy="95" r="4" fill="#2fa66b"/><line x1="0" y1="106" x2="240" y2="106" stroke="#1b2430" stroke-width="2.4" opacity="0.55"/><circle cx="14" cy="117" r="4" fill="#2fa66b"/><circle cx="52" cy="117" r="4" fill="#2fa66b"/><circle cx="90" cy="117" r="4" fill="#2fa66b"/><circle cx="128" cy="117" r="4" fill="#2fa66b"/><circle cx="166" cy="117" r="4" fill="#2fa66b"/><circle cx="204" cy="117" r="4" fill="#2fa66b"/><line x1="0" y1="128" x2="240" y2="128" stroke="#1b2430" stroke-width="2.4" opacity="0.55"/><circle cx="14" cy="139" r="4" fill="#2fa66b"/><circle cx="52" cy="139" r="4" fill="#2fa66b"/><circle cx="90" cy="139" r="4" fill="#2fa66b"/><circle cx="128" cy="139" r="4" fill="#2fa66b"/><circle cx="166" cy="139" r="4" fill="#2fa66b"/><circle cx="204" cy="139" r="4" fill="#2fa66b"/>
  <text x="120.0" y="152" font-family="sans-serif" font-size="8.5" fill="#1b2430" text-anchor="middle" opacity="0.55">Fibrocartilage — chondrocyte rows between dense collagen</text>
</svg>