<svg xmlns="http://www.w3.org/2000/svg" viewBox="0 0 240 160" width="240" height="160">
  <rect width="240" height="160" fill="#f4f8fc"/>
  <rect x="6" y="6" width="228" height="138" rx="10" fill="#e8f0fb" stroke="#1467c8" stroke-width="1.5"/><ellipse cx="45" cy="45" rx="16" ry="13" fill="none" stroke="#1467c8" stroke-width="1.2" stroke-dasharray="2,2"/><circle cx="41" cy="45" r="4.5" fill="#2fa66b"/><circle cx="50" cy="46" r="4.5" fill="#2fa66b"/><ellipse cx="110" cy="35" rx="16" ry="13" fill="none" stroke="#1467c8" stroke-width="1.2" stroke-dasharray="2,2"/><circle cx="106" cy="35" r="4.5" fill="#2fa66b"/><circle cx="115" cy="36" r="4.5" fill="#2fa66b"/><ellipse cx="175" cy="55" rx="16" ry="13" fill="none" stroke="#1467c8" stroke-width="1.2" stroke-dasharray="2,2"/><circle cx="171" cy="55" r="4.5" fill="#2fa66b"/><circle cx="180" cy="56" r="4.5" fill="#2fa66b"/><ellipse cx="60" cy="95" rx="16" ry="13" fill="none" stroke="#1467c8" stroke-width="1.2" stroke-dasharray="2,2"/><circle cx="56" cy="95" r="4.5" fill="#2fa66b"/><circle cx="65" cy="96" r="4.5" fill="#2fa66b"/><ellipse cx="135" cy="100" rx="16" ry="13" fill="none" stroke="#1467c8" stroke-width="1.2" stroke-dasharray="2,2"/><circle cx="131" cy="100" r="4.5" fill="#2fa66b"/><circle cx="140" cy="101" r="4.5" fill="#2fa66b"/><ellipse cx="195" cy="95" rx="16" ry="13" fill="none" stroke="#1467c8" stroke-width="1.2" stroke-dasharray="2,2"/><circle cx="191" cy="95" r="4.5" fill="#2fa66b"/><circle cx="200" cy="96" r="4.5" fill="#2fa66b"/><ellipse cx="95" cy="70" rx="16" ry="13" fill="none" stroke="#1467c8" stroke-width="1.2" stroke-dasharray="2,2"/><circle cx="91" cy="70" r="4.5" fill="#2fa66b"/><circle cx="100" cy="71" r="4.5" fill="#2fa66b"/>
  <text x="120.0" y="152" font-family="sans-serif" font-size="9" fill="#1b2430" text-anchor="middle" opacity="0.55">Hyaline cartilage (schematic)</text>
</svg>