<svg xmlns="http://www.w3.org/2000/svg" viewBox="0 0 240 160" width="240" height="160">
  <rect width="240" height="160" fill="#f4f8fc"/>
  <rect x="5" y="5" width="230" height="140" rx="8" fill="#e8f0fb" stroke="#1467c8" stroke-width="1.2"/><ellipse cx="22" cy="32" rx="9" ry="7" fill="none" stroke="#1467c8" stroke-width="0.9" stroke-dasharray="1.5,1.5"/><circle cx="20" cy="32" r="2.6" fill="#2fa66b"/><circle cx="25" cy="32" r="2.6" fill="#2fa66b"/><ellipse cx="99" cy="95" rx="9" ry="7" fill="none" stroke="#1467c8" stroke-width="0.9" stroke-dasharray="1.5,1.5"/><circle cx="97" cy="95" r="2.6" fill="#2fa66b"/><circle cx="102" cy="95" r="2.6" fill="#2fa66b"/><ellipse cx="48" cy="32" rx="9" ry="7" fill="none" stroke="#1467c8" stroke-width="0.9" stroke-dasharray="1.5,1.5"/><circle cx="46" cy="32" r="2.6" fill="#2fa66b"/><circle cx="51" cy="32" r="2.6" fill="#2fa66b"/><ellipse cx="66" cy="103" rx="9" ry="7" fill="none" stroke="#1467c8" stroke-width="0.9" stroke-dasharray="1.5,1.5"/><circle cx="64" cy="103" r="2.6" fill="#2fa66b"/><circle cx="69" cy="103" r="2.6" fill="#2fa66b"/><ellipse cx="49" cy="101" rx="9" ry="7" fill="none" stroke="#1467c8" stroke-width="0.9" stroke-dasharray="1.5,1.5"/><circle cx="47" cy="101" r="2.6" fill="#2fa66b"/><circle cx="52" cy="101" r="2.6" fill="#2fa66b"/><ellipse cx="152" cy="35" rx="9" ry="7" fill="none" stroke="#1467c8" stroke-width="0.9" stroke-dasharray="1.5,1.5"/><circle cx="150" cy="35" r="2.6" fill="#2fa66b"/><circle cx="155" cy="35" r="2.6" fill="#2fa66b"/><ellipse cx="127" cy="69" rx="9" ry="7" fill="none" stroke="#1467c8" stroke-width="0.9" stroke-dasharray="1.5,1.5"/><circle cx="125" cy="69" r="2.6" fill="#2fa66b"/><circle cx="130" cy="69" r="2.6" fill="#2fa66b"/><ellipse cx="103" cy="130" rx="9" ry="7" fill="none" stroke="#1467c8" stroke-width="0.9" stroke-dasharray="1.5,1.5"/><circle cx="101" cy="130" r="2.6" fill="#2fa66b"/><circle cx="106" cy="130" r="2.6" fill="#2fa66b"/><ellipse cx="39" cy="22" rx="9" ry="7" fill="none" stroke="#1467c8" stroke-width="0.9" stroke-dasharray="1.5,1.5"/><circle cx="37" cy="22" r="2.6" fill="#2fa66b"/><circle cx="42" cy="22" r="2.6" fill="#2fa66b"/><ellipse cx="208" cy="64" rx="9" ry="7" fill="none" stroke="#1467c8" stroke-width="0.9" stroke-dasharray="1.5,1.5"/><circle cx="206" cy="64" r="2.6" fill="#2fa66b"/><circle cx="211" cy="64" r="2.6" fill="#2fa66b"/><ellipse cx="60" cy="56" rx="9" ry="7" fill="none" stroke="#1467c8" stroke-width="0.9" stroke-dasharray="1.5,1.5"/><circle cx="58" cy="56" r="2.6" fill="#2fa66b"/><circle cx="63" cy="56" r="2.6" fill="#2fa66b"/><ellipse cx="93" cy="125" rx="9" ry="7" fill="none" stroke="#1467c8" stroke-width="0.9" stroke-dasharray="1.5,1.5"/><circle cx="91" cy="125" r="2.6" fill="#2fa66b"/><circle cx="96" cy="125" r="2.6" fill="#2fa66b"/>
  <text x="120.0" y="152" font-family="sans-serif" font-size="9" fill="#1b2430" text-anchor="middle" opacity="0.55">Hyaline cartilage — 100x (wide field)</text>
</svg>