<svg xmlns="http://www.w3.org/2000/svg" viewBox="0 0 240 160" width="240" height="160">
  <rect width="240" height="160" fill="#f4f8fc"/>
  <path d="M153 4 q 15 -8 28 4" stroke="#1467c8" stroke-width="1" fill="none" opacity="0.5"/><path d="M66 36 q 15 -8 28 4" stroke="#1467c8" stroke-width="1" fill="none" opacity="0.5"/><path d="M177 108 q 15 -8 28 4" stroke="#1467c8" stroke-width="1" fill="none" opacity="0.5"/><path d="M214 14 q 15 -8 28 4" stroke="#1467c8" stroke-width="1" fill="none" opacity="0.5"/><path d="M101 5 q 15 -8 28 4" stroke="#1467c8" stroke-width="1" fill="none" opacity="0.5"/><path d="M52 81 q 15 -8 28 4" stroke="#1467c8" stroke-width="1" fill="none" opacity="0.5"/><path d="M6 32 q 15 -8 28 4" stroke="#1467c8" stroke-width="1" fill="none" opacity="0.5"/><path d="M156 87 q 15 -8 28 4" stroke="#1467c8" stroke-width="1" fill="none" opacity="0.5"/><path d="M53 94 q 15 -8 28 4" stroke="#1467c8" stroke-width="1" fill="none" opacity="0.5"/><path d="M194 1 q 15 -8 28 4" stroke="#1467c8" stroke-width="1" fill="none" opacity="0.5"/><path d="M193 112 q 15 -8 28 4" stroke="#1467c8" stroke-width="1" fill="none" opacity="0.5"/><path d="M82 25 q 15 -8 28 4" stroke="#1467c8" stroke-width="1" fill="none" opacity="0.5"/><path d="M230 54 q 15 -8 28 4" stroke="#1467c8" stroke-width="1" fill="none" opacity="0.5"/><path d="M22 15 q 15 -8 28 4" stroke="#1467c8" stroke-width="1" fill="none" opacity="0.5"/><path d="M203 97 q 15 -8 28 4" stroke="#1467c8" stroke-width="1" fill="none" opacity="0.5"/><path d="M194 117 q 15 -8 28 4" stroke="#1467c8" stroke-width="1" fill="none" opacity="0.5"/><ellipse cx="128" cy="141" rx="4" ry="3" fill="#2fa66b" opacity="0.75"/><ellipse cx="93" cy="85" rx="4" ry="3" fill="#2fa66b" opacity="0.75"/><ellipse cx="192" cy="94" rx="4" ry="3" fill="#2fa66b" opacity="0.75"/><ellipse cx="200" cy="88" rx="4" ry="3" fill="#2fa66b" opacity="0.75"/><ellipse cx="165" cy="16" rx="4" ry="3" fill="#2fa66b" opacity="0.75"/><ellipse cx="60" cy="49" rx="4" ry="3" fill="#2fa66b" opacity="0.75"/><ellipse cx="28" cy="41" rx="4" ry="3" fill="#2fa66b" opacity="0.75"/><ellipse cx="32" cy="48" rx="4" ry="3" fill="#2fa66b" opacity="0.75"/><ellipse cx="150" cy="59" rx="4" ry="3" fill="#2fa66b" opacity="0.75"/><ellipse cx="91" cy="38" rx="4" ry="3" fill="#2fa66b" opacity="0.75"/><ellipse cx="69" cy="136" rx="4" ry="3" fill="#2fa66b" opacity="0.75"/><ellipse cx="153" cy="92" rx="4" ry="3" fill="#2fa66b" opacity="0.75"/><ellipse cx="48" cy="108" rx="4" ry="3" fill="#2fa66b" opacity="0.75"/><ellipse cx="46" cy="61" rx="4" ry="3" fill="#2fa66b" opacity="0.75"/>
  <text x="120.0" y="152" font-family="sans-serif" font-size="8.5" fill="#1b2430" text-anchor="middle" opacity="0.55">Loose areolar connective tissue — 100x</text>
</svg>