<svg xmlns="http://www.w3.org/2000/svg" viewBox="0 0 240 160" width="240" height="160">
  <rect width="240" height="160" fill="#f4f8fc"/>
  <path d="M91 37 q 20 -10 40 5 q 20 15 35 -5" stroke="#1467c8" stroke-width="1.3" fill="none" opacity="0.55"/><path d="M40 146 q 20 -10 40 5 q 20 15 35 -5" stroke="#1467c8" stroke-width="1.3" fill="none" opacity="0.55"/><path d="M139 110 q 20 -10 40 5 q 20 15 35 -5" stroke="#1467c8" stroke-width="1.3" fill="none" opacity="0.55"/><path d="M133 61 q 20 -10 40 5 q 20 15 35 -5" stroke="#1467c8" stroke-width="1.3" fill="none" opacity="0.55"/><path d="M176 92 q 20 -10 40 5 q 20 15 35 -5" stroke="#1467c8" stroke-width="1.3" fill="none" opacity="0.55"/><path d="M187 106 q 20 -10 40 5 q 20 15 35 -5" stroke="#1467c8" stroke-width="1.3" fill="none" opacity="0.55"/><path d="M201 70 q 20 -10 40 5 q 20 15 35 -5" stroke="#1467c8" stroke-width="1.3" fill="none" opacity="0.55"/><path d="M37 24 q 20 -10 40 5 q 20 15 35 -5" stroke="#1467c8" stroke-width="1.3" fill="none" opacity="0.55"/><path d="M174 27 q 20 -10 40 5 q 20 15 35 -5" stroke="#1467c8" stroke-width="1.3" fill="none" opacity="0.55"/><path d="M157 99 q 20 -10 40 5 q 20 15 35 -5" stroke="#1467c8" stroke-width="1.3" fill="none" opacity="0.55"/><ellipse cx="27" cy="109" rx="6" ry="4" fill="#2fa66b" opacity="0.8"/><ellipse cx="22" cy="119" rx="6" ry="4" fill="#2fa66b" opacity="0.8"/><ellipse cx="192" cy="41" rx="6" ry="4" fill="#2fa66b" opacity="0.8"/><ellipse cx="168" cy="103" rx="6" ry="4" fill="#2fa66b" opacity="0.8"/><ellipse cx="41" cy="95" rx="6" ry="4" fill="#2fa66b" opacity="0.8"/><ellipse cx="41" cy="125" rx="6" ry="4" fill="#2fa66b" opacity="0.8"/><ellipse cx="160" cy="133" rx="6" ry="4" fill="#2fa66b" opacity="0.8"/><ellipse cx="26" cy="53" rx="6" ry="4" fill="#2fa66b" opacity="0.8"/>
  <text x="120.0" y="152" font-family="sans-serif" font-size="8.5" fill="#1b2430" text-anchor="middle" opacity="0.55">Loose areolar connective tissue</text>
</svg>