<svg xmlns="http://www.w3.org/2000/svg" viewBox="0 0 240 160" width="240" height="160">
  <rect width="240" height="160" fill="#f4f8fc"/>
  <rect x="4" y="4" width="232" height="144" rx="10" fill="#e8f0fb" stroke="#1467c8" stroke-width="2"/><circle cx="30" cy="25" r="9" fill="#cfe2f7" stroke="#1467c8" stroke-width="0.9"/><circle cx="30" cy="25" r="4" fill="#ffffff" stroke="#2fa66b" stroke-width="0.8"/><circle cx="65" cy="20" r="9" fill="#cfe2f7" stroke="#1467c8" stroke-width="0.9"/><circle cx="65" cy="20" r="4" fill="#ffffff" stroke="#2fa66b" stroke-width="0.8"/><circle cx="100" cy="28" r="9" fill="#cfe2f7" stroke="#1467c8" stroke-width="0.9"/><circle cx="100" cy="28" r="4" fill="#ffffff" stroke="#2fa66b" stroke-width="0.8"/><circle cx="135" cy="22" r="9" fill="#cfe2f7" stroke="#1467c8" stroke-width="0.9"/><circle cx="135" cy="22" r="4" fill="#ffffff" stroke="#2fa66b" stroke-width="0.8"/><circle cx="170" cy="30" r="9" fill="#cfe2f7" stroke="#1467c8" stroke-width="0.9"/><circle cx="170" cy="30" r="4" fill="#ffffff" stroke="#2fa66b" stroke-width="0.8"/><circle cx="205" cy="24" r="9" fill="#cfe2f7" stroke="#1467c8" stroke-width="0.9"/><circle cx="205" cy="24" r="4" fill="#ffffff" stroke="#2fa66b" stroke-width="0.8"/><path d="M10 85 q 110 6 220 0" stroke="#1b2430" stroke-width="1" fill="none" opacity="0.45"/><path d="M10 100 q 110 6 220 0" stroke="#1b2430" stroke-width="1" fill="none" opacity="0.45"/><path d="M10 115 q 110 6 220 0" stroke="#1b2430" stroke-width="1" fill="none" opacity="0.45"/><path d="M10 130 q 110 6 220 0" stroke="#1b2430" stroke-width="1" fill="none" opacity="0.45"/>
  <text x="120.0" y="152" font-family="sans-serif" font-size="8.5" fill="#1b2430" text-anchor="middle" opacity="0.55">Lymph node — 100x</text>
</svg>