<svg xmlns="http://www.w3.org/2000/svg" viewBox="0 0 240 160" width="240" height="160">
  <rect width="240" height="160" fill="#f4f8fc"/>
  <circle cx="70" cy="70" r="38" fill="none" stroke="#1467c8" stroke-width="2"/><circle cx="70.9" cy="63.6" r="2.6" fill="#e8f0fb" stroke="#1467c8" stroke-width="0.8"/><circle cx="68.1" cy="87.7" r="2.6" fill="#e8f0fb" stroke="#1467c8" stroke-width="0.8"/><circle cx="91.5" cy="77.5" r="2.6" fill="#e8f0fb" stroke="#1467c8" stroke-width="0.8"/><circle cx="78.9" cy="70.8" r="2.6" fill="#e8f0fb" stroke="#1467c8" stroke-width="0.8"/><circle cx="63.1" cy="45.1" r="2.6" fill="#e8f0fb" stroke="#1467c8" stroke-width="0.8"/><circle cx="47.5" cy="89.1" r="2.6" fill="#e8f0fb" stroke="#1467c8" stroke-width="0.8"/><circle cx="77.8" cy="63.8" r="2.6" fill="#e8f0fb" stroke="#1467c8" stroke-width="0.8"/><circle cx="79.6" cy="94.0" r="2.6" fill="#e8f0fb" stroke="#1467c8" stroke-width="0.8"/><circle cx="60.5" cy="43.7" r="2.6" fill="#e8f0fb" stroke="#1467c8" stroke-width="0.8"/><circle cx="87.3" cy="76.3" r="2.6" fill="#e8f0fb" stroke="#1467c8" stroke-width="0.8"/><circle cx="56.7" cy="80.2" r="2.6" fill="#e8f0fb" stroke="#1467c8" stroke-width="0.8"/><circle cx="64.6" cy="49.6" r="2.6" fill="#e8f0fb" stroke="#1467c8" stroke-width="0.8"/><circle cx="86.3" cy="91.0" r="2.6" fill="#e8f0fb" stroke="#1467c8" stroke-width="0.8"/><circle cx="57.4" cy="50.2" r="2.6" fill="#e8f0fb" stroke="#1467c8" stroke-width="0.8"/><circle cx="160" cy="55" r="38" fill="none" stroke="#1467c8" stroke-width="2"/><circle cx="186.8" cy="62.6" r="2.6" fill="#e8f0fb" stroke="#1467c8" stroke-width="0.8"/><circle cx="169.3" cy="61.7" r="2.6" fill="#e8f0fb" stroke="#1467c8" stroke-width="0.8"/><circle cx="164.3" cy="57.6" r="2.6" fill="#e8f0fb" stroke="#1467c8" stroke-width="0.8"/><circle cx="144.7" cy="70.1" r="2.6" fill="#e8f0fb" stroke="#1467c8" stroke-width="0.8"/><circle cx="167.3" cy="36.9" r="2.6" fill="#e8f0fb" stroke="#1467c8" stroke-width="0.8"/><circle cx="164.9" cy="45.5" r="2.6" fill="#e8f0fb" stroke="#1467c8" stroke-width="0.8"/><circle cx="178.0" cy="71.9" r="2.6" fill="#e8f0fb" stroke="#1467c8" stroke-width="0.8"/><circle cx="166.8" cy="41.3" r="2.6" fill="#e8f0fb" stroke="#1467c8" stroke-width="0.8"/><circle cx="168.9" cy="67.7" r="2.6" fill="#e8f0fb" stroke="#1467c8" stroke-width="0.8"/><circle cx="148.7" cy="45.7" r="2.6" fill="#e8f0fb" stroke="#1467c8" stroke-width="0.8"/><circle cx="142.6" cy="66.0" r="2.6" fill="#e8f0fb" stroke="#1467c8" stroke-width="0.8"/><circle cx="166.6" cy="40.0" r="2.6" fill="#e8f0fb" stroke="#1467c8" stroke-width="0.8"/><circle cx="157.5" cy="59.9" r="2.6" fill="#e8f0fb" stroke="#1467c8" stroke-width="0.8"/><circle cx="153.2" cy="50.7" r="2.6" fill="#e8f0fb" stroke="#1467c8" stroke-width="0.8"/><circle cx="120" cy="115" r="38" fill="none" stroke="#1467c8" stroke-width="2"/><circle cx="110.1" cy="129.3" r="2.6" fill="#e8f0fb" stroke="#1467c8" stroke-width="0.8"/><circle cx="125.8" cy="116.4" r="2.6" fill="#e8f0fb" stroke="#1467c8" stroke-width="0.8"/><circle cx="146.7" cy="118.7" r="2.6" fill="#e8f0fb" stroke="#1467c8" stroke-width="0.8"/><circle cx="125.3" cy="116.9" r="2.6" fill="#e8f0fb" stroke="#1467c8" stroke-width="0.8"/><circle cx="124.2" cy="107.8" r="2.6" fill="#e8f0fb" stroke="#1467c8" stroke-width="0.8"/><circle cx="130.9" cy="136.6" r="2.6" fill="#e8f0fb" stroke="#1467c8" stroke-width="0.8"/><circle cx="113.9" cy="139.1" r="2.6" fill="#e8f0fb" stroke="#1467c8" stroke-width="0.8"/><circle cx="116.9" cy="91.3" r="2.6" fill="#e8f0fb" stroke="#1467c8" stroke-width="0.8"/><circle cx="119.1" cy="108.9" r="2.6" fill="#e8f0fb" stroke="#1467c8" stroke-width="0.8"/><circle cx="128.7" cy="101.2" r="2.6" fill="#e8f0fb" stroke="#1467c8" stroke-width="0.8"/><circle cx="121.2" cy="99.0" r="2.6" fill="#e8f0fb" stroke="#1467c8" stroke-width="0.8"/><circle cx="123.5" cy="99.4" r="2.6" fill="#e8f0fb" stroke="#1467c8" stroke-width="0.8"/><circle cx="125.6" cy="118.0" r="2.6" fill="#e8f0fb" stroke="#1467c8" stroke-width="0.8"/><circle cx="128.5" cy="102.9" r="2.6" fill="#e8f0fb" stroke="#1467c8" stroke-width="0.8"/>
  <text x="120.0" y="152" font-family="sans-serif" font-size="9" fill="#1b2430" text-anchor="middle" opacity="0.55">Peripheral nerve — 100x (multiple fascicles)</text>
</svg>