<svg xmlns="http://www.w3.org/2000/svg" viewBox="0 0 240 160" width="240" height="160">
  <rect width="240" height="160" fill="#f4f8fc"/>
  <circle cx="120.0" cy="76.0" r="62" fill="none" stroke="#1467c8" stroke-width="3"/><circle cx="114.2" cy="87.6" r="4.2" fill="#e8f0fb" stroke="#1467c8" stroke-width="1"/><circle cx="114.2" cy="87.6" r="1.4" fill="#1b2430"/><circle cx="114.6" cy="68.4" r="4.2" fill="#e8f0fb" stroke="#1467c8" stroke-width="1"/><circle cx="114.6" cy="68.4" r="1.4" fill="#1b2430"/><circle cx="97.8" cy="70.9" r="4.2" fill="#e8f0fb" stroke="#1467c8" stroke-width="1"/><circle cx="97.8" cy="70.9" r="1.4" fill="#1b2430"/><circle cx="147.4" cy="86.5" r="4.2" fill="#e8f0fb" stroke="#1467c8" stroke-width="1"/><circle cx="147.4" cy="86.5" r="1.4" fill="#1b2430"/><circle cx="145.2" cy="82.1" r="4.2" fill="#e8f0fb" stroke="#1467c8" stroke-width="1"/><circle cx="145.2" cy="82.1" r="1.4" fill="#1b2430"/><circle cx="129.2" cy="80.3" r="4.2" fill="#e8f0fb" stroke="#1467c8" stroke-width="1"/><circle cx="129.2" cy="80.3" r="1.4" fill="#1b2430"/><circle cx="80.8" cy="96.1" r="4.2" fill="#e8f0fb" stroke="#1467c8" stroke-width="1"/><circle cx="80.8" cy="96.1" r="1.4" fill="#1b2430"/><circle cx="131.6" cy="87.4" r="4.2" fill="#e8f0fb" stroke="#1467c8" stroke-width="1"/><circle cx="131.6" cy="87.4" r="1.4" fill="#1b2430"/><circle cx="85.5" cy="40.4" r="4.2" fill="#e8f0fb" stroke="#1467c8" stroke-width="1"/><circle cx="85.5" cy="40.4" r="1.4" fill="#1b2430"/><circle cx="98.5" cy="64.7" r="4.2" fill="#e8f0fb" stroke="#1467c8" stroke-width="1"/><circle cx="98.5" cy="64.7" r="1.4" fill="#1b2430"/><circle cx="128.1" cy="74.8" r="4.2" fill="#e8f0fb" stroke="#1467c8" stroke-width="1"/><circle cx="128.1" cy="74.8" r="1.4" fill="#1b2430"/><circle cx="132.2" cy="61.0" r="4.2" fill="#e8f0fb" stroke="#1467c8" stroke-width="1"/><circle cx="132.2" cy="61.0" r="1.4" fill="#1b2430"/><circle cx="127.0" cy="85.0" r="4.2" fill="#e8f0fb" stroke="#1467c8" stroke-width="1"/><circle cx="127.0" cy="85.0" r="1.4" fill="#1b2430"/><circle cx="104.4" cy="116.6" r="4.2" fill="#e8f0fb" stroke="#1467c8" stroke-width="1"/><circle cx="104.4" cy="116.6" r="1.4" fill="#1b2430"/><circle cx="133.8" cy="105.7" r="4.2" fill="#e8f0fb" stroke="#1467c8" stroke-width="1"/><circle cx="133.8" cy="105.7" r="1.4" fill="#1b2430"/><circle cx="105.1" cy="58.3" r="4.2" fill="#e8f0fb" stroke="#1467c8" stroke-width="1"/><circle cx="105.1" cy="58.3" r="1.4" fill="#1b2430"/><circle cx="111.5" cy="73.4" r="4.2" fill="#e8f0fb" stroke="#1467c8" stroke-width="1"/><circle cx="111.5" cy="73.4" r="1.4" fill="#1b2430"/><circle cx="134.4" cy="81.7" r="4.2" fill="#e8f0fb" stroke="#1467c8" stroke-width="1"/><circle cx="134.4" cy="81.7" r="1.4" fill="#1b2430"/><circle cx="109.1" cy="52.7" r="4.2" fill="#e8f0fb" stroke="#1467c8" stroke-width="1"/><circle cx="109.1" cy="52.7" r="1.4" fill="#1b2430"/><circle cx="107.1" cy="106.3" r="4.2" fill="#e8f0fb" stroke="#1467c8" stroke-width="1"/><circle cx="107.1" cy="106.3" r="1.4" fill="#1b2430"/><circle cx="101.1" cy="81.7" r="4.2" fill="#e8f0fb" stroke="#1467c8" stroke-width="1"/><circle cx="101.1" cy="81.7" r="1.4" fill="#1b2430"/><circle cx="130.5" cy="39.3" r="4.2" fill="#e8f0fb" stroke="#1467c8" stroke-width="1"/><circle cx="130.5" cy="39.3" r="1.4" fill="#1b2430"/><circle cx="121.2" cy="108.4" r="4.2" fill="#e8f0fb" stroke="#1467c8" stroke-width="1"/><circle cx="121.2" cy="108.4" r="1.4" fill="#1b2430"/><circle cx="74.3" cy="68.7" r="4.2" fill="#e8f0fb" stroke="#1467c8" stroke-width="1"/><circle cx="74.3" cy="68.7" r="1.4" fill="#1b2430"/><circle cx="117.5" cy="56.9" r="4.2" fill="#e8f0fb" stroke="#1467c8" stroke-width="1"/><circle cx="117.5" cy="56.9" r="1.4" fill="#1b2430"/><circle cx="131.3" cy="74.6" r="4.2" fill="#e8f0fb" stroke="#1467c8" stroke-width="1"/><circle cx="131.3" cy="74.6" r="1.4" fill="#1b2430"/><circle cx="84.5" cy="96.1" r="4.2" fill="#e8f0fb" stroke="#1467c8" stroke-width="1"/><circle cx="84.5" cy="96.1" r="1.4" fill="#1b2430"/><circle cx="136.5" cy="99.3" r="4.2" fill="#e8f0fb" stroke="#1467c8" stroke-width="1"/><circle cx="136.5" cy="99.3" r="1.4" fill="#1b2430"/><circle cx="155.6" cy="85.0" r="4.2" fill="#e8f0fb" stroke="#1467c8" stroke-width="1"/><circle cx="155.6" cy="85.0" r="1.4" fill="#1b2430"/><circle cx="123.0" cy="43.8" r="4.2" fill="#e8f0fb" stroke="#1467c8" stroke-width="1"/><circle cx="123.0" cy="43.8" r="1.4" fill="#1b2430"/><circle cx="134.5" cy="61.6" r="4.2" fill="#e8f0fb" stroke="#1467c8" stroke-width="1"/><circle cx="134.5" cy="61.6" r="1.4" fill="#1b2430"/><circle cx="108.8" cy="44.6" r="4.2" fill="#e8f0fb" stroke="#1467c8" stroke-width="1"/><circle cx="108.8" cy="44.6" r="1.4" fill="#1b2430"/><circle cx="96.3" cy="63.0" r="4.2" fill="#e8f0fb" stroke="#1467c8" stroke-width="1"/><circle cx="96.3" cy="63.0" r="1.4" fill="#1b2430"/><circle cx="146.5" cy="34.2" r="4.2" fill="#e8f0fb" stroke="#1467c8" stroke-width="1"/><circle cx="146.5" cy="34.2" r="1.4" fill="#1b2430"/>
  <text x="120.0" y="152" font-family="sans-serif" font-size="9" fill="#1b2430" text-anchor="middle" opacity="0.55">Peripheral nerve (schematic)</text>
</svg>