<svg xmlns="http://www.w3.org/2000/svg" viewBox="0 0 240 160" width="240" height="160">
  <rect width="240" height="160" fill="#f4f8fc"/>
  <rect x="-1" y="45" width="26" height="68" rx="6" fill="#e8f0fb" stroke="#1467c8" stroke-width="1.1"/><ellipse cx="12" cy="60" rx="6" ry="7" fill="#1467c8"/><line x1="4" y1="45" x2="4" y2="36" stroke="#2fa66b" stroke-width="1.4"/><line x1="8" y1="45" x2="8" y2="36" stroke="#2fa66b" stroke-width="1.4"/><line x1="12" y1="45" x2="12" y2="36" stroke="#2fa66b" stroke-width="1.4"/><line x1="16" y1="45" x2="16" y2="36" stroke="#2fa66b" stroke-width="1.4"/><line x1="20" y1="45" x2="20" y2="36" stroke="#2fa66b" stroke-width="1.4"/><rect x="30" y="45" width="26" height="68" rx="6" fill="#e8f0fb" stroke="#1467c8" stroke-width="1.1"/><ellipse cx="43" cy="74" rx="6" ry="7" fill="#1467c8"/><line x1="35" y1="45" x2="35" y2="36" stroke="#2fa66b" stroke-width="1.4"/><line x1="39" y1="45" x2="39" y2="36" stroke="#2fa66b" stroke-width="1.4"/><line x1="43" y1="45" x2="43" y2="36" stroke="#2fa66b" stroke-width="1.4"/><line x1="47" y1="45" x2="47" y2="36" stroke="#2fa66b" stroke-width="1.4"/><line x1="51" y1="45" x2="51" y2="36" stroke="#2fa66b" stroke-width="1.4"/><rect x="61" y="45" width="26" height="68" rx="6" fill="#e8f0fb" stroke="#1467c8" stroke-width="1.1"/><ellipse cx="74" cy="88" rx="6" ry="7" fill="#1467c8"/><line x1="66" y1="45" x2="66" y2="36" stroke="#2fa66b" stroke-width="1.4"/><line x1="70" y1="45" x2="70" y2="36" stroke="#2fa66b" stroke-width="1.4"/><line x1="74" y1="45" x2="74" y2="36" stroke="#2fa66b" stroke-width="1.4"/><line x1="78" y1="45" x2="78" y2="36" stroke="#2fa66b" stroke-width="1.4"/><line x1="82" y1="45" x2="82" y2="36" stroke="#2fa66b" stroke-width="1.4"/><rect x="92" y="45" width="26" height="68" rx="6" fill="#e8f0fb" stroke="#1467c8" stroke-width="1.1"/><ellipse cx="105" cy="60" rx="6" ry="7" fill="#1467c8"/><line x1="97" y1="45" x2="97" y2="36" stroke="#2fa66b" stroke-width="1.4"/><line x1="101" y1="45" x2="101" y2="36" stroke="#2fa66b" stroke-width="1.4"/><line x1="105" y1="45" x2="105" y2="36" stroke="#2fa66b" stroke-width="1.4"/><line x1="109" y1="45" x2="109" y2="36" stroke="#2fa66b" stroke-width="1.4"/><line x1="113" y1="45" x2="113" y2="36" stroke="#2fa66b" stroke-width="1.4"/><rect x="123" y="45" width="26" height="68" rx="6" fill="#e8f0fb" stroke="#1467c8" stroke-width="1.1"/><ellipse cx="136" cy="74" rx="6" ry="7" fill="#1467c8"/><line x1="128" y1="45" x2="128" y2="36" stroke="#2fa66b" stroke-width="1.4"/><line x1="132" y1="45" x2="132" y2="36" stroke="#2fa66b" stroke-width="1.4"/><line x1="136" y1="45" x2="136" y2="36" stroke="#2fa66b" stroke-width="1.4"/><line x1="140" y1="45" x2="140" y2="36" stroke="#2fa66b" stroke-width="1.4"/><line x1="144" y1="45" x2="144" y2="36" stroke="#2fa66b" stroke-width="1.4"/><rect x="154" y="45" width="26" height="68" rx="6" fill="#e8f0fb" stroke="#1467c8" stroke-width="1.1"/><ellipse cx="167" cy="88" rx="6" ry="7" fill="#1467c8"/><line x1="159" y1="45" x2="159" y2="36" stroke="#2fa66b" stroke-width="1.4"/><line x1="163" y1="45" x2="163" y2="36" stroke="#2fa66b" stroke-width="1.4"/><line x1="167" y1="45" x2="167" y2="36" stroke="#2fa66b" stroke-width="1.4"/><line x1="171" y1="45" x2="171" y2="36" stroke="#2fa66b" stroke-width="1.4"/><line x1="175" y1="45" x2="175" y2="36" stroke="#2fa66b" stroke-width="1.4"/><rect x="185" y="45" width="26" height="68" rx="6" fill="#e8f0fb" stroke="#1467c8" stroke-width="1.1"/><ellipse cx="198" cy="60" rx="6" ry="7" fill="#1467c8"/><line x1="190" y1="45" x2="190" y2="36" stroke="#2fa66b" stroke-width="1.4"/><line x1="194" y1="45" x2="194" y2="36" stroke="#2fa66b" stroke-width="1.4"/><line x1="198" y1="45" x2="198" y2="36" stroke="#2fa66b" stroke-width="1.4"/><line x1="202" y1="45" x2="202" y2="36" stroke="#2fa66b" stroke-width="1.4"/><line x1="206" y1="45" x2="206" y2="36" stroke="#2fa66b" stroke-width="1.4"/><rect x="0" y="113" width="240" height="6" fill="#cfe2f7"/>
  <text x="120.0" y="152" font-family="sans-serif" font-size="8.5" fill="#1b2430" text-anchor="middle" opacity="0.55">Pseudostratified ciliated columnar epithelium</text>
</svg>