<svg xmlns="http://www.w3.org/2000/svg" viewBox="0 0 240 160" width="240" height="160">
  <rect width="240" height="160" fill="#f4f8fc"/>
  <rect x="1" y="55" width="18" height="48" rx="4" fill="#e8f0fb" stroke="#1467c8" stroke-width="0.9"/><ellipse cx="10" cy="65" rx="4" ry="5" fill="#1467c8"/><rect x="24" y="55" width="18" height="48" rx="4" fill="#e8f0fb" stroke="#1467c8" stroke-width="0.9"/><ellipse cx="33" cy="75" rx="4" ry="5" fill="#1467c8"/><rect x="47" y="55" width="18" height="48" rx="4" fill="#e8f0fb" stroke="#1467c8" stroke-width="0.9"/><ellipse cx="56" cy="85" rx="4" ry="5" fill="#1467c8"/><rect x="70" y="55" width="18" height="48" rx="4" fill="#e8f0fb" stroke="#1467c8" stroke-width="0.9"/><ellipse cx="79" cy="65" rx="4" ry="5" fill="#1467c8"/><rect x="93" y="55" width="18" height="48" rx="4" fill="#e8f0fb" stroke="#1467c8" stroke-width="0.9"/><ellipse cx="102" cy="75" rx="4" ry="5" fill="#1467c8"/><rect x="116" y="55" width="18" height="48" rx="4" fill="#e8f0fb" stroke="#1467c8" stroke-width="0.9"/><ellipse cx="125" cy="85" rx="4" ry="5" fill="#1467c8"/><rect x="139" y="55" width="18" height="48" rx="4" fill="#e8f0fb" stroke="#1467c8" stroke-width="0.9"/><ellipse cx="148" cy="65" rx="4" ry="5" fill="#1467c8"/><rect x="162" y="55" width="18" height="48" rx="4" fill="#e8f0fb" stroke="#1467c8" stroke-width="0.9"/><ellipse cx="171" cy="75" rx="4" ry="5" fill="#1467c8"/><rect x="185" y="55" width="18" height="48" rx="4" fill="#e8f0fb" stroke="#1467c8" stroke-width="0.9"/><ellipse cx="194" cy="85" rx="4" ry="5" fill="#1467c8"/><rect x="208" y="55" width="18" height="48" rx="4" fill="#e8f0fb" stroke="#1467c8" stroke-width="0.9"/><ellipse cx="217" cy="65" rx="4" ry="5" fill="#1467c8"/><rect x="0" y="103" width="240" height="5" fill="#cfe2f7"/>
  <text x="120.0" y="152" font-family="sans-serif" font-size="8.5" fill="#1b2430" text-anchor="middle" opacity="0.55">Pseudostratified columnar epithelium — 100x</text>
</svg>