<svg xmlns="http://www.w3.org/2000/svg" viewBox="0 0 240 160" width="240" height="160">
  <rect width="240" height="160" fill="#f4f8fc"/>
  <rect x="2" y="58" width="16" height="42" rx="4" fill="#e8f0fb" stroke="#1467c8" stroke-width="1"/><ellipse cx="10" cy="88" rx="4" ry="5.5" fill="#1467c8"/><path d="M28 100 Q26 65 36 58 Q46 65 44 100 Z" fill="#cfe2f7" stroke="#1467c8" stroke-width="1"/><rect x="54" y="58" width="16" height="42" rx="4" fill="#e8f0fb" stroke="#1467c8" stroke-width="1"/><ellipse cx="62" cy="88" rx="4" ry="5.5" fill="#1467c8"/><rect x="80" y="58" width="16" height="42" rx="4" fill="#e8f0fb" stroke="#1467c8" stroke-width="1"/><ellipse cx="88" cy="88" rx="4" ry="5.5" fill="#1467c8"/><path d="M106 100 Q104 65 114 58 Q124 65 122 100 Z" fill="#cfe2f7" stroke="#1467c8" stroke-width="1"/><rect x="132" y="58" width="16" height="42" rx="4" fill="#e8f0fb" stroke="#1467c8" stroke-width="1"/><ellipse cx="140" cy="88" rx="4" ry="5.5" fill="#1467c8"/><rect x="158" y="58" width="16" height="42" rx="4" fill="#e8f0fb" stroke="#1467c8" stroke-width="1"/><ellipse cx="166" cy="88" rx="4" ry="5.5" fill="#1467c8"/><path d="M184 100 Q182 65 192 58 Q202 65 200 100 Z" fill="#cfe2f7" stroke="#1467c8" stroke-width="1"/><rect x="210" y="58" width="16" height="42" rx="4" fill="#e8f0fb" stroke="#1467c8" stroke-width="1"/><ellipse cx="218" cy="88" rx="4" ry="5.5" fill="#1467c8"/><rect x="0" y="100" width="240" height="5" fill="#cfe2f7"/>
  <text x="120.0" y="152" font-family="sans-serif" font-size="8.5" fill="#1b2430" text-anchor="middle" opacity="0.55">Simple columnar epithelium — 100x</text>
</svg>