<svg xmlns="http://www.w3.org/2000/svg" viewBox="0 0 240 160" width="240" height="160">
  <rect width="240" height="160" fill="#f4f8fc"/>
  <rect x="2" y="50" width="24" height="60" rx="6" fill="#e8f0fb" stroke="#1467c8" stroke-width="1.2"/><ellipse cx="14" cy="95" rx="6" ry="8" fill="#1467c8"/><rect x="38" y="50" width="24" height="60" rx="6" fill="#e8f0fb" stroke="#1467c8" stroke-width="1.2"/><ellipse cx="50" cy="95" rx="6" ry="8" fill="#1467c8"/><path d="M74 110 Q70 60 86 50 Q102 60 98 110 Z" fill="#cfe2f7" stroke="#1467c8" stroke-width="1.2"/><ellipse cx="86" cy="95" rx="6" ry="14" fill="#ffffff" stroke="#1467c8" stroke-width="1"/><rect x="110" y="50" width="24" height="60" rx="6" fill="#e8f0fb" stroke="#1467c8" stroke-width="1.2"/><ellipse cx="122" cy="95" rx="6" ry="8" fill="#1467c8"/><path d="M146 110 Q142 60 158 50 Q174 60 170 110 Z" fill="#cfe2f7" stroke="#1467c8" stroke-width="1.2"/><ellipse cx="158" cy="95" rx="6" ry="14" fill="#ffffff" stroke="#1467c8" stroke-width="1"/><rect x="182" y="50" width="24" height="60" rx="6" fill="#e8f0fb" stroke="#1467c8" stroke-width="1.2"/><ellipse cx="194" cy="95" rx="6" ry="8" fill="#1467c8"/><rect x="0" y="110" width="240" height="6" fill="#cfe2f7"/>
  <text x="120.0" y="152" font-family="sans-serif" font-size="8.5" fill="#1b2430" text-anchor="middle" opacity="0.55">Simple columnar epithelium with goblet cells</text>
</svg>