<svg xmlns="http://www.w3.org/2000/svg" viewBox="0 0 240 160" width="240" height="160">
  <rect width="240" height="160" fill="#f4f8fc"/>
  <ellipse cx="16" cy="70" rx="10" ry="10" fill="#e8f0fb" stroke="#1467c8" stroke-width="1.2"/><circle cx="16" cy="70" r="3.0" fill="#1467c8"/><ellipse cx="37" cy="70" rx="10" ry="10" fill="#e8f0fb" stroke="#1467c8" stroke-width="1.2"/><circle cx="37" cy="70" r="3.0" fill="#1467c8"/><ellipse cx="58" cy="70" rx="10" ry="10" fill="#e8f0fb" stroke="#1467c8" stroke-width="1.2"/><circle cx="58" cy="70" r="3.0" fill="#1467c8"/><ellipse cx="79" cy="70" rx="10" ry="10" fill="#e8f0fb" stroke="#1467c8" stroke-width="1.2"/><circle cx="79" cy="70" r="3.0" fill="#1467c8"/><ellipse cx="99" cy="70" rx="10" ry="10" fill="#e8f0fb" stroke="#1467c8" stroke-width="1.2"/><circle cx="99" cy="70" r="3.0" fill="#1467c8"/><ellipse cx="120" cy="70" rx="10" ry="10" fill="#e8f0fb" stroke="#1467c8" stroke-width="1.2"/><circle cx="120" cy="70" r="3.0" fill="#1467c8"/><ellipse cx="141" cy="70" rx="10" ry="10" fill="#e8f0fb" stroke="#1467c8" stroke-width="1.2"/><circle cx="141" cy="70" r="3.0" fill="#1467c8"/><ellipse cx="161" cy="70" rx="10" ry="10" fill="#e8f0fb" stroke="#1467c8" stroke-width="1.2"/><circle cx="161" cy="70" r="3.0" fill="#1467c8"/><ellipse cx="182" cy="70" rx="10" ry="10" fill="#e8f0fb" stroke="#1467c8" stroke-width="1.2"/><circle cx="182" cy="70" r="3.0" fill="#1467c8"/><ellipse cx="203" cy="70" rx="10" ry="10" fill="#e8f0fb" stroke="#1467c8" stroke-width="1.2"/><circle cx="203" cy="70" r="3.0" fill="#1467c8"/><ellipse cx="224" cy="70" rx="10" ry="10" fill="#e8f0fb" stroke="#1467c8" stroke-width="1.2"/><circle cx="224" cy="70" r="3.0" fill="#1467c8"/><rect x="0" y="82" width="240" height="5" fill="#cfe2f7"/>
  <text x="120.0" y="152" font-family="sans-serif" font-size="8.5" fill="#1b2430" text-anchor="middle" opacity="0.55">Simple cuboidal epithelium — 100x</text>
</svg>