<svg xmlns="http://www.w3.org/2000/svg" viewBox="0 0 240 160" width="240" height="160">
  <rect width="240" height="160" fill="#f4f8fc"/>
  <ellipse cx="17" cy="55" rx="11" ry="4.5" fill="#e8f0fb" stroke="#1467c8" stroke-width="1"/><ellipse cx="17" cy="55" rx="3.2" ry="1.4" fill="#1467c8"/><ellipse cx="40" cy="55" rx="11" ry="4.5" fill="#e8f0fb" stroke="#1467c8" stroke-width="1"/><ellipse cx="40" cy="55" rx="3.2" ry="1.4" fill="#1467c8"/><ellipse cx="63" cy="55" rx="11" ry="4.5" fill="#e8f0fb" stroke="#1467c8" stroke-width="1"/><ellipse cx="63" cy="55" rx="3.2" ry="1.4" fill="#1467c8"/><ellipse cx="86" cy="55" rx="11" ry="4.5" fill="#e8f0fb" stroke="#1467c8" stroke-width="1"/><ellipse cx="86" cy="55" rx="3.2" ry="1.4" fill="#1467c8"/><ellipse cx="109" cy="55" rx="11" ry="4.5" fill="#e8f0fb" stroke="#1467c8" stroke-width="1"/><ellipse cx="109" cy="55" rx="3.2" ry="1.4" fill="#1467c8"/><ellipse cx="132" cy="55" rx="11" ry="4.5" fill="#e8f0fb" stroke="#1467c8" stroke-width="1"/><ellipse cx="132" cy="55" rx="3.2" ry="1.4" fill="#1467c8"/><ellipse cx="155" cy="55" rx="11" ry="4.5" fill="#e8f0fb" stroke="#1467c8" stroke-width="1"/><ellipse cx="155" cy="55" rx="3.2" ry="1.4" fill="#1467c8"/><ellipse cx="178" cy="55" rx="11" ry="4.5" fill="#e8f0fb" stroke="#1467c8" stroke-width="1"/><ellipse cx="178" cy="55" rx="3.2" ry="1.4" fill="#1467c8"/><ellipse cx="201" cy="55" rx="11" ry="4.5" fill="#e8f0fb" stroke="#1467c8" stroke-width="1"/><ellipse cx="201" cy="55" rx="3.2" ry="1.4" fill="#1467c8"/><ellipse cx="224" cy="55" rx="11" ry="4.5" fill="#e8f0fb" stroke="#1467c8" stroke-width="1"/><ellipse cx="224" cy="55" rx="3.2" ry="1.4" fill="#1467c8"/><rect x="0" y="62" width="240" height="4" fill="#cfe2f7"/>
  <text x="120.0" y="152" font-family="sans-serif" font-size="9" fill="#1b2430" text-anchor="middle" opacity="0.55">Simple squamous epithelium — 100x (wide field)</text>
</svg>