<svg xmlns="http://www.w3.org/2000/svg" viewBox="0 0 240 160" width="240" height="160">
  <rect width="240" height="160" fill="#f4f8fc"/>
  <rect x="10" y="20" width="46" height="120" rx="18" fill="#e8f0fb" stroke="#1467c8" stroke-width="1.5"/><line x1="14" y1="26" x2="52" y2="26" stroke="#1467c8" stroke-width="1" opacity="0.5"/><line x1="14" y1="37" x2="52" y2="37" stroke="#1467c8" stroke-width="1" opacity="0.5"/><line x1="14" y1="48" x2="52" y2="48" stroke="#1467c8" stroke-width="1" opacity="0.5"/><line x1="14" y1="59" x2="52" y2="59" stroke="#1467c8" stroke-width="1" opacity="0.5"/><line x1="14" y1="70" x2="52" y2="70" stroke="#1467c8" stroke-width="1" opacity="0.5"/><line x1="14" y1="81" x2="52" y2="81" stroke="#1467c8" stroke-width="1" opacity="0.5"/><line x1="14" y1="92" x2="52" y2="92" stroke="#1467c8" stroke-width="1" opacity="0.5"/><line x1="14" y1="103" x2="52" y2="103" stroke="#1467c8" stroke-width="1" opacity="0.5"/><line x1="14" y1="114" x2="52" y2="114" stroke="#1467c8" stroke-width="1" opacity="0.5"/><line x1="14" y1="125" x2="52" y2="125" stroke="#1467c8" stroke-width="1" opacity="0.5"/><ellipse cx="20" cy="34" rx="5" ry="8" fill="#1b2430" opacity="0.85"/><ellipse cx="46" cy="120" rx="5" ry="8" fill="#1b2430" opacity="0.85"/><rect x="66" y="20" width="46" height="120" rx="18" fill="#e8f0fb" stroke="#1467c8" stroke-width="1.5"/><line x1="70" y1="26" x2="108" y2="26" stroke="#1467c8" stroke-width="1" opacity="0.5"/><line x1="70" y1="37" x2="108" y2="37" stroke="#1467c8" stroke-width="1" opacity="0.5"/><line x1="70" y1="48" x2="108" y2="48" stroke="#1467c8" stroke-width="1" opacity="0.5"/><line x1="70" y1="59" x2="108" y2="59" stroke="#1467c8" stroke-width="1" opacity="0.5"/><line x1="70" y1="70" x2="108" y2="70" stroke="#1467c8" stroke-width="1" opacity="0.5"/><line x1="70" y1="81" x2="108" y2="81" stroke="#1467c8" stroke-width="1" opacity="0.5"/><line x1="70" y1="92" x2="108" y2="92" stroke="#1467c8" stroke-width="1" opacity="0.5"/><line x1="70" y1="103" x2="108" y2="103" stroke="#1467c8" stroke-width="1" opacity="0.5"/><line x1="70" y1="114" x2="108" y2="114" stroke="#1467c8" stroke-width="1" opacity="0.5"/><line x1="70" y1="125" x2="108" y2="125" stroke="#1467c8" stroke-width="1" opacity="0.5"/><ellipse cx="76" cy="34" rx="5" ry="8" fill="#1b2430" opacity="0.85"/><ellipse cx="102" cy="120" rx="5" ry="8" fill="#1b2430" opacity="0.85"/><rect x="122" y="20" width="46" height="120" rx="18" fill="#e8f0fb" stroke="#1467c8" stroke-width="1.5"/><line x1="126" y1="26" x2="164" y2="26" stroke="#1467c8" stroke-width="1" opacity="0.5"/><line x1="126" y1="37" x2="164" y2="37" stroke="#1467c8" stroke-width="1" opacity="0.5"/><line x1="126" y1="48" x2="164" y2="48" stroke="#1467c8" stroke-width="1" opacity="0.5"/><line x1="126" y1="59" x2="164" y2="59" stroke="#1467c8" stroke-width="1" opacity="0.5"/><line x1="126" y1="70" x2="164" y2="70" stroke="#1467c8" stroke-width="1" opacity="0.5"/><line x1="126" y1="81" x2="164" y2="81" stroke="#1467c8" stroke-width="1" opacity="0.5"/><line x1="126" y1="92" x2="164" y2="92" stroke="#1467c8" stroke-width="1" opacity="0.5"/><line x1="126" y1="103" x2="164" y2="103" stroke="#1467c8" stroke-width="1" opacity="0.5"/><line x1="126" y1="114" x2="164" y2="114" stroke="#1467c8" stroke-width="1" opacity="0.5"/><line x1="126" y1="125" x2="164" y2="125" stroke="#1467c8" stroke-width="1" opacity="0.5"/><ellipse cx="132" cy="34" rx="5" ry="8" fill="#1b2430" opacity="0.85"/><ellipse cx="158" cy="120" rx="5" ry="8" fill="#1b2430" opacity="0.85"/><rect x="178" y="20" width="46" height="120" rx="18" fill="#e8f0fb" stroke="#1467c8" stroke-width="1.5"/><line x1="182" y1="26" x2="220" y2="26" stroke="#1467c8" stroke-width="1" opacity="0.5"/><line x1="182" y1="37" x2="220" y2="37" stroke="#1467c8" stroke-width="1" opacity="0.5"/><line x1="182" y1="48" x2="220" y2="48" stroke="#1467c8" stroke-width="1" opacity="0.5"/><line x1="182" y1="59" x2="220" y2="59" stroke="#1467c8" stroke-width="1" opacity="0.5"/><line x1="182" y1="70" x2="220" y2="70" stroke="#1467c8" stroke-width="1" opacity="0.5"/><line x1="182" y1="81" x2="220" y2="81" stroke="#1467c8" stroke-width="1" opacity="0.5"/><line x1="182" y1="92" x2="220" y2="92" stroke="#1467c8" stroke-width="1" opacity="0.5"/><line x1="182" y1="103" x2="220" y2="103" stroke="#1467c8" stroke-width="1" opacity="0.5"/><line x1="182" y1="114" x2="220" y2="114" stroke="#1467c8" stroke-width="1" opacity="0.5"/><line x1="182" y1="125" x2="220" y2="125" stroke="#1467c8" stroke-width="1" opacity="0.5"/><ellipse cx="188" cy="34" rx="5" ry="8" fill="#1b2430" opacity="0.85"/><ellipse cx="214" cy="120" rx="5" ry="8" fill="#1b2430" opacity="0.85"/>
  <text x="120.0" y="152" font-family="sans-serif" font-size="9" fill="#1b2430" text-anchor="middle" opacity="0.55">Skeletal muscle (schematic)</text>
</svg>