<svg xmlns="http://www.w3.org/2000/svg" viewBox="0 0 240 160" width="240" height="160">
  <rect width="240" height="160" fill="#f4f8fc"/>
  <rect x="8" y="14" width="30" height="128" rx="12" fill="#e8f0fb" stroke="#1467c8" stroke-width="1.1"/><line x1="11" y1="20" x2="35" y2="20" stroke="#1467c8" stroke-width="0.8" opacity="0.45"/><line x1="11" y1="33" x2="35" y2="33" stroke="#1467c8" stroke-width="0.8" opacity="0.45"/><line x1="11" y1="46" x2="35" y2="46" stroke="#1467c8" stroke-width="0.8" opacity="0.45"/><line x1="11" y1="59" x2="35" y2="59" stroke="#1467c8" stroke-width="0.8" opacity="0.45"/><line x1="11" y1="72" x2="35" y2="72" stroke="#1467c8" stroke-width="0.8" opacity="0.45"/><line x1="11" y1="85" x2="35" y2="85" stroke="#1467c8" stroke-width="0.8" opacity="0.45"/><line x1="11" y1="98" x2="35" y2="98" stroke="#1467c8" stroke-width="0.8" opacity="0.45"/><line x1="11" y1="111" x2="35" y2="111" stroke="#1467c8" stroke-width="0.8" opacity="0.45"/><line x1="11" y1="124" x2="35" y2="124" stroke="#1467c8" stroke-width="0.8" opacity="0.45"/><ellipse cx="16" cy="26" rx="3.5" ry="6" fill="#1b2430" opacity="0.8"/><rect x="46" y="14" width="30" height="128" rx="12" fill="#e8f0fb" stroke="#1467c8" stroke-width="1.1"/><line x1="49" y1="20" x2="73" y2="20" stroke="#1467c8" stroke-width="0.8" opacity="0.45"/><line x1="49" y1="33" x2="73" y2="33" stroke="#1467c8" stroke-width="0.8" opacity="0.45"/><line x1="49" y1="46" x2="73" y2="46" stroke="#1467c8" stroke-width="0.8" opacity="0.45"/><line x1="49" y1="59" x2="73" y2="59" stroke="#1467c8" stroke-width="0.8" opacity="0.45"/><line x1="49" y1="72" x2="73" y2="72" stroke="#1467c8" stroke-width="0.8" opacity="0.45"/><line x1="49" y1="85" x2="73" y2="85" stroke="#1467c8" stroke-width="0.8" opacity="0.45"/><line x1="49" y1="98" x2="73" y2="98" stroke="#1467c8" stroke-width="0.8" opacity="0.45"/><line x1="49" y1="111" x2="73" y2="111" stroke="#1467c8" stroke-width="0.8" opacity="0.45"/><line x1="49" y1="124" x2="73" y2="124" stroke="#1467c8" stroke-width="0.8" opacity="0.45"/><ellipse cx="54" cy="26" rx="3.5" ry="6" fill="#1b2430" opacity="0.8"/><rect x="84" y="14" width="30" height="128" rx="12" fill="#e8f0fb" stroke="#1467c8" stroke-width="1.1"/><line x1="87" y1="20" x2="111" y2="20" stroke="#1467c8" stroke-width="0.8" opacity="0.45"/><line x1="87" y1="33" x2="111" y2="33" stroke="#1467c8" stroke-width="0.8" opacity="0.45"/><line x1="87" y1="46" x2="111" y2="46" stroke="#1467c8" stroke-width="0.8" opacity="0.45"/><line x1="87" y1="59" x2="111" y2="59" stroke="#1467c8" stroke-width="0.8" opacity="0.45"/><line x1="87" y1="72" x2="111" y2="72" stroke="#1467c8" stroke-width="0.8" opacity="0.45"/><line x1="87" y1="85" x2="111" y2="85" stroke="#1467c8" stroke-width="0.8" opacity="0.45"/><line x1="87" y1="98" x2="111" y2="98" stroke="#1467c8" stroke-width="0.8" opacity="0.45"/><line x1="87" y1="111" x2="111" y2="111" stroke="#1467c8" stroke-width="0.8" opacity="0.45"/><line x1="87" y1="124" x2="111" y2="124" stroke="#1467c8" stroke-width="0.8" opacity="0.45"/><ellipse cx="92" cy="26" rx="3.5" ry="6" fill="#1b2430" opacity="0.8"/><rect x="122" y="14" width="30" height="128" rx="12" fill="#e8f0fb" stroke="#1467c8" stroke-width="1.1"/><line x1="125" y1="20" x2="149" y2="20" stroke="#1467c8" stroke-width="0.8" opacity="0.45"/><line x1="125" y1="33" x2="149" y2="33" stroke="#1467c8" stroke-width="0.8" opacity="0.45"/><line x1="125" y1="46" x2="149" y2="46" stroke="#1467c8" stroke-width="0.8" opacity="0.45"/><line x1="125" y1="59" x2="149" y2="59" stroke="#1467c8" stroke-width="0.8" opacity="0.45"/><line x1="125" y1="72" x2="149" y2="72" stroke="#1467c8" stroke-width="0.8" opacity="0.45"/><line x1="125" y1="85" x2="149" y2="85" stroke="#1467c8" stroke-width="0.8" opacity="0.45"/><line x1="125" y1="98" x2="149" y2="98" stroke="#1467c8" stroke-width="0.8" opacity="0.45"/><line x1="125" y1="111" x2="149" y2="111" stroke="#1467c8" stroke-width="0.8" opacity="0.45"/><line x1="125" y1="124" x2="149" y2="124" stroke="#1467c8" stroke-width="0.8" opacity="0.45"/><ellipse cx="130" cy="26" rx="3.5" ry="6" fill="#1b2430" opacity="0.8"/><rect x="160" y="14" width="30" height="128" rx="12" fill="#e8f0fb" stroke="#1467c8" stroke-width="1.1"/><line x1="163" y1="20" x2="187" y2="20" stroke="#1467c8" stroke-width="0.8" opacity="0.45"/><line x1="163" y1="33" x2="187" y2="33" stroke="#1467c8" stroke-width="0.8" opacity="0.45"/><line x1="163" y1="46" x2="187" y2="46" stroke="#1467c8" stroke-width="0.8" opacity="0.45"/><line x1="163" y1="59" x2="187" y2="59" stroke="#1467c8" stroke-width="0.8" opacity="0.45"/><line x1="163" y1="72" x2="187" y2="72" stroke="#1467c8" stroke-width="0.8" opacity="0.45"/><line x1="163" y1="85" x2="187" y2="85" stroke="#1467c8" stroke-width="0.8" opacity="0.45"/><line x1="163" y1="98" x2="187" y2="98" stroke="#1467c8" stroke-width="0.8" opacity="0.45"/><line x1="163" y1="111" x2="187" y2="111" stroke="#1467c8" stroke-width="0.8" opacity="0.45"/><line x1="163" y1="124" x2="187" y2="124" stroke="#1467c8" stroke-width="0.8" opacity="0.45"/><ellipse cx="168" cy="26" rx="3.5" ry="6" fill="#1b2430" opacity="0.8"/><rect x="198" y="14" width="30" height="128" rx="12" fill="#e8f0fb" stroke="#1467c8" stroke-width="1.1"/><line x1="201" y1="20" x2="225" y2="20" stroke="#1467c8" stroke-width="0.8" opacity="0.45"/><line x1="201" y1="33" x2="225" y2="33" stroke="#1467c8" stroke-width="0.8" opacity="0.45"/><line x1="201" y1="46" x2="225" y2="46" stroke="#1467c8" stroke-width="0.8" opacity="0.45"/><line x1="201" y1="59" x2="225" y2="59" stroke="#1467c8" stroke-width="0.8" opacity="0.45"/><line x1="201" y1="72" x2="225" y2="72" stroke="#1467c8" stroke-width="0.8" opacity="0.45"/><line x1="201" y1="85" x2="225" y2="85" stroke="#1467c8" stroke-width="0.8" opacity="0.45"/><line x1="201" y1="98" x2="225" y2="98" stroke="#1467c8" stroke-width="0.8" opacity="0.45"/><line x1="201" y1="111" x2="225" y2="111" stroke="#1467c8" stroke-width="0.8" opacity="0.45"/><line x1="201" y1="124" x2="225" y2="124" stroke="#1467c8" stroke-width="0.8" opacity="0.45"/><ellipse cx="206" cy="26" rx="3.5" ry="6" fill="#1b2430" opacity="0.8"/>
  <text x="120.0" y="152" font-family="sans-serif" font-size="9" fill="#1b2430" text-anchor="middle" opacity="0.55">Skeletal muscle — 100x (wide field)</text>
</svg>