<svg xmlns="http://www.w3.org/2000/svg" viewBox="0 0 240 160" width="240" height="160">
  <rect width="240" height="160" fill="#f4f8fc"/>
  <ellipse cx="8" cy="20" rx="14" ry="5.5" fill="#e8f0fb" stroke="#1467c8" stroke-width="0.9" transform="rotate(6 8 20)"/><ellipse cx="8" cy="20" rx="3.6" ry="1.8" fill="#1b2430" transform="rotate(6 8 20)"/><ellipse cx="38" cy="20" rx="14" ry="5.5" fill="#e8f0fb" stroke="#1467c8" stroke-width="0.9" transform="rotate(6 38 20)"/><ellipse cx="38" cy="20" rx="3.6" ry="1.8" fill="#1b2430" transform="rotate(6 38 20)"/><ellipse cx="68" cy="20" rx="14" ry="5.5" fill="#e8f0fb" stroke="#1467c8" stroke-width="0.9" transform="rotate(6 68 20)"/><ellipse cx="68" cy="20" rx="3.6" ry="1.8" fill="#1b2430" transform="rotate(6 68 20)"/><ellipse cx="98" cy="20" rx="14" ry="5.5" fill="#e8f0fb" stroke="#1467c8" stroke-width="0.9" transform="rotate(6 98 20)"/><ellipse cx="98" cy="20" rx="3.6" ry="1.8" fill="#1b2430" transform="rotate(6 98 20)"/><ellipse cx="128" cy="20" rx="14" ry="5.5" fill="#e8f0fb" stroke="#1467c8" stroke-width="0.9" transform="rotate(6 128 20)"/><ellipse cx="128" cy="20" rx="3.6" ry="1.8" fill="#1b2430" transform="rotate(6 128 20)"/><ellipse cx="158" cy="20" rx="14" ry="5.5" fill="#e8f0fb" stroke="#1467c8" stroke-width="0.9" transform="rotate(6 158 20)"/><ellipse cx="158" cy="20" rx="3.6" ry="1.8" fill="#1b2430" transform="rotate(6 158 20)"/><ellipse cx="188" cy="20" rx="14" ry="5.5" fill="#e8f0fb" stroke="#1467c8" stroke-width="0.9" transform="rotate(6 188 20)"/><ellipse cx="188" cy="20" rx="3.6" ry="1.8" fill="#1b2430" transform="rotate(6 188 20)"/><ellipse cx="218" cy="20" rx="14" ry="5.5" fill="#e8f0fb" stroke="#1467c8" stroke-width="0.9" transform="rotate(6 218 20)"/><ellipse cx="218" cy="20" rx="3.6" ry="1.8" fill="#1b2430" transform="rotate(6 218 20)"/><ellipse cx="22" cy="50" rx="14" ry="5.5" fill="#e8f0fb" stroke="#1467c8" stroke-width="0.9" transform="rotate(6 22 50)"/><ellipse cx="22" cy="50" rx="3.6" ry="1.8" fill="#1b2430" transform="rotate(6 22 50)"/><ellipse cx="52" cy="50" rx="14" ry="5.5" fill="#e8f0fb" stroke="#1467c8" stroke-width="0.9" transform="rotate(6 52 50)"/><ellipse cx="52" cy="50" rx="3.6" ry="1.8" fill="#1b2430" transform="rotate(6 52 50)"/><ellipse cx="82" cy="50" rx="14" ry="5.5" fill="#e8f0fb" stroke="#1467c8" stroke-width="0.9" transform="rotate(6 82 50)"/><ellipse cx="82" cy="50" rx="3.6" ry="1.8" fill="#1b2430" transform="rotate(6 82 50)"/><ellipse cx="112" cy="50" rx="14" ry="5.5" fill="#e8f0fb" stroke="#1467c8" stroke-width="0.9" transform="rotate(6 112 50)"/><ellipse cx="112" cy="50" rx="3.6" ry="1.8" fill="#1b2430" transform="rotate(6 112 50)"/><ellipse cx="142" cy="50" rx="14" ry="5.5" fill="#e8f0fb" stroke="#1467c8" stroke-width="0.9" transform="rotate(6 142 50)"/><ellipse cx="142" cy="50" rx="3.6" ry="1.8" fill="#1b2430" transform="rotate(6 142 50)"/><ellipse cx="172" cy="50" rx="14" ry="5.5" fill="#e8f0fb" stroke="#1467c8" stroke-width="0.9" transform="rotate(6 172 50)"/><ellipse cx="172" cy="50" rx="3.6" ry="1.8" fill="#1b2430" transform="rotate(6 172 50)"/><ellipse cx="202" cy="50" rx="14" ry="5.5" fill="#e8f0fb" stroke="#1467c8" stroke-width="0.9" transform="rotate(6 202 50)"/><ellipse cx="202" cy="50" rx="3.6" ry="1.8" fill="#1b2430" transform="rotate(6 202 50)"/><ellipse cx="232" cy="50" rx="14" ry="5.5" fill="#e8f0fb" stroke="#1467c8" stroke-width="0.9" transform="rotate(6 232 50)"/><ellipse cx="232" cy="50" rx="3.6" ry="1.8" fill="#1b2430" transform="rotate(6 232 50)"/><ellipse cx="8" cy="80" rx="14" ry="5.5" fill="#e8f0fb" stroke="#1467c8" stroke-width="0.9" transform="rotate(6 8 80)"/><ellipse cx="8" cy="80" rx="3.6" ry="1.8" fill="#1b2430" transform="rotate(6 8 80)"/><ellipse cx="38" cy="80" rx="14" ry="5.5" fill="#e8f0fb" stroke="#1467c8" stroke-width="0.9" transform="rotate(6 38 80)"/><ellipse cx="38" cy="80" rx="3.6" ry="1.8" fill="#1b2430" transform="rotate(6 38 80)"/><ellipse cx="68" cy="80" rx="14" ry="5.5" fill="#e8f0fb" stroke="#1467c8" stroke-width="0.9" transform="rotate(6 68 80)"/><ellipse cx="68" cy="80" rx="3.6" ry="1.8" fill="#1b2430" transform="rotate(6 68 80)"/><ellipse cx="98" cy="80" rx="14" ry="5.5" fill="#e8f0fb" stroke="#1467c8" stroke-width="0.9" transform="rotate(6 98 80)"/><ellipse cx="98" cy="80" rx="3.6" ry="1.8" fill="#1b2430" transform="rotate(6 98 80)"/><ellipse cx="128" cy="80" rx="14" ry="5.5" fill="#e8f0fb" stroke="#1467c8" stroke-width="0.9" transform="rotate(6 128 80)"/><ellipse cx="128" cy="80" rx="3.6" ry="1.8" fill="#1b2430" transform="rotate(6 128 80)"/><ellipse cx="158" cy="80" rx="14" ry="5.5" fill="#e8f0fb" stroke="#1467c8" stroke-width="0.9" transform="rotate(6 158 80)"/><ellipse cx="158" cy="80" rx="3.6" ry="1.8" fill="#1b2430" transform="rotate(6 158 80)"/><ellipse cx="188" cy="80" rx="14" ry="5.5" fill="#e8f0fb" stroke="#1467c8" stroke-width="0.9" transform="rotate(6 188 80)"/><ellipse cx="188" cy="80" rx="3.6" ry="1.8" fill="#1b2430" transform="rotate(6 188 80)"/><ellipse cx="218" cy="80" rx="14" ry="5.5" fill="#e8f0fb" stroke="#1467c8" stroke-width="0.9" transform="rotate(6 218 80)"/><ellipse cx="218" cy="80" rx="3.6" ry="1.8" fill="#1b2430" transform="rotate(6 218 80)"/><ellipse cx="22" cy="110" rx="14" ry="5.5" fill="#e8f0fb" stroke="#1467c8" stroke-width="0.9" transform="rotate(6 22 110)"/><ellipse cx="22" cy="110" rx="3.6" ry="1.8" fill="#1b2430" transform="rotate(6 22 110)"/><ellipse cx="52" cy="110" rx="14" ry="5.5" fill="#e8f0fb" stroke="#1467c8" stroke-width="0.9" transform="rotate(6 52 110)"/><ellipse cx="52" cy="110" rx="3.6" ry="1.8" fill="#1b2430" transform="rotate(6 52 110)"/><ellipse cx="82" cy="110" rx="14" ry="5.5" fill="#e8f0fb" stroke="#1467c8" stroke-width="0.9" transform="rotate(6 82 110)"/><ellipse cx="82" cy="110" rx="3.6" ry="1.8" fill="#1b2430" transform="rotate(6 82 110)"/><ellipse cx="112" cy="110" rx="14" ry="5.5" fill="#e8f0fb" stroke="#1467c8" stroke-width="0.9" transform="rotate(6 112 110)"/><ellipse cx="112" cy="110" rx="3.6" ry="1.8" fill="#1b2430" transform="rotate(6 112 110)"/><ellipse cx="142" cy="110" rx="14" ry="5.5" fill="#e8f0fb" stroke="#1467c8" stroke-width="0.9" transform="rotate(6 142 110)"/><ellipse cx="142" cy="110" rx="3.6" ry="1.8" fill="#1b2430" transform="rotate(6 142 110)"/><ellipse cx="172" cy="110" rx="14" ry="5.5" fill="#e8f0fb" stroke="#1467c8" stroke-width="0.9" transform="rotate(6 172 110)"/><ellipse cx="172" cy="110" rx="3.6" ry="1.8" fill="#1b2430" transform="rotate(6 172 110)"/><ellipse cx="202" cy="110" rx="14" ry="5.5" fill="#e8f0fb" stroke="#1467c8" stroke-width="0.9" transform="rotate(6 202 110)"/><ellipse cx="202" cy="110" rx="3.6" ry="1.8" fill="#1b2430" transform="rotate(6 202 110)"/><ellipse cx="232" cy="110" rx="14" ry="5.5" fill="#e8f0fb" stroke="#1467c8" stroke-width="0.9" transform="rotate(6 232 110)"/><ellipse cx="232" cy="110" rx="3.6" ry="1.8" fill="#1b2430" transform="rotate(6 232 110)"/><ellipse cx="8" cy="140" rx="14" ry="5.5" fill="#e8f0fb" stroke="#1467c8" stroke-width="0.9" transform="rotate(6 8 140)"/><ellipse cx="8" cy="140" rx="3.6" ry="1.8" fill="#1b2430" transform="rotate(6 8 140)"/><ellipse cx="38" cy="140" rx="14" ry="5.5" fill="#e8f0fb" stroke="#1467c8" stroke-width="0.9" transform="rotate(6 38 140)"/><ellipse cx="38" cy="140" rx="3.6" ry="1.8" fill="#1b2430" transform="rotate(6 38 140)"/><ellipse cx="68" cy="140" rx="14" ry="5.5" fill="#e8f0fb" stroke="#1467c8" stroke-width="0.9" transform="rotate(6 68 140)"/><ellipse cx="68" cy="140" rx="3.6" ry="1.8" fill="#1b2430" transform="rotate(6 68 140)"/><ellipse cx="98" cy="140" rx="14" ry="5.5" fill="#e8f0fb" stroke="#1467c8" stroke-width="0.9" transform="rotate(6 98 140)"/><ellipse cx="98" cy="140" rx="3.6" ry="1.8" fill="#1b2430" transform="rotate(6 98 140)"/><ellipse cx="128" cy="140" rx="14" ry="5.5" fill="#e8f0fb" stroke="#1467c8" stroke-width="0.9" transform="rotate(6 128 140)"/><ellipse cx="128" cy="140" rx="3.6" ry="1.8" fill="#1b2430" transform="rotate(6 128 140)"/><ellipse cx="158" cy="140" rx="14" ry="5.5" fill="#e8f0fb" stroke="#1467c8" stroke-width="0.9" transform="rotate(6 158 140)"/><ellipse cx="158" cy="140" rx="3.6" ry="1.8" fill="#1b2430" transform="rotate(6 158 140)"/><ellipse cx="188" cy="140" rx="14" ry="5.5" fill="#e8f0fb" stroke="#1467c8" stroke-width="0.9" transform="rotate(6 188 140)"/><ellipse cx="188" cy="140" rx="3.6" ry="1.8" fill="#1b2430" transform="rotate(6 188 140)"/><ellipse cx="218" cy="140" rx="14" ry="5.5" fill="#e8f0fb" stroke="#1467c8" stroke-width="0.9" transform="rotate(6 218 140)"/><ellipse cx="218" cy="140" rx="3.6" ry="1.8" fill="#1b2430" transform="rotate(6 218 140)"/>
  <text x="120.0" y="152" font-family="sans-serif" font-size="9" fill="#1b2430" text-anchor="middle" opacity="0.55">Smooth muscle — 100x (wide field)</text>
</svg>