<svg xmlns="http://www.w3.org/2000/svg" viewBox="0 0 240 160" width="240" height="160">
  <rect width="240" height="160" fill="#f4f8fc"/>
  <ellipse cx="28" cy="26" rx="22" ry="9" fill="#e8f0fb" stroke="#1467c8" stroke-width="1.3" transform="rotate(8 28 26)"/><ellipse cx="28" cy="26" rx="6" ry="3" fill="#1b2430" transform="rotate(8 28 26)"/><ellipse cx="66" cy="26" rx="22" ry="9" fill="#e8f0fb" stroke="#1467c8" stroke-width="1.3" transform="rotate(8 66 26)"/><ellipse cx="66" cy="26" rx="6" ry="3" fill="#1b2430" transform="rotate(8 66 26)"/><ellipse cx="104" cy="26" rx="22" ry="9" fill="#e8f0fb" stroke="#1467c8" stroke-width="1.3" transform="rotate(8 104 26)"/><ellipse cx="104" cy="26" rx="6" ry="3" fill="#1b2430" transform="rotate(8 104 26)"/><ellipse cx="142" cy="26" rx="22" ry="9" fill="#e8f0fb" stroke="#1467c8" stroke-width="1.3" transform="rotate(8 142 26)"/><ellipse cx="142" cy="26" rx="6" ry="3" fill="#1b2430" transform="rotate(8 142 26)"/><ellipse cx="180" cy="26" rx="22" ry="9" fill="#e8f0fb" stroke="#1467c8" stroke-width="1.3" transform="rotate(8 180 26)"/><ellipse cx="180" cy="26" rx="6" ry="3" fill="#1b2430" transform="rotate(8 180 26)"/><ellipse cx="218" cy="26" rx="22" ry="9" fill="#e8f0fb" stroke="#1467c8" stroke-width="1.3" transform="rotate(8 218 26)"/><ellipse cx="218" cy="26" rx="6" ry="3" fill="#1b2430" transform="rotate(8 218 26)"/><ellipse cx="12" cy="60" rx="22" ry="9" fill="#e8f0fb" stroke="#1467c8" stroke-width="1.3" transform="rotate(8 12 60)"/><ellipse cx="12" cy="60" rx="6" ry="3" fill="#1b2430" transform="rotate(8 12 60)"/><ellipse cx="50" cy="60" rx="22" ry="9" fill="#e8f0fb" stroke="#1467c8" stroke-width="1.3" transform="rotate(8 50 60)"/><ellipse cx="50" cy="60" rx="6" ry="3" fill="#1b2430" transform="rotate(8 50 60)"/><ellipse cx="88" cy="60" rx="22" ry="9" fill="#e8f0fb" stroke="#1467c8" stroke-width="1.3" transform="rotate(8 88 60)"/><ellipse cx="88" cy="60" rx="6" ry="3" fill="#1b2430" transform="rotate(8 88 60)"/><ellipse cx="126" cy="60" rx="22" ry="9" fill="#e8f0fb" stroke="#1467c8" stroke-width="1.3" transform="rotate(8 126 60)"/><ellipse cx="126" cy="60" rx="6" ry="3" fill="#1b2430" transform="rotate(8 126 60)"/><ellipse cx="164" cy="60" rx="22" ry="9" fill="#e8f0fb" stroke="#1467c8" stroke-width="1.3" transform="rotate(8 164 60)"/><ellipse cx="164" cy="60" rx="6" ry="3" fill="#1b2430" transform="rotate(8 164 60)"/><ellipse cx="202" cy="60" rx="22" ry="9" fill="#e8f0fb" stroke="#1467c8" stroke-width="1.3" transform="rotate(8 202 60)"/><ellipse cx="202" cy="60" rx="6" ry="3" fill="#1b2430" transform="rotate(8 202 60)"/><ellipse cx="28" cy="94" rx="22" ry="9" fill="#e8f0fb" stroke="#1467c8" stroke-width="1.3" transform="rotate(8 28 94)"/><ellipse cx="28" cy="94" rx="6" ry="3" fill="#1b2430" transform="rotate(8 28 94)"/><ellipse cx="66" cy="94" rx="22" ry="9" fill="#e8f0fb" stroke="#1467c8" stroke-width="1.3" transform="rotate(8 66 94)"/><ellipse cx="66" cy="94" rx="6" ry="3" fill="#1b2430" transform="rotate(8 66 94)"/><ellipse cx="104" cy="94" rx="22" ry="9" fill="#e8f0fb" stroke="#1467c8" stroke-width="1.3" transform="rotate(8 104 94)"/><ellipse cx="104" cy="94" rx="6" ry="3" fill="#1b2430" transform="rotate(8 104 94)"/><ellipse cx="142" cy="94" rx="22" ry="9" fill="#e8f0fb" stroke="#1467c8" stroke-width="1.3" transform="rotate(8 142 94)"/><ellipse cx="142" cy="94" rx="6" ry="3" fill="#1b2430" transform="rotate(8 142 94)"/><ellipse cx="180" cy="94" rx="22" ry="9" fill="#e8f0fb" stroke="#1467c8" stroke-width="1.3" transform="rotate(8 180 94)"/><ellipse cx="180" cy="94" rx="6" ry="3" fill="#1b2430" transform="rotate(8 180 94)"/><ellipse cx="218" cy="94" rx="22" ry="9" fill="#e8f0fb" stroke="#1467c8" stroke-width="1.3" transform="rotate(8 218 94)"/><ellipse cx="218" cy="94" rx="6" ry="3" fill="#1b2430" transform="rotate(8 218 94)"/><ellipse cx="12" cy="128" rx="22" ry="9" fill="#e8f0fb" stroke="#1467c8" stroke-width="1.3" transform="rotate(8 12 128)"/><ellipse cx="12" cy="128" rx="6" ry="3" fill="#1b2430" transform="rotate(8 12 128)"/><ellipse cx="50" cy="128" rx="22" ry="9" fill="#e8f0fb" stroke="#1467c8" stroke-width="1.3" transform="rotate(8 50 128)"/><ellipse cx="50" cy="128" rx="6" ry="3" fill="#1b2430" transform="rotate(8 50 128)"/><ellipse cx="88" cy="128" rx="22" ry="9" fill="#e8f0fb" stroke="#1467c8" stroke-width="1.3" transform="rotate(8 88 128)"/><ellipse cx="88" cy="128" rx="6" ry="3" fill="#1b2430" transform="rotate(8 88 128)"/><ellipse cx="126" cy="128" rx="22" ry="9" fill="#e8f0fb" stroke="#1467c8" stroke-width="1.3" transform="rotate(8 126 128)"/><ellipse cx="126" cy="128" rx="6" ry="3" fill="#1b2430" transform="rotate(8 126 128)"/><ellipse cx="164" cy="128" rx="22" ry="9" fill="#e8f0fb" stroke="#1467c8" stroke-width="1.3" transform="rotate(8 164 128)"/><ellipse cx="164" cy="128" rx="6" ry="3" fill="#1b2430" transform="rotate(8 164 128)"/><ellipse cx="202" cy="128" rx="22" ry="9" fill="#e8f0fb" stroke="#1467c8" stroke-width="1.3" transform="rotate(8 202 128)"/><ellipse cx="202" cy="128" rx="6" ry="3" fill="#1b2430" transform="rotate(8 202 128)"/>
  <text x="120.0" y="152" font-family="sans-serif" font-size="9" fill="#1b2430" text-anchor="middle" opacity="0.55">Smooth muscle (schematic)</text>
</svg>