<svg xmlns="http://www.w3.org/2000/svg" viewBox="0 0 240 160" width="240" height="160">
  <rect width="240" height="160" fill="#f4f8fc"/>
  <line x1="111" y1="60" x2="82" y2="82" stroke="#1467c8" stroke-width="4" stroke-linecap="round" opacity="0.8"/><line x1="2" y1="80" x2="33" y2="55" stroke="#1467c8" stroke-width="4" stroke-linecap="round" opacity="0.8"/><line x1="133" y1="99" x2="96" y2="91" stroke="#1467c8" stroke-width="4" stroke-linecap="round" opacity="0.8"/><line x1="169" y1="72" x2="187" y2="52" stroke="#1467c8" stroke-width="4" stroke-linecap="round" opacity="0.8"/><line x1="57" y1="18" x2="58" y2="43" stroke="#1467c8" stroke-width="4" stroke-linecap="round" opacity="0.8"/><line x1="142" y1="124" x2="132" y2="139" stroke="#1467c8" stroke-width="4" stroke-linecap="round" opacity="0.8"/><line x1="24" y1="47" x2="38" y2="60" stroke="#1467c8" stroke-width="4" stroke-linecap="round" opacity="0.8"/><line x1="101" y1="14" x2="83" y2="-3" stroke="#1467c8" stroke-width="4" stroke-linecap="round" opacity="0.8"/><line x1="67" y1="130" x2="43" y2="153" stroke="#1467c8" stroke-width="4" stroke-linecap="round" opacity="0.8"/><line x1="211" y1="9" x2="201" y2="8" stroke="#1467c8" stroke-width="4" stroke-linecap="round" opacity="0.8"/><line x1="6" y1="68" x2="38" y2="45" stroke="#1467c8" stroke-width="4" stroke-linecap="round" opacity="0.8"/><line x1="143" y1="19" x2="150" y2="43" stroke="#1467c8" stroke-width="4" stroke-linecap="round" opacity="0.8"/><line x1="49" y1="1" x2="15" y2="4" stroke="#1467c8" stroke-width="4" stroke-linecap="round" opacity="0.8"/><line x1="4" y1="14" x2="4" y2="39" stroke="#1467c8" stroke-width="4" stroke-linecap="round" opacity="0.8"/>
  <text x="120.0" y="152" font-family="sans-serif" font-size="8.5" fill="#1b2430" text-anchor="middle" opacity="0.55">Spongy bone — 100x</text>
</svg>