<svg xmlns="http://www.w3.org/2000/svg" viewBox="0 0 240 160" width="240" height="160">
  <rect width="240" height="160" fill="#f4f8fc"/>
  <ellipse cx="10" cy="136" rx="11" ry="7.0" fill="#e8f0fb" stroke="#1467c8" stroke-width="0.9"/><circle cx="10" cy="136" r="2.1" fill="#1467c8"/><ellipse cx="36" cy="136" rx="11" ry="7.0" fill="#e8f0fb" stroke="#1467c8" stroke-width="0.9"/><circle cx="36" cy="136" r="2.1" fill="#1467c8"/><ellipse cx="62" cy="136" rx="11" ry="7.0" fill="#e8f0fb" stroke="#1467c8" stroke-width="0.9"/><circle cx="62" cy="136" r="2.1" fill="#1467c8"/><ellipse cx="88" cy="136" rx="11" ry="7.0" fill="#e8f0fb" stroke="#1467c8" stroke-width="0.9"/><circle cx="88" cy="136" r="2.1" fill="#1467c8"/><ellipse cx="114" cy="136" rx="11" ry="7.0" fill="#e8f0fb" stroke="#1467c8" stroke-width="0.9"/><circle cx="114" cy="136" r="2.1" fill="#1467c8"/><ellipse cx="140" cy="136" rx="11" ry="7.0" fill="#e8f0fb" stroke="#1467c8" stroke-width="0.9"/><circle cx="140" cy="136" r="2.1" fill="#1467c8"/><ellipse cx="166" cy="136" rx="11" ry="7.0" fill="#e8f0fb" stroke="#1467c8" stroke-width="0.9"/><circle cx="166" cy="136" r="2.1" fill="#1467c8"/><ellipse cx="192" cy="136" rx="11" ry="7.0" fill="#e8f0fb" stroke="#1467c8" stroke-width="0.9"/><circle cx="192" cy="136" r="2.1" fill="#1467c8"/><ellipse cx="218" cy="136" rx="11" ry="7.0" fill="#e8f0fb" stroke="#1467c8" stroke-width="0.9"/><circle cx="218" cy="136" r="2.1" fill="#1467c8"/><ellipse cx="10" cy="118" rx="11" ry="6.6" fill="#e8f0fb" stroke="#1467c8" stroke-width="0.9"/><circle cx="10" cy="118" r="1.9799999999999998" fill="#1467c8"/><ellipse cx="36" cy="118" rx="11" ry="6.6" fill="#e8f0fb" stroke="#1467c8" stroke-width="0.9"/><circle cx="36" cy="118" r="1.9799999999999998" fill="#1467c8"/><ellipse cx="62" cy="118" rx="11" ry="6.6" fill="#e8f0fb" stroke="#1467c8" stroke-width="0.9"/><circle cx="62" cy="118" r="1.9799999999999998" fill="#1467c8"/><ellipse cx="88" cy="118" rx="11" ry="6.6" fill="#e8f0fb" stroke="#1467c8" stroke-width="0.9"/><circle cx="88" cy="118" r="1.9799999999999998" fill="#1467c8"/><ellipse cx="114" cy="118" rx="11" ry="6.6" fill="#e8f0fb" stroke="#1467c8" stroke-width="0.9"/><circle cx="114" cy="118" r="1.9799999999999998" fill="#1467c8"/><ellipse cx="140" cy="118" rx="11" ry="6.6" fill="#e8f0fb" stroke="#1467c8" stroke-width="0.9"/><circle cx="140" cy="118" r="1.9799999999999998" fill="#1467c8"/><ellipse cx="166" cy="118" rx="11" ry="6.6" fill="#e8f0fb" stroke="#1467c8" stroke-width="0.9"/><circle cx="166" cy="118" r="1.9799999999999998" fill="#1467c8"/><ellipse cx="192" cy="118" rx="11" ry="6.6" fill="#e8f0fb" stroke="#1467c8" stroke-width="0.9"/><circle cx="192" cy="118" r="1.9799999999999998" fill="#1467c8"/><ellipse cx="218" cy="118" rx="11" ry="6.6" fill="#e8f0fb" stroke="#1467c8" stroke-width="0.9"/><circle cx="218" cy="118" r="1.9799999999999998" fill="#1467c8"/><ellipse cx="10" cy="100" rx="11" ry="6.2" fill="#e8f0fb" stroke="#1467c8" stroke-width="0.9"/><circle cx="10" cy="100" r="1.8599999999999999" fill="#1467c8"/><ellipse cx="36" cy="100" rx="11" ry="6.2" fill="#e8f0fb" stroke="#1467c8" stroke-width="0.9"/><circle cx="36" cy="100" r="1.8599999999999999" fill="#1467c8"/><ellipse cx="62" cy="100" rx="11" ry="6.2" fill="#e8f0fb" stroke="#1467c8" stroke-width="0.9"/><circle cx="62" cy="100" r="1.8599999999999999" fill="#1467c8"/><ellipse cx="88" cy="100" rx="11" ry="6.2" fill="#e8f0fb" stroke="#1467c8" stroke-width="0.9"/><circle cx="88" cy="100" r="1.8599999999999999" fill="#1467c8"/><ellipse cx="114" cy="100" rx="11" ry="6.2" fill="#e8f0fb" stroke="#1467c8" stroke-width="0.9"/><circle cx="114" cy="100" r="1.8599999999999999" fill="#1467c8"/><ellipse cx="140" cy="100" rx="11" ry="6.2" fill="#e8f0fb" stroke="#1467c8" stroke-width="0.9"/><circle cx="140" cy="100" r="1.8599999999999999" fill="#1467c8"/><ellipse cx="166" cy="100" rx="11" ry="6.2" fill="#e8f0fb" stroke="#1467c8" stroke-width="0.9"/><circle cx="166" cy="100" r="1.8599999999999999" fill="#1467c8"/><ellipse cx="192" cy="100" rx="11" ry="6.2" fill="#e8f0fb" stroke="#1467c8" stroke-width="0.9"/><circle cx="192" cy="100" r="1.8599999999999999" fill="#1467c8"/><ellipse cx="218" cy="100" rx="11" ry="6.2" fill="#e8f0fb" stroke="#1467c8" stroke-width="0.9"/><circle cx="218" cy="100" r="1.8599999999999999" fill="#1467c8"/><ellipse cx="10" cy="84" rx="11" ry="5.8" fill="#e8f0fb" stroke="#1467c8" stroke-width="0.9"/><circle cx="10" cy="84" r="1.74" fill="#1467c8"/><ellipse cx="36" cy="84" rx="11" ry="5.8" fill="#e8f0fb" stroke="#1467c8" stroke-width="0.9"/><circle cx="36" cy="84" r="1.74" fill="#1467c8"/><ellipse cx="62" cy="84" rx="11" ry="5.8" fill="#e8f0fb" stroke="#1467c8" stroke-width="0.9"/><circle cx="62" cy="84" r="1.74" fill="#1467c8"/><ellipse cx="88" cy="84" rx="11" ry="5.8" fill="#e8f0fb" stroke="#1467c8" stroke-width="0.9"/><circle cx="88" cy="84" r="1.74" fill="#1467c8"/><ellipse cx="114" cy="84" rx="11" ry="5.8" fill="#e8f0fb" stroke="#1467c8" stroke-width="0.9"/><circle cx="114" cy="84" r="1.74" fill="#1467c8"/><ellipse cx="140" cy="84" rx="11" ry="5.8" fill="#e8f0fb" stroke="#1467c8" stroke-width="0.9"/><circle cx="140" cy="84" r="1.74" fill="#1467c8"/><ellipse cx="166" cy="84" rx="11" ry="5.8" fill="#e8f0fb" stroke="#1467c8" stroke-width="0.9"/><circle cx="166" cy="84" r="1.74" fill="#1467c8"/><ellipse cx="192" cy="84" rx="11" ry="5.8" fill="#e8f0fb" stroke="#1467c8" stroke-width="0.9"/><circle cx="192" cy="84" r="1.74" fill="#1467c8"/><ellipse cx="218" cy="84" rx="11" ry="5.8" fill="#e8f0fb" stroke="#1467c8" stroke-width="0.9"/><circle cx="218" cy="84" r="1.74" fill="#1467c8"/><ellipse cx="10" cy="70" rx="11" ry="5.4" fill="#e8f0fb" stroke="#1467c8" stroke-width="0.9"/><circle cx="10" cy="70" r="1.62" fill="#1467c8"/><ellipse cx="36" cy="70" rx="11" ry="5.4" fill="#e8f0fb" stroke="#1467c8" stroke-width="0.9"/><circle cx="36" cy="70" r="1.62" fill="#1467c8"/><ellipse cx="62" cy="70" rx="11" ry="5.4" fill="#e8f0fb" stroke="#1467c8" stroke-width="0.9"/><circle cx="62" cy="70" r="1.62" fill="#1467c8"/><ellipse cx="88" cy="70" rx="11" ry="5.4" fill="#e8f0fb" stroke="#1467c8" stroke-width="0.9"/><circle cx="88" cy="70" r="1.62" fill="#1467c8"/><ellipse cx="114" cy="70" rx="11" ry="5.4" fill="#e8f0fb" stroke="#1467c8" stroke-width="0.9"/><circle cx="114" cy="70" r="1.62" fill="#1467c8"/><ellipse cx="140" cy="70" rx="11" ry="5.4" fill="#e8f0fb" stroke="#1467c8" stroke-width="0.9"/><circle cx="140" cy="70" r="1.62" fill="#1467c8"/><ellipse cx="166" cy="70" rx="11" ry="5.4" fill="#e8f0fb" stroke="#1467c8" stroke-width="0.9"/><circle cx="166" cy="70" r="1.62" fill="#1467c8"/><ellipse cx="192" cy="70" rx="11" ry="5.4" fill="#e8f0fb" stroke="#1467c8" stroke-width="0.9"/><circle cx="192" cy="70" r="1.62" fill="#1467c8"/><ellipse cx="218" cy="70" rx="11" ry="5.4" fill="#e8f0fb" stroke="#1467c8" stroke-width="0.9"/><circle cx="218" cy="70" r="1.62" fill="#1467c8"/><ellipse cx="10" cy="58" rx="11" ry="5.0" fill="#e8f0fb" stroke="#1467c8" stroke-width="0.9"/><circle cx="10" cy="58" r="1.5" fill="#1467c8"/><ellipse cx="36" cy="58" rx="11" ry="5.0" fill="#e8f0fb" stroke="#1467c8" stroke-width="0.9"/><circle cx="36" cy="58" r="1.5" fill="#1467c8"/><ellipse cx="62" cy="58" rx="11" ry="5.0" fill="#e8f0fb" stroke="#1467c8" stroke-width="0.9"/><circle cx="62" cy="58" r="1.5" fill="#1467c8"/><ellipse cx="88" cy="58" rx="11" ry="5.0" fill="#e8f0fb" stroke="#1467c8" stroke-width="0.9"/><circle cx="88" cy="58" r="1.5" fill="#1467c8"/><ellipse cx="114" cy="58" rx="11" ry="5.0" fill="#e8f0fb" stroke="#1467c8" stroke-width="0.9"/><circle cx="114" cy="58" r="1.5" fill="#1467c8"/><ellipse cx="140" cy="58" rx="11" ry="5.0" fill="#e8f0fb" stroke="#1467c8" stroke-width="0.9"/><circle cx="140" cy="58" r="1.5" fill="#1467c8"/><ellipse cx="166" cy="58" rx="11" ry="5.0" fill="#e8f0fb" stroke="#1467c8" stroke-width="0.9"/><circle cx="166" cy="58" r="1.5" fill="#1467c8"/><ellipse cx="192" cy="58" rx="11" ry="5.0" fill="#e8f0fb" stroke="#1467c8" stroke-width="0.9"/><circle cx="192" cy="58" r="1.5" fill="#1467c8"/><ellipse cx="218" cy="58" rx="11" ry="5.0" fill="#e8f0fb" stroke="#1467c8" stroke-width="0.9"/><circle cx="218" cy="58" r="1.5" fill="#1467c8"/><rect x="0" y="142" width="240" height="5" fill="#cfe2f7"/>
  <text x="120.0" y="152" font-family="sans-serif" font-size="9" fill="#1b2430" text-anchor="middle" opacity="0.55">Stratified squamous epithelium — 100x (wide field)</text>
</svg>