<svg xmlns="http://www.w3.org/2000/svg" viewBox="0 0 240 160" width="240" height="160">
  <rect width="240" height="160" fill="#f4f8fc"/>
  <ellipse cx="14" cy="120" rx="16" ry="14" fill="#e8f0fb" stroke="#1467c8" stroke-width="1.3"/><circle cx="14" cy="120" r="4.8999999999999995" fill="#1467c8"/><ellipse cx="50" cy="120" rx="16" ry="14" fill="#e8f0fb" stroke="#1467c8" stroke-width="1.3"/><circle cx="50" cy="120" r="4.8999999999999995" fill="#1467c8"/><ellipse cx="86" cy="120" rx="16" ry="14" fill="#e8f0fb" stroke="#1467c8" stroke-width="1.3"/><circle cx="86" cy="120" r="4.8999999999999995" fill="#1467c8"/><ellipse cx="122" cy="120" rx="16" ry="14" fill="#e8f0fb" stroke="#1467c8" stroke-width="1.3"/><circle cx="122" cy="120" r="4.8999999999999995" fill="#1467c8"/><ellipse cx="158" cy="120" rx="16" ry="14" fill="#e8f0fb" stroke="#1467c8" stroke-width="1.3"/><circle cx="158" cy="120" r="4.8999999999999995" fill="#1467c8"/><ellipse cx="194" cy="120" rx="16" ry="14" fill="#e8f0fb" stroke="#1467c8" stroke-width="1.3"/><circle cx="194" cy="120" r="4.8999999999999995" fill="#1467c8"/><ellipse cx="14" cy="95" rx="15" ry="11" fill="#e8f0fb" stroke="#1467c8" stroke-width="1.3"/><circle cx="14" cy="95" r="3.8499999999999996" fill="#1467c8"/><ellipse cx="50" cy="95" rx="15" ry="11" fill="#e8f0fb" stroke="#1467c8" stroke-width="1.3"/><circle cx="50" cy="95" r="3.8499999999999996" fill="#1467c8"/><ellipse cx="86" cy="95" rx="15" ry="11" fill="#e8f0fb" stroke="#1467c8" stroke-width="1.3"/><circle cx="86" cy="95" r="3.8499999999999996" fill="#1467c8"/><ellipse cx="122" cy="95" rx="15" ry="11" fill="#e8f0fb" stroke="#1467c8" stroke-width="1.3"/><circle cx="122" cy="95" r="3.8499999999999996" fill="#1467c8"/><ellipse cx="158" cy="95" rx="15" ry="11" fill="#e8f0fb" stroke="#1467c8" stroke-width="1.3"/><circle cx="158" cy="95" r="3.8499999999999996" fill="#1467c8"/><ellipse cx="194" cy="95" rx="15" ry="11" fill="#e8f0fb" stroke="#1467c8" stroke-width="1.3"/><circle cx="194" cy="95" r="3.8499999999999996" fill="#1467c8"/><ellipse cx="14" cy="72" rx="16" ry="9" fill="#e8f0fb" stroke="#1467c8" stroke-width="1.3"/><circle cx="14" cy="72" r="3.15" fill="#1467c8"/><ellipse cx="50" cy="72" rx="16" ry="9" fill="#e8f0fb" stroke="#1467c8" stroke-width="1.3"/><circle cx="50" cy="72" r="3.15" fill="#1467c8"/><ellipse cx="86" cy="72" rx="16" ry="9" fill="#e8f0fb" stroke="#1467c8" stroke-width="1.3"/><circle cx="86" cy="72" r="3.15" fill="#1467c8"/><ellipse cx="122" cy="72" rx="16" ry="9" fill="#e8f0fb" stroke="#1467c8" stroke-width="1.3"/><circle cx="122" cy="72" r="3.15" fill="#1467c8"/><ellipse cx="158" cy="72" rx="16" ry="9" fill="#e8f0fb" stroke="#1467c8" stroke-width="1.3"/><circle cx="158" cy="72" r="3.15" fill="#1467c8"/><ellipse cx="194" cy="72" rx="16" ry="9" fill="#e8f0fb" stroke="#1467c8" stroke-width="1.3"/><circle cx="194" cy="72" r="3.15" fill="#1467c8"/><ellipse cx="14" cy="52" rx="17" ry="6" fill="#e8f0fb" stroke="#1467c8" stroke-width="1.3"/><circle cx="14" cy="52" r="2.0999999999999996" fill="#1467c8"/><ellipse cx="50" cy="52" rx="17" ry="6" fill="#e8f0fb" stroke="#1467c8" stroke-width="1.3"/><circle cx="50" cy="52" r="2.0999999999999996" fill="#1467c8"/><ellipse cx="86" cy="52" rx="17" ry="6" fill="#e8f0fb" stroke="#1467c8" stroke-width="1.3"/><circle cx="86" cy="52" r="2.0999999999999996" fill="#1467c8"/><ellipse cx="122" cy="52" rx="17" ry="6" fill="#e8f0fb" stroke="#1467c8" stroke-width="1.3"/><circle cx="122" cy="52" r="2.0999999999999996" fill="#1467c8"/><ellipse cx="158" cy="52" rx="17" ry="6" fill="#e8f0fb" stroke="#1467c8" stroke-width="1.3"/><circle cx="158" cy="52" r="2.0999999999999996" fill="#1467c8"/><ellipse cx="194" cy="52" rx="17" ry="6" fill="#e8f0fb" stroke="#1467c8" stroke-width="1.3"/><circle cx="194" cy="52" r="2.0999999999999996" fill="#1467c8"/><rect x="0" y="134" width="240" height="6" fill="#cfe2f7"/>
  <text x="120.0" y="152" font-family="sans-serif" font-size="9" fill="#1b2430" text-anchor="middle" opacity="0.55">Stratified squamous epithelium (schematic)</text>
</svg>