<svg xmlns="http://www.w3.org/2000/svg" viewBox="0 0 240 160" width="240" height="160">
  <rect width="240" height="160" fill="#f4f8fc"/>
  <ellipse cx="14" cy="130" rx="16" ry="13" fill="#e8f0fb" stroke="#1467c8" stroke-width="1.1"/><circle cx="14" cy="130" r="3.9" fill="#1467c8"/><ellipse cx="50" cy="130" rx="16" ry="13" fill="#e8f0fb" stroke="#1467c8" stroke-width="1.1"/><circle cx="50" cy="130" r="3.9" fill="#1467c8"/><ellipse cx="86" cy="130" rx="16" ry="13" fill="#e8f0fb" stroke="#1467c8" stroke-width="1.1"/><circle cx="86" cy="130" r="3.9" fill="#1467c8"/><ellipse cx="122" cy="130" rx="16" ry="13" fill="#e8f0fb" stroke="#1467c8" stroke-width="1.1"/><circle cx="122" cy="130" r="3.9" fill="#1467c8"/><ellipse cx="158" cy="130" rx="16" ry="13" fill="#e8f0fb" stroke="#1467c8" stroke-width="1.1"/><circle cx="158" cy="130" r="3.9" fill="#1467c8"/><ellipse cx="194" cy="130" rx="16" ry="13" fill="#e8f0fb" stroke="#1467c8" stroke-width="1.1"/><circle cx="194" cy="130" r="3.9" fill="#1467c8"/><ellipse cx="14" cy="108" rx="15" ry="10" fill="#e8f0fb" stroke="#1467c8" stroke-width="1.1"/><circle cx="14" cy="108" r="3.0" fill="#1467c8"/><ellipse cx="50" cy="108" rx="15" ry="10" fill="#e8f0fb" stroke="#1467c8" stroke-width="1.1"/><circle cx="50" cy="108" r="3.0" fill="#1467c8"/><ellipse cx="86" cy="108" rx="15" ry="10" fill="#e8f0fb" stroke="#1467c8" stroke-width="1.1"/><circle cx="86" cy="108" r="3.0" fill="#1467c8"/><ellipse cx="122" cy="108" rx="15" ry="10" fill="#e8f0fb" stroke="#1467c8" stroke-width="1.1"/><circle cx="122" cy="108" r="3.0" fill="#1467c8"/><ellipse cx="158" cy="108" rx="15" ry="10" fill="#e8f0fb" stroke="#1467c8" stroke-width="1.1"/><circle cx="158" cy="108" r="3.0" fill="#1467c8"/><ellipse cx="194" cy="108" rx="15" ry="10" fill="#e8f0fb" stroke="#1467c8" stroke-width="1.1"/><circle cx="194" cy="108" r="3.0" fill="#1467c8"/><ellipse cx="14" cy="86" rx="16" ry="8" fill="#e8f0fb" stroke="#1467c8" stroke-width="1.1"/><circle cx="14" cy="86" r="2.4" fill="#1467c8"/><ellipse cx="50" cy="86" rx="16" ry="8" fill="#e8f0fb" stroke="#1467c8" stroke-width="1.1"/><circle cx="50" cy="86" r="2.4" fill="#1467c8"/><ellipse cx="86" cy="86" rx="16" ry="8" fill="#e8f0fb" stroke="#1467c8" stroke-width="1.1"/><circle cx="86" cy="86" r="2.4" fill="#1467c8"/><ellipse cx="122" cy="86" rx="16" ry="8" fill="#e8f0fb" stroke="#1467c8" stroke-width="1.1"/><circle cx="122" cy="86" r="2.4" fill="#1467c8"/><ellipse cx="158" cy="86" rx="16" ry="8" fill="#e8f0fb" stroke="#1467c8" stroke-width="1.1"/><circle cx="158" cy="86" r="2.4" fill="#1467c8"/><ellipse cx="194" cy="86" rx="16" ry="8" fill="#e8f0fb" stroke="#1467c8" stroke-width="1.1"/><circle cx="194" cy="86" r="2.4" fill="#1467c8"/><ellipse cx="14" cy="64" rx="17" ry="6" fill="#e8f0fb" stroke="#1467c8" stroke-width="1.1"/><circle cx="14" cy="64" r="2" fill="#1467c8"/><ellipse cx="50" cy="64" rx="17" ry="6" fill="#e8f0fb" stroke="#1467c8" stroke-width="1.1"/><circle cx="50" cy="64" r="2" fill="#1467c8"/><ellipse cx="86" cy="64" rx="17" ry="6" fill="#e8f0fb" stroke="#1467c8" stroke-width="1.1"/><circle cx="86" cy="64" r="2" fill="#1467c8"/><ellipse cx="122" cy="64" rx="17" ry="6" fill="#e8f0fb" stroke="#1467c8" stroke-width="1.1"/><circle cx="122" cy="64" r="2" fill="#1467c8"/><ellipse cx="158" cy="64" rx="17" ry="6" fill="#e8f0fb" stroke="#1467c8" stroke-width="1.1"/><circle cx="158" cy="64" r="2" fill="#1467c8"/><ellipse cx="194" cy="64" rx="17" ry="6" fill="#e8f0fb" stroke="#1467c8" stroke-width="1.1"/><circle cx="194" cy="64" r="2" fill="#1467c8"/><rect x="0" y="30" width="240" height="14" fill="#f3c9c9" stroke="#c0392b" stroke-width="1"/>
  <text x="120.0" y="152" font-family="sans-serif" font-size="8.5" fill="#1b2430" text-anchor="middle" opacity="0.55">Keratinized stratified squamous epithelium</text>
</svg>