<svg xmlns="http://www.w3.org/2000/svg" viewBox="0 0 240 160" width="240" height="160">
  <rect width="240" height="160" fill="#f4f8fc"/>
  <ellipse cx="10" cy="136" rx="11" ry="7.0" fill="#e8f0fb" stroke="#1467c8" stroke-width="0.8"/><ellipse cx="36" cy="136" rx="11" ry="7.0" fill="#e8f0fb" stroke="#1467c8" stroke-width="0.8"/><ellipse cx="62" cy="136" rx="11" ry="7.0" fill="#e8f0fb" stroke="#1467c8" stroke-width="0.8"/><ellipse cx="88" cy="136" rx="11" ry="7.0" fill="#e8f0fb" stroke="#1467c8" stroke-width="0.8"/><ellipse cx="114" cy="136" rx="11" ry="7.0" fill="#e8f0fb" stroke="#1467c8" stroke-width="0.8"/><ellipse cx="140" cy="136" rx="11" ry="7.0" fill="#e8f0fb" stroke="#1467c8" stroke-width="0.8"/><ellipse cx="166" cy="136" rx="11" ry="7.0" fill="#e8f0fb" stroke="#1467c8" stroke-width="0.8"/><ellipse cx="192" cy="136" rx="11" ry="7.0" fill="#e8f0fb" stroke="#1467c8" stroke-width="0.8"/><ellipse cx="218" cy="136" rx="11" ry="7.0" fill="#e8f0fb" stroke="#1467c8" stroke-width="0.8"/><ellipse cx="10" cy="116" rx="11" ry="6.4" fill="#e8f0fb" stroke="#1467c8" stroke-width="0.8"/><ellipse cx="36" cy="116" rx="11" ry="6.4" fill="#e8f0fb" stroke="#1467c8" stroke-width="0.8"/><ellipse cx="62" cy="116" rx="11" ry="6.4" fill="#e8f0fb" stroke="#1467c8" stroke-width="0.8"/><ellipse cx="88" cy="116" rx="11" ry="6.4" fill="#e8f0fb" stroke="#1467c8" stroke-width="0.8"/><ellipse cx="114" cy="116" rx="11" ry="6.4" fill="#e8f0fb" stroke="#1467c8" stroke-width="0.8"/><ellipse cx="140" cy="116" rx="11" ry="6.4" fill="#e8f0fb" stroke="#1467c8" stroke-width="0.8"/><ellipse cx="166" cy="116" rx="11" ry="6.4" fill="#e8f0fb" stroke="#1467c8" stroke-width="0.8"/><ellipse cx="192" cy="116" rx="11" ry="6.4" fill="#e8f0fb" stroke="#1467c8" stroke-width="0.8"/><ellipse cx="218" cy="116" rx="11" ry="6.4" fill="#e8f0fb" stroke="#1467c8" stroke-width="0.8"/><ellipse cx="10" cy="96" rx="11" ry="5.8" fill="#e8f0fb" stroke="#1467c8" stroke-width="0.8"/><ellipse cx="36" cy="96" rx="11" ry="5.8" fill="#e8f0fb" stroke="#1467c8" stroke-width="0.8"/><ellipse cx="62" cy="96" rx="11" ry="5.8" fill="#e8f0fb" stroke="#1467c8" stroke-width="0.8"/><ellipse cx="88" cy="96" rx="11" ry="5.8" fill="#e8f0fb" stroke="#1467c8" stroke-width="0.8"/><ellipse cx="114" cy="96" rx="11" ry="5.8" fill="#e8f0fb" stroke="#1467c8" stroke-width="0.8"/><ellipse cx="140" cy="96" rx="11" ry="5.8" fill="#e8f0fb" stroke="#1467c8" stroke-width="0.8"/><ellipse cx="166" cy="96" rx="11" ry="5.8" fill="#e8f0fb" stroke="#1467c8" stroke-width="0.8"/><ellipse cx="192" cy="96" rx="11" ry="5.8" fill="#e8f0fb" stroke="#1467c8" stroke-width="0.8"/><ellipse cx="218" cy="96" rx="11" ry="5.8" fill="#e8f0fb" stroke="#1467c8" stroke-width="0.8"/><ellipse cx="10" cy="76" rx="11" ry="5.2" fill="#e8f0fb" stroke="#1467c8" stroke-width="0.8"/><ellipse cx="36" cy="76" rx="11" ry="5.2" fill="#e8f0fb" stroke="#1467c8" stroke-width="0.8"/><ellipse cx="62" cy="76" rx="11" ry="5.2" fill="#e8f0fb" stroke="#1467c8" stroke-width="0.8"/><ellipse cx="88" cy="76" rx="11" ry="5.2" fill="#e8f0fb" stroke="#1467c8" stroke-width="0.8"/><ellipse cx="114" cy="76" rx="11" ry="5.2" fill="#e8f0fb" stroke="#1467c8" stroke-width="0.8"/><ellipse cx="140" cy="76" rx="11" ry="5.2" fill="#e8f0fb" stroke="#1467c8" stroke-width="0.8"/><ellipse cx="166" cy="76" rx="11" ry="5.2" fill="#e8f0fb" stroke="#1467c8" stroke-width="0.8"/><ellipse cx="192" cy="76" rx="11" ry="5.2" fill="#e8f0fb" stroke="#1467c8" stroke-width="0.8"/><ellipse cx="218" cy="76" rx="11" ry="5.2" fill="#e8f0fb" stroke="#1467c8" stroke-width="0.8"/><ellipse cx="10" cy="58" rx="11" ry="4.6" fill="#e8f0fb" stroke="#1467c8" stroke-width="0.8"/><ellipse cx="36" cy="58" rx="11" ry="4.6" fill="#e8f0fb" stroke="#1467c8" stroke-width="0.8"/><ellipse cx="62" cy="58" rx="11" ry="4.6" fill="#e8f0fb" stroke="#1467c8" stroke-width="0.8"/><ellipse cx="88" cy="58" rx="11" ry="4.6" fill="#e8f0fb" stroke="#1467c8" stroke-width="0.8"/><ellipse cx="114" cy="58" rx="11" ry="4.6" fill="#e8f0fb" stroke="#1467c8" stroke-width="0.8"/><ellipse cx="140" cy="58" rx="11" ry="4.6" fill="#e8f0fb" stroke="#1467c8" stroke-width="0.8"/><ellipse cx="166" cy="58" rx="11" ry="4.6" fill="#e8f0fb" stroke="#1467c8" stroke-width="0.8"/><ellipse cx="192" cy="58" rx="11" ry="4.6" fill="#e8f0fb" stroke="#1467c8" stroke-width="0.8"/><ellipse cx="218" cy="58" rx="11" ry="4.6" fill="#e8f0fb" stroke="#1467c8" stroke-width="0.8"/><rect x="0" y="20" width="240" height="10" fill="#f3c9c9" stroke="#c0392b" stroke-width="0.8"/>
  <text x="120.0" y="152" font-family="sans-serif" font-size="8.5" fill="#1b2430" text-anchor="middle" opacity="0.55">Keratinized stratified squamous — 100x</text>
</svg>