<svg xmlns="http://www.w3.org/2000/svg" viewBox="0 0 240 160" width="240" height="160">
  <rect width="240" height="160" fill="#f4f8fc"/>
  <ellipse cx="20" cy="125" rx="16" ry="11" fill="#e8f0fb" stroke="#1467c8" stroke-width="1.1"/><circle cx="20" cy="125" r="4" fill="#1467c8"/><ellipse cx="60" cy="125" rx="16" ry="11" fill="#e8f0fb" stroke="#1467c8" stroke-width="1.1"/><circle cx="60" cy="125" r="4" fill="#1467c8"/><ellipse cx="100" cy="125" rx="16" ry="11" fill="#e8f0fb" stroke="#1467c8" stroke-width="1.1"/><circle cx="100" cy="125" r="4" fill="#1467c8"/><ellipse cx="140" cy="125" rx="16" ry="11" fill="#e8f0fb" stroke="#1467c8" stroke-width="1.1"/><circle cx="140" cy="125" r="4" fill="#1467c8"/><ellipse cx="180" cy="125" rx="16" ry="11" fill="#e8f0fb" stroke="#1467c8" stroke-width="1.1"/><circle cx="180" cy="125" r="4" fill="#1467c8"/><ellipse cx="220" cy="125" rx="16" ry="11" fill="#e8f0fb" stroke="#1467c8" stroke-width="1.1"/><circle cx="220" cy="125" r="4" fill="#1467c8"/><ellipse cx="24" cy="100" rx="16" ry="11" fill="#e8f0fb" stroke="#1467c8" stroke-width="1.1"/><circle cx="24" cy="100" r="4" fill="#1467c8"/><ellipse cx="72" cy="100" rx="16" ry="11" fill="#e8f0fb" stroke="#1467c8" stroke-width="1.1"/><circle cx="72" cy="100" r="4" fill="#1467c8"/><ellipse cx="120" cy="100" rx="16" ry="11" fill="#e8f0fb" stroke="#1467c8" stroke-width="1.1"/><circle cx="120" cy="100" r="4" fill="#1467c8"/><ellipse cx="168" cy="100" rx="16" ry="11" fill="#e8f0fb" stroke="#1467c8" stroke-width="1.1"/><circle cx="168" cy="100" r="4" fill="#1467c8"/><ellipse cx="216" cy="100" rx="16" ry="11" fill="#e8f0fb" stroke="#1467c8" stroke-width="1.1"/><circle cx="216" cy="100" r="4" fill="#1467c8"/><path d="M14.0 83 Q14.0 63 30.0 61 Q46.0 63 46.0 83 Z" fill="#e8f0fb" stroke="#1467c8" stroke-width="1.2"/><circle cx="30" cy="73" r="4" fill="#1467c8"/><path d="M74.0 83 Q74.0 63 90.0 61 Q106.0 63 106.0 83 Z" fill="#e8f0fb" stroke="#1467c8" stroke-width="1.2"/><circle cx="90" cy="73" r="4" fill="#1467c8"/><path d="M134.0 83 Q134.0 63 150.0 61 Q166.0 63 166.0 83 Z" fill="#e8f0fb" stroke="#1467c8" stroke-width="1.2"/><circle cx="150" cy="73" r="4" fill="#1467c8"/><path d="M194.0 83 Q194.0 63 210.0 61 Q226.0 63 226.0 83 Z" fill="#e8f0fb" stroke="#1467c8" stroke-width="1.2"/><circle cx="210" cy="73" r="4" fill="#1467c8"/>
  <text x="120.0" y="152" font-family="sans-serif" font-size="8.5" fill="#1b2430" text-anchor="middle" opacity="0.55">Transitional epithelium — dome-shaped umbrella cells</text>
</svg>