<svg xmlns="http://www.w3.org/2000/svg" viewBox="0 0 240 160" width="240" height="160">
  <rect width="240" height="160" fill="#f4f8fc"/>
  <ellipse cx="15" cy="135" rx="11" ry="8" fill="#e8f0fb" stroke="#1467c8" stroke-width="0.9"/><circle cx="15" cy="135" r="2.6" fill="#1467c8"/><ellipse cx="45" cy="135" rx="11" ry="8" fill="#e8f0fb" stroke="#1467c8" stroke-width="0.9"/><circle cx="45" cy="135" r="2.6" fill="#1467c8"/><ellipse cx="75" cy="135" rx="11" ry="8" fill="#e8f0fb" stroke="#1467c8" stroke-width="0.9"/><circle cx="75" cy="135" r="2.6" fill="#1467c8"/><ellipse cx="105" cy="135" rx="11" ry="8" fill="#e8f0fb" stroke="#1467c8" stroke-width="0.9"/><circle cx="105" cy="135" r="2.6" fill="#1467c8"/><ellipse cx="135" cy="135" rx="11" ry="8" fill="#e8f0fb" stroke="#1467c8" stroke-width="0.9"/><circle cx="135" cy="135" r="2.6" fill="#1467c8"/><ellipse cx="165" cy="135" rx="11" ry="8" fill="#e8f0fb" stroke="#1467c8" stroke-width="0.9"/><circle cx="165" cy="135" r="2.6" fill="#1467c8"/><ellipse cx="195" cy="135" rx="11" ry="8" fill="#e8f0fb" stroke="#1467c8" stroke-width="0.9"/><circle cx="195" cy="135" r="2.6" fill="#1467c8"/><ellipse cx="225" cy="135" rx="11" ry="8" fill="#e8f0fb" stroke="#1467c8" stroke-width="0.9"/><circle cx="225" cy="135" r="2.6" fill="#1467c8"/><ellipse cx="17" cy="115" rx="11" ry="8" fill="#e8f0fb" stroke="#1467c8" stroke-width="0.9"/><circle cx="17" cy="115" r="2.6" fill="#1467c8"/><ellipse cx="51" cy="115" rx="11" ry="8" fill="#e8f0fb" stroke="#1467c8" stroke-width="0.9"/><circle cx="51" cy="115" r="2.6" fill="#1467c8"/><ellipse cx="86" cy="115" rx="11" ry="8" fill="#e8f0fb" stroke="#1467c8" stroke-width="0.9"/><circle cx="86" cy="115" r="2.6" fill="#1467c8"/><ellipse cx="120" cy="115" rx="11" ry="8" fill="#e8f0fb" stroke="#1467c8" stroke-width="0.9"/><circle cx="120" cy="115" r="2.6" fill="#1467c8"/><ellipse cx="154" cy="115" rx="11" ry="8" fill="#e8f0fb" stroke="#1467c8" stroke-width="0.9"/><circle cx="154" cy="115" r="2.6" fill="#1467c8"/><ellipse cx="189" cy="115" rx="11" ry="8" fill="#e8f0fb" stroke="#1467c8" stroke-width="0.9"/><circle cx="189" cy="115" r="2.6" fill="#1467c8"/><ellipse cx="223" cy="115" rx="11" ry="8" fill="#e8f0fb" stroke="#1467c8" stroke-width="0.9"/><circle cx="223" cy="115" r="2.6" fill="#1467c8"/><ellipse cx="20" cy="95" rx="11" ry="8" fill="#e8f0fb" stroke="#1467c8" stroke-width="0.9"/><circle cx="20" cy="95" r="2.6" fill="#1467c8"/><ellipse cx="60" cy="95" rx="11" ry="8" fill="#e8f0fb" stroke="#1467c8" stroke-width="0.9"/><circle cx="60" cy="95" r="2.6" fill="#1467c8"/><ellipse cx="100" cy="95" rx="11" ry="8" fill="#e8f0fb" stroke="#1467c8" stroke-width="0.9"/><circle cx="100" cy="95" r="2.6" fill="#1467c8"/><ellipse cx="140" cy="95" rx="11" ry="8" fill="#e8f0fb" stroke="#1467c8" stroke-width="0.9"/><circle cx="140" cy="95" r="2.6" fill="#1467c8"/><ellipse cx="180" cy="95" rx="11" ry="8" fill="#e8f0fb" stroke="#1467c8" stroke-width="0.9"/><circle cx="180" cy="95" r="2.6" fill="#1467c8"/><ellipse cx="220" cy="95" rx="11" ry="8" fill="#e8f0fb" stroke="#1467c8" stroke-width="0.9"/><circle cx="220" cy="95" r="2.6" fill="#1467c8"/><ellipse cx="24" cy="75" rx="11" ry="8" fill="#e8f0fb" stroke="#1467c8" stroke-width="0.9"/><circle cx="24" cy="75" r="2.6" fill="#1467c8"/><ellipse cx="72" cy="75" rx="11" ry="8" fill="#e8f0fb" stroke="#1467c8" stroke-width="0.9"/><circle cx="72" cy="75" r="2.6" fill="#1467c8"/><ellipse cx="120" cy="75" rx="11" ry="8" fill="#e8f0fb" stroke="#1467c8" stroke-width="0.9"/><circle cx="120" cy="75" r="2.6" fill="#1467c8"/><ellipse cx="168" cy="75" rx="11" ry="8" fill="#e8f0fb" stroke="#1467c8" stroke-width="0.9"/><circle cx="168" cy="75" r="2.6" fill="#1467c8"/><ellipse cx="216" cy="75" rx="11" ry="8" fill="#e8f0fb" stroke="#1467c8" stroke-width="0.9"/><circle cx="216" cy="75" r="2.6" fill="#1467c8"/>
  <text x="120.0" y="152" font-family="sans-serif" font-size="8.5" fill="#1b2430" text-anchor="middle" opacity="0.55">Transitional epithelium — 100x</text>
</svg>