<svg xmlns="http://www.w3.org/2000/svg" viewBox="0 0 240 160" width="240" height="160">
  <rect width="240" height="160" fill="#f8f5fc"/>
  <rect x="40" y="35" width="160" height="90" fill="#F1ECFA" stroke="#7C4DBC" stroke-width="1"/>
  <circle cx="73.1" cy="106.6" r="2.2" fill="#5B3A8C" opacity="0.7"/><circle cx="138.9" cy="77.1" r="2.2" fill="#5B3A8C" opacity="0.7"/><circle cx="80.2" cy="121.0" r="2.2" fill="#5B3A8C" opacity="0.7"/><circle cx="163.1" cy="81.7" r="2.2" fill="#5B3A8C" opacity="0.7"/><circle cx="120.7" cy="43.0" r="2.2" fill="#5B3A8C" opacity="0.7"/><circle cx="50.4" cy="61.9" r="2.2" fill="#5B3A8C" opacity="0.7"/><circle cx="132.0" cy="19.7" r="2.2" fill="#5B3A8C" opacity="0.7"/><circle cx="161.1" cy="42.5" r="2.2" fill="#5B3A8C" opacity="0.7"/><circle cx="82.6" cy="15.9" r="2.2" fill="#5B3A8C" opacity="0.7"/><circle cx="189.7" cy="113.4" r="2.2" fill="#5B3A8C" opacity="0.7"/><circle cx="172.5" cy="96.2" r="2.2" fill="#5B3A8C" opacity="0.7"/><circle cx="54.8" cy="56.1" r="2.2" fill="#5B3A8C" opacity="0.7"/><circle cx="119.7" cy="26.2" r="2.2" fill="#5B3A8C" opacity="0.7"/><circle cx="183.3" cy="61.6" r="2.2" fill="#5B3A8C" opacity="0.7"/><circle cx="71.7" cy="124.5" r="2.2" fill="#5B3A8C" opacity="0.7"/><circle cx="67.5" cy="139.9" r="2.2" fill="#5B3A8C" opacity="0.7"/><circle cx="113.4" cy="87.3" r="2.2" fill="#5B3A8C" opacity="0.7"/><circle cx="98.0" cy="77.9" r="2.2" fill="#5B3A8C" opacity="0.7"/><circle cx="76.2" cy="15.2" r="2.2" fill="#5B3A8C" opacity="0.7"/><circle cx="171.2" cy="42.9" r="2.2" fill="#5B3A8C" opacity="0.7"/><circle cx="159.2" cy="39.2" r="2.2" fill="#5B3A8C" opacity="0.7"/><circle cx="185.6" cy="135.2" r="2.2" fill="#5B3A8C" opacity="0.7"/><circle cx="155.7" cy="116.8" r="2.2" fill="#5B3A8C" opacity="0.7"/><circle cx="131.3" cy="112.2" r="2.2" fill="#5B3A8C" opacity="0.7"/><circle cx="67.1" cy="76.7" r="2.2" fill="#5B3A8C" opacity="0.7"/><circle cx="165.8" cy="38.2" r="2.2" fill="#5B3A8C" opacity="0.7"/><circle cx="179.2" cy="134.3" r="2.2" fill="#5B3A8C" opacity="0.7"/><circle cx="107.3" cy="61.1" r="2.2" fill="#5B3A8C" opacity="0.7"/><circle cx="113.2" cy="64.0" r="2.2" fill="#5B3A8C" opacity="0.7"/><circle cx="189.3" cy="64.1" r="2.2" fill="#5B3A8C" opacity="0.7"/><circle cx="53.8" cy="23.1" r="2.2" fill="#5B3A8C" opacity="0.7"/><circle cx="150.5" cy="149.0" r="2.2" fill="#5B3A8C" opacity="0.7"/><circle cx="119.4" cy="78.8" r="2.2" fill="#5B3A8C" opacity="0.7"/><circle cx="127.1" cy="114.7" r="2.2" fill="#5B3A8C" opacity="0.7"/><circle cx="81.1" cy="95.2" r="2.2" fill="#5B3A8C" opacity="0.7"/><circle cx="127.9" cy="97.2" r="2.2" fill="#5B3A8C" opacity="0.7"/><circle cx="75.3" cy="33.8" r="2.2" fill="#5B3A8C" opacity="0.7"/><circle cx="98.7" cy="139.8" r="2.2" fill="#5B3A8C" opacity="0.7"/><circle cx="98.5" cy="93.6" r="2.2" fill="#5B3A8C" opacity="0.7"/><circle cx="92.9" cy="24.5" r="2.2" fill="#5B3A8C" opacity="0.7"/><circle cx="59.2" cy="123.9" r="2.2" fill="#5B3A8C" opacity="0.7"/><circle cx="158.8" cy="62.5" r="2.2" fill="#5B3A8C" opacity="0.7"/><circle cx="145.7" cy="104.6" r="2.2" fill="#5B3A8C" opacity="0.7"/><circle cx="175.8" cy="144.2" r="2.2" fill="#5B3A8C" opacity="0.7"/><circle cx="107.0" cy="148.5" r="2.2" fill="#5B3A8C" opacity="0.7"/><circle cx="184.6" cy="92.7" r="2.2" fill="#5B3A8C" opacity="0.7"/><circle cx="173.6" cy="78.7" r="2.2" fill="#5B3A8C" opacity="0.7"/><circle cx="102.6" cy="44.6" r="2.2" fill="#5B3A8C" opacity="0.7"/><circle cx="172.7" cy="32.7" r="2.2" fill="#5B3A8C" opacity="0.7"/><circle cx="59.7" cy="122.7" r="2.2" fill="#5B3A8C" opacity="0.7"/><circle cx="158.3" cy="77.6" r="2.2" fill="#5B3A8C" opacity="0.7"/><circle cx="167.2" cy="17.3" r="2.2" fill="#5B3A8C" opacity="0.7"/><circle cx="86.1" cy="50.6" r="2.2" fill="#5B3A8C" opacity="0.7"/><circle cx="108.7" cy="33.9" r="2.2" fill="#5B3A8C" opacity="0.7"/><circle cx="59.7" cy="57.3" r="2.2" fill="#5B3A8C" opacity="0.7"/><circle cx="175.9" cy="147.7" r="2.2" fill="#5B3A8C" opacity="0.7"/><circle cx="154.4" cy="77.1" r="2.2" fill="#5B3A8C" opacity="0.7"/><circle cx="85.3" cy="144.2" r="2.2" fill="#5B3A8C" opacity="0.7"/><circle cx="123.6" cy="112.0" r="2.2" fill="#5B3A8C" opacity="0.7"/><circle cx="54.0" cy="39.7" r="2.2" fill="#5B3A8C" opacity="0.7"/>
  <text x="120" y="138" font-size="7" fill="#7C4DBC" text-anchor="middle">marrow replaced by immature blasts (AML/ALL)</text>
  <text x="120.0" y="152" font-family="sans-serif" font-size="7.5" fill="#1b2430" text-anchor="middle" opacity="0.55">Acute leukemia — diffuse marrow infiltration by immature blasts</text>
</svg>