<svg xmlns="http://www.w3.org/2000/svg" viewBox="0 0 240 160" width="240" height="160">
  <rect width="240" height="160" fill="#f8f5fc"/>
  <rect x="10" y="20" width="34" height="110" rx="14" fill="#F1ECFA" stroke="#7C4DBC" stroke-width="1.4"/><ellipse cx="27" cy="106" rx="10" ry="4" fill="#D9C49A" opacity="0.8"/><ellipse cx="27" cy="98" rx="10" ry="4" fill="#D9C49A" opacity="0.8"/><ellipse cx="27" cy="68" rx="10" ry="4" fill="#D9C49A" opacity="0.8"/><ellipse cx="27" cy="53" rx="10" ry="4" fill="#D9C49A" opacity="0.8"/><ellipse cx="27" cy="76" rx="10" ry="4" fill="#D9C49A" opacity="0.8"/><rect x="56" y="20" width="34" height="110" rx="14" fill="#F1ECFA" stroke="#7C4DBC" stroke-width="1.4"/><ellipse cx="73" cy="42" rx="10" ry="4" fill="#D9C49A" opacity="0.8"/><ellipse cx="73" cy="106" rx="10" ry="4" fill="#D9C49A" opacity="0.8"/><ellipse cx="73" cy="99" rx="10" ry="4" fill="#D9C49A" opacity="0.8"/><ellipse cx="73" cy="53" rx="10" ry="4" fill="#D9C49A" opacity="0.8"/><ellipse cx="73" cy="75" rx="10" ry="4" fill="#D9C49A" opacity="0.8"/><rect x="102" y="20" width="34" height="110" rx="14" fill="#F1ECFA" stroke="#7C4DBC" stroke-width="1.4"/><ellipse cx="119" cy="116" rx="10" ry="4" fill="#D9C49A" opacity="0.8"/><ellipse cx="119" cy="115" rx="10" ry="4" fill="#D9C49A" opacity="0.8"/><ellipse cx="119" cy="35" rx="10" ry="4" fill="#D9C49A" opacity="0.8"/><ellipse cx="119" cy="38" rx="10" ry="4" fill="#D9C49A" opacity="0.8"/><ellipse cx="119" cy="105" rx="10" ry="4" fill="#D9C49A" opacity="0.8"/><rect x="148" y="20" width="34" height="110" rx="14" fill="#F1ECFA" stroke="#7C4DBC" stroke-width="1.4"/><ellipse cx="165" cy="51" rx="10" ry="4" fill="#D9C49A" opacity="0.8"/><ellipse cx="165" cy="79" rx="10" ry="4" fill="#D9C49A" opacity="0.8"/><ellipse cx="165" cy="63" rx="10" ry="4" fill="#D9C49A" opacity="0.8"/><ellipse cx="165" cy="84" rx="10" ry="4" fill="#D9C49A" opacity="0.8"/><ellipse cx="165" cy="86" rx="10" ry="4" fill="#D9C49A" opacity="0.8"/><rect x="194" y="20" width="34" height="110" rx="14" fill="#F1ECFA" stroke="#7C4DBC" stroke-width="1.4"/><ellipse cx="211" cy="51" rx="10" ry="4" fill="#D9C49A" opacity="0.8"/><ellipse cx="211" cy="39" rx="10" ry="4" fill="#D9C49A" opacity="0.8"/><ellipse cx="211" cy="66" rx="10" ry="4" fill="#D9C49A" opacity="0.8"/><ellipse cx="211" cy="44" rx="10" ry="4" fill="#D9C49A" opacity="0.8"/><ellipse cx="211" cy="36" rx="10" ry="4" fill="#D9C49A" opacity="0.8"/>
  <text x="120.0" y="152" font-family="sans-serif" font-size="7.5" fill="#1b2430" text-anchor="middle" opacity="0.55">ATN — sloughed epithelium, casts in tubule lumen</text>
</svg>