<svg xmlns="http://www.w3.org/2000/svg" viewBox="0 0 240 160" width="240" height="160">
  <rect width="240" height="160" fill="#f8f5fc"/>
  <rect x="8" y="8" width="224" height="136" rx="12" fill="#F1ECFA" stroke="#7C4DBC" stroke-width="2"/><circle cx="153.1" cy="35.5" r="12.2" fill="#E4D9F5" stroke="#7C4DBC" stroke-width="1.1"/><circle cx="153.1" cy="35.5" r="4.3" fill="#7C4DBC"/><circle cx="109.6" cy="57.6" r="8.7" fill="#E4D9F5" stroke="#7C4DBC" stroke-width="1.1"/><circle cx="109.6" cy="57.6" r="3.0" fill="#7C4DBC"/><circle cx="119.9" cy="58.9" r="9.1" fill="#E4D9F5" stroke="#7C4DBC" stroke-width="1.1"/><circle cx="119.9" cy="58.9" r="3.2" fill="#7C4DBC"/><circle cx="60.5" cy="70.9" r="12.5" fill="#E4D9F5" stroke="#7C4DBC" stroke-width="1.1"/><circle cx="60.5" cy="70.9" r="4.4" fill="#7C4DBC"/><circle cx="124.3" cy="94.8" r="12.5" fill="#E4D9F5" stroke="#7C4DBC" stroke-width="1.1"/><circle cx="124.3" cy="94.8" r="4.4" fill="#7C4DBC"/><circle cx="184.1" cy="90.3" r="12.0" fill="#E4D9F5" stroke="#7C4DBC" stroke-width="1.1"/><circle cx="184.1" cy="90.3" r="4.2" fill="#7C4DBC"/><circle cx="115.8" cy="65.4" r="11.0" fill="#E4D9F5" stroke="#7C4DBC" stroke-width="1.1"/><circle cx="115.8" cy="65.4" r="3.8" fill="#7C4DBC"/><circle cx="86.7" cy="95.2" r="9.6" fill="#E4D9F5" stroke="#7C4DBC" stroke-width="1.1"/><circle cx="86.7" cy="95.2" r="3.4" fill="#7C4DBC"/><circle cx="149.0" cy="56.7" r="9.0" fill="#E4D9F5" stroke="#7C4DBC" stroke-width="1.1"/><circle cx="149.0" cy="56.7" r="3.2" fill="#7C4DBC"/>
  <text x="120.0" y="152" font-family="sans-serif" font-size="8.5" fill="#1b2430" text-anchor="middle" opacity="0.55">Acute Tubular Necrosis (schematic placeholder)</text>
</svg>