<svg xmlns="http://www.w3.org/2000/svg" viewBox="0 0 240 160" width="240" height="160">
  <rect width="240" height="160" fill="#f8f5fc"/>
  <circle cx="169" cy="38" r="16" fill="#D9C49A" opacity="0.5" stroke="#7C4DBC" stroke-width="1"/><circle cx="61" cy="84" r="16" fill="#D9C49A" opacity="0.5" stroke="#7C4DBC" stroke-width="1"/><circle cx="31" cy="104" r="16" fill="#D9C49A" opacity="0.5" stroke="#7C4DBC" stroke-width="1"/><circle cx="173" cy="20" r="16" fill="#D9C49A" opacity="0.5" stroke="#7C4DBC" stroke-width="1"/><circle cx="157" cy="73" r="16" fill="#D9C49A" opacity="0.5" stroke="#7C4DBC" stroke-width="1"/><circle cx="147" cy="125" r="16" fill="#D9C49A" opacity="0.5" stroke="#7C4DBC" stroke-width="1"/><circle cx="217" cy="62" r="16" fill="#D9C49A" opacity="0.5" stroke="#7C4DBC" stroke-width="1"/><circle cx="189" cy="105" r="16" fill="#D9C49A" opacity="0.5" stroke="#7C4DBC" stroke-width="1"/><circle cx="214" cy="18" r="16" fill="#D9C49A" opacity="0.5" stroke="#7C4DBC" stroke-width="1"/><circle cx="216" cy="39" r="2.6" fill="#ffffff" stroke="#1b2430" stroke-width="1"/><circle cx="38" cy="88" r="2.6" fill="#ffffff" stroke="#1b2430" stroke-width="1"/><circle cx="195" cy="134" r="2.6" fill="#ffffff" stroke="#1b2430" stroke-width="1"/><circle cx="90" cy="118" r="2.6" fill="#ffffff" stroke="#1b2430" stroke-width="1"/><circle cx="17" cy="136" r="2.6" fill="#ffffff" stroke="#1b2430" stroke-width="1"/><circle cx="75" cy="81" r="2.6" fill="#ffffff" stroke="#1b2430" stroke-width="1"/><circle cx="37" cy="16" r="2.6" fill="#ffffff" stroke="#1b2430" stroke-width="1"/><circle cx="12" cy="88" r="2.6" fill="#ffffff" stroke="#1b2430" stroke-width="1"/><circle cx="133" cy="116" r="2.6" fill="#ffffff" stroke="#1b2430" stroke-width="1"/><circle cx="197" cy="65" r="2.6" fill="#ffffff" stroke="#1b2430" stroke-width="1"/><circle cx="196" cy="36" r="2.6" fill="#ffffff" stroke="#1b2430" stroke-width="1"/><circle cx="204" cy="43" r="2.6" fill="#ffffff" stroke="#1b2430" stroke-width="1"/><circle cx="217" cy="60" r="2.6" fill="#ffffff" stroke="#1b2430" stroke-width="1"/><circle cx="104" cy="77" r="2.6" fill="#ffffff" stroke="#1b2430" stroke-width="1"/>
  <text x="120.0" y="152" font-family="sans-serif" font-size="7.5" fill="#1b2430" text-anchor="middle" opacity="0.55">Acute pancreatitis — fat necrosis</text>
</svg>