<svg xmlns="http://www.w3.org/2000/svg" viewBox="0 0 240 160" width="240" height="160">
  <rect width="240" height="160" fill="#f8f5fc"/>
  <rect x="8" y="8" width="224" height="136" rx="12" fill="#F1ECFA" stroke="#7C4DBC" stroke-width="2"/><circle cx="205.7" cy="83.2" r="9.1" fill="#E4D9F5" stroke="#7C4DBC" stroke-width="1.1"/><circle cx="205.7" cy="83.2" r="3.2" fill="#7C4DBC"/><circle cx="175.9" cy="113.1" r="10.2" fill="#E4D9F5" stroke="#7C4DBC" stroke-width="1.1"/><circle cx="175.9" cy="113.1" r="3.6" fill="#7C4DBC"/><circle cx="191.3" cy="120.9" r="7.0" fill="#E4D9F5" stroke="#7C4DBC" stroke-width="1.1"/><circle cx="191.3" cy="120.9" r="2.5" fill="#7C4DBC"/><circle cx="169.8" cy="73.8" r="10.6" fill="#E4D9F5" stroke="#7C4DBC" stroke-width="1.1"/><circle cx="169.8" cy="73.8" r="3.7" fill="#7C4DBC"/><circle cx="111.9" cy="39.5" r="8.4" fill="#E4D9F5" stroke="#7C4DBC" stroke-width="1.1"/><circle cx="111.9" cy="39.5" r="3.0" fill="#7C4DBC"/><circle cx="82.5" cy="58.2" r="9.4" fill="#E4D9F5" stroke="#7C4DBC" stroke-width="1.1"/><circle cx="82.5" cy="58.2" r="3.3" fill="#7C4DBC"/><circle cx="145.8" cy="74.7" r="10.2" fill="#E4D9F5" stroke="#7C4DBC" stroke-width="1.1"/><circle cx="145.8" cy="74.7" r="3.6" fill="#7C4DBC"/><circle cx="62.1" cy="37.8" r="7.7" fill="#E4D9F5" stroke="#7C4DBC" stroke-width="1.1"/><circle cx="62.1" cy="37.8" r="2.7" fill="#7C4DBC"/><circle cx="130.7" cy="64.3" r="9.0" fill="#E4D9F5" stroke="#7C4DBC" stroke-width="1.1"/><circle cx="130.7" cy="64.3" r="3.2" fill="#7C4DBC"/>
  <text x="120.0" y="152" font-family="sans-serif" font-size="8.5" fill="#1b2430" text-anchor="middle" opacity="0.55">Acute Pancreatitis (schematic placeholder)</text>
</svg>