<svg xmlns="http://www.w3.org/2000/svg" viewBox="0 0 240 160" width="240" height="160">
  <rect width="240" height="160" fill="#f8f5fc"/>
<rect x="10" y="20" width="105" height="120" fill="#FCF6EA" stroke="#7C4DBC" stroke-width="1.2"/><circle cx="25" cy="130" r="6" fill="#FCEFD8" stroke="#cbb98a" stroke-width="1.2"/><circle cx="86" cy="45" r="6" fill="#FCEFD8" stroke="#cbb98a" stroke-width="1.2"/><circle cx="85" cy="55" r="6" fill="#FCEFD8" stroke="#cbb98a" stroke-width="1.2"/><circle cx="70" cy="74" r="6" fill="#FCEFD8" stroke="#cbb98a" stroke-width="1.2"/><circle cx="87" cy="67" r="6" fill="#FCEFD8" stroke="#cbb98a" stroke-width="1.2"/><circle cx="94" cy="48" r="6" fill="#FCEFD8" stroke="#cbb98a" stroke-width="1.2"/><circle cx="96" cy="63" r="6" fill="#FCEFD8" stroke="#cbb98a" stroke-width="1.2"/><circle cx="33" cy="63" r="6" fill="#FCEFD8" stroke="#cbb98a" stroke-width="1.2"/><circle cx="72" cy="71" r="6" fill="#FCEFD8" stroke="#cbb98a" stroke-width="1.2"/><circle cx="54" cy="43" r="6" fill="#FCEFD8" stroke="#cbb98a" stroke-width="1.2"/><circle cx="61" cy="69" r="6" fill="#FCEFD8" stroke="#cbb98a" stroke-width="1.2"/><circle cx="22" cy="102" r="6" fill="#FCEFD8" stroke="#cbb98a" stroke-width="1.2"/><circle cx="99" cy="55" r="6" fill="#FCEFD8" stroke="#cbb98a" stroke-width="1.2"/><circle cx="29" cy="55" r="6" fill="#FCEFD8" stroke="#cbb98a" stroke-width="1.2"/><circle cx="34" cy="99" r="4" fill="#8B2331" opacity="0.6"/><circle cx="78" cy="79" r="4" fill="#8B2331" opacity="0.6"/><circle cx="29" cy="42" r="4" fill="#8B2331" opacity="0.6"/><circle cx="73" cy="32" r="4" fill="#8B2331" opacity="0.6"/><circle cx="32" cy="104" r="4" fill="#8B2331" opacity="0.6"/><circle cx="74" cy="126" r="4" fill="#8B2331" opacity="0.6"/><circle cx="70" cy="86" r="4" fill="#8B2331" opacity="0.6"/><circle cx="104" cy="68" r="4" fill="#8B2331" opacity="0.6"/><rect x="125" y="20" width="105" height="120" fill="#EDE6FA" stroke="#7C4DBC" stroke-width="1.2"/><circle cx="222" cy="112" r="1.5" fill="#5b3a99" stroke="#7C4DBC" stroke-width="0.6"/><circle cx="149" cy="58" r="1.5" fill="#5b3a99" stroke="#7C4DBC" stroke-width="0.6"/><circle cx="216" cy="106" r="1.5" fill="#5b3a99" stroke="#7C4DBC" stroke-width="0.6"/><circle cx="142" cy="66" r="1.5" fill="#5b3a99" stroke="#7C4DBC" stroke-width="0.6"/><circle cx="203" cy="46" r="1.5" fill="#5b3a99" stroke="#7C4DBC" stroke-width="0.6"/><circle cx="133" cy="77" r="1.5" fill="#5b3a99" stroke="#7C4DBC" stroke-width="0.6"/><circle cx="182" cy="34" r="1.5" fill="#5b3a99" stroke="#7C4DBC" stroke-width="0.6"/><circle cx="143" cy="41" r="1.5" fill="#5b3a99" stroke="#7C4DBC" stroke-width="0.6"/><circle cx="170" cy="85" r="1.5" fill="#5b3a99" stroke="#7C4DBC" stroke-width="0.6"/><circle cx="204" cy="82" r="1.5" fill="#5b3a99" stroke="#7C4DBC" stroke-width="0.6"/><circle cx="182" cy="51" r="1.5" fill="#5b3a99" stroke="#7C4DBC" stroke-width="0.6"/><circle cx="155" cy="65" r="1.5" fill="#5b3a99" stroke="#7C4DBC" stroke-width="0.6"/><circle cx="210" cy="112" r="1.5" fill="#5b3a99" stroke="#7C4DBC" stroke-width="0.6"/><circle cx="172" cy="67" r="1.5" fill="#5b3a99" stroke="#7C4DBC" stroke-width="0.6"/><circle cx="184" cy="36" r="1.5" fill="#5b3a99" stroke="#7C4DBC" stroke-width="0.6"/><circle cx="210" cy="91" r="1.5" fill="#5b3a99" stroke="#7C4DBC" stroke-width="0.6"/><circle cx="192" cy="76" r="1.5" fill="#5b3a99" stroke="#7C4DBC" stroke-width="0.6"/><circle cx="140" cy="51" r="1.5" fill="#5b3a99" stroke="#7C4DBC" stroke-width="0.6"/><circle cx="203" cy="56" r="1.5" fill="#5b3a99" stroke="#7C4DBC" stroke-width="0.6"/><circle cx="134" cy="50" r="1.5" fill="#5b3a99" stroke="#7C4DBC" stroke-width="0.6"/><circle cx="142" cy="35" r="1.5" fill="#5b3a99" stroke="#7C4DBC" stroke-width="0.6"/><circle cx="154" cy="57" r="1.5" fill="#5b3a99" stroke="#7C4DBC" stroke-width="0.6"/><circle cx="218" cy="122" r="1.5" fill="#5b3a99" stroke="#7C4DBC" stroke-width="0.6"/><circle cx="166" cy="64" r="1.5" fill="#5b3a99" stroke="#7C4DBC" stroke-width="0.6"/><circle cx="218" cy="57" r="1.5" fill="#5b3a99" stroke="#7C4DBC" stroke-width="0.6"/><circle cx="150" cy="104" r="1.5" fill="#5b3a99" stroke="#7C4DBC" stroke-width="0.6"/><circle cx="145" cy="27" r="1.5" fill="#5b3a99" stroke="#7C4DBC" stroke-width="0.6"/><circle cx="164" cy="115" r="1.5" fill="#5b3a99" stroke="#7C4DBC" stroke-width="0.6"/><circle cx="159" cy="134" r="1.5" fill="#5b3a99" stroke="#7C4DBC" stroke-width="0.6"/><circle cx="158" cy="98" r="1.5" fill="#5b3a99" stroke="#7C4DBC" stroke-width="0.6"/><circle cx="160" cy="32" r="1.5" fill="#5b3a99" stroke="#7C4DBC" stroke-width="0.6"/><circle cx="131" cy="127" r="1.5" fill="#5b3a99" stroke="#7C4DBC" stroke-width="0.6"/><circle cx="212" cy="104" r="1.5" fill="#5b3a99" stroke="#7C4DBC" stroke-width="0.6"/><circle cx="168" cy="60" r="1.5" fill="#5b3a99" stroke="#7C4DBC" stroke-width="0.6"/><circle cx="147" cy="113" r="1.5" fill="#5b3a99" stroke="#7C4DBC" stroke-width="0.6"/><circle cx="212" cy="67" r="1.5" fill="#5b3a99" stroke="#7C4DBC" stroke-width="0.6"/><circle cx="206" cy="117" r="1.5" fill="#5b3a99" stroke="#7C4DBC" stroke-width="0.6"/><circle cx="187" cy="44" r="1.5" fill="#5b3a99" stroke="#7C4DBC" stroke-width="0.6"/><circle cx="211" cy="60" r="1.5" fill="#5b3a99" stroke="#7C4DBC" stroke-width="0.6"/><circle cx="201" cy="131" r="1.5" fill="#5b3a99" stroke="#7C4DBC" stroke-width="0.6"/><circle cx="175" cy="80" r="14" fill="#E89BAE" stroke="#8a2e44" stroke-width="1.4"/>
  <text x="120.0" y="152" font-family="sans-serif" font-size="7.5" fill="#1b2430" text-anchor="middle" opacity="0.55">Acute (fat necrosis/hemorrhage) vs chronic pancreatitis (fibrosis, islet sparing)</text>
</svg>