<svg xmlns="http://www.w3.org/2000/svg" viewBox="0 0 240 160" width="240" height="160">
  <rect width="240" height="160" fill="#f8f5fc"/>
<ellipse cx="120" cy="85" rx="40" ry="28" fill="#F4ECF7" stroke="#7D3C98" stroke-width="2"/><circle cx="131" cy="67" r="1.6" fill="#4A235A" opacity="0.75"/><circle cx="120" cy="67" r="1.6" fill="#4A235A" opacity="0.75"/><circle cx="142" cy="67" r="1.6" fill="#4A235A" opacity="0.75"/><circle cx="128" cy="76" r="1.6" fill="#4A235A" opacity="0.75"/><circle cx="134" cy="81" r="1.6" fill="#4A235A" opacity="0.75"/><circle cx="90" cy="82" r="1.6" fill="#4A235A" opacity="0.75"/><circle cx="108" cy="82" r="1.6" fill="#4A235A" opacity="0.75"/><circle cx="123" cy="77" r="1.6" fill="#4A235A" opacity="0.75"/><circle cx="127" cy="68" r="1.6" fill="#4A235A" opacity="0.75"/><circle cx="154" cy="101" r="1.6" fill="#4A235A" opacity="0.75"/><circle cx="96" cy="77" r="1.6" fill="#4A235A" opacity="0.75"/><circle cx="113" cy="63" r="1.6" fill="#4A235A" opacity="0.75"/><circle cx="116" cy="87" r="1.6" fill="#4A235A" opacity="0.75"/><circle cx="94" cy="79" r="1.6" fill="#4A235A" opacity="0.75"/><circle cx="155" cy="66" r="1.6" fill="#4A235A" opacity="0.75"/><circle cx="94" cy="63" r="1.6" fill="#4A235A" opacity="0.75"/><circle cx="86" cy="80" r="1.6" fill="#4A235A" opacity="0.75"/><circle cx="130" cy="93" r="1.6" fill="#4A235A" opacity="0.75"/><circle cx="145" cy="71" r="1.6" fill="#4A235A" opacity="0.75"/><circle cx="97" cy="94" r="1.6" fill="#4A235A" opacity="0.75"/><circle cx="126" cy="66" r="1.6" fill="#4A235A" opacity="0.75"/><circle cx="150" cy="104" r="1.6" fill="#4A235A" opacity="0.75"/><circle cx="107" cy="73" r="1.6" fill="#4A235A" opacity="0.75"/><circle cx="104" cy="71" r="1.6" fill="#4A235A" opacity="0.75"/><circle cx="125" cy="81" r="1.6" fill="#4A235A" opacity="0.75"/><circle cx="98" cy="107" r="1.6" fill="#4A235A" opacity="0.75"/><circle cx="150" cy="100" r="1.6" fill="#4A235A" opacity="0.75"/><circle cx="122" cy="70" r="1.6" fill="#4A235A" opacity="0.75"/><circle cx="111" cy="71" r="1.6" fill="#4A235A" opacity="0.75"/><circle cx="154" cy="108" r="1.6" fill="#4A235A" opacity="0.75"/><circle cx="89" cy="82" r="1.6" fill="#4A235A" opacity="0.75"/><circle cx="155" cy="106" r="1.6" fill="#4A235A" opacity="0.75"/><circle cx="111" cy="73" r="1.6" fill="#4A235A" opacity="0.75"/><circle cx="123" cy="89" r="1.6" fill="#4A235A" opacity="0.75"/><circle cx="153" cy="72" r="1.6" fill="#4A235A" opacity="0.75"/><ellipse cx="120" cy="85" rx="40" ry="28" fill="none" stroke="#5B2C6F" stroke-width="1.2" stroke-dasharray="3,2"/>  <text x="120" y="152" font-family="sans-serif" font-size="7.5" fill="#1b2430" text-anchor="middle" opacity="0.55">Addison disease — atrophic adrenal cortex, lymphocytic infiltrate</text>
</svg>