<svg xmlns="http://www.w3.org/2000/svg" viewBox="0 0 240 160" width="240" height="160">
  <rect width="240" height="160" fill="#f8f5fc"/>
<polygon points="13,22 27,22 29,28 27,34 13,34 11,28" fill="#fdf3ec" stroke="#7C4DBC" stroke-width="0.6"/><circle cx="17" cy="29" r="3" fill="#E89BAE" stroke="#8a2e44" stroke-width="0.8"/><polygon points="31,22 45,22 47,28 45,34 31,34 29,28" fill="#fdf3ec" stroke="#7C4DBC" stroke-width="0.6"/><circle cx="36" cy="26" r="3" fill="#E89BAE" stroke="#8a2e44" stroke-width="0.8"/><polygon points="49,22 63,22 65,28 63,34 49,34 47,28" fill="#fdf3ec" stroke="#7C4DBC" stroke-width="0.6"/><polygon points="67,22 81,22 83,28 81,34 67,34 65,28" fill="#fdf3ec" stroke="#7C4DBC" stroke-width="0.6"/><circle cx="76" cy="26" r="3" fill="#E89BAE" stroke="#8a2e44" stroke-width="0.8"/><polygon points="85,22 99,22 101,28 99,34 85,34 83,28" fill="#fdf3ec" stroke="#7C4DBC" stroke-width="0.6"/><circle cx="91" cy="26" r="3" fill="#E89BAE" stroke="#8a2e44" stroke-width="0.8"/><polygon points="103,22 117,22 119,28 117,34 103,34 101,28" fill="#fdf3ec" stroke="#7C4DBC" stroke-width="0.6"/><polygon points="121,22 135,22 137,28 135,34 121,34 119,28" fill="#fdf3ec" stroke="#7C4DBC" stroke-width="0.6"/><polygon points="139,22 153,22 155,28 153,34 139,34 137,28" fill="#fdf3ec" stroke="#7C4DBC" stroke-width="0.6"/><polygon points="157,22 171,22 173,28 171,34 157,34 155,28" fill="#fdf3ec" stroke="#7C4DBC" stroke-width="0.6"/><polygon points="175,22 189,22 191,28 189,34 175,34 173,28" fill="#fdf3ec" stroke="#7C4DBC" stroke-width="0.6"/><polygon points="193,22 207,22 209,28 207,34 193,34 191,28" fill="#fdf3ec" stroke="#7C4DBC" stroke-width="0.6"/><circle cx="198" cy="31" r="3" fill="#E89BAE" stroke="#8a2e44" stroke-width="0.8"/><polygon points="211,22 225,22 227,28 225,34 211,34 209,28" fill="#fdf3ec" stroke="#7C4DBC" stroke-width="0.6"/><polygon points="13,39 27,39 29,45 27,51 13,51 11,45" fill="#fdf3ec" stroke="#7C4DBC" stroke-width="0.6"/><polygon points="31,39 45,39 47,45 45,51 31,51 29,45" fill="#fdf3ec" stroke="#7C4DBC" stroke-width="0.6"/><polygon points="49,39 63,39 65,45 63,51 49,51 47,45" fill="#fdf3ec" stroke="#7C4DBC" stroke-width="0.6"/><circle cx="56" cy="43" r="3" fill="#E89BAE" stroke="#8a2e44" stroke-width="0.8"/><polygon points="67,39 81,39 83,45 81,51 67,51 65,45" fill="#fdf3ec" stroke="#7C4DBC" stroke-width="0.6"/><circle cx="77" cy="45" r="3" fill="#E89BAE" stroke="#8a2e44" stroke-width="0.8"/><polygon points="85,39 99,39 101,45 99,51 85,51 83,45" fill="#fdf3ec" stroke="#7C4DBC" stroke-width="0.6"/><polygon points="103,39 117,39 119,45 117,51 103,51 101,45" fill="#fdf3ec" stroke="#7C4DBC" stroke-width="0.6"/><polygon points="121,39 135,39 137,45 135,51 121,51 119,45" fill="#fdf3ec" stroke="#7C4DBC" stroke-width="0.6"/><circle cx="128" cy="46" r="3" fill="#E89BAE" stroke="#8a2e44" stroke-width="0.8"/><polygon points="139,39 153,39 155,45 153,51 139,51 137,45" fill="#fdf3ec" stroke="#7C4DBC" stroke-width="0.6"/><polygon points="157,39 171,39 173,45 171,51 157,51 155,45" fill="#fdf3ec" stroke="#7C4DBC" stroke-width="0.6"/><circle cx="164" cy="45" r="3" fill="#E89BAE" stroke="#8a2e44" stroke-width="0.8"/><polygon points="175,39 189,39 191,45 189,51 175,51 173,45" fill="#fdf3ec" stroke="#7C4DBC" stroke-width="0.6"/><circle cx="185" cy="42" r="3" fill="#E89BAE" stroke="#8a2e44" stroke-width="0.8"/><polygon points="193,39 207,39 209,45 207,51 193,51 191,45" fill="#fdf3ec" stroke="#7C4DBC" stroke-width="0.6"/><polygon points="211,39 225,39 227,45 225,51 211,51 209,45" fill="#fdf3ec" stroke="#7C4DBC" stroke-width="0.6"/><circle cx="215" cy="43" r="3" fill="#E89BAE" stroke="#8a2e44" stroke-width="0.8"/><polygon points="13,56 27,56 29,62 27,68 13,68 11,62" fill="#fdf3ec" stroke="#7C4DBC" stroke-width="0.6"/><polygon points="31,56 45,56 47,62 45,68 31,68 29,62" fill="#fdf3ec" stroke="#7C4DBC" stroke-width="0.6"/><polygon points="49,56 63,56 65,62 63,68 49,68 47,62" fill="#fdf3ec" stroke="#7C4DBC" stroke-width="0.6"/><circle cx="58" cy="65" r="3" fill="#E89BAE" stroke="#8a2e44" stroke-width="0.8"/><polygon points="67,56 81,56 83,62 81,68 67,68 65,62" fill="#fdf3ec" stroke="#7C4DBC" stroke-width="0.6"/><circle cx="73" cy="63" r="3" fill="#E89BAE" stroke="#8a2e44" stroke-width="0.8"/><polygon points="85,56 99,56 101,62 99,68 85,68 83,62" fill="#fdf3ec" stroke="#7C4DBC" stroke-width="0.6"/><polygon points="103,56 117,56 119,62 117,68 103,68 101,62" fill="#fdf3ec" stroke="#7C4DBC" stroke-width="0.6"/><circle cx="107" cy="59" r="3" fill="#E89BAE" stroke="#8a2e44" stroke-width="0.8"/><polygon points="121,56 135,56 137,62 135,68 121,68 119,62" fill="#fdf3ec" stroke="#7C4DBC" stroke-width="0.6"/><polygon points="139,56 153,56 155,62 153,68 139,68 137,62" fill="#fdf3ec" stroke="#7C4DBC" stroke-width="0.6"/><polygon points="157,56 171,56 173,62 171,68 157,68 155,62" fill="#fdf3ec" stroke="#7C4DBC" stroke-width="0.6"/><circle cx="165" cy="61" r="3" fill="#E89BAE" stroke="#8a2e44" stroke-width="0.8"/><polygon points="175,56 189,56 191,62 189,68 175,68 173,62" fill="#fdf3ec" stroke="#7C4DBC" stroke-width="0.6"/><polygon points="193,56 207,56 209,62 207,68 193,68 191,62" fill="#fdf3ec" stroke="#7C4DBC" stroke-width="0.6"/><polygon points="211,56 225,56 227,62 225,68 211,68 209,62" fill="#fdf3ec" stroke="#7C4DBC" stroke-width="0.6"/><polygon points="13,73 27,73 29,79 27,85 13,85 11,79" fill="#fdf3ec" stroke="#7C4DBC" stroke-width="0.6"/><circle cx="19" cy="76" r="3" fill="#E89BAE" stroke="#8a2e44" stroke-width="0.8"/><polygon points="31,73 45,73 47,79 45,85 31,85 29,79" fill="#fdf3ec" stroke="#7C4DBC" stroke-width="0.6"/><polygon points="49,73 63,73 65,79 63,85 49,85 47,79" fill="#fdf3ec" stroke="#7C4DBC" stroke-width="0.6"/><polygon points="67,73 81,73 83,79 81,85 67,85 65,79" fill="#fdf3ec" stroke="#7C4DBC" stroke-width="0.6"/><circle cx="73" cy="79" r="3" fill="#E89BAE" stroke="#8a2e44" stroke-width="0.8"/><polygon points="85,73 99,73 101,79 99,85 85,85 83,79" fill="#fdf3ec" stroke="#7C4DBC" stroke-width="0.6"/><circle cx="91" cy="82" r="3" fill="#E89BAE" stroke="#8a2e44" stroke-width="0.8"/><polygon points="103,73 117,73 119,79 117,85 103,85 101,79" fill="#fdf3ec" stroke="#7C4DBC" stroke-width="0.6"/><polygon points="121,73 135,73 137,79 135,85 121,85 119,79" fill="#fdf3ec" stroke="#7C4DBC" stroke-width="0.6"/><polygon points="139,73 153,73 155,79 153,85 139,85 137,79" fill="#fdf3ec" stroke="#7C4DBC" stroke-width="0.6"/><circle cx="149" cy="78" r="3" fill="#E89BAE" stroke="#8a2e44" stroke-width="0.8"/><polygon points="157,73 171,73 173,79 171,85 157,85 155,79" fill="#fdf3ec" stroke="#7C4DBC" stroke-width="0.6"/><polygon points="175,73 189,73 191,79 189,85 175,85 173,79" fill="#fdf3ec" stroke="#7C4DBC" stroke-width="0.6"/><polygon points="193,73 207,73 209,79 207,85 193,85 191,79" fill="#fdf3ec" stroke="#7C4DBC" stroke-width="0.6"/><polygon points="211,73 225,73 227,79 225,85 211,85 209,79" fill="#fdf3ec" stroke="#7C4DBC" stroke-width="0.6"/><polygon points="13,90 27,90 29,96 27,102 13,102 11,96" fill="#fdf3ec" stroke="#7C4DBC" stroke-width="0.6"/><circle cx="22" cy="93" r="3" fill="#E89BAE" stroke="#8a2e44" stroke-width="0.8"/><polygon points="31,90 45,90 47,96 45,102 31,102 29,96" fill="#fdf3ec" stroke="#7C4DBC" stroke-width="0.6"/><polygon points="49,90 63,90 65,96 63,102 49,102 47,96" fill="#fdf3ec" stroke="#7C4DBC" stroke-width="0.6"/><polygon points="67,90 81,90 83,96 81,102 67,102 65,96" fill="#fdf3ec" stroke="#7C4DBC" stroke-width="0.6"/><circle cx="73" cy="94" r="3" fill="#E89BAE" stroke="#8a2e44" stroke-width="0.8"/><polygon points="85,90 99,90 101,96 99,102 85,102 83,96" fill="#fdf3ec" stroke="#7C4DBC" stroke-width="0.6"/><circle cx="93" cy="96" r="3" fill="#E89BAE" stroke="#8a2e44" stroke-width="0.8"/><polygon points="103,90 117,90 119,96 117,102 103,102 101,96" fill="#fdf3ec" stroke="#7C4DBC" stroke-width="0.6"/><circle cx="110" cy="93" r="3" fill="#E89BAE" stroke="#8a2e44" stroke-width="0.8"/><polygon points="121,90 135,90 137,96 135,102 121,102 119,96" fill="#fdf3ec" stroke="#7C4DBC" stroke-width="0.6"/><polygon points="139,90 153,90 155,96 153,102 139,102 137,96" fill="#fdf3ec" stroke="#7C4DBC" stroke-width="0.6"/><polygon points="157,90 171,90 173,96 171,102 157,102 155,96" fill="#fdf3ec" stroke="#7C4DBC" stroke-width="0.6"/><polygon points="175,90 189,90 191,96 189,102 175,102 173,96" fill="#fdf3ec" stroke="#7C4DBC" stroke-width="0.6"/><circle cx="180" cy="99" r="3" fill="#E89BAE" stroke="#8a2e44" stroke-width="0.8"/><polygon points="193,90 207,90 209,96 207,102 193,102 191,96" fill="#fdf3ec" stroke="#7C4DBC" stroke-width="0.6"/><circle cx="200" cy="98" r="3" fill="#E89BAE" stroke="#8a2e44" stroke-width="0.8"/><polygon points="211,90 225,90 227,96 225,102 211,102 209,96" fill="#fdf3ec" stroke="#7C4DBC" stroke-width="0.6"/><circle cx="220" cy="93" r="3" fill="#E89BAE" stroke="#8a2e44" stroke-width="0.8"/><polygon points="13,107 27,107 29,113 27,119 13,119 11,113" fill="#fdf3ec" stroke="#7C4DBC" stroke-width="0.6"/><circle cx="17" cy="112" r="3" fill="#E89BAE" stroke="#8a2e44" stroke-width="0.8"/><polygon points="31,107 45,107 47,113 45,119 31,119 29,113" fill="#fdf3ec" stroke="#7C4DBC" stroke-width="0.6"/><circle cx="41" cy="113" r="3" fill="#E89BAE" stroke="#8a2e44" stroke-width="0.8"/><polygon points="49,107 63,107 65,113 63,119 49,119 47,113" fill="#fdf3ec" stroke="#7C4DBC" stroke-width="0.6"/><polygon points="67,107 81,107 83,113 81,119 67,119 65,113" fill="#fdf3ec" stroke="#7C4DBC" stroke-width="0.6"/><polygon points="85,107 99,107 101,113 99,119 85,119 83,113" fill="#fdf3ec" stroke="#7C4DBC" stroke-width="0.6"/><circle cx="91" cy="114" r="3" fill="#E89BAE" stroke="#8a2e44" stroke-width="0.8"/><polygon points="103,107 117,107 119,113 117,119 103,119 101,113" fill="#fdf3ec" stroke="#7C4DBC" stroke-width="0.6"/><polygon points="121,107 135,107 137,113 135,119 121,119 119,113" fill="#fdf3ec" stroke="#7C4DBC" stroke-width="0.6"/><polygon points="139,107 153,107 155,113 153,119 139,119 137,113" fill="#fdf3ec" stroke="#7C4DBC" stroke-width="0.6"/><polygon points="157,107 171,107 173,113 171,119 157,119 155,113" fill="#fdf3ec" stroke="#7C4DBC" stroke-width="0.6"/><polygon points="175,107 189,107 191,113 189,119 175,119 173,113" fill="#fdf3ec" stroke="#7C4DBC" stroke-width="0.6"/><circle cx="182" cy="110" r="3" fill="#E89BAE" stroke="#8a2e44" stroke-width="0.8"/><polygon points="193,107 207,107 209,113 207,119 193,119 191,113" fill="#fdf3ec" stroke="#7C4DBC" stroke-width="0.6"/><circle cx="199" cy="114" r="3" fill="#E89BAE" stroke="#8a2e44" stroke-width="0.8"/><polygon points="211,107 225,107 227,113 225,119 211,119 209,113" fill="#fdf3ec" stroke="#7C4DBC" stroke-width="0.6"/><polygon points="13,124 27,124 29,130 27,136 13,136 11,130" fill="#fdf3ec" stroke="#7C4DBC" stroke-width="0.6"/><polygon points="31,124 45,124 47,130 45,136 31,136 29,130" fill="#fdf3ec" stroke="#7C4DBC" stroke-width="0.6"/><polygon points="49,124 63,124 65,130 63,136 49,136 47,130" fill="#fdf3ec" stroke="#7C4DBC" stroke-width="0.6"/><polygon points="67,124 81,124 83,130 81,136 67,136 65,130" fill="#fdf3ec" stroke="#7C4DBC" stroke-width="0.6"/><circle cx="73" cy="129" r="3" fill="#E89BAE" stroke="#8a2e44" stroke-width="0.8"/><polygon points="85,124 99,124 101,130 99,136 85,136 83,130" fill="#fdf3ec" stroke="#7C4DBC" stroke-width="0.6"/><circle cx="94" cy="131" r="3" fill="#E89BAE" stroke="#8a2e44" stroke-width="0.8"/><polygon points="103,124 117,124 119,130 117,136 103,136 101,130" fill="#fdf3ec" stroke="#7C4DBC" stroke-width="0.6"/><polygon points="121,124 135,124 137,130 135,136 121,136 119,130" fill="#fdf3ec" stroke="#7C4DBC" stroke-width="0.6"/><polygon points="139,124 153,124 155,130 153,136 139,136 137,130" fill="#fdf3ec" stroke="#7C4DBC" stroke-width="0.6"/><circle cx="148" cy="128" r="3" fill="#E89BAE" stroke="#8a2e44" stroke-width="0.8"/><polygon points="157,124 171,124 173,130 171,136 157,136 155,130" fill="#fdf3ec" stroke="#7C4DBC" stroke-width="0.6"/><polygon points="175,124 189,124 191,130 189,136 175,136 173,130" fill="#fdf3ec" stroke="#7C4DBC" stroke-width="0.6"/><polygon points="193,124 207,124 209,130 207,136 193,136 191,130" fill="#fdf3ec" stroke="#7C4DBC" stroke-width="0.6"/><polygon points="211,124 225,124 227,130 225,136 211,136 209,130" fill="#fdf3ec" stroke="#7C4DBC" stroke-width="0.6"/><circle cx="220" cy="127" r="3" fill="#E89BAE" stroke="#8a2e44" stroke-width="0.8"/>
  <text x="120.0" y="152" font-family="sans-serif" font-size="7.5" fill="#1b2430" text-anchor="middle" opacity="0.55">Alpha-1-antitrypsin deficiency - PAS-positive cytoplasmic globules</text>
</svg>