<svg xmlns="http://www.w3.org/2000/svg" viewBox="0 0 240 160" width="240" height="160">
  <rect width="240" height="160" fill="#f8f5fc"/>
<circle cx="80" cy="85" r="22" fill="#E89BAE" stroke="#8a2e44" stroke-width="1.6"/><path d="M104.0 85.0 L114.0 85.0" stroke="#5b3a99" stroke-width="1.6"/><path d="M102.6 93.2 L111.9 96.6" stroke="#5b3a99" stroke-width="1.6"/><path d="M98.4 100.4 L106.0 106.9" stroke="#5b3a99" stroke-width="1.6"/><path d="M92.0 105.8 L97.0 114.4" stroke="#5b3a99" stroke-width="1.6"/><path d="M84.2 108.6 L85.9 118.5" stroke="#5b3a99" stroke-width="1.6"/><path d="M75.8 108.6 L74.1 118.5" stroke="#5b3a99" stroke-width="1.6"/><path d="M68.0 105.8 L63.0 114.4" stroke="#5b3a99" stroke-width="1.6"/><path d="M61.6 100.4 L54.0 106.9" stroke="#5b3a99" stroke-width="1.6"/><path d="M57.4 93.2 L48.1 96.6" stroke="#5b3a99" stroke-width="1.6"/><path d="M56.0 85.0 L46.0 85.0" stroke="#5b3a99" stroke-width="1.6"/><path d="M57.4 76.8 L48.1 73.4" stroke="#5b3a99" stroke-width="1.6"/><path d="M61.6 69.6 L54.0 63.1" stroke="#5b3a99" stroke-width="1.6"/><path d="M68.0 64.2 L63.0 55.6" stroke="#5b3a99" stroke-width="1.6"/><path d="M75.8 61.4 L74.1 51.5" stroke="#5b3a99" stroke-width="1.6"/><path d="M84.2 61.4 L85.9 51.5" stroke="#5b3a99" stroke-width="1.6"/><path d="M92.0 64.2 L97.0 55.6" stroke="#5b3a99" stroke-width="1.6"/><path d="M98.4 69.6 L106.0 63.1" stroke="#5b3a99" stroke-width="1.6"/><path d="M102.6 76.8 L111.9 73.4" stroke="#5b3a99" stroke-width="1.6"/><ellipse cx="170" cy="55" rx="13" ry="16" fill="#FCEFD8" stroke="#7C4DBC" stroke-width="1.4"/><path d="M164 63 Q170 45 176 63 Q170 57 164 63 Z" fill="#5b3a99"/><ellipse cx="190" cy="90" rx="13" ry="16" fill="#FCEFD8" stroke="#7C4DBC" stroke-width="1.4"/><path d="M184 98 Q190 80 196 98 Q190 92 184 98 Z" fill="#5b3a99"/><ellipse cx="160" cy="120" rx="13" ry="16" fill="#FCEFD8" stroke="#7C4DBC" stroke-width="1.4"/><path d="M154 128 Q160 110 166 128 Q160 122 154 128 Z" fill="#5b3a99"/>
  <text x="120.0" y="152" font-family="sans-serif" font-size="7.5" fill="#1b2430" text-anchor="middle" opacity="0.55">Neuritic plaque (amyloid core) & neurofibrillary tangles</text>
</svg>