<svg xmlns="http://www.w3.org/2000/svg" viewBox="0 0 240 160" width="240" height="160">
  <rect width="240" height="160" fill="#f8f5fc"/>
  <path d="M50,100 Q70,60 110,70 Q150,55 190,90 Q160,120 110,115 Q70,125 50,100 Z" fill="#F1ECFA" stroke="#7C4DBC" stroke-width="1.3"/>
  <circle cx="129.8" cy="109.3" r="2" fill="#5B3A8C" opacity="0.7"/><circle cx="143.6" cy="125.4" r="2" fill="#5B3A8C" opacity="0.7"/><circle cx="139.2" cy="123.8" r="2" fill="#5B3A8C" opacity="0.7"/><circle cx="82.3" cy="87.2" r="2" fill="#5B3A8C" opacity="0.7"/><circle cx="155.5" cy="101.9" r="2" fill="#5B3A8C" opacity="0.7"/><circle cx="152.1" cy="59.1" r="2" fill="#5B3A8C" opacity="0.7"/><circle cx="117.5" cy="69.7" r="2" fill="#5B3A8C" opacity="0.7"/><circle cx="123.5" cy="95.9" r="2" fill="#5B3A8C" opacity="0.7"/><circle cx="81.0" cy="67.3" r="2" fill="#5B3A8C" opacity="0.7"/><circle cx="102.4" cy="123.3" r="2" fill="#5B3A8C" opacity="0.7"/>
  <ellipse cx="120" cy="90" rx="6" ry="40" fill="none" stroke="#3CB371" stroke-width="1" opacity="0.5" transform="rotate(20 120 90)"/>
  <text x="120" y="138" font-size="7" fill="#7C4DBC" text-anchor="middle">amorphous eosinophilic deposits (amyloid)</text>
  <text x="120.0" y="152" font-family="sans-serif" font-size="7.5" fill="#1b2430" text-anchor="middle" opacity="0.55">Amyloidosis — amorphous extracellular deposits (Congo red apple-green birefringence)</text>
</svg>