<svg xmlns="http://www.w3.org/2000/svg" viewBox="0 0 240 160" width="240" height="160">
  <rect width="240" height="160" fill="#f8f5fc"/>
  <rect x="8" y="8" width="224" height="136" rx="12" fill="#F1ECFA" stroke="#7C4DBC" stroke-width="2"/><circle cx="78.1" cy="90.0" r="9.6" fill="#E4D9F5" stroke="#7C4DBC" stroke-width="1.1"/><circle cx="78.1" cy="90.0" r="3.3" fill="#7C4DBC"/><circle cx="164.2" cy="79.8" r="11.4" fill="#E4D9F5" stroke="#7C4DBC" stroke-width="1.1"/><circle cx="164.2" cy="79.8" r="4.0" fill="#7C4DBC"/><circle cx="177.2" cy="53.2" r="9.2" fill="#E4D9F5" stroke="#7C4DBC" stroke-width="1.1"/><circle cx="177.2" cy="53.2" r="3.2" fill="#7C4DBC"/><circle cx="198.5" cy="44.3" r="10.8" fill="#E4D9F5" stroke="#7C4DBC" stroke-width="1.1"/><circle cx="198.5" cy="44.3" r="3.8" fill="#7C4DBC"/><circle cx="68.8" cy="118.9" r="9.4" fill="#E4D9F5" stroke="#7C4DBC" stroke-width="1.1"/><circle cx="68.8" cy="118.9" r="3.3" fill="#7C4DBC"/><circle cx="193.5" cy="67.9" r="9.9" fill="#E4D9F5" stroke="#7C4DBC" stroke-width="1.1"/><circle cx="193.5" cy="67.9" r="3.5" fill="#7C4DBC"/><circle cx="85.3" cy="67.4" r="10.3" fill="#E4D9F5" stroke="#7C4DBC" stroke-width="1.1"/><circle cx="85.3" cy="67.4" r="3.6" fill="#7C4DBC"/><circle cx="129.0" cy="49.0" r="12.0" fill="#E4D9F5" stroke="#7C4DBC" stroke-width="1.1"/><circle cx="129.0" cy="49.0" r="4.2" fill="#7C4DBC"/><circle cx="166.0" cy="59.7" r="10.0" fill="#E4D9F5" stroke="#7C4DBC" stroke-width="1.1"/><circle cx="166.0" cy="59.7" r="3.5" fill="#7C4DBC"/>
  <text x="120.0" y="152" font-family="sans-serif" font-size="8.5" fill="#1b2430" text-anchor="middle" opacity="0.55">Asthma (schematic placeholder)</text>
</svg>