<svg xmlns="http://www.w3.org/2000/svg" viewBox="0 0 240 160" width="240" height="160">
  <rect width="240" height="160" fill="#f8f5fc"/>
<ellipse cx="120" cy="85" rx="95" ry="55" fill="#F1ECFA" stroke="#7C4DBC" stroke-width="1.6"/><ellipse cx="120" cy="85" rx="38" ry="26" fill="#fdf3ec" stroke="#b5481f" stroke-width="1.6"/><ellipse cx="164.0" cy="85.0" rx="4.5" ry="3" fill="#5b3a99" opacity="0.85" transform="rotate(0.0 164.0 85.0)"/><ellipse cx="162.9" cy="92.1" rx="4.5" ry="3" fill="#5b3a99" opacity="0.85" transform="rotate(12.857142857142858 162.9 92.1)"/><ellipse cx="159.6" cy="98.9" rx="4.5" ry="3" fill="#5b3a99" opacity="0.85" transform="rotate(25.714285714285715 159.6 98.9)"/><ellipse cx="154.4" cy="105.0" rx="4.5" ry="3" fill="#5b3a99" opacity="0.85" transform="rotate(38.57142857142858 154.4 105.0)"/><ellipse cx="147.4" cy="110.0" rx="4.5" ry="3" fill="#5b3a99" opacity="0.85" transform="rotate(51.42857142857143 147.4 110.0)"/><ellipse cx="139.1" cy="113.8" rx="4.5" ry="3" fill="#5b3a99" opacity="0.85" transform="rotate(64.2857142857143 139.1 113.8)"/><ellipse cx="129.8" cy="116.2" rx="4.5" ry="3" fill="#5b3a99" opacity="0.85" transform="rotate(77.14285714285715 129.8 116.2)"/><ellipse cx="120.0" cy="117.0" rx="4.5" ry="3" fill="#5b3a99" opacity="0.85" transform="rotate(90.0 120.0 117.0)"/><ellipse cx="110.2" cy="116.2" rx="4.5" ry="3" fill="#5b3a99" opacity="0.85" transform="rotate(102.85714285714286 110.2 116.2)"/><ellipse cx="100.9" cy="113.8" rx="4.5" ry="3" fill="#5b3a99" opacity="0.85" transform="rotate(115.71428571428575 100.9 113.8)"/><ellipse cx="92.6" cy="110.0" rx="4.5" ry="3" fill="#5b3a99" opacity="0.85" transform="rotate(128.5714285714286 92.6 110.0)"/><ellipse cx="85.6" cy="105.0" rx="4.5" ry="3" fill="#5b3a99" opacity="0.85" transform="rotate(141.42857142857142 85.6 105.0)"/><ellipse cx="80.4" cy="98.9" rx="4.5" ry="3" fill="#5b3a99" opacity="0.85" transform="rotate(154.2857142857143 80.4 98.9)"/><ellipse cx="77.1" cy="92.1" rx="4.5" ry="3" fill="#5b3a99" opacity="0.85" transform="rotate(167.14285714285714 77.1 92.1)"/><ellipse cx="76.0" cy="85.0" rx="4.5" ry="3" fill="#5b3a99" opacity="0.85" transform="rotate(180.0 76.0 85.0)"/><ellipse cx="77.1" cy="77.9" rx="4.5" ry="3" fill="#5b3a99" opacity="0.85" transform="rotate(192.85714285714286 77.1 77.9)"/><ellipse cx="80.4" cy="71.1" rx="4.5" ry="3" fill="#5b3a99" opacity="0.85" transform="rotate(205.71428571428572 80.4 71.1)"/><ellipse cx="85.6" cy="65.0" rx="4.5" ry="3" fill="#5b3a99" opacity="0.85" transform="rotate(218.57142857142856 85.6 65.0)"/><ellipse cx="92.6" cy="60.0" rx="4.5" ry="3" fill="#5b3a99" opacity="0.85" transform="rotate(231.4285714285715 92.6 60.0)"/><ellipse cx="100.9" cy="56.2" rx="4.5" ry="3" fill="#5b3a99" opacity="0.85" transform="rotate(244.28571428571436 100.9 56.2)"/><ellipse cx="110.2" cy="53.8" rx="4.5" ry="3" fill="#5b3a99" opacity="0.85" transform="rotate(257.1428571428572 110.2 53.8)"/><ellipse cx="120.0" cy="53.0" rx="4.5" ry="3" fill="#5b3a99" opacity="0.85" transform="rotate(270.0 120.0 53.0)"/><ellipse cx="129.8" cy="53.8" rx="4.5" ry="3" fill="#5b3a99" opacity="0.85" transform="rotate(282.85714285714283 129.8 53.8)"/><ellipse cx="139.1" cy="56.2" rx="4.5" ry="3" fill="#5b3a99" opacity="0.85" transform="rotate(295.7142857142857 139.1 56.2)"/><ellipse cx="147.4" cy="60.0" rx="4.5" ry="3" fill="#5b3a99" opacity="0.85" transform="rotate(308.5714285714286 147.4 60.0)"/><ellipse cx="154.4" cy="65.0" rx="4.5" ry="3" fill="#5b3a99" opacity="0.85" transform="rotate(321.42857142857144 154.4 65.0)"/><ellipse cx="159.6" cy="71.1" rx="4.5" ry="3" fill="#5b3a99" opacity="0.85" transform="rotate(334.2857142857143 159.6 71.1)"/><ellipse cx="162.9" cy="77.9" rx="4.5" ry="3" fill="#5b3a99" opacity="0.85" transform="rotate(347.14285714285717 162.9 77.9)"/><circle cx="60" cy="55" r="7" fill="none" stroke="#b5481f" stroke-width="2.5"/><circle cx="60" cy="55" r="3" fill="#E89BAE"/><circle cx="180" cy="60" r="7" fill="none" stroke="#b5481f" stroke-width="2.5"/><circle cx="180" cy="60" r="3" fill="#E89BAE"/><circle cx="75" cy="120" r="7" fill="none" stroke="#b5481f" stroke-width="2.5"/><circle cx="75" cy="120" r="3" fill="#E89BAE"/><circle cx="170" cy="115" r="7" fill="none" stroke="#b5481f" stroke-width="2.5"/><circle cx="170" cy="115" r="3" fill="#E89BAE"/>
  <text x="120.0" y="152" font-family="sans-serif" font-size="7.5" fill="#1b2430" text-anchor="middle" opacity="0.55">Glioblastoma — pseudopalisading necrosis &amp; vascular proliferation</text>
</svg>