<svg xmlns="http://www.w3.org/2000/svg" viewBox="0 0 240 160" width="240" height="160">
  <rect width="240" height="160" fill="#f8f5fc"/>
  <rect x="8" y="8" width="224" height="136" rx="12" fill="#F1ECFA" stroke="#7C4DBC" stroke-width="2"/><circle cx="39.9" cy="38.0" r="12.3" fill="#E4D9F5" stroke="#7C4DBC" stroke-width="1.1"/><circle cx="39.9" cy="38.0" r="4.3" fill="#7C4DBC"/><circle cx="158.9" cy="39.3" r="8.2" fill="#E4D9F5" stroke="#7C4DBC" stroke-width="1.1"/><circle cx="158.9" cy="39.3" r="2.9" fill="#7C4DBC"/><circle cx="123.4" cy="94.7" r="11.9" fill="#E4D9F5" stroke="#7C4DBC" stroke-width="1.1"/><circle cx="123.4" cy="94.7" r="4.2" fill="#7C4DBC"/><circle cx="141.6" cy="36.9" r="8.3" fill="#E4D9F5" stroke="#7C4DBC" stroke-width="1.1"/><circle cx="141.6" cy="36.9" r="2.9" fill="#7C4DBC"/><circle cx="88.7" cy="74.1" r="10.6" fill="#E4D9F5" stroke="#7C4DBC" stroke-width="1.1"/><circle cx="88.7" cy="74.1" r="3.7" fill="#7C4DBC"/><circle cx="118.7" cy="73.6" r="10.9" fill="#E4D9F5" stroke="#7C4DBC" stroke-width="1.1"/><circle cx="118.7" cy="73.6" r="3.8" fill="#7C4DBC"/><circle cx="111.1" cy="94.3" r="10.5" fill="#E4D9F5" stroke="#7C4DBC" stroke-width="1.1"/><circle cx="111.1" cy="94.3" r="3.7" fill="#7C4DBC"/><circle cx="96.9" cy="116.1" r="11.4" fill="#E4D9F5" stroke="#7C4DBC" stroke-width="1.1"/><circle cx="96.9" cy="116.1" r="4.0" fill="#7C4DBC"/><circle cx="61.3" cy="99.9" r="12.5" fill="#E4D9F5" stroke="#7C4DBC" stroke-width="1.1"/><circle cx="61.3" cy="99.9" r="4.4" fill="#7C4DBC"/>
  <text x="120.0" y="152" font-family="sans-serif" font-size="8.5" fill="#1b2430" text-anchor="middle" opacity="0.55">Atherosclerosis (schematic placeholder)</text>
</svg>