<svg xmlns="http://www.w3.org/2000/svg" viewBox="0 0 240 160" width="240" height="160">
  <rect width="240" height="160" fill="#f8f5fc"/>
  <circle cx="120" cy="80" r="65" fill="none" stroke="#7C4DBC" stroke-width="4"/><circle cx="120" cy="80" r="58" fill="none" stroke="#7C4DBC" stroke-width="1.5"/><path d="M65 60 A 60 60 0 0 1 175 60 L 160 90 A 35 35 0 0 0 80 90 Z" fill="#D9C49A" opacity="0.9"/><circle cx="102" cy="58" r="4" fill="#E4D9F5" stroke="#7C4DBC" stroke-width="0.8"/><circle cx="113" cy="60" r="4" fill="#E4D9F5" stroke="#7C4DBC" stroke-width="0.8"/><circle cx="90" cy="67" r="4" fill="#E4D9F5" stroke="#7C4DBC" stroke-width="0.8"/><circle cx="149" cy="79" r="4" fill="#E4D9F5" stroke="#7C4DBC" stroke-width="0.8"/><circle cx="139" cy="62" r="4" fill="#E4D9F5" stroke="#7C4DBC" stroke-width="0.8"/><circle cx="123" cy="63" r="4" fill="#E4D9F5" stroke="#7C4DBC" stroke-width="0.8"/><circle cx="97" cy="58" r="4" fill="#E4D9F5" stroke="#7C4DBC" stroke-width="0.8"/><circle cx="100" cy="83" r="4" fill="#E4D9F5" stroke="#7C4DBC" stroke-width="0.8"/><circle cx="143" cy="79" r="4" fill="#E4D9F5" stroke="#7C4DBC" stroke-width="0.8"/><circle cx="141" cy="61" r="4" fill="#E4D9F5" stroke="#7C4DBC" stroke-width="0.8"/><circle cx="120" cy="105" r="22" fill="#f8f5fc"/>
  <text x="120.0" y="152" font-family="sans-serif" font-size="7.5" fill="#1b2430" text-anchor="middle" opacity="0.55">Atherosclerosis — lipid core, foam cells</text>
</svg>