<svg xmlns="http://www.w3.org/2000/svg" viewBox="0 0 240 160" width="240" height="160">
  <rect width="240" height="160" fill="#f8f5fc"/>
<rect x="25" y="20" width="40" height="40" fill="#EAF4FB" stroke="#2E86C1" stroke-width="2.2"/><circle cx="57" cy="25" r="1.3" fill="#1B4F72" opacity="0.7"/><circle cx="44" cy="25" r="1.3" fill="#1B4F72" opacity="0.7"/><circle cx="54" cy="49" r="1.3" fill="#1B4F72" opacity="0.7"/><circle cx="38" cy="32" r="1.3" fill="#1B4F72" opacity="0.7"/><rect x="70" y="20" width="40" height="40" fill="#EAF4FB" stroke="#2E86C1" stroke-width="2.2"/><circle cx="83" cy="28" r="1.3" fill="#1B4F72" opacity="0.7"/><circle cx="100" cy="44" r="1.3" fill="#1B4F72" opacity="0.7"/><circle cx="80" cy="36" r="1.3" fill="#1B4F72" opacity="0.7"/><circle cx="84" cy="27" r="1.3" fill="#1B4F72" opacity="0.7"/><rect x="115" y="20" width="40" height="40" fill="#EAF4FB" stroke="#2E86C1" stroke-width="2.2"/><circle cx="125" cy="30" r="1.3" fill="#1B4F72" opacity="0.7"/><circle cx="128" cy="41" r="1.3" fill="#1B4F72" opacity="0.7"/><circle cx="150" cy="30" r="1.3" fill="#1B4F72" opacity="0.7"/><circle cx="141" cy="33" r="1.3" fill="#1B4F72" opacity="0.7"/><rect x="160" y="20" width="40" height="40" fill="#EAF4FB" stroke="#2E86C1" stroke-width="2.2"/><circle cx="185" cy="47" r="1.3" fill="#1B4F72" opacity="0.7"/><circle cx="174" cy="39" r="1.3" fill="#1B4F72" opacity="0.7"/><circle cx="187" cy="35" r="1.3" fill="#1B4F72" opacity="0.7"/><circle cx="180" cy="40" r="1.3" fill="#1B4F72" opacity="0.7"/><rect x="25" y="65" width="40" height="40" fill="#EAF4FB" stroke="#2E86C1" stroke-width="2.2"/><circle cx="33" cy="70" r="1.3" fill="#1B4F72" opacity="0.7"/><circle cx="39" cy="82" r="1.3" fill="#1B4F72" opacity="0.7"/><circle cx="40" cy="83" r="1.3" fill="#1B4F72" opacity="0.7"/><circle cx="55" cy="76" r="1.3" fill="#1B4F72" opacity="0.7"/><rect x="70" y="65" width="40" height="40" fill="#EAF4FB" stroke="#2E86C1" stroke-width="2.2"/><circle cx="83" cy="73" r="1.3" fill="#1B4F72" opacity="0.7"/><circle cx="83" cy="98" r="1.3" fill="#1B4F72" opacity="0.7"/><circle cx="98" cy="86" r="1.3" fill="#1B4F72" opacity="0.7"/><circle cx="81" cy="100" r="1.3" fill="#1B4F72" opacity="0.7"/><rect x="115" y="65" width="40" height="40" fill="#EAF4FB" stroke="#2E86C1" stroke-width="2.2"/><circle cx="139" cy="83" r="1.3" fill="#1B4F72" opacity="0.7"/><circle cx="146" cy="70" r="1.3" fill="#1B4F72" opacity="0.7"/><circle cx="127" cy="70" r="1.3" fill="#1B4F72" opacity="0.7"/><circle cx="132" cy="74" r="1.3" fill="#1B4F72" opacity="0.7"/><rect x="160" y="65" width="40" height="40" fill="#EAF4FB" stroke="#2E86C1" stroke-width="2.2"/><circle cx="166" cy="93" r="1.3" fill="#1B4F72" opacity="0.7"/><circle cx="195" cy="75" r="1.3" fill="#1B4F72" opacity="0.7"/><circle cx="179" cy="92" r="1.3" fill="#1B4F72" opacity="0.7"/><circle cx="181" cy="91" r="1.3" fill="#1B4F72" opacity="0.7"/><rect x="25" y="110" width="40" height="40" fill="#EAF4FB" stroke="#2E86C1" stroke-width="2.2"/><circle cx="43" cy="132" r="1.3" fill="#1B4F72" opacity="0.7"/><circle cx="56" cy="122" r="1.3" fill="#1B4F72" opacity="0.7"/><circle cx="50" cy="140" r="1.3" fill="#1B4F72" opacity="0.7"/><circle cx="52" cy="131" r="1.3" fill="#1B4F72" opacity="0.7"/><rect x="70" y="110" width="40" height="40" fill="#EAF4FB" stroke="#2E86C1" stroke-width="2.2"/><circle cx="89" cy="122" r="1.3" fill="#1B4F72" opacity="0.7"/><circle cx="91" cy="135" r="1.3" fill="#1B4F72" opacity="0.7"/><circle cx="75" cy="127" r="1.3" fill="#1B4F72" opacity="0.7"/><circle cx="96" cy="133" r="1.3" fill="#1B4F72" opacity="0.7"/><rect x="115" y="110" width="40" height="40" fill="#EAF4FB" stroke="#2E86C1" stroke-width="2.2"/><circle cx="145" cy="125" r="1.3" fill="#1B4F72" opacity="0.7"/><circle cx="141" cy="135" r="1.3" fill="#1B4F72" opacity="0.7"/><circle cx="133" cy="116" r="1.3" fill="#1B4F72" opacity="0.7"/><circle cx="143" cy="124" r="1.3" fill="#1B4F72" opacity="0.7"/><rect x="160" y="110" width="40" height="40" fill="#EAF4FB" stroke="#2E86C1" stroke-width="2.2"/><circle cx="169" cy="145" r="1.3" fill="#1B4F72" opacity="0.7"/><circle cx="171" cy="143" r="1.3" fill="#1B4F72" opacity="0.7"/><circle cx="166" cy="124" r="1.3" fill="#1B4F72" opacity="0.7"/><circle cx="167" cy="142" r="1.3" fill="#1B4F72" opacity="0.7"/>  <text x="120" y="152" font-family="sans-serif" font-size="7.5" fill="#1b2430" text-anchor="middle" opacity="0.55">Atypical pneumonia — thickened septa, clear alveoli</text>
</svg>