<svg xmlns="http://www.w3.org/2000/svg" viewBox="0 0 240 160" width="240" height="160">
  <rect width="240" height="160" fill="#f8f5fc"/>
<path d="M15 50 Q120 15 225 50 L225 70 Q120 40 15 70 Z" fill="#FCE8A8" stroke="#7C4DBC" stroke-width="1.4"/><circle cx="78" cy="57" r="1.8" fill="#C9637A" opacity="0.85"/><circle cx="44" cy="71" r="1.8" fill="#C9637A" opacity="0.85"/><circle cx="119" cy="63" r="1.8" fill="#C9637A" opacity="0.85"/><circle cx="57" cy="50" r="1.8" fill="#C9637A" opacity="0.85"/><circle cx="35" cy="48" r="1.8" fill="#C9637A" opacity="0.85"/><circle cx="120" cy="65" r="1.8" fill="#C9637A" opacity="0.85"/><circle cx="92" cy="72" r="1.8" fill="#C9637A" opacity="0.85"/><circle cx="33" cy="55" r="1.8" fill="#C9637A" opacity="0.85"/><circle cx="151" cy="65" r="1.8" fill="#C9637A" opacity="0.85"/><circle cx="110" cy="56" r="1.8" fill="#C9637A" opacity="0.85"/><circle cx="217" cy="53" r="1.8" fill="#C9637A" opacity="0.85"/><circle cx="45" cy="56" r="1.8" fill="#C9637A" opacity="0.85"/><circle cx="72" cy="48" r="1.8" fill="#C9637A" opacity="0.85"/><circle cx="182" cy="56" r="1.8" fill="#C9637A" opacity="0.85"/><circle cx="222" cy="56" r="1.8" fill="#C9637A" opacity="0.85"/><circle cx="67" cy="53" r="1.8" fill="#C9637A" opacity="0.85"/><circle cx="97" cy="57" r="1.8" fill="#C9637A" opacity="0.85"/><circle cx="178" cy="71" r="1.8" fill="#C9637A" opacity="0.85"/><circle cx="113" cy="50" r="1.8" fill="#C9637A" opacity="0.85"/><circle cx="173" cy="58" r="1.8" fill="#C9637A" opacity="0.85"/><circle cx="189" cy="60" r="1.8" fill="#C9637A" opacity="0.85"/><circle cx="147" cy="55" r="1.8" fill="#C9637A" opacity="0.85"/><circle cx="63" cy="55" r="1.8" fill="#C9637A" opacity="0.85"/><circle cx="139" cy="56" r="1.8" fill="#C9637A" opacity="0.85"/><circle cx="40" cy="65" r="1.8" fill="#C9637A" opacity="0.85"/><circle cx="94" cy="48" r="1.8" fill="#C9637A" opacity="0.85"/><circle cx="92" cy="66" r="1.8" fill="#C9637A" opacity="0.85"/><circle cx="198" cy="57" r="1.8" fill="#C9637A" opacity="0.85"/><circle cx="213" cy="64" r="1.8" fill="#C9637A" opacity="0.85"/><circle cx="67" cy="61" r="1.8" fill="#C9637A" opacity="0.85"/><circle cx="126" cy="67" r="1.8" fill="#C9637A" opacity="0.85"/><circle cx="91" cy="61" r="1.8" fill="#C9637A" opacity="0.85"/><circle cx="133" cy="53" r="1.8" fill="#C9637A" opacity="0.85"/><circle cx="77" cy="57" r="1.8" fill="#C9637A" opacity="0.85"/><circle cx="84" cy="49" r="1.8" fill="#C9637A" opacity="0.85"/><circle cx="38" cy="49" r="1.8" fill="#C9637A" opacity="0.85"/><circle cx="136" cy="68" r="1.8" fill="#C9637A" opacity="0.85"/><circle cx="89" cy="64" r="1.8" fill="#C9637A" opacity="0.85"/><circle cx="154" cy="68" r="1.8" fill="#C9637A" opacity="0.85"/><circle cx="138" cy="70" r="1.8" fill="#C9637A" opacity="0.85"/><circle cx="105" cy="52" r="1.8" fill="#C9637A" opacity="0.85"/><circle cx="190" cy="54" r="1.8" fill="#C9637A" opacity="0.85"/><circle cx="35" cy="61" r="1.8" fill="#C9637A" opacity="0.85"/><circle cx="69" cy="68" r="1.8" fill="#C9637A" opacity="0.85"/><circle cx="179" cy="62" r="1.8" fill="#C9637A" opacity="0.85"/><circle cx="88" cy="53" r="1.8" fill="#C9637A" opacity="0.85"/><circle cx="109" cy="61" r="1.8" fill="#C9637A" opacity="0.85"/><circle cx="209" cy="66" r="1.8" fill="#C9637A" opacity="0.85"/><circle cx="100" cy="68" r="1.8" fill="#C9637A" opacity="0.85"/><circle cx="160" cy="54" r="1.8" fill="#C9637A" opacity="0.85"/><circle cx="100" cy="51" r="1.8" fill="#C9637A" opacity="0.85"/><circle cx="33" cy="70" r="1.8" fill="#C9637A" opacity="0.85"/><circle cx="76" cy="56" r="1.8" fill="#C9637A" opacity="0.85"/><circle cx="213" cy="66" r="1.8" fill="#C9637A" opacity="0.85"/><circle cx="175" cy="55" r="1.8" fill="#C9637A" opacity="0.85"/><circle cx="49" cy="58" r="1.8" fill="#C9637A" opacity="0.85"/><circle cx="63" cy="57" r="1.8" fill="#C9637A" opacity="0.85"/><circle cx="135" cy="48" r="1.8" fill="#C9637A" opacity="0.85"/><circle cx="28" cy="59" r="1.8" fill="#C9637A" opacity="0.85"/><circle cx="196" cy="50" r="1.8" fill="#C9637A" opacity="0.85"/><circle cx="91" cy="71" r="1.8" fill="#C9637A" opacity="0.85"/><circle cx="190" cy="58" r="1.8" fill="#C9637A" opacity="0.85"/><circle cx="22" cy="58" r="1.8" fill="#C9637A" opacity="0.85"/><circle cx="91" cy="58" r="1.8" fill="#C9637A" opacity="0.85"/><circle cx="57" cy="72" r="1.8" fill="#C9637A" opacity="0.85"/><circle cx="184" cy="61" r="1.8" fill="#C9637A" opacity="0.85"/><circle cx="176" cy="69" r="1.8" fill="#C9637A" opacity="0.85"/><circle cx="37" cy="57" r="1.8" fill="#C9637A" opacity="0.85"/><circle cx="176" cy="54" r="1.8" fill="#C9637A" opacity="0.85"/><circle cx="131" cy="57" r="1.8" fill="#C9637A" opacity="0.85"/><circle cx="52" cy="56" r="1.8" fill="#C9637A" opacity="0.85"/><circle cx="115" cy="67" r="1.8" fill="#C9637A" opacity="0.85"/><circle cx="58" cy="58" r="1.8" fill="#C9637A" opacity="0.85"/><circle cx="164" cy="48" r="1.8" fill="#C9637A" opacity="0.85"/><circle cx="111" cy="49" r="1.8" fill="#C9637A" opacity="0.85"/><circle cx="134" cy="53" r="1.8" fill="#C9637A" opacity="0.85"/><circle cx="111" cy="59" r="1.8" fill="#C9637A" opacity="0.85"/><circle cx="92" cy="66" r="1.8" fill="#C9637A" opacity="0.85"/><circle cx="42" cy="62" r="1.8" fill="#C9637A" opacity="0.85"/><circle cx="71" cy="61" r="1.8" fill="#C9637A" opacity="0.85"/><circle cx="71" cy="51" r="1.8" fill="#C9637A" opacity="0.85"/><circle cx="33" cy="49" r="1.8" fill="#C9637A" opacity="0.85"/><circle cx="32" cy="71" r="1.8" fill="#C9637A" opacity="0.85"/><circle cx="61" cy="67" r="1.8" fill="#C9637A" opacity="0.85"/><circle cx="191" cy="52" r="1.8" fill="#C9637A" opacity="0.85"/><circle cx="173" cy="49" r="1.8" fill="#C9637A" opacity="0.85"/><circle cx="157" cy="63" r="1.8" fill="#C9637A" opacity="0.85"/><circle cx="167" cy="55" r="1.8" fill="#C9637A" opacity="0.85"/><circle cx="100" cy="49" r="1.8" fill="#C9637A" opacity="0.85"/><circle cx="49" cy="64" r="1.8" fill="#C9637A" opacity="0.85"/><path d="M20 95 Q34 75 48 95 Q34 115 20 95 Z" fill="#F1ECFA" stroke="#7C4DBC" stroke-width="1"/><path d="M48 95 Q62 75 76 95 Q62 115 48 95 Z" fill="#F1ECFA" stroke="#7C4DBC" stroke-width="1"/><path d="M76 95 Q90 75 104 95 Q90 115 76 95 Z" fill="#F1ECFA" stroke="#7C4DBC" stroke-width="1"/><path d="M104 95 Q118 75 132 95 Q118 115 104 95 Z" fill="#F1ECFA" stroke="#7C4DBC" stroke-width="1"/><path d="M132 95 Q146 75 160 95 Q146 115 132 95 Z" fill="#F1ECFA" stroke="#7C4DBC" stroke-width="1"/><path d="M160 95 Q174 75 188 95 Q174 115 160 95 Z" fill="#F1ECFA" stroke="#7C4DBC" stroke-width="1"/><path d="M188 95 Q202 75 216 95 Q202 115 188 95 Z" fill="#F1ECFA" stroke="#7C4DBC" stroke-width="1"/><path d="M216 95 Q230 75 244 95 Q230 115 216 95 Z" fill="#F1ECFA" stroke="#7C4DBC" stroke-width="1"/>
  <text x="120.0" y="152" font-family="sans-serif" font-size="7.5" fill="#1b2430" text-anchor="middle" opacity="0.55">Purulent exudate over brain surface — acute bacterial meningitis</text>
</svg>