<svg xmlns="http://www.w3.org/2000/svg" viewBox="0 0 240 160" width="240" height="160">
  <rect width="240" height="160" fill="#f8f5fc"/>
<circle cx="18" cy="26" r="2.5" fill="#E4D9F5" stroke="#7C4DBC" stroke-width="0.6"/><circle cx="26" cy="40" r="2.5" fill="#E4D9F5" stroke="#7C4DBC" stroke-width="0.6"/><circle cx="41" cy="125" r="2.5" fill="#E4D9F5" stroke="#7C4DBC" stroke-width="0.6"/><circle cx="40" cy="107" r="2.5" fill="#E4D9F5" stroke="#7C4DBC" stroke-width="0.6"/><circle cx="60" cy="63" r="2.5" fill="#E4D9F5" stroke="#7C4DBC" stroke-width="0.6"/><circle cx="16" cy="134" r="2.5" fill="#E4D9F5" stroke="#7C4DBC" stroke-width="0.6"/><circle cx="11" cy="109" r="2.5" fill="#E4D9F5" stroke="#7C4DBC" stroke-width="0.6"/><circle cx="37" cy="10" r="2.5" fill="#E4D9F5" stroke="#7C4DBC" stroke-width="0.6"/><circle cx="54" cy="124" r="2.5" fill="#E4D9F5" stroke="#7C4DBC" stroke-width="0.6"/><circle cx="27" cy="68" r="2.5" fill="#E4D9F5" stroke="#7C4DBC" stroke-width="0.6"/><circle cx="47" cy="36" r="2.5" fill="#E4D9F5" stroke="#7C4DBC" stroke-width="0.6"/><circle cx="30" cy="17" r="2.5" fill="#E4D9F5" stroke="#7C4DBC" stroke-width="0.6"/><circle cx="11" cy="16" r="2.5" fill="#E4D9F5" stroke="#7C4DBC" stroke-width="0.6"/><circle cx="51" cy="148" r="2.5" fill="#E4D9F5" stroke="#7C4DBC" stroke-width="0.6"/><ellipse cx="150" cy="85" rx="55" ry="48" fill="none" stroke="#7C4DBC" stroke-width="2"/><ellipse cx="150" cy="85" rx="55" ry="48" fill="#FCEFD8" opacity="0.5"/><circle cx="200.0" cy="85.0" r="3.2" fill="#FDF6E3" stroke="#7C4DBC" stroke-width="0.8"/><circle cx="199.2" cy="92.5" r="3.2" fill="#FDF6E3" stroke="#7C4DBC" stroke-width="0.8"/><circle cx="197.0" cy="99.7" r="3.2" fill="#FDF6E3" stroke="#7C4DBC" stroke-width="0.8"/><circle cx="193.3" cy="106.5" r="3.2" fill="#FDF6E3" stroke="#7C4DBC" stroke-width="0.8"/><circle cx="188.3" cy="112.6" r="3.2" fill="#FDF6E3" stroke="#7C4DBC" stroke-width="0.8"/><circle cx="182.1" cy="117.9" r="3.2" fill="#FDF6E3" stroke="#7C4DBC" stroke-width="0.8"/><circle cx="175.0" cy="122.2" r="3.2" fill="#FDF6E3" stroke="#7C4DBC" stroke-width="0.8"/><circle cx="167.1" cy="125.4" r="3.2" fill="#FDF6E3" stroke="#7C4DBC" stroke-width="0.8"/><circle cx="158.7" cy="127.3" r="3.2" fill="#FDF6E3" stroke="#7C4DBC" stroke-width="0.8"/><circle cx="150.0" cy="128.0" r="3.2" fill="#FDF6E3" stroke="#7C4DBC" stroke-width="0.8"/><circle cx="141.3" cy="127.3" r="3.2" fill="#FDF6E3" stroke="#7C4DBC" stroke-width="0.8"/><circle cx="132.9" cy="125.4" r="3.2" fill="#FDF6E3" stroke="#7C4DBC" stroke-width="0.8"/><circle cx="125.0" cy="122.2" r="3.2" fill="#FDF6E3" stroke="#7C4DBC" stroke-width="0.8"/><circle cx="117.9" cy="117.9" r="3.2" fill="#FDF6E3" stroke="#7C4DBC" stroke-width="0.8"/><circle cx="111.7" cy="112.6" r="3.2" fill="#FDF6E3" stroke="#7C4DBC" stroke-width="0.8"/><circle cx="106.7" cy="106.5" r="3.2" fill="#FDF6E3" stroke="#7C4DBC" stroke-width="0.8"/><circle cx="103.0" cy="99.7" r="3.2" fill="#FDF6E3" stroke="#7C4DBC" stroke-width="0.8"/><circle cx="100.8" cy="92.5" r="3.2" fill="#FDF6E3" stroke="#7C4DBC" stroke-width="0.8"/><circle cx="100.0" cy="85.0" r="3.2" fill="#FDF6E3" stroke="#7C4DBC" stroke-width="0.8"/><circle cx="100.8" cy="77.5" r="3.2" fill="#FDF6E3" stroke="#7C4DBC" stroke-width="0.8"/><circle cx="103.0" cy="70.3" r="3.2" fill="#FDF6E3" stroke="#7C4DBC" stroke-width="0.8"/><circle cx="106.7" cy="63.5" r="3.2" fill="#FDF6E3" stroke="#7C4DBC" stroke-width="0.8"/><circle cx="111.7" cy="57.4" r="3.2" fill="#FDF6E3" stroke="#7C4DBC" stroke-width="0.8"/><circle cx="117.9" cy="52.1" r="3.2" fill="#FDF6E3" stroke="#7C4DBC" stroke-width="0.8"/><circle cx="125.0" cy="47.8" r="3.2" fill="#FDF6E3" stroke="#7C4DBC" stroke-width="0.8"/><circle cx="132.9" cy="44.6" r="3.2" fill="#FDF6E3" stroke="#7C4DBC" stroke-width="0.8"/><circle cx="141.3" cy="42.7" r="3.2" fill="#FDF6E3" stroke="#7C4DBC" stroke-width="0.8"/><circle cx="150.0" cy="42.0" r="3.2" fill="#FDF6E3" stroke="#7C4DBC" stroke-width="0.8"/><circle cx="158.7" cy="42.7" r="3.2" fill="#FDF6E3" stroke="#7C4DBC" stroke-width="0.8"/><circle cx="167.1" cy="44.6" r="3.2" fill="#FDF6E3" stroke="#7C4DBC" stroke-width="0.8"/><circle cx="175.0" cy="47.8" r="3.2" fill="#FDF6E3" stroke="#7C4DBC" stroke-width="0.8"/><circle cx="182.1" cy="52.1" r="3.2" fill="#FDF6E3" stroke="#7C4DBC" stroke-width="0.8"/><circle cx="188.3" cy="57.4" r="3.2" fill="#FDF6E3" stroke="#7C4DBC" stroke-width="0.8"/><circle cx="193.3" cy="63.5" r="3.2" fill="#FDF6E3" stroke="#7C4DBC" stroke-width="0.8"/><circle cx="197.0" cy="70.3" r="3.2" fill="#FDF6E3" stroke="#7C4DBC" stroke-width="0.8"/><circle cx="199.2" cy="77.5" r="3.2" fill="#FDF6E3" stroke="#7C4DBC" stroke-width="0.8"/><ellipse cx="150" cy="85" rx="36" ry="30" fill="#fff" opacity="0.9"/><rect x="138" y="33" width="24" height="14" rx="4" fill="none" stroke="#7C4DBC" stroke-width="1.4"/>
  <text x="120.0" y="152" font-family="sans-serif" font-size="7.5" fill="#1b2430" text-anchor="middle" opacity="0.55">Bartholin duct cyst — lined by transitional epithelium</text>
</svg>