<svg xmlns="http://www.w3.org/2000/svg" viewBox="0 0 240 160" width="240" height="160">
  <rect width="240" height="160" fill="#f8f5fc"/>
  <ellipse cx="128" cy="48" rx="14" ry="13" fill="#f8f5fc" stroke="#7C4DBC" stroke-width="2"/><ellipse cx="128" cy="48" rx="9" ry="8" fill="none" stroke="#E4D9F5" stroke-width="2.4"/><ellipse cx="62" cy="45" rx="16" ry="13" fill="#f8f5fc" stroke="#7C4DBC" stroke-width="2"/><ellipse cx="62" cy="45" rx="11" ry="8" fill="none" stroke="#E4D9F5" stroke-width="2.4"/><ellipse cx="218" cy="68" rx="20" ry="15" fill="#f8f5fc" stroke="#7C4DBC" stroke-width="2"/><ellipse cx="218" cy="68" rx="13" ry="9" fill="none" stroke="#E4D9F5" stroke-width="2.4"/><ellipse cx="69" cy="23" rx="15" ry="14" fill="#f8f5fc" stroke="#7C4DBC" stroke-width="2"/><ellipse cx="69" cy="23" rx="10" ry="9" fill="none" stroke="#E4D9F5" stroke-width="2.4"/><ellipse cx="140" cy="121" rx="20" ry="13" fill="#f8f5fc" stroke="#7C4DBC" stroke-width="2"/><ellipse cx="140" cy="121" rx="13" ry="8" fill="none" stroke="#E4D9F5" stroke-width="2.4"/><ellipse cx="127" cy="23" rx="14" ry="14" fill="#f8f5fc" stroke="#7C4DBC" stroke-width="2"/><ellipse cx="127" cy="23" rx="9" ry="8" fill="none" stroke="#E4D9F5" stroke-width="2.4"/><ellipse cx="154" cy="103" rx="17" ry="13" fill="#f8f5fc" stroke="#7C4DBC" stroke-width="2"/><ellipse cx="154" cy="103" rx="11" ry="8" fill="none" stroke="#E4D9F5" stroke-width="2.4"/><ellipse cx="148" cy="118" rx="15" ry="12" fill="#f8f5fc" stroke="#7C4DBC" stroke-width="2"/><ellipse cx="148" cy="118" rx="10" ry="7" fill="none" stroke="#E4D9F5" stroke-width="2.4"/><ellipse cx="82" cy="110" rx="19" ry="11" fill="#f8f5fc" stroke="#7C4DBC" stroke-width="2"/><ellipse cx="82" cy="110" rx="13" ry="7" fill="none" stroke="#E4D9F5" stroke-width="2.4"/><ellipse cx="36" cy="43" rx="16" ry="14" fill="#f8f5fc" stroke="#7C4DBC" stroke-width="2"/><ellipse cx="36" cy="43" rx="10" ry="8" fill="none" stroke="#E4D9F5" stroke-width="2.4"/><ellipse cx="102" cy="101" rx="16" ry="13" fill="#f8f5fc" stroke="#7C4DBC" stroke-width="2"/><ellipse cx="102" cy="101" rx="10" ry="8" fill="none" stroke="#E4D9F5" stroke-width="2.4"/><ellipse cx="57" cy="89" rx="17" ry="14" fill="#f8f5fc" stroke="#7C4DBC" stroke-width="2"/><ellipse cx="57" cy="89" rx="11" ry="9" fill="none" stroke="#E4D9F5" stroke-width="2.4"/><ellipse cx="210" cy="75" rx="14" ry="15" fill="#f8f5fc" stroke="#7C4DBC" stroke-width="2"/><ellipse cx="210" cy="75" rx="9" ry="9" fill="none" stroke="#E4D9F5" stroke-width="2.4"/>
  <text x="120.0" y="152" font-family="sans-serif" font-size="7.5" fill="#1b2430" text-anchor="middle" opacity="0.55">BPH — glands with double epithelial layer</text>
</svg>