<svg xmlns="http://www.w3.org/2000/svg" viewBox="0 0 240 160" width="240" height="160">
  <rect width="240" height="160" fill="#f8f5fc"/>
  <rect x="8" y="8" width="224" height="136" rx="12" fill="#F1ECFA" stroke="#7C4DBC" stroke-width="2"/><circle cx="156.8" cy="41.3" r="7.1" fill="#E4D9F5" stroke="#7C4DBC" stroke-width="1.1"/><circle cx="156.8" cy="41.3" r="2.5" fill="#7C4DBC"/><circle cx="193.7" cy="61.5" r="8.2" fill="#E4D9F5" stroke="#7C4DBC" stroke-width="1.1"/><circle cx="193.7" cy="61.5" r="2.9" fill="#7C4DBC"/><circle cx="146.4" cy="41.2" r="8.2" fill="#E4D9F5" stroke="#7C4DBC" stroke-width="1.1"/><circle cx="146.4" cy="41.2" r="2.9" fill="#7C4DBC"/><circle cx="113.2" cy="111.9" r="7.1" fill="#E4D9F5" stroke="#7C4DBC" stroke-width="1.1"/><circle cx="113.2" cy="111.9" r="2.5" fill="#7C4DBC"/><circle cx="84.2" cy="104.2" r="12.3" fill="#E4D9F5" stroke="#7C4DBC" stroke-width="1.1"/><circle cx="84.2" cy="104.2" r="4.3" fill="#7C4DBC"/><circle cx="94.5" cy="50.6" r="8.5" fill="#E4D9F5" stroke="#7C4DBC" stroke-width="1.1"/><circle cx="94.5" cy="50.6" r="3.0" fill="#7C4DBC"/><circle cx="181.5" cy="103.7" r="7.5" fill="#E4D9F5" stroke="#7C4DBC" stroke-width="1.1"/><circle cx="181.5" cy="103.7" r="2.6" fill="#7C4DBC"/><circle cx="201.5" cy="103.8" r="10.3" fill="#E4D9F5" stroke="#7C4DBC" stroke-width="1.1"/><circle cx="201.5" cy="103.8" r="3.6" fill="#7C4DBC"/><circle cx="168.8" cy="41.0" r="7.0" fill="#E4D9F5" stroke="#7C4DBC" stroke-width="1.1"/><circle cx="168.8" cy="41.0" r="2.5" fill="#7C4DBC"/>
  <text x="120.0" y="152" font-family="sans-serif" font-size="8.5" fill="#1b2430" text-anchor="middle" opacity="0.55">Benign Prostatic Hyperplasia (BPH) (schematic placeholder)</text>
</svg>