<svg xmlns="http://www.w3.org/2000/svg" viewBox="0 0 240 160" width="240" height="160">
  <rect width="240" height="160" fill="#f8f5fc"/>
  <rect x="8" y="8" width="224" height="136" rx="12" fill="#F1ECFA" stroke="#7C4DBC" stroke-width="2"/><circle cx="163.5" cy="79.4" r="8.7" fill="#E4D9F5" stroke="#7C4DBC" stroke-width="1.1"/><circle cx="163.5" cy="79.4" r="3.0" fill="#7C4DBC"/><circle cx="71.2" cy="102.6" r="12.5" fill="#E4D9F5" stroke="#7C4DBC" stroke-width="1.1"/><circle cx="71.2" cy="102.6" r="4.4" fill="#7C4DBC"/><circle cx="166.5" cy="42.5" r="10.0" fill="#E4D9F5" stroke="#7C4DBC" stroke-width="1.1"/><circle cx="166.5" cy="42.5" r="3.5" fill="#7C4DBC"/><circle cx="134.0" cy="52.2" r="8.6" fill="#E4D9F5" stroke="#7C4DBC" stroke-width="1.1"/><circle cx="134.0" cy="52.2" r="3.0" fill="#7C4DBC"/><circle cx="139.2" cy="49.0" r="9.2" fill="#E4D9F5" stroke="#7C4DBC" stroke-width="1.1"/><circle cx="139.2" cy="49.0" r="3.2" fill="#7C4DBC"/><circle cx="130.8" cy="33.8" r="12.9" fill="#E4D9F5" stroke="#7C4DBC" stroke-width="1.1"/><circle cx="130.8" cy="33.8" r="4.5" fill="#7C4DBC"/><circle cx="102.7" cy="72.6" r="9.8" fill="#E4D9F5" stroke="#7C4DBC" stroke-width="1.1"/><circle cx="102.7" cy="72.6" r="3.4" fill="#7C4DBC"/><circle cx="156.5" cy="72.4" r="9.5" fill="#E4D9F5" stroke="#7C4DBC" stroke-width="1.1"/><circle cx="156.5" cy="72.4" r="3.3" fill="#7C4DBC"/><circle cx="138.1" cy="93.1" r="11.3" fill="#E4D9F5" stroke="#7C4DBC" stroke-width="1.1"/><circle cx="138.1" cy="93.1" r="3.9" fill="#7C4DBC"/>
  <text x="120.0" y="152" font-family="sans-serif" font-size="8.5" fill="#1b2430" text-anchor="middle" opacity="0.55">Bronchogenic Carcinoma (schematic placeholder)</text>
</svg>