<svg xmlns="http://www.w3.org/2000/svg" viewBox="0 0 240 160" width="240" height="160">
  <rect width="240" height="160" fill="#f8f5fc"/>
  <path d="M 134 56 L 127 70 L 108 72 L 97 68 L 98 58 L 112 44 L 123 51 Z" fill="#E4D9F5" stroke="#7C4DBC" stroke-width="1.3"/><circle cx="113" cy="60" r="4.5" fill="#1b2430"/><path d="M 94 36 L 84 52 L 70 55 L 61 45 L 56 25 L 69 23 L 80 23 Z" fill="#E4D9F5" stroke="#7C4DBC" stroke-width="1.3"/><circle cx="73" cy="36" r="4.5" fill="#1b2430"/><path d="M 101 98 L 86 113 L 78 119 L 69 113 L 71 94 L 78 89 L 94 86 Z" fill="#E4D9F5" stroke="#7C4DBC" stroke-width="1.3"/><circle cx="81" cy="102" r="4.5" fill="#1b2430"/><path d="M 83 21 L 77 33 L 62 46 L 53 33 L 55 19 L 64 12 L 81 10 Z" fill="#E4D9F5" stroke="#7C4DBC" stroke-width="1.3"/><circle cx="67" cy="26" r="4.5" fill="#1b2430"/><path d="M 53 79 L 56 93 L 33 89 L 19 85 L 22 73 L 32 64 L 52 65 Z" fill="#E4D9F5" stroke="#7C4DBC" stroke-width="1.3"/><circle cx="40" cy="78" r="4.5" fill="#1b2430"/><path d="M 190 31 L 179 47 L 166 55 L 158 38 L 157 24 L 166 20 L 179 21 Z" fill="#E4D9F5" stroke="#7C4DBC" stroke-width="1.3"/><circle cx="169" cy="33" r="4.5" fill="#1b2430"/><path d="M 65 80 L 62 96 L 39 100 L 32 89 L 32 76 L 38 65 L 55 72 Z" fill="#E4D9F5" stroke="#7C4DBC" stroke-width="1.3"/><circle cx="46" cy="85" r="4.5" fill="#1b2430"/>
  <text x="120.0" y="152" font-family="sans-serif" font-size="7.5" fill="#1b2430" text-anchor="middle" opacity="0.55">Bronchogenic carcinoma — invasive cell nests</text>
</svg>