<svg xmlns="http://www.w3.org/2000/svg" viewBox="0 0 240 160" width="240" height="160">
  <rect width="240" height="160" fill="#f8f5fc"/>
<circle cx="40" cy="40" r="12" fill="#FDEDEC" stroke="#C0392B" stroke-width="1.1" opacity="0.6"/><circle cx="38" cy="33" r="1.4" fill="#922B21" opacity="0.8"/><circle cx="45" cy="44" r="1.4" fill="#922B21" opacity="0.8"/><circle cx="45" cy="50" r="1.4" fill="#922B21" opacity="0.8"/><circle cx="70" cy="55" r="16" fill="#FDEDEC" stroke="#C0392B" stroke-width="1.1" opacity="0.6"/><circle cx="59" cy="56" r="1.4" fill="#922B21" opacity="0.8"/><circle cx="56" cy="69" r="1.4" fill="#922B21" opacity="0.8"/><circle cx="82" cy="53" r="1.4" fill="#922B21" opacity="0.8"/><circle cx="69" cy="60" r="1.4" fill="#922B21" opacity="0.8"/><circle cx="50" cy="90" r="10" fill="#FDEDEC" stroke="#C0392B" stroke-width="1.1" opacity="0.6"/><circle cx="50" cy="89" r="1.4" fill="#922B21" opacity="0.8"/><circle cx="45" cy="92" r="1.4" fill="#922B21" opacity="0.8"/><circle cx="42" cy="82" r="1.4" fill="#922B21" opacity="0.8"/><circle cx="42" cy="82" r="1.4" fill="#922B21" opacity="0.8"/><circle cx="54" cy="88" r="1.4" fill="#922B21" opacity="0.8"/><circle cx="55" cy="82" r="1.4" fill="#922B21" opacity="0.8"/><circle cx="90" cy="40" r="12" fill="#FDEDEC" stroke="#C0392B" stroke-width="1.1" opacity="0.6"/><circle cx="95" cy="47" r="1.4" fill="#922B21" opacity="0.8"/><circle cx="87" cy="41" r="1.4" fill="#922B21" opacity="0.8"/><circle cx="87" cy="37" r="1.4" fill="#922B21" opacity="0.8"/><circle cx="94" cy="39" r="1.4" fill="#922B21" opacity="0.8"/><circle cx="80" cy="43" r="1.4" fill="#922B21" opacity="0.8"/><circle cx="97" cy="50" r="1.4" fill="#922B21" opacity="0.8"/><circle cx="110" cy="100" r="10" fill="#FDEDEC" stroke="#C0392B" stroke-width="1.1" opacity="0.6"/><circle cx="111" cy="95" r="1.4" fill="#922B21" opacity="0.8"/><circle cx="112" cy="108" r="1.4" fill="#922B21" opacity="0.8"/><circle cx="115" cy="108" r="1.4" fill="#922B21" opacity="0.8"/><circle cx="108" cy="101" r="1.4" fill="#922B21" opacity="0.8"/><circle cx="150" cy="50" r="14" fill="#FDEDEC" stroke="#C0392B" stroke-width="1.1" opacity="0.6"/><circle cx="154" cy="50" r="1.4" fill="#922B21" opacity="0.8"/><circle cx="156" cy="39" r="1.4" fill="#922B21" opacity="0.8"/><circle cx="153" cy="45" r="1.4" fill="#922B21" opacity="0.8"/><circle cx="161" cy="50" r="1.4" fill="#922B21" opacity="0.8"/><circle cx="151" cy="59" r="1.4" fill="#922B21" opacity="0.8"/><circle cx="143" cy="49" r="1.4" fill="#922B21" opacity="0.8"/><circle cx="170" cy="90" r="14" fill="#FDEDEC" stroke="#C0392B" stroke-width="1.1" opacity="0.6"/><circle cx="172" cy="99" r="1.4" fill="#922B21" opacity="0.8"/><circle cx="174" cy="81" r="1.4" fill="#922B21" opacity="0.8"/><circle cx="182" cy="83" r="1.4" fill="#922B21" opacity="0.8"/><circle cx="190" cy="40" r="16" fill="#FDEDEC" stroke="#C0392B" stroke-width="1.1" opacity="0.6"/><circle cx="191" cy="49" r="1.4" fill="#922B21" opacity="0.8"/><circle cx="176" cy="41" r="1.4" fill="#922B21" opacity="0.8"/><circle cx="177" cy="35" r="1.4" fill="#922B21" opacity="0.8"/><circle cx="198" cy="53" r="1.4" fill="#922B21" opacity="0.8"/><circle cx="195" cy="44" r="1.4" fill="#922B21" opacity="0.8"/><circle cx="60" cy="130" r="16" fill="#FDEDEC" stroke="#C0392B" stroke-width="1.1" opacity="0.6"/><circle cx="51" cy="132" r="1.4" fill="#922B21" opacity="0.8"/><circle cx="53" cy="116" r="1.4" fill="#922B21" opacity="0.8"/><circle cx="70" cy="122" r="1.4" fill="#922B21" opacity="0.8"/><circle cx="63" cy="143" r="1.4" fill="#922B21" opacity="0.8"/><circle cx="130" cy="130" r="12" fill="#FDEDEC" stroke="#C0392B" stroke-width="1.1" opacity="0.6"/><circle cx="136" cy="131" r="1.4" fill="#922B21" opacity="0.8"/><circle cx="138" cy="131" r="1.4" fill="#922B21" opacity="0.8"/><circle cx="134" cy="128" r="1.4" fill="#922B21" opacity="0.8"/><circle cx="137" cy="139" r="1.4" fill="#922B21" opacity="0.8"/><circle cx="120" cy="132" r="1.4" fill="#922B21" opacity="0.8"/><circle cx="136" cy="124" r="1.4" fill="#922B21" opacity="0.8"/><circle cx="190" cy="130" r="12" fill="#FDEDEC" stroke="#C0392B" stroke-width="1.1" opacity="0.6"/><circle cx="181" cy="135" r="1.4" fill="#922B21" opacity="0.8"/><circle cx="191" cy="138" r="1.4" fill="#922B21" opacity="0.8"/><circle cx="197" cy="126" r="1.4" fill="#922B21" opacity="0.8"/><circle cx="196" cy="133" r="1.4" fill="#922B21" opacity="0.8"/><circle cx="195" cy="131" r="1.4" fill="#922B21" opacity="0.8"/><circle cx="193" cy="131" r="1.4" fill="#922B21" opacity="0.8"/><circle cx="30" cy="100" r="10" fill="#FDEDEC" stroke="#C0392B" stroke-width="1.1" opacity="0.6"/><circle cx="36" cy="92" r="1.4" fill="#922B21" opacity="0.8"/><circle cx="29" cy="97" r="1.4" fill="#922B21" opacity="0.8"/><circle cx="27" cy="94" r="1.4" fill="#922B21" opacity="0.8"/><circle cx="30" cy="93" r="1.4" fill="#922B21" opacity="0.8"/><circle cx="24" cy="94" r="1.4" fill="#922B21" opacity="0.8"/>  <text x="120" y="152" font-family="sans-serif" font-size="7.5" fill="#1b2430" text-anchor="middle" opacity="0.55">Bronchopneumonia — patchy peribronchiolar foci</text>
</svg>