<svg xmlns="http://www.w3.org/2000/svg" viewBox="0 0 240 160" width="240" height="160">
  <rect width="240" height="160" fill="#f8f5fc"/>
<rect x="10" y="60" width="220" height="75" fill="#F1ECFA" stroke="#7C4DBC" stroke-width="1.2"/><path d="M10 60 Q60 50 110 62 Q160 52 230 60" stroke="#cbb98a" stroke-width="6" fill="none"/><path d="M60 60 L70 110 L80 60" fill="#fff8f0" stroke="#b5481f" stroke-width="1.4"/><circle cx="66.1" cy="95.7" r="1.6" fill="#C9637A"/><circle cx="70.4" cy="96.8" r="1.6" fill="#C9637A"/><circle cx="66.9" cy="95.0" r="1.6" fill="#C9637A"/><circle cx="66.8" cy="98.2" r="1.6" fill="#C9637A"/><circle cx="67.0" cy="97.3" r="1.6" fill="#C9637A"/><circle cx="71.8" cy="97.7" r="1.6" fill="#C9637A"/><circle cx="74.1" cy="95.6" r="1.6" fill="#C9637A"/><circle cx="74.8" cy="98.4" r="1.6" fill="#C9637A"/><circle cx="70.5" cy="96.6" r="1.6" fill="#C9637A"/><circle cx="74.4" cy="95.3" r="1.6" fill="#C9637A"/><circle cx="67.8" cy="95.1" r="1.6" fill="#C9637A"/><circle cx="71.1" cy="99.4" r="1.6" fill="#C9637A"/><circle cx="77.1" cy="96.7" r="1.6" fill="#C9637A"/><circle cx="62.7" cy="96.7" r="1.6" fill="#C9637A"/><circle cx="77.8" cy="97.1" r="1.6" fill="#C9637A"/><circle cx="75.7" cy="98.0" r="1.6" fill="#C9637A"/><circle cx="65.5" cy="97.0" r="1.6" fill="#C9637A"/><circle cx="64.7" cy="98.1" r="1.6" fill="#C9637A"/><circle cx="66.6" cy="96.5" r="1.6" fill="#C9637A"/><circle cx="63.7" cy="95.4" r="1.6" fill="#C9637A"/><path d="M150 60 L160 110 L170 60" fill="#fff8f0" stroke="#b5481f" stroke-width="1.4"/><circle cx="164.1" cy="96.0" r="1.6" fill="#C9637A"/><circle cx="165.2" cy="96.9" r="1.6" fill="#C9637A"/><circle cx="156.5" cy="97.7" r="1.6" fill="#C9637A"/><circle cx="159.1" cy="99.6" r="1.6" fill="#C9637A"/><circle cx="156.4" cy="97.3" r="1.6" fill="#C9637A"/><circle cx="161.8" cy="96.3" r="1.6" fill="#C9637A"/><circle cx="162.3" cy="95.2" r="1.6" fill="#C9637A"/><circle cx="161.4" cy="98.2" r="1.6" fill="#C9637A"/><circle cx="161.1" cy="99.6" r="1.6" fill="#C9637A"/><circle cx="152.9" cy="98.0" r="1.6" fill="#C9637A"/><circle cx="153.4" cy="95.8" r="1.6" fill="#C9637A"/><circle cx="166.3" cy="95.2" r="1.6" fill="#C9637A"/><circle cx="156.8" cy="95.4" r="1.6" fill="#C9637A"/><circle cx="155.4" cy="98.0" r="1.6" fill="#C9637A"/><circle cx="163.0" cy="95.4" r="1.6" fill="#C9637A"/><circle cx="161.2" cy="97.4" r="1.6" fill="#C9637A"/><circle cx="158.9" cy="96.0" r="1.6" fill="#C9637A"/><circle cx="158.8" cy="97.7" r="1.6" fill="#C9637A"/><circle cx="154.3" cy="95.5" r="1.6" fill="#C9637A"/><circle cx="154.4" cy="98.1" r="1.6" fill="#C9637A"/>
  <text x="120.0" y="152" font-family="sans-serif" font-size="7.5" fill="#1b2430" text-anchor="middle" opacity="0.55">Pseudomembranous colitis - volcano lesion with exudate</text>
</svg>