<svg xmlns="http://www.w3.org/2000/svg" viewBox="0 0 240 160" width="240" height="160">
  <rect width="240" height="160" fill="#f8f5fc"/>
  <circle cx="120" cy="75" r="55" fill="none" stroke="#7C4DBC" stroke-width="2"/><path d="M85 60 q 10 -15 35 -10 q 25 5 30 25 q 5 20 -15 30 q -20 10 -40 -2 q -20 -12 -10 -43 Z" fill="#D9C49A" opacity="0.85"/><circle cx="153" cy="112" r="4.5" fill="#E4D9F5" stroke="#7C4DBC" stroke-width="1"/><circle cx="124" cy="32" r="4.5" fill="#E4D9F5" stroke="#7C4DBC" stroke-width="1"/><circle cx="75" cy="76" r="4.5" fill="#E4D9F5" stroke="#7C4DBC" stroke-width="1"/><circle cx="91" cy="35" r="4.5" fill="#E4D9F5" stroke="#7C4DBC" stroke-width="1"/><circle cx="154" cy="97" r="4.5" fill="#E4D9F5" stroke="#7C4DBC" stroke-width="1"/><circle cx="143" cy="36" r="4.5" fill="#E4D9F5" stroke="#7C4DBC" stroke-width="1"/><circle cx="123" cy="35" r="4.5" fill="#E4D9F5" stroke="#7C4DBC" stroke-width="1"/><circle cx="74" cy="91" r="4.5" fill="#E4D9F5" stroke="#7C4DBC" stroke-width="1"/><circle cx="127" cy="126" r="4.5" fill="#E4D9F5" stroke="#7C4DBC" stroke-width="1"/><circle cx="153" cy="52" r="4.5" fill="#E4D9F5" stroke="#7C4DBC" stroke-width="1"/><circle cx="166" cy="82" r="4.5" fill="#E4D9F5" stroke="#7C4DBC" stroke-width="1"/><circle cx="161" cy="58" r="4.5" fill="#E4D9F5" stroke="#7C4DBC" stroke-width="1"/><circle cx="129" cy="119" r="4.5" fill="#E4D9F5" stroke="#7C4DBC" stroke-width="1"/><circle cx="162" cy="83" r="4.5" fill="#E4D9F5" stroke="#7C4DBC" stroke-width="1"/><circle cx="78" cy="92" r="4.5" fill="#E4D9F5" stroke="#7C4DBC" stroke-width="1"/><circle cx="125" cy="118" r="4.5" fill="#E4D9F5" stroke="#7C4DBC" stroke-width="1"/>
  <text x="120.0" y="152" font-family="sans-serif" font-size="7.5" fill="#1b2430" text-anchor="middle" opacity="0.55">Caseous necrosis — amorphous center</text>
</svg>