<svg xmlns="http://www.w3.org/2000/svg" viewBox="0 0 240 160" width="240" height="160">
  <rect width="240" height="160" fill="#f8f5fc"/>
  <rect x="8" y="8" width="224" height="136" rx="12" fill="#F1ECFA" stroke="#7C4DBC" stroke-width="2"/><circle cx="125.2" cy="32.6" r="11.6" fill="#E4D9F5" stroke="#7C4DBC" stroke-width="1.1"/><circle cx="125.2" cy="32.6" r="4.1" fill="#7C4DBC"/><circle cx="112.5" cy="84.0" r="11.9" fill="#E4D9F5" stroke="#7C4DBC" stroke-width="1.1"/><circle cx="112.5" cy="84.0" r="4.2" fill="#7C4DBC"/><circle cx="194.7" cy="109.9" r="12.9" fill="#E4D9F5" stroke="#7C4DBC" stroke-width="1.1"/><circle cx="194.7" cy="109.9" r="4.5" fill="#7C4DBC"/><circle cx="114.9" cy="123.0" r="9.6" fill="#E4D9F5" stroke="#7C4DBC" stroke-width="1.1"/><circle cx="114.9" cy="123.0" r="3.4" fill="#7C4DBC"/><circle cx="142.6" cy="63.6" r="8.2" fill="#E4D9F5" stroke="#7C4DBC" stroke-width="1.1"/><circle cx="142.6" cy="63.6" r="2.9" fill="#7C4DBC"/><circle cx="167.5" cy="33.3" r="10.1" fill="#E4D9F5" stroke="#7C4DBC" stroke-width="1.1"/><circle cx="167.5" cy="33.3" r="3.5" fill="#7C4DBC"/><circle cx="124.7" cy="110.3" r="8.5" fill="#E4D9F5" stroke="#7C4DBC" stroke-width="1.1"/><circle cx="124.7" cy="110.3" r="3.0" fill="#7C4DBC"/><circle cx="87.1" cy="84.3" r="9.4" fill="#E4D9F5" stroke="#7C4DBC" stroke-width="1.1"/><circle cx="87.1" cy="84.3" r="3.3" fill="#7C4DBC"/><circle cx="81.3" cy="29.5" r="7.5" fill="#E4D9F5" stroke="#7C4DBC" stroke-width="1.1"/><circle cx="81.3" cy="29.5" r="2.6" fill="#7C4DBC"/>
  <text x="120.0" y="152" font-family="sans-serif" font-size="8.5" fill="#1b2430" text-anchor="middle" opacity="0.55">Caseous Necrosis (schematic placeholder)</text>
</svg>