<svg xmlns="http://www.w3.org/2000/svg" viewBox="0 0 240 160" width="240" height="160">
  <rect width="240" height="160" fill="#f8f5fc"/>
<rect x="10" y="80" width="220" height="55" fill="#F1ECFA" stroke="#7C4DBC" stroke-width="1.2"/><rect x="17" y="55" width="6" height="28" rx="3" fill="#FCEFD8" stroke="#7C4DBC" stroke-width="1"/><rect x="37" y="55" width="6" height="28" rx="3" fill="#FCEFD8" stroke="#7C4DBC" stroke-width="1"/><rect x="57" y="55" width="6" height="28" rx="3" fill="#FCEFD8" stroke="#7C4DBC" stroke-width="1"/><rect x="77" y="55" width="6" height="28" rx="3" fill="#FCEFD8" stroke="#7C4DBC" stroke-width="1"/><rect x="97" y="55" width="6" height="28" rx="3" fill="#FCEFD8" stroke="#7C4DBC" stroke-width="1"/><rect x="117" y="55" width="6" height="28" rx="3" fill="#FCEFD8" stroke="#7C4DBC" stroke-width="1"/><rect x="137" y="55" width="6" height="28" rx="3" fill="#FCEFD8" stroke="#7C4DBC" stroke-width="1"/><rect x="157" y="55" width="6" height="28" rx="3" fill="#FCEFD8" stroke="#7C4DBC" stroke-width="1"/><rect x="177" y="55" width="6" height="28" rx="3" fill="#FCEFD8" stroke="#7C4DBC" stroke-width="1"/><rect x="197" y="55" width="6" height="28" rx="3" fill="#FCEFD8" stroke="#7C4DBC" stroke-width="1"/><rect x="217" y="55" width="6" height="28" rx="3" fill="#FCEFD8" stroke="#7C4DBC" stroke-width="1"/><circle cx="73" cy="105" r="1.8" fill="#9b7cc9" stroke="#7C4DBC" stroke-width="0.6"/><circle cx="111" cy="90" r="1.8" fill="#9b7cc9" stroke="#7C4DBC" stroke-width="0.6"/><circle cx="64" cy="127" r="1.8" fill="#9b7cc9" stroke="#7C4DBC" stroke-width="0.6"/><circle cx="26" cy="87" r="1.8" fill="#9b7cc9" stroke="#7C4DBC" stroke-width="0.6"/><circle cx="50" cy="97" r="1.8" fill="#9b7cc9" stroke="#7C4DBC" stroke-width="0.6"/><circle cx="222" cy="114" r="1.8" fill="#9b7cc9" stroke="#7C4DBC" stroke-width="0.6"/><circle cx="68" cy="107" r="1.8" fill="#9b7cc9" stroke="#7C4DBC" stroke-width="0.6"/><circle cx="179" cy="83" r="1.8" fill="#9b7cc9" stroke="#7C4DBC" stroke-width="0.6"/><circle cx="132" cy="113" r="1.8" fill="#9b7cc9" stroke="#7C4DBC" stroke-width="0.6"/><circle cx="131" cy="106" r="1.8" fill="#9b7cc9" stroke="#7C4DBC" stroke-width="0.6"/>
  <text x="120.0" y="152" font-family="sans-serif" font-size="7.5" fill="#1b2430" text-anchor="middle" opacity="0.55">Celiac disease - blunted villi and crypt hyperplasia</text>
</svg>