<svg xmlns="http://www.w3.org/2000/svg" viewBox="0 0 240 160" width="240" height="160">
  <rect width="240" height="160" fill="#f8f5fc"/>
<rect x="10" y="20" width="220" height="115" fill="#fbf9fb" stroke="#7C4DBC" stroke-width="1.6"/><ellipse cx="16.0" cy="27" rx="3.0" ry="3.9" fill="#9b7cc9" opacity="0.85"/><ellipse cx="29.5" cy="26" rx="3.0" ry="3.9" fill="#9b7cc9" opacity="0.85"/><ellipse cx="44.0" cy="27" rx="3.0" ry="3.9" fill="#9b7cc9" opacity="0.85"/><ellipse cx="54.5" cy="24" rx="3.0" ry="3.9" fill="#9b7cc9" opacity="0.85"/><ellipse cx="71.0" cy="26" rx="3.0" ry="3.9" fill="#9b7cc9" opacity="0.85"/><ellipse cx="84.5" cy="24" rx="3.0" ry="3.9" fill="#9b7cc9" opacity="0.85"/><ellipse cx="94.0" cy="26" rx="3.0" ry="3.9" fill="#9b7cc9" opacity="0.85"/><ellipse cx="109.5" cy="24" rx="3.0" ry="3.9" fill="#9b7cc9" opacity="0.85"/><ellipse cx="121.0" cy="27" rx="3.0" ry="3.9" fill="#9b7cc9" opacity="0.85"/><ellipse cx="134.5" cy="27" rx="3.0" ry="3.9" fill="#9b7cc9" opacity="0.85"/><ellipse cx="151.0" cy="26" rx="3.0" ry="3.9" fill="#9b7cc9" opacity="0.85"/><ellipse cx="165.5" cy="24" rx="3.0" ry="3.9" fill="#9b7cc9" opacity="0.85"/><ellipse cx="179.0" cy="23" rx="3.0" ry="3.9" fill="#9b7cc9" opacity="0.85"/><ellipse cx="192.5" cy="23" rx="3.0" ry="3.9" fill="#9b7cc9" opacity="0.85"/><ellipse cx="202.0" cy="23" rx="3.0" ry="3.9" fill="#9b7cc9" opacity="0.85"/><ellipse cx="216.5" cy="24" rx="3.0" ry="3.9" fill="#9b7cc9" opacity="0.85"/><ellipse cx="17.0" cy="35" rx="3.2" ry="4.1" fill="#9b7cc9" opacity="0.85"/><ellipse cx="29.5" cy="37" rx="3.2" ry="4.1" fill="#9b7cc9" opacity="0.85"/><ellipse cx="43.0" cy="39" rx="3.2" ry="4.1" fill="#9b7cc9" opacity="0.85"/><ellipse cx="54.5" cy="39" rx="3.2" ry="4.1" fill="#9b7cc9" opacity="0.85"/><ellipse cx="68.0" cy="37" rx="3.2" ry="4.1" fill="#9b7cc9" opacity="0.85"/><ellipse cx="83.5" cy="35" rx="3.2" ry="4.1" fill="#9b7cc9" opacity="0.85"/><ellipse cx="94.0" cy="38" rx="3.2" ry="4.1" fill="#9b7cc9" opacity="0.85"/><ellipse cx="109.5" cy="38" rx="3.2" ry="4.1" fill="#9b7cc9" opacity="0.85"/><ellipse cx="125.0" cy="35" rx="3.2" ry="4.1" fill="#9b7cc9" opacity="0.85"/><ellipse cx="136.5" cy="37" rx="3.2" ry="4.1" fill="#9b7cc9" opacity="0.85"/><ellipse cx="149.0" cy="39" rx="3.2" ry="4.1" fill="#9b7cc9" opacity="0.85"/><ellipse cx="163.5" cy="35" rx="3.2" ry="4.1" fill="#9b7cc9" opacity="0.85"/><ellipse cx="175.0" cy="39" rx="3.2" ry="4.1" fill="#9b7cc9" opacity="0.85"/><ellipse cx="188.5" cy="38" rx="3.2" ry="4.1" fill="#9b7cc9" opacity="0.85"/><ellipse cx="202.0" cy="37" rx="3.2" ry="4.1" fill="#9b7cc9" opacity="0.85"/><ellipse cx="218.5" cy="35" rx="3.2" ry="4.1" fill="#9b7cc9" opacity="0.85"/><ellipse cx="13.0" cy="47" rx="3.3" ry="4.3" fill="#5b3a99" opacity="0.85"/><ellipse cx="27.5" cy="48" rx="3.3" ry="4.3" fill="#5b3a99" opacity="0.85"/><ellipse cx="40.0" cy="50" rx="3.3" ry="4.3" fill="#5b3a99" opacity="0.85"/><ellipse cx="56.5" cy="50" rx="3.3" ry="4.3" fill="#5b3a99" opacity="0.85"/><ellipse cx="70.0" cy="47" rx="3.3" ry="4.3" fill="#5b3a99" opacity="0.85"/><ellipse cx="84.5" cy="48" rx="3.3" ry="4.3" fill="#5b3a99" opacity="0.85"/><ellipse cx="96.0" cy="49" rx="3.3" ry="4.3" fill="#5b3a99" opacity="0.85"/><ellipse cx="107.5" cy="49" rx="3.3" ry="4.3" fill="#5b3a99" opacity="0.85"/><ellipse cx="123.0" cy="47" rx="3.3" ry="4.3" fill="#5b3a99" opacity="0.85"/><ellipse cx="137.5" cy="47" rx="3.3" ry="4.3" fill="#5b3a99" opacity="0.85"/><ellipse cx="149.0" cy="48" rx="3.3" ry="4.3" fill="#5b3a99" opacity="0.85"/><ellipse cx="161.5" cy="47" rx="3.3" ry="4.3" fill="#5b3a99" opacity="0.85"/><ellipse cx="175.0" cy="50" rx="3.3" ry="4.3" fill="#5b3a99" opacity="0.85"/><ellipse cx="191.5" cy="48" rx="3.3" ry="4.3" fill="#5b3a99" opacity="0.85"/><ellipse cx="206.0" cy="48" rx="3.3" ry="4.3" fill="#5b3a99" opacity="0.85"/><ellipse cx="218.5" cy="51" rx="3.3" ry="4.3" fill="#5b3a99" opacity="0.85"/><ellipse cx="14.0" cy="60" rx="3.5" ry="4.5" fill="#5b3a99" opacity="0.85"/><ellipse cx="29.5" cy="62" rx="3.5" ry="4.5" fill="#5b3a99" opacity="0.85"/><ellipse cx="40.0" cy="62" rx="3.5" ry="4.5" fill="#5b3a99" opacity="0.85"/><ellipse cx="56.5" cy="60" rx="3.5" ry="4.5" fill="#5b3a99" opacity="0.85"/><ellipse cx="67.0" cy="61" rx="3.5" ry="4.5" fill="#5b3a99" opacity="0.85"/><ellipse cx="84.5" cy="61" rx="3.5" ry="4.5" fill="#5b3a99" opacity="0.85"/><ellipse cx="94.0" cy="60" rx="3.5" ry="4.5" fill="#5b3a99" opacity="0.85"/><ellipse cx="108.5" cy="62" rx="3.5" ry="4.5" fill="#5b3a99" opacity="0.85"/><ellipse cx="125.0" cy="63" rx="3.5" ry="4.5" fill="#5b3a99" opacity="0.85"/><ellipse cx="134.5" cy="59" rx="3.5" ry="4.5" fill="#5b3a99" opacity="0.85"/><ellipse cx="149.0" cy="60" rx="3.5" ry="4.5" fill="#5b3a99" opacity="0.85"/><ellipse cx="164.5" cy="61" rx="3.5" ry="4.5" fill="#5b3a99" opacity="0.85"/><ellipse cx="175.0" cy="63" rx="3.5" ry="4.5" fill="#5b3a99" opacity="0.85"/><ellipse cx="190.5" cy="61" rx="3.5" ry="4.5" fill="#5b3a99" opacity="0.85"/><ellipse cx="205.0" cy="59" rx="3.5" ry="4.5" fill="#5b3a99" opacity="0.85"/><ellipse cx="215.5" cy="59" rx="3.5" ry="4.5" fill="#5b3a99" opacity="0.85"/><ellipse cx="14.0" cy="75" rx="3.7" ry="4.8" fill="#5b3a99" opacity="0.85"/><ellipse cx="27.5" cy="71" rx="3.7" ry="4.8" fill="#5b3a99" opacity="0.85"/><ellipse cx="44.0" cy="73" rx="3.7" ry="4.8" fill="#5b3a99" opacity="0.85"/><ellipse cx="55.5" cy="75" rx="3.7" ry="4.8" fill="#5b3a99" opacity="0.85"/><ellipse cx="70.0" cy="72" rx="3.7" ry="4.8" fill="#5b3a99" opacity="0.85"/><ellipse cx="84.5" cy="74" rx="3.7" ry="4.8" fill="#5b3a99" opacity="0.85"/><ellipse cx="98.0" cy="72" rx="3.7" ry="4.8" fill="#5b3a99" opacity="0.85"/><ellipse cx="110.5" cy="72" rx="3.7" ry="4.8" fill="#5b3a99" opacity="0.85"/><ellipse cx="122.0" cy="73" rx="3.7" ry="4.8" fill="#5b3a99" opacity="0.85"/><ellipse cx="135.5" cy="75" rx="3.7" ry="4.8" fill="#5b3a99" opacity="0.85"/><ellipse cx="149.0" cy="72" rx="3.7" ry="4.8" fill="#5b3a99" opacity="0.85"/><ellipse cx="162.5" cy="75" rx="3.7" ry="4.8" fill="#5b3a99" opacity="0.85"/><ellipse cx="176.0" cy="74" rx="3.7" ry="4.8" fill="#5b3a99" opacity="0.85"/><ellipse cx="191.5" cy="75" rx="3.7" ry="4.8" fill="#5b3a99" opacity="0.85"/><ellipse cx="202.0" cy="74" rx="3.7" ry="4.8" fill="#5b3a99" opacity="0.85"/><ellipse cx="215.5" cy="71" rx="3.7" ry="4.8" fill="#5b3a99" opacity="0.85"/><ellipse cx="13.0" cy="83" rx="3.8" ry="5.0" fill="#5b3a99" opacity="0.85"/><ellipse cx="30.5" cy="85" rx="3.8" ry="5.0" fill="#5b3a99" opacity="0.85"/><ellipse cx="41.0" cy="86" rx="3.8" ry="5.0" fill="#5b3a99" opacity="0.85"/><ellipse cx="55.5" cy="86" rx="3.8" ry="5.0" fill="#5b3a99" opacity="0.85"/><ellipse cx="71.0" cy="86" rx="3.8" ry="5.0" fill="#5b3a99" opacity="0.85"/><ellipse cx="82.5" cy="87" rx="3.8" ry="5.0" fill="#5b3a99" opacity="0.85"/><ellipse cx="95.0" cy="83" rx="3.8" ry="5.0" fill="#5b3a99" opacity="0.85"/><ellipse cx="108.5" cy="84" rx="3.8" ry="5.0" fill="#5b3a99" opacity="0.85"/><ellipse cx="124.0" cy="87" rx="3.8" ry="5.0" fill="#5b3a99" opacity="0.85"/><ellipse cx="138.5" cy="87" rx="3.8" ry="5.0" fill="#5b3a99" opacity="0.85"/><ellipse cx="148.0" cy="85" rx="3.8" ry="5.0" fill="#5b3a99" opacity="0.85"/><ellipse cx="162.5" cy="84" rx="3.8" ry="5.0" fill="#5b3a99" opacity="0.85"/><ellipse cx="175.0" cy="83" rx="3.8" ry="5.0" fill="#5b3a99" opacity="0.85"/><ellipse cx="190.5" cy="86" rx="3.8" ry="5.0" fill="#5b3a99" opacity="0.85"/><ellipse cx="205.0" cy="84" rx="3.8" ry="5.0" fill="#5b3a99" opacity="0.85"/><ellipse cx="215.5" cy="83" rx="3.8" ry="5.0" fill="#5b3a99" opacity="0.85"/><ellipse cx="14.0" cy="97" rx="4.0" ry="5.2" fill="#5b3a99" opacity="0.85"/><ellipse cx="28.5" cy="99" rx="4.0" ry="5.2" fill="#5b3a99" opacity="0.85"/><ellipse cx="44.0" cy="96" rx="4.0" ry="5.2" fill="#5b3a99" opacity="0.85"/><ellipse cx="53.5" cy="97" rx="4.0" ry="5.2" fill="#5b3a99" opacity="0.85"/><ellipse cx="68.0" cy="98" rx="4.0" ry="5.2" fill="#5b3a99" opacity="0.85"/><ellipse cx="82.5" cy="99" rx="4.0" ry="5.2" fill="#5b3a99" opacity="0.85"/><ellipse cx="98.0" cy="96" rx="4.0" ry="5.2" fill="#5b3a99" opacity="0.85"/><ellipse cx="111.5" cy="95" rx="4.0" ry="5.2" fill="#5b3a99" opacity="0.85"/><ellipse cx="121.0" cy="98" rx="4.0" ry="5.2" fill="#5b3a99" opacity="0.85"/><ellipse cx="136.5" cy="97" rx="4.0" ry="5.2" fill="#5b3a99" opacity="0.85"/><ellipse cx="148.0" cy="95" rx="4.0" ry="5.2" fill="#5b3a99" opacity="0.85"/><ellipse cx="165.5" cy="95" rx="4.0" ry="5.2" fill="#5b3a99" opacity="0.85"/><ellipse cx="178.0" cy="95" rx="4.0" ry="5.2" fill="#5b3a99" opacity="0.85"/><ellipse cx="190.5" cy="97" rx="4.0" ry="5.2" fill="#5b3a99" opacity="0.85"/><ellipse cx="203.0" cy="95" rx="4.0" ry="5.2" fill="#5b3a99" opacity="0.85"/><ellipse cx="215.5" cy="98" rx="4.0" ry="5.2" fill="#5b3a99" opacity="0.85"/><ellipse cx="17.0" cy="109" rx="4.2" ry="5.4" fill="#5b3a99" opacity="0.85"/><ellipse cx="26.5" cy="108" rx="4.2" ry="5.4" fill="#5b3a99" opacity="0.85"/><ellipse cx="42.0" cy="109" rx="4.2" ry="5.4" fill="#5b3a99" opacity="0.85"/><ellipse cx="53.5" cy="110" rx="4.2" ry="5.4" fill="#5b3a99" opacity="0.85"/><ellipse cx="67.0" cy="110" rx="4.2" ry="5.4" fill="#5b3a99" opacity="0.85"/><ellipse cx="80.5" cy="110" rx="4.2" ry="5.4" fill="#5b3a99" opacity="0.85"/><ellipse cx="98.0" cy="107" rx="4.2" ry="5.4" fill="#5b3a99" opacity="0.85"/><ellipse cx="111.5" cy="110" rx="4.2" ry="5.4" fill="#5b3a99" opacity="0.85"/><ellipse cx="124.0" cy="111" rx="4.2" ry="5.4" fill="#5b3a99" opacity="0.85"/><ellipse cx="134.5" cy="111" rx="4.2" ry="5.4" fill="#5b3a99" opacity="0.85"/><ellipse cx="148.0" cy="107" rx="4.2" ry="5.4" fill="#5b3a99" opacity="0.85"/><ellipse cx="161.5" cy="107" rx="4.2" ry="5.4" fill="#5b3a99" opacity="0.85"/><ellipse cx="177.0" cy="110" rx="4.2" ry="5.4" fill="#5b3a99" opacity="0.85"/><ellipse cx="190.5" cy="110" rx="4.2" ry="5.4" fill="#5b3a99" opacity="0.85"/><ellipse cx="206.0" cy="110" rx="4.2" ry="5.4" fill="#5b3a99" opacity="0.85"/><ellipse cx="218.5" cy="110" rx="4.2" ry="5.4" fill="#5b3a99" opacity="0.85"/><ellipse cx="17.0" cy="119" rx="4.3" ry="5.6" fill="#5b3a99" opacity="0.85"/><ellipse cx="30.5" cy="123" rx="4.3" ry="5.6" fill="#5b3a99" opacity="0.85"/><ellipse cx="40.0" cy="121" rx="4.3" ry="5.6" fill="#5b3a99" opacity="0.85"/><ellipse cx="57.5" cy="119" rx="4.3" ry="5.6" fill="#5b3a99" opacity="0.85"/><ellipse cx="70.0" cy="119" rx="4.3" ry="5.6" fill="#5b3a99" opacity="0.85"/><ellipse cx="81.5" cy="119" rx="4.3" ry="5.6" fill="#5b3a99" opacity="0.85"/><ellipse cx="97.0" cy="123" rx="4.3" ry="5.6" fill="#5b3a99" opacity="0.85"/><ellipse cx="110.5" cy="121" rx="4.3" ry="5.6" fill="#5b3a99" opacity="0.85"/><ellipse cx="121.0" cy="121" rx="4.3" ry="5.6" fill="#5b3a99" opacity="0.85"/><ellipse cx="136.5" cy="120" rx="4.3" ry="5.6" fill="#5b3a99" opacity="0.85"/><ellipse cx="152.0" cy="120" rx="4.3" ry="5.6" fill="#5b3a99" opacity="0.85"/><ellipse cx="165.5" cy="120" rx="4.3" ry="5.6" fill="#5b3a99" opacity="0.85"/><ellipse cx="177.0" cy="122" rx="4.3" ry="5.6" fill="#5b3a99" opacity="0.85"/><ellipse cx="191.5" cy="120" rx="4.3" ry="5.6" fill="#5b3a99" opacity="0.85"/><ellipse cx="204.0" cy="122" rx="4.3" ry="5.6" fill="#5b3a99" opacity="0.85"/><ellipse cx="217.5" cy="120" rx="4.3" ry="5.6" fill="#5b3a99" opacity="0.85"/>
  <text x="120.0" y="152" font-family="sans-serif" font-size="7.5" fill="#1b2430" text-anchor="middle" opacity="0.55">HSIL/CIS — full-thickness nuclear atypia of cervical epithelium</text>
</svg>