<svg xmlns="http://www.w3.org/2000/svg" viewBox="0 0 240 160" width="240" height="160">
  <rect width="240" height="160" fill="#f8f5fc"/>
<circle cx="120" cy="85" r="14" fill="#fff" stroke="#7C4DBC" stroke-width="1.6"/><circle cx="120" cy="85" r="20" fill="none" stroke="#cdb8ec" stroke-width="3"/><circle cx="120" cy="85" r="26" fill="none" stroke="#cdb8ec" stroke-width="3"/><circle cx="120" cy="85" r="32" fill="none" stroke="#cdb8ec" stroke-width="3"/><circle cx="120" cy="85" r="38" fill="none" stroke="#cdb8ec" stroke-width="3"/><circle cx="120" cy="85" r="44" fill="none" stroke="#cdb8ec" stroke-width="3"/><circle cx="107" cy="140" r="1.8" fill="#9b7cc9" stroke="#7C4DBC" stroke-width="0.6"/><circle cx="138" cy="92" r="1.8" fill="#9b7cc9" stroke="#7C4DBC" stroke-width="0.6"/><circle cx="121" cy="78" r="1.8" fill="#9b7cc9" stroke="#7C4DBC" stroke-width="0.6"/><circle cx="129" cy="21" r="1.8" fill="#9b7cc9" stroke="#7C4DBC" stroke-width="0.6"/><circle cx="119" cy="86" r="1.8" fill="#9b7cc9" stroke="#7C4DBC" stroke-width="0.6"/><circle cx="75" cy="76" r="1.8" fill="#9b7cc9" stroke="#7C4DBC" stroke-width="0.6"/><circle cx="17" cy="95" r="1.8" fill="#9b7cc9" stroke="#7C4DBC" stroke-width="0.6"/><circle cx="92" cy="105" r="1.8" fill="#9b7cc9" stroke="#7C4DBC" stroke-width="0.6"/><circle cx="185" cy="56" r="1.8" fill="#9b7cc9" stroke="#7C4DBC" stroke-width="0.6"/><circle cx="205" cy="99" r="1.8" fill="#9b7cc9" stroke="#7C4DBC" stroke-width="0.6"/><circle cx="20" cy="76" r="1.8" fill="#9b7cc9" stroke="#7C4DBC" stroke-width="0.6"/><circle cx="169" cy="84" r="1.8" fill="#9b7cc9" stroke="#7C4DBC" stroke-width="0.6"/><circle cx="20" cy="59" r="1.8" fill="#9b7cc9" stroke="#7C4DBC" stroke-width="0.6"/><circle cx="221" cy="27" r="1.8" fill="#9b7cc9" stroke="#7C4DBC" stroke-width="0.6"/><circle cx="133" cy="136" r="1.8" fill="#9b7cc9" stroke="#7C4DBC" stroke-width="0.6"/><circle cx="168" cy="95" r="1.8" fill="#9b7cc9" stroke="#7C4DBC" stroke-width="0.6"/><circle cx="72" cy="99" r="1.8" fill="#9b7cc9" stroke="#7C4DBC" stroke-width="0.6"/><circle cx="107" cy="86" r="1.8" fill="#9b7cc9" stroke="#7C4DBC" stroke-width="0.6"/><circle cx="122" cy="42" r="1.8" fill="#9b7cc9" stroke="#7C4DBC" stroke-width="0.6"/><circle cx="104" cy="146" r="1.8" fill="#9b7cc9" stroke="#7C4DBC" stroke-width="0.6"/>
  <text x="120.0" y="152" font-family="sans-serif" font-size="7.5" fill="#1b2430" text-anchor="middle" opacity="0.55">PSC - onion-skin periductal fibrosis around bile duct</text>
</svg>