<svg xmlns="http://www.w3.org/2000/svg" viewBox="0 0 240 160" width="240" height="160">
  <rect width="240" height="160" fill="#f8f5fc"/>
<path d="M70 30 Q50 70 65 110 Q90 140 130 138 Q170 135 180 100 Q190 60 160 35 Q120 15 70 30 Z" fill="#FCF6EA" stroke="#7C4DBC" stroke-width="1.8"/><polygon points="109.8,77.7 99.3,87.3 81.2,80.8 81.5,78.7 86.4,64.0 94.7,63.0 105.9,68.0" fill="#E8D98A" stroke="#8a6f1f" stroke-width="1.4"/><polygon points="134.7,101.4 132.2,103.1 110.3,100.3 108.0,89.0 112.4,80.1 125.6,74.0 140.0,91.2" fill="#E8D98A" stroke="#8a6f1f" stroke-width="1.4"/><polygon points="114.3,119.1 106.9,123.9 96.4,118.4 92.0,104.8 99.4,97.2 103.6,97.1 118.2,105.5" fill="#E8D98A" stroke="#8a6f1f" stroke-width="1.4"/><polygon points="151.9,71.7 146.5,82.4 134.8,84.1 129.0,69.7 137.5,58.3 145.3,56.0 155.0,69.2" fill="#E8D98A" stroke="#8a6f1f" stroke-width="1.4"/><polygon points="160.7,110.4 155.0,113.7 143.5,112.6 137.3,102.4 141.7,96.4 157.0,94.0 162.7,102.2" fill="#E8D98A" stroke="#8a6f1f" stroke-width="1.4"/>
  <text x="120.0" y="152" font-family="sans-serif" font-size="7.5" fill="#1b2430" text-anchor="middle" opacity="0.55">Cholelithiasis - faceted cholesterol gallstones</text>
</svg>