<svg xmlns="http://www.w3.org/2000/svg" viewBox="0 0 240 160" width="240" height="160">
  <rect width="240" height="160" fill="#f8f5fc"/>
  <rect x="40" y="40" width="160" height="90" fill="#F1ECFA" stroke="#7C4DBC" stroke-width="1"/>
  <circle cx="80" cy="70" r="10" fill="none" stroke="#7C4DBC" stroke-width="2"/>
  <circle cx="120" cy="90" r="9" fill="none" stroke="#7C4DBC" stroke-width="2"/>
  <circle cx="160" cy="65" r="8" fill="none" stroke="#7C4DBC" stroke-width="2"/>
  <circle cx="100" cy="110" r="7" fill="none" stroke="#7C4DBC" stroke-width="2"/>
  <circle cx="114.8" cy="96.6" r="1.3" fill="#9B7FC4" opacity="0.7"/><circle cx="166.7" cy="86.2" r="1.3" fill="#9B7FC4" opacity="0.7"/><circle cx="120.9" cy="99.6" r="1.3" fill="#9B7FC4" opacity="0.7"/><circle cx="85.3" cy="91.3" r="1.3" fill="#9B7FC4" opacity="0.7"/><circle cx="134.3" cy="122.2" r="1.3" fill="#9B7FC4" opacity="0.7"/><circle cx="75.4" cy="68.4" r="1.3" fill="#9B7FC4" opacity="0.7"/><circle cx="75.0" cy="124.1" r="1.3" fill="#9B7FC4" opacity="0.7"/><circle cx="141.3" cy="39.6" r="1.3" fill="#9B7FC4" opacity="0.7"/><circle cx="173.0" cy="141.1" r="1.3" fill="#9B7FC4" opacity="0.7"/><circle cx="136.9" cy="102.7" r="1.3" fill="#9B7FC4" opacity="0.7"/><circle cx="82.3" cy="36.7" r="1.3" fill="#9B7FC4" opacity="0.7"/><circle cx="123.1" cy="41.6" r="1.3" fill="#9B7FC4" opacity="0.7"/><circle cx="85.9" cy="61.6" r="1.3" fill="#9B7FC4" opacity="0.7"/><circle cx="68.3" cy="86.0" r="1.3" fill="#9B7FC4" opacity="0.7"/><circle cx="113.5" cy="127.7" r="1.3" fill="#9B7FC4" opacity="0.7"/><circle cx="122.1" cy="105.4" r="1.3" fill="#9B7FC4" opacity="0.7"/><circle cx="120.0" cy="107.9" r="1.3" fill="#9B7FC4" opacity="0.7"/><circle cx="115.3" cy="65.6" r="1.3" fill="#9B7FC4" opacity="0.7"/><circle cx="174.7" cy="144.5" r="1.3" fill="#9B7FC4" opacity="0.7"/><circle cx="157.4" cy="112.9" r="1.3" fill="#9B7FC4" opacity="0.7"/><circle cx="99.7" cy="60.3" r="1.3" fill="#9B7FC4" opacity="0.7"/><circle cx="96.8" cy="42.7" r="1.3" fill="#9B7FC4" opacity="0.7"/><circle cx="149.3" cy="79.0" r="1.3" fill="#9B7FC4" opacity="0.7"/><circle cx="158.1" cy="77.5" r="1.3" fill="#9B7FC4" opacity="0.7"/><circle cx="170.4" cy="128.2" r="1.3" fill="#9B7FC4" opacity="0.7"/><circle cx="65.1" cy="58.1" r="1.3" fill="#9B7FC4" opacity="0.7"/><circle cx="165.1" cy="86.7" r="1.3" fill="#9B7FC4" opacity="0.7"/><circle cx="172.8" cy="78.7" r="1.3" fill="#9B7FC4" opacity="0.7"/><circle cx="73.0" cy="104.2" r="1.3" fill="#9B7FC4" opacity="0.7"/><circle cx="150.6" cy="64.7" r="1.3" fill="#9B7FC4" opacity="0.7"/><circle cx="74.6" cy="71.6" r="1.3" fill="#9B7FC4" opacity="0.7"/><circle cx="171.0" cy="118.4" r="1.3" fill="#9B7FC4" opacity="0.7"/><circle cx="78.0" cy="62.1" r="1.3" fill="#9B7FC4" opacity="0.7"/><circle cx="76.1" cy="41.6" r="1.3" fill="#9B7FC4" opacity="0.7"/><circle cx="152.7" cy="54.5" r="1.3" fill="#9B7FC4" opacity="0.7"/><circle cx="126.5" cy="84.2" r="1.3" fill="#9B7FC4" opacity="0.7"/><circle cx="86.0" cy="115.5" r="1.3" fill="#9B7FC4" opacity="0.7"/><circle cx="79.4" cy="105.8" r="1.3" fill="#9B7FC4" opacity="0.7"/><circle cx="77.8" cy="81.3" r="1.3" fill="#9B7FC4" opacity="0.7"/><circle cx="88.4" cy="64.7" r="1.3" fill="#9B7FC4" opacity="0.7"/>
  <text x="120" y="30" font-size="6.5" fill="#7C4DBC" text-anchor="middle">malignant glands in dense fibrous stroma</text>
  <text x="120.0" y="152" font-family="sans-serif" font-size="7.5" fill="#1b2430" text-anchor="middle" opacity="0.55">Cholangiocarcinoma — glands in desmoplastic stroma</text>
</svg>