<svg xmlns="http://www.w3.org/2000/svg" viewBox="0 0 240 160" width="240" height="160">
  <rect width="240" height="160" fill="#f8f5fc"/>
  <circle cx="66.4" cy="32.4" r="1.8" fill="#5B3A8C" opacity="0.7"/><circle cx="108.2" cy="95.2" r="1.8" fill="#5B3A8C" opacity="0.7"/><circle cx="80.3" cy="32.4" r="1.8" fill="#5B3A8C" opacity="0.7"/><circle cx="90.5" cy="103.3" r="1.8" fill="#5B3A8C" opacity="0.7"/><circle cx="81.2" cy="101.5" r="1.8" fill="#5B3A8C" opacity="0.7"/><circle cx="137.8" cy="35.0" r="1.8" fill="#5B3A8C" opacity="0.7"/><circle cx="123.9" cy="69.3" r="1.8" fill="#5B3A8C" opacity="0.7"/><circle cx="110.4" cy="129.6" r="1.8" fill="#5B3A8C" opacity="0.7"/><circle cx="75.2" cy="22.2" r="1.8" fill="#5B3A8C" opacity="0.7"/><circle cx="168.4" cy="64.3" r="1.8" fill="#5B3A8C" opacity="0.7"/><circle cx="86.8" cy="56.3" r="1.8" fill="#5B3A8C" opacity="0.7"/><circle cx="105.1" cy="125.1" r="1.8" fill="#5B3A8C" opacity="0.7"/><circle cx="88.1" cy="43.9" r="1.8" fill="#5B3A8C" opacity="0.7"/><circle cx="129.3" cy="80.2" r="1.8" fill="#5B3A8C" opacity="0.7"/><circle cx="169.9" cy="112.3" r="1.8" fill="#5B3A8C" opacity="0.7"/><circle cx="104.1" cy="42.4" r="1.8" fill="#5B3A8C" opacity="0.7"/><circle cx="157.0" cy="128.8" r="1.8" fill="#5B3A8C" opacity="0.7"/><circle cx="68.3" cy="100.9" r="1.8" fill="#5B3A8C" opacity="0.7"/><circle cx="160.5" cy="91.6" r="1.8" fill="#5B3A8C" opacity="0.7"/><circle cx="89.0" cy="107.6" r="1.8" fill="#5B3A8C" opacity="0.7"/><circle cx="145.3" cy="41.3" r="1.8" fill="#5B3A8C" opacity="0.7"/><circle cx="135.5" cy="44.1" r="1.8" fill="#5B3A8C" opacity="0.7"/><circle cx="69.6" cy="57.0" r="1.8" fill="#5B3A8C" opacity="0.7"/><circle cx="101.8" cy="63.6" r="1.8" fill="#5B3A8C" opacity="0.7"/><circle cx="136.1" cy="112.0" r="1.8" fill="#5B3A8C" opacity="0.7"/><circle cx="170.7" cy="127.4" r="1.8" fill="#5B3A8C" opacity="0.7"/><circle cx="174.3" cy="106.9" r="1.8" fill="#5B3A8C" opacity="0.7"/><circle cx="98.7" cy="39.4" r="1.8" fill="#5B3A8C" opacity="0.7"/><circle cx="133.6" cy="80.0" r="1.8" fill="#5B3A8C" opacity="0.7"/><circle cx="139.2" cy="30.3" r="1.8" fill="#5B3A8C" opacity="0.7"/><circle cx="86.2" cy="121.3" r="1.8" fill="#5B3A8C" opacity="0.7"/><circle cx="131.2" cy="96.5" r="1.8" fill="#5B3A8C" opacity="0.7"/><circle cx="75.5" cy="63.9" r="1.8" fill="#5B3A8C" opacity="0.7"/><circle cx="165.1" cy="91.4" r="1.8" fill="#5B3A8C" opacity="0.7"/><circle cx="174.1" cy="41.7" r="1.8" fill="#5B3A8C" opacity="0.7"/><circle cx="115.0" cy="108.1" r="1.8" fill="#5B3A8C" opacity="0.7"/><circle cx="113.9" cy="106.8" r="1.8" fill="#5B3A8C" opacity="0.7"/><circle cx="126.8" cy="33.0" r="1.8" fill="#5B3A8C" opacity="0.7"/><circle cx="75.9" cy="128.1" r="1.8" fill="#5B3A8C" opacity="0.7"/><circle cx="78.1" cy="41.4" r="1.8" fill="#5B3A8C" opacity="0.7"/><circle cx="101.9" cy="98.5" r="1.8" fill="#5B3A8C" opacity="0.7"/><circle cx="158.9" cy="72.3" r="1.8" fill="#5B3A8C" opacity="0.7"/><circle cx="119.8" cy="106.7" r="1.8" fill="#5B3A8C" opacity="0.7"/><circle cx="95.6" cy="61.0" r="1.8" fill="#5B3A8C" opacity="0.7"/><circle cx="132.4" cy="90.0" r="1.8" fill="#5B3A8C" opacity="0.7"/>
  <circle cx="60" cy="115" r="6" fill="none" stroke="#9B7FC4" stroke-width="1" stroke-dasharray="1,1"/>
  <circle cx="185" cy="110" r="6" fill="none" stroke="#9B7FC4" stroke-width="1" stroke-dasharray="1,1"/>
  <text x="120" y="138" font-size="6.5" fill="#7C4DBC" text-anchor="middle">monotonous small lymphocytes + smudge cells</text>
  <text x="120.0" y="152" font-family="sans-serif" font-size="7.5" fill="#1b2430" text-anchor="middle" opacity="0.55">CLL/SLL — monotonous small lymphocytes with smudge cells</text>
</svg>