<svg xmlns="http://www.w3.org/2000/svg" viewBox="0 0 240 160" width="240" height="160">
  <rect width="240" height="160" fill="#f8f5fc"/>
  <circle cx="223" cy="26" r="3.6" fill="#E4D9F5" stroke="#7C4DBC" stroke-width="0.6"/><circle cx="223" cy="26" r="1.4" fill="#1b2430" opacity="0.6"/><circle cx="232" cy="32" r="3.8" fill="#E4D9F5" stroke="#7C4DBC" stroke-width="0.6"/><circle cx="232" cy="32" r="1.5" fill="#1b2430" opacity="0.6"/><circle cx="154" cy="53" r="5.7" fill="#E4D9F5" stroke="#7C4DBC" stroke-width="0.6"/><circle cx="154" cy="53" r="2.3" fill="#1b2430" opacity="0.6"/><circle cx="60" cy="133" r="4.3" fill="#E4D9F5" stroke="#7C4DBC" stroke-width="0.6"/><circle cx="60" cy="133" r="1.7" fill="#1b2430" opacity="0.6"/><circle cx="143" cy="129" r="5.2" fill="#E4D9F5" stroke="#7C4DBC" stroke-width="0.6"/><circle cx="143" cy="129" r="2.1" fill="#1b2430" opacity="0.6"/><circle cx="215" cy="100" r="3.6" fill="#E4D9F5" stroke="#7C4DBC" stroke-width="0.6"/><circle cx="215" cy="100" r="1.4" fill="#1b2430" opacity="0.6"/><circle cx="205" cy="85" r="4.3" fill="#E4D9F5" stroke="#7C4DBC" stroke-width="0.6"/><circle cx="205" cy="85" r="1.7" fill="#1b2430" opacity="0.6"/><circle cx="51" cy="118" r="5.0" fill="#E4D9F5" stroke="#7C4DBC" stroke-width="0.6"/><circle cx="51" cy="118" r="2.0" fill="#1b2430" opacity="0.6"/><circle cx="218" cy="109" r="5.9" fill="#E4D9F5" stroke="#7C4DBC" stroke-width="0.6"/><circle cx="218" cy="109" r="2.4" fill="#1b2430" opacity="0.6"/><circle cx="135" cy="99" r="5.0" fill="#E4D9F5" stroke="#7C4DBC" stroke-width="0.6"/><circle cx="135" cy="99" r="2.0" fill="#1b2430" opacity="0.6"/><circle cx="66" cy="132" r="4.3" fill="#E4D9F5" stroke="#7C4DBC" stroke-width="0.6"/><circle cx="66" cy="132" r="1.7" fill="#1b2430" opacity="0.6"/><circle cx="183" cy="132" r="5.1" fill="#E4D9F5" stroke="#7C4DBC" stroke-width="0.6"/><circle cx="183" cy="132" r="2.1" fill="#1b2430" opacity="0.6"/><circle cx="40" cy="115" r="5.2" fill="#E4D9F5" stroke="#7C4DBC" stroke-width="0.6"/><circle cx="40" cy="115" r="2.1" fill="#1b2430" opacity="0.6"/><circle cx="49" cy="14" r="4.8" fill="#E4D9F5" stroke="#7C4DBC" stroke-width="0.6"/><circle cx="49" cy="14" r="1.9" fill="#1b2430" opacity="0.6"/><circle cx="15" cy="128" r="4.8" fill="#E4D9F5" stroke="#7C4DBC" stroke-width="0.6"/><circle cx="15" cy="128" r="1.9" fill="#1b2430" opacity="0.6"/><circle cx="124" cy="61" r="5.2" fill="#E4D9F5" stroke="#7C4DBC" stroke-width="0.6"/><circle cx="124" cy="61" r="2.1" fill="#1b2430" opacity="0.6"/><circle cx="213" cy="48" r="4.4" fill="#E4D9F5" stroke="#7C4DBC" stroke-width="0.6"/><circle cx="213" cy="48" r="1.8" fill="#1b2430" opacity="0.6"/><circle cx="139" cy="47" r="5.0" fill="#E4D9F5" stroke="#7C4DBC" stroke-width="0.6"/><circle cx="139" cy="47" r="2.0" fill="#1b2430" opacity="0.6"/><circle cx="130" cy="64" r="5.2" fill="#E4D9F5" stroke="#7C4DBC" stroke-width="0.6"/><circle cx="130" cy="64" r="2.1" fill="#1b2430" opacity="0.6"/><circle cx="126" cy="19" r="6.0" fill="#E4D9F5" stroke="#7C4DBC" stroke-width="0.6"/><circle cx="126" cy="19" r="2.4" fill="#1b2430" opacity="0.6"/><circle cx="88" cy="64" r="4.5" fill="#E4D9F5" stroke="#7C4DBC" stroke-width="0.6"/><circle cx="88" cy="64" r="1.8" fill="#1b2430" opacity="0.6"/><circle cx="216" cy="132" r="4.8" fill="#E4D9F5" stroke="#7C4DBC" stroke-width="0.6"/><circle cx="216" cy="132" r="1.9" fill="#1b2430" opacity="0.6"/><circle cx="98" cy="21" r="5.7" fill="#E4D9F5" stroke="#7C4DBC" stroke-width="0.6"/><circle cx="98" cy="21" r="2.3" fill="#1b2430" opacity="0.6"/><circle cx="46" cy="79" r="4.4" fill="#E4D9F5" stroke="#7C4DBC" stroke-width="0.6"/><circle cx="46" cy="79" r="1.7" fill="#1b2430" opacity="0.6"/><circle cx="82" cy="54" r="4.0" fill="#E4D9F5" stroke="#7C4DBC" stroke-width="0.6"/><circle cx="82" cy="54" r="1.6" fill="#1b2430" opacity="0.6"/><circle cx="16" cy="78" r="5.5" fill="#E4D9F5" stroke="#7C4DBC" stroke-width="0.6"/><circle cx="16" cy="78" r="2.2" fill="#1b2430" opacity="0.6"/><circle cx="153" cy="34" r="5.2" fill="#E4D9F5" stroke="#7C4DBC" stroke-width="0.6"/><circle cx="153" cy="34" r="2.1" fill="#1b2430" opacity="0.6"/><circle cx="20" cy="61" r="5.6" fill="#E4D9F5" stroke="#7C4DBC" stroke-width="0.6"/><circle cx="20" cy="61" r="2.2" fill="#1b2430" opacity="0.6"/><circle cx="214" cy="68" r="5.6" fill="#E4D9F5" stroke="#7C4DBC" stroke-width="0.6"/><circle cx="214" cy="68" r="2.2" fill="#1b2430" opacity="0.6"/><circle cx="120" cy="76" r="5.0" fill="#E4D9F5" stroke="#7C4DBC" stroke-width="0.6"/><circle cx="120" cy="76" r="2.0" fill="#1b2430" opacity="0.6"/><circle cx="230" cy="105" r="4.7" fill="#E4D9F5" stroke="#7C4DBC" stroke-width="0.6"/><circle cx="230" cy="105" r="1.9" fill="#1b2430" opacity="0.6"/><circle cx="171" cy="92" r="4.4" fill="#E4D9F5" stroke="#7C4DBC" stroke-width="0.6"/><circle cx="171" cy="92" r="1.8" fill="#1b2430" opacity="0.6"/><circle cx="184" cy="115" r="5.0" fill="#E4D9F5" stroke="#7C4DBC" stroke-width="0.6"/><circle cx="184" cy="115" r="2.0" fill="#1b2430" opacity="0.6"/><circle cx="219" cy="10" r="4.8" fill="#E4D9F5" stroke="#7C4DBC" stroke-width="0.6"/><circle cx="219" cy="10" r="1.9" fill="#1b2430" opacity="0.6"/><circle cx="150" cy="52" r="3.9" fill="#E4D9F5" stroke="#7C4DBC" stroke-width="0.6"/><circle cx="150" cy="52" r="1.6" fill="#1b2430" opacity="0.6"/><circle cx="163" cy="64" r="4.2" fill="#E4D9F5" stroke="#7C4DBC" stroke-width="0.6"/><circle cx="163" cy="64" r="1.7" fill="#1b2430" opacity="0.6"/><circle cx="17" cy="134" r="4.4" fill="#E4D9F5" stroke="#7C4DBC" stroke-width="0.6"/><circle cx="17" cy="134" r="1.8" fill="#1b2430" opacity="0.6"/><circle cx="34" cy="36" r="4.1" fill="#E4D9F5" stroke="#7C4DBC" stroke-width="0.6"/><circle cx="34" cy="36" r="1.7" fill="#1b2430" opacity="0.6"/><circle cx="202" cy="31" r="4.2" fill="#E4D9F5" stroke="#7C4DBC" stroke-width="0.6"/><circle cx="202" cy="31" r="1.7" fill="#1b2430" opacity="0.6"/><circle cx="30" cy="69" r="4.0" fill="#E4D9F5" stroke="#7C4DBC" stroke-width="0.6"/><circle cx="30" cy="69" r="1.6" fill="#1b2430" opacity="0.6"/><circle cx="85" cy="104" r="5.8" fill="#E4D9F5" stroke="#7C4DBC" stroke-width="0.6"/><circle cx="85" cy="104" r="2.3" fill="#1b2430" opacity="0.6"/><circle cx="195" cy="13" r="4.4" fill="#E4D9F5" stroke="#7C4DBC" stroke-width="0.6"/><circle cx="195" cy="13" r="1.8" fill="#1b2430" opacity="0.6"/><circle cx="198" cy="12" r="4.0" fill="#E4D9F5" stroke="#7C4DBC" stroke-width="0.6"/><circle cx="198" cy="12" r="1.6" fill="#1b2430" opacity="0.6"/><circle cx="118" cy="58" r="5.4" fill="#E4D9F5" stroke="#7C4DBC" stroke-width="0.6"/><circle cx="118" cy="58" r="2.2" fill="#1b2430" opacity="0.6"/><circle cx="169" cy="68" r="4.1" fill="#E4D9F5" stroke="#7C4DBC" stroke-width="0.6"/><circle cx="169" cy="68" r="1.6" fill="#1b2430" opacity="0.6"/><circle cx="60" cy="43" r="3.7" fill="#E4D9F5" stroke="#7C4DBC" stroke-width="0.6"/><circle cx="60" cy="43" r="1.5" fill="#1b2430" opacity="0.6"/><circle cx="157" cy="29" r="5.7" fill="#E4D9F5" stroke="#7C4DBC" stroke-width="0.6"/><circle cx="157" cy="29" r="2.3" fill="#1b2430" opacity="0.6"/><circle cx="153" cy="15" r="4.7" fill="#E4D9F5" stroke="#7C4DBC" stroke-width="0.6"/><circle cx="153" cy="15" r="1.9" fill="#1b2430" opacity="0.6"/><circle cx="143" cy="13" r="4.7" fill="#E4D9F5" stroke="#7C4DBC" stroke-width="0.6"/><circle cx="143" cy="13" r="1.9" fill="#1b2430" opacity="0.6"/><circle cx="15" cy="108" r="3.5" fill="#E4D9F5" stroke="#7C4DBC" stroke-width="0.6"/><circle cx="15" cy="108" r="1.4" fill="#1b2430" opacity="0.6"/><circle cx="150" cy="136" r="5.6" fill="#E4D9F5" stroke="#7C4DBC" stroke-width="0.6"/><circle cx="150" cy="136" r="2.2" fill="#1b2430" opacity="0.6"/><circle cx="60" cy="77" r="3.8" fill="#E4D9F5" stroke="#7C4DBC" stroke-width="0.6"/><circle cx="60" cy="77" r="1.5" fill="#1b2430" opacity="0.6"/><circle cx="85" cy="120" r="5.5" fill="#E4D9F5" stroke="#7C4DBC" stroke-width="0.6"/><circle cx="85" cy="120" r="2.2" fill="#1b2430" opacity="0.6"/><circle cx="10" cy="57" r="5.1" fill="#E4D9F5" stroke="#7C4DBC" stroke-width="0.6"/><circle cx="10" cy="57" r="2.0" fill="#1b2430" opacity="0.6"/><circle cx="47" cy="112" r="5.7" fill="#E4D9F5" stroke="#7C4DBC" stroke-width="0.6"/><circle cx="47" cy="112" r="2.3" fill="#1b2430" opacity="0.6"/><circle cx="132" cy="55" r="5.6" fill="#E4D9F5" stroke="#7C4DBC" stroke-width="0.6"/><circle cx="132" cy="55" r="2.2" fill="#1b2430" opacity="0.6"/><circle cx="123" cy="32" r="4.2" fill="#E4D9F5" stroke="#7C4DBC" stroke-width="0.6"/><circle cx="123" cy="32" r="1.7" fill="#1b2430" opacity="0.6"/><circle cx="44" cy="117" r="4.8" fill="#E4D9F5" stroke="#7C4DBC" stroke-width="0.6"/><circle cx="44" cy="117" r="1.9" fill="#1b2430" opacity="0.6"/><circle cx="164" cy="114" r="5.9" fill="#E4D9F5" stroke="#7C4DBC" stroke-width="0.6"/><circle cx="164" cy="114" r="2.4" fill="#1b2430" opacity="0.6"/><circle cx="51" cy="61" r="5.7" fill="#E4D9F5" stroke="#7C4DBC" stroke-width="0.6"/><circle cx="51" cy="61" r="2.3" fill="#1b2430" opacity="0.6"/>
  <text x="120.0" y="152" font-family="sans-serif" font-size="7.5" fill="#1b2430" text-anchor="middle" opacity="0.55">CML — dense sheets of granulocytes at all stages</text>
</svg>