<svg xmlns="http://www.w3.org/2000/svg" viewBox="0 0 240 160" width="240" height="160">
  <rect width="240" height="160" fill="#f8f5fc"/>
  <rect x="8" y="8" width="224" height="136" rx="12" fill="#F1ECFA" stroke="#7C4DBC" stroke-width="2"/><circle cx="205.2" cy="39.2" r="9.1" fill="#E4D9F5" stroke="#7C4DBC" stroke-width="1.1"/><circle cx="205.2" cy="39.2" r="3.2" fill="#7C4DBC"/><circle cx="129.0" cy="67.2" r="12.3" fill="#E4D9F5" stroke="#7C4DBC" stroke-width="1.1"/><circle cx="129.0" cy="67.2" r="4.3" fill="#7C4DBC"/><circle cx="100.4" cy="51.0" r="13.0" fill="#E4D9F5" stroke="#7C4DBC" stroke-width="1.1"/><circle cx="100.4" cy="51.0" r="4.5" fill="#7C4DBC"/><circle cx="151.8" cy="103.5" r="8.0" fill="#E4D9F5" stroke="#7C4DBC" stroke-width="1.1"/><circle cx="151.8" cy="103.5" r="2.8" fill="#7C4DBC"/><circle cx="28.3" cy="108.0" r="7.8" fill="#E4D9F5" stroke="#7C4DBC" stroke-width="1.1"/><circle cx="28.3" cy="108.0" r="2.7" fill="#7C4DBC"/><circle cx="161.2" cy="61.9" r="7.7" fill="#E4D9F5" stroke="#7C4DBC" stroke-width="1.1"/><circle cx="161.2" cy="61.9" r="2.7" fill="#7C4DBC"/><circle cx="57.5" cy="76.7" r="11.0" fill="#E4D9F5" stroke="#7C4DBC" stroke-width="1.1"/><circle cx="57.5" cy="76.7" r="3.8" fill="#7C4DBC"/><circle cx="192.3" cy="43.1" r="9.4" fill="#E4D9F5" stroke="#7C4DBC" stroke-width="1.1"/><circle cx="192.3" cy="43.1" r="3.3" fill="#7C4DBC"/><circle cx="143.8" cy="87.6" r="7.4" fill="#E4D9F5" stroke="#7C4DBC" stroke-width="1.1"/><circle cx="143.8" cy="87.6" r="2.6" fill="#7C4DBC"/>
  <text x="120.0" y="152" font-family="sans-serif" font-size="8.5" fill="#1b2430" text-anchor="middle" opacity="0.55">Chronic Myeloid Leukemia (schematic placeholder)</text>
</svg>