<svg xmlns="http://www.w3.org/2000/svg" viewBox="0 0 240 160" width="240" height="160">
  <rect width="240" height="160" fill="#f8f5fc"/>
  <rect x="8" y="8" width="224" height="136" rx="12" fill="#F1ECFA" stroke="#7C4DBC" stroke-width="2"/><circle cx="59.3" cy="66.4" r="11.6" fill="#E4D9F5" stroke="#7C4DBC" stroke-width="1.1"/><circle cx="59.3" cy="66.4" r="4.1" fill="#7C4DBC"/><circle cx="207.9" cy="88.4" r="13.0" fill="#E4D9F5" stroke="#7C4DBC" stroke-width="1.1"/><circle cx="207.9" cy="88.4" r="4.5" fill="#7C4DBC"/><circle cx="31.8" cy="104.1" r="11.6" fill="#E4D9F5" stroke="#7C4DBC" stroke-width="1.1"/><circle cx="31.8" cy="104.1" r="4.0" fill="#7C4DBC"/><circle cx="116.7" cy="85.2" r="10.8" fill="#E4D9F5" stroke="#7C4DBC" stroke-width="1.1"/><circle cx="116.7" cy="85.2" r="3.8" fill="#7C4DBC"/><circle cx="83.3" cy="50.2" r="11.1" fill="#E4D9F5" stroke="#7C4DBC" stroke-width="1.1"/><circle cx="83.3" cy="50.2" r="3.9" fill="#7C4DBC"/><circle cx="113.4" cy="110.6" r="7.9" fill="#E4D9F5" stroke="#7C4DBC" stroke-width="1.1"/><circle cx="113.4" cy="110.6" r="2.8" fill="#7C4DBC"/><circle cx="47.5" cy="123.8" r="11.5" fill="#E4D9F5" stroke="#7C4DBC" stroke-width="1.1"/><circle cx="47.5" cy="123.8" r="4.0" fill="#7C4DBC"/><circle cx="111.5" cy="40.0" r="7.4" fill="#E4D9F5" stroke="#7C4DBC" stroke-width="1.1"/><circle cx="111.5" cy="40.0" r="2.6" fill="#7C4DBC"/><circle cx="151.5" cy="96.8" r="10.1" fill="#E4D9F5" stroke="#7C4DBC" stroke-width="1.1"/><circle cx="151.5" cy="96.8" r="3.5" fill="#7C4DBC"/>
  <text x="120.0" y="152" font-family="sans-serif" font-size="8.5" fill="#1b2430" text-anchor="middle" opacity="0.55">Cirrhosis of the Liver (schematic placeholder)</text>
</svg>