<svg xmlns="http://www.w3.org/2000/svg" viewBox="0 0 240 160" width="240" height="160">
  <rect width="240" height="160" fill="#f8f5fc"/>
  <rect x="8" y="8" width="224" height="136" rx="12" fill="#F1ECFA" stroke="#7C4DBC" stroke-width="2"/><circle cx="207.3" cy="38.7" r="12.0" fill="#E4D9F5" stroke="#7C4DBC" stroke-width="1.1"/><circle cx="207.3" cy="38.7" r="4.2" fill="#7C4DBC"/><circle cx="108.4" cy="118.7" r="7.0" fill="#E4D9F5" stroke="#7C4DBC" stroke-width="1.1"/><circle cx="108.4" cy="118.7" r="2.5" fill="#7C4DBC"/><circle cx="189.3" cy="120.6" r="11.9" fill="#E4D9F5" stroke="#7C4DBC" stroke-width="1.1"/><circle cx="189.3" cy="120.6" r="4.2" fill="#7C4DBC"/><circle cx="106.0" cy="44.2" r="12.7" fill="#E4D9F5" stroke="#7C4DBC" stroke-width="1.1"/><circle cx="106.0" cy="44.2" r="4.4" fill="#7C4DBC"/><circle cx="211.0" cy="89.1" r="7.5" fill="#E4D9F5" stroke="#7C4DBC" stroke-width="1.1"/><circle cx="211.0" cy="89.1" r="2.6" fill="#7C4DBC"/><circle cx="143.0" cy="117.6" r="10.0" fill="#E4D9F5" stroke="#7C4DBC" stroke-width="1.1"/><circle cx="143.0" cy="117.6" r="3.5" fill="#7C4DBC"/><circle cx="156.3" cy="112.4" r="12.4" fill="#E4D9F5" stroke="#7C4DBC" stroke-width="1.1"/><circle cx="156.3" cy="112.4" r="4.3" fill="#7C4DBC"/><circle cx="65.1" cy="57.6" r="12.9" fill="#E4D9F5" stroke="#7C4DBC" stroke-width="1.1"/><circle cx="65.1" cy="57.6" r="4.5" fill="#7C4DBC"/><circle cx="209.8" cy="77.2" r="11.1" fill="#E4D9F5" stroke="#7C4DBC" stroke-width="1.1"/><circle cx="209.8" cy="77.2" r="3.9" fill="#7C4DBC"/>
  <text x="120.0" y="152" font-family="sans-serif" font-size="8.5" fill="#1b2430" text-anchor="middle" opacity="0.55">Colorectal Adenocarcinoma (schematic placeholder)</text>
</svg>