<svg xmlns="http://www.w3.org/2000/svg" viewBox="0 0 240 160" width="240" height="160">
  <rect width="240" height="160" fill="#f8f5fc"/>
  <ellipse cx="110" cy="79" rx="16" ry="10" fill="#f8f5fc" stroke="#7C4DBC" stroke-width="1.6"/><ellipse cx="122" cy="83" rx="11" ry="11" fill="#f8f5fc" stroke="#7C4DBC" stroke-width="1.6"/><ellipse cx="146" cy="106" rx="11" ry="10" fill="#f8f5fc" stroke="#7C4DBC" stroke-width="1.6"/><ellipse cx="38" cy="108" rx="14" ry="8" fill="#f8f5fc" stroke="#7C4DBC" stroke-width="1.6"/><ellipse cx="216" cy="126" rx="14" ry="11" fill="#f8f5fc" stroke="#7C4DBC" stroke-width="1.6"/><ellipse cx="51" cy="17" rx="13" ry="8" fill="#f8f5fc" stroke="#7C4DBC" stroke-width="1.6"/><ellipse cx="58" cy="43" rx="10" ry="10" fill="#f8f5fc" stroke="#7C4DBC" stroke-width="1.6"/><ellipse cx="108" cy="112" rx="13" ry="11" fill="#f8f5fc" stroke="#7C4DBC" stroke-width="1.6"/><ellipse cx="120" cy="91" rx="13" ry="9" fill="#f8f5fc" stroke="#7C4DBC" stroke-width="1.6"/><ellipse cx="220" cy="130" rx="15" ry="12" fill="#f8f5fc" stroke="#7C4DBC" stroke-width="1.6"/><ellipse cx="83" cy="41" rx="12" ry="8" fill="#f8f5fc" stroke="#7C4DBC" stroke-width="1.6"/><ellipse cx="173" cy="61" rx="15" ry="10" fill="#f8f5fc" stroke="#7C4DBC" stroke-width="1.6"/><ellipse cx="212" cy="112" rx="10" ry="9" fill="#f8f5fc" stroke="#7C4DBC" stroke-width="1.6"/><ellipse cx="202" cy="69" rx="16" ry="10" fill="#f8f5fc" stroke="#7C4DBC" stroke-width="1.6"/><ellipse cx="35" cy="87" rx="15" ry="9" fill="#f8f5fc" stroke="#7C4DBC" stroke-width="1.6"/><ellipse cx="37" cy="53" rx="16" ry="12" fill="#f8f5fc" stroke="#7C4DBC" stroke-width="1.6"/><ellipse cx="44" cy="43" rx="11" ry="8" fill="#f8f5fc" stroke="#7C4DBC" stroke-width="1.6"/><ellipse cx="179" cy="35" rx="13" ry="10" fill="#f8f5fc" stroke="#7C4DBC" stroke-width="1.6"/>
  <text x="120.0" y="152" font-family="sans-serif" font-size="7.5" fill="#1b2430" text-anchor="middle" opacity="0.55">Colorectal adenocarcinoma — back-to-back glands</text>
</svg>