<svg xmlns="http://www.w3.org/2000/svg" viewBox="0 0 240 160" width="240" height="160">
  <rect width="240" height="160" fill="#f8f5fc"/>
<path d="M 18 110 Q 40 30 62 110 Z" fill="#F1ECFA" stroke="#7C4DBC" stroke-width="1.6"/><path d="M 58 110 Q 80 18 102 110 Z" fill="#F1ECFA" stroke="#7C4DBC" stroke-width="1.6"/><path d="M 98 110 Q 120 28 142 110 Z" fill="#F1ECFA" stroke="#7C4DBC" stroke-width="1.6"/><path d="M 138 110 Q 160 15 182 110 Z" fill="#F1ECFA" stroke="#7C4DBC" stroke-width="1.6"/><path d="M 173 110 Q 195 32 217 110 Z" fill="#F1ECFA" stroke="#7C4DBC" stroke-width="1.6"/><circle cx="166" cy="40" r="3.5" fill="#fff" stroke="#7C4DBC" stroke-width="1" /><circle cx="166" cy="40" r="1.2" fill="#1b2430"/><circle cx="144" cy="51" r="3.5" fill="#fff" stroke="#7C4DBC" stroke-width="1" /><circle cx="144" cy="51" r="1.2" fill="#1b2430"/><circle cx="29" cy="35" r="3.5" fill="#fff" stroke="#7C4DBC" stroke-width="1" /><circle cx="29" cy="35" r="1.2" fill="#1b2430"/><circle cx="57" cy="65" r="3.5" fill="#fff" stroke="#7C4DBC" stroke-width="1" /><circle cx="57" cy="65" r="1.2" fill="#1b2430"/><circle cx="214" cy="58" r="3.5" fill="#fff" stroke="#7C4DBC" stroke-width="1" /><circle cx="214" cy="58" r="1.2" fill="#1b2430"/><circle cx="101" cy="36" r="3.5" fill="#fff" stroke="#7C4DBC" stroke-width="1" /><circle cx="101" cy="36" r="1.2" fill="#1b2430"/><circle cx="89" cy="66" r="3.5" fill="#fff" stroke="#7C4DBC" stroke-width="1" /><circle cx="89" cy="66" r="1.2" fill="#1b2430"/><circle cx="70" cy="61" r="3.5" fill="#fff" stroke="#7C4DBC" stroke-width="1" /><circle cx="70" cy="61" r="1.2" fill="#1b2430"/><circle cx="157" cy="69" r="3.5" fill="#fff" stroke="#7C4DBC" stroke-width="1" /><circle cx="157" cy="69" r="1.2" fill="#1b2430"/><circle cx="194" cy="41" r="3.5" fill="#fff" stroke="#7C4DBC" stroke-width="1" /><circle cx="194" cy="41" r="1.2" fill="#1b2430"/><circle cx="69" cy="70" r="3.5" fill="#fff" stroke="#7C4DBC" stroke-width="1" /><circle cx="69" cy="70" r="1.2" fill="#1b2430"/><circle cx="199" cy="51" r="3.5" fill="#fff" stroke="#7C4DBC" stroke-width="1" /><circle cx="199" cy="51" r="1.2" fill="#1b2430"/><circle cx="189" cy="40" r="3.5" fill="#fff" stroke="#7C4DBC" stroke-width="1" /><circle cx="189" cy="40" r="1.2" fill="#1b2430"/><circle cx="128" cy="56" r="3.5" fill="#fff" stroke="#7C4DBC" stroke-width="1" /><circle cx="128" cy="56" r="1.2" fill="#1b2430"/><circle cx="43" cy="58" r="3.5" fill="#fff" stroke="#7C4DBC" stroke-width="1" /><circle cx="43" cy="58" r="1.2" fill="#1b2430"/><circle cx="124" cy="51" r="3.5" fill="#fff" stroke="#7C4DBC" stroke-width="1" /><circle cx="124" cy="51" r="1.2" fill="#1b2430"/><circle cx="133" cy="41" r="3.5" fill="#fff" stroke="#7C4DBC" stroke-width="1" /><circle cx="133" cy="41" r="1.2" fill="#1b2430"/><circle cx="213" cy="47" r="3.5" fill="#fff" stroke="#7C4DBC" stroke-width="1" /><circle cx="213" cy="47" r="1.2" fill="#1b2430"/><circle cx="199" cy="53" r="3.5" fill="#fff" stroke="#7C4DBC" stroke-width="1" /><circle cx="199" cy="53" r="1.2" fill="#1b2430"/><circle cx="44" cy="37" r="3.5" fill="#fff" stroke="#7C4DBC" stroke-width="1" /><circle cx="44" cy="37" r="1.2" fill="#1b2430"/><circle cx="170" cy="47" r="3.5" fill="#fff" stroke="#7C4DBC" stroke-width="1" /><circle cx="170" cy="47" r="1.2" fill="#1b2430"/><circle cx="187" cy="58" r="3.5" fill="#fff" stroke="#7C4DBC" stroke-width="1" /><circle cx="187" cy="58" r="1.2" fill="#1b2430"/><rect x="10" y="108" width="220" height="28" fill="#E4D9F5" stroke="#7C4DBC" stroke-width="1.4"/><circle cx="97" cy="116" r="2.3" fill="#cdb8ec" stroke="#4a2e7a" stroke-width="0.5"/><circle cx="116" cy="132" r="2.3" fill="#cdb8ec" stroke="#4a2e7a" stroke-width="0.5"/><circle cx="27" cy="114" r="2.3" fill="#cdb8ec" stroke="#4a2e7a" stroke-width="0.5"/><circle cx="225" cy="129" r="2.3" fill="#cdb8ec" stroke="#4a2e7a" stroke-width="0.5"/><circle cx="39" cy="123" r="2.3" fill="#cdb8ec" stroke="#4a2e7a" stroke-width="0.5"/><circle cx="164" cy="113" r="2.3" fill="#cdb8ec" stroke="#4a2e7a" stroke-width="0.5"/><circle cx="144" cy="118" r="2.3" fill="#cdb8ec" stroke="#4a2e7a" stroke-width="0.5"/><circle cx="24" cy="114" r="2.3" fill="#cdb8ec" stroke="#4a2e7a" stroke-width="0.5"/><circle cx="126" cy="125" r="2.3" fill="#cdb8ec" stroke="#4a2e7a" stroke-width="0.5"/><circle cx="32" cy="119" r="2.3" fill="#cdb8ec" stroke="#4a2e7a" stroke-width="0.5"/><circle cx="38" cy="129" r="2.3" fill="#cdb8ec" stroke="#4a2e7a" stroke-width="0.5"/><circle cx="123" cy="113" r="2.3" fill="#cdb8ec" stroke="#4a2e7a" stroke-width="0.5"/><circle cx="159" cy="115" r="2.3" fill="#cdb8ec" stroke="#4a2e7a" stroke-width="0.5"/><circle cx="72" cy="132" r="2.3" fill="#cdb8ec" stroke="#4a2e7a" stroke-width="0.5"/><circle cx="175" cy="130" r="2.3" fill="#cdb8ec" stroke="#4a2e7a" stroke-width="0.5"/><circle cx="30" cy="130" r="2.3" fill="#cdb8ec" stroke="#4a2e7a" stroke-width="0.5"/><circle cx="164" cy="124" r="2.3" fill="#cdb8ec" stroke="#4a2e7a" stroke-width="0.5"/><circle cx="27" cy="119" r="2.3" fill="#cdb8ec" stroke="#4a2e7a" stroke-width="0.5"/><circle cx="26" cy="129" r="2.3" fill="#cdb8ec" stroke="#4a2e7a" stroke-width="0.5"/><circle cx="49" cy="121" r="2.3" fill="#cdb8ec" stroke="#4a2e7a" stroke-width="0.5"/><circle cx="122" cy="116" r="2.3" fill="#cdb8ec" stroke="#4a2e7a" stroke-width="0.5"/><circle cx="153" cy="115" r="2.3" fill="#cdb8ec" stroke="#4a2e7a" stroke-width="0.5"/><circle cx="161" cy="121" r="2.3" fill="#cdb8ec" stroke="#4a2e7a" stroke-width="0.5"/><circle cx="158" cy="133" r="2.3" fill="#cdb8ec" stroke="#4a2e7a" stroke-width="0.5"/><circle cx="61" cy="115" r="2.3" fill="#cdb8ec" stroke="#4a2e7a" stroke-width="0.5"/><circle cx="163" cy="130" r="2.3" fill="#cdb8ec" stroke="#4a2e7a" stroke-width="0.5"/><circle cx="178" cy="118" r="2.3" fill="#cdb8ec" stroke="#4a2e7a" stroke-width="0.5"/><circle cx="110" cy="115" r="2.3" fill="#cdb8ec" stroke="#4a2e7a" stroke-width="0.5"/>
  <text x="120.0" y="152" font-family="sans-serif" font-size="7.5" fill="#1b2430" text-anchor="middle" opacity="0.55">Condyloma (koilocytic atypia) &amp; classic VIN (basaloid full-thickness)</text>
</svg>