<svg xmlns="http://www.w3.org/2000/svg" viewBox="0 0 240 160" width="240" height="160">
  <rect width="240" height="160" fill="#f8f5fc"/>
<circle cx="50" cy="50" r="24" fill="none" stroke="#E8A0A0" stroke-width="4"/><circle cx="50" cy="50" r="20" fill="#fdf6f6" stroke="#7C4DBC" stroke-width="1.2"/><circle cx="67.0" cy="50.0" r="2.6" fill="#E4D9F5" stroke="#7C4DBC" stroke-width="0.7"/><circle cx="63.8" cy="60.0" r="2.6" fill="#E4D9F5" stroke="#7C4DBC" stroke-width="0.7"/><circle cx="55.3" cy="66.2" r="2.6" fill="#E4D9F5" stroke="#7C4DBC" stroke-width="0.7"/><circle cx="44.7" cy="66.2" r="2.6" fill="#E4D9F5" stroke="#7C4DBC" stroke-width="0.7"/><circle cx="36.2" cy="60.0" r="2.6" fill="#E4D9F5" stroke="#7C4DBC" stroke-width="0.7"/><circle cx="33.0" cy="50.0" r="2.6" fill="#E4D9F5" stroke="#7C4DBC" stroke-width="0.7"/><circle cx="36.2" cy="40.0" r="2.6" fill="#E4D9F5" stroke="#7C4DBC" stroke-width="0.7"/><circle cx="44.7" cy="33.8" r="2.6" fill="#E4D9F5" stroke="#7C4DBC" stroke-width="0.7"/><circle cx="55.3" cy="33.8" r="2.6" fill="#E4D9F5" stroke="#7C4DBC" stroke-width="0.7"/><circle cx="63.8" cy="40.0" r="2.6" fill="#E4D9F5" stroke="#7C4DBC" stroke-width="0.7"/><circle cx="110" cy="45" r="24" fill="none" stroke="#E8A0A0" stroke-width="4"/><circle cx="110" cy="45" r="20" fill="#fdf6f6" stroke="#7C4DBC" stroke-width="1.2"/><circle cx="127.0" cy="45.0" r="2.6" fill="#E4D9F5" stroke="#7C4DBC" stroke-width="0.7"/><circle cx="123.8" cy="55.0" r="2.6" fill="#E4D9F5" stroke="#7C4DBC" stroke-width="0.7"/><circle cx="115.3" cy="61.2" r="2.6" fill="#E4D9F5" stroke="#7C4DBC" stroke-width="0.7"/><circle cx="104.7" cy="61.2" r="2.6" fill="#E4D9F5" stroke="#7C4DBC" stroke-width="0.7"/><circle cx="96.2" cy="55.0" r="2.6" fill="#E4D9F5" stroke="#7C4DBC" stroke-width="0.7"/><circle cx="93.0" cy="45.0" r="2.6" fill="#E4D9F5" stroke="#7C4DBC" stroke-width="0.7"/><circle cx="96.2" cy="35.0" r="2.6" fill="#E4D9F5" stroke="#7C4DBC" stroke-width="0.7"/><circle cx="104.7" cy="28.8" r="2.6" fill="#E4D9F5" stroke="#7C4DBC" stroke-width="0.7"/><circle cx="115.3" cy="28.8" r="2.6" fill="#E4D9F5" stroke="#7C4DBC" stroke-width="0.7"/><circle cx="123.8" cy="35.0" r="2.6" fill="#E4D9F5" stroke="#7C4DBC" stroke-width="0.7"/><circle cx="170" cy="55" r="24" fill="none" stroke="#E8A0A0" stroke-width="4"/><circle cx="170" cy="55" r="20" fill="#fdf6f6" stroke="#7C4DBC" stroke-width="1.2"/><circle cx="187.0" cy="55.0" r="2.6" fill="#E4D9F5" stroke="#7C4DBC" stroke-width="0.7"/><circle cx="183.8" cy="65.0" r="2.6" fill="#E4D9F5" stroke="#7C4DBC" stroke-width="0.7"/><circle cx="175.3" cy="71.2" r="2.6" fill="#E4D9F5" stroke="#7C4DBC" stroke-width="0.7"/><circle cx="164.7" cy="71.2" r="2.6" fill="#E4D9F5" stroke="#7C4DBC" stroke-width="0.7"/><circle cx="156.2" cy="65.0" r="2.6" fill="#E4D9F5" stroke="#7C4DBC" stroke-width="0.7"/><circle cx="153.0" cy="55.0" r="2.6" fill="#E4D9F5" stroke="#7C4DBC" stroke-width="0.7"/><circle cx="156.2" cy="45.0" r="2.6" fill="#E4D9F5" stroke="#7C4DBC" stroke-width="0.7"/><circle cx="164.7" cy="38.8" r="2.6" fill="#E4D9F5" stroke="#7C4DBC" stroke-width="0.7"/><circle cx="175.3" cy="38.8" r="2.6" fill="#E4D9F5" stroke="#7C4DBC" stroke-width="0.7"/><circle cx="183.8" cy="45.0" r="2.6" fill="#E4D9F5" stroke="#7C4DBC" stroke-width="0.7"/><circle cx="60" cy="105" r="24" fill="none" stroke="#E8A0A0" stroke-width="4"/><circle cx="60" cy="105" r="20" fill="#fdf6f6" stroke="#7C4DBC" stroke-width="1.2"/><circle cx="77.0" cy="105.0" r="2.6" fill="#E4D9F5" stroke="#7C4DBC" stroke-width="0.7"/><circle cx="73.8" cy="115.0" r="2.6" fill="#E4D9F5" stroke="#7C4DBC" stroke-width="0.7"/><circle cx="65.3" cy="121.2" r="2.6" fill="#E4D9F5" stroke="#7C4DBC" stroke-width="0.7"/><circle cx="54.7" cy="121.2" r="2.6" fill="#E4D9F5" stroke="#7C4DBC" stroke-width="0.7"/><circle cx="46.2" cy="115.0" r="2.6" fill="#E4D9F5" stroke="#7C4DBC" stroke-width="0.7"/><circle cx="43.0" cy="105.0" r="2.6" fill="#E4D9F5" stroke="#7C4DBC" stroke-width="0.7"/><circle cx="46.2" cy="95.0" r="2.6" fill="#E4D9F5" stroke="#7C4DBC" stroke-width="0.7"/><circle cx="54.7" cy="88.8" r="2.6" fill="#E4D9F5" stroke="#7C4DBC" stroke-width="0.7"/><circle cx="65.3" cy="88.8" r="2.6" fill="#E4D9F5" stroke="#7C4DBC" stroke-width="0.7"/><circle cx="73.8" cy="95.0" r="2.6" fill="#E4D9F5" stroke="#7C4DBC" stroke-width="0.7"/><circle cx="125" cy="110" r="24" fill="none" stroke="#E8A0A0" stroke-width="4"/><circle cx="125" cy="110" r="20" fill="#fdf6f6" stroke="#7C4DBC" stroke-width="1.2"/><circle cx="142.0" cy="110.0" r="2.6" fill="#E4D9F5" stroke="#7C4DBC" stroke-width="0.7"/><circle cx="138.8" cy="120.0" r="2.6" fill="#E4D9F5" stroke="#7C4DBC" stroke-width="0.7"/><circle cx="130.3" cy="126.2" r="2.6" fill="#E4D9F5" stroke="#7C4DBC" stroke-width="0.7"/><circle cx="119.7" cy="126.2" r="2.6" fill="#E4D9F5" stroke="#7C4DBC" stroke-width="0.7"/><circle cx="111.2" cy="120.0" r="2.6" fill="#E4D9F5" stroke="#7C4DBC" stroke-width="0.7"/><circle cx="108.0" cy="110.0" r="2.6" fill="#E4D9F5" stroke="#7C4DBC" stroke-width="0.7"/><circle cx="111.2" cy="100.0" r="2.6" fill="#E4D9F5" stroke="#7C4DBC" stroke-width="0.7"/><circle cx="119.7" cy="93.8" r="2.6" fill="#E4D9F5" stroke="#7C4DBC" stroke-width="0.7"/><circle cx="130.3" cy="93.8" r="2.6" fill="#E4D9F5" stroke="#7C4DBC" stroke-width="0.7"/><circle cx="138.8" cy="100.0" r="2.6" fill="#E4D9F5" stroke="#7C4DBC" stroke-width="0.7"/><circle cx="185" cy="100" r="24" fill="none" stroke="#E8A0A0" stroke-width="4"/><circle cx="185" cy="100" r="20" fill="#fdf6f6" stroke="#7C4DBC" stroke-width="1.2"/><circle cx="202.0" cy="100.0" r="2.6" fill="#E4D9F5" stroke="#7C4DBC" stroke-width="0.7"/><circle cx="198.8" cy="110.0" r="2.6" fill="#E4D9F5" stroke="#7C4DBC" stroke-width="0.7"/><circle cx="190.3" cy="116.2" r="2.6" fill="#E4D9F5" stroke="#7C4DBC" stroke-width="0.7"/><circle cx="179.7" cy="116.2" r="2.6" fill="#E4D9F5" stroke="#7C4DBC" stroke-width="0.7"/><circle cx="171.2" cy="110.0" r="2.6" fill="#E4D9F5" stroke="#7C4DBC" stroke-width="0.7"/><circle cx="168.0" cy="100.0" r="2.6" fill="#E4D9F5" stroke="#7C4DBC" stroke-width="0.7"/><circle cx="171.2" cy="90.0" r="2.6" fill="#E4D9F5" stroke="#7C4DBC" stroke-width="0.7"/><circle cx="179.7" cy="83.8" r="2.6" fill="#E4D9F5" stroke="#7C4DBC" stroke-width="0.7"/><circle cx="190.3" cy="83.8" r="2.6" fill="#E4D9F5" stroke="#7C4DBC" stroke-width="0.7"/><circle cx="198.8" cy="90.0" r="2.6" fill="#E4D9F5" stroke="#7C4DBC" stroke-width="0.7"/><circle cx="85" cy="75" r="6" fill="#E9B98A" stroke="#A9682E" stroke-width="1"/><circle cx="150" cy="80" r="6" fill="#E9B98A" stroke="#A9682E" stroke-width="1"/><circle cx="95" cy="130" r="6" fill="#E9B98A" stroke="#A9682E" stroke-width="1"/><circle cx="160" cy="40" r="6" fill="#E9B98A" stroke="#A9682E" stroke-width="1"/>
  <text x="120.0" y="152" font-family="sans-serif" font-size="7.5" fill="#1b2430" text-anchor="middle" opacity="0.55">Cryptorchid testis — Sertoli-cell-only tubules, peritubular fibrosis</text>
</svg>