<svg xmlns="http://www.w3.org/2000/svg" viewBox="0 0 240 160" width="240" height="160">
  <rect width="240" height="160" fill="#f8f5fc"/>
  <rect x="8" y="8" width="224" height="136" rx="12" fill="#F1ECFA" stroke="#7C4DBC" stroke-width="2"/><circle cx="194.2" cy="35.9" r="7.2" fill="#E4D9F5" stroke="#7C4DBC" stroke-width="1.1"/><circle cx="194.2" cy="35.9" r="2.5" fill="#7C4DBC"/><circle cx="87.1" cy="35.2" r="8.2" fill="#E4D9F5" stroke="#7C4DBC" stroke-width="1.1"/><circle cx="87.1" cy="35.2" r="2.9" fill="#7C4DBC"/><circle cx="52.1" cy="100.1" r="9.5" fill="#E4D9F5" stroke="#7C4DBC" stroke-width="1.1"/><circle cx="52.1" cy="100.1" r="3.3" fill="#7C4DBC"/><circle cx="122.2" cy="95.3" r="9.2" fill="#E4D9F5" stroke="#7C4DBC" stroke-width="1.1"/><circle cx="122.2" cy="95.3" r="3.2" fill="#7C4DBC"/><circle cx="110.5" cy="57.4" r="8.3" fill="#E4D9F5" stroke="#7C4DBC" stroke-width="1.1"/><circle cx="110.5" cy="57.4" r="2.9" fill="#7C4DBC"/><circle cx="197.6" cy="103.4" r="7.4" fill="#E4D9F5" stroke="#7C4DBC" stroke-width="1.1"/><circle cx="197.6" cy="103.4" r="2.6" fill="#7C4DBC"/><circle cx="91.6" cy="121.5" r="7.6" fill="#E4D9F5" stroke="#7C4DBC" stroke-width="1.1"/><circle cx="91.6" cy="121.5" r="2.6" fill="#7C4DBC"/><circle cx="78.9" cy="109.8" r="12.9" fill="#E4D9F5" stroke="#7C4DBC" stroke-width="1.1"/><circle cx="78.9" cy="109.8" r="4.5" fill="#7C4DBC"/><circle cx="84.9" cy="48.6" r="12.6" fill="#E4D9F5" stroke="#7C4DBC" stroke-width="1.1"/><circle cx="84.9" cy="48.6" r="4.4" fill="#7C4DBC"/>
  <text x="120.0" y="152" font-family="sans-serif" font-size="8.5" fill="#1b2430" text-anchor="middle" opacity="0.55">Deep Vein Thrombosis (DVT) (schematic placeholder)</text>
</svg>