<svg xmlns="http://www.w3.org/2000/svg" viewBox="0 0 240 160" width="240" height="160">
  <rect width="240" height="160" fill="#f8f5fc"/>
  <circle cx="120" cy="80" r="55" fill="#F1ECFA" stroke="#7C4DBC" stroke-width="1"/>
  <circle cx="120" cy="80" r="55" fill="none" stroke="#7C4DBC" stroke-width="3" stroke-dasharray="0" opacity="0.5"/>
  <circle cx="102.4" cy="92.0" r="1.8" fill="#5B3A8C" opacity="0.7"/><circle cx="70.8" cy="128.3" r="1.8" fill="#5B3A8C" opacity="0.7"/><circle cx="152.2" cy="129.9" r="1.8" fill="#5B3A8C" opacity="0.7"/><circle cx="96.3" cy="49.9" r="1.8" fill="#5B3A8C" opacity="0.7"/><circle cx="75.5" cy="49.4" r="1.8" fill="#5B3A8C" opacity="0.7"/><circle cx="72.4" cy="99.2" r="1.8" fill="#5B3A8C" opacity="0.7"/><circle cx="106.6" cy="111.6" r="1.8" fill="#5B3A8C" opacity="0.7"/><circle cx="146.1" cy="64.9" r="1.8" fill="#5B3A8C" opacity="0.7"/><circle cx="86.7" cy="64.8" r="1.8" fill="#5B3A8C" opacity="0.7"/><circle cx="73.0" cy="94.8" r="1.8" fill="#5B3A8C" opacity="0.7"/><circle cx="89.0" cy="44.9" r="1.8" fill="#5B3A8C" opacity="0.7"/><circle cx="158.8" cy="73.7" r="1.8" fill="#5B3A8C" opacity="0.7"/><circle cx="164.6" cy="128.0" r="1.8" fill="#5B3A8C" opacity="0.7"/><circle cx="136.4" cy="55.0" r="1.8" fill="#5B3A8C" opacity="0.7"/><circle cx="84.8" cy="54.7" r="1.8" fill="#5B3A8C" opacity="0.7"/><circle cx="143.7" cy="81.2" r="1.8" fill="#5B3A8C" opacity="0.7"/><circle cx="99.8" cy="31.7" r="1.8" fill="#5B3A8C" opacity="0.7"/><circle cx="105.1" cy="69.3" r="1.8" fill="#5B3A8C" opacity="0.7"/><circle cx="76.9" cy="54.9" r="1.8" fill="#5B3A8C" opacity="0.7"/><circle cx="99.5" cy="71.6" r="1.8" fill="#5B3A8C" opacity="0.7"/><circle cx="119.4" cy="86.6" r="1.8" fill="#5B3A8C" opacity="0.7"/><circle cx="155.0" cy="59.5" r="1.8" fill="#5B3A8C" opacity="0.7"/><circle cx="79.5" cy="60.3" r="1.8" fill="#5B3A8C" opacity="0.7"/><circle cx="91.6" cy="87.6" r="1.8" fill="#5B3A8C" opacity="0.7"/><circle cx="117.6" cy="62.1" r="1.8" fill="#5B3A8C" opacity="0.7"/><circle cx="79.5" cy="105.1" r="1.8" fill="#5B3A8C" opacity="0.7"/><circle cx="132.4" cy="92.3" r="1.8" fill="#5B3A8C" opacity="0.7"/><circle cx="140.3" cy="115.5" r="1.8" fill="#5B3A8C" opacity="0.7"/><circle cx="73.5" cy="48.9" r="1.8" fill="#5B3A8C" opacity="0.7"/><circle cx="117.2" cy="100.1" r="1.8" fill="#5B3A8C" opacity="0.7"/>
  <ellipse cx="120" cy="80" rx="30" ry="24" fill="none" stroke="#C0392B" stroke-width="2" stroke-dasharray="3,2"/>
  <text x="120" y="145" font-size="6.5" fill="#7C4DBC" text-anchor="middle">perifascicular atrophy + perimysial infiltrate</text>
  <text x="120.0" y="152" font-family="sans-serif" font-size="7.5" fill="#1b2430" text-anchor="middle" opacity="0.55">Dermatomyositis/Polymyositis — perifascicular atrophy and inflammatory infiltrate</text>
</svg>