<svg xmlns="http://www.w3.org/2000/svg" viewBox="0 0 240 160" width="240" height="160">
  <rect width="240" height="160" fill="#f8f5fc"/>
<rect x="10" y="20" width="220" height="22" fill="#F1ECFA" stroke="#7C4DBC" stroke-width="1.4"/><circle cx="73" cy="34" r="2" fill="#E4D9F5" stroke="#7C4DBC" stroke-width="0.6"/><circle cx="111" cy="27" r="2" fill="#E4D9F5" stroke="#7C4DBC" stroke-width="0.6"/><circle cx="64" cy="24" r="2" fill="#E4D9F5" stroke="#7C4DBC" stroke-width="0.6"/><circle cx="36" cy="27" r="2" fill="#E4D9F5" stroke="#7C4DBC" stroke-width="0.6"/><circle cx="78" cy="29" r="2" fill="#E4D9F5" stroke="#7C4DBC" stroke-width="0.6"/><circle cx="117" cy="23" r="2" fill="#E4D9F5" stroke="#7C4DBC" stroke-width="0.6"/><circle cx="132" cy="38" r="2" fill="#E4D9F5" stroke="#7C4DBC" stroke-width="0.6"/><circle cx="131" cy="35" r="2" fill="#E4D9F5" stroke="#7C4DBC" stroke-width="0.6"/><circle cx="141" cy="29" r="2" fill="#E4D9F5" stroke="#7C4DBC" stroke-width="0.6"/><circle cx="118" cy="25" r="2" fill="#E4D9F5" stroke="#7C4DBC" stroke-width="0.6"/><circle cx="55" cy="80" r="16" fill="none" stroke="#E8A0A0" stroke-width="2"/><circle cx="55" cy="80" r="11" fill="none" stroke="#E8A0A0" stroke-width="2"/><circle cx="55" cy="80" r="6" fill="none" stroke="#E8A0A0" stroke-width="2"/><circle cx="55" cy="80" r="2.5" fill="none" stroke="#E8A0A0" stroke-width="2"/><ellipse cx="55" cy="80" rx="22" ry="18" fill="none" stroke="#7C4DBC" stroke-width="1.4"/><circle cx="100" cy="95" r="16" fill="none" stroke="#E8A0A0" stroke-width="2"/><circle cx="100" cy="95" r="11" fill="none" stroke="#E8A0A0" stroke-width="2"/><circle cx="100" cy="95" r="6" fill="none" stroke="#E8A0A0" stroke-width="2"/><circle cx="100" cy="95" r="2.5" fill="none" stroke="#E8A0A0" stroke-width="2"/><ellipse cx="100" cy="95" rx="22" ry="18" fill="none" stroke="#7C4DBC" stroke-width="1.4"/><circle cx="150" cy="75" r="16" fill="none" stroke="#E8A0A0" stroke-width="2"/><circle cx="150" cy="75" r="11" fill="none" stroke="#E8A0A0" stroke-width="2"/><circle cx="150" cy="75" r="6" fill="none" stroke="#E8A0A0" stroke-width="2"/><circle cx="150" cy="75" r="2.5" fill="none" stroke="#E8A0A0" stroke-width="2"/><ellipse cx="150" cy="75" rx="22" ry="18" fill="none" stroke="#7C4DBC" stroke-width="1.4"/><circle cx="190" cy="100" r="16" fill="none" stroke="#E8A0A0" stroke-width="2"/><circle cx="190" cy="100" r="11" fill="none" stroke="#E8A0A0" stroke-width="2"/><circle cx="190" cy="100" r="6" fill="none" stroke="#E8A0A0" stroke-width="2"/><circle cx="190" cy="100" r="2.5" fill="none" stroke="#E8A0A0" stroke-width="2"/><ellipse cx="190" cy="100" rx="22" ry="18" fill="none" stroke="#7C4DBC" stroke-width="1.4"/>
  <text x="120.0" y="152" font-family="sans-serif" font-size="7.5" fill="#1b2430" text-anchor="middle" opacity="0.55">Keratinizing SCC — invasive nests with central keratin pearls</text>
</svg>