<svg xmlns="http://www.w3.org/2000/svg" viewBox="0 0 240 160" width="240" height="160">
  <rect width="240" height="160" fill="#f8f5fc"/>
  <rect x="8" y="8" width="224" height="136" rx="12" fill="#F1ECFA" stroke="#7C4DBC" stroke-width="2"/><circle cx="77.6" cy="116.1" r="9.0" fill="#E4D9F5" stroke="#7C4DBC" stroke-width="1.1"/><circle cx="77.6" cy="116.1" r="3.1" fill="#7C4DBC"/><circle cx="157.5" cy="65.2" r="7.2" fill="#E4D9F5" stroke="#7C4DBC" stroke-width="1.1"/><circle cx="157.5" cy="65.2" r="2.5" fill="#7C4DBC"/><circle cx="209.2" cy="41.6" r="10.4" fill="#E4D9F5" stroke="#7C4DBC" stroke-width="1.1"/><circle cx="209.2" cy="41.6" r="3.6" fill="#7C4DBC"/><circle cx="179.3" cy="63.9" r="12.2" fill="#E4D9F5" stroke="#7C4DBC" stroke-width="1.1"/><circle cx="179.3" cy="63.9" r="4.3" fill="#7C4DBC"/><circle cx="47.0" cy="42.7" r="8.6" fill="#E4D9F5" stroke="#7C4DBC" stroke-width="1.1"/><circle cx="47.0" cy="42.7" r="3.0" fill="#7C4DBC"/><circle cx="152.2" cy="104.1" r="12.6" fill="#E4D9F5" stroke="#7C4DBC" stroke-width="1.1"/><circle cx="152.2" cy="104.1" r="4.4" fill="#7C4DBC"/><circle cx="187.3" cy="90.4" r="9.3" fill="#E4D9F5" stroke="#7C4DBC" stroke-width="1.1"/><circle cx="187.3" cy="90.4" r="3.2" fill="#7C4DBC"/><circle cx="69.9" cy="77.1" r="12.5" fill="#E4D9F5" stroke="#7C4DBC" stroke-width="1.1"/><circle cx="69.9" cy="77.1" r="4.4" fill="#7C4DBC"/><circle cx="81.6" cy="117.9" r="7.5" fill="#E4D9F5" stroke="#7C4DBC" stroke-width="1.1"/><circle cx="81.6" cy="117.9" r="2.6" fill="#7C4DBC"/>
  <text x="120.0" y="152" font-family="sans-serif" font-size="8.5" fill="#1b2430" text-anchor="middle" opacity="0.55">Dysplasia & Carcinoma In Situ (schematic placeholder)</text>
</svg>