<svg xmlns="http://www.w3.org/2000/svg" viewBox="0 0 240 160" width="240" height="160">
  <rect width="240" height="160" fill="#f8f5fc"/>
  <ellipse cx="16" cy="120" rx="16" ry="11" fill="#F1ECFA" stroke="#7C4DBC" stroke-width="1"/><circle cx="16" cy="120" r="4" fill="#1b2430"/><ellipse cx="47" cy="120" rx="13" ry="8" fill="#F1ECFA" stroke="#7C4DBC" stroke-width="1"/><circle cx="47" cy="120" r="2.5" fill="#1b2430"/><ellipse cx="78" cy="120" rx="16" ry="11" fill="#F1ECFA" stroke="#7C4DBC" stroke-width="1"/><circle cx="78" cy="120" r="4" fill="#1b2430"/><ellipse cx="109" cy="120" rx="13" ry="8" fill="#F1ECFA" stroke="#7C4DBC" stroke-width="1"/><circle cx="109" cy="120" r="2.5" fill="#1b2430"/><ellipse cx="140" cy="120" rx="13" ry="8" fill="#F1ECFA" stroke="#7C4DBC" stroke-width="1"/><circle cx="140" cy="120" r="2.5" fill="#1b2430"/><ellipse cx="171" cy="120" rx="16" ry="11" fill="#F1ECFA" stroke="#7C4DBC" stroke-width="1"/><circle cx="171" cy="120" r="4" fill="#1b2430"/><ellipse cx="202" cy="120" rx="16" ry="11" fill="#F1ECFA" stroke="#7C4DBC" stroke-width="1"/><circle cx="202" cy="120" r="4" fill="#1b2430"/><ellipse cx="16" cy="100" rx="13" ry="8" fill="#F1ECFA" stroke="#7C4DBC" stroke-width="1"/><circle cx="16" cy="100" r="2.5" fill="#1b2430"/><ellipse cx="47" cy="100" rx="16" ry="11" fill="#F1ECFA" stroke="#7C4DBC" stroke-width="1"/><circle cx="47" cy="100" r="4" fill="#1b2430"/><ellipse cx="78" cy="100" rx="13" ry="8" fill="#F1ECFA" stroke="#7C4DBC" stroke-width="1"/><circle cx="78" cy="100" r="2.5" fill="#1b2430"/><ellipse cx="109" cy="100" rx="13" ry="8" fill="#F1ECFA" stroke="#7C4DBC" stroke-width="1"/><circle cx="109" cy="100" r="2.5" fill="#1b2430"/><ellipse cx="140" cy="100" rx="16" ry="11" fill="#F1ECFA" stroke="#7C4DBC" stroke-width="1"/><circle cx="140" cy="100" r="4" fill="#1b2430"/><ellipse cx="171" cy="100" rx="16" ry="11" fill="#F1ECFA" stroke="#7C4DBC" stroke-width="1"/><circle cx="171" cy="100" r="4" fill="#1b2430"/><ellipse cx="202" cy="100" rx="13" ry="8" fill="#F1ECFA" stroke="#7C4DBC" stroke-width="1"/><circle cx="202" cy="100" r="2.5" fill="#1b2430"/><ellipse cx="16" cy="80" rx="16" ry="11" fill="#F1ECFA" stroke="#7C4DBC" stroke-width="1"/><circle cx="16" cy="80" r="4" fill="#1b2430"/><ellipse cx="47" cy="80" rx="13" ry="8" fill="#F1ECFA" stroke="#7C4DBC" stroke-width="1"/><circle cx="47" cy="80" r="2.5" fill="#1b2430"/><ellipse cx="78" cy="80" rx="13" ry="8" fill="#F1ECFA" stroke="#7C4DBC" stroke-width="1"/><circle cx="78" cy="80" r="2.5" fill="#1b2430"/><ellipse cx="109" cy="80" rx="16" ry="11" fill="#F1ECFA" stroke="#7C4DBC" stroke-width="1"/><circle cx="109" cy="80" r="4" fill="#1b2430"/><ellipse cx="140" cy="80" rx="16" ry="11" fill="#F1ECFA" stroke="#7C4DBC" stroke-width="1"/><circle cx="140" cy="80" r="4" fill="#1b2430"/><ellipse cx="171" cy="80" rx="13" ry="8" fill="#F1ECFA" stroke="#7C4DBC" stroke-width="1"/><circle cx="171" cy="80" r="2.5" fill="#1b2430"/><ellipse cx="202" cy="80" rx="13" ry="8" fill="#F1ECFA" stroke="#7C4DBC" stroke-width="1"/><circle cx="202" cy="80" r="2.5" fill="#1b2430"/><ellipse cx="16" cy="60" rx="13" ry="8" fill="#F1ECFA" stroke="#7C4DBC" stroke-width="1"/><circle cx="16" cy="60" r="2.5" fill="#1b2430"/><ellipse cx="47" cy="60" rx="13" ry="8" fill="#F1ECFA" stroke="#7C4DBC" stroke-width="1"/><circle cx="47" cy="60" r="2.5" fill="#1b2430"/><ellipse cx="78" cy="60" rx="16" ry="11" fill="#F1ECFA" stroke="#7C4DBC" stroke-width="1"/><circle cx="78" cy="60" r="4" fill="#1b2430"/><ellipse cx="109" cy="60" rx="16" ry="11" fill="#F1ECFA" stroke="#7C4DBC" stroke-width="1"/><circle cx="109" cy="60" r="4" fill="#1b2430"/><ellipse cx="140" cy="60" rx="13" ry="8" fill="#F1ECFA" stroke="#7C4DBC" stroke-width="1"/><circle cx="140" cy="60" r="2.5" fill="#1b2430"/><ellipse cx="171" cy="60" rx="13" ry="8" fill="#F1ECFA" stroke="#7C4DBC" stroke-width="1"/><circle cx="171" cy="60" r="2.5" fill="#1b2430"/><ellipse cx="202" cy="60" rx="13" ry="8" fill="#F1ECFA" stroke="#7C4DBC" stroke-width="1"/><circle cx="202" cy="60" r="2.5" fill="#1b2430"/><ellipse cx="16" cy="42" rx="13" ry="8" fill="#F1ECFA" stroke="#7C4DBC" stroke-width="1"/><circle cx="16" cy="42" r="2.5" fill="#1b2430"/><ellipse cx="47" cy="42" rx="16" ry="11" fill="#F1ECFA" stroke="#7C4DBC" stroke-width="1"/><circle cx="47" cy="42" r="4" fill="#1b2430"/><ellipse cx="78" cy="42" rx="16" ry="11" fill="#F1ECFA" stroke="#7C4DBC" stroke-width="1"/><circle cx="78" cy="42" r="4" fill="#1b2430"/><ellipse cx="109" cy="42" rx="13" ry="8" fill="#F1ECFA" stroke="#7C4DBC" stroke-width="1"/><circle cx="109" cy="42" r="2.5" fill="#1b2430"/><ellipse cx="140" cy="42" rx="13" ry="8" fill="#F1ECFA" stroke="#7C4DBC" stroke-width="1"/><circle cx="140" cy="42" r="2.5" fill="#1b2430"/><ellipse cx="171" cy="42" rx="13" ry="8" fill="#F1ECFA" stroke="#7C4DBC" stroke-width="1"/><circle cx="171" cy="42" r="2.5" fill="#1b2430"/><ellipse cx="202" cy="42" rx="16" ry="11" fill="#F1ECFA" stroke="#7C4DBC" stroke-width="1"/><circle cx="202" cy="42" r="4" fill="#1b2430"/><rect x="0" y="132" width="240" height="5" fill="#2fa66b" opacity="0.7"/>
  <text x="120.0" y="152" font-family="sans-serif" font-size="7.5" fill="#1b2430" text-anchor="middle" opacity="0.55">Dysplasia/CIS — atypical nuclei</text>
</svg>