<svg xmlns="http://www.w3.org/2000/svg" viewBox="0 0 240 160" width="240" height="160">
  <rect width="240" height="160" fill="#f8f5fc"/>
<circle cx="60" cy="60" r="18" fill="#fdf6f6" stroke="#7C4DBC" stroke-width="1.4"/><circle cx="150" cy="55" r="18" fill="#fdf6f6" stroke="#7C4DBC" stroke-width="1.4"/><circle cx="100" cy="110" r="18" fill="#fdf6f6" stroke="#7C4DBC" stroke-width="1.4"/><circle cx="180" cy="110" r="18" fill="#fdf6f6" stroke="#7C4DBC" stroke-width="1.4"/><circle cx="148" cy="121" r="1.6" fill="#C9637A" opacity="0.8"/><circle cx="221" cy="92" r="1.6" fill="#C9637A" opacity="0.8"/><circle cx="108" cy="89" r="1.6" fill="#C9637A" opacity="0.8"/><circle cx="59" cy="86" r="1.6" fill="#C9637A" opacity="0.8"/><circle cx="43" cy="21" r="1.6" fill="#C9637A" opacity="0.8"/><circle cx="78" cy="113" r="1.6" fill="#C9637A" opacity="0.8"/><circle cx="223" cy="122" r="1.6" fill="#C9637A" opacity="0.8"/><circle cx="79" cy="143" r="1.6" fill="#C9637A" opacity="0.8"/><circle cx="220" cy="96" r="1.6" fill="#C9637A" opacity="0.8"/><circle cx="178" cy="117" r="1.6" fill="#C9637A" opacity="0.8"/><circle cx="50" cy="30" r="1.6" fill="#C9637A" opacity="0.8"/><circle cx="50" cy="65" r="1.6" fill="#C9637A" opacity="0.8"/><circle cx="53" cy="68" r="1.6" fill="#C9637A" opacity="0.8"/><circle cx="99" cy="46" r="1.6" fill="#C9637A" opacity="0.8"/><circle cx="198" cy="32" r="1.6" fill="#C9637A" opacity="0.8"/><circle cx="94" cy="119" r="1.6" fill="#C9637A" opacity="0.8"/><circle cx="35" cy="144" r="1.6" fill="#C9637A" opacity="0.8"/><circle cx="136" cy="51" r="1.6" fill="#C9637A" opacity="0.8"/><circle cx="189" cy="119" r="1.6" fill="#C9637A" opacity="0.8"/><circle cx="223" cy="144" r="1.6" fill="#C9637A" opacity="0.8"/><circle cx="101" cy="19" r="1.6" fill="#C9637A" opacity="0.8"/><circle cx="125" cy="110" r="1.6" fill="#C9637A" opacity="0.8"/><circle cx="161" cy="28" r="1.6" fill="#C9637A" opacity="0.8"/><circle cx="207" cy="105" r="1.6" fill="#C9637A" opacity="0.8"/><circle cx="27" cy="137" r="1.6" fill="#C9637A" opacity="0.8"/><circle cx="110" cy="16" r="1.6" fill="#C9637A" opacity="0.8"/><circle cx="118" cy="76" r="1.6" fill="#C9637A" opacity="0.8"/><circle cx="44" cy="69" r="1.6" fill="#C9637A" opacity="0.8"/><circle cx="78" cy="107" r="1.6" fill="#C9637A" opacity="0.8"/><circle cx="29" cy="83" r="1.6" fill="#C9637A" opacity="0.8"/><circle cx="31" cy="85" r="1.6" fill="#C9637A" opacity="0.8"/><circle cx="64" cy="48" r="1.6" fill="#C9637A" opacity="0.8"/><circle cx="79" cy="93" r="1.6" fill="#C9637A" opacity="0.8"/><circle cx="104" cy="96" r="1.6" fill="#C9637A" opacity="0.8"/><circle cx="58" cy="100" r="1.6" fill="#C9637A" opacity="0.8"/><circle cx="39" cy="84" r="1.6" fill="#C9637A" opacity="0.8"/><circle cx="100" cy="17" r="1.6" fill="#C9637A" opacity="0.8"/><circle cx="27" cy="104" r="1.6" fill="#C9637A" opacity="0.8"/><circle cx="19" cy="134" r="1.6" fill="#C9637A" opacity="0.8"/><circle cx="205" cy="84" r="1.6" fill="#C9637A" opacity="0.8"/><circle cx="136" cy="28" r="1.6" fill="#C9637A" opacity="0.8"/><circle cx="201" cy="65" r="1.6" fill="#C9637A" opacity="0.8"/><circle cx="94" cy="81" r="1.6" fill="#C9637A" opacity="0.8"/><circle cx="34" cy="139" r="1.6" fill="#C9637A" opacity="0.8"/><circle cx="20" cy="50" r="1.6" fill="#C9637A" opacity="0.8"/><circle cx="118" cy="139" r="1.6" fill="#C9637A" opacity="0.8"/><circle cx="202" cy="115" r="1.6" fill="#C9637A" opacity="0.8"/><circle cx="61" cy="65" r="1.6" fill="#C9637A" opacity="0.8"/><circle cx="79" cy="53" r="1.6" fill="#C9637A" opacity="0.8"/><circle cx="188" cy="43" r="1.6" fill="#C9637A" opacity="0.8"/><circle cx="69" cy="27" r="1.6" fill="#C9637A" opacity="0.8"/><circle cx="152" cy="93" r="1.6" fill="#C9637A" opacity="0.8"/><circle cx="221" cy="95" r="1.6" fill="#C9637A" opacity="0.8"/><circle cx="222" cy="95" r="1.6" fill="#C9637A" opacity="0.8"/><circle cx="27" cy="56" r="1.6" fill="#C9637A" opacity="0.8"/><circle cx="122" cy="38" r="1.6" fill="#C9637A" opacity="0.8"/><circle cx="191" cy="94" r="1.6" fill="#C9637A" opacity="0.8"/><circle cx="79" cy="118" r="1.6" fill="#C9637A" opacity="0.8"/><circle cx="137" cy="34" r="1.6" fill="#C9637A" opacity="0.8"/><circle cx="153" cy="36" r="1.6" fill="#C9637A" opacity="0.8"/><circle cx="154" cy="76" r="1.6" fill="#C9637A" opacity="0.8"/><circle cx="72" cy="82" r="1.6" fill="#C9637A" opacity="0.8"/><circle cx="162" cy="56" r="1.6" fill="#C9637A" opacity="0.8"/><circle cx="220" cy="90" r="1.6" fill="#C9637A" opacity="0.8"/><circle cx="27" cy="139" r="1.6" fill="#C9637A" opacity="0.8"/><circle cx="165" cy="115" r="1.6" fill="#C9637A" opacity="0.8"/><circle cx="139" cy="71" r="1.6" fill="#C9637A" opacity="0.8"/><circle cx="156" cy="119" r="1.6" fill="#C9637A" opacity="0.8"/><circle cx="147" cy="128" r="1.6" fill="#C9637A" opacity="0.8"/><circle cx="34" cy="132" r="1.6" fill="#C9637A" opacity="0.8"/><circle cx="207" cy="70" r="1.6" fill="#C9637A" opacity="0.8"/><circle cx="73" cy="138" r="1.6" fill="#C9637A" opacity="0.8"/><circle cx="96" cy="63" r="1.6" fill="#C9637A" opacity="0.8"/><circle cx="108" cy="22" r="1.6" fill="#C9637A" opacity="0.8"/><circle cx="205" cy="123" r="1.6" fill="#C9637A" opacity="0.8"/><circle cx="28" cy="99" r="1.6" fill="#C9637A" opacity="0.8"/><circle cx="163" cy="58" r="1.6" fill="#C9637A" opacity="0.8"/><circle cx="157" cy="74" r="1.6" fill="#C9637A" opacity="0.8"/><circle cx="171" cy="95" r="1.6" fill="#C9637A" opacity="0.8"/><circle cx="109" cy="59" r="1.6" fill="#C9637A" opacity="0.8"/><circle cx="208" cy="69" r="1.6" fill="#C9637A" opacity="0.8"/><circle cx="92" cy="126" r="1.6" fill="#C9637A" opacity="0.8"/><circle cx="106" cy="129" r="1.6" fill="#C9637A" opacity="0.8"/><circle cx="166" cy="38" r="1.6" fill="#C9637A" opacity="0.8"/><circle cx="147" cy="42" r="1.6" fill="#C9637A" opacity="0.8"/><circle cx="148" cy="17" r="1.6" fill="#C9637A" opacity="0.8"/><circle cx="64" cy="60" r="1.6" fill="#C9637A" opacity="0.8"/><circle cx="130" cy="133" r="1.6" fill="#C9637A" opacity="0.8"/><circle cx="129" cy="144" r="1.6" fill="#C9637A" opacity="0.8"/><circle cx="50" cy="136" r="1.6" fill="#C9637A" opacity="0.8"/><circle cx="130" cy="18" r="1.6" fill="#C9637A" opacity="0.8"/><circle cx="90" cy="82" r="1.6" fill="#C9637A" opacity="0.8"/><circle cx="62" cy="17" r="1.6" fill="#C9637A" opacity="0.8"/><circle cx="134" cy="101" r="1.6" fill="#C9637A" opacity="0.8"/><circle cx="207" cy="99" r="1.6" fill="#C9637A" opacity="0.8"/><circle cx="69" cy="28" r="1.6" fill="#C9637A" opacity="0.8"/><circle cx="83" cy="40" r="1.6" fill="#C9637A" opacity="0.8"/><circle cx="147" cy="18" r="1.6" fill="#C9637A" opacity="0.8"/><circle cx="22" cy="43" r="1.6" fill="#C9637A" opacity="0.8"/><circle cx="135" cy="92" r="1.6" fill="#C9637A" opacity="0.8"/><circle cx="171" cy="67" r="1.6" fill="#C9637A" opacity="0.8"/><circle cx="214" cy="40" r="1.6" fill="#C9637A" opacity="0.8"/><circle cx="214" cy="21" r="1.6" fill="#C9637A" opacity="0.8"/><circle cx="131" cy="71" r="1.6" fill="#C9637A" opacity="0.8"/><circle cx="181" cy="22" r="1.6" fill="#C9637A" opacity="0.8"/><circle cx="117" cy="46" r="1.6" fill="#C9637A" opacity="0.8"/><circle cx="124" cy="29" r="1.6" fill="#C9637A" opacity="0.8"/><circle cx="204" cy="30" r="1.6" fill="#C9637A" opacity="0.8"/><circle cx="63" cy="82" r="1.6" fill="#C9637A" opacity="0.8"/><circle cx="83" cy="106" r="1.6" fill="#C9637A" opacity="0.8"/><circle cx="103" cy="121" r="1.6" fill="#C9637A" opacity="0.8"/><circle cx="118" cy="16" r="1.6" fill="#C9637A" opacity="0.8"/><circle cx="149" cy="101" r="1.6" fill="#C9637A" opacity="0.8"/><circle cx="35" cy="23" r="1.6" fill="#C9637A" opacity="0.8"/><circle cx="175" cy="87" r="1.6" fill="#C9637A" opacity="0.8"/><circle cx="98" cy="97" r="1.6" fill="#C9637A" opacity="0.8"/><circle cx="45" cy="100" r="1.6" fill="#C9637A" opacity="0.8"/><circle cx="47" cy="77" r="1.6" fill="#C9637A" opacity="0.8"/><circle cx="141" cy="87" r="1.6" fill="#C9637A" opacity="0.8"/><circle cx="128" cy="46" r="1.6" fill="#C9637A" opacity="0.8"/><ellipse cx="120" cy="85" rx="20" ry="16" fill="#fff8f0" stroke="#b5481f" stroke-width="2"/>
  <text x="120.0" y="152" font-family="sans-serif" font-size="7.5" fill="#1b2430" text-anchor="middle" opacity="0.55">Acute epididymo-orchitis — dense neutrophilic infiltrate, abscess</text>
</svg>