<svg xmlns="http://www.w3.org/2000/svg" viewBox="0 0 240 160" width="240" height="160">
  <rect width="240" height="160" fill="#f8f5fc"/>
<rect x="10" y="20" width="220" height="30" fill="#F1ECFA" stroke="#7C4DBC" stroke-width="1.4"/><circle cx="50" cy="90" r="14" fill="none" stroke="#E8A0A0" stroke-width="2"/><circle cx="50" cy="90" r="9" fill="none" stroke="#E8A0A0" stroke-width="2"/><circle cx="50" cy="90" r="4" fill="none" stroke="#E8A0A0" stroke-width="2"/><ellipse cx="50" cy="90" rx="20" ry="16" fill="none" stroke="#7C4DBC" stroke-width="1.4"/><circle cx="100" cy="100" r="14" fill="none" stroke="#E8A0A0" stroke-width="2"/><circle cx="100" cy="100" r="9" fill="none" stroke="#E8A0A0" stroke-width="2"/><circle cx="100" cy="100" r="4" fill="none" stroke="#E8A0A0" stroke-width="2"/><ellipse cx="100" cy="100" rx="20" ry="16" fill="none" stroke="#7C4DBC" stroke-width="1.4"/><circle cx="150" cy="85" r="14" fill="none" stroke="#E8A0A0" stroke-width="2"/><circle cx="150" cy="85" r="9" fill="none" stroke="#E8A0A0" stroke-width="2"/><circle cx="150" cy="85" r="4" fill="none" stroke="#E8A0A0" stroke-width="2"/><ellipse cx="150" cy="85" rx="20" ry="16" fill="none" stroke="#7C4DBC" stroke-width="1.4"/><circle cx="195" cy="105" r="14" fill="none" stroke="#E8A0A0" stroke-width="2"/><circle cx="195" cy="105" r="9" fill="none" stroke="#E8A0A0" stroke-width="2"/><circle cx="195" cy="105" r="4" fill="none" stroke="#E8A0A0" stroke-width="2"/><ellipse cx="195" cy="105" rx="20" ry="16" fill="none" stroke="#7C4DBC" stroke-width="1.4"/>
  <text x="120.0" y="152" font-family="sans-serif" font-size="7.5" fill="#1b2430" text-anchor="middle" opacity="0.55">Squamous cell carcinoma - invasive nests with keratin pearls</text>
</svg>