<svg xmlns="http://www.w3.org/2000/svg" viewBox="0 0 240 160" width="240" height="160">
  <rect width="240" height="160" fill="#f8f5fc"/>
  <rect x="30" y="40" width="90" height="80" fill="#F1ECFA" stroke="#7C4DBC" stroke-width="1"/>
  <circle cx="54.5" cy="80.2" r="1.6" fill="#3B2560" opacity="0.7"/><circle cx="48.0" cy="105.7" r="1.6" fill="#3B2560" opacity="0.7"/><circle cx="53.5" cy="84.2" r="1.6" fill="#3B2560" opacity="0.7"/><circle cx="109.1" cy="71.8" r="1.6" fill="#3B2560" opacity="0.7"/><circle cx="112.4" cy="98.5" r="1.6" fill="#3B2560" opacity="0.7"/><circle cx="78.8" cy="90.3" r="1.6" fill="#3B2560" opacity="0.7"/><circle cx="81.9" cy="68.8" r="1.6" fill="#3B2560" opacity="0.7"/><circle cx="114.7" cy="72.3" r="1.6" fill="#3B2560" opacity="0.7"/><circle cx="113.7" cy="108.2" r="1.6" fill="#3B2560" opacity="0.7"/><circle cx="37.3" cy="60.7" r="1.6" fill="#3B2560" opacity="0.7"/><circle cx="73.2" cy="105.2" r="1.6" fill="#3B2560" opacity="0.7"/><circle cx="49.2" cy="89.3" r="1.6" fill="#3B2560" opacity="0.7"/><circle cx="64.4" cy="102.9" r="1.6" fill="#3B2560" opacity="0.7"/><circle cx="109.1" cy="101.0" r="1.6" fill="#3B2560" opacity="0.7"/><circle cx="50.5" cy="100.8" r="1.6" fill="#3B2560" opacity="0.7"/><circle cx="70.1" cy="107.0" r="1.6" fill="#3B2560" opacity="0.7"/><circle cx="72.6" cy="112.5" r="1.6" fill="#3B2560" opacity="0.7"/><circle cx="113.9" cy="105.9" r="1.6" fill="#3B2560" opacity="0.7"/><circle cx="101.1" cy="105.5" r="1.6" fill="#3B2560" opacity="0.7"/><circle cx="82.4" cy="54.0" r="1.6" fill="#3B2560" opacity="0.7"/><circle cx="113.9" cy="77.1" r="1.6" fill="#3B2560" opacity="0.7"/><circle cx="36.3" cy="74.8" r="1.6" fill="#3B2560" opacity="0.7"/><circle cx="68.2" cy="56.1" r="1.6" fill="#3B2560" opacity="0.7"/><circle cx="111.8" cy="49.0" r="1.6" fill="#3B2560" opacity="0.7"/><circle cx="107.3" cy="84.0" r="1.6" fill="#3B2560" opacity="0.7"/><circle cx="49.3" cy="68.7" r="1.6" fill="#3B2560" opacity="0.7"/><circle cx="71.0" cy="49.4" r="1.6" fill="#3B2560" opacity="0.7"/><circle cx="96.0" cy="92.1" r="1.6" fill="#3B2560" opacity="0.7"/><circle cx="113.6" cy="106.4" r="1.6" fill="#3B2560" opacity="0.7"/><circle cx="97.9" cy="119.8" r="1.6" fill="#3B2560" opacity="0.7"/><circle cx="109.6" cy="91.5" r="1.6" fill="#3B2560" opacity="0.7"/><circle cx="78.1" cy="81.9" r="1.6" fill="#3B2560" opacity="0.7"/><circle cx="100.1" cy="114.0" r="1.6" fill="#3B2560" opacity="0.7"/><circle cx="101.4" cy="107.1" r="1.6" fill="#3B2560" opacity="0.7"/><circle cx="37.2" cy="73.7" r="1.6" fill="#3B2560" opacity="0.7"/><circle cx="42.0" cy="86.8" r="1.6" fill="#3B2560" opacity="0.7"/><circle cx="81.4" cy="84.9" r="1.6" fill="#3B2560" opacity="0.7"/><circle cx="103.6" cy="58.0" r="1.6" fill="#3B2560" opacity="0.7"/><circle cx="93.3" cy="86.9" r="1.6" fill="#3B2560" opacity="0.7"/><circle cx="52.0" cy="118.3" r="1.6" fill="#3B2560" opacity="0.7"/><circle cx="39.3" cy="77.2" r="1.6" fill="#3B2560" opacity="0.7"/><circle cx="77.8" cy="87.6" r="1.6" fill="#3B2560" opacity="0.7"/><circle cx="113.6" cy="84.1" r="1.6" fill="#3B2560" opacity="0.7"/><circle cx="105.9" cy="63.6" r="1.6" fill="#3B2560" opacity="0.7"/><circle cx="73.5" cy="51.8" r="1.6" fill="#3B2560" opacity="0.7"/><circle cx="86.2" cy="73.8" r="1.6" fill="#3B2560" opacity="0.7"/><circle cx="97.8" cy="49.0" r="1.6" fill="#3B2560" opacity="0.7"/><circle cx="72.1" cy="116.7" r="1.6" fill="#3B2560" opacity="0.7"/><circle cx="35.9" cy="92.8" r="1.6" fill="#3B2560" opacity="0.7"/><circle cx="89.2" cy="98.1" r="1.6" fill="#3B2560" opacity="0.7"/><circle cx="79.6" cy="80.1" r="1.6" fill="#3B2560" opacity="0.7"/><circle cx="111.8" cy="62.7" r="1.6" fill="#3B2560" opacity="0.7"/><circle cx="91.3" cy="93.5" r="1.6" fill="#3B2560" opacity="0.7"/><circle cx="93.3" cy="78.2" r="1.6" fill="#3B2560" opacity="0.7"/><circle cx="36.3" cy="102.0" r="1.6" fill="#3B2560" opacity="0.7"/>
  <text x="75" y="130" font-size="6.5" fill="#7C4DBC" text-anchor="middle">small round blue cells</text>
  <path d="M160,40 Q175,55 160,70 Q175,85 160,100 Q175,115 160,130" fill="none" stroke="#7C4DBC" stroke-width="1.3"/>
  <path d="M170,40 Q185,55 170,70 Q185,85 170,100 Q185,115 170,130" fill="none" stroke="#7C4DBC" stroke-width="1.3"/>
  <text x="175" y="22" font-size="6.5" fill="#7C4DBC" text-anchor="middle">onion-skin periosteal reaction</text>
  <text x="120.0" y="152" font-family="sans-serif" font-size="7.5" fill="#1b2430" text-anchor="middle" opacity="0.55">Ewing sarcoma — small round blue cells with onion-skin periosteal reaction</text>
</svg>