<svg xmlns="http://www.w3.org/2000/svg" viewBox="0 0 240 160" width="240" height="160">
  <rect width="240" height="160" fill="#f8f5fc"/>
  <circle cx="120" cy="80" r="62" fill="none" stroke="#7C4DBC" stroke-width="2.5"/><ellipse cx="110" cy="110" rx="13" ry="5" fill="#f8f5fc" stroke="#7C4DBC" stroke-width="1.3" transform="rotate(152 110 110)"/><ellipse cx="97" cy="106" rx="13" ry="5" fill="#f8f5fc" stroke="#7C4DBC" stroke-width="1.3" transform="rotate(115 97 106)"/><ellipse cx="83" cy="112" rx="13" ry="5" fill="#f8f5fc" stroke="#7C4DBC" stroke-width="1.3" transform="rotate(46 83 112)"/><ellipse cx="104" cy="75" rx="13" ry="5" fill="#f8f5fc" stroke="#7C4DBC" stroke-width="1.3" transform="rotate(106 104 75)"/><ellipse cx="90" cy="93" rx="13" ry="5" fill="#f8f5fc" stroke="#7C4DBC" stroke-width="1.3" transform="rotate(150 90 93)"/><ellipse cx="121" cy="101" rx="13" ry="5" fill="#f8f5fc" stroke="#7C4DBC" stroke-width="1.3" transform="rotate(112 121 101)"/><ellipse cx="146" cy="58" rx="13" ry="5" fill="#f8f5fc" stroke="#7C4DBC" stroke-width="1.3" transform="rotate(65 146 58)"/><ellipse cx="118" cy="52" rx="13" ry="5" fill="#f8f5fc" stroke="#7C4DBC" stroke-width="1.3" transform="rotate(175 118 52)"/><ellipse cx="131" cy="52" rx="13" ry="5" fill="#f8f5fc" stroke="#7C4DBC" stroke-width="1.3" transform="rotate(105 131 52)"/><ellipse cx="113" cy="58" rx="13" ry="5" fill="#f8f5fc" stroke="#7C4DBC" stroke-width="1.3" transform="rotate(29 113 58)"/>
  <text x="120.0" y="152" font-family="sans-serif" font-size="7.5" fill="#1b2430" text-anchor="middle" opacity="0.55">Fibroadenoma — compressed glands in stroma</text>
</svg>