<svg xmlns="http://www.w3.org/2000/svg" viewBox="0 0 240 160" width="240" height="160">
  <rect width="240" height="160" fill="#f8f5fc"/>
  <rect x="8" y="8" width="224" height="136" rx="12" fill="#F1ECFA" stroke="#7C4DBC" stroke-width="2"/><circle cx="97.0" cy="90.0" r="11.4" fill="#E4D9F5" stroke="#7C4DBC" stroke-width="1.1"/><circle cx="97.0" cy="90.0" r="4.0" fill="#7C4DBC"/><circle cx="112.9" cy="75.1" r="10.3" fill="#E4D9F5" stroke="#7C4DBC" stroke-width="1.1"/><circle cx="112.9" cy="75.1" r="3.6" fill="#7C4DBC"/><circle cx="105.9" cy="115.7" r="9.9" fill="#E4D9F5" stroke="#7C4DBC" stroke-width="1.1"/><circle cx="105.9" cy="115.7" r="3.5" fill="#7C4DBC"/><circle cx="34.8" cy="48.9" r="9.5" fill="#E4D9F5" stroke="#7C4DBC" stroke-width="1.1"/><circle cx="34.8" cy="48.9" r="3.3" fill="#7C4DBC"/><circle cx="200.3" cy="36.8" r="7.3" fill="#E4D9F5" stroke="#7C4DBC" stroke-width="1.1"/><circle cx="200.3" cy="36.8" r="2.5" fill="#7C4DBC"/><circle cx="72.1" cy="96.0" r="12.6" fill="#E4D9F5" stroke="#7C4DBC" stroke-width="1.1"/><circle cx="72.1" cy="96.0" r="4.4" fill="#7C4DBC"/><circle cx="178.7" cy="79.1" r="9.2" fill="#E4D9F5" stroke="#7C4DBC" stroke-width="1.1"/><circle cx="178.7" cy="79.1" r="3.2" fill="#7C4DBC"/><circle cx="204.8" cy="36.1" r="9.8" fill="#E4D9F5" stroke="#7C4DBC" stroke-width="1.1"/><circle cx="204.8" cy="36.1" r="3.4" fill="#7C4DBC"/><circle cx="130.9" cy="104.4" r="8.7" fill="#E4D9F5" stroke="#7C4DBC" stroke-width="1.1"/><circle cx="130.9" cy="104.4" r="3.0" fill="#7C4DBC"/>
  <text x="120.0" y="152" font-family="sans-serif" font-size="8.5" fill="#1b2430" text-anchor="middle" opacity="0.55">Fibroadenoma of the Breast (schematic placeholder)</text>
</svg>