<svg xmlns="http://www.w3.org/2000/svg" viewBox="0 0 240 160" width="240" height="160">
  <rect width="240" height="160" fill="#f8f5fc"/>
<rect x="10" y="20" width="220" height="120" fill="#FCF6EA" stroke="#7C4DBC" stroke-width="1.2"/><circle cx="80" cy="68" r="7" fill="#fff" stroke="#7C4DBC" stroke-width="1.2"/><circle cx="79.3" cy="64.1" r="2.6" fill="#5b3a99"/><circle cx="142" cy="49" r="7" fill="#fff" stroke="#7C4DBC" stroke-width="1.2"/><circle cx="145.7" cy="50.6" r="2.6" fill="#5b3a99"/><circle cx="122" cy="100" r="9" fill="#fff" stroke="#7C4DBC" stroke-width="1.2"/><circle cx="123.9" cy="94.3" r="2.6" fill="#5b3a99"/><circle cx="215" cy="37" r="8" fill="#fff" stroke="#7C4DBC" stroke-width="1.2"/><circle cx="210.0" cy="36.4" r="2.6" fill="#5b3a99"/><circle cx="112" cy="65" r="8" fill="#fff" stroke="#7C4DBC" stroke-width="1.2"/><circle cx="114.3" cy="60.6" r="2.6" fill="#5b3a99"/><circle cx="87" cy="57" r="7" fill="#fff" stroke="#7C4DBC" stroke-width="1.2"/><circle cx="88.9" cy="53.5" r="2.6" fill="#5b3a99"/><circle cx="86" cy="64" r="8" fill="#fff" stroke="#7C4DBC" stroke-width="1.2"/><circle cx="88.6" cy="68.3" r="2.6" fill="#5b3a99"/><circle cx="94" cy="110" r="9" fill="#fff" stroke="#7C4DBC" stroke-width="1.2"/><circle cx="99.1" cy="113.1" r="2.6" fill="#5b3a99"/><circle cx="175" cy="73" r="10" fill="#fff" stroke="#7C4DBC" stroke-width="1.2"/><circle cx="168.0" cy="72.7" r="2.6" fill="#5b3a99"/><circle cx="65" cy="61" r="10" fill="#fff" stroke="#7C4DBC" stroke-width="1.2"/><circle cx="63.7" cy="67.9" r="2.6" fill="#5b3a99"/><circle cx="160" cy="68" r="7" fill="#fff" stroke="#7C4DBC" stroke-width="1.2"/><circle cx="163.4" cy="65.8" r="2.6" fill="#5b3a99"/><circle cx="166" cy="120" r="9" fill="#fff" stroke="#7C4DBC" stroke-width="1.2"/><circle cx="169.5" cy="115.1" r="2.6" fill="#5b3a99"/><circle cx="150" cy="54" r="10" fill="#fff" stroke="#7C4DBC" stroke-width="1.2"/><circle cx="143.8" cy="57.2" r="2.6" fill="#5b3a99"/><circle cx="93" cy="85" r="10" fill="#fff" stroke="#7C4DBC" stroke-width="1.2"/><circle cx="96.7" cy="90.9" r="2.6" fill="#5b3a99"/><circle cx="98" cy="63" r="7" fill="#fff" stroke="#7C4DBC" stroke-width="1.2"/><circle cx="101.5" cy="64.9" r="2.6" fill="#5b3a99"/><circle cx="138" cy="110" r="9" fill="#fff" stroke="#7C4DBC" stroke-width="1.2"/><circle cx="132.0" cy="109.3" r="2.6" fill="#5b3a99"/><circle cx="185" cy="90" r="9" fill="#fff" stroke="#7C4DBC" stroke-width="1.2"/><circle cx="188.7" cy="94.7" r="2.6" fill="#5b3a99"/><circle cx="192" cy="55" r="7" fill="#fff" stroke="#7C4DBC" stroke-width="1.2"/><circle cx="188.6" cy="57.1" r="2.6" fill="#5b3a99"/><circle cx="71" cy="111" r="10" fill="#fff" stroke="#7C4DBC" stroke-width="1.2"/><circle cx="69.9" cy="117.9" r="2.6" fill="#5b3a99"/><circle cx="111" cy="85" r="11" fill="#fff" stroke="#7C4DBC" stroke-width="1.2"/><circle cx="107.6" cy="92.2" r="2.6" fill="#5b3a99"/><circle cx="162" cy="55" r="9" fill="#fff" stroke="#7C4DBC" stroke-width="1.2"/><circle cx="166.8" cy="58.6" r="2.6" fill="#5b3a99"/><circle cx="35" cy="120" r="8" fill="#fff" stroke="#7C4DBC" stroke-width="1.2"/><circle cx="34.1" cy="124.9" r="2.6" fill="#5b3a99"/><circle cx="169" cy="108" r="8" fill="#fff" stroke="#7C4DBC" stroke-width="1.2"/><circle cx="172.6" cy="111.5" r="2.6" fill="#5b3a99"/><circle cx="65" cy="67" r="10" fill="#fff" stroke="#7C4DBC" stroke-width="1.2"/><circle cx="71.9" cy="68.1" r="2.6" fill="#5b3a99"/><circle cx="111" cy="119" r="7" fill="#fff" stroke="#7C4DBC" stroke-width="1.2"/><circle cx="114.2" cy="116.6" r="2.6" fill="#5b3a99"/><circle cx="93" cy="124" r="9" fill="#fff" stroke="#7C4DBC" stroke-width="1.2"/><circle cx="99.0" cy="124.7" r="2.6" fill="#5b3a99"/><circle cx="93" cy="71" r="8" fill="#fff" stroke="#7C4DBC" stroke-width="1.2"/><circle cx="93.8" cy="66.1" r="2.6" fill="#5b3a99"/><circle cx="125" cy="109" r="7" fill="#fff" stroke="#7C4DBC" stroke-width="1.2"/><circle cx="123.9" cy="112.9" r="2.6" fill="#5b3a99"/><circle cx="69" cy="86" r="9" fill="#fff" stroke="#7C4DBC" stroke-width="1.2"/><circle cx="72.9" cy="90.5" r="2.6" fill="#5b3a99"/><circle cx="117" cy="106" r="8" fill="#fff" stroke="#7C4DBC" stroke-width="1.2"/><circle cx="114.6" cy="110.4" r="2.6" fill="#5b3a99"/><circle cx="22" cy="76" r="7" fill="#fff" stroke="#7C4DBC" stroke-width="1.2"/><circle cx="18.2" cy="77.1" r="2.6" fill="#5b3a99"/><circle cx="113" cy="130" r="9" fill="#fff" stroke="#7C4DBC" stroke-width="1.2"/><circle cx="119.0" cy="129.9" r="2.6" fill="#5b3a99"/><circle cx="166" cy="42" r="10" fill="#fff" stroke="#7C4DBC" stroke-width="1.2"/><circle cx="173.0" cy="41.2" r="2.6" fill="#5b3a99"/><circle cx="128" cy="56" r="7" fill="#fff" stroke="#7C4DBC" stroke-width="1.2"/><circle cx="131.7" cy="57.5" r="2.6" fill="#5b3a99"/><circle cx="34" cy="124" r="8" fill="#fff" stroke="#7C4DBC" stroke-width="1.2"/><circle cx="29.9" cy="121.2" r="2.6" fill="#5b3a99"/><circle cx="58" cy="107" r="7" fill="#fff" stroke="#7C4DBC" stroke-width="1.2"/><circle cx="54.2" cy="105.9" r="2.6" fill="#5b3a99"/><circle cx="169" cy="61" r="9" fill="#fff" stroke="#7C4DBC" stroke-width="1.2"/><circle cx="175.0" cy="60.9" r="2.6" fill="#5b3a99"/><circle cx="51" cy="97" r="9" fill="#fff" stroke="#7C4DBC" stroke-width="1.2"/><circle cx="51.9" cy="91.1" r="2.6" fill="#5b3a99"/><circle cx="124" cy="113" r="8" fill="#fff" stroke="#7C4DBC" stroke-width="1.2"/><circle cx="119.0" cy="113.7" r="2.6" fill="#5b3a99"/><circle cx="81" cy="86" r="10" fill="#fff" stroke="#7C4DBC" stroke-width="1.2"/><circle cx="74.0" cy="86.4" r="2.6" fill="#5b3a99"/><circle cx="76" cy="83" r="10" fill="#fff" stroke="#7C4DBC" stroke-width="1.2"/><circle cx="76.1" cy="90.0" r="2.6" fill="#5b3a99"/><circle cx="129" cy="57" r="10" fill="#fff" stroke="#7C4DBC" stroke-width="1.2"/><circle cx="131.7" cy="63.5" r="2.6" fill="#5b3a99"/><circle cx="29" cy="62" r="9" fill="#fff" stroke="#7C4DBC" stroke-width="1.2"/><circle cx="29.3" cy="68.0" r="2.6" fill="#5b3a99"/><circle cx="73" cy="128" r="8" fill="#fff" stroke="#7C4DBC" stroke-width="1.2"/><circle cx="68.7" cy="130.5" r="2.6" fill="#5b3a99"/><circle cx="86" cy="48" r="9" fill="#fff" stroke="#7C4DBC" stroke-width="1.2"/><circle cx="91.7" cy="49.9" r="2.6" fill="#5b3a99"/>
  <text x="120.0" y="152" font-family="sans-serif" font-size="7.5" fill="#1b2430" text-anchor="middle" opacity="0.55">Diffuse gastric carcinoma - signet-ring cells</text>
</svg>