<svg xmlns="http://www.w3.org/2000/svg" viewBox="0 0 240 160" width="240" height="160">
  <rect width="240" height="160" fill="#f8f5fc"/>
<rect x="10" y="20" width="220" height="120" fill="#FCF6EA" stroke="#7C4DBC" stroke-width="1.4"/><circle cx="49" cy="97" r="2.2" fill="#cdb8ec" stroke="#4a2e7a" stroke-width="0.4"/><circle cx="220" cy="122" r="2.2" fill="#cdb8ec" stroke="#4a2e7a" stroke-width="0.4"/><circle cx="31" cy="57" r="2.2" fill="#cdb8ec" stroke="#4a2e7a" stroke-width="0.4"/><circle cx="45" cy="88" r="2.2" fill="#cdb8ec" stroke="#4a2e7a" stroke-width="0.4"/><circle cx="209" cy="82" r="2.2" fill="#cdb8ec" stroke="#4a2e7a" stroke-width="0.4"/><circle cx="135" cy="108" r="2.2" fill="#cdb8ec" stroke="#4a2e7a" stroke-width="0.4"/><circle cx="112" cy="125" r="2.2" fill="#cdb8ec" stroke="#4a2e7a" stroke-width="0.4"/><circle cx="68" cy="37" r="2.2" fill="#cdb8ec" stroke="#4a2e7a" stroke-width="0.4"/><circle cx="139" cy="28" r="2.2" fill="#cdb8ec" stroke="#4a2e7a" stroke-width="0.4"/><circle cx="114" cy="80" r="2.2" fill="#cdb8ec" stroke="#4a2e7a" stroke-width="0.4"/><circle cx="170" cy="122" r="2.2" fill="#cdb8ec" stroke="#4a2e7a" stroke-width="0.4"/><circle cx="211" cy="25" r="2.2" fill="#cdb8ec" stroke="#4a2e7a" stroke-width="0.4"/><circle cx="193" cy="82" r="2.2" fill="#cdb8ec" stroke="#4a2e7a" stroke-width="0.4"/><circle cx="83" cy="117" r="2.2" fill="#cdb8ec" stroke="#4a2e7a" stroke-width="0.4"/><circle cx="220" cy="54" r="2.2" fill="#cdb8ec" stroke="#4a2e7a" stroke-width="0.4"/><circle cx="166" cy="38" r="2.2" fill="#cdb8ec" stroke="#4a2e7a" stroke-width="0.4"/><circle cx="96" cy="28" r="2.2" fill="#cdb8ec" stroke="#4a2e7a" stroke-width="0.4"/><circle cx="20" cy="28" r="2.2" fill="#cdb8ec" stroke="#4a2e7a" stroke-width="0.4"/><circle cx="181" cy="94" r="2.2" fill="#cdb8ec" stroke="#4a2e7a" stroke-width="0.4"/><circle cx="17" cy="73" r="2.2" fill="#cdb8ec" stroke="#4a2e7a" stroke-width="0.4"/><circle cx="190" cy="52" r="2.2" fill="#cdb8ec" stroke="#4a2e7a" stroke-width="0.4"/><circle cx="123" cy="117" r="2.2" fill="#cdb8ec" stroke="#4a2e7a" stroke-width="0.4"/><circle cx="22" cy="92" r="2.2" fill="#cdb8ec" stroke="#4a2e7a" stroke-width="0.4"/><circle cx="71" cy="122" r="2.2" fill="#cdb8ec" stroke="#4a2e7a" stroke-width="0.4"/><circle cx="127" cy="88" r="2.2" fill="#cdb8ec" stroke="#4a2e7a" stroke-width="0.4"/><circle cx="156" cy="54" r="2.2" fill="#cdb8ec" stroke="#4a2e7a" stroke-width="0.4"/><circle cx="103" cy="54" r="2.2" fill="#cdb8ec" stroke="#4a2e7a" stroke-width="0.4"/><circle cx="188" cy="53" r="2.2" fill="#cdb8ec" stroke="#4a2e7a" stroke-width="0.4"/><circle cx="209" cy="83" r="2.2" fill="#cdb8ec" stroke="#4a2e7a" stroke-width="0.4"/><circle cx="89" cy="27" r="2.2" fill="#cdb8ec" stroke="#4a2e7a" stroke-width="0.4"/><circle cx="121" cy="132" r="2.2" fill="#cdb8ec" stroke="#4a2e7a" stroke-width="0.4"/><circle cx="157" cy="107" r="2.2" fill="#cdb8ec" stroke="#4a2e7a" stroke-width="0.4"/><circle cx="40" cy="48" r="2.2" fill="#cdb8ec" stroke="#4a2e7a" stroke-width="0.4"/><circle cx="176" cy="117" r="2.2" fill="#cdb8ec" stroke="#4a2e7a" stroke-width="0.4"/><circle cx="90" cy="40" r="2.2" fill="#cdb8ec" stroke="#4a2e7a" stroke-width="0.4"/><circle cx="205" cy="67" r="2.2" fill="#cdb8ec" stroke="#4a2e7a" stroke-width="0.4"/><circle cx="199" cy="116" r="2.2" fill="#cdb8ec" stroke="#4a2e7a" stroke-width="0.4"/><circle cx="143" cy="79" r="2.2" fill="#cdb8ec" stroke="#4a2e7a" stroke-width="0.4"/><circle cx="144" cy="131" r="2.2" fill="#cdb8ec" stroke="#4a2e7a" stroke-width="0.4"/><circle cx="186" cy="49" r="2.2" fill="#cdb8ec" stroke="#4a2e7a" stroke-width="0.4"/><circle cx="92" cy="61" r="2.2" fill="#cdb8ec" stroke="#4a2e7a" stroke-width="0.4"/><circle cx="165" cy="88" r="2.2" fill="#cdb8ec" stroke="#4a2e7a" stroke-width="0.4"/><circle cx="144" cy="75" r="2.2" fill="#cdb8ec" stroke="#4a2e7a" stroke-width="0.4"/><circle cx="165" cy="134" r="2.2" fill="#cdb8ec" stroke="#4a2e7a" stroke-width="0.4"/><circle cx="23" cy="86" r="2.2" fill="#cdb8ec" stroke="#4a2e7a" stroke-width="0.4"/><circle cx="77" cy="120" r="2.2" fill="#cdb8ec" stroke="#4a2e7a" stroke-width="0.4"/><circle cx="219" cy="76" r="2.2" fill="#cdb8ec" stroke="#4a2e7a" stroke-width="0.4"/><circle cx="121" cy="110" r="2.2" fill="#cdb8ec" stroke="#4a2e7a" stroke-width="0.4"/><circle cx="59" cy="71" r="2.2" fill="#cdb8ec" stroke="#4a2e7a" stroke-width="0.4"/><circle cx="155" cy="114" r="2.2" fill="#cdb8ec" stroke="#4a2e7a" stroke-width="0.4"/><circle cx="213" cy="111" r="2.2" fill="#cdb8ec" stroke="#4a2e7a" stroke-width="0.4"/><circle cx="203" cy="72" r="2.2" fill="#cdb8ec" stroke="#4a2e7a" stroke-width="0.4"/><circle cx="37" cy="81" r="2.2" fill="#cdb8ec" stroke="#4a2e7a" stroke-width="0.4"/><circle cx="184" cy="90" r="2.2" fill="#cdb8ec" stroke="#4a2e7a" stroke-width="0.4"/><circle cx="42" cy="124" r="2.2" fill="#cdb8ec" stroke="#4a2e7a" stroke-width="0.4"/><circle cx="56" cy="91" r="2.2" fill="#cdb8ec" stroke="#4a2e7a" stroke-width="0.4"/><circle cx="115" cy="72" r="2.2" fill="#cdb8ec" stroke="#4a2e7a" stroke-width="0.4"/><circle cx="140" cy="118" r="2.2" fill="#cdb8ec" stroke="#4a2e7a" stroke-width="0.4"/><circle cx="22" cy="85" r="2.2" fill="#cdb8ec" stroke="#4a2e7a" stroke-width="0.4"/><circle cx="26" cy="64" r="2.2" fill="#cdb8ec" stroke="#4a2e7a" stroke-width="0.4"/><circle cx="195" cy="133" r="2.2" fill="#cdb8ec" stroke="#4a2e7a" stroke-width="0.4"/><circle cx="172" cy="100" r="2.2" fill="#cdb8ec" stroke="#4a2e7a" stroke-width="0.4"/><circle cx="163" cy="75" r="2.2" fill="#cdb8ec" stroke="#4a2e7a" stroke-width="0.4"/><circle cx="180" cy="46" r="2.2" fill="#cdb8ec" stroke="#4a2e7a" stroke-width="0.4"/><circle cx="58" cy="89" r="2.2" fill="#cdb8ec" stroke="#4a2e7a" stroke-width="0.4"/><circle cx="73" cy="26" r="2.2" fill="#cdb8ec" stroke="#4a2e7a" stroke-width="0.4"/><circle cx="212" cy="50" r="2.2" fill="#cdb8ec" stroke="#4a2e7a" stroke-width="0.4"/><circle cx="153" cy="135" r="2.2" fill="#cdb8ec" stroke="#4a2e7a" stroke-width="0.4"/><circle cx="155" cy="54" r="2.2" fill="#cdb8ec" stroke="#4a2e7a" stroke-width="0.4"/><circle cx="118" cy="90" r="2.2" fill="#cdb8ec" stroke="#4a2e7a" stroke-width="0.4"/><circle cx="80" cy="80" r="22" fill="#fff" stroke="#7C4DBC" stroke-width="1.6"/><circle cx="65" cy="67" r="2" fill="#9b7cc9" stroke="#4a2e7a" stroke-width="0.3"/><circle cx="67" cy="85" r="2" fill="#9b7cc9" stroke="#4a2e7a" stroke-width="0.3"/><circle cx="72" cy="81" r="2" fill="#9b7cc9" stroke="#4a2e7a" stroke-width="0.3"/><circle cx="78" cy="75" r="2" fill="#9b7cc9" stroke="#4a2e7a" stroke-width="0.3"/><circle cx="64" cy="72" r="2" fill="#9b7cc9" stroke="#4a2e7a" stroke-width="0.3"/><circle cx="89" cy="87" r="2" fill="#9b7cc9" stroke="#4a2e7a" stroke-width="0.3"/><circle cx="94" cy="85" r="2" fill="#9b7cc9" stroke="#4a2e7a" stroke-width="0.3"/><circle cx="96" cy="90" r="2" fill="#9b7cc9" stroke="#4a2e7a" stroke-width="0.3"/><circle cx="94" cy="79" r="2" fill="#9b7cc9" stroke="#4a2e7a" stroke-width="0.3"/><circle cx="64" cy="63" r="2" fill="#9b7cc9" stroke="#4a2e7a" stroke-width="0.3"/><circle cx="85" cy="91" r="2" fill="#9b7cc9" stroke="#4a2e7a" stroke-width="0.3"/><circle cx="82" cy="86" r="2" fill="#9b7cc9" stroke="#4a2e7a" stroke-width="0.3"/><circle cx="89" cy="95" r="2" fill="#9b7cc9" stroke="#4a2e7a" stroke-width="0.3"/><circle cx="72" cy="97" r="2" fill="#9b7cc9" stroke="#4a2e7a" stroke-width="0.3"/><path d="M165 115 q4 -3 8 0 q4 3 8 0" stroke="#b5481f" stroke-width="1.5" fill="none"/><path d="M184 56 q4 -3 8 0 q4 3 8 0" stroke="#b5481f" stroke-width="1.5" fill="none"/><path d="M173 117 q4 -3 8 0 q4 3 8 0" stroke="#b5481f" stroke-width="1.5" fill="none"/><path d="M180 120 q4 -3 8 0 q4 3 8 0" stroke="#b5481f" stroke-width="1.5" fill="none"/><path d="M187 48 q4 -3 8 0 q4 3 8 0" stroke="#b5481f" stroke-width="1.5" fill="none"/><path d="M188 41 q4 -3 8 0 q4 3 8 0" stroke="#b5481f" stroke-width="1.5" fill="none"/><path d="M208 100 q4 -3 8 0 q4 3 8 0" stroke="#b5481f" stroke-width="1.5" fill="none"/><path d="M166 110 q4 -3 8 0 q4 3 8 0" stroke="#b5481f" stroke-width="1.5" fill="none"/>
  <text x="120.0" y="152" font-family="sans-serif" font-size="7.5" fill="#1b2430" text-anchor="middle" opacity="0.55">Chronic gastritis - lymphoid aggregate &amp; H. pylori organisms</text>
</svg>