<svg xmlns="http://www.w3.org/2000/svg" viewBox="0 0 240 160" width="240" height="160">
  <rect width="240" height="160" fill="#f8f5fc"/>
  <rect x="8" y="8" width="224" height="136" rx="12" fill="#F1ECFA" stroke="#7C4DBC" stroke-width="2"/><circle cx="127.7" cy="48.8" r="12.2" fill="#E4D9F5" stroke="#7C4DBC" stroke-width="1.1"/><circle cx="127.7" cy="48.8" r="4.3" fill="#7C4DBC"/><circle cx="113.5" cy="96.8" r="7.8" fill="#E4D9F5" stroke="#7C4DBC" stroke-width="1.1"/><circle cx="113.5" cy="96.8" r="2.7" fill="#7C4DBC"/><circle cx="83.4" cy="89.6" r="12.7" fill="#E4D9F5" stroke="#7C4DBC" stroke-width="1.1"/><circle cx="83.4" cy="89.6" r="4.5" fill="#7C4DBC"/><circle cx="156.9" cy="50.3" r="12.3" fill="#E4D9F5" stroke="#7C4DBC" stroke-width="1.1"/><circle cx="156.9" cy="50.3" r="4.3" fill="#7C4DBC"/><circle cx="58.8" cy="31.9" r="10.4" fill="#E4D9F5" stroke="#7C4DBC" stroke-width="1.1"/><circle cx="58.8" cy="31.9" r="3.6" fill="#7C4DBC"/><circle cx="120.3" cy="50.2" r="12.3" fill="#E4D9F5" stroke="#7C4DBC" stroke-width="1.1"/><circle cx="120.3" cy="50.2" r="4.3" fill="#7C4DBC"/><circle cx="128.6" cy="108.9" r="8.1" fill="#E4D9F5" stroke="#7C4DBC" stroke-width="1.1"/><circle cx="128.6" cy="108.9" r="2.9" fill="#7C4DBC"/><circle cx="78.9" cy="53.8" r="7.4" fill="#E4D9F5" stroke="#7C4DBC" stroke-width="1.1"/><circle cx="78.9" cy="53.8" r="2.6" fill="#7C4DBC"/><circle cx="187.1" cy="95.9" r="7.4" fill="#E4D9F5" stroke="#7C4DBC" stroke-width="1.1"/><circle cx="187.1" cy="95.9" r="2.6" fill="#7C4DBC"/>
  <text x="120.0" y="152" font-family="sans-serif" font-size="8.5" fill="#1b2430" text-anchor="middle" opacity="0.55">Post-Streptococcal Glomerulonephritis (schematic placeholder)</text>
</svg>