<svg xmlns="http://www.w3.org/2000/svg" viewBox="0 0 240 160" width="240" height="160">
  <rect width="240" height="160" fill="#f8f5fc"/>
  <circle cx="120" cy="78" r="55" fill="#F1ECFA" stroke="#7C4DBC" stroke-width="2.5"/><circle cx="103" cy="98" r="3.2" fill="#E4D9F5" stroke="#7C4DBC" stroke-width="0.7"/><circle cx="99" cy="90" r="3.2" fill="#E4D9F5" stroke="#7C4DBC" stroke-width="0.7"/><circle cx="92" cy="96" r="3.2" fill="#E4D9F5" stroke="#7C4DBC" stroke-width="0.7"/><circle cx="118" cy="110" r="3.2" fill="#E4D9F5" stroke="#7C4DBC" stroke-width="0.7"/><circle cx="138" cy="79" r="3.2" fill="#E4D9F5" stroke="#7C4DBC" stroke-width="0.7"/><circle cx="114" cy="88" r="3.2" fill="#E4D9F5" stroke="#7C4DBC" stroke-width="0.7"/><circle cx="119" cy="60" r="3.2" fill="#E4D9F5" stroke="#7C4DBC" stroke-width="0.7"/><circle cx="131" cy="33" r="3.2" fill="#E4D9F5" stroke="#7C4DBC" stroke-width="0.7"/><circle cx="119" cy="121" r="3.2" fill="#E4D9F5" stroke="#7C4DBC" stroke-width="0.7"/><circle cx="132" cy="46" r="3.2" fill="#E4D9F5" stroke="#7C4DBC" stroke-width="0.7"/><circle cx="144" cy="82" r="3.2" fill="#E4D9F5" stroke="#7C4DBC" stroke-width="0.7"/><circle cx="108" cy="65" r="3.2" fill="#E4D9F5" stroke="#7C4DBC" stroke-width="0.7"/><circle cx="123" cy="96" r="3.2" fill="#E4D9F5" stroke="#7C4DBC" stroke-width="0.7"/><circle cx="118" cy="117" r="3.2" fill="#E4D9F5" stroke="#7C4DBC" stroke-width="0.7"/><circle cx="107" cy="97" r="3.2" fill="#E4D9F5" stroke="#7C4DBC" stroke-width="0.7"/><circle cx="91" cy="42" r="3.2" fill="#E4D9F5" stroke="#7C4DBC" stroke-width="0.7"/><circle cx="118" cy="85" r="3.2" fill="#E4D9F5" stroke="#7C4DBC" stroke-width="0.7"/><circle cx="160" cy="71" r="3.2" fill="#E4D9F5" stroke="#7C4DBC" stroke-width="0.7"/><circle cx="127" cy="51" r="3.2" fill="#E4D9F5" stroke="#7C4DBC" stroke-width="0.7"/><circle cx="121" cy="90" r="3.2" fill="#E4D9F5" stroke="#7C4DBC" stroke-width="0.7"/><circle cx="112" cy="101" r="3.2" fill="#E4D9F5" stroke="#7C4DBC" stroke-width="0.7"/><circle cx="152" cy="92" r="3.2" fill="#E4D9F5" stroke="#7C4DBC" stroke-width="0.7"/><circle cx="119" cy="72" r="3.2" fill="#E4D9F5" stroke="#7C4DBC" stroke-width="0.7"/><circle cx="134" cy="56" r="3.2" fill="#E4D9F5" stroke="#7C4DBC" stroke-width="0.7"/><circle cx="142" cy="66" r="3.2" fill="#E4D9F5" stroke="#7C4DBC" stroke-width="0.7"/><circle cx="127" cy="54" r="3.2" fill="#E4D9F5" stroke="#7C4DBC" stroke-width="0.7"/><circle cx="100" cy="61" r="3.2" fill="#E4D9F5" stroke="#7C4DBC" stroke-width="0.7"/><circle cx="131" cy="80" r="3.2" fill="#E4D9F5" stroke="#7C4DBC" stroke-width="0.7"/><circle cx="122" cy="100" r="3.2" fill="#E4D9F5" stroke="#7C4DBC" stroke-width="0.7"/><circle cx="101" cy="99" r="3.2" fill="#E4D9F5" stroke="#7C4DBC" stroke-width="0.7"/><circle cx="108" cy="59" r="3.2" fill="#E4D9F5" stroke="#7C4DBC" stroke-width="0.7"/><circle cx="109" cy="102" r="3.2" fill="#E4D9F5" stroke="#7C4DBC" stroke-width="0.7"/><circle cx="157" cy="67" r="3.2" fill="#E4D9F5" stroke="#7C4DBC" stroke-width="0.7"/><circle cx="98" cy="45" r="3.2" fill="#E4D9F5" stroke="#7C4DBC" stroke-width="0.7"/><circle cx="170" cy="93" r="4.5" fill="#c0392b" opacity="0.75"/><circle cx="118" cy="130" r="4.5" fill="#c0392b" opacity="0.75"/><circle cx="69" cy="85" r="4.5" fill="#c0392b" opacity="0.75"/><circle cx="104" cy="29" r="4.5" fill="#c0392b" opacity="0.75"/><circle cx="160" cy="45" r="4.5" fill="#c0392b" opacity="0.75"/>
  <text x="120.0" y="152" font-family="sans-serif" font-size="7.5" fill="#1b2430" text-anchor="middle" opacity="0.55">PSGN — glomerulus with subepithelial humps</text>
</svg>