<svg xmlns="http://www.w3.org/2000/svg" viewBox="0 0 240 160" width="240" height="160">
  <rect width="240" height="160" fill="#f8f5fc"/>
  <rect x="8" y="8" width="224" height="136" rx="12" fill="#F1ECFA" stroke="#7C4DBC" stroke-width="2"/><circle cx="203.8" cy="55.2" r="10.3" fill="#E4D9F5" stroke="#7C4DBC" stroke-width="1.1"/><circle cx="203.8" cy="55.2" r="3.6" fill="#7C4DBC"/><circle cx="117.0" cy="66.6" r="8.8" fill="#E4D9F5" stroke="#7C4DBC" stroke-width="1.1"/><circle cx="117.0" cy="66.6" r="3.1" fill="#7C4DBC"/><circle cx="63.3" cy="69.8" r="11.0" fill="#E4D9F5" stroke="#7C4DBC" stroke-width="1.1"/><circle cx="63.3" cy="69.8" r="3.9" fill="#7C4DBC"/><circle cx="116.8" cy="41.2" r="7.3" fill="#E4D9F5" stroke="#7C4DBC" stroke-width="1.1"/><circle cx="116.8" cy="41.2" r="2.5" fill="#7C4DBC"/><circle cx="94.4" cy="80.7" r="7.6" fill="#E4D9F5" stroke="#7C4DBC" stroke-width="1.1"/><circle cx="94.4" cy="80.7" r="2.7" fill="#7C4DBC"/><circle cx="174.8" cy="86.0" r="7.5" fill="#E4D9F5" stroke="#7C4DBC" stroke-width="1.1"/><circle cx="174.8" cy="86.0" r="2.6" fill="#7C4DBC"/><circle cx="140.6" cy="46.4" r="9.8" fill="#E4D9F5" stroke="#7C4DBC" stroke-width="1.1"/><circle cx="140.6" cy="46.4" r="3.4" fill="#7C4DBC"/><circle cx="206.0" cy="86.3" r="10.8" fill="#E4D9F5" stroke="#7C4DBC" stroke-width="1.1"/><circle cx="206.0" cy="86.3" r="3.8" fill="#7C4DBC"/><circle cx="181.7" cy="80.9" r="11.3" fill="#E4D9F5" stroke="#7C4DBC" stroke-width="1.1"/><circle cx="181.7" cy="80.9" r="4.0" fill="#7C4DBC"/>
  <text x="120.0" y="152" font-family="sans-serif" font-size="8.5" fill="#1b2430" text-anchor="middle" opacity="0.55">Granuloma (schematic placeholder)</text>
</svg>