<svg xmlns="http://www.w3.org/2000/svg" viewBox="0 0 240 160" width="240" height="160">
  <rect width="240" height="160" fill="#f8f5fc"/>
  <circle cx="120" cy="75" r="50" fill="#F1ECFA" stroke="#7C4DBC" stroke-width="2"/><ellipse cx="161" cy="63" rx="6" ry="4.5" fill="#E4D9F5" stroke="#7C4DBC" stroke-width="0.9"/><ellipse cx="130" cy="79" rx="6" ry="4.5" fill="#E4D9F5" stroke="#7C4DBC" stroke-width="0.9"/><ellipse cx="138" cy="45" rx="6" ry="4.5" fill="#E4D9F5" stroke="#7C4DBC" stroke-width="0.9"/><ellipse cx="111" cy="58" rx="6" ry="4.5" fill="#E4D9F5" stroke="#7C4DBC" stroke-width="0.9"/><ellipse cx="96" cy="56" rx="6" ry="4.5" fill="#E4D9F5" stroke="#7C4DBC" stroke-width="0.9"/><ellipse cx="108" cy="68" rx="6" ry="4.5" fill="#E4D9F5" stroke="#7C4DBC" stroke-width="0.9"/><ellipse cx="100" cy="85" rx="6" ry="4.5" fill="#E4D9F5" stroke="#7C4DBC" stroke-width="0.9"/><ellipse cx="112" cy="31" rx="6" ry="4.5" fill="#E4D9F5" stroke="#7C4DBC" stroke-width="0.9"/><ellipse cx="147" cy="66" rx="6" ry="4.5" fill="#E4D9F5" stroke="#7C4DBC" stroke-width="0.9"/><ellipse cx="103" cy="81" rx="6" ry="4.5" fill="#E4D9F5" stroke="#7C4DBC" stroke-width="0.9"/><ellipse cx="129" cy="77" rx="6" ry="4.5" fill="#E4D9F5" stroke="#7C4DBC" stroke-width="0.9"/><ellipse cx="101" cy="79" rx="6" ry="4.5" fill="#E4D9F5" stroke="#7C4DBC" stroke-width="0.9"/><ellipse cx="90" cy="103" rx="6" ry="4.5" fill="#E4D9F5" stroke="#7C4DBC" stroke-width="0.9"/><ellipse cx="92" cy="70" rx="6" ry="4.5" fill="#E4D9F5" stroke="#7C4DBC" stroke-width="0.9"/><ellipse cx="121" cy="84" rx="6" ry="4.5" fill="#E4D9F5" stroke="#7C4DBC" stroke-width="0.9"/><ellipse cx="114" cy="87" rx="6" ry="4.5" fill="#E4D9F5" stroke="#7C4DBC" stroke-width="0.9"/><ellipse cx="75" cy="72" rx="6" ry="4.5" fill="#E4D9F5" stroke="#7C4DBC" stroke-width="0.9"/><ellipse cx="113" cy="62" rx="6" ry="4.5" fill="#E4D9F5" stroke="#7C4DBC" stroke-width="0.9"/><ellipse cx="149" cy="52" rx="6" ry="4.5" fill="#E4D9F5" stroke="#7C4DBC" stroke-width="0.9"/><ellipse cx="116" cy="34" rx="6" ry="4.5" fill="#E4D9F5" stroke="#7C4DBC" stroke-width="0.9"/><ellipse cx="120" cy="70" rx="13" ry="8" fill="#E4D9F5" stroke="#7C4DBC" stroke-width="1.4"/><circle cx="112" cy="67" r="2.6" fill="#1b2430"/><circle cx="120" cy="67" r="2.6" fill="#1b2430"/><circle cx="128" cy="67" r="2.6" fill="#1b2430"/>
  <text x="120.0" y="152" font-family="sans-serif" font-size="7.5" fill="#1b2430" text-anchor="middle" opacity="0.55">Granuloma — epithelioid + giant cells</text>
</svg>