<svg xmlns="http://www.w3.org/2000/svg" viewBox="0 0 240 160" width="240" height="160">
  <rect width="240" height="160" fill="#f8f5fc"/>
  <circle cx="45" cy="35" r="17" fill="#D9C49A" opacity="0.55"/><ellipse cx="62" cy="35" rx="4.5" ry="6" fill="#F1ECFA" stroke="#7C4DBC" stroke-width="1"/><ellipse cx="59" cy="45" rx="4.5" ry="6" fill="#F1ECFA" stroke="#7C4DBC" stroke-width="1"/><ellipse cx="50" cy="51" rx="4.5" ry="6" fill="#F1ECFA" stroke="#7C4DBC" stroke-width="1"/><ellipse cx="40" cy="51" rx="4.5" ry="6" fill="#F1ECFA" stroke="#7C4DBC" stroke-width="1"/><ellipse cx="31" cy="45" rx="4.5" ry="6" fill="#F1ECFA" stroke="#7C4DBC" stroke-width="1"/><ellipse cx="28" cy="35" rx="4.5" ry="6" fill="#F1ECFA" stroke="#7C4DBC" stroke-width="1"/><ellipse cx="31" cy="25" rx="4.5" ry="6" fill="#F1ECFA" stroke="#7C4DBC" stroke-width="1"/><ellipse cx="40" cy="19" rx="4.5" ry="6" fill="#F1ECFA" stroke="#7C4DBC" stroke-width="1"/><ellipse cx="50" cy="19" rx="4.5" ry="6" fill="#F1ECFA" stroke="#7C4DBC" stroke-width="1"/><ellipse cx="59" cy="25" rx="4.5" ry="6" fill="#F1ECFA" stroke="#7C4DBC" stroke-width="1"/><circle cx="45" cy="80" r="20" fill="#D9C49A" opacity="0.55"/><ellipse cx="65" cy="80" rx="4.5" ry="6" fill="#F1ECFA" stroke="#7C4DBC" stroke-width="1"/><ellipse cx="61" cy="92" rx="4.5" ry="6" fill="#F1ECFA" stroke="#7C4DBC" stroke-width="1"/><ellipse cx="51" cy="99" rx="4.5" ry="6" fill="#F1ECFA" stroke="#7C4DBC" stroke-width="1"/><ellipse cx="39" cy="99" rx="4.5" ry="6" fill="#F1ECFA" stroke="#7C4DBC" stroke-width="1"/><ellipse cx="29" cy="92" rx="4.5" ry="6" fill="#F1ECFA" stroke="#7C4DBC" stroke-width="1"/><ellipse cx="25" cy="80" rx="4.5" ry="6" fill="#F1ECFA" stroke="#7C4DBC" stroke-width="1"/><ellipse cx="29" cy="68" rx="4.5" ry="6" fill="#F1ECFA" stroke="#7C4DBC" stroke-width="1"/><ellipse cx="39" cy="61" rx="4.5" ry="6" fill="#F1ECFA" stroke="#7C4DBC" stroke-width="1"/><ellipse cx="51" cy="61" rx="4.5" ry="6" fill="#F1ECFA" stroke="#7C4DBC" stroke-width="1"/><ellipse cx="61" cy="68" rx="4.5" ry="6" fill="#F1ECFA" stroke="#7C4DBC" stroke-width="1"/><circle cx="45" cy="125" r="18" fill="#D9C49A" opacity="0.55"/><ellipse cx="63" cy="125" rx="4.5" ry="6" fill="#F1ECFA" stroke="#7C4DBC" stroke-width="1"/><ellipse cx="60" cy="136" rx="4.5" ry="6" fill="#F1ECFA" stroke="#7C4DBC" stroke-width="1"/><ellipse cx="51" cy="142" rx="4.5" ry="6" fill="#F1ECFA" stroke="#7C4DBC" stroke-width="1"/><ellipse cx="39" cy="142" rx="4.5" ry="6" fill="#F1ECFA" stroke="#7C4DBC" stroke-width="1"/><ellipse cx="30" cy="136" rx="4.5" ry="6" fill="#F1ECFA" stroke="#7C4DBC" stroke-width="1"/><ellipse cx="27" cy="125" rx="4.5" ry="6" fill="#F1ECFA" stroke="#7C4DBC" stroke-width="1"/><ellipse cx="30" cy="114" rx="4.5" ry="6" fill="#F1ECFA" stroke="#7C4DBC" stroke-width="1"/><ellipse cx="39" cy="108" rx="4.5" ry="6" fill="#F1ECFA" stroke="#7C4DBC" stroke-width="1"/><ellipse cx="51" cy="108" rx="4.5" ry="6" fill="#F1ECFA" stroke="#7C4DBC" stroke-width="1"/><ellipse cx="60" cy="114" rx="4.5" ry="6" fill="#F1ECFA" stroke="#7C4DBC" stroke-width="1"/><circle cx="100" cy="35" r="17" fill="#D9C49A" opacity="0.55"/><ellipse cx="117" cy="35" rx="4.5" ry="6" fill="#F1ECFA" stroke="#7C4DBC" stroke-width="1"/><ellipse cx="114" cy="45" rx="4.5" ry="6" fill="#F1ECFA" stroke="#7C4DBC" stroke-width="1"/><ellipse cx="105" cy="51" rx="4.5" ry="6" fill="#F1ECFA" stroke="#7C4DBC" stroke-width="1"/><ellipse cx="95" cy="51" rx="4.5" ry="6" fill="#F1ECFA" stroke="#7C4DBC" stroke-width="1"/><ellipse cx="86" cy="45" rx="4.5" ry="6" fill="#F1ECFA" stroke="#7C4DBC" stroke-width="1"/><ellipse cx="83" cy="35" rx="4.5" ry="6" fill="#F1ECFA" stroke="#7C4DBC" stroke-width="1"/><ellipse cx="86" cy="25" rx="4.5" ry="6" fill="#F1ECFA" stroke="#7C4DBC" stroke-width="1"/><ellipse cx="95" cy="19" rx="4.5" ry="6" fill="#F1ECFA" stroke="#7C4DBC" stroke-width="1"/><ellipse cx="105" cy="19" rx="4.5" ry="6" fill="#F1ECFA" stroke="#7C4DBC" stroke-width="1"/><ellipse cx="114" cy="25" rx="4.5" ry="6" fill="#F1ECFA" stroke="#7C4DBC" stroke-width="1"/><circle cx="100" cy="80" r="19" fill="#D9C49A" opacity="0.55"/><ellipse cx="119" cy="80" rx="4.5" ry="6" fill="#F1ECFA" stroke="#7C4DBC" stroke-width="1"/><ellipse cx="115" cy="91" rx="4.5" ry="6" fill="#F1ECFA" stroke="#7C4DBC" stroke-width="1"/><ellipse cx="106" cy="98" rx="4.5" ry="6" fill="#F1ECFA" stroke="#7C4DBC" stroke-width="1"/><ellipse cx="94" cy="98" rx="4.5" ry="6" fill="#F1ECFA" stroke="#7C4DBC" stroke-width="1"/><ellipse cx="85" cy="91" rx="4.5" ry="6" fill="#F1ECFA" stroke="#7C4DBC" stroke-width="1"/><ellipse cx="81" cy="80" rx="4.5" ry="6" fill="#F1ECFA" stroke="#7C4DBC" stroke-width="1"/><ellipse cx="85" cy="69" rx="4.5" ry="6" fill="#F1ECFA" stroke="#7C4DBC" stroke-width="1"/><ellipse cx="94" cy="62" rx="4.5" ry="6" fill="#F1ECFA" stroke="#7C4DBC" stroke-width="1"/><ellipse cx="106" cy="62" rx="4.5" ry="6" fill="#F1ECFA" stroke="#7C4DBC" stroke-width="1"/><ellipse cx="115" cy="69" rx="4.5" ry="6" fill="#F1ECFA" stroke="#7C4DBC" stroke-width="1"/><circle cx="100" cy="125" r="19" fill="#D9C49A" opacity="0.55"/><ellipse cx="119" cy="125" rx="4.5" ry="6" fill="#F1ECFA" stroke="#7C4DBC" stroke-width="1"/><ellipse cx="115" cy="136" rx="4.5" ry="6" fill="#F1ECFA" stroke="#7C4DBC" stroke-width="1"/><ellipse cx="106" cy="143" rx="4.5" ry="6" fill="#F1ECFA" stroke="#7C4DBC" stroke-width="1"/><ellipse cx="94" cy="143" rx="4.5" ry="6" fill="#F1ECFA" stroke="#7C4DBC" stroke-width="1"/><ellipse cx="85" cy="136" rx="4.5" ry="6" fill="#F1ECFA" stroke="#7C4DBC" stroke-width="1"/><ellipse cx="81" cy="125" rx="4.5" ry="6" fill="#F1ECFA" stroke="#7C4DBC" stroke-width="1"/><ellipse cx="85" cy="114" rx="4.5" ry="6" fill="#F1ECFA" stroke="#7C4DBC" stroke-width="1"/><ellipse cx="94" cy="107" rx="4.5" ry="6" fill="#F1ECFA" stroke="#7C4DBC" stroke-width="1"/><ellipse cx="106" cy="107" rx="4.5" ry="6" fill="#F1ECFA" stroke="#7C4DBC" stroke-width="1"/><ellipse cx="115" cy="114" rx="4.5" ry="6" fill="#F1ECFA" stroke="#7C4DBC" stroke-width="1"/><circle cx="155" cy="35" r="19" fill="#D9C49A" opacity="0.55"/><ellipse cx="174" cy="35" rx="4.5" ry="6" fill="#F1ECFA" stroke="#7C4DBC" stroke-width="1"/><ellipse cx="170" cy="46" rx="4.5" ry="6" fill="#F1ECFA" stroke="#7C4DBC" stroke-width="1"/><ellipse cx="161" cy="53" rx="4.5" ry="6" fill="#F1ECFA" stroke="#7C4DBC" stroke-width="1"/><ellipse cx="149" cy="53" rx="4.5" ry="6" fill="#F1ECFA" stroke="#7C4DBC" stroke-width="1"/><ellipse cx="140" cy="46" rx="4.5" ry="6" fill="#F1ECFA" stroke="#7C4DBC" stroke-width="1"/><ellipse cx="136" cy="35" rx="4.5" ry="6" fill="#F1ECFA" stroke="#7C4DBC" stroke-width="1"/><ellipse cx="140" cy="24" rx="4.5" ry="6" fill="#F1ECFA" stroke="#7C4DBC" stroke-width="1"/><ellipse cx="149" cy="17" rx="4.5" ry="6" fill="#F1ECFA" stroke="#7C4DBC" stroke-width="1"/><ellipse cx="161" cy="17" rx="4.5" ry="6" fill="#F1ECFA" stroke="#7C4DBC" stroke-width="1"/><ellipse cx="170" cy="24" rx="4.5" ry="6" fill="#F1ECFA" stroke="#7C4DBC" stroke-width="1"/><circle cx="155" cy="80" r="19" fill="#D9C49A" opacity="0.55"/><ellipse cx="174" cy="80" rx="4.5" ry="6" fill="#F1ECFA" stroke="#7C4DBC" stroke-width="1"/><ellipse cx="170" cy="91" rx="4.5" ry="6" fill="#F1ECFA" stroke="#7C4DBC" stroke-width="1"/><ellipse cx="161" cy="98" rx="4.5" ry="6" fill="#F1ECFA" stroke="#7C4DBC" stroke-width="1"/><ellipse cx="149" cy="98" rx="4.5" ry="6" fill="#F1ECFA" stroke="#7C4DBC" stroke-width="1"/><ellipse cx="140" cy="91" rx="4.5" ry="6" fill="#F1ECFA" stroke="#7C4DBC" stroke-width="1"/><ellipse cx="136" cy="80" rx="4.5" ry="6" fill="#F1ECFA" stroke="#7C4DBC" stroke-width="1"/><ellipse cx="140" cy="69" rx="4.5" ry="6" fill="#F1ECFA" stroke="#7C4DBC" stroke-width="1"/><ellipse cx="149" cy="62" rx="4.5" ry="6" fill="#F1ECFA" stroke="#7C4DBC" stroke-width="1"/><ellipse cx="161" cy="62" rx="4.5" ry="6" fill="#F1ECFA" stroke="#7C4DBC" stroke-width="1"/><ellipse cx="170" cy="69" rx="4.5" ry="6" fill="#F1ECFA" stroke="#7C4DBC" stroke-width="1"/><circle cx="155" cy="125" r="18" fill="#D9C49A" opacity="0.55"/><ellipse cx="173" cy="125" rx="4.5" ry="6" fill="#F1ECFA" stroke="#7C4DBC" stroke-width="1"/><ellipse cx="169" cy="135" rx="4.5" ry="6" fill="#F1ECFA" stroke="#7C4DBC" stroke-width="1"/><ellipse cx="160" cy="142" rx="4.5" ry="6" fill="#F1ECFA" stroke="#7C4DBC" stroke-width="1"/><ellipse cx="150" cy="142" rx="4.5" ry="6" fill="#F1ECFA" stroke="#7C4DBC" stroke-width="1"/><ellipse cx="141" cy="135" rx="4.5" ry="6" fill="#F1ECFA" stroke="#7C4DBC" stroke-width="1"/><ellipse cx="137" cy="125" rx="4.5" ry="6" fill="#F1ECFA" stroke="#7C4DBC" stroke-width="1"/><ellipse cx="141" cy="115" rx="4.5" ry="6" fill="#F1ECFA" stroke="#7C4DBC" stroke-width="1"/><ellipse cx="150" cy="108" rx="4.5" ry="6" fill="#F1ECFA" stroke="#7C4DBC" stroke-width="1"/><ellipse cx="160" cy="108" rx="4.5" ry="6" fill="#F1ECFA" stroke="#7C4DBC" stroke-width="1"/><ellipse cx="169" cy="115" rx="4.5" ry="6" fill="#F1ECFA" stroke="#7C4DBC" stroke-width="1"/><circle cx="205" cy="35" r="18" fill="#D9C49A" opacity="0.55"/><ellipse cx="223" cy="35" rx="4.5" ry="6" fill="#F1ECFA" stroke="#7C4DBC" stroke-width="1"/><ellipse cx="219" cy="45" rx="4.5" ry="6" fill="#F1ECFA" stroke="#7C4DBC" stroke-width="1"/><ellipse cx="210" cy="52" rx="4.5" ry="6" fill="#F1ECFA" stroke="#7C4DBC" stroke-width="1"/><ellipse cx="200" cy="52" rx="4.5" ry="6" fill="#F1ECFA" stroke="#7C4DBC" stroke-width="1"/><ellipse cx="191" cy="45" rx="4.5" ry="6" fill="#F1ECFA" stroke="#7C4DBC" stroke-width="1"/><ellipse cx="187" cy="35" rx="4.5" ry="6" fill="#F1ECFA" stroke="#7C4DBC" stroke-width="1"/><ellipse cx="191" cy="25" rx="4.5" ry="6" fill="#F1ECFA" stroke="#7C4DBC" stroke-width="1"/><ellipse cx="200" cy="18" rx="4.5" ry="6" fill="#F1ECFA" stroke="#7C4DBC" stroke-width="1"/><ellipse cx="210" cy="18" rx="4.5" ry="6" fill="#F1ECFA" stroke="#7C4DBC" stroke-width="1"/><ellipse cx="219" cy="25" rx="4.5" ry="6" fill="#F1ECFA" stroke="#7C4DBC" stroke-width="1"/><circle cx="205" cy="80" r="20" fill="#D9C49A" opacity="0.55"/><ellipse cx="225" cy="80" rx="4.5" ry="6" fill="#F1ECFA" stroke="#7C4DBC" stroke-width="1"/><ellipse cx="221" cy="92" rx="4.5" ry="6" fill="#F1ECFA" stroke="#7C4DBC" stroke-width="1"/><ellipse cx="211" cy="99" rx="4.5" ry="6" fill="#F1ECFA" stroke="#7C4DBC" stroke-width="1"/><ellipse cx="199" cy="99" rx="4.5" ry="6" fill="#F1ECFA" stroke="#7C4DBC" stroke-width="1"/><ellipse cx="189" cy="92" rx="4.5" ry="6" fill="#F1ECFA" stroke="#7C4DBC" stroke-width="1"/><ellipse cx="185" cy="80" rx="4.5" ry="6" fill="#F1ECFA" stroke="#7C4DBC" stroke-width="1"/><ellipse cx="189" cy="68" rx="4.5" ry="6" fill="#F1ECFA" stroke="#7C4DBC" stroke-width="1"/><ellipse cx="199" cy="61" rx="4.5" ry="6" fill="#F1ECFA" stroke="#7C4DBC" stroke-width="1"/><ellipse cx="211" cy="61" rx="4.5" ry="6" fill="#F1ECFA" stroke="#7C4DBC" stroke-width="1"/><ellipse cx="221" cy="68" rx="4.5" ry="6" fill="#F1ECFA" stroke="#7C4DBC" stroke-width="1"/><circle cx="205" cy="125" r="18" fill="#D9C49A" opacity="0.55"/><ellipse cx="223" cy="125" rx="4.5" ry="6" fill="#F1ECFA" stroke="#7C4DBC" stroke-width="1"/><ellipse cx="220" cy="136" rx="4.5" ry="6" fill="#F1ECFA" stroke="#7C4DBC" stroke-width="1"/><ellipse cx="211" cy="142" rx="4.5" ry="6" fill="#F1ECFA" stroke="#7C4DBC" stroke-width="1"/><ellipse cx="199" cy="142" rx="4.5" ry="6" fill="#F1ECFA" stroke="#7C4DBC" stroke-width="1"/><ellipse cx="190" cy="136" rx="4.5" ry="6" fill="#F1ECFA" stroke="#7C4DBC" stroke-width="1"/><ellipse cx="187" cy="125" rx="4.5" ry="6" fill="#F1ECFA" stroke="#7C4DBC" stroke-width="1"/><ellipse cx="190" cy="114" rx="4.5" ry="6" fill="#F1ECFA" stroke="#7C4DBC" stroke-width="1"/><ellipse cx="199" cy="108" rx="4.5" ry="6" fill="#F1ECFA" stroke="#7C4DBC" stroke-width="1"/><ellipse cx="211" cy="108" rx="4.5" ry="6" fill="#F1ECFA" stroke="#7C4DBC" stroke-width="1"/><ellipse cx="220" cy="114" rx="4.5" ry="6" fill="#F1ECFA" stroke="#7C4DBC" stroke-width="1"/>
  <text x="120.0" y="152" font-family="sans-serif" font-size="7.5" fill="#1b2430" text-anchor="middle" opacity="0.55">Graves disease — hyperplastic follicles</text>
</svg>