<svg xmlns="http://www.w3.org/2000/svg" viewBox="0 0 240 160" width="240" height="160">
  <rect width="240" height="160" fill="#f8f5fc"/>
  <rect x="8" y="8" width="224" height="136" rx="12" fill="#F1ECFA" stroke="#7C4DBC" stroke-width="2"/><circle cx="132.5" cy="46.8" r="9.9" fill="#E4D9F5" stroke="#7C4DBC" stroke-width="1.1"/><circle cx="132.5" cy="46.8" r="3.5" fill="#7C4DBC"/><circle cx="44.1" cy="63.5" r="8.5" fill="#E4D9F5" stroke="#7C4DBC" stroke-width="1.1"/><circle cx="44.1" cy="63.5" r="3.0" fill="#7C4DBC"/><circle cx="134.1" cy="85.6" r="11.9" fill="#E4D9F5" stroke="#7C4DBC" stroke-width="1.1"/><circle cx="134.1" cy="85.6" r="4.2" fill="#7C4DBC"/><circle cx="142.0" cy="120.7" r="9.1" fill="#E4D9F5" stroke="#7C4DBC" stroke-width="1.1"/><circle cx="142.0" cy="120.7" r="3.2" fill="#7C4DBC"/><circle cx="54.7" cy="91.0" r="12.9" fill="#E4D9F5" stroke="#7C4DBC" stroke-width="1.1"/><circle cx="54.7" cy="91.0" r="4.5" fill="#7C4DBC"/><circle cx="161.2" cy="57.7" r="11.1" fill="#E4D9F5" stroke="#7C4DBC" stroke-width="1.1"/><circle cx="161.2" cy="57.7" r="3.9" fill="#7C4DBC"/><circle cx="192.3" cy="92.6" r="10.8" fill="#E4D9F5" stroke="#7C4DBC" stroke-width="1.1"/><circle cx="192.3" cy="92.6" r="3.8" fill="#7C4DBC"/><circle cx="121.0" cy="69.3" r="9.6" fill="#E4D9F5" stroke="#7C4DBC" stroke-width="1.1"/><circle cx="121.0" cy="69.3" r="3.4" fill="#7C4DBC"/><circle cx="62.9" cy="118.9" r="8.8" fill="#E4D9F5" stroke="#7C4DBC" stroke-width="1.1"/><circle cx="62.9" cy="118.9" r="3.1" fill="#7C4DBC"/>
  <text x="120.0" y="152" font-family="sans-serif" font-size="8.5" fill="#1b2430" text-anchor="middle" opacity="0.55">Graves' Disease (schematic placeholder)</text>
</svg>