<svg xmlns="http://www.w3.org/2000/svg" viewBox="0 0 240 160" width="240" height="160">
  <rect width="240" height="160" fill="#f8f5fc"/>
  <circle cx="80" cy="60" r="14" fill="#F1ECFA" stroke="#7C4DBC" stroke-width="1"/>
  <circle cx="115" cy="50" r="12" fill="#F1ECFA" stroke="#7C4DBC" stroke-width="1"/>
  <circle cx="150" cy="65" r="13" fill="#F1ECFA" stroke="#7C4DBC" stroke-width="1"/>
  <circle cx="180" cy="50" r="11" fill="#F1ECFA" stroke="#7C4DBC" stroke-width="1"/>
  <circle cx="115" cy="105" r="20" fill="none" stroke="#5B3A8C" stroke-width="1.3"/>
  <circle cx="115" cy="105" r="9" fill="#E8DFF7" stroke="#5B3A8C" stroke-width="1"/>
  <circle cx="118.5" cy="91.4" r="1.8" fill="#5B3A8C" opacity="0.7"/><circle cx="98.0" cy="93.3" r="1.8" fill="#5B3A8C" opacity="0.7"/><circle cx="107.7" cy="109.3" r="1.8" fill="#5B3A8C" opacity="0.7"/><circle cx="114.6" cy="103.1" r="1.8" fill="#5B3A8C" opacity="0.7"/><circle cx="103.9" cy="104.4" r="1.8" fill="#5B3A8C" opacity="0.7"/><circle cx="119.6" cy="114.4" r="1.8" fill="#5B3A8C" opacity="0.7"/><circle cx="131.6" cy="98.1" r="1.8" fill="#5B3A8C" opacity="0.7"/><circle cx="114.4" cy="116.5" r="1.8" fill="#5B3A8C" opacity="0.7"/><circle cx="132.8" cy="95.3" r="1.8" fill="#5B3A8C" opacity="0.7"/><circle cx="99.3" cy="110.5" r="1.8" fill="#5B3A8C" opacity="0.7"/><circle cx="118.2" cy="92.2" r="1.8" fill="#5B3A8C" opacity="0.7"/><circle cx="102.7" cy="108.8" r="1.8" fill="#5B3A8C" opacity="0.7"/><circle cx="98.7" cy="88.7" r="1.8" fill="#5B3A8C" opacity="0.7"/><circle cx="121.4" cy="107.0" r="1.8" fill="#5B3A8C" opacity="0.7"/><circle cx="121.0" cy="95.6" r="1.8" fill="#5B3A8C" opacity="0.7"/><circle cx="118.0" cy="121.8" r="1.8" fill="#5B3A8C" opacity="0.7"/><circle cx="107.5" cy="97.1" r="1.8" fill="#5B3A8C" opacity="0.7"/><circle cx="129.8" cy="91.4" r="1.8" fill="#5B3A8C" opacity="0.7"/>
  <circle cx="165" cy="115" r="16" fill="none" stroke="#5B3A8C" stroke-width="1.3"/>
  <circle cx="159.7" cy="123.7" r="1.6" fill="#5B3A8C" opacity="0.7"/><circle cx="160.5" cy="110.1" r="1.6" fill="#5B3A8C" opacity="0.7"/><circle cx="172.5" cy="127.5" r="1.6" fill="#5B3A8C" opacity="0.7"/><circle cx="174.1" cy="122.9" r="1.6" fill="#5B3A8C" opacity="0.7"/><circle cx="172.4" cy="125.8" r="1.6" fill="#5B3A8C" opacity="0.7"/><circle cx="161.3" cy="104.9" r="1.6" fill="#5B3A8C" opacity="0.7"/><circle cx="158.8" cy="103.1" r="1.6" fill="#5B3A8C" opacity="0.7"/><circle cx="164.8" cy="108.3" r="1.6" fill="#5B3A8C" opacity="0.7"/><circle cx="163.7" cy="126.7" r="1.6" fill="#5B3A8C" opacity="0.7"/><circle cx="169.6" cy="106.1" r="1.6" fill="#5B3A8C" opacity="0.7"/><circle cx="172.4" cy="111.3" r="1.6" fill="#5B3A8C" opacity="0.7"/><circle cx="167.0" cy="109.4" r="1.6" fill="#5B3A8C" opacity="0.7"/>
  <text x="120.0" y="152" font-family="sans-serif" font-size="7.5" fill="#1b2430" text-anchor="middle" opacity="0.55">Hashimoto thyroiditis — lymphocytic infiltrate with germinal centers</text>
</svg>