<svg xmlns="http://www.w3.org/2000/svg" viewBox="0 0 240 160" width="240" height="160">
  <rect width="240" height="160" fill="#f8f5fc"/>
<polygon points="11,19 25,19 27,25 25,31 11,31 9,25" fill="#fdf3ec" stroke="#7C4DBC" stroke-width="0.6"/><polygon points="28,19 42,19 44,25 42,31 28,31 26,25" fill="#fdf3ec" stroke="#7C4DBC" stroke-width="0.6"/><circle cx="33" cy="25" r="1.2" fill="#3d2566"/><circle cx="34" cy="25" r="1.2" fill="#3d2566"/><circle cx="31" cy="28" r="1.2" fill="#3d2566"/><circle cx="34" cy="28" r="1.2" fill="#3d2566"/><circle cx="40" cy="27" r="1.2" fill="#3d2566"/><circle cx="36" cy="22" r="1.2" fill="#3d2566"/><circle cx="34" cy="24" r="1.2" fill="#3d2566"/><polygon points="45,19 59,19 61,25 59,31 45,31 43,25" fill="#fdf3ec" stroke="#7C4DBC" stroke-width="0.6"/><circle cx="52" cy="25" r="1.2" fill="#3d2566"/><circle cx="52" cy="29" r="1.2" fill="#3d2566"/><circle cx="49" cy="23" r="1.2" fill="#3d2566"/><circle cx="55" cy="25" r="1.2" fill="#3d2566"/><circle cx="49" cy="21" r="1.2" fill="#3d2566"/><polygon points="62,19 76,19 78,25 76,31 62,31 60,25" fill="#fdf3ec" stroke="#7C4DBC" stroke-width="0.6"/><circle cx="73" cy="26" r="1.2" fill="#3d2566"/><circle cx="64" cy="22" r="1.2" fill="#3d2566"/><circle cx="68" cy="24" r="1.2" fill="#3d2566"/><polygon points="79,19 93,19 95,25 93,31 79,31 77,25" fill="#fdf3ec" stroke="#7C4DBC" stroke-width="0.6"/><circle cx="87" cy="28" r="1.2" fill="#3d2566"/><circle cx="90" cy="22" r="1.2" fill="#3d2566"/><circle cx="91" cy="22" r="1.2" fill="#3d2566"/><circle cx="90" cy="26" r="1.2" fill="#3d2566"/><circle cx="83" cy="22" r="1.2" fill="#3d2566"/><circle cx="88" cy="29" r="1.2" fill="#3d2566"/><polygon points="96,19 110,19 112,25 110,31 96,31 94,25" fill="#fdf3ec" stroke="#7C4DBC" stroke-width="0.6"/><circle cx="105" cy="24" r="1.2" fill="#3d2566"/><circle cx="105" cy="25" r="1.2" fill="#3d2566"/><circle cx="106" cy="25" r="1.2" fill="#3d2566"/><circle cx="99" cy="22" r="1.2" fill="#3d2566"/><circle cx="99" cy="25" r="1.2" fill="#3d2566"/><polygon points="113,19 127,19 129,25 127,31 113,31 111,25" fill="#fdf3ec" stroke="#7C4DBC" stroke-width="0.6"/><polygon points="130,19 144,19 146,25 144,31 130,31 128,25" fill="#fdf3ec" stroke="#7C4DBC" stroke-width="0.6"/><polygon points="147,19 161,19 163,25 161,31 147,31 145,25" fill="#fdf3ec" stroke="#7C4DBC" stroke-width="0.6"/><circle cx="159" cy="29" r="1.2" fill="#3d2566"/><circle cx="158" cy="22" r="1.2" fill="#3d2566"/><circle cx="155" cy="28" r="1.2" fill="#3d2566"/><polygon points="164,19 178,19 180,25 178,31 164,31 162,25" fill="#fdf3ec" stroke="#7C4DBC" stroke-width="0.6"/><circle cx="174" cy="27" r="1.2" fill="#3d2566"/><circle cx="173" cy="25" r="1.2" fill="#3d2566"/><circle cx="173" cy="28" r="1.2" fill="#3d2566"/><circle cx="172" cy="27" r="1.2" fill="#3d2566"/><polygon points="181,19 195,19 197,25 195,31 181,31 179,25" fill="#fdf3ec" stroke="#7C4DBC" stroke-width="0.6"/><circle cx="187" cy="28" r="1.2" fill="#3d2566"/><circle cx="189" cy="24" r="1.2" fill="#3d2566"/><circle cx="190" cy="28" r="1.2" fill="#3d2566"/><polygon points="198,19 212,19 214,25 212,31 198,31 196,25" fill="#fdf3ec" stroke="#7C4DBC" stroke-width="0.6"/><polygon points="215,19 229,19 231,25 229,31 215,31 213,25" fill="#fdf3ec" stroke="#7C4DBC" stroke-width="0.6"/><polygon points="11,35 25,35 27,41 25,47 11,47 9,41" fill="#fdf3ec" stroke="#7C4DBC" stroke-width="0.6"/><circle cx="20" cy="37" r="1.2" fill="#3d2566"/><circle cx="19" cy="43" r="1.2" fill="#3d2566"/><circle cx="13" cy="42" r="1.2" fill="#3d2566"/><circle cx="22" cy="42" r="1.2" fill="#3d2566"/><circle cx="20" cy="41" r="1.2" fill="#3d2566"/><circle cx="18" cy="41" r="1.2" fill="#3d2566"/><circle cx="21" cy="40" r="1.2" fill="#3d2566"/><polygon points="28,35 42,35 44,41 42,47 28,47 26,41" fill="#fdf3ec" stroke="#7C4DBC" stroke-width="0.6"/><polygon points="45,35 59,35 61,41 59,47 45,47 43,41" fill="#fdf3ec" stroke="#7C4DBC" stroke-width="0.6"/><circle cx="48" cy="43" r="1.2" fill="#3d2566"/><circle cx="48" cy="37" r="1.2" fill="#3d2566"/><circle cx="50" cy="41" r="1.2" fill="#3d2566"/><circle cx="47" cy="37" r="1.2" fill="#3d2566"/><circle cx="56" cy="45" r="1.2" fill="#3d2566"/><polygon points="62,35 76,35 78,41 76,47 62,47 60,41" fill="#fdf3ec" stroke="#7C4DBC" stroke-width="0.6"/><polygon points="79,35 93,35 95,41 93,47 79,47 77,41" fill="#fdf3ec" stroke="#7C4DBC" stroke-width="0.6"/><circle cx="85" cy="38" r="1.2" fill="#3d2566"/><circle cx="81" cy="39" r="1.2" fill="#3d2566"/><circle cx="84" cy="37" r="1.2" fill="#3d2566"/><circle cx="84" cy="41" r="1.2" fill="#3d2566"/><circle cx="89" cy="41" r="1.2" fill="#3d2566"/><polygon points="96,35 110,35 112,41 110,47 96,47 94,41" fill="#fdf3ec" stroke="#7C4DBC" stroke-width="0.6"/><polygon points="113,35 127,35 129,41 127,47 113,47 111,41" fill="#fdf3ec" stroke="#7C4DBC" stroke-width="0.6"/><polygon points="130,35 144,35 146,41 144,47 130,47 128,41" fill="#fdf3ec" stroke="#7C4DBC" stroke-width="0.6"/><circle cx="136" cy="42" r="1.2" fill="#3d2566"/><circle cx="132" cy="45" r="1.2" fill="#3d2566"/><circle cx="141" cy="39" r="1.2" fill="#3d2566"/><circle cx="140" cy="40" r="1.2" fill="#3d2566"/><circle cx="137" cy="44" r="1.2" fill="#3d2566"/><polygon points="147,35 161,35 163,41 161,47 147,47 145,41" fill="#fdf3ec" stroke="#7C4DBC" stroke-width="0.6"/><polygon points="164,35 178,35 180,41 178,47 164,47 162,41" fill="#fdf3ec" stroke="#7C4DBC" stroke-width="0.6"/><circle cx="174" cy="42" r="1.2" fill="#3d2566"/><circle cx="173" cy="37" r="1.2" fill="#3d2566"/><circle cx="169" cy="43" r="1.2" fill="#3d2566"/><circle cx="173" cy="42" r="1.2" fill="#3d2566"/><circle cx="167" cy="41" r="1.2" fill="#3d2566"/><circle cx="167" cy="39" r="1.2" fill="#3d2566"/><circle cx="169" cy="37" r="1.2" fill="#3d2566"/><polygon points="181,35 195,35 197,41 195,47 181,47 179,41" fill="#fdf3ec" stroke="#7C4DBC" stroke-width="0.6"/><circle cx="186" cy="41" r="1.2" fill="#3d2566"/><circle cx="190" cy="44" r="1.2" fill="#3d2566"/><circle cx="185" cy="45" r="1.2" fill="#3d2566"/><circle cx="189" cy="37" r="1.2" fill="#3d2566"/><polygon points="198,35 212,35 214,41 212,47 198,47 196,41" fill="#fdf3ec" stroke="#7C4DBC" stroke-width="0.6"/><circle cx="205" cy="45" r="1.2" fill="#3d2566"/><circle cx="206" cy="43" r="1.2" fill="#3d2566"/><circle cx="202" cy="44" r="1.2" fill="#3d2566"/><circle cx="203" cy="38" r="1.2" fill="#3d2566"/><circle cx="202" cy="39" r="1.2" fill="#3d2566"/><polygon points="215,35 229,35 231,41 229,47 215,47 213,41" fill="#fdf3ec" stroke="#7C4DBC" stroke-width="0.6"/><polygon points="11,51 25,51 27,57 25,63 11,63 9,57" fill="#fdf3ec" stroke="#7C4DBC" stroke-width="0.6"/><circle cx="23" cy="58" r="1.2" fill="#3d2566"/><circle cx="22" cy="61" r="1.2" fill="#3d2566"/><circle cx="13" cy="59" r="1.2" fill="#3d2566"/><circle cx="20" cy="57" r="1.2" fill="#3d2566"/><polygon points="28,51 42,51 44,57 42,63 28,63 26,57" fill="#fdf3ec" stroke="#7C4DBC" stroke-width="0.6"/><circle cx="31" cy="58" r="1.2" fill="#3d2566"/><circle cx="30" cy="61" r="1.2" fill="#3d2566"/><circle cx="31" cy="54" r="1.2" fill="#3d2566"/><circle cx="36" cy="54" r="1.2" fill="#3d2566"/><circle cx="30" cy="55" r="1.2" fill="#3d2566"/><polygon points="45,51 59,51 61,57 59,63 45,63 43,57" fill="#fdf3ec" stroke="#7C4DBC" stroke-width="0.6"/><polygon points="62,51 76,51 78,57 76,63 62,63 60,57" fill="#fdf3ec" stroke="#7C4DBC" stroke-width="0.6"/><circle cx="64" cy="55" r="1.2" fill="#3d2566"/><circle cx="70" cy="55" r="1.2" fill="#3d2566"/><circle cx="64" cy="60" r="1.2" fill="#3d2566"/><circle cx="71" cy="60" r="1.2" fill="#3d2566"/><circle cx="72" cy="53" r="1.2" fill="#3d2566"/><polygon points="79,51 93,51 95,57 93,63 79,63 77,57" fill="#fdf3ec" stroke="#7C4DBC" stroke-width="0.6"/><polygon points="96,51 110,51 112,57 110,63 96,63 94,57" fill="#fdf3ec" stroke="#7C4DBC" stroke-width="0.6"/><circle cx="102" cy="61" r="1.2" fill="#3d2566"/><circle cx="98" cy="61" r="1.2" fill="#3d2566"/><circle cx="101" cy="53" r="1.2" fill="#3d2566"/><circle cx="103" cy="54" r="1.2" fill="#3d2566"/><polygon points="113,51 127,51 129,57 127,63 113,63 111,57" fill="#fdf3ec" stroke="#7C4DBC" stroke-width="0.6"/><circle cx="121" cy="60" r="1.2" fill="#3d2566"/><circle cx="119" cy="58" r="1.2" fill="#3d2566"/><circle cx="120" cy="53" r="1.2" fill="#3d2566"/><circle cx="119" cy="55" r="1.2" fill="#3d2566"/><circle cx="119" cy="57" r="1.2" fill="#3d2566"/><circle cx="118" cy="61" r="1.2" fill="#3d2566"/><polygon points="130,51 144,51 146,57 144,63 130,63 128,57" fill="#fdf3ec" stroke="#7C4DBC" stroke-width="0.6"/><circle cx="132" cy="54" r="1.2" fill="#3d2566"/><circle cx="139" cy="58" r="1.2" fill="#3d2566"/><circle cx="141" cy="59" r="1.2" fill="#3d2566"/><circle cx="141" cy="59" r="1.2" fill="#3d2566"/><circle cx="136" cy="59" r="1.2" fill="#3d2566"/><circle cx="135" cy="53" r="1.2" fill="#3d2566"/><polygon points="147,51 161,51 163,57 161,63 147,63 145,57" fill="#fdf3ec" stroke="#7C4DBC" stroke-width="0.6"/><polygon points="164,51 178,51 180,57 178,63 164,63 162,57" fill="#fdf3ec" stroke="#7C4DBC" stroke-width="0.6"/><circle cx="172" cy="61" r="1.2" fill="#3d2566"/><circle cx="167" cy="56" r="1.2" fill="#3d2566"/><circle cx="169" cy="56" r="1.2" fill="#3d2566"/><circle cx="170" cy="54" r="1.2" fill="#3d2566"/><polygon points="181,51 195,51 197,57 195,63 181,63 179,57" fill="#fdf3ec" stroke="#7C4DBC" stroke-width="0.6"/><polygon points="198,51 212,51 214,57 212,63 198,63 196,57" fill="#fdf3ec" stroke="#7C4DBC" stroke-width="0.6"/><polygon points="215,51 229,51 231,57 229,63 215,63 213,57" fill="#fdf3ec" stroke="#7C4DBC" stroke-width="0.6"/><circle cx="217" cy="53" r="1.2" fill="#3d2566"/><circle cx="220" cy="57" r="1.2" fill="#3d2566"/><circle cx="223" cy="60" r="1.2" fill="#3d2566"/><circle cx="220" cy="54" r="1.2" fill="#3d2566"/><circle cx="227" cy="54" r="1.2" fill="#3d2566"/><circle cx="219" cy="58" r="1.2" fill="#3d2566"/><circle cx="224" cy="56" r="1.2" fill="#3d2566"/><polygon points="11,67 25,67 27,73 25,79 11,79 9,73" fill="#fdf3ec" stroke="#7C4DBC" stroke-width="0.6"/><polygon points="28,67 42,67 44,73 42,79 28,79 26,73" fill="#fdf3ec" stroke="#7C4DBC" stroke-width="0.6"/><circle cx="33" cy="74" r="1.2" fill="#3d2566"/><circle cx="35" cy="76" r="1.2" fill="#3d2566"/><circle cx="38" cy="73" r="1.2" fill="#3d2566"/><circle cx="30" cy="71" r="1.2" fill="#3d2566"/><circle cx="39" cy="76" r="1.2" fill="#3d2566"/><circle cx="32" cy="73" r="1.2" fill="#3d2566"/><polygon points="45,67 59,67 61,73 59,79 45,79 43,73" fill="#fdf3ec" stroke="#7C4DBC" stroke-width="0.6"/><circle cx="55" cy="69" r="1.2" fill="#3d2566"/><circle cx="49" cy="69" r="1.2" fill="#3d2566"/><circle cx="55" cy="69" r="1.2" fill="#3d2566"/><circle cx="57" cy="73" r="1.2" fill="#3d2566"/><circle cx="54" cy="74" r="1.2" fill="#3d2566"/><polygon points="62,67 76,67 78,73 76,79 62,79 60,73" fill="#fdf3ec" stroke="#7C4DBC" stroke-width="0.6"/><circle cx="74" cy="71" r="1.2" fill="#3d2566"/><circle cx="66" cy="69" r="1.2" fill="#3d2566"/><circle cx="67" cy="77" r="1.2" fill="#3d2566"/><circle cx="65" cy="71" r="1.2" fill="#3d2566"/><circle cx="73" cy="72" r="1.2" fill="#3d2566"/><polygon points="79,67 93,67 95,73 93,79 79,79 77,73" fill="#fdf3ec" stroke="#7C4DBC" stroke-width="0.6"/><circle cx="87" cy="76" r="1.2" fill="#3d2566"/><circle cx="90" cy="74" r="1.2" fill="#3d2566"/><circle cx="83" cy="74" r="1.2" fill="#3d2566"/><circle cx="84" cy="77" r="1.2" fill="#3d2566"/><circle cx="91" cy="74" r="1.2" fill="#3d2566"/><polygon points="96,67 110,67 112,73 110,79 96,79 94,73" fill="#fdf3ec" stroke="#7C4DBC" stroke-width="0.6"/><polygon points="113,67 127,67 129,73 127,79 113,79 111,73" fill="#fdf3ec" stroke="#7C4DBC" stroke-width="0.6"/><circle cx="116" cy="69" r="1.2" fill="#3d2566"/><circle cx="115" cy="73" r="1.2" fill="#3d2566"/><circle cx="119" cy="71" r="1.2" fill="#3d2566"/><circle cx="119" cy="72" r="1.2" fill="#3d2566"/><circle cx="118" cy="70" r="1.2" fill="#3d2566"/><circle cx="123" cy="72" r="1.2" fill="#3d2566"/><polygon points="130,67 144,67 146,73 144,79 130,79 128,73" fill="#fdf3ec" stroke="#7C4DBC" stroke-width="0.6"/><circle cx="141" cy="76" r="1.2" fill="#3d2566"/><circle cx="133" cy="75" r="1.2" fill="#3d2566"/><circle cx="133" cy="76" r="1.2" fill="#3d2566"/><circle cx="141" cy="70" r="1.2" fill="#3d2566"/><circle cx="140" cy="72" r="1.2" fill="#3d2566"/><polygon points="147,67 161,67 163,73 161,79 147,79 145,73" fill="#fdf3ec" stroke="#7C4DBC" stroke-width="0.6"/><polygon points="164,67 178,67 180,73 178,79 164,79 162,73" fill="#fdf3ec" stroke="#7C4DBC" stroke-width="0.6"/><circle cx="174" cy="75" r="1.2" fill="#3d2566"/><circle cx="169" cy="77" r="1.2" fill="#3d2566"/><circle cx="167" cy="71" r="1.2" fill="#3d2566"/><circle cx="171" cy="76" r="1.2" fill="#3d2566"/><circle cx="167" cy="70" r="1.2" fill="#3d2566"/><circle cx="167" cy="77" r="1.2" fill="#3d2566"/><circle cx="175" cy="72" r="1.2" fill="#3d2566"/><polygon points="181,67 195,67 197,73 195,79 181,79 179,73" fill="#fdf3ec" stroke="#7C4DBC" stroke-width="0.6"/><polygon points="198,67 212,67 214,73 212,79 198,79 196,73" fill="#fdf3ec" stroke="#7C4DBC" stroke-width="0.6"/><circle cx="207" cy="77" r="1.2" fill="#3d2566"/><circle cx="207" cy="74" r="1.2" fill="#3d2566"/><circle cx="206" cy="77" r="1.2" fill="#3d2566"/><circle cx="201" cy="74" r="1.2" fill="#3d2566"/><polygon points="215,67 229,67 231,73 229,79 215,79 213,73" fill="#fdf3ec" stroke="#7C4DBC" stroke-width="0.6"/><polygon points="11,83 25,83 27,89 25,95 11,95 9,89" fill="#fdf3ec" stroke="#7C4DBC" stroke-width="0.6"/><circle cx="15" cy="92" r="1.2" fill="#3d2566"/><circle cx="20" cy="86" r="1.2" fill="#3d2566"/><circle cx="23" cy="90" r="1.2" fill="#3d2566"/><circle cx="13" cy="93" r="1.2" fill="#3d2566"/><circle cx="20" cy="90" r="1.2" fill="#3d2566"/><polygon points="28,83 42,83 44,89 42,95 28,95 26,89" fill="#fdf3ec" stroke="#7C4DBC" stroke-width="0.6"/><polygon points="45,83 59,83 61,89 59,95 45,95 43,89" fill="#fdf3ec" stroke="#7C4DBC" stroke-width="0.6"/><polygon points="62,83 76,83 78,89 76,95 62,95 60,89" fill="#fdf3ec" stroke="#7C4DBC" stroke-width="0.6"/><polygon points="79,83 93,83 95,89 93,95 79,95 77,89" fill="#fdf3ec" stroke="#7C4DBC" stroke-width="0.6"/><polygon points="96,83 110,83 112,89 110,95 96,95 94,89" fill="#fdf3ec" stroke="#7C4DBC" stroke-width="0.6"/><polygon points="113,83 127,83 129,89 127,95 113,95 111,89" fill="#fdf3ec" stroke="#7C4DBC" stroke-width="0.6"/><circle cx="119" cy="91" r="1.2" fill="#3d2566"/><circle cx="115" cy="87" r="1.2" fill="#3d2566"/><circle cx="116" cy="91" r="1.2" fill="#3d2566"/><circle cx="125" cy="90" r="1.2" fill="#3d2566"/><polygon points="130,83 144,83 146,89 144,95 130,95 128,89" fill="#fdf3ec" stroke="#7C4DBC" stroke-width="0.6"/><circle cx="140" cy="91" r="1.2" fill="#3d2566"/><circle cx="134" cy="93" r="1.2" fill="#3d2566"/><circle cx="140" cy="91" r="1.2" fill="#3d2566"/><circle cx="136" cy="88" r="1.2" fill="#3d2566"/><polygon points="147,83 161,83 163,89 161,95 147,95 145,89" fill="#fdf3ec" stroke="#7C4DBC" stroke-width="0.6"/><circle cx="151" cy="86" r="1.2" fill="#3d2566"/><circle cx="153" cy="88" r="1.2" fill="#3d2566"/><circle cx="157" cy="85" r="1.2" fill="#3d2566"/><circle cx="152" cy="87" r="1.2" fill="#3d2566"/><polygon points="164,83 178,83 180,89 178,95 164,95 162,89" fill="#fdf3ec" stroke="#7C4DBC" stroke-width="0.6"/><polygon points="181,83 195,83 197,89 195,95 181,95 179,89" fill="#fdf3ec" stroke="#7C4DBC" stroke-width="0.6"/><polygon points="198,83 212,83 214,89 212,95 198,95 196,89" fill="#fdf3ec" stroke="#7C4DBC" stroke-width="0.6"/><polygon points="215,83 229,83 231,89 229,95 215,95 213,89" fill="#fdf3ec" stroke="#7C4DBC" stroke-width="0.6"/><polygon points="11,99 25,99 27,105 25,111 11,111 9,105" fill="#fdf3ec" stroke="#7C4DBC" stroke-width="0.6"/><circle cx="13" cy="105" r="1.2" fill="#3d2566"/><circle cx="21" cy="104" r="1.2" fill="#3d2566"/><circle cx="16" cy="106" r="1.2" fill="#3d2566"/><circle cx="15" cy="104" r="1.2" fill="#3d2566"/><circle cx="13" cy="105" r="1.2" fill="#3d2566"/><polygon points="28,99 42,99 44,105 42,111 28,111 26,105" fill="#fdf3ec" stroke="#7C4DBC" stroke-width="0.6"/><circle cx="38" cy="107" r="1.2" fill="#3d2566"/><circle cx="40" cy="109" r="1.2" fill="#3d2566"/><circle cx="34" cy="108" r="1.2" fill="#3d2566"/><polygon points="45,99 59,99 61,105 59,111 45,111 43,105" fill="#fdf3ec" stroke="#7C4DBC" stroke-width="0.6"/><circle cx="47" cy="108" r="1.2" fill="#3d2566"/><circle cx="49" cy="108" r="1.2" fill="#3d2566"/><circle cx="50" cy="105" r="1.2" fill="#3d2566"/><circle cx="50" cy="109" r="1.2" fill="#3d2566"/><polygon points="62,99 76,99 78,105 76,111 62,111 60,105" fill="#fdf3ec" stroke="#7C4DBC" stroke-width="0.6"/><circle cx="65" cy="108" r="1.2" fill="#3d2566"/><circle cx="74" cy="107" r="1.2" fill="#3d2566"/><circle cx="64" cy="108" r="1.2" fill="#3d2566"/><circle cx="72" cy="106" r="1.2" fill="#3d2566"/><circle cx="70" cy="106" r="1.2" fill="#3d2566"/><polygon points="79,99 93,99 95,105 93,111 79,111 77,105" fill="#fdf3ec" stroke="#7C4DBC" stroke-width="0.6"/><polygon points="96,99 110,99 112,105 110,111 96,111 94,105" fill="#fdf3ec" stroke="#7C4DBC" stroke-width="0.6"/><polygon points="113,99 127,99 129,105 127,111 113,111 111,105" fill="#fdf3ec" stroke="#7C4DBC" stroke-width="0.6"/><circle cx="120" cy="102" r="1.2" fill="#3d2566"/><circle cx="118" cy="103" r="1.2" fill="#3d2566"/><circle cx="118" cy="108" r="1.2" fill="#3d2566"/><polygon points="130,99 144,99 146,105 144,111 130,111 128,105" fill="#fdf3ec" stroke="#7C4DBC" stroke-width="0.6"/><polygon points="147,99 161,99 163,105 161,111 147,111 145,105" fill="#fdf3ec" stroke="#7C4DBC" stroke-width="0.6"/><circle cx="155" cy="101" r="1.2" fill="#3d2566"/><circle cx="155" cy="104" r="1.2" fill="#3d2566"/><circle cx="150" cy="105" r="1.2" fill="#3d2566"/><circle cx="150" cy="109" r="1.2" fill="#3d2566"/><circle cx="158" cy="104" r="1.2" fill="#3d2566"/><circle cx="159" cy="109" r="1.2" fill="#3d2566"/><polygon points="164,99 178,99 180,105 178,111 164,111 162,105" fill="#fdf3ec" stroke="#7C4DBC" stroke-width="0.6"/><circle cx="173" cy="106" r="1.2" fill="#3d2566"/><circle cx="171" cy="107" r="1.2" fill="#3d2566"/><circle cx="175" cy="108" r="1.2" fill="#3d2566"/><circle cx="170" cy="107" r="1.2" fill="#3d2566"/><circle cx="170" cy="106" r="1.2" fill="#3d2566"/><circle cx="168" cy="101" r="1.2" fill="#3d2566"/><polygon points="181,99 195,99 197,105 195,111 181,111 179,105" fill="#fdf3ec" stroke="#7C4DBC" stroke-width="0.6"/><polygon points="198,99 212,99 214,105 212,111 198,111 196,105" fill="#fdf3ec" stroke="#7C4DBC" stroke-width="0.6"/><circle cx="207" cy="108" r="1.2" fill="#3d2566"/><circle cx="210" cy="101" r="1.2" fill="#3d2566"/><circle cx="203" cy="108" r="1.2" fill="#3d2566"/><polygon points="215,99 229,99 231,105 229,111 215,111 213,105" fill="#fdf3ec" stroke="#7C4DBC" stroke-width="0.6"/><circle cx="219" cy="107" r="1.2" fill="#3d2566"/><circle cx="227" cy="103" r="1.2" fill="#3d2566"/><circle cx="226" cy="104" r="1.2" fill="#3d2566"/><polygon points="11,115 25,115 27,121 25,127 11,127 9,121" fill="#fdf3ec" stroke="#7C4DBC" stroke-width="0.6"/><circle cx="19" cy="117" r="1.2" fill="#3d2566"/><circle cx="16" cy="121" r="1.2" fill="#3d2566"/><circle cx="15" cy="117" r="1.2" fill="#3d2566"/><circle cx="18" cy="122" r="1.2" fill="#3d2566"/><polygon points="28,115 42,115 44,121 42,127 28,127 26,121" fill="#fdf3ec" stroke="#7C4DBC" stroke-width="0.6"/><polygon points="45,115 59,115 61,121 59,127 45,127 43,121" fill="#fdf3ec" stroke="#7C4DBC" stroke-width="0.6"/><circle cx="48" cy="118" r="1.2" fill="#3d2566"/><circle cx="55" cy="117" r="1.2" fill="#3d2566"/><circle cx="50" cy="125" r="1.2" fill="#3d2566"/><polygon points="62,115 76,115 78,121 76,127 62,127 60,121" fill="#fdf3ec" stroke="#7C4DBC" stroke-width="0.6"/><circle cx="69" cy="122" r="1.2" fill="#3d2566"/><circle cx="73" cy="123" r="1.2" fill="#3d2566"/><circle cx="73" cy="123" r="1.2" fill="#3d2566"/><polygon points="79,115 93,115 95,121 93,127 79,127 77,121" fill="#fdf3ec" stroke="#7C4DBC" stroke-width="0.6"/><circle cx="91" cy="125" r="1.2" fill="#3d2566"/><circle cx="88" cy="117" r="1.2" fill="#3d2566"/><circle cx="81" cy="117" r="1.2" fill="#3d2566"/><polygon points="96,115 110,115 112,121 110,127 96,127 94,121" fill="#fdf3ec" stroke="#7C4DBC" stroke-width="0.6"/><circle cx="101" cy="117" r="1.2" fill="#3d2566"/><circle cx="108" cy="119" r="1.2" fill="#3d2566"/><circle cx="99" cy="121" r="1.2" fill="#3d2566"/><circle cx="103" cy="117" r="1.2" fill="#3d2566"/><circle cx="98" cy="125" r="1.2" fill="#3d2566"/><circle cx="101" cy="124" r="1.2" fill="#3d2566"/><polygon points="113,115 127,115 129,121 127,127 113,127 111,121" fill="#fdf3ec" stroke="#7C4DBC" stroke-width="0.6"/><circle cx="117" cy="120" r="1.2" fill="#3d2566"/><circle cx="119" cy="121" r="1.2" fill="#3d2566"/><circle cx="122" cy="123" r="1.2" fill="#3d2566"/><circle cx="118" cy="124" r="1.2" fill="#3d2566"/><circle cx="125" cy="120" r="1.2" fill="#3d2566"/><polygon points="130,115 144,115 146,121 144,127 130,127 128,121" fill="#fdf3ec" stroke="#7C4DBC" stroke-width="0.6"/><circle cx="139" cy="120" r="1.2" fill="#3d2566"/><circle cx="136" cy="124" r="1.2" fill="#3d2566"/><circle cx="134" cy="117" r="1.2" fill="#3d2566"/><circle cx="133" cy="123" r="1.2" fill="#3d2566"/><circle cx="137" cy="124" r="1.2" fill="#3d2566"/><circle cx="134" cy="119" r="1.2" fill="#3d2566"/><circle cx="141" cy="125" r="1.2" fill="#3d2566"/><polygon points="147,115 161,115 163,121 161,127 147,127 145,121" fill="#fdf3ec" stroke="#7C4DBC" stroke-width="0.6"/><circle cx="155" cy="125" r="1.2" fill="#3d2566"/><circle cx="154" cy="117" r="1.2" fill="#3d2566"/><circle cx="149" cy="122" r="1.2" fill="#3d2566"/><circle cx="149" cy="125" r="1.2" fill="#3d2566"/><circle cx="157" cy="120" r="1.2" fill="#3d2566"/><polygon points="164,115 178,115 180,121 178,127 164,127 162,121" fill="#fdf3ec" stroke="#7C4DBC" stroke-width="0.6"/><polygon points="181,115 195,115 197,121 195,127 181,127 179,121" fill="#fdf3ec" stroke="#7C4DBC" stroke-width="0.6"/><polygon points="198,115 212,115 214,121 212,127 198,127 196,121" fill="#fdf3ec" stroke="#7C4DBC" stroke-width="0.6"/><polygon points="215,115 229,115 231,121 229,127 215,127 213,121" fill="#fdf3ec" stroke="#7C4DBC" stroke-width="0.6"/><polygon points="11,131 25,131 27,137 25,143 11,143 9,137" fill="#fdf3ec" stroke="#7C4DBC" stroke-width="0.6"/><circle cx="18" cy="140" r="1.2" fill="#3d2566"/><circle cx="19" cy="139" r="1.2" fill="#3d2566"/><circle cx="22" cy="135" r="1.2" fill="#3d2566"/><circle cx="18" cy="139" r="1.2" fill="#3d2566"/><polygon points="28,131 42,131 44,137 42,143 28,143 26,137" fill="#fdf3ec" stroke="#7C4DBC" stroke-width="0.6"/><polygon points="45,131 59,131 61,137 59,143 45,143 43,137" fill="#fdf3ec" stroke="#7C4DBC" stroke-width="0.6"/><polygon points="62,131 76,131 78,137 76,143 62,143 60,137" fill="#fdf3ec" stroke="#7C4DBC" stroke-width="0.6"/><circle cx="70" cy="136" r="1.2" fill="#3d2566"/><circle cx="68" cy="134" r="1.2" fill="#3d2566"/><circle cx="69" cy="134" r="1.2" fill="#3d2566"/><circle cx="73" cy="137" r="1.2" fill="#3d2566"/><circle cx="74" cy="141" r="1.2" fill="#3d2566"/><circle cx="68" cy="141" r="1.2" fill="#3d2566"/><polygon points="79,131 93,131 95,137 93,143 79,143 77,137" fill="#fdf3ec" stroke="#7C4DBC" stroke-width="0.6"/><polygon points="96,131 110,131 112,137 110,143 96,143 94,137" fill="#fdf3ec" stroke="#7C4DBC" stroke-width="0.6"/><circle cx="107" cy="140" r="1.2" fill="#3d2566"/><circle cx="99" cy="139" r="1.2" fill="#3d2566"/><circle cx="99" cy="139" r="1.2" fill="#3d2566"/><polygon points="113,131 127,131 129,137 127,143 113,143 111,137" fill="#fdf3ec" stroke="#7C4DBC" stroke-width="0.6"/><polygon points="130,131 144,131 146,137 144,143 130,143 128,137" fill="#fdf3ec" stroke="#7C4DBC" stroke-width="0.6"/><polygon points="147,131 161,131 163,137 161,143 147,143 145,137" fill="#fdf3ec" stroke="#7C4DBC" stroke-width="0.6"/><polygon points="164,131 178,131 180,137 178,143 164,143 162,137" fill="#fdf3ec" stroke="#7C4DBC" stroke-width="0.6"/><polygon points="181,131 195,131 197,137 195,143 181,143 179,137" fill="#fdf3ec" stroke="#7C4DBC" stroke-width="0.6"/><circle cx="186" cy="134" r="1.2" fill="#3d2566"/><circle cx="188" cy="140" r="1.2" fill="#3d2566"/><circle cx="190" cy="133" r="1.2" fill="#3d2566"/><circle cx="187" cy="141" r="1.2" fill="#3d2566"/><circle cx="187" cy="141" r="1.2" fill="#3d2566"/><polygon points="198,131 212,131 214,137 212,143 198,143 196,137" fill="#fdf3ec" stroke="#7C4DBC" stroke-width="0.6"/><polygon points="215,131 229,131 231,137 229,143 215,143 213,137" fill="#fdf3ec" stroke="#7C4DBC" stroke-width="0.6"/><circle cx="222" cy="141" r="1.2" fill="#3d2566"/><circle cx="221" cy="137" r="1.2" fill="#3d2566"/><circle cx="227" cy="140" r="1.2" fill="#3d2566"/><circle cx="218" cy="134" r="1.2" fill="#3d2566"/>
  <text x="120.0" y="152" font-family="sans-serif" font-size="7.5" fill="#1b2430" text-anchor="middle" opacity="0.55">Hemochromatosis - iron granule deposition in hepatocytes</text>
</svg>