<svg xmlns="http://www.w3.org/2000/svg" viewBox="0 0 240 160" width="240" height="160">
  <rect width="240" height="160" fill="#f8f5fc"/>
  <rect x="8" y="8" width="224" height="136" rx="12" fill="#F1ECFA" stroke="#7C4DBC" stroke-width="2"/><circle cx="72.9" cy="55.8" r="10.3" fill="#E4D9F5" stroke="#7C4DBC" stroke-width="1.1"/><circle cx="72.9" cy="55.8" r="3.6" fill="#7C4DBC"/><circle cx="123.1" cy="101.0" r="7.7" fill="#E4D9F5" stroke="#7C4DBC" stroke-width="1.1"/><circle cx="123.1" cy="101.0" r="2.7" fill="#7C4DBC"/><circle cx="37.7" cy="47.2" r="8.3" fill="#E4D9F5" stroke="#7C4DBC" stroke-width="1.1"/><circle cx="37.7" cy="47.2" r="2.9" fill="#7C4DBC"/><circle cx="145.0" cy="43.8" r="8.4" fill="#E4D9F5" stroke="#7C4DBC" stroke-width="1.1"/><circle cx="145.0" cy="43.8" r="2.9" fill="#7C4DBC"/><circle cx="182.5" cy="41.4" r="9.4" fill="#E4D9F5" stroke="#7C4DBC" stroke-width="1.1"/><circle cx="182.5" cy="41.4" r="3.3" fill="#7C4DBC"/><circle cx="196.3" cy="71.1" r="12.3" fill="#E4D9F5" stroke="#7C4DBC" stroke-width="1.1"/><circle cx="196.3" cy="71.1" r="4.3" fill="#7C4DBC"/><circle cx="47.8" cy="105.9" r="10.4" fill="#E4D9F5" stroke="#7C4DBC" stroke-width="1.1"/><circle cx="47.8" cy="105.9" r="3.6" fill="#7C4DBC"/><circle cx="126.6" cy="44.8" r="11.7" fill="#E4D9F5" stroke="#7C4DBC" stroke-width="1.1"/><circle cx="126.6" cy="44.8" r="4.1" fill="#7C4DBC"/><circle cx="70.9" cy="64.5" r="9.3" fill="#E4D9F5" stroke="#7C4DBC" stroke-width="1.1"/><circle cx="70.9" cy="64.5" r="3.2" fill="#7C4DBC"/>
  <text x="120.0" y="152" font-family="sans-serif" font-size="8.5" fill="#1b2430" text-anchor="middle" opacity="0.55">Hepatocellular Carcinoma (schematic placeholder)</text>
</svg>