<svg xmlns="http://www.w3.org/2000/svg" viewBox="0 0 240 160" width="240" height="160">
  <rect width="240" height="160" fill="#f8f5fc"/>
  <circle cx="120" cy="85" r="55" fill="#D9C49A" opacity="0.45" stroke="#7C4DBC" stroke-width="2"/>
  <circle cx="89.8" cy="102.1" r="2.2" fill="#5B3A8C" opacity="0.7"/><circle cx="132.1" cy="83.1" r="2.2" fill="#5B3A8C" opacity="0.7"/><circle cx="94.4" cy="111.3" r="2.2" fill="#5B3A8C" opacity="0.7"/><circle cx="147.7" cy="86.1" r="2.2" fill="#5B3A8C" opacity="0.7"/><circle cx="120.5" cy="61.2" r="2.2" fill="#5B3A8C" opacity="0.7"/><circle cx="75.3" cy="73.4" r="2.2" fill="#5B3A8C" opacity="0.7"/><circle cx="127.7" cy="46.2" r="2.2" fill="#5B3A8C" opacity="0.7"/><circle cx="146.4" cy="60.9" r="2.2" fill="#5B3A8C" opacity="0.7"/><circle cx="95.9" cy="43.8" r="2.2" fill="#5B3A8C" opacity="0.7"/><circle cx="164.8" cy="106.5" r="2.2" fill="#5B3A8C" opacity="0.7"/><circle cx="153.8" cy="95.4" r="2.2" fill="#5B3A8C" opacity="0.7"/><circle cx="78.1" cy="69.6" r="2.2" fill="#5B3A8C" opacity="0.7"/><circle cx="119.8" cy="50.4" r="2.2" fill="#5B3A8C" opacity="0.7"/><circle cx="160.7" cy="73.2" r="2.2" fill="#5B3A8C" opacity="0.7"/><circle cx="88.9" cy="113.6" r="2.2" fill="#5B3A8C" opacity="0.7"/><circle cx="86.2" cy="123.5" r="2.2" fill="#5B3A8C" opacity="0.7"/><circle cx="115.8" cy="89.7" r="2.2" fill="#5B3A8C" opacity="0.7"/><circle cx="105.9" cy="83.6" r="2.2" fill="#5B3A8C" opacity="0.7"/><circle cx="91.8" cy="43.3" r="2.2" fill="#5B3A8C" opacity="0.7"/><circle cx="152.9" cy="61.1" r="2.2" fill="#5B3A8C" opacity="0.7"/><circle cx="145.2" cy="58.8" r="2.2" fill="#5B3A8C" opacity="0.7"/><circle cx="162.2" cy="120.5" r="2.2" fill="#5B3A8C" opacity="0.7"/><circle cx="142.9" cy="108.7" r="2.2" fill="#5B3A8C" opacity="0.7"/><circle cx="127.3" cy="105.7" r="2.2" fill="#5B3A8C" opacity="0.7"/><circle cx="86.0" cy="82.9" r="2.2" fill="#5B3A8C" opacity="0.7"/><circle cx="149.4" cy="58.1" r="2.2" fill="#5B3A8C" opacity="0.7"/><circle cx="158.1" cy="119.9" r="2.2" fill="#5B3A8C" opacity="0.7"/><circle cx="111.9" cy="72.9" r="2.2" fill="#5B3A8C" opacity="0.7"/><circle cx="115.6" cy="74.7" r="2.2" fill="#5B3A8C" opacity="0.7"/><circle cx="164.5" cy="74.8" r="2.2" fill="#5B3A8C" opacity="0.7"/>
  <circle cx="150" cy="60" r="6" fill="#C0392B" opacity="0.5"/>
  <text x="150" y="48" font-size="6.5" fill="#C0392B" text-anchor="middle">hemorrhage focus</text>
  <text x="120" y="150" font-size="6.5" fill="#7C4DBC" text-anchor="middle">no central scar</text>
  <text x="120.0" y="152" font-family="sans-serif" font-size="7.5" fill="#1b2430" text-anchor="middle" opacity="0.55">Hepatic adenoma — bland hepatocyte sheets, no scar</text>
</svg>