<svg xmlns="http://www.w3.org/2000/svg" viewBox="0 0 240 160" width="240" height="160">
  <rect width="240" height="160" fill="#f8f5fc"/>
  <path d="M 0 20 L 22 23 L 51 27 L 75 16 L 106 23 L 131 23 L 157 24 L 179 16 L 212 18 L 236 25 L 266 14" stroke="#7C4DBC" stroke-width="6" fill="none" opacity="0.6" stroke-linecap="round"/><path d="M 0 48 L 28 51 L 51 50 L 73 45 L 94 43 L 129 46 L 163 47 L 192 54 L 223 42 L 252 50" stroke="#7C4DBC" stroke-width="6" fill="none" opacity="0.6" stroke-linecap="round"/><path d="M 0 76 L 23 70 L 56 76 L 79 75 L 102 81 L 130 70 L 162 69 L 186 68 L 217 70 L 245 69" stroke="#7C4DBC" stroke-width="6" fill="none" opacity="0.6" stroke-linecap="round"/><path d="M 0 104 L 27 107 L 55 103 L 83 103 L 111 98 L 139 100 L 172 111 L 193 98 L 223 105 L 243 107" stroke="#7C4DBC" stroke-width="6" fill="none" opacity="0.6" stroke-linecap="round"/><path d="M 0 132 L 34 131 L 59 133 L 93 128 L 118 127 L 147 132 L 171 130 L 192 129 L 227 133 L 251 139" stroke="#7C4DBC" stroke-width="6" fill="none" opacity="0.6" stroke-linecap="round"/><circle cx="89" cy="43" r="2.5" fill="#1b2430"/><circle cx="18" cy="29" r="2.5" fill="#1b2430"/><circle cx="54" cy="40" r="2.5" fill="#1b2430"/><circle cx="202" cy="44" r="2.5" fill="#1b2430"/><circle cx="65" cy="89" r="2.5" fill="#1b2430"/><circle cx="212" cy="48" r="2.5" fill="#1b2430"/><circle cx="178" cy="58" r="2.5" fill="#1b2430"/><circle cx="133" cy="87" r="2.5" fill="#1b2430"/><circle cx="217" cy="108" r="2.5" fill="#1b2430"/><circle cx="122" cy="119" r="2.5" fill="#1b2430"/>
  <text x="120.0" y="152" font-family="sans-serif" font-size="7.5" fill="#1b2430" text-anchor="middle" opacity="0.55">Hepatocellular carcinoma — trabecular pattern</text>
</svg>