<svg xmlns="http://www.w3.org/2000/svg" viewBox="0 0 240 160" width="240" height="160">
  <rect width="240" height="160" fill="#f8f5fc"/>
  <circle cx="46" cy="96" r="3" fill="#E4D9F5" stroke="#7C4DBC" stroke-width="0.6"/><circle cx="150" cy="70" r="3" fill="#E4D9F5" stroke="#7C4DBC" stroke-width="0.6"/><circle cx="58" cy="109" r="3" fill="#E4D9F5" stroke="#7C4DBC" stroke-width="0.6"/><circle cx="188" cy="74" r="3" fill="#E4D9F5" stroke="#7C4DBC" stroke-width="0.6"/><circle cx="121" cy="40" r="3" fill="#E4D9F5" stroke="#7C4DBC" stroke-width="0.6"/><circle cx="11" cy="56" r="3" fill="#E4D9F5" stroke="#7C4DBC" stroke-width="0.6"/><circle cx="139" cy="19" r="3" fill="#E4D9F5" stroke="#7C4DBC" stroke-width="0.6"/><circle cx="185" cy="39" r="3" fill="#E4D9F5" stroke="#7C4DBC" stroke-width="0.6"/><circle cx="61" cy="15" r="3" fill="#E4D9F5" stroke="#7C4DBC" stroke-width="0.6"/><circle cx="229" cy="102" r="3" fill="#E4D9F5" stroke="#7C4DBC" stroke-width="0.6"/><circle cx="203" cy="87" r="3" fill="#E4D9F5" stroke="#7C4DBC" stroke-width="0.6"/><circle cx="17" cy="51" r="3" fill="#E4D9F5" stroke="#7C4DBC" stroke-width="0.6"/><circle cx="119" cy="24" r="3" fill="#E4D9F5" stroke="#7C4DBC" stroke-width="0.6"/><circle cx="219" cy="56" r="3" fill="#E4D9F5" stroke="#7C4DBC" stroke-width="0.6"/><circle cx="44" cy="112" r="3" fill="#E4D9F5" stroke="#7C4DBC" stroke-width="0.6"/><circle cx="37" cy="126" r="3" fill="#E4D9F5" stroke="#7C4DBC" stroke-width="0.6"/><circle cx="110" cy="79" r="3" fill="#E4D9F5" stroke="#7C4DBC" stroke-width="0.6"/><circle cx="85" cy="71" r="3" fill="#E4D9F5" stroke="#7C4DBC" stroke-width="0.6"/><circle cx="51" cy="15" r="3" fill="#E4D9F5" stroke="#7C4DBC" stroke-width="0.6"/><circle cx="200" cy="39" r="3" fill="#E4D9F5" stroke="#7C4DBC" stroke-width="0.6"/><circle cx="182" cy="36" r="3" fill="#E4D9F5" stroke="#7C4DBC" stroke-width="0.6"/><circle cx="223" cy="122" r="3" fill="#E4D9F5" stroke="#7C4DBC" stroke-width="0.6"/><circle cx="176" cy="105" r="3" fill="#E4D9F5" stroke="#7C4DBC" stroke-width="0.6"/><circle cx="138" cy="101" r="3" fill="#E4D9F5" stroke="#7C4DBC" stroke-width="0.6"/><circle cx="37" cy="70" r="3" fill="#E4D9F5" stroke="#7C4DBC" stroke-width="0.6"/><circle cx="192" cy="35" r="3" fill="#E4D9F5" stroke="#7C4DBC" stroke-width="0.6"/><circle cx="213" cy="121" r="3" fill="#E4D9F5" stroke="#7C4DBC" stroke-width="0.6"/><circle cx="100" cy="56" r="3" fill="#E4D9F5" stroke="#7C4DBC" stroke-width="0.6"/><circle cx="109" cy="58" r="3" fill="#E4D9F5" stroke="#7C4DBC" stroke-width="0.6"/><circle cx="229" cy="58" r="3" fill="#E4D9F5" stroke="#7C4DBC" stroke-width="0.6"/><circle cx="16" cy="22" r="3" fill="#E4D9F5" stroke="#7C4DBC" stroke-width="0.6"/><circle cx="168" cy="134" r="3" fill="#E4D9F5" stroke="#7C4DBC" stroke-width="0.6"/><circle cx="119" cy="71" r="3" fill="#E4D9F5" stroke="#7C4DBC" stroke-width="0.6"/><circle cx="131" cy="104" r="3" fill="#E4D9F5" stroke="#7C4DBC" stroke-width="0.6"/><circle cx="59" cy="86" r="3" fill="#E4D9F5" stroke="#7C4DBC" stroke-width="0.6"/><circle cx="132" cy="88" r="3" fill="#E4D9F5" stroke="#7C4DBC" stroke-width="0.6"/><circle cx="50" cy="31" r="3" fill="#E4D9F5" stroke="#7C4DBC" stroke-width="0.6"/><circle cx="87" cy="126" r="3" fill="#E4D9F5" stroke="#7C4DBC" stroke-width="0.6"/><circle cx="86" cy="85" r="3" fill="#E4D9F5" stroke="#7C4DBC" stroke-width="0.6"/><circle cx="77" cy="23" r="3" fill="#E4D9F5" stroke="#7C4DBC" stroke-width="0.6"/><ellipse cx="80" cy="60" rx="14" ry="11" fill="#F1ECFA" stroke="#7C4DBC" stroke-width="1.8"/><circle cx="75" cy="58" r="4.5" fill="#fff" stroke="#1b2430" stroke-width="1.4"/><circle cx="85" cy="58" r="4.5" fill="#fff" stroke="#1b2430" stroke-width="1.4"/><ellipse cx="160" cy="90" rx="14" ry="11" fill="#F1ECFA" stroke="#7C4DBC" stroke-width="1.8"/><circle cx="155" cy="88" r="4.5" fill="#fff" stroke="#1b2430" stroke-width="1.4"/><circle cx="165" cy="88" r="4.5" fill="#fff" stroke="#1b2430" stroke-width="1.4"/>
  <text x="120.0" y="152" font-family="sans-serif" font-size="7.5" fill="#1b2430" text-anchor="middle" opacity="0.55">Hodgkin lymphoma — Reed-Sternberg owl-eye cells</text>
</svg>