<svg xmlns="http://www.w3.org/2000/svg" viewBox="0 0 240 160" width="240" height="160">
  <rect width="240" height="160" fill="#f8f5fc"/>
  <rect x="8" y="8" width="224" height="136" rx="12" fill="#F1ECFA" stroke="#7C4DBC" stroke-width="2"/><circle cx="44.5" cy="72.9" r="8.9" fill="#E4D9F5" stroke="#7C4DBC" stroke-width="1.1"/><circle cx="44.5" cy="72.9" r="3.1" fill="#7C4DBC"/><circle cx="191.5" cy="41.5" r="12.4" fill="#E4D9F5" stroke="#7C4DBC" stroke-width="1.1"/><circle cx="191.5" cy="41.5" r="4.3" fill="#7C4DBC"/><circle cx="102.0" cy="81.4" r="8.7" fill="#E4D9F5" stroke="#7C4DBC" stroke-width="1.1"/><circle cx="102.0" cy="81.4" r="3.1" fill="#7C4DBC"/><circle cx="141.4" cy="82.3" r="11.2" fill="#E4D9F5" stroke="#7C4DBC" stroke-width="1.1"/><circle cx="141.4" cy="82.3" r="3.9" fill="#7C4DBC"/><circle cx="114.8" cy="121.4" r="12.1" fill="#E4D9F5" stroke="#7C4DBC" stroke-width="1.1"/><circle cx="114.8" cy="121.4" r="4.2" fill="#7C4DBC"/><circle cx="95.0" cy="58.9" r="12.3" fill="#E4D9F5" stroke="#7C4DBC" stroke-width="1.1"/><circle cx="95.0" cy="58.9" r="4.3" fill="#7C4DBC"/><circle cx="207.2" cy="119.2" r="10.1" fill="#E4D9F5" stroke="#7C4DBC" stroke-width="1.1"/><circle cx="207.2" cy="119.2" r="3.5" fill="#7C4DBC"/><circle cx="174.5" cy="37.8" r="10.9" fill="#E4D9F5" stroke="#7C4DBC" stroke-width="1.1"/><circle cx="174.5" cy="37.8" r="3.8" fill="#7C4DBC"/><circle cx="86.2" cy="66.3" r="7.9" fill="#E4D9F5" stroke="#7C4DBC" stroke-width="1.1"/><circle cx="86.2" cy="66.3" r="2.8" fill="#7C4DBC"/>
  <text x="120.0" y="152" font-family="sans-serif" font-size="8.5" fill="#1b2430" text-anchor="middle" opacity="0.55">Hodgkin Lymphoma (schematic placeholder)</text>
</svg>