<svg xmlns="http://www.w3.org/2000/svg" viewBox="0 0 240 160" width="240" height="160">
  <rect width="240" height="160" fill="#f8f5fc"/>
<path d="M26 130 L25 40 Q35 35 45 40 L46 130 Z" fill="#F1ECFA" stroke="#7C4DBC" stroke-width="1.2"/><path d="M50 130 L52 40 Q62 35 72 40 L70 130 Z" fill="#F1ECFA" stroke="#7C4DBC" stroke-width="1.2"/><path d="M81 130 L79 40 Q89 35 99 40 L101 130 Z" fill="#F1ECFA" stroke="#7C4DBC" stroke-width="1.2"/><path d="M102 130 L106 40 Q116 35 126 40 L122 130 Z" fill="#F1ECFA" stroke="#7C4DBC" stroke-width="1.2"/><path d="M130 130 L133 40 Q143 35 153 40 L150 130 Z" fill="#F1ECFA" stroke="#7C4DBC" stroke-width="1.2"/><path d="M164 130 L160 40 Q170 35 180 40 L184 130 Z" fill="#F1ECFA" stroke="#7C4DBC" stroke-width="1.2"/><path d="M184 130 L187 40 Q197 35 207 40 L204 130 Z" fill="#F1ECFA" stroke="#7C4DBC" stroke-width="1.2"/><path d="M215 130 L214 40 Q224 35 234 40 L235 130 Z" fill="#F1ECFA" stroke="#7C4DBC" stroke-width="1.2"/><circle cx="65" cy="70" r="10" fill="#fff8f0" stroke="#b5481f" stroke-width="1.6"/><circle cx="62.4" cy="71.5" r="1.4" fill="#C9637A"/><circle cx="67.3" cy="66.6" r="1.4" fill="#C9637A"/><circle cx="60.2" cy="69.1" r="1.4" fill="#C9637A"/><circle cx="62.1" cy="74.6" r="1.4" fill="#C9637A"/><circle cx="66.2" cy="69.1" r="1.4" fill="#C9637A"/><circle cx="62.4" cy="68.9" r="1.4" fill="#C9637A"/><circle cx="62.0" cy="65.6" r="1.4" fill="#C9637A"/><circle cx="66.7" cy="70.5" r="1.4" fill="#C9637A"/><circle cx="58.1" cy="68.8" r="1.4" fill="#C9637A"/><circle cx="67.0" cy="63.5" r="1.4" fill="#C9637A"/><circle cx="67.3" cy="72.6" r="1.4" fill="#C9637A"/><circle cx="61.8" cy="68.3" r="1.4" fill="#C9637A"/><circle cx="65.9" cy="77.4" r="1.4" fill="#C9637A"/><circle cx="62.5" cy="67.2" r="1.4" fill="#C9637A"/><circle cx="150" cy="55" r="10" fill="#fff8f0" stroke="#b5481f" stroke-width="1.6"/><circle cx="153.2" cy="48.5" r="1.4" fill="#C9637A"/><circle cx="151.2" cy="57.9" r="1.4" fill="#C9637A"/><circle cx="147.9" cy="55.3" r="1.4" fill="#C9637A"/><circle cx="155.2" cy="58.4" r="1.4" fill="#C9637A"/><circle cx="146.9" cy="60.4" r="1.4" fill="#C9637A"/><circle cx="153.7" cy="53.3" r="1.4" fill="#C9637A"/><circle cx="150.0" cy="53.6" r="1.4" fill="#C9637A"/><circle cx="150.9" cy="53.2" r="1.4" fill="#C9637A"/><circle cx="152.1" cy="51.1" r="1.4" fill="#C9637A"/><circle cx="155.5" cy="53.1" r="1.4" fill="#C9637A"/><circle cx="148.1" cy="55.2" r="1.4" fill="#C9637A"/><circle cx="156.2" cy="57.3" r="1.4" fill="#C9637A"/><circle cx="147.8" cy="54.0" r="1.4" fill="#C9637A"/><circle cx="149.3" cy="60.3" r="1.4" fill="#C9637A"/>
  <text x="120.0" y="152" font-family="sans-serif" font-size="7.5" fill="#1b2430" text-anchor="middle" opacity="0.55">Crypt abscess and crypt architectural distortion in IBD</text>
</svg>