<svg xmlns="http://www.w3.org/2000/svg" viewBox="0 0 240 160" width="240" height="160">
  <rect width="240" height="160" fill="#f8f5fc"/>
<g><polygon points="30,21 42.18,28.0 42.18,42.0 30,49 17.82,42.0 17.82,28.0" fill="#FCF3CF" stroke="#B7950B" stroke-width="1.8"/><polygon points="70,21 82.18,28.0 82.18,42.0 70,49 57.82,42.0 57.82,28.0" fill="#FCF3CF" stroke="#B7950B" stroke-width="1.8"/><polygon points="110,21 122.18,28.0 122.18,42.0 110,49 97.82,42.0 97.82,28.0" fill="#FCF3CF" stroke="#B7950B" stroke-width="1.8"/><polygon points="150,21 162.18,28.0 162.18,42.0 150,49 137.82,42.0 137.82,28.0" fill="#FCF3CF" stroke="#B7950B" stroke-width="1.8"/><polygon points="190,21 202.18,28.0 202.18,42.0 190,49 177.82,42.0 177.82,28.0" fill="#FCF3CF" stroke="#B7950B" stroke-width="1.8"/><polygon points="30,66 42.18,73.0 42.18,87.0 30,94 17.82,87.0 17.82,73.0" fill="#FCF3CF" stroke="#B7950B" stroke-width="1.8"/><polygon points="70,66 82.18,73.0 82.18,87.0 70,94 57.82,87.0 57.82,73.0" fill="#FCF3CF" stroke="#B7950B" stroke-width="1.8"/><polygon points="110,66 122.18,73.0 122.18,87.0 110,94 97.82,87.0 97.82,73.0" fill="#FCF3CF" stroke="#B7950B" stroke-width="1.8"/><polygon points="150,66 162.18,73.0 162.18,87.0 150,94 137.82,87.0 137.82,73.0" fill="#FCF3CF" stroke="#B7950B" stroke-width="1.8"/><polygon points="190,66 202.18,73.0 202.18,87.0 190,94 177.82,87.0 177.82,73.0" fill="#FCF3CF" stroke="#B7950B" stroke-width="1.8"/><polygon points="30,111 42.18,118.0 42.18,132.0 30,139 17.82,132.0 17.82,118.0" fill="#FCF3CF" stroke="#B7950B" stroke-width="1.8"/><polygon points="70,111 82.18,118.0 82.18,132.0 70,139 57.82,132.0 57.82,118.0" fill="#FCF3CF" stroke="#B7950B" stroke-width="1.8"/><polygon points="110,111 122.18,118.0 122.18,132.0 110,139 97.82,132.0 97.82,118.0" fill="#FCF3CF" stroke="#B7950B" stroke-width="1.8"/><polygon points="150,111 162.18,118.0 162.18,132.0 150,139 137.82,132.0 137.82,118.0" fill="#FCF3CF" stroke="#B7950B" stroke-width="1.8"/><polygon points="190,111 202.18,118.0 202.18,132.0 190,139 177.82,132.0 177.82,118.0" fill="#FCF3CF" stroke="#B7950B" stroke-width="1.8"/></g>  <text x="120" y="152" font-family="sans-serif" font-size="7.5" fill="#1b2430" text-anchor="middle" opacity="0.55">IPF — honeycomb fibrosis, subpleural</text>
</svg>