<svg xmlns="http://www.w3.org/2000/svg" viewBox="0 0 240 160" width="240" height="160">
  <rect width="240" height="160" fill="#f8f5fc"/>
<path d="M15 100 Q120 130 225 100 L225 140 L15 140 Z" fill="#8B2331" opacity="0.5"/><path d="M90 70 Q120 40 150 70" stroke="#7C4DBC" stroke-width="6" fill="none"/><circle cx="120" cy="55" r="16" fill="#E89BAE" stroke="#6b1422" stroke-width="2"/><path d="M120 55 L130 38" stroke="#6b1422" stroke-width="2.5"/><circle cx="141" cy="112" r="2.5" fill="#5c0f1a" opacity="0.7"/><circle cx="188" cy="128" r="2.5" fill="#5c0f1a" opacity="0.7"/><circle cx="190" cy="117" r="2.5" fill="#5c0f1a" opacity="0.7"/><circle cx="56" cy="119" r="2.5" fill="#5c0f1a" opacity="0.7"/><circle cx="22" cy="118" r="2.5" fill="#5c0f1a" opacity="0.7"/><circle cx="143" cy="112" r="2.5" fill="#5c0f1a" opacity="0.7"/><circle cx="184" cy="124" r="2.5" fill="#5c0f1a" opacity="0.7"/><circle cx="196" cy="133" r="2.5" fill="#5c0f1a" opacity="0.7"/><circle cx="78" cy="130" r="2.5" fill="#5c0f1a" opacity="0.7"/><circle cx="20" cy="137" r="2.5" fill="#5c0f1a" opacity="0.7"/><circle cx="179" cy="104" r="2.5" fill="#5c0f1a" opacity="0.7"/><circle cx="132" cy="118" r="2.5" fill="#5c0f1a" opacity="0.7"/><circle cx="61" cy="116" r="2.5" fill="#5c0f1a" opacity="0.7"/><circle cx="73" cy="98" r="2.5" fill="#5c0f1a" opacity="0.7"/><circle cx="167" cy="107" r="2.5" fill="#5c0f1a" opacity="0.7"/><circle cx="39" cy="127" r="2.5" fill="#5c0f1a" opacity="0.7"/><circle cx="195" cy="116" r="2.5" fill="#5c0f1a" opacity="0.7"/><circle cx="194" cy="120" r="2.5" fill="#5c0f1a" opacity="0.7"/><circle cx="42" cy="96" r="2.5" fill="#5c0f1a" opacity="0.7"/><circle cx="35" cy="137" r="2.5" fill="#5c0f1a" opacity="0.7"/><circle cx="150" cy="109" r="2.5" fill="#5c0f1a" opacity="0.7"/><circle cx="43" cy="122" r="2.5" fill="#5c0f1a" opacity="0.7"/><circle cx="133" cy="102" r="2.5" fill="#5c0f1a" opacity="0.7"/><circle cx="189" cy="122" r="2.5" fill="#5c0f1a" opacity="0.7"/><circle cx="54" cy="129" r="2.5" fill="#5c0f1a" opacity="0.7"/><circle cx="100" cy="134" r="2.5" fill="#5c0f1a" opacity="0.7"/><circle cx="162" cy="105" r="2.5" fill="#5c0f1a" opacity="0.7"/><circle cx="198" cy="98" r="2.5" fill="#5c0f1a" opacity="0.7"/><circle cx="162" cy="105" r="2.5" fill="#5c0f1a" opacity="0.7"/><circle cx="149" cy="100" r="2.5" fill="#5c0f1a" opacity="0.7"/><circle cx="122" cy="133" r="2.5" fill="#5c0f1a" opacity="0.7"/><circle cx="127" cy="137" r="2.5" fill="#5c0f1a" opacity="0.7"/><circle cx="172" cy="125" r="2.5" fill="#5c0f1a" opacity="0.7"/><circle cx="142" cy="133" r="2.5" fill="#5c0f1a" opacity="0.7"/><circle cx="118" cy="129" r="2.5" fill="#5c0f1a" opacity="0.7"/><circle cx="27" cy="136" r="2.5" fill="#5c0f1a" opacity="0.7"/><circle cx="205" cy="100" r="2.5" fill="#5c0f1a" opacity="0.7"/><circle cx="69" cy="137" r="2.5" fill="#5c0f1a" opacity="0.7"/><circle cx="86" cy="117" r="2.5" fill="#5c0f1a" opacity="0.7"/><circle cx="112" cy="119" r="2.5" fill="#5c0f1a" opacity="0.7"/><circle cx="192" cy="114" r="2.5" fill="#5c0f1a" opacity="0.7"/><circle cx="49" cy="111" r="2.5" fill="#5c0f1a" opacity="0.7"/><circle cx="80" cy="116" r="2.5" fill="#5c0f1a" opacity="0.7"/><circle cx="113" cy="118" r="2.5" fill="#5c0f1a" opacity="0.7"/><circle cx="150" cy="131" r="2.5" fill="#5c0f1a" opacity="0.7"/><circle cx="215" cy="127" r="2.5" fill="#5c0f1a" opacity="0.7"/><circle cx="65" cy="96" r="2.5" fill="#5c0f1a" opacity="0.7"/><circle cx="117" cy="122" r="2.5" fill="#5c0f1a" opacity="0.7"/><circle cx="28" cy="128" r="2.5" fill="#5c0f1a" opacity="0.7"/><circle cx="26" cy="109" r="2.5" fill="#5c0f1a" opacity="0.7"/>
  <text x="120.0" y="152" font-family="sans-serif" font-size="7.5" fill="#1b2430" text-anchor="middle" opacity="0.55">Ruptured saccular (berry) aneurysm — subarachnoid hemorrhage</text>
</svg>