<svg xmlns="http://www.w3.org/2000/svg" viewBox="0 0 240 160" width="240" height="160">
  <rect width="240" height="160" fill="#f8f5fc"/>
  <text x="60" y="20" font-family="sans-serif" font-size="9" fill="#1b2430" text-anchor="middle" opacity="0.6">Normal</text><text x="180" y="20" font-family="sans-serif" font-size="9" fill="#1b2430" text-anchor="middle" opacity="0.6">Iron deficiency</text><circle cx="25" cy="40" r="13" fill="#E4D9F5" stroke="#7C4DBC" stroke-width="1.3"/><circle cx="25" cy="40" r="5" fill="#f8f5fc"/><circle cx="60" cy="40" r="13" fill="#E4D9F5" stroke="#7C4DBC" stroke-width="1.3"/><circle cx="60" cy="40" r="5" fill="#f8f5fc"/><circle cx="95" cy="40" r="13" fill="#E4D9F5" stroke="#7C4DBC" stroke-width="1.3"/><circle cx="95" cy="40" r="5" fill="#f8f5fc"/><circle cx="25" cy="72" r="13" fill="#E4D9F5" stroke="#7C4DBC" stroke-width="1.3"/><circle cx="25" cy="72" r="5" fill="#f8f5fc"/><circle cx="60" cy="72" r="13" fill="#E4D9F5" stroke="#7C4DBC" stroke-width="1.3"/><circle cx="60" cy="72" r="5" fill="#f8f5fc"/><circle cx="95" cy="72" r="13" fill="#E4D9F5" stroke="#7C4DBC" stroke-width="1.3"/><circle cx="95" cy="72" r="5" fill="#f8f5fc"/><circle cx="25" cy="104" r="13" fill="#E4D9F5" stroke="#7C4DBC" stroke-width="1.3"/><circle cx="25" cy="104" r="5" fill="#f8f5fc"/><circle cx="60" cy="104" r="13" fill="#E4D9F5" stroke="#7C4DBC" stroke-width="1.3"/><circle cx="60" cy="104" r="5" fill="#f8f5fc"/><circle cx="95" cy="104" r="13" fill="#E4D9F5" stroke="#7C4DBC" stroke-width="1.3"/><circle cx="95" cy="104" r="5" fill="#f8f5fc"/><circle cx="145" cy="40" r="8" fill="#F1ECFA" stroke="#7C4DBC" stroke-width="1"/><circle cx="145" cy="40" r="5" fill="#f8f5fc"/><circle cx="175" cy="40" r="8" fill="#F1ECFA" stroke="#7C4DBC" stroke-width="1"/><circle cx="175" cy="40" r="5" fill="#f8f5fc"/><circle cx="205" cy="40" r="8" fill="#F1ECFA" stroke="#7C4DBC" stroke-width="1"/><circle cx="205" cy="40" r="5" fill="#f8f5fc"/><circle cx="145" cy="72" r="8" fill="#F1ECFA" stroke="#7C4DBC" stroke-width="1"/><circle cx="145" cy="72" r="5" fill="#f8f5fc"/><circle cx="175" cy="72" r="8" fill="#F1ECFA" stroke="#7C4DBC" stroke-width="1"/><circle cx="175" cy="72" r="5" fill="#f8f5fc"/><circle cx="205" cy="72" r="8" fill="#F1ECFA" stroke="#7C4DBC" stroke-width="1"/><circle cx="205" cy="72" r="5" fill="#f8f5fc"/><circle cx="145" cy="104" r="8" fill="#F1ECFA" stroke="#7C4DBC" stroke-width="1"/><circle cx="145" cy="104" r="5" fill="#f8f5fc"/><circle cx="175" cy="104" r="8" fill="#F1ECFA" stroke="#7C4DBC" stroke-width="1"/><circle cx="175" cy="104" r="5" fill="#f8f5fc"/><circle cx="205" cy="104" r="8" fill="#F1ECFA" stroke="#7C4DBC" stroke-width="1"/><circle cx="205" cy="104" r="5" fill="#f8f5fc"/>
  <text x="120.0" y="152" font-family="sans-serif" font-size="7.5" fill="#1b2430" text-anchor="middle" opacity="0.55">Iron deficiency — microcytic hypochromic RBCs</text>
</svg>