<svg xmlns="http://www.w3.org/2000/svg" viewBox="0 0 240 160" width="240" height="160">
  <rect width="240" height="160" fill="#f8f5fc"/>
  <rect x="8" y="8" width="224" height="136" rx="12" fill="#F1ECFA" stroke="#7C4DBC" stroke-width="2"/><circle cx="195.4" cy="67.6" r="8.6" fill="#E4D9F5" stroke="#7C4DBC" stroke-width="1.1"/><circle cx="195.4" cy="67.6" r="3.0" fill="#7C4DBC"/><circle cx="136.8" cy="61.7" r="11.3" fill="#E4D9F5" stroke="#7C4DBC" stroke-width="1.1"/><circle cx="136.8" cy="61.7" r="4.0" fill="#7C4DBC"/><circle cx="102.8" cy="110.4" r="8.3" fill="#E4D9F5" stroke="#7C4DBC" stroke-width="1.1"/><circle cx="102.8" cy="110.4" r="2.9" fill="#7C4DBC"/><circle cx="122.4" cy="63.7" r="10.2" fill="#E4D9F5" stroke="#7C4DBC" stroke-width="1.1"/><circle cx="122.4" cy="63.7" r="3.6" fill="#7C4DBC"/><circle cx="119.6" cy="96.5" r="8.4" fill="#E4D9F5" stroke="#7C4DBC" stroke-width="1.1"/><circle cx="119.6" cy="96.5" r="2.9" fill="#7C4DBC"/><circle cx="184.9" cy="83.4" r="10.5" fill="#E4D9F5" stroke="#7C4DBC" stroke-width="1.1"/><circle cx="184.9" cy="83.4" r="3.7" fill="#7C4DBC"/><circle cx="113.4" cy="122.2" r="11.2" fill="#E4D9F5" stroke="#7C4DBC" stroke-width="1.1"/><circle cx="113.4" cy="122.2" r="3.9" fill="#7C4DBC"/><circle cx="72.9" cy="116.8" r="10.4" fill="#E4D9F5" stroke="#7C4DBC" stroke-width="1.1"/><circle cx="72.9" cy="116.8" r="3.6" fill="#7C4DBC"/><circle cx="110.4" cy="76.8" r="7.3" fill="#E4D9F5" stroke="#7C4DBC" stroke-width="1.1"/><circle cx="110.4" cy="76.8" r="2.6" fill="#7C4DBC"/>
  <text x="120.0" y="152" font-family="sans-serif" font-size="8.5" fill="#1b2430" text-anchor="middle" opacity="0.55">Iron Deficiency Anemia (schematic placeholder)</text>
</svg>