<svg xmlns="http://www.w3.org/2000/svg" viewBox="0 0 240 160" width="240" height="160">
  <rect width="240" height="160" fill="#f8f5fc"/>
<ellipse cx="120" cy="85" rx="95" ry="60" fill="#F1ECFA" stroke="#7C4DBC" stroke-width="1.4"/><ellipse cx="120" cy="85" rx="42" ry="30" fill="#FAF6F0" stroke="#cbb98a" stroke-width="2"/><circle cx="164.0" cy="85.0" r="2.4" fill="#5b3a99" opacity="0.8"/><circle cx="163.0" cy="91.4" r="2.4" fill="#5b3a99" opacity="0.8"/><circle cx="160.2" cy="97.6" r="2.4" fill="#5b3a99" opacity="0.8"/><circle cx="155.6" cy="103.2" r="2.4" fill="#5b3a99" opacity="0.8"/><circle cx="149.4" cy="108.0" r="2.4" fill="#5b3a99" opacity="0.8"/><circle cx="142.0" cy="111.8" r="2.4" fill="#5b3a99" opacity="0.8"/><circle cx="133.6" cy="114.5" r="2.4" fill="#5b3a99" opacity="0.8"/><circle cx="124.6" cy="115.8" r="2.4" fill="#5b3a99" opacity="0.8"/><circle cx="115.4" cy="115.8" r="2.4" fill="#5b3a99" opacity="0.8"/><circle cx="106.4" cy="114.5" r="2.4" fill="#5b3a99" opacity="0.8"/><circle cx="98.0" cy="111.8" r="2.4" fill="#5b3a99" opacity="0.8"/><circle cx="90.6" cy="108.0" r="2.4" fill="#5b3a99" opacity="0.8"/><circle cx="84.4" cy="103.2" r="2.4" fill="#5b3a99" opacity="0.8"/><circle cx="79.8" cy="97.6" r="2.4" fill="#5b3a99" opacity="0.8"/><circle cx="77.0" cy="91.4" r="2.4" fill="#5b3a99" opacity="0.8"/><circle cx="76.0" cy="85.0" r="2.4" fill="#5b3a99" opacity="0.8"/><circle cx="77.0" cy="78.6" r="2.4" fill="#5b3a99" opacity="0.8"/><circle cx="79.8" cy="72.4" r="2.4" fill="#5b3a99" opacity="0.8"/><circle cx="84.4" cy="66.8" r="2.4" fill="#5b3a99" opacity="0.8"/><circle cx="90.6" cy="62.0" r="2.4" fill="#5b3a99" opacity="0.8"/><circle cx="98.0" cy="58.2" r="2.4" fill="#5b3a99" opacity="0.8"/><circle cx="106.4" cy="55.5" r="2.4" fill="#5b3a99" opacity="0.8"/><circle cx="115.4" cy="54.2" r="2.4" fill="#5b3a99" opacity="0.8"/><circle cx="124.6" cy="54.2" r="2.4" fill="#5b3a99" opacity="0.8"/><circle cx="133.6" cy="55.5" r="2.4" fill="#5b3a99" opacity="0.8"/><circle cx="142.0" cy="58.2" r="2.4" fill="#5b3a99" opacity="0.8"/><circle cx="149.4" cy="62.0" r="2.4" fill="#5b3a99" opacity="0.8"/><circle cx="155.6" cy="66.8" r="2.4" fill="#5b3a99" opacity="0.8"/><circle cx="160.2" cy="72.4" r="2.4" fill="#5b3a99" opacity="0.8"/><circle cx="163.0" cy="78.6" r="2.4" fill="#5b3a99" opacity="0.8"/>
  <text x="120.0" y="152" font-family="sans-serif" font-size="7.5" fill="#1b2430" text-anchor="middle" opacity="0.55">Focal cerebral infarct — pale necrotic core, reactive glial margin</text>
</svg>