<svg xmlns="http://www.w3.org/2000/svg" viewBox="0 0 240 160" width="240" height="160">
  <rect width="240" height="160" fill="#f8f5fc"/>
<rect x="10" y="20" width="220" height="18" fill="#F1E8D9" stroke="#7C4DBC" stroke-width="1.4"/><circle cx="72" cy="31" r="2" fill="#E7DCC4" stroke="#7C4DBC" stroke-width="0.5"/><circle cx="151" cy="24" r="2" fill="#E7DCC4" stroke="#7C4DBC" stroke-width="0.5"/><circle cx="106" cy="36" r="2" fill="#E7DCC4" stroke="#7C4DBC" stroke-width="0.5"/><circle cx="166" cy="29" r="2" fill="#E7DCC4" stroke="#7C4DBC" stroke-width="0.5"/><circle cx="172" cy="31" r="2" fill="#E7DCC4" stroke="#7C4DBC" stroke-width="0.5"/><circle cx="28" cy="31" r="2" fill="#E7DCC4" stroke="#7C4DBC" stroke-width="0.5"/><circle cx="15" cy="36" r="2" fill="#E7DCC4" stroke="#7C4DBC" stroke-width="0.5"/><circle cx="226" cy="29" r="2" fill="#E7DCC4" stroke="#7C4DBC" stroke-width="0.5"/><circle cx="78" cy="30" r="2" fill="#E7DCC4" stroke="#7C4DBC" stroke-width="0.5"/><circle cx="71" cy="25" r="2" fill="#E7DCC4" stroke="#7C4DBC" stroke-width="0.5"/><circle cx="195" cy="29" r="2" fill="#E7DCC4" stroke="#7C4DBC" stroke-width="0.5"/><circle cx="150" cy="35" r="2" fill="#E7DCC4" stroke="#7C4DBC" stroke-width="0.5"/><circle cx="152" cy="29" r="2" fill="#E7DCC4" stroke="#7C4DBC" stroke-width="0.5"/><circle cx="113" cy="32" r="2" fill="#E7DCC4" stroke="#7C4DBC" stroke-width="0.5"/><circle cx="50" cy="25" r="2" fill="#E7DCC4" stroke="#7C4DBC" stroke-width="0.5"/><circle cx="174" cy="24" r="2" fill="#E7DCC4" stroke="#7C4DBC" stroke-width="0.5"/><circle cx="145" cy="28" r="2" fill="#E7DCC4" stroke="#7C4DBC" stroke-width="0.5"/><circle cx="201" cy="22" r="2" fill="#E7DCC4" stroke="#7C4DBC" stroke-width="0.5"/><circle cx="183" cy="34" r="2" fill="#E7DCC4" stroke="#7C4DBC" stroke-width="0.5"/><circle cx="28" cy="24" r="2" fill="#E7DCC4" stroke="#7C4DBC" stroke-width="0.5"/><rect x="10" y="38" width="220" height="50" fill="#F8F0E0" stroke="#7C4DBC" stroke-width="1.6"/><circle cx="75" cy="84" r="2.5" fill="#E4D9F5" stroke="#7C4DBC" stroke-width="0.6"/><circle cx="41" cy="91" r="2.5" fill="#E4D9F5" stroke="#7C4DBC" stroke-width="0.6"/><circle cx="116" cy="87" r="2.5" fill="#E4D9F5" stroke="#7C4DBC" stroke-width="0.6"/><circle cx="54" cy="81" r="2.5" fill="#E4D9F5" stroke="#7C4DBC" stroke-width="0.6"/><circle cx="32" cy="80" r="2.5" fill="#E4D9F5" stroke="#7C4DBC" stroke-width="0.6"/><circle cx="117" cy="88" r="2.5" fill="#E4D9F5" stroke="#7C4DBC" stroke-width="0.6"/><circle cx="89" cy="92" r="2.5" fill="#E4D9F5" stroke="#7C4DBC" stroke-width="0.6"/><circle cx="210" cy="80" r="2.5" fill="#E4D9F5" stroke="#7C4DBC" stroke-width="0.6"/><circle cx="71" cy="88" r="2.5" fill="#E4D9F5" stroke="#7C4DBC" stroke-width="0.6"/><circle cx="152" cy="85" r="2.5" fill="#E4D9F5" stroke="#7C4DBC" stroke-width="0.6"/><rect x="10" y="90" width="220" height="45" fill="#fbf9fb" stroke="#7C4DBC" stroke-width="1.2"/><circle cx="174" cy="111" r="2.2" fill="#E4D9F5" stroke="#7C4DBC" stroke-width="0.6"/><circle cx="204" cy="117" r="2.2" fill="#E4D9F5" stroke="#7C4DBC" stroke-width="0.6"/><circle cx="218" cy="128" r="2.2" fill="#E4D9F5" stroke="#7C4DBC" stroke-width="0.6"/><circle cx="22" cy="124" r="2.2" fill="#E4D9F5" stroke="#7C4DBC" stroke-width="0.6"/><circle cx="213" cy="110" r="2.2" fill="#E4D9F5" stroke="#7C4DBC" stroke-width="0.6"/><circle cx="181" cy="98" r="2.2" fill="#E4D9F5" stroke="#7C4DBC" stroke-width="0.6"/><circle cx="55" cy="102" r="2.2" fill="#E4D9F5" stroke="#7C4DBC" stroke-width="0.6"/><circle cx="110" cy="125" r="2.2" fill="#E4D9F5" stroke="#7C4DBC" stroke-width="0.6"/>
  <text x="120.0" y="152" font-family="sans-serif" font-size="7.5" fill="#1b2430" text-anchor="middle" opacity="0.55">Lichen sclerosus — loss of rete pegs, hyalinized collagen band</text>
</svg>