<svg xmlns="http://www.w3.org/2000/svg" viewBox="0 0 240 160" width="240" height="160">
  <rect width="240" height="160" fill="#f8f5fc"/>
<ellipse cx="120" cy="85" rx="90" ry="55" fill="#F1ECFA" stroke="#7C4DBC" stroke-width="1.6"/><path d="M110 75 L115 65 L125 65 L130 75 L125 95 L115 95 Z" fill="#fdf3ec" stroke="#b5481f" stroke-width="1.6"/><path d="M120 85 L195.0 85.0" stroke="#cdb8ec" stroke-width="2.5"/><path d="M120 85 L180.7 109.7" stroke="#cdb8ec" stroke-width="2.5"/><path d="M120 85 L143.2 124.9" stroke="#cdb8ec" stroke-width="2.5"/><path d="M120 85 L96.8 124.9" stroke="#cdb8ec" stroke-width="2.5"/><path d="M120 85 L59.3 109.7" stroke="#cdb8ec" stroke-width="2.5"/><path d="M120 85 L45.0 85.0" stroke="#cdb8ec" stroke-width="2.5"/><path d="M120 85 L59.3 60.3" stroke="#cdb8ec" stroke-width="2.5"/><path d="M120 85 L96.8 45.1" stroke="#cdb8ec" stroke-width="2.5"/><path d="M120 85 L143.2 45.1" stroke="#cdb8ec" stroke-width="2.5"/><path d="M120 85 L180.7 60.3" stroke="#cdb8ec" stroke-width="2.5"/>
  <text x="120.0" y="152" font-family="sans-serif" font-size="7.5" fill="#1b2430" text-anchor="middle" opacity="0.55">Focal nodular hyperplasia - central stellate scar with radiating septa</text>
</svg>