<svg xmlns="http://www.w3.org/2000/svg" viewBox="0 0 240 160" width="240" height="160">
  <rect width="240" height="160" fill="#f8f5fc"/>
  <circle cx="45" cy="35" r="22" fill="#F1ECFA" stroke="#7C4DBC" stroke-width="1.3"/><circle cx="43" cy="39" r="1.8" fill="#1b2430" opacity="0.7"/><circle cx="43" cy="32" r="1.8" fill="#1b2430" opacity="0.7"/><circle cx="38" cy="33" r="1.8" fill="#1b2430" opacity="0.7"/><circle cx="54" cy="38" r="1.8" fill="#1b2430" opacity="0.7"/><circle cx="53" cy="37" r="1.8" fill="#1b2430" opacity="0.7"/><circle cx="48" cy="36" r="1.8" fill="#1b2430" opacity="0.7"/><circle cx="32" cy="42" r="1.8" fill="#1b2430" opacity="0.7"/><circle cx="49" cy="39" r="1.8" fill="#1b2430" opacity="0.7"/><circle cx="34" cy="23" r="1.8" fill="#1b2430" opacity="0.7"/><circle cx="38" cy="31" r="1.8" fill="#1b2430" opacity="0.7"/><circle cx="48" cy="35" r="1.8" fill="#1b2430" opacity="0.7"/><circle cx="49" cy="30" r="1.8" fill="#1b2430" opacity="0.7"/><circle cx="47" cy="38" r="1.8" fill="#1b2430" opacity="0.7"/><circle cx="40" cy="48" r="1.8" fill="#1b2430" opacity="0.7"/><circle cx="45" cy="75" r="22" fill="#F1ECFA" stroke="#7C4DBC" stroke-width="1.3"/><circle cx="50" cy="85" r="1.8" fill="#1b2430" opacity="0.7"/><circle cx="40" cy="69" r="1.8" fill="#1b2430" opacity="0.7"/><circle cx="42" cy="74" r="1.8" fill="#1b2430" opacity="0.7"/><circle cx="50" cy="77" r="1.8" fill="#1b2430" opacity="0.7"/><circle cx="41" cy="67" r="1.8" fill="#1b2430" opacity="0.7"/><circle cx="41" cy="85" r="1.8" fill="#1b2430" opacity="0.7"/><circle cx="39" cy="77" r="1.8" fill="#1b2430" opacity="0.7"/><circle cx="48" cy="63" r="1.8" fill="#1b2430" opacity="0.7"/><circle cx="45" cy="86" r="1.8" fill="#1b2430" opacity="0.7"/><circle cx="30" cy="73" r="1.8" fill="#1b2430" opacity="0.7"/><circle cx="44" cy="69" r="1.8" fill="#1b2430" opacity="0.7"/><circle cx="49" cy="75" r="1.8" fill="#1b2430" opacity="0.7"/><circle cx="33" cy="82" r="1.8" fill="#1b2430" opacity="0.7"/><circle cx="50" cy="83" r="1.8" fill="#1b2430" opacity="0.7"/><circle cx="45" cy="115" r="22" fill="#F1ECFA" stroke="#7C4DBC" stroke-width="1.3"/><circle cx="57" cy="118" r="1.8" fill="#1b2430" opacity="0.7"/><circle cx="46" cy="104" r="1.8" fill="#1b2430" opacity="0.7"/><circle cx="50" cy="110" r="1.8" fill="#1b2430" opacity="0.7"/><circle cx="41" cy="105" r="1.8" fill="#1b2430" opacity="0.7"/><circle cx="37" cy="111" r="1.8" fill="#1b2430" opacity="0.7"/><circle cx="54" cy="101" r="1.8" fill="#1b2430" opacity="0.7"/><circle cx="33" cy="117" r="1.8" fill="#1b2430" opacity="0.7"/><circle cx="57" cy="120" r="1.8" fill="#1b2430" opacity="0.7"/><circle cx="35" cy="102" r="1.8" fill="#1b2430" opacity="0.7"/><circle cx="48" cy="109" r="1.8" fill="#1b2430" opacity="0.7"/><circle cx="36" cy="123" r="1.8" fill="#1b2430" opacity="0.7"/><circle cx="54" cy="116" r="1.8" fill="#1b2430" opacity="0.7"/><circle cx="47" cy="118" r="1.8" fill="#1b2430" opacity="0.7"/><circle cx="58" cy="120" r="1.8" fill="#1b2430" opacity="0.7"/><circle cx="95" cy="35" r="22" fill="#F1ECFA" stroke="#7C4DBC" stroke-width="1.3"/><circle cx="99" cy="39" r="1.8" fill="#1b2430" opacity="0.7"/><circle cx="83" cy="45" r="1.8" fill="#1b2430" opacity="0.7"/><circle cx="103" cy="39" r="1.8" fill="#1b2430" opacity="0.7"/><circle cx="80" cy="30" r="1.8" fill="#1b2430" opacity="0.7"/><circle cx="101" cy="21" r="1.8" fill="#1b2430" opacity="0.7"/><circle cx="94" cy="43" r="1.8" fill="#1b2430" opacity="0.7"/><circle cx="85" cy="47" r="1.8" fill="#1b2430" opacity="0.7"/><circle cx="99" cy="34" r="1.8" fill="#1b2430" opacity="0.7"/><circle cx="97" cy="40" r="1.8" fill="#1b2430" opacity="0.7"/><circle cx="96" cy="44" r="1.8" fill="#1b2430" opacity="0.7"/><circle cx="90" cy="32" r="1.8" fill="#1b2430" opacity="0.7"/><circle cx="103" cy="35" r="1.8" fill="#1b2430" opacity="0.7"/><circle cx="88" cy="43" r="1.8" fill="#1b2430" opacity="0.7"/><circle cx="107" cy="31" r="1.8" fill="#1b2430" opacity="0.7"/><circle cx="95" cy="75" r="22" fill="#F1ECFA" stroke="#7C4DBC" stroke-width="1.3"/><circle cx="84" cy="74" r="1.8" fill="#1b2430" opacity="0.7"/><circle cx="94" cy="72" r="1.8" fill="#1b2430" opacity="0.7"/><circle cx="106" cy="67" r="1.8" fill="#1b2430" opacity="0.7"/><circle cx="105" cy="65" r="1.8" fill="#1b2430" opacity="0.7"/><circle cx="89" cy="80" r="1.8" fill="#1b2430" opacity="0.7"/><circle cx="104" cy="82" r="1.8" fill="#1b2430" opacity="0.7"/><circle cx="98" cy="76" r="1.8" fill="#1b2430" opacity="0.7"/><circle cx="96" cy="79" r="1.8" fill="#1b2430" opacity="0.7"/><circle cx="94" cy="77" r="1.8" fill="#1b2430" opacity="0.7"/><circle cx="99" cy="75" r="1.8" fill="#1b2430" opacity="0.7"/><circle cx="101" cy="79" r="1.8" fill="#1b2430" opacity="0.7"/><circle cx="110" cy="77" r="1.8" fill="#1b2430" opacity="0.7"/><circle cx="92" cy="72" r="1.8" fill="#1b2430" opacity="0.7"/><circle cx="95" cy="82" r="1.8" fill="#1b2430" opacity="0.7"/><circle cx="95" cy="115" r="22" fill="#F1ECFA" stroke="#7C4DBC" stroke-width="1.3"/><circle cx="92" cy="118" r="1.8" fill="#1b2430" opacity="0.7"/><circle cx="105" cy="101" r="1.8" fill="#1b2430" opacity="0.7"/><circle cx="86" cy="117" r="1.8" fill="#1b2430" opacity="0.7"/><circle cx="98" cy="117" r="1.8" fill="#1b2430" opacity="0.7"/><circle cx="92" cy="120" r="1.8" fill="#1b2430" opacity="0.7"/><circle cx="97" cy="111" r="1.8" fill="#1b2430" opacity="0.7"/><circle cx="111" cy="117" r="1.8" fill="#1b2430" opacity="0.7"/><circle cx="91" cy="114" r="1.8" fill="#1b2430" opacity="0.7"/><circle cx="93" cy="114" r="1.8" fill="#1b2430" opacity="0.7"/><circle cx="79" cy="112" r="1.8" fill="#1b2430" opacity="0.7"/><circle cx="103" cy="106" r="1.8" fill="#1b2430" opacity="0.7"/><circle cx="94" cy="122" r="1.8" fill="#1b2430" opacity="0.7"/><circle cx="102" cy="127" r="1.8" fill="#1b2430" opacity="0.7"/><circle cx="82" cy="112" r="1.8" fill="#1b2430" opacity="0.7"/><circle cx="145" cy="35" r="22" fill="#F1ECFA" stroke="#7C4DBC" stroke-width="1.3"/><circle cx="142" cy="40" r="1.8" fill="#1b2430" opacity="0.7"/><circle cx="151" cy="19" r="1.8" fill="#1b2430" opacity="0.7"/><circle cx="153" cy="24" r="1.8" fill="#1b2430" opacity="0.7"/><circle cx="150" cy="23" r="1.8" fill="#1b2430" opacity="0.7"/><circle cx="146" cy="45" r="1.8" fill="#1b2430" opacity="0.7"/><circle cx="144" cy="37" r="1.8" fill="#1b2430" opacity="0.7"/><circle cx="151" cy="36" r="1.8" fill="#1b2430" opacity="0.7"/><circle cx="144" cy="47" r="1.8" fill="#1b2430" opacity="0.7"/><circle cx="153" cy="33" r="1.8" fill="#1b2430" opacity="0.7"/><circle cx="161" cy="29" r="1.8" fill="#1b2430" opacity="0.7"/><circle cx="152" cy="33" r="1.8" fill="#1b2430" opacity="0.7"/><circle cx="146" cy="40" r="1.8" fill="#1b2430" opacity="0.7"/><circle cx="147" cy="40" r="1.8" fill="#1b2430" opacity="0.7"/><circle cx="134" cy="24" r="1.8" fill="#1b2430" opacity="0.7"/><circle cx="145" cy="75" r="22" fill="#F1ECFA" stroke="#7C4DBC" stroke-width="1.3"/><circle cx="150" cy="67" r="1.8" fill="#1b2430" opacity="0.7"/><circle cx="137" cy="64" r="1.8" fill="#1b2430" opacity="0.7"/><circle cx="155" cy="81" r="1.8" fill="#1b2430" opacity="0.7"/><circle cx="157" cy="68" r="1.8" fill="#1b2430" opacity="0.7"/><circle cx="145" cy="66" r="1.8" fill="#1b2430" opacity="0.7"/><circle cx="151" cy="87" r="1.8" fill="#1b2430" opacity="0.7"/><circle cx="138" cy="87" r="1.8" fill="#1b2430" opacity="0.7"/><circle cx="153" cy="74" r="1.8" fill="#1b2430" opacity="0.7"/><circle cx="132" cy="84" r="1.8" fill="#1b2430" opacity="0.7"/><circle cx="144" cy="71" r="1.8" fill="#1b2430" opacity="0.7"/><circle cx="148" cy="78" r="1.8" fill="#1b2430" opacity="0.7"/><circle cx="157" cy="67" r="1.8" fill="#1b2430" opacity="0.7"/><circle cx="154" cy="86" r="1.8" fill="#1b2430" opacity="0.7"/><circle cx="157" cy="74" r="1.8" fill="#1b2430" opacity="0.7"/><circle cx="145" cy="115" r="22" fill="#F1ECFA" stroke="#7C4DBC" stroke-width="1.3"/><circle cx="139" cy="123" r="1.8" fill="#1b2430" opacity="0.7"/><circle cx="147" cy="117" r="1.8" fill="#1b2430" opacity="0.7"/><circle cx="157" cy="113" r="1.8" fill="#1b2430" opacity="0.7"/><circle cx="129" cy="112" r="1.8" fill="#1b2430" opacity="0.7"/><circle cx="131" cy="121" r="1.8" fill="#1b2430" opacity="0.7"/><circle cx="147" cy="110" r="1.8" fill="#1b2430" opacity="0.7"/><circle cx="145" cy="121" r="1.8" fill="#1b2430" opacity="0.7"/><circle cx="146" cy="126" r="1.8" fill="#1b2430" opacity="0.7"/><circle cx="145" cy="123" r="1.8" fill="#1b2430" opacity="0.7"/><circle cx="156" cy="126" r="1.8" fill="#1b2430" opacity="0.7"/><circle cx="140" cy="122" r="1.8" fill="#1b2430" opacity="0.7"/><circle cx="132" cy="107" r="1.8" fill="#1b2430" opacity="0.7"/><circle cx="131" cy="123" r="1.8" fill="#1b2430" opacity="0.7"/><circle cx="135" cy="115" r="1.8" fill="#1b2430" opacity="0.7"/><circle cx="195" cy="35" r="22" fill="#F1ECFA" stroke="#7C4DBC" stroke-width="1.3"/><circle cx="193" cy="35" r="1.8" fill="#1b2430" opacity="0.7"/><circle cx="191" cy="37" r="1.8" fill="#1b2430" opacity="0.7"/><circle cx="209" cy="35" r="1.8" fill="#1b2430" opacity="0.7"/><circle cx="199" cy="43" r="1.8" fill="#1b2430" opacity="0.7"/><circle cx="193" cy="25" r="1.8" fill="#1b2430" opacity="0.7"/><circle cx="191" cy="44" r="1.8" fill="#1b2430" opacity="0.7"/><circle cx="182" cy="30" r="1.8" fill="#1b2430" opacity="0.7"/><circle cx="203" cy="41" r="1.8" fill="#1b2430" opacity="0.7"/><circle cx="195" cy="41" r="1.8" fill="#1b2430" opacity="0.7"/><circle cx="196" cy="25" r="1.8" fill="#1b2430" opacity="0.7"/><circle cx="183" cy="30" r="1.8" fill="#1b2430" opacity="0.7"/><circle cx="202" cy="30" r="1.8" fill="#1b2430" opacity="0.7"/><circle cx="188" cy="29" r="1.8" fill="#1b2430" opacity="0.7"/><circle cx="183" cy="34" r="1.8" fill="#1b2430" opacity="0.7"/><circle cx="195" cy="75" r="22" fill="#F1ECFA" stroke="#7C4DBC" stroke-width="1.3"/><circle cx="185" cy="78" r="1.8" fill="#1b2430" opacity="0.7"/><circle cx="179" cy="77" r="1.8" fill="#1b2430" opacity="0.7"/><circle cx="190" cy="61" r="1.8" fill="#1b2430" opacity="0.7"/><circle cx="201" cy="73" r="1.8" fill="#1b2430" opacity="0.7"/><circle cx="180" cy="69" r="1.8" fill="#1b2430" opacity="0.7"/><circle cx="197" cy="72" r="1.8" fill="#1b2430" opacity="0.7"/><circle cx="201" cy="81" r="1.8" fill="#1b2430" opacity="0.7"/><circle cx="200" cy="77" r="1.8" fill="#1b2430" opacity="0.7"/><circle cx="206" cy="80" r="1.8" fill="#1b2430" opacity="0.7"/><circle cx="198" cy="60" r="1.8" fill="#1b2430" opacity="0.7"/><circle cx="202" cy="86" r="1.8" fill="#1b2430" opacity="0.7"/><circle cx="193" cy="71" r="1.8" fill="#1b2430" opacity="0.7"/><circle cx="207" cy="64" r="1.8" fill="#1b2430" opacity="0.7"/><circle cx="198" cy="91" r="1.8" fill="#1b2430" opacity="0.7"/><circle cx="195" cy="115" r="22" fill="#F1ECFA" stroke="#7C4DBC" stroke-width="1.3"/><circle cx="188" cy="121" r="1.8" fill="#1b2430" opacity="0.7"/><circle cx="209" cy="114" r="1.8" fill="#1b2430" opacity="0.7"/><circle cx="199" cy="122" r="1.8" fill="#1b2430" opacity="0.7"/><circle cx="188" cy="114" r="1.8" fill="#1b2430" opacity="0.7"/><circle cx="197" cy="121" r="1.8" fill="#1b2430" opacity="0.7"/><circle cx="195" cy="113" r="1.8" fill="#1b2430" opacity="0.7"/><circle cx="187" cy="112" r="1.8" fill="#1b2430" opacity="0.7"/><circle cx="202" cy="116" r="1.8" fill="#1b2430" opacity="0.7"/><circle cx="188" cy="108" r="1.8" fill="#1b2430" opacity="0.7"/><circle cx="210" cy="122" r="1.8" fill="#1b2430" opacity="0.7"/><circle cx="199" cy="99" r="1.8" fill="#1b2430" opacity="0.7"/><circle cx="200" cy="119" r="1.8" fill="#1b2430" opacity="0.7"/><circle cx="208" cy="118" r="1.8" fill="#1b2430" opacity="0.7"/><circle cx="194" cy="119" r="1.8" fill="#1b2430" opacity="0.7"/>
  <text x="120.0" y="152" font-family="sans-serif" font-size="7.5" fill="#1b2430" text-anchor="middle" opacity="0.55">Lobar pneumonia — alveoli filled with neutrophils</text>
</svg>