<svg xmlns="http://www.w3.org/2000/svg" viewBox="0 0 240 160" width="240" height="160">
  <rect width="240" height="160" fill="#f8f5fc"/>
  <rect x="8" y="8" width="224" height="136" rx="12" fill="#F1ECFA" stroke="#7C4DBC" stroke-width="2"/><circle cx="87.8" cy="56.9" r="11.6" fill="#E4D9F5" stroke="#7C4DBC" stroke-width="1.1"/><circle cx="87.8" cy="56.9" r="4.1" fill="#7C4DBC"/><circle cx="114.6" cy="91.1" r="8.5" fill="#E4D9F5" stroke="#7C4DBC" stroke-width="1.1"/><circle cx="114.6" cy="91.1" r="3.0" fill="#7C4DBC"/><circle cx="40.4" cy="68.1" r="12.9" fill="#E4D9F5" stroke="#7C4DBC" stroke-width="1.1"/><circle cx="40.4" cy="68.1" r="4.5" fill="#7C4DBC"/><circle cx="177.5" cy="71.7" r="10.9" fill="#E4D9F5" stroke="#7C4DBC" stroke-width="1.1"/><circle cx="177.5" cy="71.7" r="3.8" fill="#7C4DBC"/><circle cx="75.2" cy="89.2" r="9.7" fill="#E4D9F5" stroke="#7C4DBC" stroke-width="1.1"/><circle cx="75.2" cy="89.2" r="3.4" fill="#7C4DBC"/><circle cx="115.4" cy="73.1" r="8.7" fill="#E4D9F5" stroke="#7C4DBC" stroke-width="1.1"/><circle cx="115.4" cy="73.1" r="3.1" fill="#7C4DBC"/><circle cx="205.1" cy="95.3" r="12.9" fill="#E4D9F5" stroke="#7C4DBC" stroke-width="1.1"/><circle cx="205.1" cy="95.3" r="4.5" fill="#7C4DBC"/><circle cx="194.1" cy="75.8" r="11.5" fill="#E4D9F5" stroke="#7C4DBC" stroke-width="1.1"/><circle cx="194.1" cy="75.8" r="4.0" fill="#7C4DBC"/><circle cx="47.2" cy="121.2" r="8.7" fill="#E4D9F5" stroke="#7C4DBC" stroke-width="1.1"/><circle cx="47.2" cy="121.2" r="3.0" fill="#7C4DBC"/>
  <text x="120.0" y="152" font-family="sans-serif" font-size="8.5" fill="#1b2430" text-anchor="middle" opacity="0.55">Lobar Pneumonia (schematic placeholder)</text>
</svg>