<svg xmlns="http://www.w3.org/2000/svg" viewBox="0 0 240 160" width="240" height="160">
  <rect width="240" height="160" fill="#f8f5fc"/>
<rect x="10" y="15" width="220" height="125" fill="#EDE6FA" stroke="#7C4DBC" stroke-width="1.4"/><ellipse cx="74" cy="93" rx="2.4" ry="1.8" fill="#3d2566" opacity="0.85" transform="rotate(139 74 93)"/><ellipse cx="47" cy="65" rx="2.4" ry="1.8" fill="#3d2566" opacity="0.85" transform="rotate(154 47 65)"/><ellipse cx="135" cy="98" rx="2.4" ry="1.8" fill="#3d2566" opacity="0.85" transform="rotate(148 135 98)"/><ellipse cx="30" cy="95" rx="2.4" ry="1.8" fill="#3d2566" opacity="0.85" transform="rotate(3 30 95)"/><ellipse cx="134" cy="51" rx="2.4" ry="1.8" fill="#3d2566" opacity="0.85" transform="rotate(141 134 51)"/><ellipse cx="73" cy="42" rx="2.4" ry="1.8" fill="#3d2566" opacity="0.85" transform="rotate(120 73 42)"/><ellipse cx="152" cy="125" rx="2.4" ry="1.8" fill="#3d2566" opacity="0.85" transform="rotate(140 152 125)"/><ellipse cx="135" cy="68" rx="2.4" ry="1.8" fill="#3d2566" opacity="0.85" transform="rotate(163 135 68)"/><ellipse cx="52" cy="47" rx="2.4" ry="1.8" fill="#3d2566" opacity="0.85" transform="rotate(162 52 47)"/><ellipse cx="52" cy="129" rx="2.4" ry="1.8" fill="#3d2566" opacity="0.85" transform="rotate(133 52 129)"/><ellipse cx="113" cy="112" rx="2.4" ry="1.8" fill="#3d2566" opacity="0.85" transform="rotate(3 113 112)"/><ellipse cx="185" cy="117" rx="2.4" ry="1.8" fill="#3d2566" opacity="0.85" transform="rotate(16 185 117)"/><ellipse cx="54" cy="115" rx="2.4" ry="1.8" fill="#3d2566" opacity="0.85" transform="rotate(151 54 115)"/><ellipse cx="24" cy="56" rx="2.4" ry="1.8" fill="#3d2566" opacity="0.85" transform="rotate(7 24 56)"/><ellipse cx="224" cy="128" rx="2.4" ry="1.8" fill="#3d2566" opacity="0.85" transform="rotate(68 224 128)"/><ellipse cx="135" cy="94" rx="2.4" ry="1.8" fill="#3d2566" opacity="0.85" transform="rotate(99 135 94)"/><ellipse cx="196" cy="118" rx="2.4" ry="1.8" fill="#3d2566" opacity="0.85" transform="rotate(109 196 118)"/><ellipse cx="115" cy="111" rx="2.4" ry="1.8" fill="#3d2566" opacity="0.85" transform="rotate(147 115 111)"/><ellipse cx="127" cy="35" rx="2.4" ry="1.8" fill="#3d2566" opacity="0.85" transform="rotate(93 127 35)"/><ellipse cx="38" cy="22" rx="2.4" ry="1.8" fill="#3d2566" opacity="0.85" transform="rotate(34 38 22)"/><ellipse cx="140" cy="45" rx="2.4" ry="1.8" fill="#3d2566" opacity="0.85" transform="rotate(66 140 45)"/><ellipse cx="186" cy="73" rx="2.4" ry="1.8" fill="#3d2566" opacity="0.85" transform="rotate(160 186 73)"/><ellipse cx="91" cy="71" rx="2.4" ry="1.8" fill="#3d2566" opacity="0.85" transform="rotate(129 91 71)"/><ellipse cx="112" cy="91" rx="2.4" ry="1.8" fill="#3d2566" opacity="0.85" transform="rotate(89 112 91)"/><ellipse cx="150" cy="92" rx="2.4" ry="1.8" fill="#3d2566" opacity="0.85" transform="rotate(104 150 92)"/><ellipse cx="163" cy="47" rx="2.4" ry="1.8" fill="#3d2566" opacity="0.85" transform="rotate(86 163 47)"/><ellipse cx="188" cy="135" rx="2.4" ry="1.8" fill="#3d2566" opacity="0.85" transform="rotate(7 188 135)"/><ellipse cx="85" cy="95" rx="2.4" ry="1.8" fill="#3d2566" opacity="0.85" transform="rotate(171 85 95)"/><ellipse cx="192" cy="38" rx="2.4" ry="1.8" fill="#3d2566" opacity="0.85" transform="rotate(178 192 38)"/><ellipse cx="97" cy="87" rx="2.4" ry="1.8" fill="#3d2566" opacity="0.85" transform="rotate(146 97 87)"/><ellipse cx="159" cy="31" rx="2.4" ry="1.8" fill="#3d2566" opacity="0.85" transform="rotate(167 159 31)"/><ellipse cx="68" cy="99" rx="2.4" ry="1.8" fill="#3d2566" opacity="0.85" transform="rotate(146 68 99)"/><ellipse cx="82" cy="54" rx="2.4" ry="1.8" fill="#3d2566" opacity="0.85" transform="rotate(31 82 54)"/><ellipse cx="30" cy="79" rx="2.4" ry="1.8" fill="#3d2566" opacity="0.85" transform="rotate(163 30 79)"/><ellipse cx="137" cy="29" rx="2.4" ry="1.8" fill="#3d2566" opacity="0.85" transform="rotate(88 137 29)"/><ellipse cx="218" cy="26" rx="2.4" ry="1.8" fill="#3d2566" opacity="0.85" transform="rotate(105 218 26)"/><ellipse cx="52" cy="20" rx="2.4" ry="1.8" fill="#3d2566" opacity="0.85" transform="rotate(75 52 20)"/><ellipse cx="123" cy="116" rx="2.4" ry="1.8" fill="#3d2566" opacity="0.85" transform="rotate(106 123 116)"/><ellipse cx="44" cy="23" rx="2.4" ry="1.8" fill="#3d2566" opacity="0.85" transform="rotate(154 44 23)"/><ellipse cx="171" cy="115" rx="2.4" ry="1.8" fill="#3d2566" opacity="0.85" transform="rotate(11 171 115)"/><ellipse cx="110" cy="109" rx="2.4" ry="1.8" fill="#3d2566" opacity="0.85" transform="rotate(150 110 109)"/><ellipse cx="98" cy="88" rx="2.4" ry="1.8" fill="#3d2566" opacity="0.85" transform="rotate(71 98 88)"/><ellipse cx="143" cy="48" rx="2.4" ry="1.8" fill="#3d2566" opacity="0.85" transform="rotate(9 143 48)"/><ellipse cx="93" cy="18" rx="2.4" ry="1.8" fill="#3d2566" opacity="0.85" transform="rotate(19 93 18)"/><ellipse cx="41" cy="94" rx="2.4" ry="1.8" fill="#3d2566" opacity="0.85" transform="rotate(137 41 94)"/><ellipse cx="22" cy="43" rx="2.4" ry="1.8" fill="#3d2566" opacity="0.85" transform="rotate(104 22 43)"/><ellipse cx="88" cy="96" rx="2.4" ry="1.8" fill="#3d2566" opacity="0.85" transform="rotate(67 88 96)"/><ellipse cx="53" cy="106" rx="2.4" ry="1.8" fill="#3d2566" opacity="0.85" transform="rotate(10 53 106)"/><ellipse cx="100" cy="58" rx="2.4" ry="1.8" fill="#3d2566" opacity="0.85" transform="rotate(92 100 58)"/><ellipse cx="49" cy="132" rx="2.4" ry="1.8" fill="#3d2566" opacity="0.85" transform="rotate(96 49 132)"/><ellipse cx="110" cy="76" rx="2.4" ry="1.8" fill="#3d2566" opacity="0.85" transform="rotate(133 110 76)"/><ellipse cx="112" cy="100" rx="2.4" ry="1.8" fill="#3d2566" opacity="0.85" transform="rotate(152 112 100)"/><ellipse cx="188" cy="89" rx="2.4" ry="1.8" fill="#3d2566" opacity="0.85" transform="rotate(26 188 89)"/><ellipse cx="172" cy="121" rx="2.4" ry="1.8" fill="#3d2566" opacity="0.85" transform="rotate(129 172 121)"/><ellipse cx="83" cy="73" rx="2.4" ry="1.8" fill="#3d2566" opacity="0.85" transform="rotate(162 83 73)"/><ellipse cx="198" cy="109" rx="2.4" ry="1.8" fill="#3d2566" opacity="0.85" transform="rotate(60 198 109)"/><ellipse cx="91" cy="73" rx="2.4" ry="1.8" fill="#3d2566" opacity="0.85" transform="rotate(66 91 73)"/><ellipse cx="147" cy="56" rx="2.4" ry="1.8" fill="#3d2566" opacity="0.85" transform="rotate(140 147 56)"/><ellipse cx="100" cy="19" rx="2.4" ry="1.8" fill="#3d2566" opacity="0.85" transform="rotate(106 100 19)"/><ellipse cx="162" cy="58" rx="2.4" ry="1.8" fill="#3d2566" opacity="0.85" transform="rotate(5 162 58)"/><ellipse cx="110" cy="96" rx="2.4" ry="1.8" fill="#3d2566" opacity="0.85" transform="rotate(150 110 96)"/><ellipse cx="175" cy="35" rx="2.4" ry="1.8" fill="#3d2566" opacity="0.85" transform="rotate(15 175 35)"/><ellipse cx="176" cy="98" rx="2.4" ry="1.8" fill="#3d2566" opacity="0.85" transform="rotate(85 176 98)"/><ellipse cx="133" cy="63" rx="2.4" ry="1.8" fill="#3d2566" opacity="0.85" transform="rotate(173 133 63)"/><ellipse cx="104" cy="95" rx="2.4" ry="1.8" fill="#3d2566" opacity="0.85" transform="rotate(180 104 95)"/><ellipse cx="85" cy="112" rx="2.4" ry="1.8" fill="#3d2566" opacity="0.85" transform="rotate(125 85 112)"/><ellipse cx="19" cy="93" rx="2.4" ry="1.8" fill="#3d2566" opacity="0.85" transform="rotate(15 19 93)"/><ellipse cx="187" cy="20" rx="2.4" ry="1.8" fill="#3d2566" opacity="0.85" transform="rotate(94 187 20)"/><ellipse cx="78" cy="98" rx="2.4" ry="1.8" fill="#3d2566" opacity="0.85" transform="rotate(116 78 98)"/><ellipse cx="90" cy="93" rx="2.4" ry="1.8" fill="#3d2566" opacity="0.85" transform="rotate(153 90 93)"/><ellipse cx="95" cy="40" rx="2.4" ry="1.8" fill="#3d2566" opacity="0.85" transform="rotate(93 95 40)"/><ellipse cx="61" cy="58" rx="2.4" ry="1.8" fill="#3d2566" opacity="0.85" transform="rotate(94 61 58)"/><ellipse cx="166" cy="51" rx="2.4" ry="1.8" fill="#3d2566" opacity="0.85" transform="rotate(76 166 51)"/><ellipse cx="215" cy="66" rx="2.4" ry="1.8" fill="#3d2566" opacity="0.85" transform="rotate(26 215 66)"/><ellipse cx="211" cy="122" rx="2.4" ry="1.8" fill="#3d2566" opacity="0.85" transform="rotate(6 211 122)"/><ellipse cx="159" cy="105" rx="2.4" ry="1.8" fill="#3d2566" opacity="0.85" transform="rotate(33 159 105)"/><ellipse cx="93" cy="82" rx="2.4" ry="1.8" fill="#3d2566" opacity="0.85" transform="rotate(56 93 82)"/><ellipse cx="181" cy="120" rx="2.4" ry="1.8" fill="#3d2566" opacity="0.85" transform="rotate(68 181 120)"/><ellipse cx="75" cy="59" rx="2.4" ry="1.8" fill="#3d2566" opacity="0.85" transform="rotate(47 75 59)"/><ellipse cx="187" cy="73" rx="2.4" ry="1.8" fill="#3d2566" opacity="0.85" transform="rotate(166 187 73)"/><ellipse cx="192" cy="30" rx="2.4" ry="1.8" fill="#3d2566" opacity="0.85" transform="rotate(26 192 30)"/><ellipse cx="167" cy="59" rx="2.4" ry="1.8" fill="#3d2566" opacity="0.85" transform="rotate(85 167 59)"/><ellipse cx="186" cy="124" rx="2.4" ry="1.8" fill="#3d2566" opacity="0.85" transform="rotate(57 186 124)"/><ellipse cx="126" cy="121" rx="2.4" ry="1.8" fill="#3d2566" opacity="0.85" transform="rotate(43 126 121)"/><ellipse cx="34" cy="61" rx="2.4" ry="1.8" fill="#3d2566" opacity="0.85" transform="rotate(166 34 61)"/><ellipse cx="69" cy="131" rx="2.4" ry="1.8" fill="#3d2566" opacity="0.85" transform="rotate(145 69 131)"/><ellipse cx="129" cy="52" rx="2.4" ry="1.8" fill="#3d2566" opacity="0.85" transform="rotate(57 129 52)"/><ellipse cx="215" cy="33" rx="2.4" ry="1.8" fill="#3d2566" opacity="0.85" transform="rotate(8 215 33)"/><ellipse cx="149" cy="42" rx="2.4" ry="1.8" fill="#3d2566" opacity="0.85" transform="rotate(80 149 42)"/><ellipse cx="220" cy="125" rx="2.4" ry="1.8" fill="#3d2566" opacity="0.85" transform="rotate(147 220 125)"/><ellipse cx="60" cy="128" rx="2.4" ry="1.8" fill="#3d2566" opacity="0.85" transform="rotate(71 60 128)"/><ellipse cx="101" cy="121" rx="2.4" ry="1.8" fill="#3d2566" opacity="0.85" transform="rotate(164 101 121)"/><ellipse cx="35" cy="121" rx="2.4" ry="1.8" fill="#3d2566" opacity="0.85" transform="rotate(158 35 121)"/><ellipse cx="102" cy="93" rx="2.4" ry="1.8" fill="#3d2566" opacity="0.85" transform="rotate(33 102 93)"/><ellipse cx="121" cy="55" rx="2.4" ry="1.8" fill="#3d2566" opacity="0.85" transform="rotate(132 121 55)"/><ellipse cx="217" cy="126" rx="2.4" ry="1.8" fill="#3d2566" opacity="0.85" transform="rotate(69 217 126)"/><ellipse cx="132" cy="62" rx="2.4" ry="1.8" fill="#3d2566" opacity="0.85" transform="rotate(162 132 62)"/><ellipse cx="120" cy="55" rx="2.4" ry="1.8" fill="#3d2566" opacity="0.85" transform="rotate(107 120 55)"/><ellipse cx="159" cy="70" rx="2.4" ry="1.8" fill="#3d2566" opacity="0.85" transform="rotate(9 159 70)"/><ellipse cx="119" cy="37" rx="2.4" ry="1.8" fill="#3d2566" opacity="0.85" transform="rotate(51 119 37)"/><ellipse cx="15" cy="79" rx="2.4" ry="1.8" fill="#3d2566" opacity="0.85" transform="rotate(159 15 79)"/><ellipse cx="144" cy="73" rx="2.4" ry="1.8" fill="#3d2566" opacity="0.85" transform="rotate(143 144 73)"/><ellipse cx="197" cy="46" rx="2.4" ry="1.8" fill="#3d2566" opacity="0.85" transform="rotate(8 197 46)"/><ellipse cx="204" cy="76" rx="2.4" ry="1.8" fill="#3d2566" opacity="0.85" transform="rotate(169 204 76)"/><ellipse cx="205" cy="84" rx="2.4" ry="1.8" fill="#3d2566" opacity="0.85" transform="rotate(73 205 84)"/><ellipse cx="153" cy="61" rx="2.4" ry="1.8" fill="#3d2566" opacity="0.85" transform="rotate(58 153 61)"/><ellipse cx="31" cy="127" rx="2.4" ry="1.8" fill="#3d2566" opacity="0.85" transform="rotate(150 31 127)"/><ellipse cx="87" cy="33" rx="2.4" ry="1.8" fill="#3d2566" opacity="0.85" transform="rotate(62 87 33)"/><ellipse cx="25" cy="22" rx="2.4" ry="1.8" fill="#3d2566" opacity="0.85" transform="rotate(177 25 22)"/><ellipse cx="145" cy="136" rx="2.4" ry="1.8" fill="#3d2566" opacity="0.85" transform="rotate(50 145 136)"/><ellipse cx="124" cy="91" rx="2.4" ry="1.8" fill="#3d2566" opacity="0.85" transform="rotate(12 124 91)"/><ellipse cx="17" cy="79" rx="2.4" ry="1.8" fill="#3d2566" opacity="0.85" transform="rotate(30 17 79)"/><ellipse cx="57" cy="82" rx="2.4" ry="1.8" fill="#3d2566" opacity="0.85" transform="rotate(76 57 82)"/><ellipse cx="75" cy="102" rx="2.4" ry="1.8" fill="#3d2566" opacity="0.85" transform="rotate(5 75 102)"/><ellipse cx="148" cy="86" rx="2.4" ry="1.8" fill="#3d2566" opacity="0.85" transform="rotate(105 148 86)"/><ellipse cx="27" cy="134" rx="2.4" ry="1.8" fill="#3d2566" opacity="0.85" transform="rotate(156 27 134)"/><ellipse cx="43" cy="61" rx="2.4" ry="1.8" fill="#3d2566" opacity="0.85" transform="rotate(32 43 61)"/><ellipse cx="78" cy="128" rx="2.4" ry="1.8" fill="#3d2566" opacity="0.85" transform="rotate(138 78 128)"/><ellipse cx="136" cy="121" rx="2.4" ry="1.8" fill="#3d2566" opacity="0.85" transform="rotate(15 136 121)"/><ellipse cx="104" cy="46" rx="2.4" ry="1.8" fill="#3d2566" opacity="0.85" transform="rotate(50 104 46)"/><ellipse cx="45" cy="86" rx="2.4" ry="1.8" fill="#3d2566" opacity="0.85" transform="rotate(30 45 86)"/><ellipse cx="57" cy="48" rx="2.4" ry="1.8" fill="#3d2566" opacity="0.85" transform="rotate(70 57 48)"/><ellipse cx="220" cy="34" rx="2.4" ry="1.8" fill="#3d2566" opacity="0.85" transform="rotate(1 220 34)"/><ellipse cx="138" cy="98" rx="2.4" ry="1.8" fill="#3d2566" opacity="0.85" transform="rotate(146 138 98)"/><ellipse cx="116" cy="24" rx="2.4" ry="1.8" fill="#3d2566" opacity="0.85" transform="rotate(69 116 24)"/><ellipse cx="77" cy="52" rx="2.4" ry="1.8" fill="#3d2566" opacity="0.85" transform="rotate(158 77 52)"/><ellipse cx="148" cy="84" rx="2.4" ry="1.8" fill="#3d2566" opacity="0.85" transform="rotate(108 148 84)"/><ellipse cx="27" cy="78" rx="2.4" ry="1.8" fill="#3d2566" opacity="0.85" transform="rotate(82 27 78)"/><ellipse cx="212" cy="122" rx="2.4" ry="1.8" fill="#3d2566" opacity="0.85" transform="rotate(0 212 122)"/><ellipse cx="28" cy="117" rx="2.4" ry="1.8" fill="#3d2566" opacity="0.85" transform="rotate(32 28 117)"/><ellipse cx="25" cy="33" rx="2.4" ry="1.8" fill="#3d2566" opacity="0.85" transform="rotate(12 25 33)"/><ellipse cx="31" cy="79" rx="2.4" ry="1.8" fill="#3d2566" opacity="0.85" transform="rotate(8 31 79)"/><ellipse cx="196" cy="29" rx="2.4" ry="1.8" fill="#3d2566" opacity="0.85" transform="rotate(131 196 29)"/><ellipse cx="142" cy="80" rx="2.4" ry="1.8" fill="#3d2566" opacity="0.85" transform="rotate(80 142 80)"/><ellipse cx="54" cy="58" rx="2.4" ry="1.8" fill="#3d2566" opacity="0.85" transform="rotate(18 54 58)"/><ellipse cx="103" cy="67" rx="2.4" ry="1.8" fill="#3d2566" opacity="0.85" transform="rotate(165 103 67)"/><ellipse cx="113" cy="93" rx="2.4" ry="1.8" fill="#3d2566" opacity="0.85" transform="rotate(77 113 93)"/><ellipse cx="106" cy="51" rx="2.4" ry="1.8" fill="#3d2566" opacity="0.85" transform="rotate(48 106 51)"/><ellipse cx="98" cy="72" rx="2.4" ry="1.8" fill="#3d2566" opacity="0.85" transform="rotate(31 98 72)"/><ellipse cx="46" cy="89" rx="2.4" ry="1.8" fill="#3d2566" opacity="0.85" transform="rotate(0 46 89)"/><ellipse cx="197" cy="110" rx="2.4" ry="1.8" fill="#3d2566" opacity="0.85" transform="rotate(97 197 110)"/><ellipse cx="217" cy="28" rx="2.4" ry="1.8" fill="#3d2566" opacity="0.85" transform="rotate(145 217 28)"/><ellipse cx="59" cy="23" rx="2.4" ry="1.8" fill="#3d2566" opacity="0.85" transform="rotate(95 59 23)"/><ellipse cx="131" cy="95" rx="2.4" ry="1.8" fill="#3d2566" opacity="0.85" transform="rotate(166 131 95)"/><ellipse cx="214" cy="87" rx="2.4" ry="1.8" fill="#3d2566" opacity="0.85" transform="rotate(97 214 87)"/><ellipse cx="176" cy="120" rx="2.4" ry="1.8" fill="#3d2566" opacity="0.85" transform="rotate(11 176 120)"/><ellipse cx="173" cy="131" rx="2.4" ry="1.8" fill="#3d2566" opacity="0.85" transform="rotate(110 173 131)"/><ellipse cx="27" cy="65" rx="2.4" ry="1.8" fill="#3d2566" opacity="0.85" transform="rotate(160 27 65)"/><ellipse cx="141" cy="115" rx="2.4" ry="1.8" fill="#3d2566" opacity="0.85" transform="rotate(179 141 115)"/><ellipse cx="94" cy="71" rx="2.4" ry="1.8" fill="#3d2566" opacity="0.85" transform="rotate(177 94 71)"/><ellipse cx="121" cy="76" rx="2.4" ry="1.8" fill="#3d2566" opacity="0.85" transform="rotate(4 121 76)"/><ellipse cx="76" cy="45" rx="2.4" ry="1.8" fill="#3d2566" opacity="0.85" transform="rotate(137 76 45)"/><ellipse cx="83" cy="106" rx="2.4" ry="1.8" fill="#3d2566" opacity="0.85" transform="rotate(151 83 106)"/><ellipse cx="32" cy="120" rx="2.4" ry="1.8" fill="#3d2566" opacity="0.85" transform="rotate(108 32 120)"/><ellipse cx="71" cy="72" rx="2.4" ry="1.8" fill="#3d2566" opacity="0.85" transform="rotate(33 71 72)"/><ellipse cx="21" cy="59" rx="2.4" ry="1.8" fill="#3d2566" opacity="0.85" transform="rotate(95 21 59)"/><ellipse cx="157" cy="119" rx="2.4" ry="1.8" fill="#3d2566" opacity="0.85" transform="rotate(67 157 119)"/><ellipse cx="45" cy="77" rx="2.4" ry="1.8" fill="#3d2566" opacity="0.85" transform="rotate(176 45 77)"/><ellipse cx="45" cy="122" rx="2.4" ry="1.8" fill="#3d2566" opacity="0.85" transform="rotate(169 45 122)"/><ellipse cx="149" cy="119" rx="2.4" ry="1.8" fill="#3d2566" opacity="0.85" transform="rotate(96 149 119)"/><ellipse cx="184" cy="31" rx="2.4" ry="1.8" fill="#3d2566" opacity="0.85" transform="rotate(81 184 31)"/><ellipse cx="158" cy="86" rx="2.4" ry="1.8" fill="#3d2566" opacity="0.85" transform="rotate(26 158 86)"/><ellipse cx="221" cy="93" rx="2.4" ry="1.8" fill="#3d2566" opacity="0.85" transform="rotate(1 221 93)"/><ellipse cx="135" cy="36" rx="2.4" ry="1.8" fill="#3d2566" opacity="0.85" transform="rotate(60 135 36)"/><ellipse cx="212" cy="67" rx="2.4" ry="1.8" fill="#3d2566" opacity="0.85" transform="rotate(11 212 67)"/><ellipse cx="148" cy="29" rx="2.4" ry="1.8" fill="#3d2566" opacity="0.85" transform="rotate(144 148 29)"/><ellipse cx="39" cy="102" rx="2.4" ry="1.8" fill="#3d2566" opacity="0.85" transform="rotate(96 39 102)"/><ellipse cx="59" cy="122" rx="2.4" ry="1.8" fill="#3d2566" opacity="0.85" transform="rotate(6 59 122)"/><ellipse cx="101" cy="125" rx="2.4" ry="1.8" fill="#3d2566" opacity="0.85" transform="rotate(31 101 125)"/><ellipse cx="20" cy="126" rx="2.4" ry="1.8" fill="#3d2566" opacity="0.85" transform="rotate(29 20 126)"/><ellipse cx="186" cy="79" rx="2.4" ry="1.8" fill="#3d2566" opacity="0.85" transform="rotate(178 186 79)"/><ellipse cx="86" cy="92" rx="2.4" ry="1.8" fill="#3d2566" opacity="0.85" transform="rotate(76 86 92)"/><ellipse cx="218" cy="29" rx="2.4" ry="1.8" fill="#3d2566" opacity="0.85" transform="rotate(9 218 29)"/><ellipse cx="210" cy="90" rx="2.4" ry="1.8" fill="#3d2566" opacity="0.85" transform="rotate(130 210 90)"/><ellipse cx="149" cy="109" rx="2.4" ry="1.8" fill="#3d2566" opacity="0.85" transform="rotate(61 149 109)"/><ellipse cx="41" cy="88" rx="2.4" ry="1.8" fill="#3d2566" opacity="0.85" transform="rotate(25 41 88)"/><ellipse cx="155" cy="25" rx="2.4" ry="1.8" fill="#3d2566" opacity="0.85" transform="rotate(140 155 25)"/><ellipse cx="97" cy="129" rx="2.4" ry="1.8" fill="#3d2566" opacity="0.85" transform="rotate(144 97 129)"/><ellipse cx="60" cy="123" rx="2.4" ry="1.8" fill="#3d2566" opacity="0.85" transform="rotate(19 60 123)"/><ellipse cx="75" cy="41" rx="2.4" ry="1.8" fill="#3d2566" opacity="0.85" transform="rotate(165 75 41)"/><ellipse cx="77" cy="76" rx="2.4" ry="1.8" fill="#3d2566" opacity="0.85" transform="rotate(157 77 76)"/><ellipse cx="193" cy="114" rx="2.4" ry="1.8" fill="#3d2566" opacity="0.85" transform="rotate(100 193 114)"/><ellipse cx="78" cy="65" rx="2.4" ry="1.8" fill="#3d2566" opacity="0.85" transform="rotate(153 78 65)"/><ellipse cx="115" cy="62" rx="2.4" ry="1.8" fill="#3d2566" opacity="0.85" transform="rotate(142 115 62)"/><ellipse cx="121" cy="28" rx="2.4" ry="1.8" fill="#3d2566" opacity="0.85" transform="rotate(96 121 28)"/><ellipse cx="142" cy="48" rx="2.4" ry="1.8" fill="#3d2566" opacity="0.85" transform="rotate(105 142 48)"/><ellipse cx="205" cy="38" rx="2.4" ry="1.8" fill="#3d2566" opacity="0.85" transform="rotate(106 205 38)"/><ellipse cx="190" cy="90" rx="2.4" ry="1.8" fill="#3d2566" opacity="0.85" transform="rotate(148 190 90)"/><ellipse cx="186" cy="136" rx="2.4" ry="1.8" fill="#3d2566" opacity="0.85" transform="rotate(132 186 136)"/><ellipse cx="189" cy="79" rx="2.4" ry="1.8" fill="#3d2566" opacity="0.85" transform="rotate(39 189 79)"/><ellipse cx="178" cy="69" rx="2.4" ry="1.8" fill="#3d2566" opacity="0.85" transform="rotate(38 178 69)"/><ellipse cx="55" cy="30" rx="2.4" ry="1.8" fill="#3d2566" opacity="0.85" transform="rotate(127 55 30)"/><ellipse cx="205" cy="79" rx="2.4" ry="1.8" fill="#3d2566" opacity="0.85" transform="rotate(178 205 79)"/><ellipse cx="146" cy="74" rx="2.4" ry="1.8" fill="#3d2566" opacity="0.85" transform="rotate(150 146 74)"/><ellipse cx="198" cy="127" rx="2.4" ry="1.8" fill="#3d2566" opacity="0.85" transform="rotate(47 198 127)"/><ellipse cx="48" cy="52" rx="2.4" ry="1.8" fill="#3d2566" opacity="0.85" transform="rotate(50 48 52)"/><ellipse cx="51" cy="92" rx="2.4" ry="1.8" fill="#3d2566" opacity="0.85" transform="rotate(131 51 92)"/><ellipse cx="94" cy="47" rx="2.4" ry="1.8" fill="#3d2566" opacity="0.85" transform="rotate(176 94 47)"/><ellipse cx="151" cy="117" rx="2.4" ry="1.8" fill="#3d2566" opacity="0.85" transform="rotate(75 151 117)"/><ellipse cx="185" cy="108" rx="2.4" ry="1.8" fill="#3d2566" opacity="0.85" transform="rotate(105 185 108)"/><ellipse cx="166" cy="127" rx="2.4" ry="1.8" fill="#3d2566" opacity="0.85" transform="rotate(149 166 127)"/><ellipse cx="163" cy="52" rx="2.4" ry="1.8" fill="#3d2566" opacity="0.85" transform="rotate(55 163 52)"/><ellipse cx="92" cy="20" rx="2.4" ry="1.8" fill="#3d2566" opacity="0.85" transform="rotate(68 92 20)"/><ellipse cx="136" cy="120" rx="2.4" ry="1.8" fill="#3d2566" opacity="0.85" transform="rotate(97 136 120)"/><ellipse cx="65" cy="40" rx="2.4" ry="1.8" fill="#3d2566" opacity="0.85" transform="rotate(145 65 40)"/><ellipse cx="106" cy="48" rx="2.4" ry="1.8" fill="#3d2566" opacity="0.85" transform="rotate(82 106 48)"/><ellipse cx="137" cy="117" rx="2.4" ry="1.8" fill="#3d2566" opacity="0.85" transform="rotate(36 137 117)"/><ellipse cx="121" cy="107" rx="2.4" ry="1.8" fill="#3d2566" opacity="0.85" transform="rotate(122 121 107)"/><ellipse cx="193" cy="94" rx="2.4" ry="1.8" fill="#3d2566" opacity="0.85" transform="rotate(52 193 94)"/><ellipse cx="133" cy="92" rx="2.4" ry="1.8" fill="#3d2566" opacity="0.85" transform="rotate(167 133 92)"/><ellipse cx="156" cy="21" rx="2.4" ry="1.8" fill="#3d2566" opacity="0.85" transform="rotate(123 156 21)"/><ellipse cx="198" cy="27" rx="2.4" ry="1.8" fill="#3d2566" opacity="0.85" transform="rotate(102 198 27)"/><ellipse cx="214" cy="111" rx="2.4" ry="1.8" fill="#3d2566" opacity="0.85" transform="rotate(11 214 111)"/><ellipse cx="133" cy="134" rx="2.4" ry="1.8" fill="#3d2566" opacity="0.85" transform="rotate(58 133 134)"/><ellipse cx="74" cy="100" rx="2.4" ry="1.8" fill="#3d2566" opacity="0.85" transform="rotate(172 74 100)"/><ellipse cx="31" cy="45" rx="2.4" ry="1.8" fill="#3d2566" opacity="0.85" transform="rotate(65 31 45)"/><ellipse cx="75" cy="131" rx="2.4" ry="1.8" fill="#3d2566" opacity="0.85" transform="rotate(48 75 131)"/><ellipse cx="212" cy="51" rx="2.4" ry="1.8" fill="#3d2566" opacity="0.85" transform="rotate(35 212 51)"/><ellipse cx="61" cy="97" rx="2.4" ry="1.8" fill="#3d2566" opacity="0.85" transform="rotate(180 61 97)"/><ellipse cx="186" cy="127" rx="2.4" ry="1.8" fill="#3d2566" opacity="0.85" transform="rotate(9 186 127)"/><ellipse cx="79" cy="39" rx="2.4" ry="1.8" fill="#3d2566" opacity="0.85" transform="rotate(11 79 39)"/><ellipse cx="94" cy="41" rx="2.4" ry="1.8" fill="#3d2566" opacity="0.85" transform="rotate(108 94 41)"/><ellipse cx="37" cy="111" rx="2.4" ry="1.8" fill="#3d2566" opacity="0.85" transform="rotate(21 37 111)"/><ellipse cx="44" cy="29" rx="2.4" ry="1.8" fill="#3d2566" opacity="0.85" transform="rotate(67 44 29)"/><ellipse cx="88" cy="22" rx="2.4" ry="1.8" fill="#3d2566" opacity="0.85" transform="rotate(91 88 22)"/><ellipse cx="129" cy="92" rx="2.4" ry="1.8" fill="#3d2566" opacity="0.85" transform="rotate(172 129 92)"/><ellipse cx="100" cy="18" rx="2.4" ry="1.8" fill="#3d2566" opacity="0.85" transform="rotate(7 100 18)"/><ellipse cx="99" cy="60" rx="2.4" ry="1.8" fill="#3d2566" opacity="0.85" transform="rotate(111 99 60)"/><ellipse cx="111" cy="80" rx="2.4" ry="1.8" fill="#3d2566" opacity="0.85" transform="rotate(19 111 80)"/><ellipse cx="67" cy="100" rx="2.4" ry="1.8" fill="#3d2566" opacity="0.85" transform="rotate(149 67 100)"/><ellipse cx="204" cy="80" rx="2.4" ry="1.8" fill="#3d2566" opacity="0.85" transform="rotate(100 204 80)"/><ellipse cx="46" cy="87" rx="2.4" ry="1.8" fill="#3d2566" opacity="0.85" transform="rotate(81 46 87)"/><ellipse cx="44" cy="131" rx="2.4" ry="1.8" fill="#3d2566" opacity="0.85" transform="rotate(70 44 131)"/><ellipse cx="33" cy="103" rx="2.4" ry="1.8" fill="#3d2566" opacity="0.85" transform="rotate(110 33 103)"/><ellipse cx="42" cy="74" rx="2.4" ry="1.8" fill="#3d2566" opacity="0.85" transform="rotate(135 42 74)"/><ellipse cx="78" cy="30" rx="2.4" ry="1.8" fill="#3d2566" opacity="0.85" transform="rotate(135 78 30)"/><ellipse cx="193" cy="65" rx="2.4" ry="1.8" fill="#3d2566" opacity="0.85" transform="rotate(173 193 65)"/><ellipse cx="211" cy="65" rx="2.4" ry="1.8" fill="#3d2566" opacity="0.85" transform="rotate(115 211 65)"/><ellipse cx="89" cy="102" rx="2.4" ry="1.8" fill="#3d2566" opacity="0.85" transform="rotate(173 89 102)"/><ellipse cx="185" cy="101" rx="2.4" ry="1.8" fill="#3d2566" opacity="0.85" transform="rotate(67 185 101)"/><ellipse cx="41" cy="114" rx="2.4" ry="1.8" fill="#3d2566" opacity="0.85" transform="rotate(86 41 114)"/><ellipse cx="186" cy="90" rx="2.4" ry="1.8" fill="#3d2566" opacity="0.85" transform="rotate(137 186 90)"/><ellipse cx="148" cy="32" rx="2.4" ry="1.8" fill="#3d2566" opacity="0.85" transform="rotate(170 148 32)"/><ellipse cx="140" cy="83" rx="2.4" ry="1.8" fill="#3d2566" opacity="0.85" transform="rotate(90 140 83)"/><ellipse cx="29" cy="109" rx="2.4" ry="1.8" fill="#3d2566" opacity="0.85" transform="rotate(75 29 109)"/><ellipse cx="187" cy="111" rx="2.4" ry="1.8" fill="#3d2566" opacity="0.85" transform="rotate(144 187 111)"/><ellipse cx="204" cy="41" rx="2.4" ry="1.8" fill="#3d2566" opacity="0.85" transform="rotate(165 204 41)"/><ellipse cx="179" cy="111" rx="2.4" ry="1.8" fill="#3d2566" opacity="0.85" transform="rotate(161 179 111)"/><ellipse cx="52" cy="40" rx="2.4" ry="1.8" fill="#3d2566" opacity="0.85" transform="rotate(94 52 40)"/><ellipse cx="181" cy="76" rx="2.4" ry="1.8" fill="#3d2566" opacity="0.85" transform="rotate(31 181 76)"/><ellipse cx="41" cy="89" rx="2.4" ry="1.8" fill="#3d2566" opacity="0.85" transform="rotate(36 41 89)"/><ellipse cx="98" cy="100" rx="2.4" ry="1.8" fill="#3d2566" opacity="0.85" transform="rotate(166 98 100)"/><ellipse cx="166" cy="71" rx="2.4" ry="1.8" fill="#3d2566" opacity="0.85" transform="rotate(142 166 71)"/><ellipse cx="90" cy="100" rx="2.4" ry="1.8" fill="#3d2566" opacity="0.85" transform="rotate(47 90 100)"/><ellipse cx="131" cy="79" rx="2.4" ry="1.8" fill="#3d2566" opacity="0.85" transform="rotate(79 131 79)"/><ellipse cx="214" cy="40" rx="2.4" ry="1.8" fill="#3d2566" opacity="0.85" transform="rotate(180 214 40)"/><ellipse cx="31" cy="31" rx="2.4" ry="1.8" fill="#3d2566" opacity="0.85" transform="rotate(46 31 31)"/><ellipse cx="207" cy="88" rx="2.4" ry="1.8" fill="#3d2566" opacity="0.85" transform="rotate(139 207 88)"/><ellipse cx="161" cy="112" rx="2.4" ry="1.8" fill="#3d2566" opacity="0.85" transform="rotate(100 161 112)"/><ellipse cx="105" cy="30" rx="2.4" ry="1.8" fill="#3d2566" opacity="0.85" transform="rotate(68 105 30)"/>
  <text x="120.0" y="152" font-family="sans-serif" font-size="7.5" fill="#1b2430" text-anchor="middle" opacity="0.55">Medulloblastoma — densely packed small primitive cells</text>
</svg>