<svg xmlns="http://www.w3.org/2000/svg" viewBox="0 0 240 160" width="240" height="160">
  <rect width="240" height="160" fill="#f8f5fc"/>
  <line x1="120" y1="20" x2="120" y2="150" stroke="#7C4DBC" stroke-width="1" stroke-dasharray="3,3" opacity="0.4"/>
  <circle cx="65" cy="85" r="30" fill="#F1ECFA" stroke="#7C4DBC" stroke-width="1.3"/>
  <path d="M50,85 Q65,70 80,85 Q65,100 50,85 Z" fill="#E8DFF7" stroke="#9B7FC4" stroke-width="1"/>
  <circle cx="62.1" cy="86.3" r="1.6" fill="#5B3A8C" opacity="0.7"/><circle cx="69.6" cy="83.6" r="1.6" fill="#5B3A8C" opacity="0.7"/><circle cx="65.8" cy="80.9" r="1.6" fill="#5B3A8C" opacity="0.7"/><circle cx="68.3" cy="83.3" r="1.6" fill="#5B3A8C" opacity="0.7"/><circle cx="53.3" cy="84.6" r="1.6" fill="#5B3A8C" opacity="0.7"/><circle cx="65.9" cy="93.2" r="1.6" fill="#5B3A8C" opacity="0.7"/>
  <text x="65" y="135" font-size="7" fill="#7C4DBC" text-anchor="middle">medullary: amyloid stroma</text>
  <path d="M150,60 L170,75 L165,100 L185,95 L175,120 L195,110" fill="#5B3A8C" opacity="0.5" stroke="#7C4DBC" stroke-width="1"/>
  <ellipse cx="165" cy="80" rx="10" ry="7" fill="#3B2560" opacity="0.6"/>
  <ellipse cx="185" cy="100" rx="9" ry="6" fill="#3B2560" opacity="0.6"/>
  <text x="175" y="135" font-size="7" fill="#7C4DBC" text-anchor="middle">anaplastic: pleomorphic cells</text>
  <text x="120.0" y="152" font-family="sans-serif" font-size="7.5" fill="#1b2430" text-anchor="middle" opacity="0.55">Medullary carcinoma (amyloid stroma) vs. anaplastic carcinoma (pleomorphic giant cells)</text>
</svg>