<svg xmlns="http://www.w3.org/2000/svg" viewBox="0 0 240 160" width="240" height="160">
  <rect width="240" height="160" fill="#f8f5fc"/>
<circle cx="60" cy="55" r="16" fill="none" stroke="#7C4DBC" stroke-width="1.3"/><circle cx="60" cy="55" r="12" fill="none" stroke="#7C4DBC" stroke-width="1.3"/><circle cx="60" cy="55" r="8" fill="none" stroke="#7C4DBC" stroke-width="1.3"/><circle cx="60" cy="55" r="4" fill="none" stroke="#7C4DBC" stroke-width="1.3"/><circle cx="60" cy="55" r="2.2" fill="#fff" stroke="#5b3a99" stroke-width="1.8"/><circle cx="120" cy="50" r="16" fill="none" stroke="#7C4DBC" stroke-width="1.3"/><circle cx="120" cy="50" r="12" fill="none" stroke="#7C4DBC" stroke-width="1.3"/><circle cx="120" cy="50" r="8" fill="none" stroke="#7C4DBC" stroke-width="1.3"/><circle cx="120" cy="50" r="4" fill="none" stroke="#7C4DBC" stroke-width="1.3"/><circle cx="120" cy="50" r="2.2" fill="#fff" stroke="#5b3a99" stroke-width="1.8"/><circle cx="180" cy="60" r="16" fill="none" stroke="#7C4DBC" stroke-width="1.3"/><circle cx="180" cy="60" r="12" fill="none" stroke="#7C4DBC" stroke-width="1.3"/><circle cx="180" cy="60" r="8" fill="none" stroke="#7C4DBC" stroke-width="1.3"/><circle cx="180" cy="60" r="4" fill="none" stroke="#7C4DBC" stroke-width="1.3"/><circle cx="180" cy="60" r="2.2" fill="#fff" stroke="#5b3a99" stroke-width="1.8"/><circle cx="75" cy="115" r="16" fill="none" stroke="#7C4DBC" stroke-width="1.3"/><circle cx="75" cy="115" r="12" fill="none" stroke="#7C4DBC" stroke-width="1.3"/><circle cx="75" cy="115" r="8" fill="none" stroke="#7C4DBC" stroke-width="1.3"/><circle cx="75" cy="115" r="4" fill="none" stroke="#7C4DBC" stroke-width="1.3"/><circle cx="75" cy="115" r="2.2" fill="#fff" stroke="#5b3a99" stroke-width="1.8"/><circle cx="150" cy="120" r="16" fill="none" stroke="#7C4DBC" stroke-width="1.3"/><circle cx="150" cy="120" r="12" fill="none" stroke="#7C4DBC" stroke-width="1.3"/><circle cx="150" cy="120" r="8" fill="none" stroke="#7C4DBC" stroke-width="1.3"/><circle cx="150" cy="120" r="4" fill="none" stroke="#7C4DBC" stroke-width="1.3"/><circle cx="150" cy="120" r="2.2" fill="#fff" stroke="#5b3a99" stroke-width="1.8"/><circle cx="110" cy="90" r="16" fill="none" stroke="#7C4DBC" stroke-width="1.3"/><circle cx="110" cy="90" r="12" fill="none" stroke="#7C4DBC" stroke-width="1.3"/><circle cx="110" cy="90" r="8" fill="none" stroke="#7C4DBC" stroke-width="1.3"/><circle cx="110" cy="90" r="4" fill="none" stroke="#7C4DBC" stroke-width="1.3"/><circle cx="110" cy="90" r="2.2" fill="#fff" stroke="#5b3a99" stroke-width="1.8"/>
  <text x="120.0" y="152" font-family="sans-serif" font-size="7.5" fill="#1b2430" text-anchor="middle" opacity="0.55">Meningioma — whorled cell pattern with psammoma bodies</text>
</svg>