<svg xmlns="http://www.w3.org/2000/svg" viewBox="0 0 240 160" width="240" height="160">
  <rect width="240" height="160" fill="#f8f5fc"/>
<rect x="10" y="15" width="100" height="125" fill="#3d2566" opacity="0.15"/><circle cx="43" cy="65" r="1.5" fill="#3d2566" stroke="none" stroke-width="0"/><circle cx="62" cy="34" r="1.5" fill="#3d2566" stroke="none" stroke-width="0"/><circle cx="38" cy="108" r="1.5" fill="#3d2566" stroke="none" stroke-width="0"/><circle cx="19" cy="28" r="1.5" fill="#3d2566" stroke="none" stroke-width="0"/><circle cx="31" cy="49" r="1.5" fill="#3d2566" stroke="none" stroke-width="0"/><circle cx="78" cy="44" r="1.5" fill="#3d2566" stroke="none" stroke-width="0"/><circle cx="65" cy="100" r="1.5" fill="#3d2566" stroke="none" stroke-width="0"/><circle cx="17" cy="76" r="1.5" fill="#3d2566" stroke="none" stroke-width="0"/><circle cx="76" cy="76" r="1.5" fill="#3d2566" stroke="none" stroke-width="0"/><circle cx="63" cy="81" r="1.5" fill="#3d2566" stroke="none" stroke-width="0"/><circle cx="87" cy="42" r="1.5" fill="#3d2566" stroke="none" stroke-width="0"/><circle cx="65" cy="29" r="1.5" fill="#3d2566" stroke="none" stroke-width="0"/><circle cx="76" cy="47" r="1.5" fill="#3d2566" stroke="none" stroke-width="0"/><circle cx="16" cy="107" r="1.5" fill="#3d2566" stroke="none" stroke-width="0"/><circle cx="48" cy="84" r="1.5" fill="#3d2566" stroke="none" stroke-width="0"/><circle cx="66" cy="78" r="1.5" fill="#3d2566" stroke="none" stroke-width="0"/><circle cx="62" cy="110" r="1.5" fill="#3d2566" stroke="none" stroke-width="0"/><circle cx="28" cy="102" r="1.5" fill="#3d2566" stroke="none" stroke-width="0"/><circle cx="47" cy="30" r="1.5" fill="#3d2566" stroke="none" stroke-width="0"/><circle cx="22" cy="67" r="1.5" fill="#3d2566" stroke="none" stroke-width="0"/><circle cx="93" cy="124" r="1.5" fill="#3d2566" stroke="none" stroke-width="0"/><circle cx="62" cy="31" r="1.5" fill="#3d2566" stroke="none" stroke-width="0"/><circle cx="98" cy="25" r="1.5" fill="#3d2566" stroke="none" stroke-width="0"/><circle cx="57" cy="48" r="1.5" fill="#3d2566" stroke="none" stroke-width="0"/><circle cx="102" cy="29" r="1.5" fill="#3d2566" stroke="none" stroke-width="0"/><circle cx="77" cy="133" r="1.5" fill="#3d2566" stroke="none" stroke-width="0"/><circle cx="97" cy="84" r="1.5" fill="#3d2566" stroke="none" stroke-width="0"/><circle cx="40" cy="92" r="1.5" fill="#3d2566" stroke="none" stroke-width="0"/><circle cx="32" cy="95" r="1.5" fill="#3d2566" stroke="none" stroke-width="0"/><circle cx="22" cy="87" r="1.5" fill="#3d2566" stroke="none" stroke-width="0"/><circle cx="18" cy="80" r="1.5" fill="#3d2566" stroke="none" stroke-width="0"/><circle cx="103" cy="42" r="1.5" fill="#3d2566" stroke="none" stroke-width="0"/><circle cx="32" cy="128" r="1.5" fill="#3d2566" stroke="none" stroke-width="0"/><circle cx="88" cy="76" r="1.5" fill="#3d2566" stroke="none" stroke-width="0"/><circle cx="88" cy="130" r="1.5" fill="#3d2566" stroke="none" stroke-width="0"/><circle cx="70" cy="54" r="1.5" fill="#3d2566" stroke="none" stroke-width="0"/><circle cx="85" cy="63" r="1.5" fill="#3d2566" stroke="none" stroke-width="0"/><circle cx="68" cy="35" r="1.5" fill="#3d2566" stroke="none" stroke-width="0"/><circle cx="34" cy="115" r="1.5" fill="#3d2566" stroke="none" stroke-width="0"/><circle cx="90" cy="30" r="1.5" fill="#3d2566" stroke="none" stroke-width="0"/><circle cx="82" cy="106" r="1.5" fill="#3d2566" stroke="none" stroke-width="0"/><circle cx="54" cy="107" r="1.5" fill="#3d2566" stroke="none" stroke-width="0"/><circle cx="59" cy="100" r="1.5" fill="#3d2566" stroke="none" stroke-width="0"/><circle cx="77" cy="82" r="1.5" fill="#3d2566" stroke="none" stroke-width="0"/><circle cx="93" cy="43" r="1.5" fill="#3d2566" stroke="none" stroke-width="0"/><circle cx="53" cy="37" r="1.5" fill="#3d2566" stroke="none" stroke-width="0"/><circle cx="59" cy="85" r="1.5" fill="#3d2566" stroke="none" stroke-width="0"/><circle cx="50" cy="83" r="1.5" fill="#3d2566" stroke="none" stroke-width="0"/><circle cx="98" cy="27" r="1.5" fill="#3d2566" stroke="none" stroke-width="0"/><circle cx="78" cy="134" r="1.5" fill="#3d2566" stroke="none" stroke-width="0"/><circle cx="103" cy="87" r="1.5" fill="#3d2566" stroke="none" stroke-width="0"/><circle cx="42" cy="62" r="1.5" fill="#3d2566" stroke="none" stroke-width="0"/><circle cx="45" cy="134" r="1.5" fill="#3d2566" stroke="none" stroke-width="0"/><circle cx="15" cy="55" r="1.5" fill="#3d2566" stroke="none" stroke-width="0"/><circle cx="57" cy="46" r="1.5" fill="#3d2566" stroke="none" stroke-width="0"/><circle cx="48" cy="22" r="1.5" fill="#3d2566" stroke="none" stroke-width="0"/><circle cx="68" cy="50" r="1.5" fill="#3d2566" stroke="none" stroke-width="0"/><circle cx="62" cy="56" r="1.5" fill="#3d2566" stroke="none" stroke-width="0"/><circle cx="104" cy="132" r="1.5" fill="#3d2566" stroke="none" stroke-width="0"/><circle cx="67" cy="40" r="1.5" fill="#3d2566" stroke="none" stroke-width="0"/><rect x="110" y="15" width="120" height="125" fill="#fff" stroke="#7C4DBC" stroke-width="1"/><circle cx="110" cy="77" r="16" fill="none" stroke="#b5481f" stroke-width="2.5"/><circle cx="89.6" cy="81.9" r="2.2" fill="#5b3a99"/><circle cx="126.1" cy="96.1" r="2.2" fill="#5b3a99"/><circle cx="132.0" cy="77.9" r="2.2" fill="#5b3a99"/><circle cx="124.9" cy="65.8" r="2.2" fill="#5b3a99"/><circle cx="88.4" cy="69.4" r="2.2" fill="#5b3a99"/><circle cx="130.3" cy="82.3" r="2.2" fill="#5b3a99"/><circle cx="103.7" cy="56.3" r="2.2" fill="#5b3a99"/><circle cx="107.0" cy="58.0" r="2.2" fill="#5b3a99"/><circle cx="111.4" cy="95.8" r="2.2" fill="#5b3a99"/><circle cx="84.6" cy="76.0" r="2.2" fill="#5b3a99"/><circle cx="89.6" cy="64.0" r="2.2" fill="#5b3a99"/><circle cx="92.2" cy="93.0" r="2.2" fill="#5b3a99"/><circle cx="126.3" cy="89.1" r="2.2" fill="#5b3a99"/><circle cx="99.0" cy="55.9" r="2.2" fill="#5b3a99"/><circle cx="93.5" cy="85.9" r="2.2" fill="#5b3a99"/><circle cx="108.0" cy="96.6" r="2.2" fill="#5b3a99"/><circle cx="105.3" cy="101.0" r="2.2" fill="#5b3a99"/><circle cx="117.8" cy="100.8" r="2.2" fill="#5b3a99"/><circle cx="123.4" cy="64.3" r="2.2" fill="#5b3a99"/><circle cx="94.1" cy="92.2" r="2.2" fill="#5b3a99"/>
  <text x="120.0" y="152" font-family="sans-serif" font-size="7.5" fill="#1b2430" text-anchor="middle" opacity="0.55">Demyelinated plaque with perivascular lymphocytic cuffing</text>
</svg>