<svg xmlns="http://www.w3.org/2000/svg" viewBox="0 0 240 160" width="240" height="160">
  <rect width="240" height="160" fill="#f8f5fc"/>
  <rect x="8" y="8" width="224" height="136" rx="12" fill="#F1ECFA" stroke="#7C4DBC" stroke-width="2"/><circle cx="191.4" cy="54.2" r="12.8" fill="#E4D9F5" stroke="#7C4DBC" stroke-width="1.1"/><circle cx="191.4" cy="54.2" r="4.5" fill="#7C4DBC"/><circle cx="64.1" cy="42.9" r="7.9" fill="#E4D9F5" stroke="#7C4DBC" stroke-width="1.1"/><circle cx="64.1" cy="42.9" r="2.8" fill="#7C4DBC"/><circle cx="148.6" cy="97.7" r="11.6" fill="#E4D9F5" stroke="#7C4DBC" stroke-width="1.1"/><circle cx="148.6" cy="97.7" r="4.0" fill="#7C4DBC"/><circle cx="31.0" cy="82.1" r="9.1" fill="#E4D9F5" stroke="#7C4DBC" stroke-width="1.1"/><circle cx="31.0" cy="82.1" r="3.2" fill="#7C4DBC"/><circle cx="87.6" cy="85.2" r="11.3" fill="#E4D9F5" stroke="#7C4DBC" stroke-width="1.1"/><circle cx="87.6" cy="85.2" r="3.9" fill="#7C4DBC"/><circle cx="188.8" cy="76.2" r="9.5" fill="#E4D9F5" stroke="#7C4DBC" stroke-width="1.1"/><circle cx="188.8" cy="76.2" r="3.3" fill="#7C4DBC"/><circle cx="207.8" cy="40.2" r="11.8" fill="#E4D9F5" stroke="#7C4DBC" stroke-width="1.1"/><circle cx="207.8" cy="40.2" r="4.1" fill="#7C4DBC"/><circle cx="195.4" cy="112.2" r="8.0" fill="#E4D9F5" stroke="#7C4DBC" stroke-width="1.1"/><circle cx="195.4" cy="112.2" r="2.8" fill="#7C4DBC"/><circle cx="34.5" cy="69.5" r="7.7" fill="#E4D9F5" stroke="#7C4DBC" stroke-width="1.1"/><circle cx="34.5" cy="69.5" r="2.7" fill="#7C4DBC"/>
  <text x="120.0" y="152" font-family="sans-serif" font-size="8.5" fill="#1b2430" text-anchor="middle" opacity="0.55">Myocardial Infarction (schematic placeholder)</text>
</svg>