<svg xmlns="http://www.w3.org/2000/svg" viewBox="0 0 240 160" width="240" height="160">
  <rect width="240" height="160" fill="#f8f5fc"/>
<rect x="10" y="26" width="220" height="8" rx="3" fill="#E89BAE" opacity="0.5"/><rect x="10" y="46" width="220" height="8" rx="3" fill="#E89BAE" opacity="0.5"/><rect x="10" y="66" width="220" height="8" rx="3" fill="#E89BAE" opacity="0.5"/><rect x="10" y="86" width="220" height="8" rx="3" fill="#E89BAE" opacity="0.5"/><rect x="10" y="106" width="220" height="8" rx="3" fill="#E89BAE" opacity="0.5"/><rect x="10" y="126" width="220" height="8" rx="3" fill="#E89BAE" opacity="0.5"/><circle cx="81" cy="89" r="1.8" fill="#3d2566" opacity="0.8"/><circle cx="190" cy="62" r="1.8" fill="#3d2566" opacity="0.8"/><circle cx="181" cy="74" r="1.8" fill="#3d2566" opacity="0.8"/><circle cx="185" cy="52" r="1.8" fill="#3d2566" opacity="0.8"/><circle cx="72" cy="62" r="1.8" fill="#3d2566" opacity="0.8"/><circle cx="48" cy="33" r="1.8" fill="#3d2566" opacity="0.8"/><circle cx="151" cy="69" r="1.8" fill="#3d2566" opacity="0.8"/><circle cx="205" cy="90" r="1.8" fill="#3d2566" opacity="0.8"/><circle cx="22" cy="125" r="1.8" fill="#3d2566" opacity="0.8"/><circle cx="47" cy="18" r="1.8" fill="#3d2566" opacity="0.8"/><circle cx="85" cy="52" r="1.8" fill="#3d2566" opacity="0.8"/><circle cx="36" cy="82" r="1.8" fill="#3d2566" opacity="0.8"/><circle cx="130" cy="126" r="1.8" fill="#3d2566" opacity="0.8"/><circle cx="50" cy="80" r="1.8" fill="#3d2566" opacity="0.8"/><circle cx="106" cy="74" r="1.8" fill="#3d2566" opacity="0.8"/><circle cx="139" cy="124" r="1.8" fill="#3d2566" opacity="0.8"/><circle cx="186" cy="108" r="1.8" fill="#3d2566" opacity="0.8"/><circle cx="125" cy="95" r="1.8" fill="#3d2566" opacity="0.8"/><circle cx="182" cy="45" r="1.8" fill="#3d2566" opacity="0.8"/><circle cx="103" cy="82" r="1.8" fill="#3d2566" opacity="0.8"/><circle cx="191" cy="129" r="1.8" fill="#3d2566" opacity="0.8"/><circle cx="156" cy="49" r="1.8" fill="#3d2566" opacity="0.8"/><circle cx="127" cy="128" r="1.8" fill="#3d2566" opacity="0.8"/><circle cx="152" cy="60" r="1.8" fill="#3d2566" opacity="0.8"/><circle cx="90" cy="66" r="1.8" fill="#3d2566" opacity="0.8"/><circle cx="60" cy="106" r="1.8" fill="#3d2566" opacity="0.8"/><circle cx="79" cy="110" r="1.8" fill="#3d2566" opacity="0.8"/><circle cx="132" cy="82" r="1.8" fill="#3d2566" opacity="0.8"/><circle cx="170" cy="86" r="1.8" fill="#3d2566" opacity="0.8"/><circle cx="116" cy="48" r="1.8" fill="#3d2566" opacity="0.8"/><circle cx="162" cy="140" r="1.8" fill="#3d2566" opacity="0.8"/><circle cx="155" cy="75" r="1.8" fill="#3d2566" opacity="0.8"/><circle cx="159" cy="75" r="1.8" fill="#3d2566" opacity="0.8"/><circle cx="64" cy="108" r="1.8" fill="#3d2566" opacity="0.8"/><circle cx="48" cy="33" r="1.8" fill="#3d2566" opacity="0.8"/><circle cx="125" cy="133" r="1.8" fill="#3d2566" opacity="0.8"/><circle cx="114" cy="15" r="1.8" fill="#3d2566" opacity="0.8"/><circle cx="199" cy="123" r="1.8" fill="#3d2566" opacity="0.8"/><circle cx="26" cy="72" r="1.8" fill="#3d2566" opacity="0.8"/><circle cx="51" cy="142" r="1.8" fill="#3d2566" opacity="0.8"/><circle cx="221" cy="128" r="1.8" fill="#3d2566" opacity="0.8"/><circle cx="178" cy="79" r="1.8" fill="#3d2566" opacity="0.8"/><circle cx="55" cy="120" r="1.8" fill="#3d2566" opacity="0.8"/><circle cx="203" cy="79" r="1.8" fill="#3d2566" opacity="0.8"/><circle cx="209" cy="104" r="1.8" fill="#3d2566" opacity="0.8"/><circle cx="66" cy="110" r="1.8" fill="#3d2566" opacity="0.8"/><circle cx="148" cy="50" r="1.8" fill="#3d2566" opacity="0.8"/><circle cx="195" cy="75" r="1.8" fill="#3d2566" opacity="0.8"/><circle cx="200" cy="142" r="1.8" fill="#3d2566" opacity="0.8"/><circle cx="69" cy="25" r="1.8" fill="#3d2566" opacity="0.8"/><circle cx="163" cy="24" r="1.8" fill="#3d2566" opacity="0.8"/><circle cx="106" cy="102" r="1.8" fill="#3d2566" opacity="0.8"/><circle cx="61" cy="90" r="1.8" fill="#3d2566" opacity="0.8"/><circle cx="64" cy="57" r="1.8" fill="#3d2566" opacity="0.8"/><circle cx="216" cy="43" r="1.8" fill="#3d2566" opacity="0.8"/><circle cx="72" cy="57" r="1.8" fill="#3d2566" opacity="0.8"/><circle cx="32" cy="124" r="1.8" fill="#3d2566" opacity="0.8"/><circle cx="179" cy="24" r="1.8" fill="#3d2566" opacity="0.8"/><circle cx="127" cy="102" r="1.8" fill="#3d2566" opacity="0.8"/><circle cx="180" cy="38" r="1.8" fill="#3d2566" opacity="0.8"/><circle cx="149" cy="15" r="1.8" fill="#3d2566" opacity="0.8"/><circle cx="47" cy="94" r="1.8" fill="#3d2566" opacity="0.8"/><circle cx="46" cy="119" r="1.8" fill="#3d2566" opacity="0.8"/><circle cx="92" cy="83" r="1.8" fill="#3d2566" opacity="0.8"/><circle cx="159" cy="34" r="1.8" fill="#3d2566" opacity="0.8"/><circle cx="135" cy="108" r="1.8" fill="#3d2566" opacity="0.8"/><circle cx="24" cy="16" r="1.8" fill="#3d2566" opacity="0.8"/><circle cx="96" cy="100" r="1.8" fill="#3d2566" opacity="0.8"/><circle cx="54" cy="142" r="1.8" fill="#3d2566" opacity="0.8"/><circle cx="158" cy="136" r="1.8" fill="#3d2566" opacity="0.8"/><circle cx="72" cy="68" r="1.8" fill="#3d2566" opacity="0.8"/><circle cx="90" cy="23" r="1.8" fill="#3d2566" opacity="0.8"/><circle cx="111" cy="143" r="1.8" fill="#3d2566" opacity="0.8"/><circle cx="197" cy="55" r="1.8" fill="#3d2566" opacity="0.8"/><circle cx="204" cy="52" r="1.8" fill="#3d2566" opacity="0.8"/><circle cx="81" cy="123" r="1.8" fill="#3d2566" opacity="0.8"/><circle cx="190" cy="70" r="1.8" fill="#3d2566" opacity="0.8"/><circle cx="81" cy="123" r="1.8" fill="#3d2566" opacity="0.8"/><circle cx="165" cy="75" r="1.8" fill="#3d2566" opacity="0.8"/><circle cx="106" cy="77" r="1.8" fill="#3d2566" opacity="0.8"/><circle cx="166" cy="88" r="1.8" fill="#3d2566" opacity="0.8"/><circle cx="124" cy="67" r="1.8" fill="#3d2566" opacity="0.8"/><circle cx="179" cy="104" r="1.8" fill="#3d2566" opacity="0.8"/><circle cx="123" cy="24" r="1.8" fill="#3d2566" opacity="0.8"/><circle cx="96" cy="116" r="1.8" fill="#3d2566" opacity="0.8"/><circle cx="132" cy="37" r="1.8" fill="#3d2566" opacity="0.8"/><circle cx="32" cy="26" r="1.8" fill="#3d2566" opacity="0.8"/><circle cx="168" cy="16" r="1.8" fill="#3d2566" opacity="0.8"/><circle cx="182" cy="93" r="1.8" fill="#3d2566" opacity="0.8"/><circle cx="63" cy="130" r="1.8" fill="#3d2566" opacity="0.8"/><circle cx="138" cy="114" r="1.8" fill="#3d2566" opacity="0.8"/><circle cx="100" cy="30" r="1.8" fill="#3d2566" opacity="0.8"/><circle cx="89" cy="126" r="1.8" fill="#3d2566" opacity="0.8"/><circle cx="50" cy="52" r="1.8" fill="#3d2566" opacity="0.8"/><circle cx="28" cy="43" r="1.8" fill="#3d2566" opacity="0.8"/><circle cx="109" cy="55" r="1.8" fill="#3d2566" opacity="0.8"/><circle cx="70" cy="93" r="1.8" fill="#3d2566" opacity="0.8"/><circle cx="92" cy="114" r="1.8" fill="#3d2566" opacity="0.8"/><circle cx="89" cy="23" r="1.8" fill="#3d2566" opacity="0.8"/><circle cx="103" cy="47" r="1.8" fill="#3d2566" opacity="0.8"/><circle cx="40" cy="107" r="1.8" fill="#3d2566" opacity="0.8"/><circle cx="140" cy="128" r="1.8" fill="#3d2566" opacity="0.8"/><circle cx="164" cy="126" r="1.8" fill="#3d2566" opacity="0.8"/><circle cx="26" cy="104" r="1.8" fill="#3d2566" opacity="0.8"/><circle cx="151" cy="90" r="1.8" fill="#3d2566" opacity="0.8"/><circle cx="48" cy="27" r="1.8" fill="#3d2566" opacity="0.8"/><circle cx="97" cy="57" r="1.8" fill="#3d2566" opacity="0.8"/><circle cx="154" cy="47" r="1.8" fill="#3d2566" opacity="0.8"/><circle cx="16" cy="78" r="1.8" fill="#3d2566" opacity="0.8"/><circle cx="189" cy="53" r="1.8" fill="#3d2566" opacity="0.8"/><circle cx="37" cy="137" r="1.8" fill="#3d2566" opacity="0.8"/><circle cx="110" cy="33" r="1.8" fill="#3d2566" opacity="0.8"/><circle cx="103" cy="82" r="1.8" fill="#3d2566" opacity="0.8"/><circle cx="220" cy="69" r="1.8" fill="#3d2566" opacity="0.8"/><circle cx="27" cy="75" r="1.8" fill="#3d2566" opacity="0.8"/><circle cx="185" cy="76" r="1.8" fill="#3d2566" opacity="0.8"/><circle cx="148" cy="127" r="1.8" fill="#3d2566" opacity="0.8"/><circle cx="64" cy="115" r="1.8" fill="#3d2566" opacity="0.8"/><circle cx="173" cy="28" r="1.8" fill="#3d2566" opacity="0.8"/><circle cx="155" cy="28" r="1.8" fill="#3d2566" opacity="0.8"/><circle cx="44" cy="50" r="1.8" fill="#3d2566" opacity="0.8"/><circle cx="151" cy="109" r="1.8" fill="#3d2566" opacity="0.8"/><circle cx="151" cy="116" r="1.8" fill="#3d2566" opacity="0.8"/><circle cx="91" cy="53" r="1.8" fill="#3d2566" opacity="0.8"/><circle cx="154" cy="91" r="1.8" fill="#3d2566" opacity="0.8"/><circle cx="81" cy="37" r="1.8" fill="#3d2566" opacity="0.8"/><circle cx="110" cy="28" r="1.8" fill="#3d2566" opacity="0.8"/><circle cx="22" cy="57" r="1.8" fill="#3d2566" opacity="0.8"/><circle cx="201" cy="18" r="1.8" fill="#3d2566" opacity="0.8"/><circle cx="42" cy="84" r="1.8" fill="#3d2566" opacity="0.8"/><circle cx="38" cy="100" r="1.8" fill="#3d2566" opacity="0.8"/><circle cx="222" cy="123" r="1.8" fill="#3d2566" opacity="0.8"/><circle cx="56" cy="89" r="1.8" fill="#3d2566" opacity="0.8"/><circle cx="210" cy="25" r="1.8" fill="#3d2566" opacity="0.8"/><circle cx="43" cy="39" r="1.8" fill="#3d2566" opacity="0.8"/><circle cx="93" cy="118" r="1.8" fill="#3d2566" opacity="0.8"/><circle cx="114" cy="135" r="1.8" fill="#3d2566" opacity="0.8"/><circle cx="114" cy="83" r="1.8" fill="#3d2566" opacity="0.8"/><circle cx="53" cy="53" r="1.8" fill="#3d2566" opacity="0.8"/><circle cx="130" cy="92" r="1.8" fill="#3d2566" opacity="0.8"/><path d="M15 12 Q24 4 33 12" stroke="#cbb98a" stroke-width="2" fill="none"/><path d="M33 12 Q42 4 51 12" stroke="#cbb98a" stroke-width="2" fill="none"/><path d="M51 12 Q60 4 69 12" stroke="#cbb98a" stroke-width="2" fill="none"/><path d="M69 12 Q78 4 87 12" stroke="#cbb98a" stroke-width="2" fill="none"/><path d="M87 12 Q96 4 105 12" stroke="#cbb98a" stroke-width="2" fill="none"/><path d="M105 12 Q114 4 123 12" stroke="#cbb98a" stroke-width="2" fill="none"/><path d="M123 12 Q132 4 141 12" stroke="#cbb98a" stroke-width="2" fill="none"/><path d="M141 12 Q150 4 159 12" stroke="#cbb98a" stroke-width="2" fill="none"/><path d="M159 12 Q168 4 177 12" stroke="#cbb98a" stroke-width="2" fill="none"/><path d="M177 12 Q186 4 195 12" stroke="#cbb98a" stroke-width="2" fill="none"/><path d="M195 12 Q204 4 213 12" stroke="#cbb98a" stroke-width="2" fill="none"/><path d="M213 12 Q222 4 231 12" stroke="#cbb98a" stroke-width="2" fill="none"/>
  <text x="120.0" y="152" font-family="sans-serif" font-size="7.5" fill="#1b2430" text-anchor="middle" opacity="0.55">Myocarditis — lymphocytic infiltrate with myocyte injury</text>
</svg>