<svg xmlns="http://www.w3.org/2000/svg" viewBox="0 0 240 160" width="240" height="160">
  <rect width="240" height="160" fill="#f8f5fc"/>
  <rect x="10" y="30" width="100" height="14" rx="6" fill="#F1ECFA" stroke="#7C4DBC" stroke-width="1.2"/><line x1="16" y1="32" x2="16" y2="42" stroke="#7C4DBC" stroke-width="0.8" opacity="0.6"/><line x1="28" y1="32" x2="28" y2="42" stroke="#7C4DBC" stroke-width="0.8" opacity="0.6"/><line x1="40" y1="32" x2="40" y2="42" stroke="#7C4DBC" stroke-width="0.8" opacity="0.6"/><line x1="52" y1="32" x2="52" y2="42" stroke="#7C4DBC" stroke-width="0.8" opacity="0.6"/><line x1="64" y1="32" x2="64" y2="42" stroke="#7C4DBC" stroke-width="0.8" opacity="0.6"/><line x1="76" y1="32" x2="76" y2="42" stroke="#7C4DBC" stroke-width="0.8" opacity="0.6"/><line x1="88" y1="32" x2="88" y2="42" stroke="#7C4DBC" stroke-width="0.8" opacity="0.6"/><line x1="100" y1="32" x2="100" y2="42" stroke="#7C4DBC" stroke-width="0.8" opacity="0.6"/><rect x="10" y="52" width="100" height="14" rx="6" fill="#F1ECFA" stroke="#7C4DBC" stroke-width="1.2"/><line x1="16" y1="54" x2="16" y2="64" stroke="#7C4DBC" stroke-width="0.8" opacity="0.6"/><line x1="28" y1="54" x2="28" y2="64" stroke="#7C4DBC" stroke-width="0.8" opacity="0.6"/><line x1="40" y1="54" x2="40" y2="64" stroke="#7C4DBC" stroke-width="0.8" opacity="0.6"/><line x1="52" y1="54" x2="52" y2="64" stroke="#7C4DBC" stroke-width="0.8" opacity="0.6"/><line x1="64" y1="54" x2="64" y2="64" stroke="#7C4DBC" stroke-width="0.8" opacity="0.6"/><line x1="76" y1="54" x2="76" y2="64" stroke="#7C4DBC" stroke-width="0.8" opacity="0.6"/><line x1="88" y1="54" x2="88" y2="64" stroke="#7C4DBC" stroke-width="0.8" opacity="0.6"/><line x1="100" y1="54" x2="100" y2="64" stroke="#7C4DBC" stroke-width="0.8" opacity="0.6"/><rect x="10" y="74" width="100" height="14" rx="6" fill="#F1ECFA" stroke="#7C4DBC" stroke-width="1.2"/><line x1="16" y1="76" x2="16" y2="86" stroke="#7C4DBC" stroke-width="0.8" opacity="0.6"/><line x1="28" y1="76" x2="28" y2="86" stroke="#7C4DBC" stroke-width="0.8" opacity="0.6"/><line x1="40" y1="76" x2="40" y2="86" stroke="#7C4DBC" stroke-width="0.8" opacity="0.6"/><line x1="52" y1="76" x2="52" y2="86" stroke="#7C4DBC" stroke-width="0.8" opacity="0.6"/><line x1="64" y1="76" x2="64" y2="86" stroke="#7C4DBC" stroke-width="0.8" opacity="0.6"/><line x1="76" y1="76" x2="76" y2="86" stroke="#7C4DBC" stroke-width="0.8" opacity="0.6"/><line x1="88" y1="76" x2="88" y2="86" stroke="#7C4DBC" stroke-width="0.8" opacity="0.6"/><line x1="100" y1="76" x2="100" y2="86" stroke="#7C4DBC" stroke-width="0.8" opacity="0.6"/><rect x="120" y="30" width="110" height="14" rx="6" fill="#e8d9d9" stroke="#c0392b" stroke-width="1.2" opacity="0.85"/><rect x="120" y="52" width="110" height="14" rx="6" fill="#e8d9d9" stroke="#c0392b" stroke-width="1.2" opacity="0.85"/><rect x="120" y="74" width="110" height="14" rx="6" fill="#e8d9d9" stroke="#c0392b" stroke-width="1.2" opacity="0.85"/><circle cx="187" cy="81" r="2.6" fill="#1b2430"/><circle cx="205" cy="96" r="2.6" fill="#1b2430"/><circle cx="199" cy="94" r="2.6" fill="#1b2430"/><circle cx="128" cy="62" r="2.6" fill="#1b2430"/><circle cx="219" cy="75" r="2.6" fill="#1b2430"/><circle cx="215" cy="36" r="2.6" fill="#1b2430"/><circle cx="172" cy="46" r="2.6" fill="#1b2430"/><circle cx="179" cy="69" r="2.6" fill="#1b2430"/><circle cx="126" cy="44" r="2.6" fill="#1b2430"/><circle cx="153" cy="94" r="2.6" fill="#1b2430"/>
  <text x="120.0" y="152" font-family="sans-serif" font-size="7.5" fill="#1b2430" text-anchor="middle" opacity="0.55">MI — necrotic vs viable myocardium</text>
</svg>