<svg xmlns="http://www.w3.org/2000/svg" viewBox="0 0 240 160" width="240" height="160">
  <rect width="240" height="160" fill="#f8f5fc"/>
  <rect x="30" y="40" width="80" height="80" fill="#F1ECFA" stroke="#7C4DBC" stroke-width="1"/>
  <circle cx="66.6" cy="84.3" r="1.6" fill="#5B3A8C" opacity="0.7"/><circle cx="100.5" cy="77.5" r="1.6" fill="#5B3A8C" opacity="0.7"/><circle cx="70.6" cy="86.3" r="1.6" fill="#5B3A8C" opacity="0.7"/><circle cx="47.3" cy="80.9" r="1.6" fill="#5B3A8C" opacity="0.7"/><circle cx="79.4" cy="101.1" r="1.6" fill="#5B3A8C" opacity="0.7"/><circle cx="40.8" cy="65.8" r="1.6" fill="#5B3A8C" opacity="0.7"/><circle cx="40.5" cy="102.3" r="1.6" fill="#5B3A8C" opacity="0.7"/><circle cx="83.9" cy="47.0" r="1.6" fill="#5B3A8C" opacity="0.7"/><circle cx="104.7" cy="113.5" r="1.6" fill="#5B3A8C" opacity="0.7"/><circle cx="81.1" cy="88.3" r="1.6" fill="#5B3A8C" opacity="0.7"/><circle cx="45.3" cy="45.1" r="1.6" fill="#5B3A8C" opacity="0.7"/><circle cx="72.0" cy="48.3" r="1.6" fill="#5B3A8C" opacity="0.7"/><circle cx="47.7" cy="61.4" r="1.6" fill="#5B3A8C" opacity="0.7"/><circle cx="36.2" cy="77.4" r="1.6" fill="#5B3A8C" opacity="0.7"/><circle cx="65.7" cy="104.7" r="1.6" fill="#5B3A8C" opacity="0.7"/><circle cx="71.4" cy="90.1" r="1.6" fill="#5B3A8C" opacity="0.7"/><circle cx="70.0" cy="91.7" r="1.6" fill="#5B3A8C" opacity="0.7"/><circle cx="66.9" cy="64.0" r="1.6" fill="#5B3A8C" opacity="0.7"/><circle cx="105.8" cy="115.7" r="1.6" fill="#5B3A8C" opacity="0.7"/><circle cx="94.5" cy="95.0" r="1.6" fill="#5B3A8C" opacity="0.7"/><circle cx="56.7" cy="60.5" r="1.6" fill="#5B3A8C" opacity="0.7"/><circle cx="54.8" cy="49.1" r="1.6" fill="#5B3A8C" opacity="0.7"/><circle cx="89.2" cy="72.8" r="1.6" fill="#5B3A8C" opacity="0.7"/><circle cx="95.0" cy="71.8" r="1.6" fill="#5B3A8C" opacity="0.7"/><circle cx="103.0" cy="105.0" r="1.6" fill="#5B3A8C" opacity="0.7"/><circle cx="34.0" cy="59.1" r="1.6" fill="#5B3A8C" opacity="0.7"/><circle cx="99.5" cy="77.8" r="1.6" fill="#5B3A8C" opacity="0.7"/><circle cx="104.6" cy="72.6" r="1.6" fill="#5B3A8C" opacity="0.7"/><circle cx="39.3" cy="89.3" r="1.6" fill="#5B3A8C" opacity="0.7"/><circle cx="90.1" cy="63.4" r="1.6" fill="#5B3A8C" opacity="0.7"/><circle cx="40.3" cy="67.9" r="1.6" fill="#5B3A8C" opacity="0.7"/><circle cx="103.4" cy="98.6" r="1.6" fill="#5B3A8C" opacity="0.7"/><circle cx="42.5" cy="61.7" r="1.6" fill="#5B3A8C" opacity="0.7"/><circle cx="41.3" cy="48.3" r="1.6" fill="#5B3A8C" opacity="0.7"/><circle cx="91.4" cy="56.8" r="1.6" fill="#5B3A8C" opacity="0.7"/><circle cx="74.3" cy="76.2" r="1.6" fill="#5B3A8C" opacity="0.7"/><circle cx="47.7" cy="96.7" r="1.6" fill="#5B3A8C" opacity="0.7"/><circle cx="43.4" cy="90.3" r="1.6" fill="#5B3A8C" opacity="0.7"/><circle cx="42.4" cy="74.3" r="1.6" fill="#5B3A8C" opacity="0.7"/><circle cx="49.3" cy="63.4" r="1.6" fill="#5B3A8C" opacity="0.7"/><circle cx="103.9" cy="101.8" r="1.6" fill="#5B3A8C" opacity="0.7"/><circle cx="55.9" cy="107.7" r="1.6" fill="#5B3A8C" opacity="0.7"/><circle cx="49.2" cy="72.4" r="1.6" fill="#5B3A8C" opacity="0.7"/><circle cx="95.5" cy="90.2" r="1.6" fill="#5B3A8C" opacity="0.7"/><circle cx="41.2" cy="115.2" r="1.6" fill="#5B3A8C" opacity="0.7"/><circle cx="49.4" cy="62.6" r="1.6" fill="#5B3A8C" opacity="0.7"/><circle cx="89.6" cy="67.7" r="1.6" fill="#5B3A8C" opacity="0.7"/><circle cx="55.3" cy="49.3" r="1.6" fill="#5B3A8C" opacity="0.7"/><circle cx="40.5" cy="86.0" r="1.6" fill="#5B3A8C" opacity="0.7"/><circle cx="51.5" cy="87.3" r="1.6" fill="#5B3A8C" opacity="0.7"/>
  <text x="70" y="130" font-size="6.5" fill="#7C4DBC" text-anchor="middle">DLBCL (diffuse)</text>
  <rect x="135" y="40" width="80" height="80" fill="#F1ECFA" stroke="#7C4DBC" stroke-width="1"/>
  <circle cx="160" cy="65" r="14" fill="none" stroke="#7C4DBC" stroke-width="1.3"/>
  <circle cx="195" cy="70" r="12" fill="none" stroke="#7C4DBC" stroke-width="1.3"/>
  <circle cx="170" cy="105" r="13" fill="none" stroke="#7C4DBC" stroke-width="1.3"/>
  <text x="175" y="130" font-size="6.5" fill="#7C4DBC" text-anchor="middle">Follicular (nodular)</text>
  <text x="120.0" y="152" font-family="sans-serif" font-size="7.5" fill="#1b2430" text-anchor="middle" opacity="0.55">Non-Hodgkin lymphoma — diffuse (DLBCL) vs. nodular (follicular) growth patterns</text>
</svg>