<svg xmlns="http://www.w3.org/2000/svg" viewBox="0 0 240 160" width="240" height="160">
  <rect width="240" height="160" fill="#f8f5fc"/>
<rect x="10" y="20" width="220" height="18" fill="#fdf6e3" stroke="#7C4DBC" stroke-width="1.2"/><ellipse cx="17.0" cy="42" rx="3.0" ry="3.6" fill="#9b7cc9" opacity="0.85"/><ellipse cx="32.5" cy="42" rx="3.0" ry="3.6" fill="#9b7cc9" opacity="0.85"/><ellipse cx="46.0" cy="42" rx="3.0" ry="3.6" fill="#9b7cc9" opacity="0.85"/><ellipse cx="60.5" cy="42" rx="3.0" ry="3.6" fill="#9b7cc9" opacity="0.85"/><ellipse cx="76.0" cy="42" rx="3.0" ry="3.6" fill="#9b7cc9" opacity="0.85"/><ellipse cx="90.5" cy="42" rx="3.0" ry="3.6" fill="#9b7cc9" opacity="0.85"/><ellipse cx="102.0" cy="42" rx="3.0" ry="3.6" fill="#9b7cc9" opacity="0.85"/><ellipse cx="116.5" cy="42" rx="3.0" ry="3.6" fill="#9b7cc9" opacity="0.85"/><ellipse cx="134.0" cy="42" rx="3.0" ry="3.6" fill="#9b7cc9" opacity="0.85"/><ellipse cx="147.5" cy="42" rx="3.0" ry="3.6" fill="#9b7cc9" opacity="0.85"/><ellipse cx="163.0" cy="42" rx="3.0" ry="3.6" fill="#9b7cc9" opacity="0.85"/><ellipse cx="174.5" cy="42" rx="3.0" ry="3.6" fill="#9b7cc9" opacity="0.85"/><ellipse cx="188.0" cy="42" rx="3.0" ry="3.6" fill="#9b7cc9" opacity="0.85"/><ellipse cx="205.5" cy="42" rx="3.0" ry="3.6" fill="#9b7cc9" opacity="0.85"/><ellipse cx="219.0" cy="42" rx="3.0" ry="3.6" fill="#9b7cc9" opacity="0.85"/><ellipse cx="15.0" cy="56" rx="3.3" ry="4.0" fill="#9b7cc9" opacity="0.85"/><ellipse cx="28.5" cy="56" rx="3.3" ry="4.0" fill="#9b7cc9" opacity="0.85"/><ellipse cx="47.0" cy="56" rx="3.3" ry="4.0" fill="#9b7cc9" opacity="0.85"/><ellipse cx="57.5" cy="56" rx="3.3" ry="4.0" fill="#9b7cc9" opacity="0.85"/><ellipse cx="76.0" cy="56" rx="3.3" ry="4.0" fill="#9b7cc9" opacity="0.85"/><ellipse cx="89.5" cy="56" rx="3.3" ry="4.0" fill="#9b7cc9" opacity="0.85"/><ellipse cx="104.0" cy="56" rx="3.3" ry="4.0" fill="#9b7cc9" opacity="0.85"/><ellipse cx="119.5" cy="56" rx="3.3" ry="4.0" fill="#9b7cc9" opacity="0.85"/><ellipse cx="131.0" cy="56" rx="3.3" ry="4.0" fill="#9b7cc9" opacity="0.85"/><ellipse cx="148.5" cy="56" rx="3.3" ry="4.0" fill="#9b7cc9" opacity="0.85"/><ellipse cx="159.0" cy="56" rx="3.3" ry="4.0" fill="#9b7cc9" opacity="0.85"/><ellipse cx="177.5" cy="56" rx="3.3" ry="4.0" fill="#9b7cc9" opacity="0.85"/><ellipse cx="188.0" cy="56" rx="3.3" ry="4.0" fill="#9b7cc9" opacity="0.85"/><ellipse cx="202.5" cy="56" rx="3.3" ry="4.0" fill="#9b7cc9" opacity="0.85"/><ellipse cx="217.0" cy="56" rx="3.3" ry="4.0" fill="#9b7cc9" opacity="0.85"/><ellipse cx="15.0" cy="70" rx="3.7" ry="4.4" fill="#9b7cc9" opacity="0.85"/><ellipse cx="29.5" cy="70" rx="3.7" ry="4.4" fill="#9b7cc9" opacity="0.85"/><ellipse cx="47.0" cy="70" rx="3.7" ry="4.4" fill="#9b7cc9" opacity="0.85"/><ellipse cx="57.5" cy="70" rx="3.7" ry="4.4" fill="#9b7cc9" opacity="0.85"/><ellipse cx="75.0" cy="70" rx="3.7" ry="4.4" fill="#9b7cc9" opacity="0.85"/><ellipse cx="88.5" cy="70" rx="3.7" ry="4.4" fill="#9b7cc9" opacity="0.85"/><ellipse cx="104.0" cy="70" rx="3.7" ry="4.4" fill="#9b7cc9" opacity="0.85"/><ellipse cx="119.5" cy="70" rx="3.7" ry="4.4" fill="#9b7cc9" opacity="0.85"/><ellipse cx="131.0" cy="70" rx="3.7" ry="4.4" fill="#9b7cc9" opacity="0.85"/><ellipse cx="148.5" cy="70" rx="3.7" ry="4.4" fill="#9b7cc9" opacity="0.85"/><ellipse cx="160.0" cy="70" rx="3.7" ry="4.4" fill="#9b7cc9" opacity="0.85"/><ellipse cx="175.5" cy="70" rx="3.7" ry="4.4" fill="#9b7cc9" opacity="0.85"/><ellipse cx="191.0" cy="70" rx="3.7" ry="4.4" fill="#9b7cc9" opacity="0.85"/><ellipse cx="202.5" cy="70" rx="3.7" ry="4.4" fill="#9b7cc9" opacity="0.85"/><ellipse cx="217.0" cy="70" rx="3.7" ry="4.4" fill="#9b7cc9" opacity="0.85"/><ellipse cx="17.0" cy="84" rx="4.0" ry="4.8" fill="#9b7cc9" opacity="0.85"/><ellipse cx="30.5" cy="84" rx="4.0" ry="4.8" fill="#9b7cc9" opacity="0.85"/><ellipse cx="46.0" cy="84" rx="4.0" ry="4.8" fill="#9b7cc9" opacity="0.85"/><ellipse cx="61.5" cy="84" rx="4.0" ry="4.8" fill="#9b7cc9" opacity="0.85"/><ellipse cx="72.0" cy="84" rx="4.0" ry="4.8" fill="#9b7cc9" opacity="0.85"/><ellipse cx="88.5" cy="84" rx="4.0" ry="4.8" fill="#9b7cc9" opacity="0.85"/><ellipse cx="103.0" cy="84" rx="4.0" ry="4.8" fill="#9b7cc9" opacity="0.85"/><ellipse cx="116.5" cy="84" rx="4.0" ry="4.8" fill="#9b7cc9" opacity="0.85"/><ellipse cx="134.0" cy="84" rx="4.0" ry="4.8" fill="#9b7cc9" opacity="0.85"/><ellipse cx="146.5" cy="84" rx="4.0" ry="4.8" fill="#9b7cc9" opacity="0.85"/><ellipse cx="159.0" cy="84" rx="4.0" ry="4.8" fill="#9b7cc9" opacity="0.85"/><ellipse cx="173.5" cy="84" rx="4.0" ry="4.8" fill="#9b7cc9" opacity="0.85"/><ellipse cx="192.0" cy="84" rx="4.0" ry="4.8" fill="#9b7cc9" opacity="0.85"/><ellipse cx="202.5" cy="84" rx="4.0" ry="4.8" fill="#9b7cc9" opacity="0.85"/><ellipse cx="220.0" cy="84" rx="4.0" ry="4.8" fill="#9b7cc9" opacity="0.85"/><ellipse cx="14.0" cy="98" rx="4.3" ry="5.2" fill="#5b3a99" opacity="0.85"/><ellipse cx="30.5" cy="98" rx="4.3" ry="5.2" fill="#5b3a99" opacity="0.85"/><ellipse cx="46.0" cy="98" rx="4.3" ry="5.2" fill="#5b3a99" opacity="0.85"/><ellipse cx="57.5" cy="98" rx="4.3" ry="5.2" fill="#5b3a99" opacity="0.85"/><ellipse cx="72.0" cy="98" rx="4.3" ry="5.2" fill="#5b3a99" opacity="0.85"/><ellipse cx="86.5" cy="98" rx="4.3" ry="5.2" fill="#5b3a99" opacity="0.85"/><ellipse cx="102.0" cy="98" rx="4.3" ry="5.2" fill="#5b3a99" opacity="0.85"/><ellipse cx="116.5" cy="98" rx="4.3" ry="5.2" fill="#5b3a99" opacity="0.85"/><ellipse cx="130.0" cy="98" rx="4.3" ry="5.2" fill="#5b3a99" opacity="0.85"/><ellipse cx="147.5" cy="98" rx="4.3" ry="5.2" fill="#5b3a99" opacity="0.85"/><ellipse cx="162.0" cy="98" rx="4.3" ry="5.2" fill="#5b3a99" opacity="0.85"/><ellipse cx="176.5" cy="98" rx="4.3" ry="5.2" fill="#5b3a99" opacity="0.85"/><ellipse cx="191.0" cy="98" rx="4.3" ry="5.2" fill="#5b3a99" opacity="0.85"/><ellipse cx="202.5" cy="98" rx="4.3" ry="5.2" fill="#5b3a99" opacity="0.85"/><ellipse cx="221.0" cy="98" rx="4.3" ry="5.2" fill="#5b3a99" opacity="0.85"/><ellipse cx="15.0" cy="112" rx="4.7" ry="5.6" fill="#5b3a99" opacity="0.85"/><ellipse cx="30.5" cy="112" rx="4.7" ry="5.6" fill="#5b3a99" opacity="0.85"/><ellipse cx="45.0" cy="112" rx="4.7" ry="5.6" fill="#5b3a99" opacity="0.85"/><ellipse cx="57.5" cy="112" rx="4.7" ry="5.6" fill="#5b3a99" opacity="0.85"/><ellipse cx="74.0" cy="112" rx="4.7" ry="5.6" fill="#5b3a99" opacity="0.85"/><ellipse cx="88.5" cy="112" rx="4.7" ry="5.6" fill="#5b3a99" opacity="0.85"/><ellipse cx="101.0" cy="112" rx="4.7" ry="5.6" fill="#5b3a99" opacity="0.85"/><ellipse cx="118.5" cy="112" rx="4.7" ry="5.6" fill="#5b3a99" opacity="0.85"/><ellipse cx="130.0" cy="112" rx="4.7" ry="5.6" fill="#5b3a99" opacity="0.85"/><ellipse cx="145.5" cy="112" rx="4.7" ry="5.6" fill="#5b3a99" opacity="0.85"/><ellipse cx="160.0" cy="112" rx="4.7" ry="5.6" fill="#5b3a99" opacity="0.85"/><ellipse cx="173.5" cy="112" rx="4.7" ry="5.6" fill="#5b3a99" opacity="0.85"/><ellipse cx="188.0" cy="112" rx="4.7" ry="5.6" fill="#5b3a99" opacity="0.85"/><ellipse cx="202.5" cy="112" rx="4.7" ry="5.6" fill="#5b3a99" opacity="0.85"/><ellipse cx="220.0" cy="112" rx="4.7" ry="5.6" fill="#5b3a99" opacity="0.85"/><ellipse cx="17.0" cy="126" rx="5.0" ry="6.0" fill="#5b3a99" opacity="0.85"/><ellipse cx="29.5" cy="126" rx="5.0" ry="6.0" fill="#5b3a99" opacity="0.85"/><ellipse cx="47.0" cy="126" rx="5.0" ry="6.0" fill="#5b3a99" opacity="0.85"/><ellipse cx="58.5" cy="126" rx="5.0" ry="6.0" fill="#5b3a99" opacity="0.85"/><ellipse cx="75.0" cy="126" rx="5.0" ry="6.0" fill="#5b3a99" opacity="0.85"/><ellipse cx="90.5" cy="126" rx="5.0" ry="6.0" fill="#5b3a99" opacity="0.85"/><ellipse cx="102.0" cy="126" rx="5.0" ry="6.0" fill="#5b3a99" opacity="0.85"/><ellipse cx="116.5" cy="126" rx="5.0" ry="6.0" fill="#5b3a99" opacity="0.85"/><ellipse cx="133.0" cy="126" rx="5.0" ry="6.0" fill="#5b3a99" opacity="0.85"/><ellipse cx="147.5" cy="126" rx="5.0" ry="6.0" fill="#5b3a99" opacity="0.85"/><ellipse cx="159.0" cy="126" rx="5.0" ry="6.0" fill="#5b3a99" opacity="0.85"/><ellipse cx="176.5" cy="126" rx="5.0" ry="6.0" fill="#5b3a99" opacity="0.85"/><ellipse cx="191.0" cy="126" rx="5.0" ry="6.0" fill="#5b3a99" opacity="0.85"/><ellipse cx="203.5" cy="126" rx="5.0" ry="6.0" fill="#5b3a99" opacity="0.85"/><ellipse cx="217.0" cy="126" rx="5.0" ry="6.0" fill="#5b3a99" opacity="0.85"/>
  <text x="120.0" y="152" font-family="sans-serif" font-size="7.5" fill="#1b2430" text-anchor="middle" opacity="0.55">Leukoplakia - hyperkeratosis with progressive epithelial dysplasia</text>
</svg>