<svg xmlns="http://www.w3.org/2000/svg" viewBox="0 0 240 160" width="240" height="160">
  <rect width="240" height="160" fill="#f8f5fc"/>
  <rect x="8" y="8" width="224" height="136" rx="12" fill="#F1ECFA" stroke="#7C4DBC" stroke-width="2"/><circle cx="28.6" cy="64.4" r="11.5" fill="#E4D9F5" stroke="#7C4DBC" stroke-width="1.1"/><circle cx="28.6" cy="64.4" r="4.0" fill="#7C4DBC"/><circle cx="54.5" cy="70.7" r="11.8" fill="#E4D9F5" stroke="#7C4DBC" stroke-width="1.1"/><circle cx="54.5" cy="70.7" r="4.1" fill="#7C4DBC"/><circle cx="120.5" cy="71.7" r="7.8" fill="#E4D9F5" stroke="#7C4DBC" stroke-width="1.1"/><circle cx="120.5" cy="71.7" r="2.7" fill="#7C4DBC"/><circle cx="147.7" cy="94.7" r="12.1" fill="#E4D9F5" stroke="#7C4DBC" stroke-width="1.1"/><circle cx="147.7" cy="94.7" r="4.2" fill="#7C4DBC"/><circle cx="138.5" cy="101.9" r="9.4" fill="#E4D9F5" stroke="#7C4DBC" stroke-width="1.1"/><circle cx="138.5" cy="101.9" r="3.3" fill="#7C4DBC"/><circle cx="65.8" cy="42.2" r="9.6" fill="#E4D9F5" stroke="#7C4DBC" stroke-width="1.1"/><circle cx="65.8" cy="42.2" r="3.3" fill="#7C4DBC"/><circle cx="134.7" cy="72.8" r="12.4" fill="#E4D9F5" stroke="#7C4DBC" stroke-width="1.1"/><circle cx="134.7" cy="72.8" r="4.3" fill="#7C4DBC"/><circle cx="43.8" cy="111.3" r="7.0" fill="#E4D9F5" stroke="#7C4DBC" stroke-width="1.1"/><circle cx="43.8" cy="111.3" r="2.5" fill="#7C4DBC"/><circle cx="44.4" cy="87.9" r="10.6" fill="#E4D9F5" stroke="#7C4DBC" stroke-width="1.1"/><circle cx="44.4" cy="87.9" r="3.7" fill="#7C4DBC"/>
  <text x="120.0" y="152" font-family="sans-serif" font-size="8.5" fill="#1b2430" text-anchor="middle" opacity="0.55">Osteosarcoma (schematic placeholder)</text>
</svg>