<svg xmlns="http://www.w3.org/2000/svg" viewBox="0 0 240 160" width="240" height="160">
  <rect width="240" height="160" fill="#f8f5fc"/>
  <rect x="35" y="35" width="18" height="14" fill="none" stroke="#7C4DBC" stroke-width="1" transform="rotate(73 35 35)" opacity="0.7"/>
  <rect x="34" y="52" width="18" height="14" fill="none" stroke="#7C4DBC" stroke-width="1" transform="rotate(62 34 52)" opacity="0.7"/>
  <rect x="35" y="70" width="18" height="14" fill="none" stroke="#7C4DBC" stroke-width="1" transform="rotate(36 35 70)" opacity="0.7"/>
  <rect x="34" y="86" width="18" height="14" fill="none" stroke="#7C4DBC" stroke-width="1" transform="rotate(57 34 86)" opacity="0.7"/>
  <rect x="38" y="109" width="18" height="14" fill="none" stroke="#7C4DBC" stroke-width="1" transform="rotate(57 38 109)" opacity="0.7"/>
  <rect x="57" y="34" width="18" height="14" fill="none" stroke="#7C4DBC" stroke-width="1" transform="rotate(13 57 34)" opacity="0.7"/>
  <rect x="60" y="51" width="18" height="14" fill="none" stroke="#7C4DBC" stroke-width="1" transform="rotate(26 60 51)" opacity="0.7"/>
  <rect x="62" y="70" width="18" height="14" fill="none" stroke="#7C4DBC" stroke-width="1" transform="rotate(88 62 70)" opacity="0.7"/>
  <rect x="59" y="91" width="18" height="14" fill="none" stroke="#7C4DBC" stroke-width="1" transform="rotate(57 59 91)" opacity="0.7"/>
  <rect x="55" y="109" width="18" height="14" fill="none" stroke="#7C4DBC" stroke-width="1" transform="rotate(23 55 109)" opacity="0.7"/>
  <rect x="80" y="32" width="18" height="14" fill="none" stroke="#7C4DBC" stroke-width="1" transform="rotate(5 80 32)" opacity="0.7"/>
  <rect x="80" y="49" width="18" height="14" fill="none" stroke="#7C4DBC" stroke-width="1" transform="rotate(35 80 49)" opacity="0.7"/>
  <rect x="84" y="75" width="18" height="14" fill="none" stroke="#7C4DBC" stroke-width="1" transform="rotate(38 84 75)" opacity="0.7"/>
  <rect x="78" y="88" width="18" height="14" fill="none" stroke="#7C4DBC" stroke-width="1" transform="rotate(6 78 88)" opacity="0.7"/>
  <rect x="79" y="108" width="18" height="14" fill="none" stroke="#7C4DBC" stroke-width="1" transform="rotate(56 79 108)" opacity="0.7"/>
  <rect x="100" y="35" width="18" height="14" fill="none" stroke="#7C4DBC" stroke-width="1" transform="rotate(38 100 35)" opacity="0.7"/>
  <rect x="103" y="50" width="18" height="14" fill="none" stroke="#7C4DBC" stroke-width="1" transform="rotate(35 103 50)" opacity="0.7"/>
  <rect x="101" y="72" width="18" height="14" fill="none" stroke="#7C4DBC" stroke-width="1" transform="rotate(58 101 72)" opacity="0.7"/>
  <rect x="105" y="88" width="18" height="14" fill="none" stroke="#7C4DBC" stroke-width="1" transform="rotate(86 105 88)" opacity="0.7"/>
  <rect x="103" y="105" width="18" height="14" fill="none" stroke="#7C4DBC" stroke-width="1" transform="rotate(34 103 105)" opacity="0.7"/>
  <rect x="130" y="32" width="18" height="14" fill="none" stroke="#7C4DBC" stroke-width="1" transform="rotate(69 130 32)" opacity="0.7"/>
  <rect x="131" y="56" width="18" height="14" fill="none" stroke="#7C4DBC" stroke-width="1" transform="rotate(42 131 56)" opacity="0.7"/>
  <rect x="127" y="74" width="18" height="14" fill="none" stroke="#7C4DBC" stroke-width="1" transform="rotate(64 127 74)" opacity="0.7"/>
  <rect x="129" y="86" width="18" height="14" fill="none" stroke="#7C4DBC" stroke-width="1" transform="rotate(55 129 86)" opacity="0.7"/>
  <rect x="129" y="105" width="18" height="14" fill="none" stroke="#7C4DBC" stroke-width="1" transform="rotate(19 129 105)" opacity="0.7"/>
  <rect x="153" y="36" width="18" height="14" fill="none" stroke="#7C4DBC" stroke-width="1" transform="rotate(37 153 36)" opacity="0.7"/>
  <rect x="150" y="51" width="18" height="14" fill="none" stroke="#7C4DBC" stroke-width="1" transform="rotate(22 150 51)" opacity="0.7"/>
  <rect x="147" y="70" width="18" height="14" fill="none" stroke="#7C4DBC" stroke-width="1" transform="rotate(13 147 70)" opacity="0.7"/>
  <rect x="153" y="93" width="18" height="14" fill="none" stroke="#7C4DBC" stroke-width="1" transform="rotate(53 153 93)" opacity="0.7"/>
  <rect x="147" y="108" width="18" height="14" fill="none" stroke="#7C4DBC" stroke-width="1" transform="rotate(14 147 108)" opacity="0.7"/>
  <rect x="172" y="32" width="18" height="14" fill="none" stroke="#7C4DBC" stroke-width="1" transform="rotate(45 172 32)" opacity="0.7"/>
  <rect x="170" y="51" width="18" height="14" fill="none" stroke="#7C4DBC" stroke-width="1" transform="rotate(21 170 51)" opacity="0.7"/>
  <rect x="173" y="74" width="18" height="14" fill="none" stroke="#7C4DBC" stroke-width="1" transform="rotate(52 173 74)" opacity="0.7"/>
  <rect x="175" y="91" width="18" height="14" fill="none" stroke="#7C4DBC" stroke-width="1" transform="rotate(48 175 91)" opacity="0.7"/>
  <rect x="170" y="103" width="18" height="14" fill="none" stroke="#7C4DBC" stroke-width="1" transform="rotate(12 170 103)" opacity="0.7"/>
  <text x="120" y="148" font-size="7" fill="#7C4DBC" text-anchor="middle">mosaic pattern of lamellar bone</text>
  <text x="120.0" y="152" font-family="sans-serif" font-size="7.5" fill="#1b2430" text-anchor="middle" opacity="0.55">Paget disease of bone — mosaic pattern of haphazard lamellar bone</text>
</svg>