<svg xmlns="http://www.w3.org/2000/svg" viewBox="0 0 240 160" width="240" height="160">
  <rect width="240" height="160" fill="#f8f5fc"/>
<rect x="10" y="20" width="220" height="120" fill="#F1ECFA" stroke="#7C4DBC" stroke-width="1.2"/><ellipse cx="72" cy="88" rx="12" ry="8" fill="#fff" stroke="#5b3a99" stroke-width="1.6" transform="rotate(176 72 88)"/><ellipse cx="137" cy="116" rx="12" ry="8" fill="#fff" stroke="#5b3a99" stroke-width="1.6" transform="rotate(72 137 116)"/><ellipse cx="152" cy="62" rx="12" ry="8" fill="#fff" stroke="#5b3a99" stroke-width="1.6" transform="rotate(121 152 62)"/><ellipse cx="161" cy="58" rx="12" ry="8" fill="#fff" stroke="#5b3a99" stroke-width="1.6" transform="rotate(129 161 58)"/><ellipse cx="165" cy="65" rx="12" ry="8" fill="#fff" stroke="#5b3a99" stroke-width="1.6" transform="rotate(0 165 65)"/><ellipse cx="33" cy="82" rx="12" ry="8" fill="#fff" stroke="#5b3a99" stroke-width="1.6" transform="rotate(149 33 82)"/><ellipse cx="139" cy="43" rx="12" ry="8" fill="#fff" stroke="#5b3a99" stroke-width="1.6" transform="rotate(37 139 43)"/><ellipse cx="89" cy="64" rx="12" ry="8" fill="#fff" stroke="#5b3a99" stroke-width="1.6" transform="rotate(177 89 64)"/><ellipse cx="40" cy="90" rx="12" ry="8" fill="#fff" stroke="#5b3a99" stroke-width="1.6" transform="rotate(104 40 90)"/><ellipse cx="187" cy="91" rx="12" ry="8" fill="#fff" stroke="#5b3a99" stroke-width="1.6" transform="rotate(8 187 91)"/><ellipse cx="114" cy="104" rx="12" ry="8" fill="#fff" stroke="#5b3a99" stroke-width="1.6" transform="rotate(127 114 104)"/><ellipse cx="207" cy="49" rx="12" ry="8" fill="#fff" stroke="#5b3a99" stroke-width="1.6" transform="rotate(166 207 49)"/><ellipse cx="124" cy="37" rx="12" ry="8" fill="#fff" stroke="#5b3a99" stroke-width="1.6" transform="rotate(39 124 37)"/><ellipse cx="52" cy="50" rx="12" ry="8" fill="#fff" stroke="#5b3a99" stroke-width="1.6" transform="rotate(5 52 50)"/><ellipse cx="146" cy="55" rx="12" ry="8" fill="#fff" stroke="#5b3a99" stroke-width="1.6" transform="rotate(141 146 55)"/><ellipse cx="117" cy="86" rx="12" ry="8" fill="#fff" stroke="#5b3a99" stroke-width="1.6" transform="rotate(124 117 86)"/><path d="M53 48 l5 -5" stroke="#cdb8ec" stroke-width="1"/><path d="M135 135 l-2 -4" stroke="#cdb8ec" stroke-width="1"/><path d="M214 50 l-2 5" stroke="#cdb8ec" stroke-width="1"/><path d="M220 109 l4 -4" stroke="#cdb8ec" stroke-width="1"/><path d="M46 96 l2 3" stroke="#cdb8ec" stroke-width="1"/><path d="M114 50 l0 -3" stroke="#cdb8ec" stroke-width="1"/><path d="M152 77 l-1 0" stroke="#cdb8ec" stroke-width="1"/><path d="M130 89 l1 0" stroke="#cdb8ec" stroke-width="1"/><path d="M139 74 l-1 -5" stroke="#cdb8ec" stroke-width="1"/><path d="M38 45 l2 -5" stroke="#cdb8ec" stroke-width="1"/><path d="M140 33 l3 4" stroke="#cdb8ec" stroke-width="1"/><path d="M206 91 l-2 4" stroke="#cdb8ec" stroke-width="1"/><path d="M170 65 l3 4" stroke="#cdb8ec" stroke-width="1"/><path d="M43 48 l5 -3" stroke="#cdb8ec" stroke-width="1"/><path d="M175 69 l0 0" stroke="#cdb8ec" stroke-width="1"/><path d="M210 101 l-1 -2" stroke="#cdb8ec" stroke-width="1"/><path d="M41 46 l-4 -3" stroke="#cdb8ec" stroke-width="1"/><path d="M213 79 l0 -3" stroke="#cdb8ec" stroke-width="1"/><path d="M189 29 l5 3" stroke="#cdb8ec" stroke-width="1"/><path d="M183 55 l1 -3" stroke="#cdb8ec" stroke-width="1"/><path d="M204 100 l-5 0" stroke="#cdb8ec" stroke-width="1"/><path d="M140 89 l1 5" stroke="#cdb8ec" stroke-width="1"/><path d="M78 56 l-3 3" stroke="#cdb8ec" stroke-width="1"/><path d="M32 81 l1 2" stroke="#cdb8ec" stroke-width="1"/><path d="M29 132 l-1 -5" stroke="#cdb8ec" stroke-width="1"/><path d="M81 109 l-1 -5" stroke="#cdb8ec" stroke-width="1"/><path d="M122 56 l-3 1" stroke="#cdb8ec" stroke-width="1"/><path d="M32 68 l5 -3" stroke="#cdb8ec" stroke-width="1"/><path d="M53 120 l2 -5" stroke="#cdb8ec" stroke-width="1"/><path d="M79 42 l5 3" stroke="#cdb8ec" stroke-width="1"/><path d="M201 86 l-5 -2" stroke="#cdb8ec" stroke-width="1"/><path d="M108 126 l-3 0" stroke="#cdb8ec" stroke-width="1"/><path d="M168 123 l1 2" stroke="#cdb8ec" stroke-width="1"/><path d="M163 133 l2 -1" stroke="#cdb8ec" stroke-width="1"/><path d="M50 93 l4 -1" stroke="#cdb8ec" stroke-width="1"/><path d="M50 123 l-5 1" stroke="#cdb8ec" stroke-width="1"/><path d="M190 41 l-5 -1" stroke="#cdb8ec" stroke-width="1"/><path d="M166 66 l5 -2" stroke="#cdb8ec" stroke-width="1"/><path d="M164 78 l-1 5" stroke="#cdb8ec" stroke-width="1"/><path d="M118 121 l-3 -3" stroke="#cdb8ec" stroke-width="1"/><path d="M51 37 l1 -4" stroke="#cdb8ec" stroke-width="1"/><path d="M62 28 l5 2" stroke="#cdb8ec" stroke-width="1"/><path d="M216 43 l-4 -4" stroke="#cdb8ec" stroke-width="1"/><path d="M182 61 l-3 -1" stroke="#cdb8ec" stroke-width="1"/><path d="M152 66 l1 2" stroke="#cdb8ec" stroke-width="1"/><path d="M71 104 l-3 -3" stroke="#cdb8ec" stroke-width="1"/><path d="M62 134 l1 -2" stroke="#cdb8ec" stroke-width="1"/><path d="M196 120 l3 -5" stroke="#cdb8ec" stroke-width="1"/><path d="M169 115 l3 -5" stroke="#cdb8ec" stroke-width="1"/><path d="M217 26 l1 2" stroke="#cdb8ec" stroke-width="1"/><path d="M31 75 l4 -3" stroke="#cdb8ec" stroke-width="1"/><path d="M197 54 l-1 4" stroke="#cdb8ec" stroke-width="1"/><path d="M95 120 l-5 -2" stroke="#cdb8ec" stroke-width="1"/><path d="M114 44 l-1 -1" stroke="#cdb8ec" stroke-width="1"/><path d="M224 89 l3 2" stroke="#cdb8ec" stroke-width="1"/><path d="M161 37 l3 4" stroke="#cdb8ec" stroke-width="1"/><path d="M30 90 l4 0" stroke="#cdb8ec" stroke-width="1"/><path d="M147 64 l-1 4" stroke="#cdb8ec" stroke-width="1"/><path d="M149 122 l3 -2" stroke="#cdb8ec" stroke-width="1"/><path d="M31 103 l0 -2" stroke="#cdb8ec" stroke-width="1"/>
  <text x="120.0" y="152" font-family="sans-serif" font-size="7.5" fill="#1b2430" text-anchor="middle" opacity="0.55">Pancreatic ductal adenocarcinoma - malignant glands in desmoplastic stroma</text>
</svg>