<svg xmlns="http://www.w3.org/2000/svg" viewBox="0 0 240 160" width="240" height="160">
  <rect width="240" height="160" fill="#f8f5fc"/>
  <rect x="8" y="8" width="224" height="136" rx="12" fill="#F1ECFA" stroke="#7C4DBC" stroke-width="2"/><circle cx="87.7" cy="59.3" r="11.8" fill="#E4D9F5" stroke="#7C4DBC" stroke-width="1.1"/><circle cx="87.7" cy="59.3" r="4.1" fill="#7C4DBC"/><circle cx="143.6" cy="120.0" r="7.7" fill="#E4D9F5" stroke="#7C4DBC" stroke-width="1.1"/><circle cx="143.6" cy="120.0" r="2.7" fill="#7C4DBC"/><circle cx="197.1" cy="79.5" r="10.6" fill="#E4D9F5" stroke="#7C4DBC" stroke-width="1.1"/><circle cx="197.1" cy="79.5" r="3.7" fill="#7C4DBC"/><circle cx="200.1" cy="58.6" r="8.2" fill="#E4D9F5" stroke="#7C4DBC" stroke-width="1.1"/><circle cx="200.1" cy="58.6" r="2.9" fill="#7C4DBC"/><circle cx="110.0" cy="54.7" r="10.7" fill="#E4D9F5" stroke="#7C4DBC" stroke-width="1.1"/><circle cx="110.0" cy="54.7" r="3.7" fill="#7C4DBC"/><circle cx="86.2" cy="110.9" r="7.5" fill="#E4D9F5" stroke="#7C4DBC" stroke-width="1.1"/><circle cx="86.2" cy="110.9" r="2.6" fill="#7C4DBC"/><circle cx="190.2" cy="63.4" r="12.2" fill="#E4D9F5" stroke="#7C4DBC" stroke-width="1.1"/><circle cx="190.2" cy="63.4" r="4.3" fill="#7C4DBC"/><circle cx="109.2" cy="53.1" r="7.2" fill="#E4D9F5" stroke="#7C4DBC" stroke-width="1.1"/><circle cx="109.2" cy="53.1" r="2.5" fill="#7C4DBC"/><circle cx="127.3" cy="90.4" r="12.2" fill="#E4D9F5" stroke="#7C4DBC" stroke-width="1.1"/><circle cx="127.3" cy="90.4" r="4.3" fill="#7C4DBC"/>
  <text x="120.0" y="152" font-family="sans-serif" font-size="8.5" fill="#1b2430" text-anchor="middle" opacity="0.55">Papillary Thyroid Carcinoma (schematic placeholder)</text>
</svg>