<svg xmlns="http://www.w3.org/2000/svg" viewBox="0 0 240 160" width="240" height="160">
  <rect width="240" height="160" fill="#f8f5fc"/>
  <path d="M60 140 Q50 100 60 70 Q70 100 60 140" fill="#F1ECFA" stroke="#7C4DBC" stroke-width="1.4"/><circle cx="54" cy="130" r="3" fill="#1b2430" opacity="0.4"/><circle cx="66" cy="130" r="3" fill="#1b2430" opacity="0.4"/><circle cx="54" cy="110" r="3" fill="#1b2430" opacity="0.4"/><circle cx="66" cy="110" r="3" fill="#1b2430" opacity="0.4"/><circle cx="54" cy="90" r="3" fill="#1b2430" opacity="0.4"/><circle cx="66" cy="90" r="3" fill="#1b2430" opacity="0.4"/><circle cx="54" cy="72" r="3" fill="#1b2430" opacity="0.4"/><circle cx="66" cy="72" r="3" fill="#1b2430" opacity="0.4"/><path d="M120 140 Q110 100 120 70 Q130 100 120 140" fill="#F1ECFA" stroke="#7C4DBC" stroke-width="1.4"/><circle cx="114" cy="130" r="3" fill="#1b2430" opacity="0.4"/><circle cx="126" cy="130" r="3" fill="#1b2430" opacity="0.4"/><circle cx="114" cy="110" r="3" fill="#1b2430" opacity="0.4"/><circle cx="126" cy="110" r="3" fill="#1b2430" opacity="0.4"/><circle cx="114" cy="90" r="3" fill="#1b2430" opacity="0.4"/><circle cx="126" cy="90" r="3" fill="#1b2430" opacity="0.4"/><circle cx="114" cy="72" r="3" fill="#1b2430" opacity="0.4"/><circle cx="126" cy="72" r="3" fill="#1b2430" opacity="0.4"/><path d="M180 140 Q170 100 180 70 Q190 100 180 140" fill="#F1ECFA" stroke="#7C4DBC" stroke-width="1.4"/><circle cx="174" cy="130" r="3" fill="#1b2430" opacity="0.4"/><circle cx="186" cy="130" r="3" fill="#1b2430" opacity="0.4"/><circle cx="174" cy="110" r="3" fill="#1b2430" opacity="0.4"/><circle cx="186" cy="110" r="3" fill="#1b2430" opacity="0.4"/><circle cx="174" cy="90" r="3" fill="#1b2430" opacity="0.4"/><circle cx="186" cy="90" r="3" fill="#1b2430" opacity="0.4"/><circle cx="174" cy="72" r="3" fill="#1b2430" opacity="0.4"/><circle cx="186" cy="72" r="3" fill="#1b2430" opacity="0.4"/><circle cx="75" cy="60" r="5" fill="none" stroke="#c0392b" stroke-width="1.6"/><circle cx="75" cy="60" r="2" fill="#c0392b"/><circle cx="135" cy="50" r="5" fill="none" stroke="#c0392b" stroke-width="1.6"/><circle cx="135" cy="50" r="2" fill="#c0392b"/><circle cx="165" cy="65" r="5" fill="none" stroke="#c0392b" stroke-width="1.6"/><circle cx="165" cy="65" r="2" fill="#c0392b"/>
  <text x="120.0" y="152" font-family="sans-serif" font-size="7.5" fill="#1b2430" text-anchor="middle" opacity="0.55">Papillary thyroid — fronds, psammoma bodies</text>
</svg>