<svg xmlns="http://www.w3.org/2000/svg" viewBox="0 0 240 160" width="240" height="160">
  <rect width="240" height="160" fill="#f8f5fc"/>
<ellipse cx="120" cy="85" rx="40" ry="34" fill="#FCEFD8" stroke="#7C4DBC" stroke-width="1.6"/><circle cx="120" cy="85" r="16" fill="#E89BAE" stroke="#8a2e44" stroke-width="1.6"/><circle cx="120" cy="85" r="16" fill="none" stroke="#fff" stroke-width="3" opacity="0.6"/><circle cx="120" cy="85" r="8" fill="#b5481f"/><circle cx="61" cy="58" r="3" fill="#3d2566" opacity="0.7"/><circle cx="70" cy="32" r="3" fill="#3d2566" opacity="0.7"/><circle cx="29" cy="44" r="3" fill="#3d2566" opacity="0.7"/><circle cx="66" cy="34" r="3" fill="#3d2566" opacity="0.7"/><circle cx="84" cy="74" r="3" fill="#3d2566" opacity="0.7"/><circle cx="24" cy="42" r="3" fill="#3d2566" opacity="0.7"/><circle cx="75" cy="127" r="3" fill="#3d2566" opacity="0.7"/><circle cx="28" cy="81" r="3" fill="#3d2566" opacity="0.7"/><circle cx="31" cy="128" r="3" fill="#3d2566" opacity="0.7"/><circle cx="27" cy="51" r="3" fill="#3d2566" opacity="0.7"/><circle cx="48" cy="35" r="3" fill="#3d2566" opacity="0.7"/><circle cx="70" cy="32" r="3" fill="#3d2566" opacity="0.7"/><circle cx="48" cy="31" r="3" fill="#3d2566" opacity="0.7"/><circle cx="37" cy="94" r="3" fill="#3d2566" opacity="0.7"/><circle cx="73" cy="56" r="3" fill="#3d2566" opacity="0.7"/><circle cx="89" cy="50" r="3" fill="#3d2566" opacity="0.7"/><circle cx="59" cy="66" r="3" fill="#3d2566" opacity="0.7"/><circle cx="33" cy="68" r="3" fill="#3d2566" opacity="0.7"/><circle cx="67" cy="44" r="3" fill="#3d2566" opacity="0.7"/><circle cx="90" cy="36" r="3" fill="#3d2566" opacity="0.7"/><circle cx="157" cy="72" r="1.5" fill="#9b7cc9" opacity="0.5"/><circle cx="213" cy="129" r="1.5" fill="#9b7cc9" opacity="0.5"/><circle cx="190" cy="139" r="1.5" fill="#9b7cc9" opacity="0.5"/><circle cx="208" cy="112" r="1.5" fill="#9b7cc9" opacity="0.5"/><circle cx="188" cy="83" r="1.5" fill="#9b7cc9" opacity="0.5"/><circle cx="173" cy="82" r="1.5" fill="#9b7cc9" opacity="0.5"/><circle cx="160" cy="96" r="1.5" fill="#9b7cc9" opacity="0.5"/><circle cx="217" cy="146" r="1.5" fill="#9b7cc9" opacity="0.5"/><circle cx="193" cy="134" r="1.5" fill="#9b7cc9" opacity="0.5"/><circle cx="186" cy="38" r="1.5" fill="#9b7cc9" opacity="0.5"/><circle cx="165" cy="127" r="1.5" fill="#9b7cc9" opacity="0.5"/><circle cx="171" cy="107" r="1.5" fill="#9b7cc9" opacity="0.5"/><circle cx="169" cy="145" r="1.5" fill="#9b7cc9" opacity="0.5"/><circle cx="203" cy="30" r="1.5" fill="#9b7cc9" opacity="0.5"/><circle cx="159" cy="100" r="1.5" fill="#9b7cc9" opacity="0.5"/><circle cx="193" cy="109" r="1.5" fill="#9b7cc9" opacity="0.5"/><circle cx="213" cy="136" r="1.5" fill="#9b7cc9" opacity="0.5"/><circle cx="158" cy="43" r="1.5" fill="#9b7cc9" opacity="0.5"/><circle cx="184" cy="141" r="1.5" fill="#9b7cc9" opacity="0.5"/><circle cx="158" cy="35" r="1.5" fill="#9b7cc9" opacity="0.5"/>
  <text x="120.0" y="152" font-family="sans-serif" font-size="7.5" fill="#1b2430" text-anchor="middle" opacity="0.55">Lewy body — eosinophilic inclusion with halo, substantia nigra</text>
</svg>