<svg xmlns="http://www.w3.org/2000/svg" viewBox="0 0 240 160" width="240" height="160">
  <rect width="240" height="160" fill="#f8f5fc"/>
  <rect x="8" y="8" width="224" height="136" rx="12" fill="#F1ECFA" stroke="#7C4DBC" stroke-width="2"/><circle cx="45.7" cy="59.9" r="10.5" fill="#E4D9F5" stroke="#7C4DBC" stroke-width="1.1"/><circle cx="45.7" cy="59.9" r="3.7" fill="#7C4DBC"/><circle cx="167.5" cy="64.8" r="12.4" fill="#E4D9F5" stroke="#7C4DBC" stroke-width="1.1"/><circle cx="167.5" cy="64.8" r="4.3" fill="#7C4DBC"/><circle cx="187.5" cy="64.0" r="9.4" fill="#E4D9F5" stroke="#7C4DBC" stroke-width="1.1"/><circle cx="187.5" cy="64.0" r="3.3" fill="#7C4DBC"/><circle cx="34.9" cy="73.0" r="7.2" fill="#E4D9F5" stroke="#7C4DBC" stroke-width="1.1"/><circle cx="34.9" cy="73.0" r="2.5" fill="#7C4DBC"/><circle cx="82.5" cy="109.0" r="7.1" fill="#E4D9F5" stroke="#7C4DBC" stroke-width="1.1"/><circle cx="82.5" cy="109.0" r="2.5" fill="#7C4DBC"/><circle cx="38.2" cy="113.8" r="7.5" fill="#E4D9F5" stroke="#7C4DBC" stroke-width="1.1"/><circle cx="38.2" cy="113.8" r="2.6" fill="#7C4DBC"/><circle cx="161.8" cy="67.9" r="8.5" fill="#E4D9F5" stroke="#7C4DBC" stroke-width="1.1"/><circle cx="161.8" cy="67.9" r="3.0" fill="#7C4DBC"/><circle cx="204.8" cy="47.1" r="12.2" fill="#E4D9F5" stroke="#7C4DBC" stroke-width="1.1"/><circle cx="204.8" cy="47.1" r="4.3" fill="#7C4DBC"/><circle cx="98.4" cy="58.0" r="11.3" fill="#E4D9F5" stroke="#7C4DBC" stroke-width="1.1"/><circle cx="98.4" cy="58.0" r="4.0" fill="#7C4DBC"/>
  <text x="120.0" y="152" font-family="sans-serif" font-size="8.5" fill="#1b2430" text-anchor="middle" opacity="0.55">Peptic Ulcer Disease (schematic placeholder)</text>
</svg>