<svg xmlns="http://www.w3.org/2000/svg" viewBox="0 0 240 160" width="240" height="160">
  <rect width="240" height="160" fill="#f8f5fc"/>
  <rect x="0" y="90" width="240" height="50" fill="#F1ECFA"/><path d="M0 90 L 80 90 Q 95 90 100 115 Q 105 140 130 140 Q 155 140 160 115 Q 165 90 180 90 L 240 90" fill="#f8f5fc" stroke="#7C4DBC" stroke-width="2"/><path d="M0 90 L 80 90 Q 95 90 100 115 Q 105 140 130 140 Q 155 140 160 115 Q 165 90 180 90 L 240 90" fill="none" stroke="#c0392b" stroke-width="2.5"/><rect x="12" y="78" width="18" height="14" rx="4" fill="#E4D9F5" stroke="#7C4DBC" stroke-width="1"/><rect x="42" y="78" width="18" height="14" rx="4" fill="#E4D9F5" stroke="#7C4DBC" stroke-width="1"/><rect x="72" y="78" width="18" height="14" rx="4" fill="#E4D9F5" stroke="#7C4DBC" stroke-width="1"/><rect x="102" y="78" width="18" height="14" rx="4" fill="#E4D9F5" stroke="#7C4DBC" stroke-width="1"/><rect x="132" y="78" width="18" height="14" rx="4" fill="#E4D9F5" stroke="#7C4DBC" stroke-width="1"/><rect x="162" y="78" width="18" height="14" rx="4" fill="#E4D9F5" stroke="#7C4DBC" stroke-width="1"/><rect x="192" y="78" width="18" height="14" rx="4" fill="#E4D9F5" stroke="#7C4DBC" stroke-width="1"/><rect x="222" y="78" width="18" height="14" rx="4" fill="#E4D9F5" stroke="#7C4DBC" stroke-width="1"/>
  <text x="120.0" y="152" font-family="sans-serif" font-size="7.5" fill="#1b2430" text-anchor="middle" opacity="0.55">Peptic ulcer — punched-out mucosal crater</text>
</svg>