<svg xmlns="http://www.w3.org/2000/svg" viewBox="0 0 240 160" width="240" height="160">
  <rect width="240" height="160" fill="#f8f5fc"/>
<rect x="10" y="15" width="100" height="125" fill="#EDE6FA" stroke="#7C4DBC" stroke-width="1.4"/><ellipse cx="87" cy="22" rx="3" ry="1.6" fill="#5b3a99" transform="rotate(219 87 22)"/><ellipse cx="75" cy="91" rx="3" ry="1.6" fill="#5b3a99" transform="rotate(7 75 91)"/><ellipse cx="40" cy="77" rx="3" ry="1.6" fill="#5b3a99" transform="rotate(251 40 77)"/><ellipse cx="49" cy="101" rx="3" ry="1.6" fill="#5b3a99" transform="rotate(82 49 101)"/><ellipse cx="18" cy="84" rx="3" ry="1.6" fill="#5b3a99" transform="rotate(250 18 84)"/><ellipse cx="55" cy="27" rx="3" ry="1.6" fill="#5b3a99" transform="rotate(127 55 27)"/><ellipse cx="60" cy="23" rx="3" ry="1.6" fill="#5b3a99" transform="rotate(215 60 23)"/><ellipse cx="31" cy="95" rx="3" ry="1.6" fill="#5b3a99" transform="rotate(181 31 95)"/><ellipse cx="62" cy="71" rx="3" ry="1.6" fill="#5b3a99" transform="rotate(145 62 71)"/><ellipse cx="100" cy="51" rx="3" ry="1.6" fill="#5b3a99" transform="rotate(233 100 51)"/><ellipse cx="36" cy="105" rx="3" ry="1.6" fill="#5b3a99" transform="rotate(155 36 105)"/><ellipse cx="98" cy="64" rx="3" ry="1.6" fill="#5b3a99" transform="rotate(68 98 64)"/><ellipse cx="72" cy="116" rx="3" ry="1.6" fill="#5b3a99" transform="rotate(122 72 116)"/><ellipse cx="70" cy="96" rx="3" ry="1.6" fill="#5b3a99" transform="rotate(192 70 96)"/><ellipse cx="19" cy="92" rx="3" ry="1.6" fill="#5b3a99" transform="rotate(2 19 92)"/><ellipse cx="44" cy="35" rx="3" ry="1.6" fill="#5b3a99" transform="rotate(99 44 35)"/><ellipse cx="52" cy="86" rx="3" ry="1.6" fill="#5b3a99" transform="rotate(187 52 86)"/><ellipse cx="44" cy="58" rx="3" ry="1.6" fill="#5b3a99" transform="rotate(341 44 58)"/><ellipse cx="84" cy="75" rx="3" ry="1.6" fill="#5b3a99" transform="rotate(223 84 75)"/><ellipse cx="74" cy="26" rx="3" ry="1.6" fill="#5b3a99" transform="rotate(334 74 26)"/><ellipse cx="88" cy="59" rx="3" ry="1.6" fill="#5b3a99" transform="rotate(256 88 59)"/><ellipse cx="34" cy="125" rx="3" ry="1.6" fill="#5b3a99" transform="rotate(114 34 125)"/><ellipse cx="66" cy="48" rx="3" ry="1.6" fill="#5b3a99" transform="rotate(18 66 48)"/><ellipse cx="18" cy="81" rx="3" ry="1.6" fill="#5b3a99" transform="rotate(154 18 81)"/><ellipse cx="91" cy="102" rx="3" ry="1.6" fill="#5b3a99" transform="rotate(36 91 102)"/><ellipse cx="82" cy="136" rx="3" ry="1.6" fill="#5b3a99" transform="rotate(41 82 136)"/><ellipse cx="33" cy="67" rx="3" ry="1.6" fill="#5b3a99" transform="rotate(290 33 67)"/><ellipse cx="61" cy="134" rx="3" ry="1.6" fill="#5b3a99" transform="rotate(307 61 134)"/><ellipse cx="33" cy="32" rx="3" ry="1.6" fill="#5b3a99" transform="rotate(49 33 32)"/><ellipse cx="70" cy="39" rx="3" ry="1.6" fill="#5b3a99" transform="rotate(97 70 39)"/><ellipse cx="58" cy="73" rx="3" ry="1.6" fill="#5b3a99" transform="rotate(212 58 73)"/><ellipse cx="71" cy="49" rx="3" ry="1.6" fill="#5b3a99" transform="rotate(348 71 49)"/><ellipse cx="49" cy="36" rx="3" ry="1.6" fill="#5b3a99" transform="rotate(316 49 36)"/><ellipse cx="80" cy="40" rx="3" ry="1.6" fill="#5b3a99" transform="rotate(61 80 40)"/><ellipse cx="48" cy="76" rx="3" ry="1.6" fill="#5b3a99" transform="rotate(154 48 76)"/><ellipse cx="35" cy="102" rx="3" ry="1.6" fill="#5b3a99" transform="rotate(332 35 102)"/><ellipse cx="36" cy="117" rx="3" ry="1.6" fill="#5b3a99" transform="rotate(90 36 117)"/><ellipse cx="75" cy="116" rx="3" ry="1.6" fill="#5b3a99" transform="rotate(177 75 116)"/><ellipse cx="55" cy="73" rx="3" ry="1.6" fill="#5b3a99" transform="rotate(114 55 73)"/><ellipse cx="14" cy="87" rx="3" ry="1.6" fill="#5b3a99" transform="rotate(22 14 87)"/><ellipse cx="56" cy="132" rx="3" ry="1.6" fill="#5b3a99" transform="rotate(163 56 132)"/><ellipse cx="45" cy="28" rx="3" ry="1.6" fill="#5b3a99" transform="rotate(134 45 28)"/><ellipse cx="71" cy="69" rx="3" ry="1.6" fill="#5b3a99" transform="rotate(298 71 69)"/><ellipse cx="34" cy="67" rx="3" ry="1.6" fill="#5b3a99" transform="rotate(253 34 67)"/><ellipse cx="100" cy="132" rx="3" ry="1.6" fill="#5b3a99" transform="rotate(123 100 132)"/><ellipse cx="81" cy="134" rx="3" ry="1.6" fill="#5b3a99" transform="rotate(139 81 134)"/><ellipse cx="80" cy="79" rx="3" ry="1.6" fill="#5b3a99" transform="rotate(308 80 79)"/><ellipse cx="77" cy="26" rx="3" ry="1.6" fill="#5b3a99" transform="rotate(85 77 26)"/><ellipse cx="76" cy="104" rx="3" ry="1.6" fill="#5b3a99" transform="rotate(236 76 104)"/><ellipse cx="65" cy="35" rx="3" ry="1.6" fill="#5b3a99" transform="rotate(215 65 35)"/><ellipse cx="83" cy="92" rx="3" ry="1.6" fill="#5b3a99" transform="rotate(178 83 92)"/><ellipse cx="82" cy="67" rx="3" ry="1.6" fill="#5b3a99" transform="rotate(250 82 67)"/><ellipse cx="103" cy="39" rx="3" ry="1.6" fill="#5b3a99" transform="rotate(286 103 39)"/><ellipse cx="70" cy="30" rx="3" ry="1.6" fill="#5b3a99" transform="rotate(212 70 30)"/><ellipse cx="18" cy="129" rx="3" ry="1.6" fill="#5b3a99" transform="rotate(1 18 129)"/><ellipse cx="70" cy="86" rx="3" ry="1.6" fill="#5b3a99" transform="rotate(33 70 86)"/><ellipse cx="20" cy="62" rx="3" ry="1.6" fill="#5b3a99" transform="rotate(47 20 62)"/><ellipse cx="33" cy="31" rx="3" ry="1.6" fill="#5b3a99" transform="rotate(311 33 31)"/><ellipse cx="72" cy="124" rx="3" ry="1.6" fill="#5b3a99" transform="rotate(248 72 124)"/><ellipse cx="31" cy="76" rx="3" ry="1.6" fill="#5b3a99" transform="rotate(223 31 76)"/><ellipse cx="78" cy="136" rx="3" ry="1.6" fill="#5b3a99" transform="rotate(228 78 136)"/><ellipse cx="57" cy="110" rx="3" ry="1.6" fill="#5b3a99" transform="rotate(132 57 110)"/><ellipse cx="103" cy="76" rx="3" ry="1.6" fill="#5b3a99" transform="rotate(216 103 76)"/><ellipse cx="56" cy="101" rx="3" ry="1.6" fill="#5b3a99" transform="rotate(266 56 101)"/><ellipse cx="80" cy="37" rx="3" ry="1.6" fill="#5b3a99" transform="rotate(121 80 37)"/><ellipse cx="55" cy="97" rx="3" ry="1.6" fill="#5b3a99" transform="rotate(16 55 97)"/><ellipse cx="101" cy="43" rx="3" ry="1.6" fill="#5b3a99" transform="rotate(329 101 43)"/><ellipse cx="89" cy="91" rx="3" ry="1.6" fill="#5b3a99" transform="rotate(321 89 91)"/><ellipse cx="75" cy="21" rx="3" ry="1.6" fill="#5b3a99" transform="rotate(59 75 21)"/><ellipse cx="51" cy="73" rx="3" ry="1.6" fill="#5b3a99" transform="rotate(126 51 73)"/><rect x="110" y="15" width="120" height="125" fill="#FCF6EA" stroke="#7C4DBC" stroke-width="1.4"/><circle cx="209" cy="59" r="2.2" fill="#cdb8ec" stroke="#7C4DBC" stroke-width="0.5"/><circle cx="129" cy="27" r="2.2" fill="#cdb8ec" stroke="#7C4DBC" stroke-width="0.5"/><circle cx="194" cy="92" r="2.2" fill="#cdb8ec" stroke="#7C4DBC" stroke-width="0.5"/><circle cx="216" cy="35" r="2.2" fill="#cdb8ec" stroke="#7C4DBC" stroke-width="0.5"/><circle cx="222" cy="58" r="2.2" fill="#cdb8ec" stroke="#7C4DBC" stroke-width="0.5"/><circle cx="138" cy="107" r="2.2" fill="#cdb8ec" stroke="#7C4DBC" stroke-width="0.5"/><circle cx="179" cy="40" r="2.2" fill="#cdb8ec" stroke="#7C4DBC" stroke-width="0.5"/><circle cx="164" cy="98" r="2.2" fill="#cdb8ec" stroke="#7C4DBC" stroke-width="0.5"/><circle cx="169" cy="122" r="2.2" fill="#cdb8ec" stroke="#7C4DBC" stroke-width="0.5"/><circle cx="142" cy="66" r="2.2" fill="#cdb8ec" stroke="#7C4DBC" stroke-width="0.5"/><circle cx="141" cy="32" r="2.2" fill="#cdb8ec" stroke="#7C4DBC" stroke-width="0.5"/><circle cx="193" cy="46" r="2.2" fill="#cdb8ec" stroke="#7C4DBC" stroke-width="0.5"/>
  <text x="120.0" y="152" font-family="sans-serif" font-size="7.5" fill="#1b2430" text-anchor="middle" opacity="0.55">Schwannoma — Antoni A (hypercellular) / Antoni B (hypocellular)</text>
</svg>