<svg xmlns="http://www.w3.org/2000/svg" viewBox="0 0 240 160" width="240" height="160">
  <rect width="240" height="160" fill="#f8f5fc"/>
<circle cx="55" cy="50" r="16" fill="#FDEBD0" stroke="#A04000" stroke-width="1.6"/><circle cx="64.0" cy="50.0" r="2.2" fill="#6E2C00" opacity="0.85"/><circle cx="60.6" cy="57.0" r="2.2" fill="#6E2C00" opacity="0.85"/><circle cx="53.0" cy="58.8" r="2.2" fill="#6E2C00" opacity="0.85"/><circle cx="46.9" cy="53.8" r="2.2" fill="#6E2C00" opacity="0.85"/><circle cx="46.9" cy="46.0" r="2.2" fill="#6E2C00" opacity="0.85"/><circle cx="53.1" cy="41.2" r="2.2" fill="#6E2C00" opacity="0.85"/><circle cx="60.7" cy="43.0" r="2.2" fill="#6E2C00" opacity="0.85"/><circle cx="110" cy="45" r="16" fill="#FDEBD0" stroke="#A04000" stroke-width="1.6"/><circle cx="119.0" cy="45.0" r="2.2" fill="#6E2C00" opacity="0.85"/><circle cx="115.6" cy="52.0" r="2.2" fill="#6E2C00" opacity="0.85"/><circle cx="108.0" cy="53.8" r="2.2" fill="#6E2C00" opacity="0.85"/><circle cx="101.9" cy="48.8" r="2.2" fill="#6E2C00" opacity="0.85"/><circle cx="101.9" cy="41.0" r="2.2" fill="#6E2C00" opacity="0.85"/><circle cx="108.1" cy="36.2" r="2.2" fill="#6E2C00" opacity="0.85"/><circle cx="115.7" cy="38.0" r="2.2" fill="#6E2C00" opacity="0.85"/><circle cx="165" cy="55" r="16" fill="#FDEBD0" stroke="#A04000" stroke-width="1.6"/><circle cx="174.0" cy="55.0" r="2.2" fill="#6E2C00" opacity="0.85"/><circle cx="170.6" cy="62.0" r="2.2" fill="#6E2C00" opacity="0.85"/><circle cx="163.0" cy="63.8" r="2.2" fill="#6E2C00" opacity="0.85"/><circle cx="156.9" cy="58.8" r="2.2" fill="#6E2C00" opacity="0.85"/><circle cx="156.9" cy="51.0" r="2.2" fill="#6E2C00" opacity="0.85"/><circle cx="163.1" cy="46.2" r="2.2" fill="#6E2C00" opacity="0.85"/><circle cx="170.7" cy="48.0" r="2.2" fill="#6E2C00" opacity="0.85"/><circle cx="190" cy="95" r="16" fill="#FDEBD0" stroke="#A04000" stroke-width="1.6"/><circle cx="199.0" cy="95.0" r="2.2" fill="#6E2C00" opacity="0.85"/><circle cx="195.6" cy="102.0" r="2.2" fill="#6E2C00" opacity="0.85"/><circle cx="188.0" cy="103.8" r="2.2" fill="#6E2C00" opacity="0.85"/><circle cx="181.9" cy="98.8" r="2.2" fill="#6E2C00" opacity="0.85"/><circle cx="181.9" cy="91.0" r="2.2" fill="#6E2C00" opacity="0.85"/><circle cx="188.1" cy="86.2" r="2.2" fill="#6E2C00" opacity="0.85"/><circle cx="195.7" cy="88.0" r="2.2" fill="#6E2C00" opacity="0.85"/><circle cx="150" cy="125" r="16" fill="#FDEBD0" stroke="#A04000" stroke-width="1.6"/><circle cx="159.0" cy="125.0" r="2.2" fill="#6E2C00" opacity="0.85"/><circle cx="155.6" cy="132.0" r="2.2" fill="#6E2C00" opacity="0.85"/><circle cx="148.0" cy="133.8" r="2.2" fill="#6E2C00" opacity="0.85"/><circle cx="141.9" cy="128.8" r="2.2" fill="#6E2C00" opacity="0.85"/><circle cx="141.9" cy="121.0" r="2.2" fill="#6E2C00" opacity="0.85"/><circle cx="148.1" cy="116.2" r="2.2" fill="#6E2C00" opacity="0.85"/><circle cx="155.7" cy="118.0" r="2.2" fill="#6E2C00" opacity="0.85"/><circle cx="90" cy="130" r="16" fill="#FDEBD0" stroke="#A04000" stroke-width="1.6"/><circle cx="99.0" cy="130.0" r="2.2" fill="#6E2C00" opacity="0.85"/><circle cx="95.6" cy="137.0" r="2.2" fill="#6E2C00" opacity="0.85"/><circle cx="88.0" cy="138.8" r="2.2" fill="#6E2C00" opacity="0.85"/><circle cx="81.9" cy="133.8" r="2.2" fill="#6E2C00" opacity="0.85"/><circle cx="81.9" cy="126.0" r="2.2" fill="#6E2C00" opacity="0.85"/><circle cx="88.1" cy="121.2" r="2.2" fill="#6E2C00" opacity="0.85"/><circle cx="95.7" cy="123.0" r="2.2" fill="#6E2C00" opacity="0.85"/><circle cx="45" cy="100" r="16" fill="#FDEBD0" stroke="#A04000" stroke-width="1.6"/><circle cx="54.0" cy="100.0" r="2.2" fill="#6E2C00" opacity="0.85"/><circle cx="50.6" cy="107.0" r="2.2" fill="#6E2C00" opacity="0.85"/><circle cx="43.0" cy="108.8" r="2.2" fill="#6E2C00" opacity="0.85"/><circle cx="36.9" cy="103.8" r="2.2" fill="#6E2C00" opacity="0.85"/><circle cx="36.9" cy="96.0" r="2.2" fill="#6E2C00" opacity="0.85"/><circle cx="43.1" cy="91.2" r="2.2" fill="#6E2C00" opacity="0.85"/><circle cx="50.7" cy="93.0" r="2.2" fill="#6E2C00" opacity="0.85"/><circle cx="120" cy="88" r="14" fill="#FAE5D3" stroke="#A04000" stroke-width="1.6"/><circle cx="128.0" cy="88.0" r="2" fill="#6E2C00" opacity="0.85"/><circle cx="125.0" cy="94.3" r="2" fill="#6E2C00" opacity="0.85"/><circle cx="118.2" cy="95.8" r="2" fill="#6E2C00" opacity="0.85"/><circle cx="112.8" cy="91.4" r="2" fill="#6E2C00" opacity="0.85"/><circle cx="112.8" cy="84.5" r="2" fill="#6E2C00" opacity="0.85"/><circle cx="118.3" cy="80.2" r="2" fill="#6E2C00" opacity="0.85"/><circle cx="125.1" cy="81.8" r="2" fill="#6E2C00" opacity="0.85"/>  <text x="120" y="152" font-family="sans-serif" font-size="7.5" fill="#1b2430" text-anchor="middle" opacity="0.55">Pheochromocytoma — zellballen pattern</text>
</svg>