<svg xmlns="http://www.w3.org/2000/svg" viewBox="0 0 240 160" width="240" height="160">
  <rect width="240" height="160" fill="#f8f5fc"/>
<circle cx="50" cy="45" r="13" fill="#EAECEE" stroke="#2C3E50" stroke-width="1.5"/><circle cx="43" cy="45" r="1.5" fill="#17202A"/><circle cx="50" cy="41" r="1.5" fill="#17202A"/><circle cx="54" cy="54" r="1.5" fill="#17202A"/><circle cx="49" cy="40" r="1.5" fill="#17202A"/><circle cx="41" cy="53" r="1.5" fill="#17202A"/><circle cx="42" cy="54" r="1.5" fill="#17202A"/><circle cx="47" cy="54" r="1.5" fill="#17202A"/><circle cx="55" cy="41" r="1.5" fill="#17202A"/><circle cx="57" cy="37" r="1.5" fill="#17202A"/><circle cx="53" cy="42" r="1.5" fill="#17202A"/><circle cx="110" cy="40" r="13" fill="#EAECEE" stroke="#2C3E50" stroke-width="1.5"/><circle cx="112" cy="34" r="1.5" fill="#17202A"/><circle cx="107" cy="49" r="1.5" fill="#17202A"/><circle cx="114" cy="49" r="1.5" fill="#17202A"/><circle cx="107" cy="46" r="1.5" fill="#17202A"/><circle cx="104" cy="43" r="1.5" fill="#17202A"/><circle cx="110" cy="47" r="1.5" fill="#17202A"/><circle cx="116" cy="31" r="1.5" fill="#17202A"/><circle cx="111" cy="43" r="1.5" fill="#17202A"/><circle cx="110" cy="31" r="1.5" fill="#17202A"/><circle cx="106" cy="37" r="1.5" fill="#17202A"/><circle cx="170" cy="50" r="13" fill="#EAECEE" stroke="#2C3E50" stroke-width="1.5"/><circle cx="171" cy="59" r="1.5" fill="#17202A"/><circle cx="165" cy="51" r="1.5" fill="#17202A"/><circle cx="174" cy="47" r="1.5" fill="#17202A"/><circle cx="169" cy="44" r="1.5" fill="#17202A"/><circle cx="173" cy="58" r="1.5" fill="#17202A"/><circle cx="172" cy="58" r="1.5" fill="#17202A"/><circle cx="176" cy="58" r="1.5" fill="#17202A"/><circle cx="168" cy="43" r="1.5" fill="#17202A"/><circle cx="162" cy="43" r="1.5" fill="#17202A"/><circle cx="165" cy="46" r="1.5" fill="#17202A"/><circle cx="60" cy="100" r="13" fill="#EAECEE" stroke="#2C3E50" stroke-width="1.5"/><circle cx="56" cy="108" r="1.5" fill="#17202A"/><circle cx="57" cy="99" r="1.5" fill="#17202A"/><circle cx="61" cy="107" r="1.5" fill="#17202A"/><circle cx="59" cy="102" r="1.5" fill="#17202A"/><circle cx="61" cy="101" r="1.5" fill="#17202A"/><circle cx="54" cy="100" r="1.5" fill="#17202A"/><circle cx="58" cy="106" r="1.5" fill="#17202A"/><circle cx="55" cy="109" r="1.5" fill="#17202A"/><circle cx="68" cy="94" r="1.5" fill="#17202A"/><circle cx="61" cy="92" r="1.5" fill="#17202A"/><circle cx="130" cy="95" r="13" fill="#EAECEE" stroke="#2C3E50" stroke-width="1.5"/><circle cx="134" cy="88" r="1.5" fill="#17202A"/><circle cx="133" cy="90" r="1.5" fill="#17202A"/><circle cx="125" cy="96" r="1.5" fill="#17202A"/><circle cx="124" cy="104" r="1.5" fill="#17202A"/><circle cx="133" cy="88" r="1.5" fill="#17202A"/><circle cx="139" cy="103" r="1.5" fill="#17202A"/><circle cx="128" cy="104" r="1.5" fill="#17202A"/><circle cx="123" cy="94" r="1.5" fill="#17202A"/><circle cx="132" cy="95" r="1.5" fill="#17202A"/><circle cx="139" cy="103" r="1.5" fill="#17202A"/><circle cx="190" cy="105" r="13" fill="#EAECEE" stroke="#2C3E50" stroke-width="1.5"/><circle cx="184" cy="110" r="1.5" fill="#17202A"/><circle cx="189" cy="99" r="1.5" fill="#17202A"/><circle cx="182" cy="105" r="1.5" fill="#17202A"/><circle cx="181" cy="96" r="1.5" fill="#17202A"/><circle cx="183" cy="109" r="1.5" fill="#17202A"/><circle cx="184" cy="97" r="1.5" fill="#17202A"/><circle cx="187" cy="103" r="1.5" fill="#17202A"/><circle cx="199" cy="109" r="1.5" fill="#17202A"/><circle cx="186" cy="99" r="1.5" fill="#17202A"/><circle cx="195" cy="101" r="1.5" fill="#17202A"/><circle cx="90" cy="135" r="13" fill="#EAECEE" stroke="#2C3E50" stroke-width="1.5"/><circle cx="88" cy="131" r="1.5" fill="#17202A"/><circle cx="84" cy="139" r="1.5" fill="#17202A"/><circle cx="93" cy="143" r="1.5" fill="#17202A"/><circle cx="90" cy="143" r="1.5" fill="#17202A"/><circle cx="89" cy="141" r="1.5" fill="#17202A"/><circle cx="91" cy="129" r="1.5" fill="#17202A"/><circle cx="87" cy="136" r="1.5" fill="#17202A"/><circle cx="82" cy="126" r="1.5" fill="#17202A"/><circle cx="81" cy="135" r="1.5" fill="#17202A"/><circle cx="91" cy="140" r="1.5" fill="#17202A"/><circle cx="150" cy="135" r="13" fill="#EAECEE" stroke="#2C3E50" stroke-width="1.5"/><circle cx="153" cy="136" r="1.5" fill="#17202A"/><circle cx="153" cy="128" r="1.5" fill="#17202A"/><circle cx="143" cy="136" r="1.5" fill="#17202A"/><circle cx="155" cy="129" r="1.5" fill="#17202A"/><circle cx="149" cy="132" r="1.5" fill="#17202A"/><circle cx="158" cy="141" r="1.5" fill="#17202A"/><circle cx="152" cy="134" r="1.5" fill="#17202A"/><circle cx="146" cy="143" r="1.5" fill="#17202A"/><circle cx="147" cy="135" r="1.5" fill="#17202A"/><circle cx="147" cy="133" r="1.5" fill="#17202A"/>  <text x="120" y="152" font-family="sans-serif" font-size="7.5" fill="#1b2430" text-anchor="middle" opacity="0.55">Pneumoconiosis — carbon-laden macrophage nodules</text>
</svg>