<svg xmlns="http://www.w3.org/2000/svg" viewBox="0 0 240 160" width="240" height="160">
  <rect width="240" height="160" fill="#f8f5fc"/>
<circle cx="120" cy="80" r="48" fill="#FEF9E7" stroke="#D4AC0D" stroke-width="2.2"/><circle cx="95" cy="55" r="11" fill="#FCF3CF" stroke="#9A7D0A" stroke-width="1.2"/><circle cx="95" cy="55" r="3.5" fill="#D68910" opacity="0.9"/><circle cx="120" cy="48" r="11" fill="#FCF3CF" stroke="#9A7D0A" stroke-width="1.2"/><circle cx="120" cy="48" r="3.5" fill="#D68910" opacity="0.9"/><circle cx="148" cy="58" r="11" fill="#FCF3CF" stroke="#9A7D0A" stroke-width="1.2"/><circle cx="148" cy="58" r="3.5" fill="#D68910" opacity="0.9"/><circle cx="85" cy="80" r="11" fill="#FCF3CF" stroke="#9A7D0A" stroke-width="1.2"/><circle cx="85" cy="80" r="3.5" fill="#D68910" opacity="0.9"/><circle cx="120" cy="80" r="11" fill="#FCF3CF" stroke="#9A7D0A" stroke-width="1.2"/><circle cx="120" cy="80" r="3.5" fill="#D68910" opacity="0.9"/><circle cx="155" cy="82" r="11" fill="#FCF3CF" stroke="#9A7D0A" stroke-width="1.2"/><circle cx="155" cy="82" r="3.5" fill="#D68910" opacity="0.9"/><circle cx="95" cy="108" r="11" fill="#FCF3CF" stroke="#9A7D0A" stroke-width="1.2"/><circle cx="95" cy="108" r="3.5" fill="#D68910" opacity="0.9"/><circle cx="120" cy="115" r="11" fill="#FCF3CF" stroke="#9A7D0A" stroke-width="1.2"/><circle cx="120" cy="115" r="3.5" fill="#D68910" opacity="0.9"/><circle cx="150" cy="108" r="11" fill="#FCF3CF" stroke="#9A7D0A" stroke-width="1.2"/><circle cx="150" cy="108" r="3.5" fill="#D68910" opacity="0.9"/>  <text x="120" y="152" font-family="sans-serif" font-size="7.5" fill="#1b2430" text-anchor="middle" opacity="0.55">Aldosterone-producing adenoma — lipid-laden cells</text>
</svg>