<svg xmlns="http://www.w3.org/2000/svg" viewBox="0 0 240 160" width="240" height="160">
  <rect width="240" height="160" fill="#f8f5fc"/>
  <rect x="8" y="8" width="224" height="136" rx="12" fill="#F1ECFA" stroke="#7C4DBC" stroke-width="2"/><circle cx="67.5" cy="99.4" r="9.2" fill="#E4D9F5" stroke="#7C4DBC" stroke-width="1.1"/><circle cx="67.5" cy="99.4" r="3.2" fill="#7C4DBC"/><circle cx="123.1" cy="120.2" r="10.8" fill="#E4D9F5" stroke="#7C4DBC" stroke-width="1.1"/><circle cx="123.1" cy="120.2" r="3.8" fill="#7C4DBC"/><circle cx="145.6" cy="36.7" r="12.7" fill="#E4D9F5" stroke="#7C4DBC" stroke-width="1.1"/><circle cx="145.6" cy="36.7" r="4.4" fill="#7C4DBC"/><circle cx="38.0" cy="111.8" r="10.8" fill="#E4D9F5" stroke="#7C4DBC" stroke-width="1.1"/><circle cx="38.0" cy="111.8" r="3.8" fill="#7C4DBC"/><circle cx="54.0" cy="80.8" r="9.7" fill="#E4D9F5" stroke="#7C4DBC" stroke-width="1.1"/><circle cx="54.0" cy="80.8" r="3.4" fill="#7C4DBC"/><circle cx="59.6" cy="43.5" r="12.5" fill="#E4D9F5" stroke="#7C4DBC" stroke-width="1.1"/><circle cx="59.6" cy="43.5" r="4.4" fill="#7C4DBC"/><circle cx="122.3" cy="61.1" r="9.9" fill="#E4D9F5" stroke="#7C4DBC" stroke-width="1.1"/><circle cx="122.3" cy="61.1" r="3.5" fill="#7C4DBC"/><circle cx="123.9" cy="101.6" r="12.2" fill="#E4D9F5" stroke="#7C4DBC" stroke-width="1.1"/><circle cx="123.9" cy="101.6" r="4.3" fill="#7C4DBC"/><circle cx="81.2" cy="28.9" r="10.4" fill="#E4D9F5" stroke="#7C4DBC" stroke-width="1.1"/><circle cx="81.2" cy="28.9" r="3.6" fill="#7C4DBC"/>
  <text x="120.0" y="152" font-family="sans-serif" font-size="8.5" fill="#1b2430" text-anchor="middle" opacity="0.55">Pulmonary Tuberculosis (schematic placeholder)</text>
</svg>