<svg xmlns="http://www.w3.org/2000/svg" viewBox="0 0 240 160" width="240" height="160">
  <rect width="240" height="160" fill="#f8f5fc"/>
<ellipse cx="120" cy="85" rx="95" ry="55" fill="#FDF2E9" stroke="#CA6F1E" stroke-width="2"/><circle cx="80" cy="60" r="12" fill="#FAE5D3" stroke="#AF601A" stroke-width="1.3"/><circle cx="86.0" cy="60.0" r="1.4" fill="#6E2C00" opacity="0.85"/><circle cx="83.0" cy="65.2" r="1.4" fill="#6E2C00" opacity="0.85"/><circle cx="77.0" cy="65.2" r="1.4" fill="#6E2C00" opacity="0.85"/><circle cx="74.0" cy="59.9" r="1.4" fill="#6E2C00" opacity="0.85"/><circle cx="77.1" cy="54.8" r="1.4" fill="#6E2C00" opacity="0.85"/><circle cx="83.1" cy="54.8" r="1.4" fill="#6E2C00" opacity="0.85"/><circle cx="120" cy="55" r="12" fill="#FAE5D3" stroke="#AF601A" stroke-width="1.3"/><circle cx="126.0" cy="55.0" r="1.4" fill="#6E2C00" opacity="0.85"/><circle cx="123.0" cy="60.2" r="1.4" fill="#6E2C00" opacity="0.85"/><circle cx="117.0" cy="60.2" r="1.4" fill="#6E2C00" opacity="0.85"/><circle cx="114.0" cy="54.9" r="1.4" fill="#6E2C00" opacity="0.85"/><circle cx="117.1" cy="49.8" r="1.4" fill="#6E2C00" opacity="0.85"/><circle cx="123.1" cy="49.8" r="1.4" fill="#6E2C00" opacity="0.85"/><circle cx="160" cy="65" r="12" fill="#FAE5D3" stroke="#AF601A" stroke-width="1.3"/><circle cx="166.0" cy="65.0" r="1.4" fill="#6E2C00" opacity="0.85"/><circle cx="163.0" cy="70.2" r="1.4" fill="#6E2C00" opacity="0.85"/><circle cx="157.0" cy="70.2" r="1.4" fill="#6E2C00" opacity="0.85"/><circle cx="154.0" cy="64.9" r="1.4" fill="#6E2C00" opacity="0.85"/><circle cx="157.1" cy="59.8" r="1.4" fill="#6E2C00" opacity="0.85"/><circle cx="163.1" cy="59.8" r="1.4" fill="#6E2C00" opacity="0.85"/><circle cx="70" cy="100" r="12" fill="#FAE5D3" stroke="#AF601A" stroke-width="1.3"/><circle cx="76.0" cy="100.0" r="1.4" fill="#6E2C00" opacity="0.85"/><circle cx="73.0" cy="105.2" r="1.4" fill="#6E2C00" opacity="0.85"/><circle cx="67.0" cy="105.2" r="1.4" fill="#6E2C00" opacity="0.85"/><circle cx="64.0" cy="99.9" r="1.4" fill="#6E2C00" opacity="0.85"/><circle cx="67.1" cy="94.8" r="1.4" fill="#6E2C00" opacity="0.85"/><circle cx="73.1" cy="94.8" r="1.4" fill="#6E2C00" opacity="0.85"/><circle cx="120" cy="95" r="12" fill="#FAE5D3" stroke="#AF601A" stroke-width="1.3"/><circle cx="126.0" cy="95.0" r="1.4" fill="#6E2C00" opacity="0.85"/><circle cx="123.0" cy="100.2" r="1.4" fill="#6E2C00" opacity="0.85"/><circle cx="117.0" cy="100.2" r="1.4" fill="#6E2C00" opacity="0.85"/><circle cx="114.0" cy="94.9" r="1.4" fill="#6E2C00" opacity="0.85"/><circle cx="117.1" cy="89.8" r="1.4" fill="#6E2C00" opacity="0.85"/><circle cx="123.1" cy="89.8" r="1.4" fill="#6E2C00" opacity="0.85"/><circle cx="170" cy="105" r="12" fill="#FAE5D3" stroke="#AF601A" stroke-width="1.3"/><circle cx="176.0" cy="105.0" r="1.4" fill="#6E2C00" opacity="0.85"/><circle cx="173.0" cy="110.2" r="1.4" fill="#6E2C00" opacity="0.85"/><circle cx="167.0" cy="110.2" r="1.4" fill="#6E2C00" opacity="0.85"/><circle cx="164.0" cy="104.9" r="1.4" fill="#6E2C00" opacity="0.85"/><circle cx="167.1" cy="99.8" r="1.4" fill="#6E2C00" opacity="0.85"/><circle cx="173.1" cy="99.8" r="1.4" fill="#6E2C00" opacity="0.85"/><circle cx="95" cy="125" r="12" fill="#FAE5D3" stroke="#AF601A" stroke-width="1.3"/><circle cx="101.0" cy="125.0" r="1.4" fill="#6E2C00" opacity="0.85"/><circle cx="98.0" cy="130.2" r="1.4" fill="#6E2C00" opacity="0.85"/><circle cx="92.0" cy="130.2" r="1.4" fill="#6E2C00" opacity="0.85"/><circle cx="89.0" cy="124.9" r="1.4" fill="#6E2C00" opacity="0.85"/><circle cx="92.1" cy="119.8" r="1.4" fill="#6E2C00" opacity="0.85"/><circle cx="98.1" cy="119.8" r="1.4" fill="#6E2C00" opacity="0.85"/><circle cx="145" cy="125" r="12" fill="#FAE5D3" stroke="#AF601A" stroke-width="1.3"/><circle cx="151.0" cy="125.0" r="1.4" fill="#6E2C00" opacity="0.85"/><circle cx="148.0" cy="130.2" r="1.4" fill="#6E2C00" opacity="0.85"/><circle cx="142.0" cy="130.2" r="1.4" fill="#6E2C00" opacity="0.85"/><circle cx="139.0" cy="124.9" r="1.4" fill="#6E2C00" opacity="0.85"/><circle cx="142.1" cy="119.8" r="1.4" fill="#6E2C00" opacity="0.85"/><circle cx="148.1" cy="119.8" r="1.4" fill="#6E2C00" opacity="0.85"/>  <text x="120" y="152" font-family="sans-serif" font-size="7.5" fill="#1b2430" text-anchor="middle" opacity="0.55">Carcinoid tumor — organoid/rosette nests</text>
</svg>