<svg xmlns="http://www.w3.org/2000/svg" viewBox="0 0 240 160" width="240" height="160">
  <rect width="240" height="160" fill="#f8f5fc"/>
  <circle cx="63" cy="126" r="14" fill="none" stroke="#7C4DBC" stroke-width="1" opacity="0.5"/><circle cx="42" cy="96" r="14" fill="none" stroke="#7C4DBC" stroke-width="1" opacity="0.5"/><circle cx="33" cy="43" r="14" fill="none" stroke="#7C4DBC" stroke-width="1" opacity="0.5"/><circle cx="225" cy="39" r="14" fill="none" stroke="#7C4DBC" stroke-width="1" opacity="0.5"/><circle cx="150" cy="68" r="14" fill="none" stroke="#7C4DBC" stroke-width="1" opacity="0.5"/><circle cx="110" cy="72" r="14" fill="none" stroke="#7C4DBC" stroke-width="1" opacity="0.5"/><circle cx="55" cy="111" r="14" fill="none" stroke="#7C4DBC" stroke-width="1" opacity="0.5"/><circle cx="34" cy="42" r="14" fill="none" stroke="#7C4DBC" stroke-width="1" opacity="0.5"/><circle cx="19" cy="46" r="14" fill="none" stroke="#7C4DBC" stroke-width="1" opacity="0.5"/><circle cx="101" cy="119" r="14" fill="none" stroke="#7C4DBC" stroke-width="1" opacity="0.5"/><circle cx="120" cy="78" r="48" fill="none" stroke="#7C4DBC" stroke-width="2.2"/><path d="M90 65 q 8 -12 30 -9 q 22 4 26 22 q 4 18 -13 27 q -17 9 -34 -2 q -17 -11 -9 -38 Z" fill="#D9C49A"/><circle cx="94" cy="103" r="4" fill="#E4D9F5" stroke="#7C4DBC" stroke-width="0.9"/><circle cx="118" cy="124" r="4" fill="#E4D9F5" stroke="#7C4DBC" stroke-width="0.9"/><circle cx="159" cy="94" r="4" fill="#E4D9F5" stroke="#7C4DBC" stroke-width="0.9"/><circle cx="90" cy="107" r="4" fill="#E4D9F5" stroke="#7C4DBC" stroke-width="0.9"/><circle cx="98" cy="114" r="4" fill="#E4D9F5" stroke="#7C4DBC" stroke-width="0.9"/><circle cx="78" cy="79" r="4" fill="#E4D9F5" stroke="#7C4DBC" stroke-width="0.9"/><circle cx="154" cy="54" r="4" fill="#E4D9F5" stroke="#7C4DBC" stroke-width="0.9"/><circle cx="142" cy="106" r="4" fill="#E4D9F5" stroke="#7C4DBC" stroke-width="0.9"/><circle cx="158" cy="65" r="4" fill="#E4D9F5" stroke="#7C4DBC" stroke-width="0.9"/><circle cx="136" cy="121" r="4" fill="#E4D9F5" stroke="#7C4DBC" stroke-width="0.9"/><circle cx="82" cy="58" r="4" fill="#E4D9F5" stroke="#7C4DBC" stroke-width="0.9"/><circle cx="148" cy="52" r="4" fill="#E4D9F5" stroke="#7C4DBC" stroke-width="0.9"/>
  <text x="120.0" y="152" font-family="sans-serif" font-size="7.5" fill="#1b2430" text-anchor="middle" opacity="0.55">TB — caseating granuloma within lung parenchyma</text>
</svg>