<svg xmlns="http://www.w3.org/2000/svg" viewBox="0 0 240 160" width="240" height="160">
  <rect width="240" height="160" fill="#f8f5fc"/>
<rect x="10" y="20" width="220" height="60" fill="#F1ECFA" stroke="#7C4DBC" stroke-width="1.4"/><circle cx="174" cy="40" r="2.4" fill="#cdb8ec" stroke="#7C4DBC" stroke-width="0.6"/><circle cx="204" cy="46" r="2.4" fill="#cdb8ec" stroke="#7C4DBC" stroke-width="0.6"/><circle cx="218" cy="68" r="2.4" fill="#cdb8ec" stroke="#7C4DBC" stroke-width="0.6"/><circle cx="204" cy="65" r="2.4" fill="#cdb8ec" stroke="#7C4DBC" stroke-width="0.6"/><circle cx="150" cy="25" r="2.4" fill="#cdb8ec" stroke="#7C4DBC" stroke-width="0.6"/><circle cx="134" cy="73" r="2.4" fill="#cdb8ec" stroke="#7C4DBC" stroke-width="0.6"/><circle cx="78" cy="65" r="2.4" fill="#cdb8ec" stroke="#7C4DBC" stroke-width="0.6"/><circle cx="28" cy="34" r="2.4" fill="#cdb8ec" stroke="#7C4DBC" stroke-width="0.6"/><circle cx="43" cy="47" r="2.4" fill="#cdb8ec" stroke="#7C4DBC" stroke-width="0.6"/><circle cx="135" cy="39" r="2.4" fill="#cdb8ec" stroke="#7C4DBC" stroke-width="0.6"/><circle cx="112" cy="58" r="2.4" fill="#cdb8ec" stroke="#7C4DBC" stroke-width="0.6"/><circle cx="41" cy="60" r="2.4" fill="#cdb8ec" stroke="#7C4DBC" stroke-width="0.6"/><circle cx="78" cy="24" r="2.4" fill="#cdb8ec" stroke="#7C4DBC" stroke-width="0.6"/><circle cx="202" cy="37" r="2.4" fill="#cdb8ec" stroke="#7C4DBC" stroke-width="0.6"/><circle cx="119" cy="41" r="2.4" fill="#cdb8ec" stroke="#7C4DBC" stroke-width="0.6"/><circle cx="61" cy="73" r="2.4" fill="#cdb8ec" stroke="#7C4DBC" stroke-width="0.6"/><circle cx="114" cy="34" r="2.4" fill="#cdb8ec" stroke="#7C4DBC" stroke-width="0.6"/><circle cx="210" cy="75" r="2.4" fill="#cdb8ec" stroke="#7C4DBC" stroke-width="0.6"/><circle cx="33" cy="32" r="2.4" fill="#cdb8ec" stroke="#7C4DBC" stroke-width="0.6"/><circle cx="173" cy="63" r="2.4" fill="#cdb8ec" stroke="#7C4DBC" stroke-width="0.6"/><rect x="10" y="82" width="220" height="58" fill="#FCEFD8" stroke="#7C4DBC" stroke-width="1.4"/><rect x="17" y="90" width="10" height="42" rx="4" fill="#fdf6e3" stroke="#7C4DBC" stroke-width="1"/><ellipse cx="22" cy="100" rx="4" ry="5" fill="#fff" stroke="#4a2e7a" stroke-width="1"/><rect x="32" y="90" width="10" height="42" rx="4" fill="#fdf6e3" stroke="#7C4DBC" stroke-width="1"/><ellipse cx="37" cy="100" rx="4" ry="5" fill="#fff" stroke="#4a2e7a" stroke-width="1"/><rect x="47" y="90" width="10" height="42" rx="4" fill="#fdf6e3" stroke="#7C4DBC" stroke-width="1"/><ellipse cx="52" cy="100" rx="4" ry="5" fill="#fff" stroke="#4a2e7a" stroke-width="1"/><rect x="62" y="90" width="10" height="42" rx="4" fill="#fdf6e3" stroke="#7C4DBC" stroke-width="1"/><ellipse cx="67" cy="100" rx="4" ry="5" fill="#fff" stroke="#4a2e7a" stroke-width="1"/><rect x="77" y="90" width="10" height="42" rx="4" fill="#fdf6e3" stroke="#7C4DBC" stroke-width="1"/><ellipse cx="82" cy="100" rx="4" ry="5" fill="#fff" stroke="#4a2e7a" stroke-width="1"/><rect x="92" y="90" width="10" height="42" rx="4" fill="#fdf6e3" stroke="#7C4DBC" stroke-width="1"/><ellipse cx="97" cy="100" rx="4" ry="5" fill="#fff" stroke="#4a2e7a" stroke-width="1"/><rect x="107" y="90" width="10" height="42" rx="4" fill="#fdf6e3" stroke="#7C4DBC" stroke-width="1"/><ellipse cx="112" cy="100" rx="4" ry="5" fill="#fff" stroke="#4a2e7a" stroke-width="1"/><rect x="122" y="90" width="10" height="42" rx="4" fill="#fdf6e3" stroke="#7C4DBC" stroke-width="1"/><ellipse cx="127" cy="100" rx="4" ry="5" fill="#fff" stroke="#4a2e7a" stroke-width="1"/><rect x="137" y="90" width="10" height="42" rx="4" fill="#fdf6e3" stroke="#7C4DBC" stroke-width="1"/><ellipse cx="142" cy="100" rx="4" ry="5" fill="#fff" stroke="#4a2e7a" stroke-width="1"/><rect x="152" y="90" width="10" height="42" rx="4" fill="#fdf6e3" stroke="#7C4DBC" stroke-width="1"/><ellipse cx="157" cy="100" rx="4" ry="5" fill="#fff" stroke="#4a2e7a" stroke-width="1"/><rect x="167" y="90" width="10" height="42" rx="4" fill="#fdf6e3" stroke="#7C4DBC" stroke-width="1"/><ellipse cx="172" cy="100" rx="4" ry="5" fill="#fff" stroke="#4a2e7a" stroke-width="1"/><rect x="182" y="90" width="10" height="42" rx="4" fill="#fdf6e3" stroke="#7C4DBC" stroke-width="1"/><ellipse cx="187" cy="100" rx="4" ry="5" fill="#fff" stroke="#4a2e7a" stroke-width="1"/><rect x="197" y="90" width="10" height="42" rx="4" fill="#fdf6e3" stroke="#7C4DBC" stroke-width="1"/><ellipse cx="202" cy="100" rx="4" ry="5" fill="#fff" stroke="#4a2e7a" stroke-width="1"/><rect x="212" y="90" width="10" height="42" rx="4" fill="#fdf6e3" stroke="#7C4DBC" stroke-width="1"/><ellipse cx="217" cy="100" rx="4" ry="5" fill="#fff" stroke="#4a2e7a" stroke-width="1"/>
  <text x="120.0" y="152" font-family="sans-serif" font-size="7.5" fill="#1b2430" text-anchor="middle" opacity="0.55">Barrett esophagus - intestinal metaplasia with goblet cells</text>
</svg>