<svg xmlns="http://www.w3.org/2000/svg" viewBox="0 0 240 160" width="240" height="160">
  <rect width="240" height="160" fill="#f8f5fc"/>
  <circle cx="124" cy="108" r="16" fill="#f8f5fc" stroke="#7C4DBC" stroke-width="1.6"/><circle cx="124" cy="100" r="2.4" fill="#1b2430"/><circle cx="78" cy="103" r="14" fill="#f8f5fc" stroke="#7C4DBC" stroke-width="1.6"/><circle cx="78" cy="96" r="2.4" fill="#1b2430"/><circle cx="152" cy="28" r="10" fill="#f8f5fc" stroke="#7C4DBC" stroke-width="1.6"/><circle cx="152" cy="23" r="2.4" fill="#1b2430"/><circle cx="97" cy="101" r="12" fill="#f8f5fc" stroke="#7C4DBC" stroke-width="1.6"/><circle cx="97" cy="95" r="2.4" fill="#1b2430"/><circle cx="120" cy="52" r="15" fill="#f8f5fc" stroke="#7C4DBC" stroke-width="1.6"/><circle cx="120" cy="44" r="2.4" fill="#1b2430"/><circle cx="209" cy="61" r="16" fill="#f8f5fc" stroke="#7C4DBC" stroke-width="1.6"/><circle cx="209" cy="53" r="2.4" fill="#1b2430"/><circle cx="32" cy="108" r="15" fill="#f8f5fc" stroke="#7C4DBC" stroke-width="1.6"/><circle cx="32" cy="101" r="2.4" fill="#1b2430"/><circle cx="50" cy="96" r="13" fill="#f8f5fc" stroke="#7C4DBC" stroke-width="1.6"/><circle cx="50" cy="89" r="2.4" fill="#1b2430"/><circle cx="211" cy="39" r="13" fill="#f8f5fc" stroke="#7C4DBC" stroke-width="1.6"/><circle cx="211" cy="33" r="2.4" fill="#1b2430"/><circle cx="196" cy="88" r="12" fill="#f8f5fc" stroke="#7C4DBC" stroke-width="1.6"/><circle cx="196" cy="83" r="2.4" fill="#1b2430"/><circle cx="36" cy="123" r="13" fill="#f8f5fc" stroke="#7C4DBC" stroke-width="1.6"/><circle cx="36" cy="117" r="2.4" fill="#1b2430"/><circle cx="219" cy="31" r="15" fill="#f8f5fc" stroke="#7C4DBC" stroke-width="1.6"/><circle cx="219" cy="24" r="2.4" fill="#1b2430"/><circle cx="183" cy="121" r="10" fill="#f8f5fc" stroke="#7C4DBC" stroke-width="1.6"/><circle cx="183" cy="116" r="2.4" fill="#1b2430"/><circle cx="94" cy="21" r="15" fill="#f8f5fc" stroke="#7C4DBC" stroke-width="1.6"/><circle cx="94" cy="14" r="2.4" fill="#1b2430"/><circle cx="91" cy="125" r="12" fill="#f8f5fc" stroke="#7C4DBC" stroke-width="1.6"/><circle cx="91" cy="119" r="2.4" fill="#1b2430"/><circle cx="175" cy="115" r="11" fill="#f8f5fc" stroke="#7C4DBC" stroke-width="1.6"/><circle cx="175" cy="109" r="2.4" fill="#1b2430"/>
  <text x="120.0" y="152" font-family="sans-serif" font-size="7.5" fill="#1b2430" text-anchor="middle" opacity="0.55">Renal cell carcinoma — clear cell nests</text>
</svg>