<svg xmlns="http://www.w3.org/2000/svg" viewBox="0 0 240 160" width="240" height="160">
  <rect width="240" height="160" fill="#f8f5fc"/>
  <rect x="8" y="8" width="224" height="136" rx="12" fill="#F1ECFA" stroke="#7C4DBC" stroke-width="2"/><circle cx="198.5" cy="48.1" r="11.2" fill="#E4D9F5" stroke="#7C4DBC" stroke-width="1.1"/><circle cx="198.5" cy="48.1" r="3.9" fill="#7C4DBC"/><circle cx="106.4" cy="80.4" r="9.1" fill="#E4D9F5" stroke="#7C4DBC" stroke-width="1.1"/><circle cx="106.4" cy="80.4" r="3.2" fill="#7C4DBC"/><circle cx="39.0" cy="114.9" r="11.7" fill="#E4D9F5" stroke="#7C4DBC" stroke-width="1.1"/><circle cx="39.0" cy="114.9" r="4.1" fill="#7C4DBC"/><circle cx="105.7" cy="66.5" r="11.5" fill="#E4D9F5" stroke="#7C4DBC" stroke-width="1.1"/><circle cx="105.7" cy="66.5" r="4.0" fill="#7C4DBC"/><circle cx="206.4" cy="103.4" r="8.4" fill="#E4D9F5" stroke="#7C4DBC" stroke-width="1.1"/><circle cx="206.4" cy="103.4" r="3.0" fill="#7C4DBC"/><circle cx="178.0" cy="102.1" r="12.5" fill="#E4D9F5" stroke="#7C4DBC" stroke-width="1.1"/><circle cx="178.0" cy="102.1" r="4.4" fill="#7C4DBC"/><circle cx="172.2" cy="70.2" r="12.8" fill="#E4D9F5" stroke="#7C4DBC" stroke-width="1.1"/><circle cx="172.2" cy="70.2" r="4.5" fill="#7C4DBC"/><circle cx="128.5" cy="60.7" r="8.6" fill="#E4D9F5" stroke="#7C4DBC" stroke-width="1.1"/><circle cx="128.5" cy="60.7" r="3.0" fill="#7C4DBC"/><circle cx="183.4" cy="37.2" r="11.0" fill="#E4D9F5" stroke="#7C4DBC" stroke-width="1.1"/><circle cx="183.4" cy="37.2" r="3.9" fill="#7C4DBC"/>
  <text x="120.0" y="152" font-family="sans-serif" font-size="8.5" fill="#1b2430" text-anchor="middle" opacity="0.55">Renal Cell Carcinoma (schematic placeholder)</text>
</svg>