<svg xmlns="http://www.w3.org/2000/svg" viewBox="0 0 240 160" width="240" height="160">
  <rect width="240" height="160" fill="#f8f5fc"/>
  <ellipse cx="120" cy="85" rx="50" ry="42" fill="none" stroke="#7C4DBC" stroke-width="5"/>
  <circle cx="116.4" cy="89.5" r="2" fill="#9B7FC4" opacity="0.7"/><circle cx="152.2" cy="82.4" r="2" fill="#9B7FC4" opacity="0.7"/><circle cx="120.6" cy="91.6" r="2" fill="#9B7FC4" opacity="0.7"/><circle cx="96.0" cy="85.9" r="2" fill="#9B7FC4" opacity="0.7"/><circle cx="129.9" cy="107.3" r="2" fill="#9B7FC4" opacity="0.7"/><circle cx="89.2" cy="70.1" r="2" fill="#9B7FC4" opacity="0.7"/><circle cx="88.9" cy="108.5" r="2" fill="#9B7FC4" opacity="0.7"/><circle cx="134.7" cy="50.2" r="2" fill="#9B7FC4" opacity="0.7"/><circle cx="156.6" cy="120.3" r="2" fill="#9B7FC4" opacity="0.7"/><circle cx="131.7" cy="93.8" r="2" fill="#9B7FC4" opacity="0.7"/><circle cx="94.0" cy="48.1" r="2" fill="#9B7FC4" opacity="0.7"/><circle cx="122.2" cy="51.5" r="2" fill="#9B7FC4" opacity="0.7"/><circle cx="96.5" cy="65.4" r="2" fill="#9B7FC4" opacity="0.7"/><circle cx="84.3" cy="82.3" r="2" fill="#9B7FC4" opacity="0.7"/><circle cx="115.5" cy="111.0" r="2" fill="#9B7FC4" opacity="0.7"/><circle cx="121.5" cy="95.7" r="2" fill="#9B7FC4" opacity="0.7"/><circle cx="120.0" cy="97.3" r="2" fill="#9B7FC4" opacity="0.7"/><circle cx="116.8" cy="68.1" r="2" fill="#9B7FC4" opacity="0.7"/><circle cx="157.8" cy="122.7" r="2" fill="#9B7FC4" opacity="0.7"/><circle cx="145.9" cy="100.8" r="2" fill="#9B7FC4" opacity="0.7"/><circle cx="106.0" cy="64.5" r="2" fill="#9B7FC4" opacity="0.7"/><circle cx="104.0" cy="52.3" r="2" fill="#9B7FC4" opacity="0.7"/>
  <text x="120" y="140" font-size="6.5" fill="#7C4DBC" text-anchor="middle">interstitial amyloid deposits (Congo Red+)</text>
  <text x="120.0" y="152" font-family="sans-serif" font-size="7.5" fill="#1b2430" text-anchor="middle" opacity="0.55">Restrictive cardiomyopathy — stiff wall with amyloid infiltration</text>
</svg>