<svg xmlns="http://www.w3.org/2000/svg" viewBox="0 0 240 160" width="240" height="160">
  <rect width="240" height="160" fill="#f8f5fc"/>
  <rect x="8" y="8" width="224" height="136" rx="12" fill="#F1ECFA" stroke="#7C4DBC" stroke-width="2"/><circle cx="52.2" cy="50.9" r="10.7" fill="#E4D9F5" stroke="#7C4DBC" stroke-width="1.1"/><circle cx="52.2" cy="50.9" r="3.7" fill="#7C4DBC"/><circle cx="156.0" cy="31.9" r="10.4" fill="#E4D9F5" stroke="#7C4DBC" stroke-width="1.1"/><circle cx="156.0" cy="31.9" r="3.7" fill="#7C4DBC"/><circle cx="43.8" cy="121.9" r="7.3" fill="#E4D9F5" stroke="#7C4DBC" stroke-width="1.1"/><circle cx="43.8" cy="121.9" r="2.6" fill="#7C4DBC"/><circle cx="67.7" cy="33.9" r="8.6" fill="#E4D9F5" stroke="#7C4DBC" stroke-width="1.1"/><circle cx="67.7" cy="33.9" r="3.0" fill="#7C4DBC"/><circle cx="88.9" cy="58.4" r="10.4" fill="#E4D9F5" stroke="#7C4DBC" stroke-width="1.1"/><circle cx="88.9" cy="58.4" r="3.6" fill="#7C4DBC"/><circle cx="122.8" cy="62.0" r="8.4" fill="#E4D9F5" stroke="#7C4DBC" stroke-width="1.1"/><circle cx="122.8" cy="62.0" r="2.9" fill="#7C4DBC"/><circle cx="146.9" cy="68.3" r="12.4" fill="#E4D9F5" stroke="#7C4DBC" stroke-width="1.1"/><circle cx="146.9" cy="68.3" r="4.3" fill="#7C4DBC"/><circle cx="123.6" cy="92.8" r="12.7" fill="#E4D9F5" stroke="#7C4DBC" stroke-width="1.1"/><circle cx="123.6" cy="92.8" r="4.4" fill="#7C4DBC"/><circle cx="131.4" cy="110.3" r="11.0" fill="#E4D9F5" stroke="#7C4DBC" stroke-width="1.1"/><circle cx="131.4" cy="110.3" r="3.8" fill="#7C4DBC"/>
  <text x="120.0" y="152" font-family="sans-serif" font-size="8.5" fill="#1b2430" text-anchor="middle" opacity="0.55">Rheumatoid Arthritis (schematic placeholder)</text>
</svg>