<svg xmlns="http://www.w3.org/2000/svg" viewBox="0 0 240 160" width="240" height="160">
  <rect width="240" height="160" fill="#f8f5fc"/>
  <rect x="0" y="0" width="240" height="60" fill="#F1ECFA" opacity="0.5"/><rect x="0" y="100" width="240" height="60" fill="#F1ECFA" opacity="0.5"/><circle cx="167" cy="97" r="6" fill="#E4D9F5" stroke="#7C4DBC" stroke-width="1"/><circle cx="50" cy="105" r="6" fill="#E4D9F5" stroke="#7C4DBC" stroke-width="1"/><circle cx="53" cy="89" r="6" fill="#E4D9F5" stroke="#7C4DBC" stroke-width="1"/><circle cx="30" cy="93" r="6" fill="#E4D9F5" stroke="#7C4DBC" stroke-width="1"/><circle cx="43" cy="90" r="6" fill="#E4D9F5" stroke="#7C4DBC" stroke-width="1"/><circle cx="169" cy="93" r="6" fill="#E4D9F5" stroke="#7C4DBC" stroke-width="1"/><circle cx="107" cy="98" r="6" fill="#E4D9F5" stroke="#7C4DBC" stroke-width="1"/><circle cx="227" cy="61" r="6" fill="#E4D9F5" stroke="#7C4DBC" stroke-width="1"/><circle cx="124" cy="103" r="6" fill="#E4D9F5" stroke="#7C4DBC" stroke-width="1"/><circle cx="173" cy="77" r="6" fill="#E4D9F5" stroke="#7C4DBC" stroke-width="1"/><circle cx="77" cy="103" r="6" fill="#E4D9F5" stroke="#7C4DBC" stroke-width="1"/><circle cx="29" cy="93" r="6" fill="#E4D9F5" stroke="#7C4DBC" stroke-width="1"/><circle cx="196" cy="63" r="6" fill="#E4D9F5" stroke="#7C4DBC" stroke-width="1"/><circle cx="82" cy="70" r="6" fill="#E4D9F5" stroke="#7C4DBC" stroke-width="1"/><circle cx="129" cy="73" r="6" fill="#E4D9F5" stroke="#7C4DBC" stroke-width="1"/><circle cx="207" cy="101" r="6" fill="#E4D9F5" stroke="#7C4DBC" stroke-width="1"/><circle cx="80" cy="100" r="6" fill="#E4D9F5" stroke="#7C4DBC" stroke-width="1"/><circle cx="25" cy="60" r="6" fill="#E4D9F5" stroke="#7C4DBC" stroke-width="1"/><circle cx="156" cy="95" r="6" fill="#E4D9F5" stroke="#7C4DBC" stroke-width="1"/><circle cx="190" cy="105" r="6" fill="#E4D9F5" stroke="#7C4DBC" stroke-width="1"/><circle cx="199" cy="68" r="6" fill="#E4D9F5" stroke="#7C4DBC" stroke-width="1"/><circle cx="173" cy="101" r="6" fill="#E4D9F5" stroke="#7C4DBC" stroke-width="1"/><path d="M20 70 Q120 50 220 75" stroke="#c0392b" stroke-width="2" fill="none" opacity="0.7"/>
  <text x="120.0" y="152" font-family="sans-serif" font-size="7.5" fill="#1b2430" text-anchor="middle" opacity="0.55">Rheumatoid arthritis — pannus invading the joint</text>
</svg>