<svg xmlns="http://www.w3.org/2000/svg" viewBox="0 0 240 160" width="240" height="160">
  <rect width="240" height="160" fill="#f8f5fc"/>
  <line x1="0" y1="20" x2="240" y2="20" stroke="#7C4DBC" stroke-width="3" opacity="0.35"/><line x1="0" y1="46" x2="240" y2="46" stroke="#7C4DBC" stroke-width="3" opacity="0.35"/><line x1="0" y1="72" x2="240" y2="72" stroke="#7C4DBC" stroke-width="3" opacity="0.35"/><line x1="0" y1="98" x2="240" y2="98" stroke="#7C4DBC" stroke-width="3" opacity="0.35"/><line x1="0" y1="124" x2="240" y2="124" stroke="#7C4DBC" stroke-width="3" opacity="0.35"/><path d="M95 60 q 15 -12 35 -8 q 20 4 22 22 q 2 18 -16 26 q -18 8 -32 -4 q -14 -12 -9 -36 Z" fill="#D9C49A" opacity="0.85" stroke="#c0392b" stroke-width="1.2"/><ellipse cx="124" cy="57" rx="5" ry="3.5" fill="#E4D9F5" stroke="#7C4DBC" stroke-width="1"/><ellipse cx="89" cy="91" rx="5" ry="3.5" fill="#E4D9F5" stroke="#7C4DBC" stroke-width="1"/><ellipse cx="146" cy="88" rx="5" ry="3.5" fill="#E4D9F5" stroke="#7C4DBC" stroke-width="1"/><ellipse cx="84" cy="94" rx="5" ry="3.5" fill="#E4D9F5" stroke="#7C4DBC" stroke-width="1"/><ellipse cx="93" cy="111" rx="5" ry="3.5" fill="#E4D9F5" stroke="#7C4DBC" stroke-width="1"/><ellipse cx="110" cy="120" rx="5" ry="3.5" fill="#E4D9F5" stroke="#7C4DBC" stroke-width="1"/><ellipse cx="111" cy="60" rx="5" ry="3.5" fill="#E4D9F5" stroke="#7C4DBC" stroke-width="1"/><ellipse cx="85" cy="81" rx="5" ry="3.5" fill="#E4D9F5" stroke="#7C4DBC" stroke-width="1"/>
  <text x="120.0" y="152" font-family="sans-serif" font-size="7.5" fill="#1b2430" text-anchor="middle" opacity="0.55">Rheumatic carditis — Aschoff body in myocardium</text>
</svg>