<svg xmlns="http://www.w3.org/2000/svg" viewBox="0 0 240 160" width="240" height="160">
  <rect width="240" height="160" fill="#f8f5fc"/>
  <rect x="8" y="8" width="224" height="136" rx="12" fill="#F1ECFA" stroke="#7C4DBC" stroke-width="2"/><circle cx="155.6" cy="63.6" r="11.3" fill="#E4D9F5" stroke="#7C4DBC" stroke-width="1.1"/><circle cx="155.6" cy="63.6" r="3.9" fill="#7C4DBC"/><circle cx="158.1" cy="71.9" r="8.9" fill="#E4D9F5" stroke="#7C4DBC" stroke-width="1.1"/><circle cx="158.1" cy="71.9" r="3.1" fill="#7C4DBC"/><circle cx="208.5" cy="103.7" r="7.5" fill="#E4D9F5" stroke="#7C4DBC" stroke-width="1.1"/><circle cx="208.5" cy="103.7" r="2.6" fill="#7C4DBC"/><circle cx="71.1" cy="103.7" r="9.0" fill="#E4D9F5" stroke="#7C4DBC" stroke-width="1.1"/><circle cx="71.1" cy="103.7" r="3.2" fill="#7C4DBC"/><circle cx="28.9" cy="46.2" r="11.5" fill="#E4D9F5" stroke="#7C4DBC" stroke-width="1.1"/><circle cx="28.9" cy="46.2" r="4.0" fill="#7C4DBC"/><circle cx="104.3" cy="56.4" r="8.3" fill="#E4D9F5" stroke="#7C4DBC" stroke-width="1.1"/><circle cx="104.3" cy="56.4" r="2.9" fill="#7C4DBC"/><circle cx="147.2" cy="60.2" r="9.0" fill="#E4D9F5" stroke="#7C4DBC" stroke-width="1.1"/><circle cx="147.2" cy="60.2" r="3.1" fill="#7C4DBC"/><circle cx="94.0" cy="98.0" r="7.8" fill="#E4D9F5" stroke="#7C4DBC" stroke-width="1.1"/><circle cx="94.0" cy="98.0" r="2.7" fill="#7C4DBC"/><circle cx="195.5" cy="63.9" r="8.1" fill="#E4D9F5" stroke="#7C4DBC" stroke-width="1.1"/><circle cx="195.5" cy="63.9" r="2.8" fill="#7C4DBC"/>
  <text x="120.0" y="152" font-family="sans-serif" font-size="8.5" fill="#1b2430" text-anchor="middle" opacity="0.55">Rheumatic Heart Disease (schematic placeholder)</text>
</svg>