<svg xmlns="http://www.w3.org/2000/svg" viewBox="0 0 240 160" width="240" height="160">
  <rect width="240" height="160" fill="#f8f5fc"/>
<ellipse cx="120" cy="85" rx="95" ry="58" fill="#F1ECFA" stroke="#7C4DBC" stroke-width="1.6"/><circle cx="161" cy="79" r="9" fill="#fff" stroke="#7C4DBC" stroke-width="1.2"/><circle cx="161" cy="79" r="4" fill="#cdb8ec"/><circle cx="175" cy="89" r="9" fill="#fff" stroke="#7C4DBC" stroke-width="1.2"/><circle cx="175" cy="89" r="4" fill="#cdb8ec"/><circle cx="76" cy="93" r="9" fill="#fff" stroke="#7C4DBC" stroke-width="1.2"/><circle cx="76" cy="93" r="4" fill="#cdb8ec"/><circle cx="42" cy="92" r="9" fill="#fff" stroke="#7C4DBC" stroke-width="1.2"/><circle cx="42" cy="92" r="4" fill="#cdb8ec"/><circle cx="163" cy="80" r="9" fill="#fff" stroke="#7C4DBC" stroke-width="1.2"/><circle cx="163" cy="80" r="4" fill="#cdb8ec"/><circle cx="157" cy="121" r="9" fill="#fff" stroke="#7C4DBC" stroke-width="1.2"/><circle cx="157" cy="121" r="4" fill="#cdb8ec"/><circle cx="98" cy="116" r="9" fill="#fff" stroke="#7C4DBC" stroke-width="1.2"/><circle cx="98" cy="116" r="4" fill="#cdb8ec"/><circle cx="40" cy="124" r="9" fill="#fff" stroke="#7C4DBC" stroke-width="1.2"/><circle cx="40" cy="124" r="4" fill="#cdb8ec"/><circle cx="77" cy="101" r="9" fill="#fff" stroke="#7C4DBC" stroke-width="1.2"/><circle cx="77" cy="101" r="4" fill="#cdb8ec"/><circle cx="134" cy="65" r="9" fill="#fff" stroke="#7C4DBC" stroke-width="1.2"/><circle cx="134" cy="65" r="4" fill="#cdb8ec"/><path d="M97 76 q3 -8 6 0 q3 8 6 0" stroke="#9b7cc9" stroke-width="2" fill="none"/><path d="M61 75 q3 -8 6 0 q3 8 6 0" stroke="#9b7cc9" stroke-width="2" fill="none"/><path d="M63 115 q3 -8 6 0 q3 8 6 0" stroke="#9b7cc9" stroke-width="2" fill="none"/><path d="M141 93 q3 -8 6 0 q3 8 6 0" stroke="#9b7cc9" stroke-width="2" fill="none"/><path d="M141 101 q3 -8 6 0 q3 8 6 0" stroke="#9b7cc9" stroke-width="2" fill="none"/><path d="M156 61 q3 -8 6 0 q3 8 6 0" stroke="#9b7cc9" stroke-width="2" fill="none"/>
  <text x="120.0" y="152" font-family="sans-serif" font-size="7.5" fill="#1b2430" text-anchor="middle" opacity="0.55">Pleomorphic adenoma - ducts in chondromyxoid stroma</text>
</svg>