<svg xmlns="http://www.w3.org/2000/svg" viewBox="0 0 240 160" width="240" height="160">
  <rect width="240" height="160" fill="#f8f5fc"/>
<circle cx="60" cy="60" r="28" fill="#F1ECFA" stroke="#7C4DBC" stroke-width="1.6"/><circle cx="52.6" cy="59.3" r="4.5" fill="#fff" stroke="#1b2430" stroke-width="1"/><circle cx="52.6" cy="59.3" r="1.6" fill="#1b2430"/><circle cx="74.8" cy="55.5" r="4.5" fill="#fff" stroke="#1b2430" stroke-width="1"/><circle cx="74.8" cy="55.5" r="1.6" fill="#1b2430"/><circle cx="42.3" cy="48.9" r="4.5" fill="#fff" stroke="#1b2430" stroke-width="1"/><circle cx="42.3" cy="48.9" r="1.6" fill="#1b2430"/><circle cx="75.4" cy="69.9" r="4.5" fill="#fff" stroke="#1b2430" stroke-width="1"/><circle cx="75.4" cy="69.9" r="1.6" fill="#1b2430"/><circle cx="61.4" cy="68.4" r="4.5" fill="#fff" stroke="#1b2430" stroke-width="1"/><circle cx="61.4" cy="68.4" r="1.6" fill="#1b2430"/><circle cx="52.5" cy="75.6" r="4.5" fill="#fff" stroke="#1b2430" stroke-width="1"/><circle cx="52.5" cy="75.6" r="1.6" fill="#1b2430"/><circle cx="75.6" cy="53.9" r="4.5" fill="#fff" stroke="#1b2430" stroke-width="1"/><circle cx="75.6" cy="53.9" r="1.6" fill="#1b2430"/><circle cx="57.4" cy="65.8" r="4.5" fill="#fff" stroke="#1b2430" stroke-width="1"/><circle cx="57.4" cy="65.8" r="1.6" fill="#1b2430"/><circle cx="58.2" cy="67.7" r="4.5" fill="#fff" stroke="#1b2430" stroke-width="1"/><circle cx="58.2" cy="67.7" r="1.6" fill="#1b2430"/><circle cx="46.8" cy="59.8" r="4.5" fill="#fff" stroke="#1b2430" stroke-width="1"/><circle cx="46.8" cy="59.8" r="1.6" fill="#1b2430"/><circle cx="65.8" cy="65.2" r="4.5" fill="#fff" stroke="#1b2430" stroke-width="1"/><circle cx="65.8" cy="65.2" r="1.6" fill="#1b2430"/><circle cx="72.0" cy="48.5" r="4.5" fill="#fff" stroke="#1b2430" stroke-width="1"/><circle cx="72.0" cy="48.5" r="1.6" fill="#1b2430"/><circle cx="76.2" cy="71.0" r="4.5" fill="#fff" stroke="#1b2430" stroke-width="1"/><circle cx="76.2" cy="71.0" r="1.6" fill="#1b2430"/><circle cx="49.6" cy="63.5" r="4.5" fill="#fff" stroke="#1b2430" stroke-width="1"/><circle cx="49.6" cy="63.5" r="1.6" fill="#1b2430"/><circle cx="150" cy="55" r="30" fill="#F1ECFA" stroke="#7C4DBC" stroke-width="1.6"/><circle cx="133.1" cy="62.4" r="4.5" fill="#fff" stroke="#1b2430" stroke-width="1"/><circle cx="133.1" cy="62.4" r="1.6" fill="#1b2430"/><circle cx="136.4" cy="51.9" r="4.5" fill="#fff" stroke="#1b2430" stroke-width="1"/><circle cx="136.4" cy="51.9" r="1.6" fill="#1b2430"/><circle cx="154.0" cy="47.5" r="4.5" fill="#fff" stroke="#1b2430" stroke-width="1"/><circle cx="154.0" cy="47.5" r="1.6" fill="#1b2430"/><circle cx="164.2" cy="52.8" r="4.5" fill="#fff" stroke="#1b2430" stroke-width="1"/><circle cx="164.2" cy="52.8" r="1.6" fill="#1b2430"/><circle cx="165.3" cy="65.9" r="4.5" fill="#fff" stroke="#1b2430" stroke-width="1"/><circle cx="165.3" cy="65.9" r="1.6" fill="#1b2430"/><circle cx="153.2" cy="78.2" r="4.5" fill="#fff" stroke="#1b2430" stroke-width="1"/><circle cx="153.2" cy="78.2" r="1.6" fill="#1b2430"/><circle cx="146.7" cy="47.6" r="4.5" fill="#fff" stroke="#1b2430" stroke-width="1"/><circle cx="146.7" cy="47.6" r="1.6" fill="#1b2430"/><circle cx="160.1" cy="52.6" r="4.5" fill="#fff" stroke="#1b2430" stroke-width="1"/><circle cx="160.1" cy="52.6" r="1.6" fill="#1b2430"/><circle cx="153.9" cy="53.8" r="4.5" fill="#fff" stroke="#1b2430" stroke-width="1"/><circle cx="153.9" cy="53.8" r="1.6" fill="#1b2430"/><circle cx="145.1" cy="70.8" r="4.5" fill="#fff" stroke="#1b2430" stroke-width="1"/><circle cx="145.1" cy="70.8" r="1.6" fill="#1b2430"/><circle cx="148.2" cy="65.5" r="4.5" fill="#fff" stroke="#1b2430" stroke-width="1"/><circle cx="148.2" cy="65.5" r="1.6" fill="#1b2430"/><circle cx="162.8" cy="64.8" r="4.5" fill="#fff" stroke="#1b2430" stroke-width="1"/><circle cx="162.8" cy="64.8" r="1.6" fill="#1b2430"/><circle cx="155.7" cy="46.7" r="4.5" fill="#fff" stroke="#1b2430" stroke-width="1"/><circle cx="155.7" cy="46.7" r="1.6" fill="#1b2430"/><circle cx="143.1" cy="42.1" r="4.5" fill="#fff" stroke="#1b2430" stroke-width="1"/><circle cx="143.1" cy="42.1" r="1.6" fill="#1b2430"/><circle cx="95" cy="115" r="26" fill="#F1ECFA" stroke="#7C4DBC" stroke-width="1.6"/><circle cx="83.9" cy="124.9" r="4.5" fill="#fff" stroke="#1b2430" stroke-width="1"/><circle cx="83.9" cy="124.9" r="1.6" fill="#1b2430"/><circle cx="93.5" cy="104.6" r="4.5" fill="#fff" stroke="#1b2430" stroke-width="1"/><circle cx="93.5" cy="104.6" r="1.6" fill="#1b2430"/><circle cx="97.1" cy="118.8" r="4.5" fill="#fff" stroke="#1b2430" stroke-width="1"/><circle cx="97.1" cy="118.8" r="1.6" fill="#1b2430"/><circle cx="93.8" cy="119.5" r="4.5" fill="#fff" stroke="#1b2430" stroke-width="1"/><circle cx="93.8" cy="119.5" r="1.6" fill="#1b2430"/><circle cx="103.3" cy="124.5" r="4.5" fill="#fff" stroke="#1b2430" stroke-width="1"/><circle cx="103.3" cy="124.5" r="1.6" fill="#1b2430"/><circle cx="77.5" cy="116.8" r="4.5" fill="#fff" stroke="#1b2430" stroke-width="1"/><circle cx="77.5" cy="116.8" r="1.6" fill="#1b2430"/><circle cx="98.7" cy="118.7" r="4.5" fill="#fff" stroke="#1b2430" stroke-width="1"/><circle cx="98.7" cy="118.7" r="1.6" fill="#1b2430"/><circle cx="102.2" cy="122.7" r="4.5" fill="#fff" stroke="#1b2430" stroke-width="1"/><circle cx="102.2" cy="122.7" r="1.6" fill="#1b2430"/><circle cx="105.5" cy="127.6" r="4.5" fill="#fff" stroke="#1b2430" stroke-width="1"/><circle cx="105.5" cy="127.6" r="1.6" fill="#1b2430"/><circle cx="77.6" cy="105.1" r="4.5" fill="#fff" stroke="#1b2430" stroke-width="1"/><circle cx="77.6" cy="105.1" r="1.6" fill="#1b2430"/><circle cx="91.1" cy="133.9" r="4.5" fill="#fff" stroke="#1b2430" stroke-width="1"/><circle cx="91.1" cy="133.9" r="1.6" fill="#1b2430"/><circle cx="87.0" cy="129.4" r="4.5" fill="#fff" stroke="#1b2430" stroke-width="1"/><circle cx="87.0" cy="129.4" r="1.6" fill="#1b2430"/><circle cx="99.7" cy="107.7" r="4.5" fill="#fff" stroke="#1b2430" stroke-width="1"/><circle cx="99.7" cy="107.7" r="1.6" fill="#1b2430"/><circle cx="93.3" cy="118.7" r="4.5" fill="#fff" stroke="#1b2430" stroke-width="1"/><circle cx="93.3" cy="118.7" r="1.6" fill="#1b2430"/><circle cx="175" cy="115" r="27" fill="#F1ECFA" stroke="#7C4DBC" stroke-width="1.6"/><circle cx="165.6" cy="112.4" r="4.5" fill="#fff" stroke="#1b2430" stroke-width="1"/><circle cx="165.6" cy="112.4" r="1.6" fill="#1b2430"/><circle cx="170.9" cy="115.2" r="4.5" fill="#fff" stroke="#1b2430" stroke-width="1"/><circle cx="170.9" cy="115.2" r="1.6" fill="#1b2430"/><circle cx="175.3" cy="128.8" r="4.5" fill="#fff" stroke="#1b2430" stroke-width="1"/><circle cx="175.3" cy="128.8" r="1.6" fill="#1b2430"/><circle cx="179.6" cy="119.0" r="4.5" fill="#fff" stroke="#1b2430" stroke-width="1"/><circle cx="179.6" cy="119.0" r="1.6" fill="#1b2430"/><circle cx="170.2" cy="100.9" r="4.5" fill="#fff" stroke="#1b2430" stroke-width="1"/><circle cx="170.2" cy="100.9" r="1.6" fill="#1b2430"/><circle cx="164.5" cy="111.9" r="4.5" fill="#fff" stroke="#1b2430" stroke-width="1"/><circle cx="164.5" cy="111.9" r="1.6" fill="#1b2430"/><circle cx="170.6" cy="115.9" r="4.5" fill="#fff" stroke="#1b2430" stroke-width="1"/><circle cx="170.6" cy="115.9" r="1.6" fill="#1b2430"/><circle cx="183.6" cy="124.1" r="4.5" fill="#fff" stroke="#1b2430" stroke-width="1"/><circle cx="183.6" cy="124.1" r="1.6" fill="#1b2430"/><circle cx="169.6" cy="132.1" r="4.5" fill="#fff" stroke="#1b2430" stroke-width="1"/><circle cx="169.6" cy="132.1" r="1.6" fill="#1b2430"/><circle cx="162.7" cy="109.2" r="4.5" fill="#fff" stroke="#1b2430" stroke-width="1"/><circle cx="162.7" cy="109.2" r="1.6" fill="#1b2430"/><circle cx="180.2" cy="108.9" r="4.5" fill="#fff" stroke="#1b2430" stroke-width="1"/><circle cx="180.2" cy="108.9" r="1.6" fill="#1b2430"/><circle cx="173.9" cy="123.6" r="4.5" fill="#fff" stroke="#1b2430" stroke-width="1"/><circle cx="173.9" cy="123.6" r="1.6" fill="#1b2430"/><circle cx="188.0" cy="104.2" r="4.5" fill="#fff" stroke="#1b2430" stroke-width="1"/><circle cx="188.0" cy="104.2" r="1.6" fill="#1b2430"/><circle cx="161.3" cy="104.2" r="4.5" fill="#fff" stroke="#1b2430" stroke-width="1"/><circle cx="161.3" cy="104.2" r="1.6" fill="#1b2430"/><circle cx="188" cy="26" r="1.6" fill="#9b7cc9" stroke="#4a2e7a" stroke-width="0.4"/><circle cx="215" cy="45" r="1.6" fill="#9b7cc9" stroke="#4a2e7a" stroke-width="0.4"/><circle cx="145" cy="66" r="1.6" fill="#9b7cc9" stroke="#4a2e7a" stroke-width="0.4"/><circle cx="115" cy="103" r="1.6" fill="#9b7cc9" stroke="#4a2e7a" stroke-width="0.4"/><circle cx="150" cy="89" r="1.6" fill="#9b7cc9" stroke="#4a2e7a" stroke-width="0.4"/><circle cx="164" cy="52" r="1.6" fill="#9b7cc9" stroke="#4a2e7a" stroke-width="0.4"/><circle cx="167" cy="81" r="1.6" fill="#9b7cc9" stroke="#4a2e7a" stroke-width="0.4"/><circle cx="42" cy="81" r="1.6" fill="#9b7cc9" stroke="#4a2e7a" stroke-width="0.4"/><circle cx="120" cy="98" r="1.6" fill="#9b7cc9" stroke="#4a2e7a" stroke-width="0.4"/><circle cx="83" cy="42" r="1.6" fill="#9b7cc9" stroke="#4a2e7a" stroke-width="0.4"/><circle cx="212" cy="98" r="1.6" fill="#9b7cc9" stroke="#4a2e7a" stroke-width="0.4"/><circle cx="94" cy="20" r="1.6" fill="#9b7cc9" stroke="#4a2e7a" stroke-width="0.4"/><circle cx="160" cy="66" r="1.6" fill="#9b7cc9" stroke="#4a2e7a" stroke-width="0.4"/><circle cx="33" cy="66" r="1.6" fill="#9b7cc9" stroke="#4a2e7a" stroke-width="0.4"/><circle cx="44" cy="131" r="1.6" fill="#9b7cc9" stroke="#4a2e7a" stroke-width="0.4"/><circle cx="114" cy="33" r="1.6" fill="#9b7cc9" stroke="#4a2e7a" stroke-width="0.4"/><circle cx="220" cy="40" r="1.6" fill="#9b7cc9" stroke="#4a2e7a" stroke-width="0.4"/><circle cx="121" cy="19" r="1.6" fill="#9b7cc9" stroke="#4a2e7a" stroke-width="0.4"/><circle cx="40" cy="123" r="1.6" fill="#9b7cc9" stroke="#4a2e7a" stroke-width="0.4"/><circle cx="208" cy="116" r="1.6" fill="#9b7cc9" stroke="#4a2e7a" stroke-width="0.4"/><circle cx="127" cy="91" r="1.6" fill="#9b7cc9" stroke="#4a2e7a" stroke-width="0.4"/><circle cx="161" cy="143" r="1.6" fill="#9b7cc9" stroke="#4a2e7a" stroke-width="0.4"/><circle cx="55" cy="119" r="1.6" fill="#9b7cc9" stroke="#4a2e7a" stroke-width="0.4"/><circle cx="74" cy="42" r="1.6" fill="#9b7cc9" stroke="#4a2e7a" stroke-width="0.4"/><circle cx="220" cy="68" r="1.6" fill="#9b7cc9" stroke="#4a2e7a" stroke-width="0.4"/><circle cx="114" cy="64" r="1.6" fill="#9b7cc9" stroke="#4a2e7a" stroke-width="0.4"/><circle cx="50" cy="49" r="1.6" fill="#9b7cc9" stroke="#4a2e7a" stroke-width="0.4"/><circle cx="175" cy="141" r="1.6" fill="#9b7cc9" stroke="#4a2e7a" stroke-width="0.4"/><circle cx="41" cy="132" r="1.6" fill="#9b7cc9" stroke="#4a2e7a" stroke-width="0.4"/><circle cx="16" cy="131" r="1.6" fill="#9b7cc9" stroke="#4a2e7a" stroke-width="0.4"/>
  <text x="120.0" y="152" font-family="sans-serif" font-size="7.5" fill="#1b2430" text-anchor="middle" opacity="0.55">Seminoma — clear cells in lobules with lymphocytic septa</text>
</svg>