<svg xmlns="http://www.w3.org/2000/svg" viewBox="0 0 240 160" width="240" height="160">
  <rect width="240" height="160" fill="#f8f5fc"/>
<circle cx="55" cy="55" r="11" fill="#E9B98A" stroke="#A9682E" stroke-width="1.4"/><circle cx="75" cy="65" r="11" fill="#E9B98A" stroke="#A9682E" stroke-width="1.4"/><circle cx="60" cy="90" r="11" fill="#E9B98A" stroke="#A9682E" stroke-width="1.4"/><circle cx="90" cy="50" r="11" fill="#E9B98A" stroke="#A9682E" stroke-width="1.4"/><circle cx="50" cy="110" r="11" fill="#E9B98A" stroke="#A9682E" stroke-width="1.4"/><circle cx="85" cy="100" r="11" fill="#E9B98A" stroke="#A9682E" stroke-width="1.4"/><rect x="53.8" y="50" width="2.4" height="10" fill="#5c2e0a" transform="rotate(30 55 55)"/><rect x="58.8" y="85" width="2.4" height="10" fill="#5c2e0a" transform="rotate(30 60 90)"/><rect x="83.8" y="95" width="2.4" height="10" fill="#5c2e0a" transform="rotate(30 85 100)"/><rect x="150" y="33" width="75" height="14" rx="7" fill="#F1ECFA" stroke="#7C4DBC" stroke-width="1.4"/><circle cx="156" cy="40" r="3" fill="#E4D9F5" stroke="#7C4DBC" stroke-width="0.6"/><circle cx="164" cy="40" r="3" fill="#E4D9F5" stroke="#7C4DBC" stroke-width="0.6"/><circle cx="172" cy="40" r="3" fill="#E4D9F5" stroke="#7C4DBC" stroke-width="0.6"/><circle cx="180" cy="40" r="3" fill="#E4D9F5" stroke="#7C4DBC" stroke-width="0.6"/><circle cx="188" cy="40" r="3" fill="#E4D9F5" stroke="#7C4DBC" stroke-width="0.6"/><circle cx="196" cy="40" r="3" fill="#E4D9F5" stroke="#7C4DBC" stroke-width="0.6"/><circle cx="204" cy="40" r="3" fill="#E4D9F5" stroke="#7C4DBC" stroke-width="0.6"/><circle cx="212" cy="40" r="3" fill="#E4D9F5" stroke="#7C4DBC" stroke-width="0.6"/><circle cx="220" cy="40" r="3" fill="#E4D9F5" stroke="#7C4DBC" stroke-width="0.6"/><rect x="150" y="53" width="75" height="14" rx="7" fill="#F1ECFA" stroke="#7C4DBC" stroke-width="1.4"/><circle cx="156" cy="60" r="3" fill="#E4D9F5" stroke="#7C4DBC" stroke-width="0.6"/><circle cx="164" cy="60" r="3" fill="#E4D9F5" stroke="#7C4DBC" stroke-width="0.6"/><circle cx="172" cy="60" r="3" fill="#E4D9F5" stroke="#7C4DBC" stroke-width="0.6"/><circle cx="180" cy="60" r="3" fill="#E4D9F5" stroke="#7C4DBC" stroke-width="0.6"/><circle cx="188" cy="60" r="3" fill="#E4D9F5" stroke="#7C4DBC" stroke-width="0.6"/><circle cx="196" cy="60" r="3" fill="#E4D9F5" stroke="#7C4DBC" stroke-width="0.6"/><circle cx="204" cy="60" r="3" fill="#E4D9F5" stroke="#7C4DBC" stroke-width="0.6"/><circle cx="212" cy="60" r="3" fill="#E4D9F5" stroke="#7C4DBC" stroke-width="0.6"/><circle cx="220" cy="60" r="3" fill="#E4D9F5" stroke="#7C4DBC" stroke-width="0.6"/><rect x="150" y="73" width="75" height="14" rx="7" fill="#F1ECFA" stroke="#7C4DBC" stroke-width="1.4"/><circle cx="156" cy="80" r="3" fill="#E4D9F5" stroke="#7C4DBC" stroke-width="0.6"/><circle cx="164" cy="80" r="3" fill="#E4D9F5" stroke="#7C4DBC" stroke-width="0.6"/><circle cx="172" cy="80" r="3" fill="#E4D9F5" stroke="#7C4DBC" stroke-width="0.6"/><circle cx="180" cy="80" r="3" fill="#E4D9F5" stroke="#7C4DBC" stroke-width="0.6"/><circle cx="188" cy="80" r="3" fill="#E4D9F5" stroke="#7C4DBC" stroke-width="0.6"/><circle cx="196" cy="80" r="3" fill="#E4D9F5" stroke="#7C4DBC" stroke-width="0.6"/><circle cx="204" cy="80" r="3" fill="#E4D9F5" stroke="#7C4DBC" stroke-width="0.6"/><circle cx="212" cy="80" r="3" fill="#E4D9F5" stroke="#7C4DBC" stroke-width="0.6"/><circle cx="220" cy="80" r="3" fill="#E4D9F5" stroke="#7C4DBC" stroke-width="0.6"/><rect x="150" y="93" width="75" height="14" rx="7" fill="#F1ECFA" stroke="#7C4DBC" stroke-width="1.4"/><circle cx="156" cy="100" r="3" fill="#E4D9F5" stroke="#7C4DBC" stroke-width="0.6"/><circle cx="164" cy="100" r="3" fill="#E4D9F5" stroke="#7C4DBC" stroke-width="0.6"/><circle cx="172" cy="100" r="3" fill="#E4D9F5" stroke="#7C4DBC" stroke-width="0.6"/><circle cx="180" cy="100" r="3" fill="#E4D9F5" stroke="#7C4DBC" stroke-width="0.6"/><circle cx="188" cy="100" r="3" fill="#E4D9F5" stroke="#7C4DBC" stroke-width="0.6"/><circle cx="196" cy="100" r="3" fill="#E4D9F5" stroke="#7C4DBC" stroke-width="0.6"/><circle cx="204" cy="100" r="3" fill="#E4D9F5" stroke="#7C4DBC" stroke-width="0.6"/><circle cx="212" cy="100" r="3" fill="#E4D9F5" stroke="#7C4DBC" stroke-width="0.6"/><circle cx="220" cy="100" r="3" fill="#E4D9F5" stroke="#7C4DBC" stroke-width="0.6"/><rect x="150" y="113" width="75" height="14" rx="7" fill="#F1ECFA" stroke="#7C4DBC" stroke-width="1.4"/><circle cx="156" cy="120" r="3" fill="#E4D9F5" stroke="#7C4DBC" stroke-width="0.6"/><circle cx="164" cy="120" r="3" fill="#E4D9F5" stroke="#7C4DBC" stroke-width="0.6"/><circle cx="172" cy="120" r="3" fill="#E4D9F5" stroke="#7C4DBC" stroke-width="0.6"/><circle cx="180" cy="120" r="3" fill="#E4D9F5" stroke="#7C4DBC" stroke-width="0.6"/><circle cx="188" cy="120" r="3" fill="#E4D9F5" stroke="#7C4DBC" stroke-width="0.6"/><circle cx="196" cy="120" r="3" fill="#E4D9F5" stroke="#7C4DBC" stroke-width="0.6"/><circle cx="204" cy="120" r="3" fill="#E4D9F5" stroke="#7C4DBC" stroke-width="0.6"/><circle cx="212" cy="120" r="3" fill="#E4D9F5" stroke="#7C4DBC" stroke-width="0.6"/><circle cx="220" cy="120" r="3" fill="#E4D9F5" stroke="#7C4DBC" stroke-width="0.6"/>
  <text x="120.0" y="152" font-family="sans-serif" font-size="7.5" fill="#1b2430" text-anchor="middle" opacity="0.55">Leydig cell (Reinke crystals) &amp; Sertoli cell (cords/tubules)</text>
</svg>