<svg xmlns="http://www.w3.org/2000/svg" viewBox="0 0 240 160" width="240" height="160">
  <rect width="240" height="160" fill="#f8f5fc"/>
  <circle cx="120" cy="85" r="55" fill="none" stroke="#7C4DBC" stroke-width="1.3" stroke-dasharray="2,2"/>
  <circle cx="87.8" cy="103.2" r="2.2" fill="#C0392B" opacity="0.7"/><circle cx="133.0" cy="83.0" r="2.2" fill="#C0392B" opacity="0.7"/><circle cx="92.7" cy="113.1" r="2.2" fill="#C0392B" opacity="0.7"/><circle cx="149.6" cy="86.2" r="2.2" fill="#C0392B" opacity="0.7"/><circle cx="120.5" cy="59.7" r="2.2" fill="#C0392B" opacity="0.7"/><circle cx="72.3" cy="72.6" r="2.2" fill="#C0392B" opacity="0.7"/><circle cx="128.2" cy="43.6" r="2.2" fill="#C0392B" opacity="0.7"/><circle cx="148.2" cy="59.3" r="2.2" fill="#C0392B" opacity="0.7"/><circle cx="94.3" cy="41.1" r="2.2" fill="#C0392B" opacity="0.7"/><circle cx="167.8" cy="107.9" r="2.2" fill="#C0392B" opacity="0.7"/><circle cx="156.0" cy="96.1" r="2.2" fill="#C0392B" opacity="0.7"/><circle cx="75.3" cy="68.6" r="2.2" fill="#C0392B" opacity="0.7"/><circle cx="119.8" cy="48.1" r="2.2" fill="#C0392B" opacity="0.7"/><circle cx="163.4" cy="72.4" r="2.2" fill="#C0392B" opacity="0.7"/><circle cx="86.9" cy="115.5" r="2.2" fill="#C0392B" opacity="0.7"/><circle cx="84.0" cy="126.1" r="2.2" fill="#C0392B" opacity="0.7"/><circle cx="115.5" cy="90.0" r="2.2" fill="#C0392B" opacity="0.7"/><circle cx="104.9" cy="83.5" r="2.2" fill="#C0392B" opacity="0.7"/><circle cx="89.9" cy="40.6" r="2.2" fill="#C0392B" opacity="0.7"/><circle cx="155.1" cy="59.5" r="2.2" fill="#C0392B" opacity="0.7"/><circle cx="146.9" cy="57.0" r="2.2" fill="#C0392B" opacity="0.7"/><circle cx="165.0" cy="122.8" r="2.2" fill="#C0392B" opacity="0.7"/><circle cx="144.5" cy="110.2" r="2.2" fill="#C0392B" opacity="0.7"/><circle cx="127.8" cy="107.1" r="2.2" fill="#C0392B" opacity="0.7"/><circle cx="83.8" cy="82.7" r="2.2" fill="#C0392B" opacity="0.7"/><circle cx="151.4" cy="56.3" r="2.2" fill="#C0392B" opacity="0.7"/><circle cx="160.6" cy="122.2" r="2.2" fill="#C0392B" opacity="0.7"/><circle cx="111.3" cy="72.1" r="2.2" fill="#C0392B" opacity="0.7"/><circle cx="115.3" cy="74.0" r="2.2" fill="#C0392B" opacity="0.7"/><circle cx="167.5" cy="74.1" r="2.2" fill="#C0392B" opacity="0.7"/>
  <circle cx="100" cy="65" r="9" fill="#C0392B" opacity="0.7"/>
  <path d="M100,65 L92,55" stroke="#C0392B" stroke-width="1.5"/>
  <text x="85" y="48" font-size="6.5" fill="#C0392B" text-anchor="middle">ruptured berry aneurysm</text>
  <text x="120" y="148" font-size="6.5" fill="#7C4DBC" text-anchor="middle">diffuse subarachnoid blood</text>
  <text x="120.0" y="152" font-family="sans-serif" font-size="7.5" fill="#1b2430" text-anchor="middle" opacity="0.55">SAH — ruptured saccular (berry) aneurysm with diffuse subarachnoid blood</text>
</svg>