<svg xmlns="http://www.w3.org/2000/svg" viewBox="0 0 240 160" width="240" height="160">
  <rect width="240" height="160" fill="#f8f5fc"/>
<ellipse cx="120" cy="85" rx="85" ry="60" fill="#f3e9ec" stroke="#7C4DBC" stroke-width="2"/><circle cx="98" cy="36" r="4" fill="#8B2331" opacity="0.55"/><circle cx="85" cy="65" r="4" fill="#8B2331" opacity="0.55"/><circle cx="59" cy="122" r="6" fill="#8B2331" opacity="0.55"/><circle cx="139" cy="65" r="5" fill="#8B2331" opacity="0.55"/><circle cx="131" cy="94" r="9" fill="#8B2331" opacity="0.55"/><circle cx="116" cy="85" r="8" fill="#8B2331" opacity="0.55"/><circle cx="133" cy="64" r="7" fill="#8B2331" opacity="0.55"/><circle cx="135" cy="75" r="7" fill="#8B2331" opacity="0.55"/><circle cx="123" cy="128" r="10" fill="#8B2331" opacity="0.55"/><circle cx="104" cy="108" r="11" fill="#8B2331" opacity="0.55"/><circle cx="152" cy="97" r="5" fill="#8B2331" opacity="0.55"/><circle cx="163" cy="107" r="9" fill="#8B2331" opacity="0.55"/><circle cx="157" cy="107" r="9" fill="#8B2331" opacity="0.55"/><circle cx="160" cy="86" r="5" fill="#8B2331" opacity="0.55"/><circle cx="170" cy="37" r="7" fill="#8B2331" opacity="0.55"/><circle cx="80" cy="103" r="6" fill="#8B2331" opacity="0.55"/><circle cx="49" cy="71" r="11" fill="#8B2331" opacity="0.55"/><circle cx="83" cy="47" r="5" fill="#8B2331" opacity="0.55"/><circle cx="146" cy="41" r="5" fill="#8B2331" opacity="0.55"/><circle cx="164" cy="127" r="8" fill="#8B2331" opacity="0.55"/><circle cx="147" cy="99" r="7" fill="#8B2331" opacity="0.55"/><circle cx="90" cy="104" r="9" fill="#8B2331" opacity="0.55"/><circle cx="65" cy="65" r="8" fill="#8B2331" opacity="0.55"/><circle cx="124" cy="56" r="9" fill="#8B2331" opacity="0.55"/><circle cx="144" cy="95" r="9" fill="#8B2331" opacity="0.55"/><circle cx="158" cy="135" r="5" fill="#8B2331" opacity="0.55"/><circle cx="114" cy="95" r="6" fill="#8B2331" opacity="0.55"/><circle cx="74" cy="121" r="11" fill="#8B2331" opacity="0.55"/><circle cx="144" cy="83" r="4" fill="#8B2331" opacity="0.55"/><circle cx="111" cy="129" r="5" fill="#8B2331" opacity="0.55"/><circle cx="118" cy="43" r="4" fill="#8B2331" opacity="0.55"/><circle cx="160" cy="42" r="8" fill="#8B2331" opacity="0.55"/><circle cx="85" cy="98" r="11" fill="#8B2331" opacity="0.55"/><circle cx="172" cy="40" r="4" fill="#8B2331" opacity="0.55"/><circle cx="166" cy="45" r="11" fill="#8B2331" opacity="0.55"/><circle cx="104" cy="134" r="11" fill="#8B2331" opacity="0.55"/><circle cx="110" cy="121" r="5" fill="#8B2331" opacity="0.55"/><circle cx="47" cy="42" r="9" fill="#8B2331" opacity="0.55"/><circle cx="142" cy="90" r="9" fill="#8B2331" opacity="0.55"/><circle cx="59" cy="114" r="8" fill="#8B2331" opacity="0.55"/><circle cx="164" cy="79" r="2" fill="#5c0f1a"/><circle cx="190" cy="43" r="2" fill="#5c0f1a"/><circle cx="160" cy="89" r="2" fill="#5c0f1a"/><circle cx="53" cy="125" r="2" fill="#5c0f1a"/><circle cx="139" cy="118" r="2" fill="#5c0f1a"/><circle cx="149" cy="106" r="2" fill="#5c0f1a"/><circle cx="50" cy="58" r="2" fill="#5c0f1a"/><circle cx="114" cy="71" r="2" fill="#5c0f1a"/>
  <text x="120.0" y="152" font-family="sans-serif" font-size="7.5" fill="#1b2430" text-anchor="middle" opacity="0.55">Testicular torsion — hemorrhagic infarction</text>
</svg>