<svg xmlns="http://www.w3.org/2000/svg" viewBox="0 0 240 160" width="240" height="160">
  <rect width="240" height="160" fill="#f8f5fc"/>
  <ellipse cx="120" cy="80" rx="60" ry="42" fill="none" stroke="#7C4DBC" stroke-width="2.5"/>
  <circle cx="108.6" cy="54.1" r="1.8" fill="#5B3A8C" opacity="0.7"/><circle cx="87.9" cy="119.7" r="1.8" fill="#5B3A8C" opacity="0.7"/><circle cx="127.5" cy="98.3" r="1.8" fill="#5B3A8C" opacity="0.7"/><circle cx="125.1" cy="68.8" r="1.8" fill="#5B3A8C" opacity="0.7"/><circle cx="142.2" cy="87.3" r="1.8" fill="#5B3A8C" opacity="0.7"/><circle cx="147.0" cy="95.5" r="1.8" fill="#5B3A8C" opacity="0.7"/><circle cx="152.6" cy="74.2" r="1.8" fill="#5B3A8C" opacity="0.7"/><circle cx="86.9" cy="46.4" r="1.8" fill="#5B3A8C" opacity="0.7"/><circle cx="141.4" cy="48.1" r="1.8" fill="#5B3A8C" opacity="0.7"/><circle cx="134.8" cy="91.6" r="1.8" fill="#5B3A8C" opacity="0.7"/><circle cx="77.7" cy="107.3" r="1.8" fill="#5B3A8C" opacity="0.7"/><circle cx="75.2" cy="115.2" r="1.8" fill="#5B3A8C" opacity="0.7"/><circle cx="152.7" cy="52.7" r="1.8" fill="#5B3A8C" opacity="0.7"/><circle cx="141.7" cy="102.3" r="1.8" fill="#5B3A8C" opacity="0.7"/><circle cx="84.0" cy="96.3" r="1.8" fill="#5B3A8C" opacity="0.7"/><circle cx="83.9" cy="119.7" r="1.8" fill="#5B3A8C" opacity="0.7"/><circle cx="138.1" cy="126.1" r="1.8" fill="#5B3A8C" opacity="0.7"/><circle cx="77.1" cy="62.5" r="1.8" fill="#5B3A8C" opacity="0.7"/><circle cx="131.5" cy="90.4" r="1.8" fill="#5B3A8C" opacity="0.7"/><circle cx="89.5" cy="117.2" r="1.8" fill="#5B3A8C" opacity="0.7"/><circle cx="153.3" cy="60.9" r="1.8" fill="#5B3A8C" opacity="0.7"/><circle cx="86.0" cy="96.1" r="1.8" fill="#5B3A8C" opacity="0.7"/><circle cx="111.1" cy="95.7" r="1.8" fill="#5B3A8C" opacity="0.7"/><circle cx="119.4" cy="69.9" r="1.8" fill="#5B3A8C" opacity="0.7"/><circle cx="74.1" cy="45.0" r="1.8" fill="#5B3A8C" opacity="0.7"/><circle cx="116.0" cy="101.9" r="1.8" fill="#5B3A8C" opacity="0.7"/><circle cx="112.9" cy="103.5" r="1.8" fill="#5B3A8C" opacity="0.7"/><circle cx="123.8" cy="116.5" r="1.8" fill="#5B3A8C" opacity="0.7"/><circle cx="134.9" cy="62.9" r="1.8" fill="#5B3A8C" opacity="0.7"/><circle cx="85.3" cy="38.3" r="1.8" fill="#5B3A8C" opacity="0.7"/><circle cx="75.8" cy="114.8" r="1.8" fill="#5B3A8C" opacity="0.7"/><circle cx="156.0" cy="104.1" r="1.8" fill="#5B3A8C" opacity="0.7"/><circle cx="82.5" cy="95.4" r="1.8" fill="#5B3A8C" opacity="0.7"/><circle cx="84.3" cy="117.4" r="1.8" fill="#5B3A8C" opacity="0.7"/><circle cx="134.9" cy="104.0" r="1.8" fill="#5B3A8C" opacity="0.7"/><circle cx="130.5" cy="72.2" r="1.8" fill="#5B3A8C" opacity="0.7"/><circle cx="153.4" cy="124.3" r="1.8" fill="#5B3A8C" opacity="0.7"/><circle cx="95.2" cy="74.0" r="1.8" fill="#5B3A8C" opacity="0.7"/><circle cx="142.4" cy="97.3" r="1.8" fill="#5B3A8C" opacity="0.7"/><circle cx="111.4" cy="75.2" r="1.8" fill="#5B3A8C" opacity="0.7"/>
  <ellipse cx="100" cy="70" rx="6" ry="5" fill="#F1ECFA" stroke="#7C4DBC" stroke-width="1"/>
  <ellipse cx="140" cy="90" rx="6" ry="5" fill="#F1ECFA" stroke="#7C4DBC" stroke-width="1"/>
  <text x="120" y="135" font-size="6.5" fill="#7C4DBC" text-anchor="middle">encapsulated thymic epithelial tumor</text>
  <text x="120.0" y="152" font-family="sans-serif" font-size="7.5" fill="#1b2430" text-anchor="middle" opacity="0.55">Thymoma — thymic epithelial cells with admixed immature thymocytes</text>
</svg>