<svg xmlns="http://www.w3.org/2000/svg" viewBox="0 0 240 160" width="240" height="160">
  <rect width="240" height="160" fill="#f8f5fc"/>
  <rect x="40" y="40" width="35" height="90" rx="8" fill="#F1ECFA" stroke="#7C4DBC" stroke-width="1.2"/>
  <rect x="90" y="40" width="35" height="90" rx="8" fill="#F1ECFA" stroke="#7C4DBC" stroke-width="1.2"/>
  <rect x="140" y="40" width="35" height="90" rx="8" fill="#F1ECFA" stroke="#7C4DBC" stroke-width="1.2"/>
  <circle cx="59.4" cy="90.5" r="1.7" fill="#5B3A8C" opacity="0.7"/><circle cx="65.2" cy="77.2" r="1.7" fill="#5B3A8C" opacity="0.7"/><circle cx="87.9" cy="96.0" r="1.7" fill="#5B3A8C" opacity="0.7"/><circle cx="64.4" cy="90.8" r="1.7" fill="#5B3A8C" opacity="0.7"/><circle cx="89.3" cy="102.6" r="1.7" fill="#5B3A8C" opacity="0.7"/><circle cx="59.0" cy="90.4" r="1.7" fill="#5B3A8C" opacity="0.7"/><circle cx="89.7" cy="89.0" r="1.7" fill="#5B3A8C" opacity="0.7"/><circle cx="81.9" cy="77.2" r="1.7" fill="#5B3A8C" opacity="0.7"/><circle cx="57.2" cy="69.6" r="1.7" fill="#5B3A8C" opacity="0.7"/><circle cx="94.2" cy="101.7" r="1.7" fill="#5B3A8C" opacity="0.7"/><circle cx="61.7" cy="77.4" r="1.7" fill="#5B3A8C" opacity="0.7"/><circle cx="92.7" cy="94.5" r="1.7" fill="#5B3A8C" opacity="0.7"/><circle cx="83.1" cy="74.6" r="1.7" fill="#5B3A8C" opacity="0.7"/><circle cx="74.9" cy="67.1" r="1.7" fill="#5B3A8C" opacity="0.7"/>
  <circle cx="120.0" cy="68.8" r="1.7" fill="#5B3A8C" opacity="0.7"/><circle cx="118.8" cy="88.9" r="1.7" fill="#5B3A8C" opacity="0.7"/><circle cx="140.2" cy="83.2" r="1.7" fill="#5B3A8C" opacity="0.7"/><circle cx="111.8" cy="82.3" r="1.7" fill="#5B3A8C" opacity="0.7"/><circle cx="132.6" cy="85.5" r="1.7" fill="#5B3A8C" opacity="0.7"/><circle cx="135.9" cy="75.9" r="1.7" fill="#5B3A8C" opacity="0.7"/><circle cx="108.5" cy="90.6" r="1.7" fill="#5B3A8C" opacity="0.7"/><circle cx="143.0" cy="102.5" r="1.7" fill="#5B3A8C" opacity="0.7"/><circle cx="107.6" cy="101.9" r="1.7" fill="#5B3A8C" opacity="0.7"/><circle cx="118.5" cy="84.2" r="1.7" fill="#5B3A8C" opacity="0.7"/>
  <circle cx="157" cy="60" r="2" fill="#C0392B"/><circle cx="162" cy="65" r="2" fill="#C0392B"/><circle cx="155" cy="70" r="2" fill="#C0392B"/>
  <text x="160" y="20" font-size="7" fill="#C0392B" text-anchor="middle">neutrophil casts (pyelonephritis)</text>
  <text x="120.0" y="152" font-family="sans-serif" font-size="7.5" fill="#1b2430" text-anchor="middle" opacity="0.55">Tubulointerstitial nephritis — interstitial infiltrate and tubular injury</text>
</svg>