<svg xmlns="http://www.w3.org/2000/svg" viewBox="0 0 240 160" width="240" height="160">
  <rect width="240" height="160" fill="#f8f5fc"/>
  <circle cx="120" cy="80" r="38" fill="#D9C49A" opacity="0.6"/>
  <circle cx="120" cy="80" r="38" fill="none" stroke="#7C4DBC" stroke-width="1.5"/>
  <circle cx="140.1" cy="101.0" r="2.0" fill="#5B3A8C" opacity="0.7"/><circle cx="145.8" cy="64.5" r="2.0" fill="#5B3A8C" opacity="0.7"/><circle cx="95.5" cy="59.3" r="2.0" fill="#5B3A8C" opacity="0.7"/><circle cx="107.4" cy="71.1" r="2.0" fill="#5B3A8C" opacity="0.7"/><circle cx="92.5" cy="112.4" r="2.0" fill="#5B3A8C" opacity="0.7"/><circle cx="102.7" cy="66.7" r="2.0" fill="#5B3A8C" opacity="0.7"/><circle cx="122.5" cy="64.8" r="2.0" fill="#5B3A8C" opacity="0.7"/><circle cx="114.9" cy="83.8" r="2.0" fill="#5B3A8C" opacity="0.7"/><circle cx="130.6" cy="49.0" r="2.0" fill="#5B3A8C" opacity="0.7"/><circle cx="125.3" cy="112.2" r="2.0" fill="#5B3A8C" opacity="0.7"/><circle cx="136.1" cy="87.2" r="2.0" fill="#5B3A8C" opacity="0.7"/><circle cx="124.0" cy="82.5" r="2.0" fill="#5B3A8C" opacity="0.7"/><circle cx="91.3" cy="105.6" r="2.0" fill="#5B3A8C" opacity="0.7"/><circle cx="121.0" cy="97.0" r="2.0" fill="#5B3A8C" opacity="0.7"/><circle cx="120.6" cy="56.4" r="2.0" fill="#5B3A8C" opacity="0.7"/><circle cx="109.4" cy="79.9" r="2.0" fill="#5B3A8C" opacity="0.7"/><circle cx="112.5" cy="92.2" r="2.0" fill="#5B3A8C" opacity="0.7"/><circle cx="119.1" cy="75.1" r="2.0" fill="#5B3A8C" opacity="0.7"/><circle cx="153.7" cy="102.7" r="2.0" fill="#5B3A8C" opacity="0.7"/><circle cx="148.4" cy="97.4" r="2.0" fill="#5B3A8C" opacity="0.7"/><circle cx="145.6" cy="98.1" r="2.0" fill="#5B3A8C" opacity="0.7"/><circle cx="119.1" cy="60.8" r="2.0" fill="#5B3A8C" opacity="0.7"/><circle cx="131.7" cy="59.4" r="2.0" fill="#5B3A8C" opacity="0.7"/><circle cx="134.2" cy="79.3" r="2.0" fill="#5B3A8C" opacity="0.7"/><circle cx="92.7" cy="51.8" r="2.0" fill="#5B3A8C" opacity="0.7"/><circle cx="142.9" cy="87.5" r="2.0" fill="#5B3A8C" opacity="0.7"/>
  <circle cx="120" cy="80" r="6" fill="#F1ECFA" stroke="#7C4DBC" stroke-width="1"/>
  <text x="120.0" y="152" font-family="sans-serif" font-size="7.5" fill="#1b2430" text-anchor="middle" opacity="0.55">Type 1 DM — insulitis (lymphocytic infiltration of islet)</text>
</svg>