<svg xmlns="http://www.w3.org/2000/svg" viewBox="0 0 240 160" width="240" height="160">
  <rect width="240" height="160" fill="#f8f5fc"/>
  <circle cx="120" cy="78" r="48" fill="#F1ECFA" stroke="#7C4DBC" stroke-width="2"/><path d="M103 55 q 8 4 4 10 q -4 6 -10 2" fill="none" stroke="#D9C49A" stroke-width="3" opacity="0.8"/><path d="M131 75 q 8 4 4 10 q -4 6 -10 2" fill="none" stroke="#D9C49A" stroke-width="3" opacity="0.8"/><path d="M150 91 q 8 4 4 10 q -4 6 -10 2" fill="none" stroke="#D9C49A" stroke-width="3" opacity="0.8"/><path d="M111 93 q 8 4 4 10 q -4 6 -10 2" fill="none" stroke="#D9C49A" stroke-width="3" opacity="0.8"/><path d="M124 68 q 8 4 4 10 q -4 6 -10 2" fill="none" stroke="#D9C49A" stroke-width="3" opacity="0.8"/><path d="M138 67 q 8 4 4 10 q -4 6 -10 2" fill="none" stroke="#D9C49A" stroke-width="3" opacity="0.8"/><path d="M152 93 q 8 4 4 10 q -4 6 -10 2" fill="none" stroke="#D9C49A" stroke-width="3" opacity="0.8"/><path d="M113 75 q 8 4 4 10 q -4 6 -10 2" fill="none" stroke="#D9C49A" stroke-width="3" opacity="0.8"/><path d="M136 52 q 8 4 4 10 q -4 6 -10 2" fill="none" stroke="#D9C49A" stroke-width="3" opacity="0.8"/><path d="M118 51 q 8 4 4 10 q -4 6 -10 2" fill="none" stroke="#D9C49A" stroke-width="3" opacity="0.8"/>
  <text x="120.0" y="152" font-family="sans-serif" font-size="7.5" fill="#1b2430" text-anchor="middle" opacity="0.55">T2DM — amyloid replacing islet cells</text>
</svg>