<svg xmlns="http://www.w3.org/2000/svg" viewBox="0 0 240 160" width="240" height="160">
  <rect width="240" height="160" fill="#f8f5fc"/>
  <rect x="8" y="8" width="224" height="136" rx="12" fill="#F1ECFA" stroke="#7C4DBC" stroke-width="2"/><circle cx="145.8" cy="78.2" r="12.3" fill="#E4D9F5" stroke="#7C4DBC" stroke-width="1.1"/><circle cx="145.8" cy="78.2" r="4.3" fill="#7C4DBC"/><circle cx="34.5" cy="60.2" r="8.7" fill="#E4D9F5" stroke="#7C4DBC" stroke-width="1.1"/><circle cx="34.5" cy="60.2" r="3.1" fill="#7C4DBC"/><circle cx="100.0" cy="94.6" r="7.3" fill="#E4D9F5" stroke="#7C4DBC" stroke-width="1.1"/><circle cx="100.0" cy="94.6" r="2.6" fill="#7C4DBC"/><circle cx="29.8" cy="48.6" r="8.7" fill="#E4D9F5" stroke="#7C4DBC" stroke-width="1.1"/><circle cx="29.8" cy="48.6" r="3.1" fill="#7C4DBC"/><circle cx="167.5" cy="123.2" r="8.3" fill="#E4D9F5" stroke="#7C4DBC" stroke-width="1.1"/><circle cx="167.5" cy="123.2" r="2.9" fill="#7C4DBC"/><circle cx="29.1" cy="110.8" r="7.8" fill="#E4D9F5" stroke="#7C4DBC" stroke-width="1.1"/><circle cx="29.1" cy="110.8" r="2.7" fill="#7C4DBC"/><circle cx="172.9" cy="34.9" r="7.8" fill="#E4D9F5" stroke="#7C4DBC" stroke-width="1.1"/><circle cx="172.9" cy="34.9" r="2.7" fill="#7C4DBC"/><circle cx="29.6" cy="29.5" r="12.6" fill="#E4D9F5" stroke="#7C4DBC" stroke-width="1.1"/><circle cx="29.6" cy="29.5" r="4.4" fill="#7C4DBC"/><circle cx="199.8" cy="100.3" r="12.3" fill="#E4D9F5" stroke="#7C4DBC" stroke-width="1.1"/><circle cx="199.8" cy="100.3" r="4.3" fill="#7C4DBC"/>
  <text x="120.0" y="152" font-family="sans-serif" font-size="8.5" fill="#1b2430" text-anchor="middle" opacity="0.55">Type 2 Diabetes Mellitus (schematic placeholder)</text>
</svg>