<svg xmlns="http://www.w3.org/2000/svg" viewBox="0 0 240 160" width="240" height="160">
  <rect width="240" height="160" fill="#f8f5fc"/>
  <rect x="8" y="8" width="224" height="136" rx="12" fill="#F1ECFA" stroke="#7C4DBC" stroke-width="2"/><circle cx="155.6" cy="71.6" r="9.9" fill="#E4D9F5" stroke="#7C4DBC" stroke-width="1.1"/><circle cx="155.6" cy="71.6" r="3.5" fill="#7C4DBC"/><circle cx="166.3" cy="122.2" r="8.9" fill="#E4D9F5" stroke="#7C4DBC" stroke-width="1.1"/><circle cx="166.3" cy="122.2" r="3.1" fill="#7C4DBC"/><circle cx="74.2" cy="62.2" r="7.4" fill="#E4D9F5" stroke="#7C4DBC" stroke-width="1.1"/><circle cx="74.2" cy="62.2" r="2.6" fill="#7C4DBC"/><circle cx="154.1" cy="102.5" r="12.4" fill="#E4D9F5" stroke="#7C4DBC" stroke-width="1.1"/><circle cx="154.1" cy="102.5" r="4.3" fill="#7C4DBC"/><circle cx="86.9" cy="85.4" r="12.4" fill="#E4D9F5" stroke="#7C4DBC" stroke-width="1.1"/><circle cx="86.9" cy="85.4" r="4.3" fill="#7C4DBC"/><circle cx="66.1" cy="70.9" r="11.0" fill="#E4D9F5" stroke="#7C4DBC" stroke-width="1.1"/><circle cx="66.1" cy="70.9" r="3.8" fill="#7C4DBC"/><circle cx="90.3" cy="54.8" r="10.3" fill="#E4D9F5" stroke="#7C4DBC" stroke-width="1.1"/><circle cx="90.3" cy="54.8" r="3.6" fill="#7C4DBC"/><circle cx="143.8" cy="110.7" r="13.0" fill="#E4D9F5" stroke="#7C4DBC" stroke-width="1.1"/><circle cx="143.8" cy="110.7" r="4.5" fill="#7C4DBC"/><circle cx="106.4" cy="92.0" r="12.1" fill="#E4D9F5" stroke="#7C4DBC" stroke-width="1.1"/><circle cx="106.4" cy="92.0" r="4.2" fill="#7C4DBC"/>
  <text x="120.0" y="152" font-family="sans-serif" font-size="8.5" fill="#1b2430" text-anchor="middle" opacity="0.55">Ulcerative Colitis (schematic placeholder)</text>
</svg>