<svg xmlns="http://www.w3.org/2000/svg" viewBox="0 0 240 160" width="240" height="160">
  <rect width="240" height="160" fill="#f8f5fc"/>
  <rect x="10" y="40" width="20" height="90" rx="9" fill="#F1ECFA" stroke="#7C4DBC" stroke-width="1.2"/><circle cx="20" cy="120" r="7" fill="#1b2430" opacity="0.55"/><rect x="39" y="40" width="20" height="90" rx="9" fill="#F1ECFA" stroke="#7C4DBC" stroke-width="1.2"/><rect x="68" y="40" width="20" height="90" rx="9" fill="#F1ECFA" stroke="#7C4DBC" stroke-width="1.2"/><circle cx="78" cy="120" r="7" fill="#1b2430" opacity="0.55"/><rect x="97" y="40" width="20" height="90" rx="9" fill="#F1ECFA" stroke="#7C4DBC" stroke-width="1.2"/><rect x="126" y="40" width="20" height="90" rx="9" fill="#F1ECFA" stroke="#7C4DBC" stroke-width="1.2"/><circle cx="136" cy="120" r="7" fill="#1b2430" opacity="0.55"/><rect x="155" y="40" width="20" height="90" rx="9" fill="#F1ECFA" stroke="#7C4DBC" stroke-width="1.2"/><rect x="184" y="40" width="20" height="90" rx="9" fill="#F1ECFA" stroke="#7C4DBC" stroke-width="1.2"/><circle cx="194" cy="120" r="7" fill="#1b2430" opacity="0.55"/><rect x="213" y="40" width="20" height="90" rx="9" fill="#F1ECFA" stroke="#7C4DBC" stroke-width="1.2"/><rect x="0" y="130" width="240" height="8" fill="#c0392b" opacity="0.5"/>
  <text x="120.0" y="152" font-family="sans-serif" font-size="7.5" fill="#1b2430" text-anchor="middle" opacity="0.55">Ulcerative colitis — continuous crypt abscesses</text>
</svg>