<svg xmlns="http://www.w3.org/2000/svg" viewBox="0 0 240 160" width="240" height="160">
  <rect width="240" height="160" fill="#f8f5fc"/>
<path d="M40 140 Q40 40 120 40 Q200 40 200 140" fill="none" stroke="#7C4DBC" stroke-width="2"/><circle cx="70" cy="70" r="14" fill="#E4D9F5" stroke="#7C4DBC" stroke-width="1.6"/><circle cx="62" cy="59" r="1.6" fill="#cdb8ec" stroke="#4a2e7a" stroke-width="0.4"/><circle cx="67" cy="59" r="1.6" fill="#cdb8ec" stroke="#4a2e7a" stroke-width="0.4"/><circle cx="76" cy="60" r="1.6" fill="#cdb8ec" stroke="#4a2e7a" stroke-width="0.4"/><circle cx="80" cy="66" r="1.6" fill="#cdb8ec" stroke="#4a2e7a" stroke-width="0.4"/><circle cx="100" cy="55" r="16" fill="#E4D9F5" stroke="#7C4DBC" stroke-width="1.6"/><circle cx="105" cy="58" r="1.6" fill="#cdb8ec" stroke="#4a2e7a" stroke-width="0.4"/><circle cx="104" cy="51" r="1.6" fill="#cdb8ec" stroke="#4a2e7a" stroke-width="0.4"/><circle cx="108" cy="66" r="1.6" fill="#cdb8ec" stroke="#4a2e7a" stroke-width="0.4"/><circle cx="100" cy="59" r="1.6" fill="#cdb8ec" stroke="#4a2e7a" stroke-width="0.4"/><circle cx="130" cy="60" r="15" fill="#E4D9F5" stroke="#7C4DBC" stroke-width="1.6"/><circle cx="120" cy="53" r="1.6" fill="#cdb8ec" stroke="#4a2e7a" stroke-width="0.4"/><circle cx="142" cy="58" r="1.6" fill="#cdb8ec" stroke="#4a2e7a" stroke-width="0.4"/><circle cx="129" cy="54" r="1.6" fill="#cdb8ec" stroke="#4a2e7a" stroke-width="0.4"/><circle cx="125" cy="63" r="1.6" fill="#cdb8ec" stroke="#4a2e7a" stroke-width="0.4"/><circle cx="160" cy="75" r="13" fill="#E4D9F5" stroke="#7C4DBC" stroke-width="1.6"/><circle cx="161" cy="81" r="1.6" fill="#cdb8ec" stroke="#4a2e7a" stroke-width="0.4"/><circle cx="151" cy="72" r="1.6" fill="#cdb8ec" stroke="#4a2e7a" stroke-width="0.4"/><circle cx="152" cy="67" r="1.6" fill="#cdb8ec" stroke="#4a2e7a" stroke-width="0.4"/><circle cx="150" cy="73" r="1.6" fill="#cdb8ec" stroke="#4a2e7a" stroke-width="0.4"/><circle cx="85" cy="100" r="15" fill="#E4D9F5" stroke="#7C4DBC" stroke-width="1.6"/><circle cx="76" cy="92" r="1.6" fill="#cdb8ec" stroke="#4a2e7a" stroke-width="0.4"/><circle cx="77" cy="97" r="1.6" fill="#cdb8ec" stroke="#4a2e7a" stroke-width="0.4"/><circle cx="91" cy="103" r="1.6" fill="#cdb8ec" stroke="#4a2e7a" stroke-width="0.4"/><circle cx="88" cy="111" r="1.6" fill="#cdb8ec" stroke="#4a2e7a" stroke-width="0.4"/><circle cx="120" cy="95" r="17" fill="#E4D9F5" stroke="#7C4DBC" stroke-width="1.6"/><circle cx="107" cy="101" r="1.6" fill="#cdb8ec" stroke="#4a2e7a" stroke-width="0.4"/><circle cx="116" cy="84" r="1.6" fill="#cdb8ec" stroke="#4a2e7a" stroke-width="0.4"/><circle cx="133" cy="90" r="1.6" fill="#cdb8ec" stroke="#4a2e7a" stroke-width="0.4"/><circle cx="113" cy="83" r="1.6" fill="#cdb8ec" stroke="#4a2e7a" stroke-width="0.4"/><circle cx="155" cy="105" r="14" fill="#E4D9F5" stroke="#7C4DBC" stroke-width="1.6"/><circle cx="150" cy="96" r="1.6" fill="#cdb8ec" stroke="#4a2e7a" stroke-width="0.4"/><circle cx="157" cy="112" r="1.6" fill="#cdb8ec" stroke="#4a2e7a" stroke-width="0.4"/><circle cx="162" cy="109" r="1.6" fill="#cdb8ec" stroke="#4a2e7a" stroke-width="0.4"/><circle cx="150" cy="116" r="1.6" fill="#cdb8ec" stroke="#4a2e7a" stroke-width="0.4"/><circle cx="105" cy="125" r="13" fill="#E4D9F5" stroke="#7C4DBC" stroke-width="1.6"/><circle cx="100" cy="124" r="1.6" fill="#cdb8ec" stroke="#4a2e7a" stroke-width="0.4"/><circle cx="112" cy="115" r="1.6" fill="#cdb8ec" stroke="#4a2e7a" stroke-width="0.4"/><circle cx="108" cy="115" r="1.6" fill="#cdb8ec" stroke="#4a2e7a" stroke-width="0.4"/><circle cx="110" cy="135" r="1.6" fill="#cdb8ec" stroke="#4a2e7a" stroke-width="0.4"/><circle cx="140" cy="120" r="14" fill="#E4D9F5" stroke="#7C4DBC" stroke-width="1.6"/><circle cx="135" cy="111" r="1.6" fill="#cdb8ec" stroke="#4a2e7a" stroke-width="0.4"/><circle cx="142" cy="127" r="1.6" fill="#cdb8ec" stroke="#4a2e7a" stroke-width="0.4"/><circle cx="147" cy="124" r="1.6" fill="#cdb8ec" stroke="#4a2e7a" stroke-width="0.4"/><circle cx="135" cy="131" r="1.6" fill="#cdb8ec" stroke="#4a2e7a" stroke-width="0.4"/>
  <text x="120.0" y="152" font-family="sans-serif" font-size="7.5" fill="#1b2430" text-anchor="middle" opacity="0.55">Embryonal rhabdomyosarcoma — botryoid (grape-like) polypoid clusters</text>
</svg>