<svg xmlns="http://www.w3.org/2000/svg" viewBox="0 0 240 160" width="240" height="160">
  <rect width="240" height="160" fill="#f8f5fc"/>
<circle cx="164" cy="70" r="2" fill="#F1ECFA" stroke="#7C4DBC" stroke-width="0.5"/><circle cx="194" cy="96" r="2" fill="#F1ECFA" stroke="#7C4DBC" stroke-width="0.5"/><circle cx="208" cy="140" r="2" fill="#F1ECFA" stroke="#7C4DBC" stroke-width="0.5"/><circle cx="12" cy="124" r="2" fill="#F1ECFA" stroke="#7C4DBC" stroke-width="0.5"/><circle cx="203" cy="68" r="2" fill="#F1ECFA" stroke="#7C4DBC" stroke-width="0.5"/><circle cx="171" cy="18" r="2" fill="#F1ECFA" stroke="#7C4DBC" stroke-width="0.5"/><circle cx="235" cy="45" r="2" fill="#F1ECFA" stroke="#7C4DBC" stroke-width="0.5"/><circle cx="33" cy="100" r="2" fill="#F1ECFA" stroke="#7C4DBC" stroke-width="0.5"/><circle cx="125" cy="68" r="2" fill="#F1ECFA" stroke="#7C4DBC" stroke-width="0.5"/><circle cx="102" cy="31" r="2" fill="#F1ECFA" stroke="#7C4DBC" stroke-width="0.5"/><circle cx="151" cy="68" r="2" fill="#F1ECFA" stroke="#7C4DBC" stroke-width="0.5"/><circle cx="8" cy="60" r="2" fill="#F1ECFA" stroke="#7C4DBC" stroke-width="0.5"/><circle cx="109" cy="76" r="2" fill="#F1ECFA" stroke="#7C4DBC" stroke-width="0.5"/><circle cx="51" cy="104" r="2" fill="#F1ECFA" stroke="#7C4DBC" stroke-width="0.5"/><circle cx="45" cy="23" r="2" fill="#F1ECFA" stroke="#7C4DBC" stroke-width="0.5"/><circle cx="40" cy="118" r="2" fill="#F1ECFA" stroke="#7C4DBC" stroke-width="0.5"/><circle cx="37" cy="38" r="2" fill="#F1ECFA" stroke="#7C4DBC" stroke-width="0.5"/><circle cx="5" cy="6" r="2" fill="#F1ECFA" stroke="#7C4DBC" stroke-width="0.5"/><circle cx="58" cy="60" r="2" fill="#F1ECFA" stroke="#7C4DBC" stroke-width="0.5"/><circle cx="47" cy="47" r="2" fill="#F1ECFA" stroke="#7C4DBC" stroke-width="0.5"/><circle cx="79" cy="85" r="2" fill="#F1ECFA" stroke="#7C4DBC" stroke-width="0.5"/><circle cx="55" cy="57" r="2" fill="#F1ECFA" stroke="#7C4DBC" stroke-width="0.5"/><circle cx="51" cy="55" r="2" fill="#F1ECFA" stroke="#7C4DBC" stroke-width="0.5"/><circle cx="233" cy="103" r="2" fill="#F1ECFA" stroke="#7C4DBC" stroke-width="0.5"/><circle cx="81" cy="10" r="2" fill="#F1ECFA" stroke="#7C4DBC" stroke-width="0.5"/><circle cx="97" cy="111" r="2" fill="#F1ECFA" stroke="#7C4DBC" stroke-width="0.5"/><circle cx="47" cy="42" r="2" fill="#F1ECFA" stroke="#7C4DBC" stroke-width="0.5"/><circle cx="72" cy="21" r="2" fill="#F1ECFA" stroke="#7C4DBC" stroke-width="0.5"/><circle cx="89" cy="82" r="2" fill="#F1ECFA" stroke="#7C4DBC" stroke-width="0.5"/><circle cx="214" cy="5" r="2" fill="#F1ECFA" stroke="#7C4DBC" stroke-width="0.5"/><circle cx="157" cy="91" r="2" fill="#F1ECFA" stroke="#7C4DBC" stroke-width="0.5"/><circle cx="21" cy="84" r="2" fill="#F1ECFA" stroke="#7C4DBC" stroke-width="0.5"/><circle cx="95" cy="83" r="2" fill="#F1ECFA" stroke="#7C4DBC" stroke-width="0.5"/><circle cx="128" cy="85" r="2" fill="#F1ECFA" stroke="#7C4DBC" stroke-width="0.5"/><circle cx="52" cy="128" r="2" fill="#F1ECFA" stroke="#7C4DBC" stroke-width="0.5"/><circle cx="125" cy="50" r="2" fill="#F1ECFA" stroke="#7C4DBC" stroke-width="0.5"/><circle cx="19" cy="70" r="2" fill="#F1ECFA" stroke="#7C4DBC" stroke-width="0.5"/><circle cx="10" cy="96" r="2" fill="#F1ECFA" stroke="#7C4DBC" stroke-width="0.5"/><circle cx="221" cy="108" r="2" fill="#F1ECFA" stroke="#7C4DBC" stroke-width="0.5"/><circle cx="9" cy="112" r="2" fill="#F1ECFA" stroke="#7C4DBC" stroke-width="0.5"/><circle cx="66.1" cy="59.5" r="2.6" fill="#5b3a99" opacity="0.85"/><circle cx="69.5" cy="52.4" r="2.6" fill="#5b3a99" opacity="0.85"/><circle cx="68.7" cy="58.3" r="2.6" fill="#5b3a99" opacity="0.85"/><circle cx="70.3" cy="64.4" r="2.6" fill="#5b3a99" opacity="0.85"/><circle cx="76.5" cy="59.0" r="2.6" fill="#5b3a99" opacity="0.85"/><circle cx="63.4" cy="58.8" r="2.6" fill="#5b3a99" opacity="0.85"/><circle cx="75.3" cy="64.2" r="2.6" fill="#5b3a99" opacity="0.85"/><circle cx="68.0" cy="57.2" r="2.6" fill="#5b3a99" opacity="0.85"/><circle cx="66.9" cy="63.8" r="2.6" fill="#5b3a99" opacity="0.85"/><circle cx="74.4" cy="58.7" r="2.6" fill="#5b3a99" opacity="0.85"/><circle cx="70" cy="60" r="13" fill="none" stroke="#b5481f" stroke-width="1.4" stroke-dasharray="2,2"/><circle cx="149.9" cy="66.4" r="2.6" fill="#5b3a99" opacity="0.85"/><circle cx="150.0" cy="73.9" r="2.6" fill="#5b3a99" opacity="0.85"/><circle cx="145.6" cy="73.1" r="2.6" fill="#5b3a99" opacity="0.85"/><circle cx="149.1" cy="66.5" r="2.6" fill="#5b3a99" opacity="0.85"/><circle cx="153.8" cy="67.1" r="2.6" fill="#5b3a99" opacity="0.85"/><circle cx="147.5" cy="72.2" r="2.6" fill="#5b3a99" opacity="0.85"/><circle cx="144.3" cy="66.6" r="2.6" fill="#5b3a99" opacity="0.85"/><circle cx="151.9" cy="76.7" r="2.6" fill="#5b3a99" opacity="0.85"/><circle cx="145.9" cy="69.3" r="2.6" fill="#5b3a99" opacity="0.85"/><circle cx="148.9" cy="72.4" r="2.6" fill="#5b3a99" opacity="0.85"/><circle cx="150" cy="70" r="13" fill="none" stroke="#b5481f" stroke-width="1.4" stroke-dasharray="2,2"/><circle cx="109.9" cy="106.4" r="2.6" fill="#5b3a99" opacity="0.85"/><circle cx="110.0" cy="113.9" r="2.6" fill="#5b3a99" opacity="0.85"/><circle cx="105.6" cy="113.1" r="2.6" fill="#5b3a99" opacity="0.85"/><circle cx="109.1" cy="106.5" r="2.6" fill="#5b3a99" opacity="0.85"/><circle cx="113.8" cy="107.1" r="2.6" fill="#5b3a99" opacity="0.85"/><circle cx="107.5" cy="112.2" r="2.6" fill="#5b3a99" opacity="0.85"/><circle cx="104.3" cy="106.6" r="2.6" fill="#5b3a99" opacity="0.85"/><circle cx="111.9" cy="116.7" r="2.6" fill="#5b3a99" opacity="0.85"/><circle cx="105.9" cy="109.3" r="2.6" fill="#5b3a99" opacity="0.85"/><circle cx="108.9" cy="112.4" r="2.6" fill="#5b3a99" opacity="0.85"/><circle cx="110" cy="110" r="13" fill="none" stroke="#b5481f" stroke-width="1.4" stroke-dasharray="2,2"/><circle cx="167.6" cy="116.1" r="2.6" fill="#5b3a99" opacity="0.85"/><circle cx="175.1" cy="106.2" r="2.6" fill="#5b3a99" opacity="0.85"/><circle cx="169.6" cy="115.8" r="2.6" fill="#5b3a99" opacity="0.85"/><circle cx="163.1" cy="107.5" r="2.6" fill="#5b3a99" opacity="0.85"/><circle cx="163.4" cy="110.4" r="2.6" fill="#5b3a99" opacity="0.85"/><circle cx="176.1" cy="107.5" r="2.6" fill="#5b3a99" opacity="0.85"/><circle cx="170.4" cy="104.7" r="2.6" fill="#5b3a99" opacity="0.85"/><circle cx="165.7" cy="103.2" r="2.6" fill="#5b3a99" opacity="0.85"/><circle cx="174.5" cy="105.2" r="2.6" fill="#5b3a99" opacity="0.85"/><circle cx="165.6" cy="110.6" r="2.6" fill="#5b3a99" opacity="0.85"/><circle cx="170" cy="110" r="13" fill="none" stroke="#b5481f" stroke-width="1.4" stroke-dasharray="2,2"/>
  <text x="120.0" y="152" font-family="sans-serif" font-size="7.5" fill="#1b2430" text-anchor="middle" opacity="0.55">Microglial nodules &amp; perivascular cuffing — viral encephalitis</text>
</svg>