<svg xmlns="http://www.w3.org/2000/svg" viewBox="0 0 240 160" width="240" height="160">
  <rect width="240" height="160" fill="#f8f5fc"/>
  <circle cx="120" cy="85" r="48" fill="none" stroke="#7C4DBC" stroke-width="2"/>
  <circle cx="68.6" cy="58.1" r="1.8" fill="#5B3A8C" opacity="0.7"/><circle cx="84.8" cy="49.5" r="1.8" fill="#5B3A8C" opacity="0.7"/><circle cx="104.2" cy="50.6" r="1.8" fill="#5B3A8C" opacity="0.7"/><circle cx="72.7" cy="83.4" r="1.8" fill="#5B3A8C" opacity="0.7"/><circle cx="77.7" cy="52.8" r="1.8" fill="#5B3A8C" opacity="0.7"/><circle cx="93.8" cy="46.0" r="1.8" fill="#5B3A8C" opacity="0.7"/><circle cx="102.7" cy="55.9" r="1.8" fill="#5B3A8C" opacity="0.7"/><circle cx="90.3" cy="63.9" r="1.8" fill="#5B3A8C" opacity="0.7"/><circle cx="93.6" cy="69.0" r="1.8" fill="#5B3A8C" opacity="0.7"/><circle cx="100.4" cy="75.0" r="1.8" fill="#5B3A8C" opacity="0.7"/><circle cx="73.8" cy="79.6" r="1.8" fill="#5B3A8C" opacity="0.7"/><circle cx="72.2" cy="71.7" r="1.8" fill="#5B3A8C" opacity="0.7"/><circle cx="75.9" cy="49.9" r="1.8" fill="#5B3A8C" opacity="0.7"/><circle cx="91.7" cy="73.9" r="1.8" fill="#5B3A8C" opacity="0.7"/><circle cx="92.5" cy="47.5" r="1.8" fill="#5B3A8C" opacity="0.7"/><circle cx="77.7" cy="65.3" r="1.8" fill="#5B3A8C" opacity="0.7"/><circle cx="79.0" cy="57.3" r="1.8" fill="#5B3A8C" opacity="0.7"/><circle cx="82.8" cy="45.8" r="1.8" fill="#5B3A8C" opacity="0.7"/><circle cx="88.0" cy="69.2" r="1.8" fill="#5B3A8C" opacity="0.7"/><circle cx="99.0" cy="79.2" r="1.8" fill="#5B3A8C" opacity="0.7"/><circle cx="86.8" cy="57.0" r="1.8" fill="#5B3A8C" opacity="0.7"/><circle cx="86.2" cy="79.3" r="1.8" fill="#5B3A8C" opacity="0.7"/>
  <text x="85" y="40" font-size="6.5" fill="#7C4DBC" text-anchor="middle">blastema</text>
  <circle cx="150" cy="65" r="5" fill="none" stroke="#7C4DBC" stroke-width="1"/>
  <circle cx="160" cy="75" r="5" fill="none" stroke="#7C4DBC" stroke-width="1"/>
  <circle cx="148" cy="80" r="5" fill="none" stroke="#7C4DBC" stroke-width="1"/>
  <text x="155" y="45" font-size="6.5" fill="#7C4DBC" text-anchor="middle">epithelial tubules</text>
  <path d="M90,110 Q110,125 140,118 Q150,115 155,108" fill="none" stroke="#9B7FC4" stroke-width="3" opacity="0.6"/>
  <text x="120" y="140" font-size="6.5" fill="#7C4DBC" text-anchor="middle">stroma</text>
  <text x="120.0" y="152" font-family="sans-serif" font-size="7.5" fill="#1b2430" text-anchor="middle" opacity="0.55">Wilms tumor — triphasic pattern (blastema, epithelial, stromal elements)</text>
</svg>