<svg xmlns="http://www.w3.org/2000/svg" viewBox="0 0 240 160" width="240" height="160">
  <rect width="240" height="160" fill="#f8f5fc"/>
<circle cx="90" cy="85" r="42" fill="#F1ECFA" stroke="#7C4DBC" stroke-width="1.6"/><circle cx="90" cy="85" r="6" fill="#C9637A" stroke="#6b2030" stroke-width="1.4"/><ellipse cx="112.0" cy="85.0" rx="5" ry="3.5" fill="#E4D9F5" stroke="#7C4DBC" stroke-width="0.8" transform="rotate(90.0 112.0 85.0)"/><ellipse cx="110.3" cy="93.4" rx="5" ry="3.5" fill="#E4D9F5" stroke="#7C4DBC" stroke-width="0.8" transform="rotate(112.5 110.3 93.4)"/><ellipse cx="105.6" cy="100.6" rx="5" ry="3.5" fill="#E4D9F5" stroke="#7C4DBC" stroke-width="0.8" transform="rotate(135.0 105.6 100.6)"/><ellipse cx="98.4" cy="105.3" rx="5" ry="3.5" fill="#E4D9F5" stroke="#7C4DBC" stroke-width="0.8" transform="rotate(157.5 98.4 105.3)"/><ellipse cx="90.0" cy="107.0" rx="5" ry="3.5" fill="#E4D9F5" stroke="#7C4DBC" stroke-width="0.8" transform="rotate(180.0 90.0 107.0)"/><ellipse cx="81.6" cy="105.3" rx="5" ry="3.5" fill="#E4D9F5" stroke="#7C4DBC" stroke-width="0.8" transform="rotate(202.5 81.6 105.3)"/><ellipse cx="74.4" cy="100.6" rx="5" ry="3.5" fill="#E4D9F5" stroke="#7C4DBC" stroke-width="0.8" transform="rotate(225.0 74.4 100.6)"/><ellipse cx="69.7" cy="93.4" rx="5" ry="3.5" fill="#E4D9F5" stroke="#7C4DBC" stroke-width="0.8" transform="rotate(247.5 69.7 93.4)"/><ellipse cx="68.0" cy="85.0" rx="5" ry="3.5" fill="#E4D9F5" stroke="#7C4DBC" stroke-width="0.8" transform="rotate(270.0 68.0 85.0)"/><ellipse cx="69.7" cy="76.6" rx="5" ry="3.5" fill="#E4D9F5" stroke="#7C4DBC" stroke-width="0.8" transform="rotate(292.5 69.7 76.6)"/><ellipse cx="74.4" cy="69.4" rx="5" ry="3.5" fill="#E4D9F5" stroke="#7C4DBC" stroke-width="0.8" transform="rotate(315.0 74.4 69.4)"/><ellipse cx="81.6" cy="64.7" rx="5" ry="3.5" fill="#E4D9F5" stroke="#7C4DBC" stroke-width="0.8" transform="rotate(337.5 81.6 64.7)"/><ellipse cx="90.0" cy="63.0" rx="5" ry="3.5" fill="#E4D9F5" stroke="#7C4DBC" stroke-width="0.8" transform="rotate(360.0 90.0 63.0)"/><ellipse cx="98.4" cy="64.7" rx="5" ry="3.5" fill="#E4D9F5" stroke="#7C4DBC" stroke-width="0.8" transform="rotate(382.50000000000006 98.4 64.7)"/><ellipse cx="105.6" cy="69.4" rx="5" ry="3.5" fill="#E4D9F5" stroke="#7C4DBC" stroke-width="0.8" transform="rotate(405.0 105.6 69.4)"/><ellipse cx="110.3" cy="76.6" rx="5" ry="3.5" fill="#E4D9F5" stroke="#7C4DBC" stroke-width="0.8" transform="rotate(427.50000000000006 110.3 76.6)"/><ellipse cx="180" cy="55" rx="13" ry="10" fill="#E89BAE" stroke="#8a2e44" stroke-width="1.4"/><circle cx="175" cy="52" r="2.4" fill="#fff" stroke="#5b0f22" stroke-width="0.8"/><circle cx="185" cy="53" r="2.4" fill="#fff" stroke="#5b0f22" stroke-width="0.8"/><circle cx="180" cy="59" r="2.4" fill="#fff" stroke="#5b0f22" stroke-width="0.8"/><ellipse cx="195" cy="70" rx="13" ry="10" fill="#E89BAE" stroke="#8a2e44" stroke-width="1.4"/><circle cx="190" cy="67" r="2.4" fill="#fff" stroke="#5b0f22" stroke-width="0.8"/><circle cx="200" cy="68" r="2.4" fill="#fff" stroke="#5b0f22" stroke-width="0.8"/><circle cx="195" cy="74" r="2.4" fill="#fff" stroke="#5b0f22" stroke-width="0.8"/><ellipse cx="170" cy="72" rx="13" ry="10" fill="#E89BAE" stroke="#8a2e44" stroke-width="1.4"/><circle cx="165" cy="69" r="2.4" fill="#fff" stroke="#5b0f22" stroke-width="0.8"/><circle cx="175" cy="70" r="2.4" fill="#fff" stroke="#5b0f22" stroke-width="0.8"/><circle cx="170" cy="76" r="2.4" fill="#fff" stroke="#5b0f22" stroke-width="0.8"/><polygon points="168,99 182,99 184,110 175,114 166,110" fill="#FBE3E9" stroke="#8a2e44" stroke-width="1.2"/><circle cx="175" cy="105" r="2.6" fill="#fff" stroke="#5b0f22" stroke-width="0.8"/><polygon points="188,104 202,104 204,115 195,119 186,115" fill="#FBE3E9" stroke="#8a2e44" stroke-width="1.2"/><circle cx="195" cy="110" r="2.6" fill="#fff" stroke="#5b0f22" stroke-width="0.8"/><polygon points="153,109 167,109 169,120 160,124 151,120" fill="#FBE3E9" stroke="#8a2e44" stroke-width="1.2"/><circle cx="160" cy="115" r="2.6" fill="#fff" stroke="#5b0f22" stroke-width="0.8"/>
  <text x="120.0" y="152" font-family="sans-serif" font-size="7.5" fill="#1b2430" text-anchor="middle" opacity="0.55">Schiller-Duval body (yolk sac) & syncytio/cytotrophoblasts (choriocarcinoma)</text>
</svg>